<?xml version="1.0" encoding="UTF-8"?>
<svg id="Layer_2" data-name="Layer 2" xmlns="http://www.w3.org/2000/svg" viewBox="0 0 144.38 194.7">
  <defs>
    <style>
      .cls-1 {
        fill: #fff;
      }

      .cls-2 {
        fill: #95e0e6;
      }

      .cls-3 {
        fill: #565656;
      }

      .cls-4 {
        fill: #363636;
      }

      .cls-5 {
        fill: #33b0da;
      }

      .cls-6 {
        fill: #8dc05f;
      }

      .cls-7 {
        fill: #ffc0c0;
      }

      .cls-8 {
        fill: #ffdfbc;
      }
    </style>
  </defs>
  <g id="_背景ドット" data-name="背景ドット">
    <g>
      <path class="cls-1" d="m55.7,86.11c-.08.1-.14.23-.14.37,0,.21.11.38.27.49-.04-.29-.09-.57-.13-.85Z"/>
      <path class="cls-1" d="m52.14,85.88c-.33,0-.59.27-.59.59s.27.59.59.59.59-.27.59-.59-.27-.59-.59-.59Z"/>
      <path class="cls-1" d="m54.14,82.41c-.33,0-.59.27-.59.59s.27.59.59.59.59-.27.59-.59-.27-.59-.59-.59Z"/>
      <path class="cls-1" d="m56.03,92.86c-.27.06-.47.28-.47.57,0,.25.16.46.38.55.04-.37.07-.74.1-1.12Z"/>
      <path class="cls-1" d="m52.14,92.84c-.33,0-.59.27-.59.59s.27.59.59.59.59-.27.59-.59-.27-.59-.59-.59Z"/>
      <circle class="cls-1" cx="54.14" cy="89.95" r=".59"/>
      <circle class="cls-1" cx="54.14" cy="96.91" r=".59"/>
      <circle class="cls-1" cx="48.12" cy="72.57" r=".59"/>
      <path class="cls-1" d="m50.13,76.64c.33,0,.59-.27.59-.59s-.27-.59-.59-.59-.59.27-.59.59.27.59.59.59Z"/>
      <path class="cls-1" d="m48.12,85.88c-.33,0-.59.27-.59.59s.27.59.59.59.59-.27.59-.59-.27-.59-.59-.59Z"/>
      <path class="cls-1" d="m50.72,83c0-.33-.27-.59-.59-.59s-.59.27-.59.59.27.59.59.59.59-.27.59-.59Z"/>
      <path class="cls-1" d="m52.14,80.12c.33,0,.59-.27.59-.59s-.27-.59-.59-.59-.59.27-.59.59.27.59.59.59Z"/>
      <circle class="cls-1" cx="48.12" cy="93.43" r=".59"/>
      <path class="cls-1" d="m49.54,89.95c0,.33.27.59.59.59s.59-.27.59-.59-.27-.59-.59-.59-.59.27-.59.59Z"/>
      <circle class="cls-1" cx="48.12" cy="100.38" r=".59"/>
      <path class="cls-1" d="m49.54,96.91c0,.33.27.59.59.59s.59-.27.59-.59-.27-.59-.59-.59-.59.27-.59.59Z"/>
      <path class="cls-1" d="m48.12,106.74c-.33,0-.59.27-.59.59s.27.59.59.59.59-.27.59-.59-.27-.59-.59-.59Z"/>
      <path class="cls-1" d="m50.13,103.26c-.33,0-.59.27-.59.59s.27.59.59.59.59-.27.59-.59-.27-.59-.59-.59Z"/>
      <path class="cls-1" d="m52.14,100.97c.33,0,.59-.27.59-.59s-.27-.59-.59-.59-.59.27-.59.59.27.59.59.59Z"/>
      <path class="cls-1" d="m46.12,69.69c.09,0,.18-.03.26-.06-.27-.23-.54-.46-.82-.68-.01.05-.03.1-.03.15,0,.33.27.59.59.59Z"/>
      <path class="cls-1" d="m44.11,78.93c-.33,0-.59.27-.59.59s.27.59.59.59.59-.27.59-.59-.27-.59-.59-.59Z"/>
      <circle class="cls-1" cx="46.12" cy="76.05" r=".59"/>
      <path class="cls-1" d="m44.11,85.88c-.33,0-.59.27-.59.59s.27.59.59.59.59-.27.59-.59-.27-.59-.59-.59Z"/>
      <path class="cls-1" d="m46.71,83c0-.33-.27-.59-.59-.59s-.59.27-.59.59.27.59.59.59.59-.27.59-.59Z"/>
      <circle class="cls-1" cx="48.12" cy="79.53" r=".59"/>
      <circle class="cls-1" cx="46.12" cy="89.95" r=".59"/>
      <circle class="cls-1" cx="46.12" cy="96.91" r=".59"/>
      <circle class="cls-1" cx="46.12" cy="103.86" r=".59"/>
      <path class="cls-1" d="m45.52,110.81c0,.33.27.59.59.59s.59-.27.59-.59-.27-.59-.59-.59-.59.27-.59.59Z"/>
      <circle class="cls-1" cx="40.1" cy="72.57" r=".59"/>
      <path class="cls-1" d="m42.1,69.69c.33,0,.59-.27.59-.59s-.27-.59-.59-.59-.59.27-.59.59.27.59.59.59Z"/>
      <circle class="cls-1" cx="40.1" cy="79.53" r=".59"/>
      <path class="cls-1" d="m42.7,76.05c0-.33-.27-.59-.59-.59s-.59.27-.59.59.27.59.59.59.59-.27.59-.59Z"/>
      <path class="cls-1" d="m44.11,73.17c.33,0,.59-.27.59-.59s-.27-.59-.59-.59-.59.27-.59.59.27.59.59.59Z"/>
      <path class="cls-1" d="m40.1,85.88c-.33,0-.59.27-.59.59s.27.59.59.59.59-.27.59-.59-.27-.59-.59-.59Z"/>
      <path class="cls-1" d="m42.7,83c0-.33-.27-.59-.59-.59s-.59.27-.59.59.27.59.59.59.59-.27.59-.59Z"/>
      <circle class="cls-1" cx="40.1" cy="93.43" r=".59"/>
      <path class="cls-1" d="m42.7,89.95c0-.33-.27-.59-.59-.59s-.59.27-.59.59.27.59.59.59.59-.27.59-.59Z"/>
      <circle class="cls-1" cx="40.1" cy="100.38" r=".59"/>
      <path class="cls-1" d="m41.51,96.91c0,.33.27.59.59.59s.59-.27.59-.59-.27-.59-.59-.59-.59.27-.59.59Z"/>
      <path class="cls-1" d="m44.11,94.02c.33,0,.59-.27.59-.59s-.27-.59-.59-.59-.59.27-.59.59.27.59.59.59Z"/>
      <path class="cls-1" d="m40.1,106.74c-.33,0-.59.27-.59.59s.27.59.59.59.59-.27.59-.59-.27-.59-.59-.59Z"/>
      <path class="cls-1" d="m41.51,103.86c0,.33.27.59.59.59s.59-.27.59-.59-.27-.59-.59-.59-.59.27-.59.59Z"/>
      <path class="cls-1" d="m44.11,100.97c.33,0,.59-.27.59-.59s-.27-.59-.59-.59-.59.27-.59.59.27.59.59.59Z"/>
      <path class="cls-1" d="m44.34,113.74c-.07-.03-.15-.05-.23-.05-.33,0-.59.27-.59.59,0,0,0,.01,0,.02.28-.18.55-.37.82-.57Z"/>
      <circle class="cls-1" cx="40.1" cy="114.28" r=".59"/>
      <path class="cls-1" d="m41.51,110.81c0,.33.27.59.59.59s.59-.27.59-.59-.27-.59-.59-.59-.59.27-.59.59Z"/>
      <path class="cls-1" d="m44.11,107.93c.33,0,.59-.27.59-.59s-.27-.59-.59-.59-.59.27-.59.59.27.59.59.59Z"/>
      <path class="cls-1" d="m36.08,65.03c-.33,0-.59.27-.59.59s.27.59.59.59.59-.27.59-.59-.27-.59-.59-.59Z"/>
      <path class="cls-1" d="m36.08,71.98c-.33,0-.59.27-.59.59s.27.59.59.59.59-.27.59-.59-.27-.59-.59-.59Z"/>
      <path class="cls-1" d="m38.09,68.5c-.33,0-.59.27-.59.59s.27.59.59.59.59-.27.59-.59-.27-.59-.59-.59Z"/>
      <path class="cls-1" d="m39.5,65.62c0,.33.27.59.59.59.27,0,.48-.18.56-.42-.34-.17-.69-.34-1.04-.5-.06.09-.11.2-.11.32Z"/>
      <path class="cls-1" d="m36.08,78.93c-.33,0-.59.27-.59.59s.27.59.59.59.59-.27.59-.59-.27-.59-.59-.59Z"/>
      <path class="cls-1" d="m38.68,76.05c0-.33-.27-.59-.59-.59s-.59.27-.59.59.27.59.59.59.59-.27.59-.59Z"/>
      <path class="cls-1" d="m36.08,85.88c-.33,0-.59.27-.59.59s.27.59.59.59.59-.27.59-.59-.27-.59-.59-.59Z"/>
      <path class="cls-1" d="m38.68,83c0-.33-.27-.59-.59-.59s-.59.27-.59.59.27.59.59.59.59-.27.59-.59Z"/>
      <path class="cls-1" d="m36.08,92.84c-.33,0-.59.27-.59.59s.27.59.59.59.59-.27.59-.59-.27-.59-.59-.59Z"/>
      <path class="cls-1" d="m38.68,89.95c0-.33-.27-.59-.59-.59s-.59.27-.59.59.27.59.59.59.59-.27.59-.59Z"/>
      <path class="cls-1" d="m36.08,99.79c-.33,0-.59.27-.59.59s.27.59.59.59.59-.27.59-.59-.27-.59-.59-.59Z"/>
      <path class="cls-1" d="m37.5,96.91c0,.33.27.59.59.59s.59-.27.59-.59-.27-.59-.59-.59-.59.27-.59.59Z"/>
      <path class="cls-1" d="m36.08,106.74c-.33,0-.59.27-.59.59s.27.59.59.59.59-.27.59-.59-.27-.59-.59-.59Z"/>
      <path class="cls-1" d="m37.5,103.86c0,.33.27.59.59.59s.59-.27.59-.59-.27-.59-.59-.59-.59.27-.59.59Z"/>
      <path class="cls-1" d="m36.08,113.69c-.33,0-.59.27-.59.59s.27.59.59.59.59-.27.59-.59-.27-.59-.59-.59Z"/>
      <path class="cls-1" d="m37.5,110.81c0,.33.27.59.59.59s.59-.27.59-.59-.27-.59-.59-.59-.59.27-.59.59Z"/>
      <circle class="cls-1" cx="32.07" cy="65.62" r=".59"/>
      <circle class="cls-1" cx="32.07" cy="72.57" r=".59"/>
      <circle class="cls-1" cx="34.08" cy="69.1" r=".59"/>
      <circle class="cls-1" cx="32.07" cy="79.53" r=".59"/>
      <circle class="cls-1" cx="34.08" cy="76.05" r=".59"/>
      <path class="cls-1" d="m32.07,85.88c-.33,0-.59.27-.59.59s.27.59.59.59.59-.27.59-.59-.27-.59-.59-.59Z"/>
      <path class="cls-1" d="m34.67,83c0-.33-.27-.59-.59-.59s-.59.27-.59.59.27.59.59.59.59-.27.59-.59Z"/>
      <circle class="cls-1" cx="32.07" cy="93.43" r=".59"/>
      <circle class="cls-1" cx="34.08" cy="89.95" r=".59"/>
      <circle class="cls-1" cx="32.07" cy="100.38" r=".59"/>
      <circle class="cls-1" cx="34.08" cy="96.91" r=".59"/>
      <path class="cls-1" d="m32.07,106.74c-.33,0-.59.27-.59.59s.27.59.59.59.59-.27.59-.59-.27-.59-.59-.59Z"/>
      <circle class="cls-1" cx="34.08" cy="103.86" r=".59"/>
      <circle class="cls-1" cx="32.07" cy="114.28" r=".59"/>
      <path class="cls-1" d="m33.48,110.81c0,.33.27.59.59.59s.59-.27.59-.59-.27-.59-.59-.59-.59.27-.59.59Z"/>
      <path class="cls-1" d="m34.67,117.76c0-.33-.27-.59-.59-.59s-.59.27-.59.59c0,.29.22.52.49.57.15-.03.3-.07.44-.1.15-.11.25-.27.25-.47Z"/>
      <path class="cls-1" d="m28.06,65.03c-.33,0-.59.27-.59.59s.27.59.59.59.59-.27.59-.59-.27-.59-.59-.59Z"/>
      <path class="cls-1" d="m28.06,71.98c-.33,0-.59.27-.59.59s.27.59.59.59.59-.27.59-.59-.27-.59-.59-.59Z"/>
      <path class="cls-1" d="m30.66,69.1c0-.33-.27-.59-.59-.59s-.59.27-.59.59.27.59.59.59.59-.27.59-.59Z"/>
      <path class="cls-1" d="m28.06,78.93c-.33,0-.59.27-.59.59s.27.59.59.59.59-.27.59-.59-.27-.59-.59-.59Z"/>
      <path class="cls-1" d="m30.66,76.05c0-.33-.27-.59-.59-.59s-.59.27-.59.59.27.59.59.59.59-.27.59-.59Z"/>
      <path class="cls-1" d="m30.06,82.41c-.33,0-.59.27-.59.59s.27.59.59.59.59-.27.59-.59-.27-.59-.59-.59Z"/>
      <path class="cls-1" d="m28.06,92.84c-.33,0-.59.27-.59.59s.27.59.59.59.59-.27.59-.59-.27-.59-.59-.59Z"/>
      <path class="cls-1" d="m30.66,89.95c0-.33-.27-.59-.59-.59s-.59.27-.59.59.27.59.59.59.59-.27.59-.59Z"/>
      <path class="cls-1" d="m28.06,99.79c-.33,0-.59.27-.59.59s.27.59.59.59.59-.27.59-.59-.27-.59-.59-.59Z"/>
      <path class="cls-1" d="m29.47,96.91c0,.33.27.59.59.59s.59-.27.59-.59-.27-.59-.59-.59-.59.27-.59.59Z"/>
      <path class="cls-1" d="m28.06,106.74c-.33,0-.59.27-.59.59s.27.59.59.59.59-.27.59-.59-.27-.59-.59-.59Z"/>
      <path class="cls-1" d="m29.47,103.86c0,.33.27.59.59.59s.59-.27.59-.59-.27-.59-.59-.59-.59.27-.59.59Z"/>
      <path class="cls-1" d="m28.06,113.69c-.33,0-.59.27-.59.59s.27.59.59.59.59-.27.59-.59-.27-.59-.59-.59Z"/>
      <path class="cls-1" d="m29.47,110.81c0,.33.27.59.59.59s.59-.27.59-.59-.27-.59-.59-.59-.59.27-.59.59Z"/>
      <path class="cls-1" d="m29.47,117.76c0,.33.27.59.59.59s.59-.27.59-.59-.27-.59-.59-.59-.59.27-.59.59Z"/>
      <path class="cls-1" d="m24.04,65.03c-.33,0-.59.27-.59.59s.27.59.59.59.59-.27.59-.59-.27-.59-.59-.59Z"/>
      <path class="cls-1" d="m24.04,71.98c-.33,0-.59.27-.59.59s.27.59.59.59.59-.27.59-.59-.27-.59-.59-.59Z"/>
      <circle class="cls-1" cx="26.05" cy="69.1" r=".59"/>
      <circle class="cls-1" cx="26.05" cy="76.05" r=".59"/>
      <path class="cls-1" d="m24.04,85.88c-.33,0-.59.27-.59.59s.27.59.59.59.59-.27.59-.59-.27-.59-.59-.59Z"/>
      <path class="cls-1" d="m26.05,83.6c.33,0,.59-.27.59-.59s-.27-.59-.59-.59-.59.27-.59.59.27.59.59.59Z"/>
      <path class="cls-1" d="m24.04,92.84c-.33,0-.59.27-.59.59s.27.59.59.59.59-.27.59-.59-.27-.59-.59-.59Z"/>
      <circle class="cls-1" cx="26.05" cy="89.95" r=".59"/>
      <path class="cls-1" d="m28.06,87.07c.33,0,.59-.27.59-.59s-.27-.59-.59-.59-.59.27-.59.59.27.59.59.59Z"/>
      <path class="cls-1" d="m24.04,99.79c-.33,0-.59.27-.59.59s.27.59.59.59.59-.27.59-.59-.27-.59-.59-.59Z"/>
      <circle class="cls-1" cx="26.05" cy="96.91" r=".59"/>
      <path class="cls-1" d="m24.04,106.74c-.33,0-.59.27-.59.59s.27.59.59.59.59-.27.59-.59-.27-.59-.59-.59Z"/>
      <circle class="cls-1" cx="26.05" cy="103.86" r=".59"/>
      <path class="cls-1" d="m24.04,113.69c-.33,0-.59.27-.59.59s.27.59.59.59.59-.27.59-.59-.27-.59-.59-.59Z"/>
      <path class="cls-1" d="m25.46,110.81c0,.33.27.59.59.59s.59-.27.59-.59-.27-.59-.59-.59-.59.27-.59.59Z"/>
      <circle class="cls-1" cx="26.05" cy="117.76" r=".59"/>
      <circle class="cls-1" cx="20.03" cy="65.62" r=".59"/>
      <path class="cls-1" d="m22.63,69.1c0-.33-.27-.59-.59-.59s-.59.27-.59.59.27.59.59.59.59-.27.59-.59Z"/>
      <circle class="cls-1" cx="20.03" cy="79.53" r=".59"/>
      <path class="cls-1" d="m22.04,76.64c.33,0,.59-.27.59-.59s-.27-.59-.59-.59-.59.27-.59.59.27.59.59.59Z"/>
      <path class="cls-1" d="m20.03,85.88c-.33,0-.59.27-.59.59s.27.59.59.59.59-.27.59-.59-.27-.59-.59-.59Z"/>
      <path class="cls-1" d="m22.63,83c0-.33-.27-.59-.59-.59s-.59.27-.59.59.27.59.59.59.59-.27.59-.59Z"/>
      <path class="cls-1" d="m24.04,80.12c.33,0,.59-.27.59-.59s-.27-.59-.59-.59-.59.27-.59.59.27.59.59.59Z"/>
      <circle class="cls-1" cx="20.03" cy="93.43" r=".59"/>
      <path class="cls-1" d="m22.63,89.95c0-.33-.27-.59-.59-.59s-.59.27-.59.59.27.59.59.59.59-.27.59-.59Z"/>
      <circle class="cls-1" cx="20.03" cy="100.38" r=".59"/>
      <path class="cls-1" d="m21.44,96.91c0,.33.27.59.59.59s.59-.27.59-.59-.27-.59-.59-.59-.59.27-.59.59Z"/>
      <path class="cls-1" d="m20.03,106.74c-.33,0-.59.27-.59.59s.27.59.59.59.59-.27.59-.59-.27-.59-.59-.59Z"/>
      <path class="cls-1" d="m21.44,103.86c0,.33.27.59.59.59s.59-.27.59-.59-.27-.59-.59-.59-.59.27-.59.59Z"/>
      <circle class="cls-1" cx="20.03" cy="114.28" r=".59"/>
      <path class="cls-1" d="m21.44,110.81c0,.33.27.59.59.59s.59-.27.59-.59-.27-.59-.59-.59-.59.27-.59.59Z"/>
      <path class="cls-1" d="m22.63,117.76c0-.33-.27-.59-.59-.59s-.59.27-.59.59c0,.22.12.4.29.5.12.03.24.06.36.08.3-.03.54-.27.54-.58Z"/>
      <path class="cls-1" d="m16.02,71.98c-.33,0-.59.27-.59.59s.27.59.59.59.59-.27.59-.59-.27-.59-.59-.59Z"/>
      <circle class="cls-1" cx="18.02" cy="69.1" r=".59"/>
      <path class="cls-1" d="m16.02,78.93c-.33,0-.59.27-.59.59s.27.59.59.59.59-.27.59-.59-.27-.59-.59-.59Z"/>
      <circle class="cls-1" cx="18.02" cy="76.05" r=".59"/>
      <circle class="cls-1" cx="20.03" cy="72.57" r=".59"/>
      <path class="cls-1" d="m16.02,85.88c-.33,0-.59.27-.59.59s.27.59.59.59.59-.27.59-.59-.27-.59-.59-.59Z"/>
      <path class="cls-1" d="m18.62,83c0-.33-.27-.59-.59-.59s-.59.27-.59.59.27.59.59.59.59-.27.59-.59Z"/>
      <path class="cls-1" d="m16.02,92.84c-.33,0-.59.27-.59.59s.27.59.59.59.59-.27.59-.59-.27-.59-.59-.59Z"/>
      <circle class="cls-1" cx="18.02" cy="89.95" r=".59"/>
      <path class="cls-1" d="m16.02,99.79c-.33,0-.59.27-.59.59s.27.59.59.59.59-.27.59-.59-.27-.59-.59-.59Z"/>
      <circle class="cls-1" cx="18.02" cy="96.91" r=".59"/>
      <path class="cls-1" d="m16.02,106.74c-.33,0-.59.27-.59.59s.27.59.59.59.59-.27.59-.59-.27-.59-.59-.59Z"/>
      <circle class="cls-1" cx="18.02" cy="103.86" r=".59"/>
      <path class="cls-1" d="m16.02,113.69c-.33,0-.59.27-.59.59s.27.59.59.59.59-.27.59-.59-.27-.59-.59-.59Z"/>
      <path class="cls-1" d="m17.43,110.81c0,.33.27.59.59.59s.59-.27.59-.59-.27-.59-.59-.59-.59.27-.59.59Z"/>
      <path class="cls-1" d="m18.31,117.25s-.08-.04-.13-.05c.04.02.09.04.13.05Z"/>
      <path class="cls-1" d="m15.45,65.76c.06.26.29.46.57.46.33,0,.59-.27.59-.59,0-.13-.05-.25-.13-.35-.35.16-.69.32-1.03.49Z"/>
      <circle class="cls-1" cx="12" cy="72.57" r=".59"/>
      <path class="cls-1" d="m14.01,68.5c-.33,0-.59.27-.59.59s.27.59.59.59.59-.27.59-.59-.27-.59-.59-.59Z"/>
      <circle class="cls-1" cx="12" cy="79.53" r=".59"/>
      <path class="cls-1" d="m14.6,76.05c0-.33-.27-.59-.59-.59s-.59.27-.59.59.27.59.59.59.59-.27.59-.59Z"/>
      <path class="cls-1" d="m12,85.88c-.33,0-.59.27-.59.59s.27.59.59.59.59-.27.59-.59-.27-.59-.59-.59Z"/>
      <path class="cls-1" d="m14.6,83c0-.33-.27-.59-.59-.59s-.59.27-.59.59.27.59.59.59.59-.27.59-.59Z"/>
      <path class="cls-1" d="m14.6,89.95c0-.33-.27-.59-.59-.59s-.59.27-.59.59.27.59.59.59.59-.27.59-.59Z"/>
      <path class="cls-1" d="m13.42,96.91c0,.33.27.59.59.59s.59-.27.59-.59-.27-.59-.59-.59-.59.27-.59.59Z"/>
      <path class="cls-1" d="m13.42,103.86c0,.33.27.59.59.59s.59-.27.59-.59-.27-.59-.59-.59-.59.27-.59.59Z"/>
      <path class="cls-1" d="m13.42,110.81c0,.33.27.59.59.59s.59-.27.59-.59-.27-.59-.59-.59-.59.27-.59.59Z"/>
      <path class="cls-1" d="m12,107.93c.33,0,.59-.27.59-.59s-.27-.59-.59-.59-.59.27-.59.59.27.59.59.59Z"/>
      <path class="cls-1" d="m12,113.69c-.1,0-.19.03-.27.07.28.2.56.4.85.59,0-.02.01-.04.01-.07,0-.33-.27-.59-.59-.59Z"/>
      <path class="cls-1" d="m10.59,69.1c0-.07-.02-.14-.04-.21-.29.23-.57.47-.85.71.09.05.19.09.3.09.33,0,.59-.27.59-.59Z"/>
      <path class="cls-1" d="m10,75.46c-.33,0-.59.27-.59.59s.27.59.59.59.59-.27.59-.59-.27-.59-.59-.59Z"/>
      <path class="cls-1" d="m7.99,85.88c-.33,0-.59.27-.59.59s.27.59.59.59.59-.27.59-.59-.27-.59-.59-.59Z"/>
      <path class="cls-1" d="m10.59,83c0-.33-.27-.59-.59-.59s-.59.27-.59.59.27.59.59.59.59-.27.59-.59Z"/>
      <path class="cls-1" d="m10.59,89.95c0-.33-.27-.59-.59-.59s-.59.27-.59.59.27.59.59.59.59-.27.59-.59Z"/>
      <path class="cls-1" d="m9.4,96.91c0,.33.27.59.59.59s.59-.27.59-.59-.27-.59-.59-.59-.59.27-.59.59Z"/>
      <circle class="cls-1" cx="12" cy="93.43" r=".59"/>
      <path class="cls-1" d="m7.99,106.74c-.33,0-.59.27-.59.59s.27.59.59.59.59-.27.59-.59-.27-.59-.59-.59Z"/>
      <path class="cls-1" d="m9.4,103.86c0,.33.27.59.59.59s.59-.27.59-.59-.27-.59-.59-.59-.59.27-.59.59Z"/>
      <circle class="cls-1" cx="12" cy="100.38" r=".59"/>
      <path class="cls-1" d="m9.4,110.81c0,.33.27.59.59.59s.59-.27.59-.59-.27-.59-.59-.59-.59.27-.59.59Z"/>
      <circle class="cls-1" cx="3.97" cy="79.53" r=".59"/>
      <path class="cls-1" d="m5.98,75.46c-.33,0-.59.27-.59.59s.27.59.59.59.59-.27.59-.59-.27-.59-.59-.59Z"/>
      <path class="cls-1" d="m7.99,73.17c.33,0,.59-.27.59-.59s-.27-.59-.59-.59-.59.27-.59.59.27.59.59.59Z"/>
      <path class="cls-1" d="m3.97,85.88c-.33,0-.59.27-.59.59s.27.59.59.59.59-.27.59-.59-.27-.59-.59-.59Z"/>
      <path class="cls-1" d="m6.58,83c0-.33-.27-.59-.59-.59s-.59.27-.59.59.27.59.59.59.59-.27.59-.59Z"/>
      <path class="cls-1" d="m7.99,80.12c.33,0,.59-.27.59-.59s-.27-.59-.59-.59-.59.27-.59.59.27.59.59.59Z"/>
      <circle class="cls-1" cx="3.97" cy="93.43" r=".59"/>
      <path class="cls-1" d="m5.39,89.95c0,.33.27.59.59.59s.59-.27.59-.59-.27-.59-.59-.59-.59.27-.59.59Z"/>
      <circle class="cls-1" cx="3.97" cy="100.38" r=".59"/>
      <path class="cls-1" d="m5.39,96.91c0,.33.27.59.59.59s.59-.27.59-.59-.27-.59-.59-.59-.59.27-.59.59Z"/>
      <path class="cls-1" d="m7.99,94.02c.33,0,.59-.27.59-.59s-.27-.59-.59-.59-.59.27-.59.59.27.59.59.59Z"/>
      <path class="cls-1" d="m5.98,104.45c.33,0,.59-.27.59-.59s-.27-.59-.59-.59-.59.27-.59.59.27.59.59.59Z"/>
      <path class="cls-1" d="m7.99,100.97c.33,0,.59-.27.59-.59s-.27-.59-.59-.59-.59.27-.59.59.27.59.59.59Z"/>
      <path class="cls-1" d="m1.37,83c0,.33.27.59.59.59s.59-.27.59-.59-.27-.59-.59-.59-.59.27-.59.59Z"/>
      <path class="cls-1" d="m2.56,89.95c0-.33-.27-.59-.59-.59s-.59.27-.59.59.27.59.59.59.59-.27.59-.59Z"/>
      <path class="cls-1" d="m.19,87.02c.21-.09.36-.3.36-.55,0-.18-.08-.33-.21-.44-.06.33-.11.66-.15.99Z"/>
      <path class="cls-1" d="m2.56,96.91c0-.33-.27-.59-.59-.59s-.59.27-.59.59.27.59.59.59.59-.27.59-.59Z"/>
      <path class="cls-1" d="m.55,93.43c0-.31-.25-.56-.55-.59.03.39.06.77.1,1.15.26-.06.45-.29.45-.57Z"/>
    </g>
    <g>
      <circle class="cls-1" cx="140.44" cy="142.09" r=".59"/>
      <path class="cls-1" d="m141.85,138.62c0,.33.27.59.59.59.15,0,.28-.06.39-.15-.13-.35-.28-.69-.42-1.03-.31.02-.56.27-.56.59Z"/>
      <path class="cls-1" d="m143.86,149.04c0,.28.19.5.45.56.03-.38.06-.76.07-1.14-.29.04-.52.28-.52.58Z"/>
      <circle class="cls-1" cx="140.44" cy="149.04" r=".59"/>
      <path class="cls-1" d="m142.44,144.97c-.33,0-.59.27-.59.59s.27.59.59.59.59-.27.59-.59-.27-.59-.59-.59Z"/>
      <circle class="cls-1" cx="140.44" cy="156" r=".59"/>
      <path class="cls-1" d="m143.04,152.52c0-.33-.27-.59-.59-.59s-.59.27-.59.59.27.59.59.59.59-.27.59-.59Z"/>
      <path class="cls-1" d="m139.84,135.14c0,.33.27.59.59.59.27,0,.48-.18.56-.42-.16-.26-.32-.51-.48-.75-.03,0-.05-.01-.07-.01-.33,0-.59.27-.59.59Z"/>
      <path class="cls-1" d="m136.42,134.55c-.33,0-.59.27-.59.59s.27.59.59.59.59-.27.59-.59-.27-.59-.59-.59Z"/>
      <path class="cls-1" d="m138.43,132.26c.1,0,.19-.03.28-.08-.25-.29-.5-.57-.76-.84-.06.09-.11.2-.11.32,0,.33.27.59.59.59Z"/>
      <path class="cls-1" d="m136.42,141.5c-.33,0-.59.27-.59.59s.27.59.59.59.59-.27.59-.59-.27-.59-.59-.59Z"/>
      <path class="cls-1" d="m139.02,138.62c0-.33-.27-.59-.59-.59s-.59.27-.59.59.27.59.59.59.59-.27.59-.59Z"/>
      <path class="cls-1" d="m136.42,148.45c-.33,0-.59.27-.59.59s.27.59.59.59.59-.27.59-.59-.27-.59-.59-.59Z"/>
      <path class="cls-1" d="m138.43,144.97c-.33,0-.59.27-.59.59s.27.59.59.59.59-.27.59-.59-.27-.59-.59-.59Z"/>
      <path class="cls-1" d="m136.42,155.4c-.33,0-.59.27-.59.59s.27.59.59.59.59-.27.59-.59-.27-.59-.59-.59Z"/>
      <path class="cls-1" d="m138.43,151.93c-.33,0-.59.27-.59.59s.27.59.59.59.59-.27.59-.59-.27-.59-.59-.59Z"/>
      <path class="cls-1" d="m136.42,162.35c-.33,0-.59.27-.59.59s.27.59.59.59.59-.27.59-.59-.27-.59-.59-.59Z"/>
      <path class="cls-1" d="m139.02,159.47c0-.33-.27-.59-.59-.59s-.59.27-.59.59.27.59.59.59.59-.27.59-.59Z"/>
      <circle class="cls-1" cx="132.41" cy="128.19" r=".59"/>
      <path class="cls-1" d="m132.41,134.55c-.33,0-.59.27-.59.59s.27.59.59.59.59-.27.59-.59-.27-.59-.59-.59Z"/>
      <path class="cls-1" d="m133.82,131.66c0,.33.27.59.59.59s.59-.27.59-.59-.27-.59-.59-.59-.59.27-.59.59Z"/>
      <circle class="cls-1" cx="132.41" cy="142.09" r=".59"/>
      <circle class="cls-1" cx="134.42" cy="138.62" r=".59"/>
      <circle class="cls-1" cx="132.41" cy="149.04" r=".59"/>
      <circle class="cls-1" cx="134.42" cy="145.57" r=".59"/>
      <circle class="cls-1" cx="132.41" cy="156" r=".59"/>
      <circle class="cls-1" cx="134.42" cy="152.52" r=".59"/>
      <path class="cls-1" d="m132.41,162.35c-.33,0-.59.27-.59.59s.27.59.59.59.59-.27.59-.59-.27-.59-.59-.59Z"/>
      <path class="cls-1" d="m133.82,159.47c0,.33.27.59.59.59s.59-.27.59-.59-.27-.59-.59-.59-.59.27-.59.59Z"/>
      <path class="cls-1" d="m134.42,165.83c-.33,0-.59.27-.59.59,0,.22.13.41.31.51.29-.2.58-.4.86-.61-.05-.28-.28-.49-.57-.49Z"/>
      <path class="cls-1" d="m128.4,127.59c-.33,0-.59.27-.59.59s.27.59.59.59.59-.27.59-.59-.27-.59-.59-.59Z"/>
      <path class="cls-1" d="m128.4,134.55c-.33,0-.59.27-.59.59s.27.59.59.59.59-.27.59-.59-.27-.59-.59-.59Z"/>
      <path class="cls-1" d="m131,131.66c0-.33-.27-.59-.59-.59s-.59.27-.59.59.27.59.59.59.59-.27.59-.59Z"/>
      <path class="cls-1" d="m128.4,141.5c-.33,0-.59.27-.59.59s.27.59.59.59.59-.27.59-.59-.27-.59-.59-.59Z"/>
      <path class="cls-1" d="m131,138.62c0-.33-.27-.59-.59-.59s-.59.27-.59.59.27.59.59.59.59-.27.59-.59Z"/>
      <path class="cls-1" d="m131,145.57c0-.33-.27-.59-.59-.59s-.59.27-.59.59.27.59.59.59.59-.27.59-.59Z"/>
      <path class="cls-1" d="m129.81,152.52c0,.33.27.59.59.59s.59-.27.59-.59-.27-.59-.59-.59-.59.27-.59.59Z"/>
      <path class="cls-1" d="m129.81,159.47c0,.33.27.59.59.59s.59-.27.59-.59-.27-.59-.59-.59-.59.27-.59.59Z"/>
      <path class="cls-1" d="m129.81,166.42c0,.33.27.59.59.59s.59-.27.59-.59-.27-.59-.59-.59-.59.27-.59.59Z"/>
      <path class="cls-1" d="m124.38,127.59c-.33,0-.59.27-.59.59s.27.59.59.59.59-.27.59-.59-.27-.59-.59-.59Z"/>
      <path class="cls-1" d="m126.39,125.31c.3,0,.53-.22.58-.5-.37-.1-.75-.19-1.13-.27-.02.06-.04.12-.04.18,0,.33.27.59.59.59Z"/>
      <path class="cls-1" d="m124.38,134.55c-.33,0-.59.27-.59.59s.27.59.59.59.59-.27.59-.59-.27-.59-.59-.59Z"/>
      <path class="cls-1" d="m126.98,131.66c0-.33-.27-.59-.59-.59s-.59.27-.59.59.27.59.59.59.59-.27.59-.59Z"/>
      <path class="cls-1" d="m124.38,141.5c-.33,0-.59.27-.59.59s.27.59.59.59.59-.27.59-.59-.27-.59-.59-.59Z"/>
      <circle class="cls-1" cx="126.39" cy="138.62" r=".59"/>
      <path class="cls-1" d="m124.38,148.45c-.33,0-.59.27-.59.59s.27.59.59.59.59-.27.59-.59-.27-.59-.59-.59Z"/>
      <circle class="cls-1" cx="126.39" cy="145.57" r=".59"/>
      <path class="cls-1" d="m124.38,155.4c-.33,0-.59.27-.59.59s.27.59.59.59.59-.27.59-.59-.27-.59-.59-.59Z"/>
      <circle class="cls-1" cx="126.39" cy="152.52" r=".59"/>
      <path class="cls-1" d="m128.4,149.64c.33,0,.59-.27.59-.59s-.27-.59-.59-.59-.59.27-.59.59.27.59.59.59Z"/>
      <path class="cls-1" d="m124.38,162.35c-.33,0-.59.27-.59.59s.27.59.59.59.59-.27.59-.59-.27-.59-.59-.59Z"/>
      <path class="cls-1" d="m125.8,159.47c0,.33.27.59.59.59s.59-.27.59-.59-.27-.59-.59-.59-.59.27-.59.59Z"/>
      <path class="cls-1" d="m128.4,156.59c.33,0,.59-.27.59-.59s-.27-.59-.59-.59-.59.27-.59.59.27.59.59.59Z"/>
      <path class="cls-1" d="m128.9,169.61c-.1-.18-.29-.3-.51-.3-.33,0-.59.27-.59.59,0,.03.01.05.02.07.37-.11.73-.23,1.09-.36Z"/>
      <path class="cls-1" d="m124.38,169.3c-.33,0-.59.27-.59.59s.27.59.59.59.59-.27.59-.59-.27-.59-.59-.59Z"/>
      <circle class="cls-1" cx="126.39" cy="166.42" r=".59"/>
      <path class="cls-1" d="m128.4,163.54c.33,0,.59-.27.59-.59s-.27-.59-.59-.59-.59.27-.59.59.27.59.59.59Z"/>
      <path class="cls-1" d="m122.97,124.71c0-.33-.27-.59-.59-.59s-.59.27-.59.59.27.59.59.59.59-.27.59-.59Z"/>
      <path class="cls-1" d="m120.37,134.55c-.33,0-.59.27-.59.59s.27.59.59.59.59-.27.59-.59-.27-.59-.59-.59Z"/>
      <path class="cls-1" d="m122.97,131.66c0-.33-.27-.59-.59-.59s-.59.27-.59.59.27.59.59.59.59-.27.59-.59Z"/>
      <circle class="cls-1" cx="120.37" cy="142.09" r=".59"/>
      <path class="cls-1" d="m122.97,138.62c0-.33-.27-.59-.59-.59s-.59.27-.59.59.27.59.59.59.59-.27.59-.59Z"/>
      <path class="cls-1" d="m122.97,145.57c0-.33-.27-.59-.59-.59s-.59.27-.59.59.27.59.59.59.59-.27.59-.59Z"/>
      <circle class="cls-1" cx="120.37" cy="156" r=".59"/>
      <path class="cls-1" d="m121.78,152.52c0,.33.27.59.59.59s.59-.27.59-.59-.27-.59-.59-.59-.59.27-.59.59Z"/>
      <path class="cls-1" d="m120.37,162.35c-.33,0-.59.27-.59.59s.27.59.59.59.59-.27.59-.59-.27-.59-.59-.59Z"/>
      <path class="cls-1" d="m121.78,159.47c0,.33.27.59.59.59s.59-.27.59-.59-.27-.59-.59-.59-.59.27-.59.59Z"/>
      <path class="cls-1" d="m120.37,169.3c-.33,0-.59.27-.59.59s.27.59.59.59.59-.27.59-.59-.27-.59-.59-.59Z"/>
      <path class="cls-1" d="m121.78,166.42c0,.33.27.59.59.59s.59-.27.59-.59-.27-.59-.59-.59-.59.27-.59.59Z"/>
      <circle class="cls-1" cx="120.37" cy="128.19" r=".59"/>
      <path class="cls-1" d="m116.36,127.59c-.33,0-.59.27-.59.59s.27.59.59.59.59-.27.59-.59-.27-.59-.59-.59Z"/>
      <path class="cls-1" d="m117.77,124.71c0,.33.27.59.59.59s.59-.27.59-.59c0-.29-.22-.53-.5-.57-.12.01-.23.03-.35.04-.2.1-.34.3-.34.53Z"/>
      <path class="cls-1" d="m116.36,134.55c-.33,0-.59.27-.59.59s.27.59.59.59.59-.27.59-.59-.27-.59-.59-.59Z"/>
      <path class="cls-1" d="m118.96,131.66c0-.33-.27-.59-.59-.59s-.59.27-.59.59.27.59.59.59.59-.27.59-.59Z"/>
      <circle class="cls-1" cx="118.36" cy="138.62" r=".59"/>
      <path class="cls-1" d="m116.36,148.45c-.33,0-.59.27-.59.59s.27.59.59.59.59-.27.59-.59-.27-.59-.59-.59Z"/>
      <circle class="cls-1" cx="118.36" cy="145.57" r=".59"/>
      <path class="cls-1" d="m116.36,155.4c-.33,0-.59.27-.59.59s.27.59.59.59.59-.27.59-.59-.27-.59-.59-.59Z"/>
      <circle class="cls-1" cx="118.36" cy="152.52" r=".59"/>
      <circle class="cls-1" cx="120.37" cy="149.04" r=".59"/>
      <path class="cls-1" d="m116.36,162.35c-.33,0-.59.27-.59.59s.27.59.59.59.59-.27.59-.59-.27-.59-.59-.59Z"/>
      <path class="cls-1" d="m117.77,159.47c0,.33.27.59.59.59s.59-.27.59-.59-.27-.59-.59-.59-.59.27-.59.59Z"/>
      <path class="cls-1" d="m116.36,169.3c-.33,0-.59.27-.59.59s.27.59.59.59.59-.27.59-.59-.27-.59-.59-.59Z"/>
      <circle class="cls-1" cx="118.36" cy="166.42" r=".59"/>
      <circle class="cls-1" cx="112.34" cy="128.19" r=".59"/>
      <path class="cls-1" d="m114.35,125.31c.3,0,.55-.23.58-.53-.35.09-.7.19-1.04.3.11.14.27.23.46.23Z"/>
      <path class="cls-1" d="m114.94,131.66c0-.33-.27-.59-.59-.59s-.59.27-.59.59.27.59.59.59.59-.27.59-.59Z"/>
      <circle class="cls-1" cx="112.34" cy="142.09" r=".59"/>
      <path class="cls-1" d="m114.35,139.21c.33,0,.59-.27.59-.59s-.27-.59-.59-.59-.59.27-.59.59.27.59.59.59Z"/>
      <circle class="cls-1" cx="112.34" cy="149.04" r=".59"/>
      <path class="cls-1" d="m114.94,145.57c0-.33-.27-.59-.59-.59s-.59.27-.59.59.27.59.59.59.59-.27.59-.59Z"/>
      <path class="cls-1" d="m116.36,142.69c.33,0,.59-.27.59-.59s-.27-.59-.59-.59-.59.27-.59.59.27.59.59.59Z"/>
      <circle class="cls-1" cx="112.34" cy="156" r=".59"/>
      <path class="cls-1" d="m113.76,152.52c0,.33.27.59.59.59s.59-.27.59-.59-.27-.59-.59-.59-.59.27-.59.59Z"/>
      <path class="cls-1" d="m112.34,162.35c-.33,0-.59.27-.59.59s.27.59.59.59.59-.27.59-.59-.27-.59-.59-.59Z"/>
      <path class="cls-1" d="m113.76,159.47c0,.33.27.59.59.59s.59-.27.59-.59-.27-.59-.59-.59-.59.27-.59.59Z"/>
      <path class="cls-1" d="m112.34,169.3c-.05,0-.1.02-.15.03.21.08.42.17.64.25-.11-.17-.28-.28-.49-.28Z"/>
      <path class="cls-1" d="m114.35,167.02c.33,0,.59-.27.59-.59s-.27-.59-.59-.59-.59.27-.59.59.27.59.59.59Z"/>
      <path class="cls-1" d="m108.33,134.55c-.33,0-.59.27-.59.59s.27.59.59.59.59-.27.59-.59-.27-.59-.59-.59Z"/>
      <path class="cls-1" d="m110.34,132.26c.33,0,.59-.27.59-.59s-.27-.59-.59-.59-.59.27-.59.59.27.59.59.59Z"/>
      <path class="cls-1" d="m108.33,141.5c-.33,0-.59.27-.59.59s.27.59.59.59.59-.27.59-.59-.27-.59-.59-.59Z"/>
      <path class="cls-1" d="m110.93,138.62c0-.33-.27-.59-.59-.59s-.59.27-.59.59.27.59.59.59.59-.27.59-.59Z"/>
      <path class="cls-1" d="m112.34,135.73c.33,0,.59-.27.59-.59s-.27-.59-.59-.59-.59.27-.59.59.27.59.59.59Z"/>
      <path class="cls-1" d="m108.33,148.45c-.33,0-.59.27-.59.59s.27.59.59.59.59-.27.59-.59-.27-.59-.59-.59Z"/>
      <path class="cls-1" d="m110.93,145.57c0-.33-.27-.59-.59-.59s-.59.27-.59.59.27.59.59.59.59-.27.59-.59Z"/>
      <path class="cls-1" d="m108.33,155.4c-.33,0-.59.27-.59.59s.27.59.59.59.59-.27.59-.59-.27-.59-.59-.59Z"/>
      <path class="cls-1" d="m109.74,152.52c0,.33.27.59.59.59s.59-.27.59-.59-.27-.59-.59-.59-.59.27-.59.59Z"/>
      <path class="cls-1" d="m108.33,162.35c-.33,0-.59.27-.59.59s.27.59.59.59.59-.27.59-.59-.27-.59-.59-.59Z"/>
      <path class="cls-1" d="m109.74,159.47c0,.33.27.59.59.59s.59-.27.59-.59-.27-.59-.59-.59-.59.27-.59.59Z"/>
      <path class="cls-1" d="m109.74,166.42c0,.33.27.59.59.59s.59-.27.59-.59-.27-.59-.59-.59-.59.27-.59.59Z"/>
      <path class="cls-1" d="m104.31,134.55c-.33,0-.59.27-.59.59s.27.59.59.59.59-.27.59-.59-.27-.59-.59-.59Z"/>
      <path class="cls-1" d="m106.32,131.07c-.33,0-.59.27-.59.59s.27.59.59.59.59-.27.59-.59-.27-.59-.59-.59Z"/>
      <path class="cls-1" d="m107.73,128.19c0,.33.27.59.59.59s.59-.27.59-.59c0-.3-.22-.54-.51-.58-.22.14-.43.27-.64.41-.02.05-.03.11-.03.17Z"/>
      <circle class="cls-1" cx="104.31" cy="142.09" r=".59"/>
      <circle class="cls-1" cx="106.32" cy="138.62" r=".59"/>
      <circle class="cls-1" cx="106.32" cy="145.57" r=".59"/>
      <circle class="cls-1" cx="106.32" cy="152.52" r=".59"/>
      <path class="cls-1" d="m104.31,162.35c-.33,0-.59.27-.59.59s.27.59.59.59.59-.27.59-.59-.27-.59-.59-.59Z"/>
      <path class="cls-1" d="m105.73,159.47c0,.33.27.59.59.59s.59-.27.59-.59-.27-.59-.59-.59-.59.27-.59.59Z"/>
      <path class="cls-1" d="m106.32,165.83s-.07.01-.1.02c.23.18.45.36.69.54-.02-.31-.27-.56-.59-.56Z"/>
      <path class="cls-1" d="m100.3,141.5c-.33,0-.59.27-.59.59s.27.59.59.59.59-.27.59-.59-.27-.59-.59-.59Z"/>
      <path class="cls-1" d="m102.31,139.21c.33,0,.59-.27.59-.59s-.27-.59-.59-.59-.59.27-.59.59.27.59.59.59Z"/>
      <path class="cls-1" d="m100.64,135.61c.13-.09.22-.24.24-.4-.08.13-.16.27-.24.4Z"/>
      <path class="cls-1" d="m100.3,148.45c-.33,0-.59.27-.59.59s.27.59.59.59.59-.27.59-.59-.27-.59-.59-.59Z"/>
      <path class="cls-1" d="m102.9,145.57c0-.33-.27-.59-.59-.59s-.59.27-.59.59.27.59.59.59.59-.27.59-.59Z"/>
      <path class="cls-1" d="m100.3,155.4c-.33,0-.59.27-.59.59s.27.59.59.59.59-.27.59-.59-.27-.59-.59-.59Z"/>
      <path class="cls-1" d="m101.71,152.52c0,.33.27.59.59.59s.59-.27.59-.59-.27-.59-.59-.59-.59.27-.59.59Z"/>
      <circle class="cls-1" cx="104.31" cy="149.04" r=".59"/>
      <path class="cls-1" d="m102.31,158.88c-.33,0-.59.27-.59.59s.27.59.59.59.59-.27.59-.59-.27-.59-.59-.59Z"/>
      <circle class="cls-1" cx="104.31" cy="156" r=".59"/>
      <circle class="cls-1" cx="98.29" cy="145.57" r=".59"/>
      <path class="cls-1" d="m98.29,151.93c-.17,0-.33.08-.43.2.06.32.14.63.21.95.07.03.14.04.22.04.33,0,.59-.27.59-.59s-.27-.59-.59-.59Z"/>
    </g>
  </g>
  <g id="_人物" data-name="人物">
    <g>
      <g>
        <path class="cls-2" d="m141.41,71.81c-.44-2.85-.3-7.46.43-10.37.22-.89.12-1.84-.31-2.64-1-1.89-2.48-3.4-4.3-4.5,5.76,7.6,1.84,9.24-5.35,5.41-7.19-3.84-7.12-7.33-7.12-7.33-.9.24-1.49.97-1.48,1.93.07,5.28.18,9.95.29,12.19-2.74-2.01-5.66-2.94-8.33-3.3-.81-.11-1.54-.62-1.83-1.38-.67-1.77-1.93-2.56-3.44-2.76-1.12-.14-1.99-1.06-2.05-2.19-.35-6.37-2.93-5.9-5.59-6.64-2.93-.81-7.41-1.63-12.44-2.94-.41-.64-.99-1.14-1.68-1.46l-4.32-1.99c-.1,7.08-2.23,24.92-4.34,35.17-.13.61-.24,1.22-.34,1.84l-.12-.02-16.38-35.95-4.08.81-1.97,2.11-2.42.03c-5.19-.14-11.81.2-13.1,1.16-1.04.76-2.29,2.58-3.03,4.32-.33.77-1.01,1.33-1.84,1.42-.77.08-1.73.2-2.56.34h-3.67s3.06-10.82,3.67-12.78c.62-1.96,0-2.71,0-2.71-2.63-1.13-7.91-2.37-15.93-1.38-.76.09-1.41.6-1.7,1.31-5,12.28-11.52,29.66-5.93,36.44,5.76,6.99,18.01,5.15,23.57,2.91,3.72-1.5,7.49-2.3,9.57-2.66.91-.16,1.77.44,1.94,1.35.99,5.24,2.66,12.4,3.81,16.99.68,2.72.66,5.56-.04,8.27-2.03,7.77-6.15,23.71-7.62,32.32-.28,1.67.75,3.27,2.38,3.7.59.15,1.21.31,1.87.46h0c-.65,4.88-1.88,13.79-4.49,26.84-2.61,13.05-3.92,22.03-4.38,26.03,7.69,2.67,25.59,1.55,32.25,1.61,6.66.06,21.13,2.08,25.95,0,2.99-20.34,4.76-47.06,4.91-52.35,1.46.16,3.04.26,4.74.3,1.43.04,2.58-1.15,2.51-2.58-.25-4.47-.86-13.99-2.04-22.89-1.61-12.17-1.45-15.55-.97-31.56.11-3.67.32-5.55.32-5.55,5.32,2.57,13.64,6.76,23.28,8.07,9.64,1.31,11.45-1.19,13.39-4.44,1.94-3.25.81-7.7.31-10.95Z"/>
        <path class="cls-8" d="m133.71,36.23c-.25-4.47-5.13-5.78-10.14-6.41-5.01-.63-6.38.88-6.51,2.88-.07,1.18.14,2.16.7,2.94h0s-.07,0-.1,0c-.56.02-1.12.05-1.62.09-1.11.08-1.98.99-1.98,2.11,0,.72.37,1.38.97,1.78.64.42,1.53,1.21,2.53,2.65,1.78,2.58,3.35,3.9,5.81,4.78.44.16.8.48.97.91l.22.54c.22.55.72.94,1.31,1.02,1.76.23,5.54.31,8.11-2.66.28-.32.39-.75.36-1.17-.12-1.61-.44-5.91-.64-9.46Z"/>
        <path class="cls-8" d="m38.06,19.66c-1.12-1.56-1.52-2.68-1.52-4.94s-2.65-1.86-3.37,0h0l-.26-1.03c-.26-1.02-1.3-1.64-2.31-1.35-1.72.48-4.43,1.37-7.18,2.76-1.47.75-2.28,2.36-2.02,3.99.87,5.36,1.25,11.14,1.31,14.3,0,0,4.39-1.08,8.92.94.69-1.22,2.91-3.2,4.38-5.12,1.09-1.42,1.3-3.02,2.31-5.51.45-1.1.86-2.47-.26-4.04Z"/>
        <path class="cls-8" d="m87.68,22.1c-.24-3.15-3.39-4.3-5.8-3.54-.05-.38-.11-.76-.17-1.13-2.46-9.95-7.82-14.06-14.7-12.77-6.88,1.3-7.08,8.06-7.08,8.06-.48,3.75-2.17,6.4-4.62,7.92.26,1.17.53,2.33.83,3.46-3.33.77-5.14,4.21-4.09,6.93,1.17,3.04,4.94,3.95,7.7,2.86h0c.43.74.88,1.39,1.36,1.95,1.38,1.58,2.88,3.04,4.93,3.87l.14,2.85s6.67,5.55,8.45,4.74c1.78-.82,5.22-5.72,5.22-5.72l-.15-5.56c.71-1.09,1.28-2.42,1.79-4.09.22-.73.41-1.71.55-2.85v.02c3.67-1.05,5.89-3.52,5.63-6.97Z"/>
        <path class="cls-1" d="m124.34,47.96c-.02.09-.03.19-.02.29l.49,4.56c.08.75.35,1.48.81,2.08,2.23,2.89,6.82,5.69,11.97,7.06.92.24,1.83-.45,1.85-1.4.05-2.23-.07-4.23-2.21-6.26l-1-6.78c-.13-.87-.8-1.56-1.67-1.7-.07-.01-.14-.02-.21-.03,0,0-.82,2.52-4.44,3.5-3.9,1.05-4.99,1-5.58-1.31Z"/>
        <path class="cls-1" d="m83.82,45.51c.21-.95-.01-1.93-.61-2.7l-.97-1.25c-.6-.78-1.78-.78-2.38,0-.98,1.25-2.44,3.08-3.9,4.76-.89,1.03-2.41,1.22-3.53.45-1.76-1.22-4.16-2.94-6.21-4.56-.56-.44-1.36-.32-1.77.26l-1.73,2.4,16.38,35.95s4.23-24.89,4.72-35.31Z"/>
        <path class="cls-1" d="m31.81,38.89l.48-2.95c.11-.7-.22-1.4-.85-1.72-1.97-1.02-5.4-1.47-8.77-.82-.53.1-.97.49-1.18.99l-1.44,3.57s5.74-.42,11.76.93Z"/>
        <path class="cls-1" d="m65.98,31.19c1.4-1,4.57-2.63,9.52-3.3-.42,1.73-1.17,5.13-3.39,5.83-2.76.87-5.3-1.4-6.13-2.53Z"/>
        <path class="cls-5" d="m53.35,22.91c-3.34-2.44-3.83-8.64-1.59-12.27,3.35-5.44,5.84-4.58,8.56-7.64,2.72-3.06,6.45-2.44,8.49-.76,2.82-1.77,6.45-2.01,8.22,1s3.26,3.39,4.85,5.4c1.59,2.01,2.24,4.49,1.35,9.7l-1.35.22c-.76-2.37-3.95-3.05-3.95-3.05-2.58-.38-4.3-2.29-4.87-4.44s-1.1-4.2-2.67-4.44h-.36c-.88,0-1.58.72-1.56,1.6.12,4.71.08,9.54-5.96,10.57l-2.76.86-4.44.97.83,3.46-1.22.32-1.58-1.5Z"/>
        <path class="cls-4" d="m29.26,22.34c-.29,1-.52,2.51,1.09,2.31-.16.79.59,2.46,2.11.49,1.6-2.07,2.06-3.09,2.06-3.09l-1.09-2.56s-1.43,1.25-2.09,1.9-.93,1.21-2.08.94Z"/>
        <path class="cls-4" d="m68.32,33.22c2.66-1.3,6.32-2.57,6.32-2.57,0,0-.56,2.59-2.53,3.06s-3.79-.5-3.79-.5Z"/>
        <path class="cls-4" d="m73.79,39.84c-.55,1.59-2.45,3.92-4.26,4.87l-4.01-2.61v-2.26s4.52,1.09,8.27,0Z"/>
        <path class="cls-6" d="m70.91,52.24s1.94-2.98,3.45-3.27,2.86,1.62,2.86,1.62l-.91,6.73s3.44,8.33,4.57,14.33l-1.78,9.18-7.14-15.61.99-7.89-2.05-5.08Z"/>
      </g>
      <g>
        <circle class="cls-4" cx="69.88" cy="25.12" r=".71"/>
        <circle class="cls-4" cx="38.78" cy="68.76" r=".71"/>
        <path class="cls-4" d="m79.86,42.41c-.45,0-.82-.35-.85-.8l-.29-5.33c-.03-.47.33-.87.8-.9.45-.03.87.33.9.8l.29,5.33c.03.47-.33.87-.8.9-.02,0-.03,0-.05,0Z"/>
        <path class="cls-4" d="m65.73,42.67c-.47,0-.85-.38-.85-.85v-2.26c0-.47.38-.85.85-.85s.85.38.85.85v2.26c0,.47-.38.85-.85.85Z"/>
        <path class="cls-4" d="m57.37,35.18c-1.01,0-2.02-.2-2.94-.6-1.51-.66-2.61-1.78-3.17-3.24-.58-1.5-.44-3.23.36-4.75.89-1.67,2.46-2.88,4.33-3.32.46-.11.92.18,1.02.64.11.46-.18.91-.64,1.02-1.38.32-2.55,1.22-3.21,2.46-.58,1.09-.68,2.31-.28,3.34.5,1.3,1.51,1.97,2.27,2.3,1.32.58,2.98.61,4.33.07.44-.17.93.04,1.1.48.17.44-.04.93-.48,1.1-.85.34-1.77.5-2.7.5Z"/>
        <path class="cls-4" d="m82.06,29.92c-.37,0-.71-.24-.82-.62-.13-.45.13-.92.58-1.05,3.4-.98,5.23-3.2,5.01-6.09-.08-1.01-.53-1.83-1.31-2.36-.93-.63-2.23-.8-3.38-.44-.45.14-.92-.11-1.07-.56s.11-.92.56-1.07c1.63-.51,3.49-.26,4.85.66,1.21.82,1.94,2.11,2.05,3.63.28,3.72-2.05,6.65-6.24,7.85-.08.02-.16.03-.23.03Z"/>
        <path class="cls-4" d="m62.52,19.51c-.34,0-.64-.24-.7-.59-.07-.39.19-.75.58-.82,5.62-.96,5.49-5.48,5.36-10.27-.01-.4-.02-.8-.03-1.19,0-.39.3-.71.7-.72h.01c.39,0,.7.31.71.7,0,.39.02.78.03,1.18.13,4.94.29,10.55-6.54,11.71-.04,0-.08.01-.12.01Z"/>
        <path class="cls-4" d="m59.76,20.37c-.25,0-.49-.13-.62-.36-.19-.34-.07-.77.27-.97,3.41-1.94,5.4-4.55,4.84-11.6-.03-.39.26-.73.65-.76.36-.04.73.26.76.65.54,6.74-1.01,10.37-5.55,12.95-.11.06-.23.09-.35.09Z"/>
        <path class="cls-4" d="m69.8,41.24c-4.64,0-7.23-2.45-9.32-4.84-2.32-2.66-4.22-7.61-5.99-15.57-.08-.35.08-.72.38-.91,2.34-1.44,3.8-3.97,4.22-7.3.06-.47.5-.79.95-.74.47.06.8.49.74.95-.46,3.62-2.01,6.44-4.5,8.2,1.65,7.25,3.45,11.91,5.49,14.25,2.45,2.81,5.16,5.22,11.2,3.89,4.47-.99,6.27-2.74,7.73-7.5.81-2.65,1.13-8.34.19-14.1-.08-.46.24-.9.7-.98.47-.08.9.24.98.7,1.04,6.3.6,12.13-.24,14.88-1.64,5.35-3.9,7.54-8.99,8.66-1.3.29-2.47.42-3.53.42Z"/>
        <path class="cls-4" d="m53.35,23.76c-.17,0-.35-.05-.5-.16-3.85-2.81-4.14-9.63-1.81-13.41,2.14-3.48,4.02-4.56,5.68-5.51,1.02-.59,1.98-1.14,2.97-2.25,2.75-3.09,6.65-2.93,9.18-1.22,1.86-1.02,3.85-1.38,5.54-.96,1.42.35,2.58,1.23,3.36,2.55,1.01,1.71,1.89,2.5,2.83,3.32.63.55,1.28,1.13,1.95,1.97,1.95,2.46,2.38,5.37,1.53,10.37-.08.46-.52.78-.98.69-.46-.08-.77-.52-.69-.98.88-5.15.16-7.33-1.18-9.03-.58-.73-1.14-1.23-1.74-1.76-1-.88-2.03-1.79-3.18-3.74-.55-.93-1.32-1.52-2.3-1.76-1.38-.33-3.14.06-4.74,1.05-.31.19-.71.17-.99-.06-1.57-1.28-4.81-2.15-7.32.67-1.17,1.31-2.29,1.96-3.39,2.59-1.63.94-3.16,1.82-5.08,4.93-1.94,3.15-1.69,8.91,1.37,11.14.38.28.46.81.19,1.19-.17.23-.43.35-.69.35Z"/>
        <path class="cls-4" d="m77.94,16.22s-.07,0-.1,0c-2.65-.39-4.74-2.29-5.45-4.96-.53-1.98-1-3.76-2.1-3.92-.39-.06-.65-.42-.59-.81.06-.39.41-.65.81-.59,2.01.3,2.63,2.62,3.23,4.87.47,1.75,1.82,3.65,4.31,4.02.39.06.66.42.6.8-.05.35-.35.61-.7.61Z"/>
        <path class="cls-4" d="m78.73,85.53c-.15,0-.31-.04-.45-.13-.4-.25-.52-.77-.28-1.17,9.06-14.68,12.37-27,13.17-30.43l-2-.04c-.63,0-1.23-.25-1.67-.69l-4.2-4.18c-.33-.33-.33-.87,0-1.2.33-.33.87-.33,1.2,0l4.2,4.18c.13.13.3.2.48.2h1.96c.54,0,1.03.24,1.37.66.33.42.45.95.33,1.47-.81,3.49-4.19,16.04-13.38,30.94-.16.26-.44.4-.72.4Z"/>
        <path class="cls-4" d="m123.57,67.34c-.17,0-.35-.05-.5-.16-2.31-1.69-4.98-2.74-7.94-3.14-1.16-.15-2.13-.89-2.52-1.93-.5-1.31-1.4-2.04-2.75-2.21-1.53-.2-2.7-1.46-2.79-2.99-.26-4.83-1.68-5.13-3.82-5.59-.38-.08-.76-.16-1.15-.27-1.38-.38-3.12-.77-5.13-1.22-2.18-.48-4.66-1.03-7.29-1.72-.46-.12-.73-.58-.61-1.04.12-.46.59-.73,1.04-.61,2.6.68,5.06,1.22,7.23,1.7,2.04.45,3.79.84,5.22,1.24.35.1.71.17,1.05.25,2.82.61,4.85,1.48,5.16,7.16.04.72.59,1.3,1.31,1.4,1.98.25,3.41,1.4,4.13,3.3.17.45.61.77,1.15.84,3.25.44,6.18,1.6,8.72,3.45.38.28.46.81.18,1.19-.17.23-.42.35-.69.35Z"/>
        <path class="cls-4" d="m132.29,88.41c-1.34,0-2.89-.11-4.7-.36-9.32-1.27-17.41-5.19-22.77-7.78l-.77-.37c-.42-.2-.6-.71-.4-1.13.2-.42.71-.6,1.13-.4l.77.37c5.26,2.54,13.21,6.39,22.26,7.62,9.38,1.28,10.85-1.18,12.54-4.04,1.53-2.56.92-6.17.42-9.06-.08-.46-.15-.9-.22-1.33-.48-3.11-.28-7.81.45-10.71.17-.69.09-1.43-.24-2.04-.9-1.7-2.24-3.11-3.99-4.18-.4-.25-.53-.77-.28-1.17.25-.4.77-.53,1.17-.28,2.01,1.23,3.56,2.85,4.61,4.83.52.99.66,2.14.38,3.25-.67,2.67-.86,7.17-.41,10.04.06.42.14.85.21,1.3.54,3.17,1.21,7.11-.64,10.22-1.79,3-3.65,5.21-9.54,5.21Z"/>
        <path class="cls-4" d="m123.64,68.66c-.45,0-.83-.35-.85-.81-.12-2.38-.29-8.38-.36-13.54-.02-1.32.81-2.4,2.11-2.76.46-.12.92.14,1.04.6.12.45-.15.92-.6,1.04-.55.15-.86.55-.85,1.09.07,5.14.24,11.12.36,13.48.02.47-.34.87-.81.89-.01,0-.03,0-.04,0Z"/>
        <path class="cls-4" d="m126.26,81.46c-.24,0-.47-.13-.58-.36-1.33-2.8-2.31-7.1-2.75-9.94-.05-.35.19-.67.53-.73.34-.05.67.19.73.53.56,3.62,1.59,7.38,2.64,9.59.15.32.02.7-.3.85-.09.04-.18.06-.27.06Z"/>
        <path class="cls-4" d="m137.97,62.85c-.2,0-.4-.03-.6-.08-5.22-1.38-9.99-4.2-12.43-7.36-.54-.7-.88-1.57-.98-2.51l-.49-4.56c-.02-.19,0-.39.04-.58.11-.46.56-.74,1.02-.63.46.11.74.57.63,1.02h0s.49,4.56.49,4.56c.07.63.29,1.2.64,1.65,2.19,2.83,6.71,5.48,11.52,6.75.25.07.44-.04.53-.11.16-.12.25-.3.25-.49.04-2.17-.07-3.84-1.94-5.62-.14-.13-.23-.3-.26-.49l-1-6.78c-.08-.51-.46-.91-.96-.99l-.2-.03c-.46-.07-.78-.5-.71-.97.07-.46.5-.78.97-.71l.21.03c1.24.21,2.19,1.18,2.37,2.42l.96,6.5c2.17,2.18,2.31,4.41,2.26,6.68-.01.72-.35,1.38-.93,1.81-.41.31-.9.47-1.39.47Z"/>
        <path class="cls-4" d="m127.38,50.47c-.65,0-1.2-.05-1.61-.1-.88-.12-1.64-.71-1.99-1.54l-.22-.54c-.08-.2-.25-.35-.47-.43-2.59-.92-4.33-2.35-6.23-5.1-.95-1.37-1.77-2.08-2.3-2.43-.85-.56-1.35-1.49-1.35-2.49,0-1.55,1.22-2.85,2.77-2.96.15,0,.3-.02.46-.03-.2-.65-.27-1.38-.22-2.21.07-1.16.5-2.08,1.28-2.72,1.21-1.01,3.24-1.32,6.18-.95,4.91.61,10.59,1.99,10.88,7.2.21,3.66.54,8.15.64,9.44.05.67-.15,1.31-.56,1.79-2.19,2.54-5.2,3.06-7.26,3.06Zm-9.65-13.98h-.03c-.55.02-1.1.05-1.6.09-.67.04-1.19.6-1.19,1.26,0,.42.22.82.59,1.07.95.63,1.88,1.6,2.76,2.88,1.71,2.49,3.12,3.65,5.4,4.46.67.24,1.21.75,1.48,1.38l.22.54c.11.27.35.46.63.5,1.78.23,5.1.24,7.35-2.38.12-.13.17-.33.16-.55-.1-1.29-.43-5.8-.64-9.48-.18-3.13-2.98-4.81-9.39-5.61-2.38-.3-4.08-.1-4.89.57-.41.34-.62.82-.67,1.52-.05.86.06,1.55.36,2.1.46.1.89.34,1.23.67.5.49.76,1.18.74,1.88-.05,1.31-1.07,2.35-2.37,2.42l-.64.04c-.47.03-.87-.33-.9-.8-.03-.47.33-.87.8-.9l.64-.04c.42-.03.76-.36.77-.79,0-.23-.08-.45-.24-.61-.15-.15-.36-.24-.57-.24Z"/>
        <path class="cls-4" d="m122.57,41.4c-.71,0-1.57-.28-2.33-1.22-1.17-1.44-1.17-3.32-1.17-5.92,0-.45,0-.93,0-1.44,0-.47.37-.86.84-.86h.01c.46,0,.84.37.85.84,0,.52,0,1,0,1.46,0,2.33,0,3.88.79,4.85.63.78,1.2.59,1.35.52.42-.2.92-.04,1.14.37.21.41.07.91-.34,1.13-.26.14-.67.27-1.14.27Z"/>
        <path class="cls-4" d="m125.29,41.67s-.07,0-.11,0c-1.08-.04-2.21-.66-2.8-1.55-.81-1.21-.93-2.91-.89-5.63,0-.47.42-.86.87-.84.47,0,.84.4.84.87-.04,2.32.04,3.82.6,4.65.29.43.92.78,1.44.79.46,0,.63-.21.69-.29.29-.37.82-.44,1.19-.15.37.29.44.82.15,1.19-.47.61-1.18.95-1.99.95Z"/>
        <path class="cls-4" d="m127.27,41.23c-.49,0-.97-.16-1.37-.46-.29-.22-.56-.49-.79-.79-.77-1-.84-2.56-.89-5.03,0-.47.36-.86.83-.87h.02c.46,0,.84.37.85.83.03,1.68.07,3.42.53,4.03.14.18.3.35.48.48.2.15.41.12.51.09.09-.03.3-.12.39-.39.04-.12.04-.24,0-.36l-.04-.11c-.16-.41-.29-.82-.24-1.84.02-.47.45-.81.89-.81.47.02.83.42.81.89-.04.73.04.92.12,1.13l.06.17c.17.47.18.96.03,1.44-.22.72-.78,1.28-1.5,1.51-.23.07-.46.11-.69.11Z"/>
        <path class="cls-4" d="m126.6,46.01c-.24,0-.46-.13-.57-.36-.92-1.87-.79-3.04-.65-4.27.03-.25.06-.52.08-.8.03-.35.35-.6.69-.58.35.03.61.34.58.69-.02.3-.06.58-.09.84-.13,1.18-.23,2.03.52,3.56.16.32.03.7-.29.85-.09.04-.19.07-.28.07Z"/>
        <path class="cls-4" d="m130.16,57.41c-1.46,0-2.75-.26-3.65-.66-.32-.14-.47-.52-.32-.84.14-.32.52-.47.84-.32,2.14.95,6.73.86,9.78-1.79.27-.23.67-.2.9.06.23.27.2.67-.06.9-2.24,1.94-5.09,2.64-7.49,2.64Z"/>
        <path class="cls-4" d="m104.67,142.56s-.06,0-.08,0c-22.24-.56-23.34-11.14-24.75-24.54-.08-.82-.17-1.65-.27-2.49l-.1-.92c-1.64-14.87-2.83-25.61-.74-35.78,2.17-10.55,4.22-28.37,4.32-35.01,0-.29.15-.55.4-.71s.55-.17.81-.05l4.32,1.99c.84.39,1.54,1,2.04,1.77l.95,1.47c.24.37.32.82.22,1.26-.1.44-.36.81-.75,1.04l-3.16,1.94c-.4.25-.92.12-1.17-.28-.25-.4-.12-.92.28-1.17l3.16-1.94-.96-1.4c-.32-.5-.78-.9-1.32-1.15l-3.15-1.45c-.32,8.05-2.42,24.79-4.32,34.03-2.04,9.91-.86,20.54.76,35.25l.1.92c.09.85.18,1.68.27,2.5,1.42,13.55,2.35,22.49,23.1,23.02.45.04.87-.16,1.19-.48.31-.32.47-.75.45-1.2-.26-4.77-.88-14.08-2.03-22.82-1.58-11.89-1.47-15.43-1.02-30.35l.04-1.35c.5-16.53-.14-27.11-.57-34.11-.03-.47.33-.87.8-.9.47-.02.87.33.9.8.43,7.03,1.07,17.65.57,34.26l-.04,1.35c-.45,14.8-.56,18.32,1,30.07,1.17,8.8,1.78,18.16,2.05,22.95.05.92-.29,1.82-.93,2.48-.62.64-1.48,1-2.37,1Z"/>
        <path class="cls-4" d="m92.68,71.75c-.58,0-1.08-.46-1.12-1.05l-.21-3.47c-.02-.3.08-.59.28-.82.2-.22.48-.35.78-.37,1.73-.07,7.7-.31,11.82-.26.39,0,.71.33.7.72,0,.39-.32.7-.71.7h0c-3.87-.06-9.39.16-11.43.25l.17,2.88c2.06-.1,7.48-.36,9.2-.41,0,0,.01,0,.02,0,.38,0,.7.3.71.69.01.39-.3.72-.69.73-1.79.05-7.7.34-9.46.42-.02,0-.04,0-.05,0Zm.09-4.61h0s0,0,0,0Z"/>
        <path class="cls-4" d="m68.33,55.6c-.65,0-1.26-.29-1.66-.81l-.81-1.02c-.29-.37-.23-.9.14-1.19.37-.29.9-.23,1.19.14l.81,1.02c.11.14.27.16.33.16.08,0,.22-.03.32-.17,1.3-1.77,2.76-3.46,4-4.63,1.03-.97,2.62-1.08,3.76-.25,1.37.99,2.84,2.37,3.83,3.34.12.12.26.11.33.1.07-.01.2-.06.26-.21,1.11-2.65,1.78-5.14,2.15-6.77.16-.69,0-1.42-.45-1.99l-.97-1.25c-.13-.16-.32-.26-.52-.26-.08-.02-.35.03-.52.25-.98,1.25-2.46,3.1-3.93,4.79-1.18,1.37-3.18,1.62-4.66.59-1.34-.93-3.92-2.76-6.25-4.59-.11-.09-.23-.09-.29-.08-.06,0-.18.04-.27.16l-1.73,2.4c-.14.19-.34.32-.58.35-.01,0-1.42.19-3.36.58-.64.13-1.2.55-1.5,1.14l-1.12,2.23c-.07.14-.03.26,0,.31.03.06.11.16.26.17l4.22.43c.47.05.81.46.76.93-.05.47-.46.81-.93.76l-4.22-.43c-.67-.07-1.26-.46-1.58-1.05s-.34-1.3-.04-1.9l1.12-2.23c.53-1.05,1.53-1.81,2.68-2.04,1.43-.29,2.55-.47,3.1-.55l1.52-2.11c.33-.46.84-.77,1.41-.85.57-.08,1.13.07,1.58.42,2.29,1.8,4.85,3.61,6.17,4.53.77.53,1.8.4,2.41-.3,1.45-1.67,2.91-3.5,3.88-4.73.45-.57,1.13-.9,1.86-.9h0c.73,0,1.41.33,1.86.91l.97,1.25c.76.97,1.04,2.21.76,3.41-.38,1.69-1.08,4.28-2.24,7.05-.26.63-.82,1.09-1.5,1.22-.68.13-1.37-.07-1.86-.55-.95-.93-2.35-2.24-3.64-3.18-.49-.35-1.16-.31-1.6.11-1.17,1.1-2.55,2.7-3.79,4.39-.39.54-1,.85-1.66.86h-.04Z"/>
        <path class="cls-4" d="m79.1,82.46c-.35,0-.68-.22-.8-.57-2.17-6.16-7.23-16.94-11.29-25.61-2.22-4.73-4.13-8.82-5.08-11.09-.18-.43.03-.93.46-1.11.43-.18.93.02,1.11.46.93,2.24,2.84,6.31,5.05,11.02,4.08,8.7,9.15,19.52,11.35,25.76.16.44-.08.93-.52,1.08-.09.03-.19.05-.28.05Z"/>
        <path class="cls-4" d="m76.15,82.46c-.21,0-.43-.08-.6-.24-7.41-7.27-15.92-19.01-19.79-27.32-.22-.48-.21-1.02.04-1.48.25-.46.71-.79,1.23-.86l2.33-.35,4.26-4.5c.32-.34.86-.36,1.2-.03.34.32.36.86.03,1.2l-4.28,4.51c-.25.27-.6.45-.97.5l-2.32.34c3.81,8.09,12.17,19.63,19.46,26.77.33.33.34.87.01,1.2-.17.17-.39.25-.61.25Z"/>
        <path class="cls-4" d="m33.7,55.91c-.41,0-.77-.3-.84-.72-.07-.46.24-.9.71-.97.85-.13,1.82-.25,2.6-.34.5-.06.93-.39,1.15-.91.81-1.91,2.17-3.83,3.31-4.67,1.75-1.29,9.68-1.43,13.63-1.33.47.01.84.4.83.87-.01.47-.37.81-.87.83-6.39-.18-11.75.39-12.57.99-.89.65-2.07,2.36-2.76,3.97-.45,1.07-1.42,1.81-2.53,1.93-.76.08-1.7.2-2.52.33-.04,0-.09.01-.13.01Z"/>
        <path class="cls-4" d="m49.38,74.58s-.04,0-.06,0c-.39-.03-.68-.38-.64-.77,1.01-11.66-1.01-19.64-3.52-21.49-.59-.43-1.18-.51-1.83-.25-.36.15-.78-.02-.92-.39-.15-.36.02-.78.39-.92,1.11-.46,2.21-.31,3.21.42,3.41,2.51,5.06,11.65,4.1,22.75-.03.37-.34.65-.71.65Z"/>
        <path class="cls-4" d="m61.26,142.06c-8.16,0-16.31-2.04-17.73-2.41-2.07-.54-3.37-2.55-3-4.66,1.38-8.08,5.02-22.36,7.63-32.39.67-2.57.68-5.28.04-7.85-1.14-4.57-2.83-11.78-3.82-17.04-.09-.46-.52-.75-.96-.67-1.92.33-5.7,1.12-9.4,2.61-6.37,2.57-18.66,3.98-24.55-3.16-5.51-6.69-.47-21.88,5.8-37.3.41-1,1.32-1.71,2.39-1.84,9.15-1.13,14.5.63,16.37,1.44.43.19.63.69.44,1.12s-.69.63-1.12.44c-1.75-.75-6.75-2.39-15.49-1.32-.45.06-.84.36-1.02.79-3.8,9.33-11.69,28.75-6.07,35.58,5.5,6.68,17.6,4.68,22.6,2.66,3.85-1.55,7.76-2.36,9.75-2.71,1.36-.24,2.67.68,2.93,2.03.98,5.23,2.66,12.39,3.8,16.94.71,2.84.69,5.85-.05,8.69-2.61,10.01-6.24,24.24-7.61,32.25-.21,1.24.55,2.41,1.76,2.73,8.28,2.17,24.02,4.39,30.5-1.04,3.62-3.04,4.36-7.66,5.39-14.07.11-.66.22-1.34.33-2.04.08-.46.52-.78.98-.7.46.08.78.51.7.98-.11.69-.22,1.37-.33,2.03-1.04,6.51-1.87,11.66-5.98,15.1-3.44,2.89-8.87,3.79-14.29,3.79Z"/>
        <path class="cls-4" d="m27.9,66.74s-.05,0-.07,0c-.47-.04-.82-.45-.78-.92.51-5.98,3.91-17.77,5.84-23.8.14-.45.62-.7,1.07-.55.45.14.69.62.55,1.07-1.91,5.96-5.27,17.59-5.77,23.42-.04.44-.41.78-.85.78Z"/>
        <path class="cls-4" d="m31.81,39.74s-.09,0-.14-.01c-.46-.08-.78-.51-.7-.98l.48-2.95c.06-.34-.11-.68-.4-.83-1.63-.84-4.8-1.4-8.22-.75-.24.05-.45.23-.55.48l-1.44,3.57c-.17.44-.67.65-1.11.47-.44-.18-.65-.67-.47-1.11l1.44-3.57c.32-.79.99-1.35,1.8-1.51,3.36-.64,7.02-.29,9.33.9.95.49,1.48,1.54,1.3,2.62l-.48,2.95c-.07.42-.43.71-.84.71Z"/>
        <path class="cls-4" d="m22.71,34.24c-.46,0-.84-.37-.85-.83-.06-3.46-.49-9.18-1.3-14.18-.33-2.01.67-3.97,2.48-4.88,2.79-1.41,5.53-2.31,7.34-2.82.71-.2,1.45-.1,2.09.27.64.37,1.1.98,1.28,1.7l.45,1.81c.29,1.13-.18,2.32-1.16,2.95-.7.45-1.35.9-1.86,1.28-.94.7-2.25.59-3.05-.27-.8-.85-.83-2.17-.07-3.06.57-.66,1.1-1.14,1.59-1.42.41-.23.93-.1,1.16.31.24.41.1.93-.31,1.16-.31.18-.72.55-1.14,1.06-.2.23-.19.57.02.8.21.22.55.25.79.07.56-.42,1.22-.87,1.96-1.35.37-.24.54-.68.43-1.11l-.45-1.81c-.07-.27-.24-.5-.48-.64-.24-.14-.51-.17-.78-.1-1.74.49-4.36,1.35-7.03,2.7-1.14.58-1.77,1.82-1.56,3.09.82,5.08,1.26,10.91,1.32,14.43,0,.47-.37.86-.83.87h-.02Z"/>
        <path class="cls-4" d="m31.63,35.18c-.14,0-.29-.04-.42-.11-.41-.23-.55-.75-.32-1.16.43-.75,1.27-1.66,2.24-2.7.77-.82,1.56-1.67,2.2-2.51.63-.81.93-1.71,1.35-2.96.23-.69.49-1.46.85-2.35.41-1.01.7-2.02-.16-3.22-1.27-1.78-1.68-3.1-1.68-5.43,0-.62-.26-.67-.34-.69-.38-.08-1.09.24-1.38,1-.17.44-.66.65-1.1.49-.44-.17-.66-.66-.49-1.1.54-1.39,1.98-2.29,3.28-2.05.84.16,1.73.86,1.73,2.36,0,2,.29,2.95,1.36,4.44,1.48,2.07.72,3.95.35,4.85-.34.84-.59,1.59-.81,2.25-.44,1.3-.81,2.42-1.61,3.46-.69.9-1.55,1.82-2.31,2.64-.86.93-1.68,1.8-2.01,2.38-.16.28-.44.43-.74.43Z"/>
        <path class="cls-4" d="m29.79,23.32c-.69,0-1.26-.34-1.57-.67-1.1-1.15-.59-2.95.18-4.14.26-.4.79-.5,1.18-.25.39.26.5.78.25,1.18-.53.81-.7,1.71-.38,2.04.05.05.2.14.34.14h0c.06,0,.15-.02.26-.14.61-.64,1.2-1.15,1.71-1.59.42-.36.78-.67,1.01-.94.31-.36.84-.39,1.2-.08.35.31.39.85.08,1.2-.32.36-.72.71-1.19,1.11-.49.42-1.04.89-1.58,1.47-.41.44-.93.67-1.49.67h0Z"/>
        <path class="cls-4" d="m31.16,26.92c-.25,0-.47-.06-.62-.14-.53-.24-.86-.77-1-1.32-.44-.11-.72-.33-.9-.54-.51-.6-.58-1.52-.21-2.82.13-.45.59-.71,1.05-.58.45.13.71.6.58,1.05-.28.97-.13,1.24-.13,1.25,0,0,.04,0,.11,0,.05,0,.11,0,.19-.01.27-.04.54.07.73.27s.26.48.21.75c-.02.08.01.24.06.35.1-.06.29-.21.55-.55.99-1.28,1.53-2.14,1.78-2.58-.62-1.27-1.42-3.33-1.27-5.17.04-.47.46-.81.92-.78.47.04.82.45.78.92-.1,1.17.38,2.91,1.29,4.65.12.23.13.5.02.74-.02.05-.52,1.14-2.17,3.26-.77.99-1.45,1.25-1.97,1.25Z"/>
        <path class="cls-4" d="m35.86,66.52c-.18,0-.36-.08-.49-.23-.03-.04-3.5-4.13-6.67-7.07-.26-.24-.27-.64-.04-.9.24-.26.64-.28.9-.04,3.23,2.98,6.74,7.14,6.78,7.18.23.27.19.67-.08.9-.12.1-.27.15-.41.15Z"/>
        <path class="cls-4" d="m72.21,89.26c-.08,0-.17-.02-.25-.05-1.89-.79-8.11-3.94-11.83-7.95-.24-.26-.22-.66.04-.9.26-.24.66-.22.9.04,3.29,3.56,9.09,6.69,11.38,7.64.33.14.48.51.34.83-.1.25-.34.39-.59.39Z"/>
        <path class="cls-4" d="m64.67,109.21s-.02,0-.03,0c-3.61-.17-9.89-.07-14.48,0-.36.01-.71-.31-.72-.7,0-.39.31-.71.7-.72,4.61-.07,10.92-.17,14.57,0,.39.02.69.35.67.74-.02.38-.33.68-.71.68Z"/>
        <path class="cls-4" d="m92.79,110.34c-.39,0-.7-.31-.71-.7,0-.39.31-.71.7-.72,5.18-.08,11.4,0,11.46,0,.39,0,.71.33.7.72,0,.39-.32.7-.71.7h0c-.06,0-6.26-.08-11.42,0h-.01Z"/>
        <path class="cls-4" d="m94.95,194.61s-.08,0-.12,0c-.46-.07-.79-.5-.72-.97,2.96-20.08,4.74-46.58,4.91-52.26.01-.47.39-.87.87-.83.47.01.84.4.83.87-.16,5.7-1.96,32.31-4.92,52.46-.06.42-.43.73-.84.73Z"/>
        <path class="cls-4" d="m69,193.31c-.09,0-.18-.01-.27-.04-.45-.15-.68-.63-.53-1.08,3.39-10.08,6.38-23.9,8.56-33.99,1.08-5.01,1.94-8.97,2.49-10.75.14-.45.61-.7,1.06-.56.45.14.7.62.56,1.06-.53,1.7-1.37,5.63-2.45,10.6-2.19,10.13-5.19,24.01-8.61,34.18-.12.35-.45.58-.81.58Z"/>
        <path class="cls-4" d="m36.75,193s-.07,0-.1,0c-.47-.05-.8-.48-.75-.94.27-2.31,1.37-11.02,4.39-26.1,2.43-12.14,3.67-20.69,4.48-26.79.06-.46.49-.79.96-.73.46.06.79.49.73.96-.81,6.12-2.06,14.7-4.5,26.89-2.39,11.93-3.82,21.23-4.37,25.96-.05.43-.42.75-.84.75Z"/>
        <path class="cls-4" d="m76.31,58.17h-3.35c-.33,0-.62-.19-.77-.48-.07-.15-1.75-3.64-2.11-5.27-.1-.46.19-.91.64-1.02.46-.1.91.19,1.02.64.23,1.03,1.2,3.22,1.76,4.42h2.13c.22-1.1.64-3.44.75-5.93.02-.47.42-.84.89-.81.47.02.83.42.81.89-.16,3.58-.9,6.76-.94,6.9-.09.38-.43.65-.83.65Z"/>
        <path class="cls-4" d="m80.89,72.49c-.39,0-.74-.27-.83-.66-1.6-6.88-3.15-11.75-4.49-14.09-.23-.41-.09-.93.32-1.16.41-.23.93-.09,1.16.32,1.44,2.52,3.01,7.41,4.67,14.55.11.46-.18.91-.64,1.02-.06.02-.13.02-.19.02Z"/>
        <path class="cls-4" d="m72.11,66.07h-.01c-.47,0-.85-.39-.84-.86.04-3.36.83-7.84.86-8.03.08-.46.52-.77.99-.69.46.08.77.52.69.99,0,.04-.79,4.54-.84,7.76,0,.47-.39.84-.85.84Z"/>
        <path class="cls-4" d="m70.55,16.85c-.22,0-.44-.1-.58-.3-.23-.32-.15-.76.17-.99,1.87-1.32,3.82-1.83,4.81-2.02.38-.08.75.18.83.57.07.38-.18.75-.57.83-.88.17-2.6.62-4.26,1.78-.12.09-.27.13-.41.13Z"/>
        <path class="cls-4" d="m70.85,34.62c-2.61,0-4.75-2.07-5.45-3.02-.11-.15-.16-.34-.13-.53.03-.19.13-.35.29-.46.85-.61,4.07-2.65,9.84-3.42.24-.04.46.05.62.23.16.17.22.41.16.64l-.04.16c-.45,1.88-1.29,5.38-3.83,6.18-.5.16-.99.23-1.47.23Zm-3.81-3.29c.96.97,2.86,2.33,4.85,1.71,1.49-.47,2.24-2.66,2.66-4.29-3.85.66-6.32,1.87-7.52,2.59Z"/>
        <path class="cls-4" d="m68.32,33.93c-.23,0-.46-.11-.59-.32-.21-.33-.12-.77.2-.98,1.79-1.18,5.06-2.2,6.45-2.63.38-.11.79.08.91.46.12.37-.07.76-.44.88-1.27.4-4.51,1.41-6.14,2.48-.12.08-.25.12-.39.12Z"/>
        <ellipse class="cls-4" cx="73.65" cy="19.66" rx="1.14" ry="1.26" transform="translate(-1.82 8.95) rotate(-6.87)"/>
        <ellipse class="cls-4" cx="80.51" cy="90.33" rx="1.72" ry="1.89" transform="translate(-3.49 3.24) rotate(-2.25)"/>
        <ellipse class="cls-4" cx="78.8" cy="110.39" rx="1.72" ry="1.89" transform="translate(-4.28 3.19) rotate(-2.25)"/>
        <ellipse class="cls-4" cx="63.66" cy="22.44" rx="1.14" ry="1.26" transform="translate(-2.23 7.77) rotate(-6.87)"/>
        <path class="cls-4" d="m83.52,111.1h-1.54c-.39,0-.71-.32-.71-.71s.32-.71.71-.71h1.54c.39,0,.71.32.71.71s-.32.71-.71.71Z"/>
      </g>
    </g>
  </g>
  <g id="_アイコン" data-name="アイコン">
    <g>
      <path class="cls-7" d="m17.1,148.49c4.61,1.85,8.63-1.15,9.03-4,.04-.26-.14-.5-.4-.53l-1.04-.12c-.3-.03-.48-.35-.37-.62l.4-.97c.1-.24-.02-.51-.27-.6-2.68-1.04-7.26,1.03-7.87,5.96-.05.37.17.75.52.89Z"/>
      <path class="cls-3" d="m19.95,149.76c-1.04,0-2.1-.2-3.12-.62h0c-.65-.26-1.05-.93-.96-1.63.31-2.5,1.66-4.64,3.69-5.85,1.67-1,3.64-1.26,5.14-.68.3.11.54.35.66.64s.13.61,0,.9l-.27.66.7.08c.31.04.59.19.79.44.19.25.28.57.24.89-.22,1.59-1.4,3.19-3.08,4.17-1.15.67-2.46,1.01-3.79,1.01Zm-2.59-1.93c2.65,1.06,4.69.27,5.67-.3,1.22-.71,2.1-1.8,2.35-2.89l-.77-.09c-.37-.04-.68-.25-.87-.56-.19-.32-.21-.69-.07-1.04l.3-.72c-1.07-.31-2.46-.08-3.67.65-.97.58-2.66,1.98-3.01,4.81,0,.05.03.12.08.14h0Zm8.28-3.17h0,0Zm-.67-1.18h0s0,0,0,0Z"/>
    </g>
    <g>
      <path class="cls-7" d="m107.88,23.92c1-4.3-2.19-7.42-4.74-7.38-.23,0-.42.19-.41.42l.04.93c.01.27-.24.47-.5.41l-.9-.22c-.22-.05-.45.09-.49.32-.54,2.5,1.89,6.23,6.3,6.1.33,0,.63-.25.71-.58Z"/>
      <path class="cls-3" d="m106.95,25.21c-2.17,0-4.16-.89-5.47-2.48-1.12-1.35-1.62-3.07-1.31-4.49.06-.29.25-.56.5-.72.26-.16.56-.21.85-.14l.51.12-.02-.53c-.01-.3.09-.59.3-.81s.5-.35.8-.35c1.42,0,3.04.81,4.14,2.17,1.34,1.66,1.81,3.87,1.3,6.08h0c-.15.64-.72,1.11-1.38,1.13-.08,0-.16,0-.24,0Zm.19-1.42l.73.13-.69-.16c.57-2.44-.4-4.1-1.02-4.87-.75-.93-1.77-1.54-2.72-1.63l.02.6c.01.35-.13.68-.41.9-.27.22-.62.3-.97.22l-.59-.14c-.09.95.3,2.06,1.06,2.99.63.76,2.06,2.04,4.57,1.96Zm-4-6.54h0,0Zm.29-.32h0s0,0,0,0Z"/>
    </g>
    <g>
      <path class="cls-7" d="m118.61,115.85c4.36-.67,6.08-4.79,5.09-7.15-.09-.21-.33-.32-.54-.22l-.85.38c-.24.11-.53-.05-.56-.31l-.13-.92c-.03-.23-.25-.38-.48-.34-2.52.42-5.08,4.07-3.32,8.12.13.31.47.49.8.44Z"/>
      <path class="cls-3" d="m118.5,116.5c-.54,0-1.06-.33-1.28-.83-.9-2.06-.83-4.3.17-6.15.83-1.52,2.22-2.61,3.63-2.85.28-.04.57.02.8.19.23.17.38.41.42.69l.09.61.57-.25c.26-.12.54-.12.81-.02.26.1.48.31.59.58.55,1.32.37,3.08-.47,4.59-1.03,1.84-2.89,3.09-5.11,3.43-.07.01-.14.02-.21.02Zm2.51-8.53c-.96.25-1.9,1.05-2.5,2.15-.48.88-1.13,2.71-.12,5.04.02.04.08.06.12.07h0c2.5-.39,3.7-1.92,4.19-2.79.61-1.09.79-2.32.49-3.26l-.62.28c-.3.13-.64.12-.93-.04-.29-.16-.48-.44-.53-.76l-.1-.68Z"/>
    </g>
    <g>
      <g>
        <path class="cls-7" d="m30.36,92.98h-.08c-.68.11-1.28-.47-1.19-1.15v-.08c.09-.62-.39-1.18-1.01-1.18-2.04,0-4.53,1.1-5.97,3.19-.14.21-.44.17-.53-.06-.87-2.28-2.89-3.92-4.79-4.45-.61-.17-1.24.22-1.33.86v.08c-.11.68-.84,1.09-1.47.8l-.08-.03c-.58-.26-1.25.06-1.43.67-.56,1.89-.25,4.47,1.21,6.42.15.2.02.47-.23.48-2.54.11-4.81,1.62-5.88,3.35-.33.53-.12,1.24.45,1.5l.08.04c.63.29.8,1.1.35,1.62l-.06.06c-.41.48-.3,1.21.23,1.56,1.6,1.05,4.06,1.49,6.3.75.23-.08.44.11.39.35-.51,2.3.19,4.71,1.4,6.18.4.49,1.14.52,1.58.06l.06-.06c.47-.5,1.3-.41,1.65.18l.04.07c.33.55,1.06.67,1.56.28,1.54-1.22,2.78-3.5,2.71-5.93,0-.25.26-.4.47-.26,2.02,1.35,4.62,1.53,6.47.87.6-.21.88-.9.6-1.47l-.04-.08c-.31-.62.05-1.36.73-1.5l.08-.02c.62-.12.99-.77.79-1.37-.63-1.88-2.41-3.84-4.77-4.57-.16-.05-.18-.16-.05-.26,1.77-1.44,3-3.95,2.97-5.88-.01-.63-.57-1.12-1.2-1.02Z"/>
        <path class="cls-3" d="m20.94,115.62c-.12,0-.24-.01-.36-.03-.55-.1-1.04-.44-1.33-.92-.06-.11-.1-.13-.14-.13-.04,0-.07,0-.1.04-.45.47-1.01.68-1.55.68-.57-.02-1.1-.28-1.46-.73-1.29-1.58-1.93-3.85-1.74-5.99-2.11.42-4.43.02-6.14-1.1-.48-.31-.79-.81-.88-1.38-.08-.56.09-1.13.45-1.55.08-.09.09-.13.08-.17,0-.04-.03-.07-.07-.08-.59-.27-.98-.72-1.14-1.26-.16-.54-.08-1.12.21-1.6.99-1.58,3.04-3.22,5.58-3.67-1.08-1.93-1.39-4.33-.79-6.36.16-.55.56-1,1.07-1.24.51-.24,1.1-.24,1.62,0,.12.05.15.05.19.03.04-.02.05-.05.06-.09.09-.64.41-1.14.88-1.45.48-.31,1.07-.4,1.62-.25,2.05.57,3.91,2.11,4.96,4.05,1.74-1.92,4.2-2.78,6.08-2.77.56,0,1.09.25,1.46.67.37.43.54.99.47,1.55-.02.12,0,.16.02.19.03.03.07.04.1.03h.08c.56-.1,1.13.07,1.56.43.43.37.69.9.7,1.47.03,1.88-.94,4.14-2.4,5.75,1.95.97,3.54,2.71,4.21,4.69.18.54.12,1.13-.16,1.62-.28.49-.77.83-1.32.94-.12.02-.15.05-.17.08s-.02.07,0,.11c.29.58.32,1.17.11,1.69-.21.53-.64.94-1.18,1.13-1.99.71-4.39.52-6.37-.44-.24,2.19-1.36,4.32-3.02,5.62-.36.28-.79.43-1.23.43Zm-1.84-2.93c.07,0,.14,0,.22.01.62.07,1.15.41,1.47.95l.12.13s.07,0,.12-.03c1.22-.96,2.42-2.94,2.36-5.19-.01-.46.23-.89.63-1.11.4-.22.89-.2,1.27.06,1.87,1.25,4.19,1.29,5.65.77.05-.02.08-.05.09-.08,0,0,0-.1,0-.1-.32-.62-.32-1.26-.05-1.82.27-.56.78-.95,1.39-1.07.12-.02.15-.04.17-.08.01-.02.03-.06.01-.11-.5-1.49-1.98-3.3-4.17-3.99-.4-.13-.69-.43-.76-.82s.08-.78.4-1.04c1.53-1.24,2.66-3.46,2.63-5.15,0-.05-.03-.08-.05-.1-.03-.02-.07-.03-.1-.03h-.08c-.62.11-1.23-.1-1.67-.53-.44-.44-.65-1.04-.57-1.65.02-.13,0-.17-.02-.19-1.75-.02-3.96.81-5.29,2.75-.26.38-.7.58-1.15.53-.45-.05-.83-.35-1-.78-.81-2.11-2.68-3.47-4.18-3.89-.06-.02-.09,0-.12.02,0,0-.05.09-.05.09-.1.69-.46,1.22-1,1.52s-1.18.33-1.75.08l-.18-.03s-.06.04-.08.09c-.44,1.49-.29,3.8,1.07,5.61.28.37.33.85.13,1.26s-.6.67-1.06.69c-2.36.1-4.28,1.54-5.14,2.92,0,.12.01.15.06.17.64.3,1.04.79,1.17,1.4.13.61-.02,1.22-.43,1.7-.08.09-.09.12-.08.16,0,.03.02.07.06.09,1.25.82,3.44,1.33,5.5.65.42-.14.88-.05,1.2.25s.47.74.38,1.17c-.47,2.14.27,4.25,1.21,5.41.03.04.06.04.11.05.05,0,.08-.03.09-.04.43-.45.94-.68,1.48-.68Zm-3.88-4.41h0,0Zm13.7-9.01h0,0Z"/>
      </g>
      <circle class="cls-3" cx="19.97" cy="100.11" r=".91"/>
      <circle class="cls-3" cx="19.69" cy="102.99" r=".91"/>
      <circle class="cls-3" cx="22.56" cy="101.4" r=".91"/>
    </g>
    <g>
      <g>
        <path class="cls-7" d="m132.95,172.23l-.07-.03c-.56-.27-.71-1-.3-1.47l.05-.06c.37-.43.3-1.09-.17-1.4-1.52-1.03-3.95-1.46-6.09-.61-.21.08-.42-.09-.37-.31.49-2.15-.2-4.4-1.35-5.75-.37-.44-1.04-.46-1.43-.03l-.05.06c-.42.46-1.16.4-1.5-.13l-.04-.07c-.31-.49-.97-.59-1.41-.22-1.37,1.13-2.44,3.23-2.33,5.43.01.23-.22.36-.41.25-1.96-1.2-4.42-1.2-6.1-.45-.52.23-.71.87-.41,1.35l.04.07c.33.53.05,1.23-.55,1.4l-.07.02c-.55.15-.84.76-.62,1.29.67,1.59,2.29,3.17,4.35,3.74.21.06.27.31.11.46-1.54,1.47-2.23,3.63-2.06,5.35.05.57.59.97,1.15.84l.07-.02c.61-.14,1.18.34,1.15.97v.08c-.03.58.45,1.04,1.03.99,1.77-.14,3.85-1.23,5.02-3.09.12-.19.4-.17.48.04.84,2.03,2.69,3.47,4.41,3.91.56.14,1.12-.23,1.19-.8v-.08c.08-.62.73-1,1.31-.76l.07.03c.53.22,1.13-.08,1.28-.63.48-1.73.13-4.09-1.27-5.83-.09-.12-.05-.21.09-.23,2.06-.19,4.24-1.45,5.19-2.92.31-.48.13-1.13-.38-1.37Z"/>
        <path class="cls-3" d="m125.72,185.69c-.15,0-.3-.02-.45-.06-1.85-.47-3.55-1.81-4.55-3.53-1.28,1.52-3.19,2.54-5.09,2.69-.52.04-1.04-.15-1.41-.51-.37-.36-.56-.86-.54-1.38l-.03-.15-.27-.85.12.84c-.51.12-1.04,0-1.46-.29-.42-.3-.69-.78-.74-1.29-.17-1.83.48-3.85,1.7-5.36-1.79-.75-3.32-2.22-4.04-3.92-.2-.48-.19-1.02.04-1.49.22-.46.64-.81,1.13-.95l.13-.07.72-.52-.77.38c-.27-.44-.34-.98-.18-1.47.15-.49.51-.89.97-1.1,1.54-.69,3.89-.89,6.03.05.17-1.99,1.14-3.94,2.62-5.16.4-.33.93-.48,1.44-.39.51.08.96.38,1.23.82l.11.11.71.54-.59-.62c.35-.38.83-.6,1.34-.6h.02c.52,0,1.01.24,1.35.64,1.25,1.46,1.87,3.54,1.69,5.53,2.27-.55,4.56.05,5.95,1,.42.29.7.75.77,1.25.07.51-.09,1.03-.43,1.42l-.07.14-.32.83.43-.74s0,0,0,0c.47.22.81.63.95,1.13.14.5.06,1.04-.22,1.47-.92,1.43-2.78,2.63-4.69,3.11.97,1.71,1.28,3.82.78,5.63-.14.5-.48.92-.95,1.14-.46.23-1,.24-1.48.04l-.15-.02-.89-.04.84.17c-.06.52-.34.98-.77,1.27-.3.21-.66.32-1.02.32Zm-4.91-5.81s.07,0,.1,0c.42.04.78.3.94.7.77,1.88,2.48,3.06,3.84,3.41l.98.03-.84-.1c.08-.65.4-1.13.89-1.42.49-.28,1.07-.32,1.59-.1l.15.03c.43-1.43.23-3.53-1.06-5.14-.24-.3-.3-.68-.16-1.02.14-.33.46-.55.84-.59,1.77-.16,3.72-1.25,4.55-2.53l.33-.91-.36.77-.07-.03c-.52-.25-.87-.71-.99-1.26s.04-1.12.41-1.54l.08-.14c-1.25-.88-3.36-1.37-5.33-.59-.39.15-.83.08-1.15-.19s-.45-.7-.36-1.11c.45-1.98-.26-3.94-1.17-5.01l-.78-.58.64.56c-.44.49-.98.7-1.54.65-.56-.05-1.06-.35-1.36-.83l-.1-.11c-1.17.92-2.21,2.73-2.11,4.76.02.42-.19.81-.54,1.03-.36.21-.8.21-1.16-.01-1.81-1.11-3.97-1-5.31-.4l-.76.58.73-.44c.34.55.39,1.13.18,1.66-.21.53-.64.92-1.19,1.07l-.13.07c.52,1.32,1.9,2.81,3.79,3.33.39.11.69.42.79.81s-.02.8-.32,1.08c-1.42,1.36-1.93,3.32-1.81,4.65l.31.92-.2-.83c.63-.15,1.2,0,1.63.36s.66.9.63,1.46l.02.15c1.48-.08,3.37-.95,4.46-2.66.21-.33.57-.53.95-.53Zm7.9-3.66h0s0,0,0,0Zm-15.08-1.09h0s0,0,0,0Zm13.2-6.6h0s0,0,0,0Z"/>
      </g>
      <circle class="cls-3" cx="121.56" cy="172.36" r=".82"/>
      <circle class="cls-3" cx="119.9" cy="174.37" r=".82"/>
      <circle class="cls-3" cx="122.85" cy="174.62" r=".82"/>
    </g>
  </g>
</svg>