<?xml version="1.0" encoding="UTF-8"?>
<svg id="Layer_2" data-name="Layer 2" xmlns="http://www.w3.org/2000/svg" viewBox="0 0 20.93 23.78">
  <defs>
    <style>
      .cls-1 {
        fill: #95e0e6;
      }

      .cls-2 {
        fill: #565656;
      }
    </style>
  </defs>
  <g id="_アイコン" data-name="アイコン">
    <g>
      <g>
        <path class="cls-1" d="m13.58,11.41L7.13,2.31C5.97.67,3.67.36,2.12,1.63h0c-1.55,1.27-1.7,3.59-.32,5.05l7.66,8.11c.96,1.02,2.55,1.12,3.64.23h0c1.09-.89,1.3-2.47.49-3.61Z"/>
        <path class="cls-2" d="m11.4,16.48c-.94,0-1.88-.37-2.57-1.1L1.17,7.27C.36,6.4-.07,5.22,0,4.03.08,2.84.66,1.73,1.58.98S3.7-.12,4.88.04c1.18.16,2.25.81,2.94,1.78l6.45,9.1h0c1.06,1.5.78,3.6-.64,4.76-.65.53-1.44.79-2.23.79ZM4.3,1.7c-.6,0-1.17.2-1.64.59-.57.46-.9,1.12-.95,1.85-.05.73.2,1.42.71,1.96l7.66,8.11c.65.69,1.75.77,2.48.16.74-.6.88-1.69.33-2.46L6.44,2.8c-.42-.6-1.05-.98-1.78-1.08-.12-.02-.24-.02-.36-.02Z"/>
      </g>
      <g>
        <circle class="cls-1" cx="17.21" cy="20.06" r="2.87"/>
        <path class="cls-2" d="m17.22,23.78c-.12,0-.25,0-.37-.02-.99-.1-1.88-.58-2.51-1.34-.63-.77-.92-1.73-.82-2.72.1-.99.58-1.88,1.34-2.51,1.59-1.3,3.93-1.07,5.23.52h0c.63.77.92,1.73.82,2.72-.1.99-.58,1.88-1.34,2.51-.67.55-1.49.84-2.35.84Zm0-5.73c-.45,0-.9.15-1.28.46-.42.34-.67.82-.73,1.36-.05.54.11,1.06.45,1.48.34.42.83.68,1.36.73.54.05,1.06-.1,1.48-.45.42-.34.68-.82.73-1.36.05-.54-.11-1.06-.45-1.48t0,0c-.4-.49-.98-.74-1.56-.74Z"/>
      </g>
    </g>
  </g>
</svg>