<?xml version="1.0" encoding="UTF-8"?>
<svg id="Layer_2" data-name="Layer 2" xmlns="http://www.w3.org/2000/svg" viewBox="0 0 135.51 184.4">
  <defs>
    <style>
      .cls-1 {
        fill: #fff;
      }

      .cls-2 {
        fill: #95e0e6;
      }

      .cls-3 {
        fill: #565656;
      }

      .cls-4 {
        fill: #363636;
      }

      .cls-5 {
        fill: #33b0da;
      }

      .cls-6 {
        fill: #8dc05f;
      }

      .cls-7 {
        fill: #ffdfbc;
      }

      .cls-8 {
        fill: #ffd964;
      }
    </style>
  </defs>
  <g id="_背景ドット" data-name="背景ドット">
    <g>
      <circle class="cls-1" cx="54.78" cy="72.77" r=".59"/>
      <circle class="cls-1" cx="54.78" cy="79.72" r=".59"/>
      <path class="cls-1" d="m50.76,65.22c-.33,0-.59.27-.59.59s.27.59.59.59.59-.27.59-.59-.27-.59-.59-.59Z"/>
      <circle class="cls-1" cx="50.76" cy="72.77" r=".59"/>
      <circle class="cls-1" cx="52.77" cy="69.29" r=".59"/>
      <circle class="cls-1" cx="50.76" cy="79.72" r=".59"/>
      <circle class="cls-1" cx="52.77" cy="76.24" r=".59"/>
      <path class="cls-1" d="m50.76,86.08c-.33,0-.59.27-.59.59s.27.59.59.59.59-.27.59-.59-.27-.59-.59-.59Z"/>
      <circle class="cls-1" cx="52.77" cy="83.2" r=".59"/>
      <path class="cls-1" d="m46.75,58.27c-.33,0-.59.27-.59.59s.27.59.59.59.59-.27.59-.59-.27-.59-.59-.59Z"/>
      <path class="cls-1" d="m46.75,65.22c-.33,0-.59.27-.59.59s.27.59.59.59.59-.27.59-.59-.27-.59-.59-.59Z"/>
      <path class="cls-1" d="m48.16,62.34c0,.33.27.59.59.59s.59-.27.59-.59-.27-.59-.59-.59-.59.27-.59.59Z"/>
      <circle class="cls-1" cx="48.76" cy="69.29" r=".59"/>
      <path class="cls-1" d="m46.75,79.13c-.33,0-.59.27-.59.59s.27.59.59.59.59-.27.59-.59-.27-.59-.59-.59Z"/>
      <circle class="cls-1" cx="48.76" cy="76.24" r=".59"/>
      <path class="cls-1" d="m46.75,86.08c-.33,0-.59.27-.59.59s.27.59.59.59.59-.27.59-.59-.27-.59-.59-.59Z"/>
      <circle class="cls-1" cx="48.76" cy="83.2" r=".59"/>
      <path class="cls-1" d="m46.75,93.03c-.33,0-.59.27-.59.59s.27.59.59.59.59-.27.59-.59-.27-.59-.59-.59Z"/>
      <path class="cls-1" d="m49.35,90.15c0-.33-.27-.59-.59-.59s-.59.27-.59.59.27.59.59.59.59-.27.59-.59Z"/>
      <path class="cls-1" d="m42.74,58.27c-.33,0-.59.27-.59.59s.27.59.59.59.59-.27.59-.59-.27-.59-.59-.59Z"/>
      <path class="cls-1" d="m44.74,55.98c.23,0,.42-.13.52-.32-.32-.22-.64-.44-.97-.65-.09.1-.14.23-.14.38,0,.33.27.59.59.59Z"/>
      <path class="cls-1" d="m45.34,62.34c0-.33-.27-.59-.59-.59s-.59.27-.59.59.27.59.59.59.59-.27.59-.59Z"/>
      <path class="cls-1" d="m42.74,72.17c-.33,0-.59.27-.59.59s.27.59.59.59.59-.27.59-.59-.27-.59-.59-.59Z"/>
      <circle class="cls-1" cx="44.74" cy="69.29" r=".59"/>
      <path class="cls-1" d="m42.74,79.13c-.33,0-.59.27-.59.59s.27.59.59.59.59-.27.59-.59-.27-.59-.59-.59Z"/>
      <circle class="cls-1" cx="44.74" cy="76.24" r=".59"/>
      <path class="cls-1" d="m46.75,73.36c.33,0,.59-.27.59-.59s-.27-.59-.59-.59-.59.27-.59.59.27.59.59.59Z"/>
      <path class="cls-1" d="m42.74,86.08c-.33,0-.59.27-.59.59s.27.59.59.59.59-.27.59-.59-.27-.59-.59-.59Z"/>
      <circle class="cls-1" cx="44.74" cy="83.2" r=".59"/>
      <path class="cls-1" d="m42.74,93.03c-.33,0-.59.27-.59.59s.27.59.59.59.59-.27.59-.59-.27-.59-.59-.59Z"/>
      <path class="cls-1" d="m44.15,90.15c0,.33.27.59.59.59s.59-.27.59-.59-.27-.59-.59-.59-.59.27-.59.59Z"/>
      <path class="cls-1" d="m44.18,96.97c.23-.15.46-.29.69-.44-.04,0-.08-.02-.12-.02-.28,0-.51.2-.57.47Z"/>
      <circle class="cls-1" cx="40.73" cy="55.39" r=".59"/>
      <path class="cls-1" d="m38.72,65.22c-.33,0-.59.27-.59.59s.27.59.59.59.59-.27.59-.59-.27-.59-.59-.59Z"/>
      <path class="cls-1" d="m40.73,62.93c.33,0,.59-.27.59-.59s-.27-.59-.59-.59-.59.27-.59.59.27.59.59.59Z"/>
      <circle class="cls-1" cx="38.72" cy="72.77" r=".59"/>
      <circle class="cls-1" cx="40.73" cy="69.29" r=".59"/>
      <path class="cls-1" d="m42.74,66.41c.33,0,.59-.27.59-.59s-.27-.59-.59-.59-.59.27-.59.59.27.59.59.59Z"/>
      <circle class="cls-1" cx="38.72" cy="79.72" r=".59"/>
      <circle class="cls-1" cx="40.73" cy="76.24" r=".59"/>
      <path class="cls-1" d="m38.72,86.08c-.33,0-.59.27-.59.59s.27.59.59.59.59-.27.59-.59-.27-.59-.59-.59Z"/>
      <circle class="cls-1" cx="40.73" cy="83.2" r=".59"/>
      <circle class="cls-1" cx="38.72" cy="93.62" r=".59"/>
      <path class="cls-1" d="m40.14,90.15c0,.33.27.59.59.59s.59-.27.59-.59-.27-.59-.59-.59-.59.27-.59.59Z"/>
      <circle class="cls-1" cx="40.73" cy="97.1" r=".59"/>
      <circle class="cls-1" cx="34.71" cy="58.86" r=".59"/>
      <circle class="cls-1" cx="36.72" cy="55.39" r=".59"/>
      <path class="cls-1" d="m38.72,52.51c.08,0,.16-.02.23-.05-.24-.08-.48-.16-.72-.23.11.17.28.28.49.28Z"/>
      <path class="cls-1" d="m34.71,65.22c-.33,0-.59.27-.59.59s.27.59.59.59.59-.27.59-.59-.27-.59-.59-.59Z"/>
      <path class="cls-1" d="m37.31,62.34c0-.33-.27-.59-.59-.59s-.59.27-.59.59.27.59.59.59.59-.27.59-.59Z"/>
      <circle class="cls-1" cx="38.72" cy="58.86" r=".59"/>
      <circle class="cls-1" cx="34.71" cy="72.77" r=".59"/>
      <circle class="cls-1" cx="36.72" cy="69.29" r=".59"/>
      <circle class="cls-1" cx="36.72" cy="76.24" r=".59"/>
      <circle class="cls-1" cx="36.72" cy="83.2" r=".59"/>
      <path class="cls-1" d="m36.12,90.15c0,.33.27.59.59.59s.59-.27.59-.59-.27-.59-.59-.59-.59.27-.59.59Z"/>
      <path class="cls-1" d="m34.71,99.98c-.32,0-.57.25-.59.57.38-.05.76-.1,1.14-.17-.08-.23-.3-.4-.55-.4Z"/>
      <circle class="cls-1" cx="36.72" cy="97.1" r=".59"/>
      <path class="cls-1" d="m34.12,51.91c0,.33.27.59.59.59s.59-.27.59-.59c0-.16-.06-.3-.17-.41-.23-.04-.47-.07-.71-.11-.19.1-.32.29-.32.52Z"/>
      <circle class="cls-1" cx="30.7" cy="51.91" r=".59"/>
      <path class="cls-1" d="m32.7,54.8c-.33,0-.59.27-.59.59s.27.59.59.59.59-.27.59-.59-.27-.59-.59-.59Z"/>
      <path class="cls-1" d="m30.7,65.22c-.33,0-.59.27-.59.59s.27.59.59.59.59-.27.59-.59-.27-.59-.59-.59Z"/>
      <path class="cls-1" d="m33.3,62.34c0-.33-.27-.59-.59-.59s-.59.27-.59.59.27.59.59.59.59-.27.59-.59Z"/>
      <circle class="cls-1" cx="30.7" cy="72.77" r=".59"/>
      <path class="cls-1" d="m33.3,69.29c0-.33-.27-.59-.59-.59s-.59.27-.59.59.27.59.59.59.59-.27.59-.59Z"/>
      <circle class="cls-1" cx="30.7" cy="79.72" r=".59"/>
      <path class="cls-1" d="m32.11,76.24c0,.33.27.59.59.59s.59-.27.59-.59-.27-.59-.59-.59-.59.27-.59.59Z"/>
      <path class="cls-1" d="m30.7,86.08c-.33,0-.59.27-.59.59s.27.59.59.59.59-.27.59-.59-.27-.59-.59-.59Z"/>
      <path class="cls-1" d="m32.11,83.2c0,.33.27.59.59.59s.59-.27.59-.59-.27-.59-.59-.59-.59.27-.59.59Z"/>
      <circle class="cls-1" cx="34.71" cy="79.72" r=".59"/>
      <circle class="cls-1" cx="30.7" cy="93.62" r=".59"/>
      <path class="cls-1" d="m32.11,90.15c0,.33.27.59.59.59s.59-.27.59-.59-.27-.59-.59-.59-.59.27-.59.59Z"/>
      <path class="cls-1" d="m34.71,87.27c.33,0,.59-.27.59-.59s-.27-.59-.59-.59-.59.27-.59.59.27.59.59.59Z"/>
      <path class="cls-1" d="m32.7,96.51c-.33,0-.59.27-.59.59s.27.59.59.59.59-.27.59-.59-.27-.59-.59-.59Z"/>
      <circle class="cls-1" cx="34.71" cy="93.62" r=".59"/>
      <path class="cls-1" d="m30.7,99.98c-.33,0-.59.27-.59.59,0,.05.02.1.03.15.3.01.59.02.89.02.08,0,.15,0,.23,0,.02-.05.03-.11.03-.17,0-.33-.27-.59-.59-.59Z"/>
      <circle class="cls-1" cx="26.68" cy="58.86" r=".59"/>
      <path class="cls-1" d="m28.69,55.98c.33,0,.59-.27.59-.59s-.27-.59-.59-.59-.59.27-.59.59.27.59.59.59Z"/>
      <path class="cls-1" d="m26.68,65.22c-.33,0-.59.27-.59.59s.27.59.59.59.59-.27.59-.59-.27-.59-.59-.59Z"/>
      <path class="cls-1" d="m29.28,62.34c0-.33-.27-.59-.59-.59s-.59.27-.59.59.27.59.59.59.59-.27.59-.59Z"/>
      <circle class="cls-1" cx="30.7" cy="58.86" r=".59"/>
      <circle class="cls-1" cx="26.68" cy="72.77" r=".59"/>
      <path class="cls-1" d="m29.28,69.29c0-.33-.27-.59-.59-.59s-.59.27-.59.59.27.59.59.59.59-.27.59-.59Z"/>
      <circle class="cls-1" cx="26.68" cy="79.72" r=".59"/>
      <path class="cls-1" d="m29.28,76.24c0-.33-.27-.59-.59-.59s-.59.27-.59.59.27.59.59.59.59-.27.59-.59Z"/>
      <path class="cls-1" d="m26.68,86.08c-.33,0-.59.27-.59.59s.27.59.59.59.59-.27.59-.59-.27-.59-.59-.59Z"/>
      <path class="cls-1" d="m28.1,83.2c0,.33.27.59.59.59s.59-.27.59-.59-.27-.59-.59-.59-.59.27-.59.59Z"/>
      <circle class="cls-1" cx="26.68" cy="93.62" r=".59"/>
      <path class="cls-1" d="m28.1,90.15c0,.33.27.59.59.59s.59-.27.59-.59-.27-.59-.59-.59-.59.27-.59.59Z"/>
      <path class="cls-1" d="m26.68,99.98c-.21,0-.39.12-.5.29.35.07.71.14,1.07.19-.05-.27-.28-.48-.57-.48Z"/>
      <path class="cls-1" d="m28.69,97.69c.33,0,.59-.27.59-.59s-.27-.59-.59-.59-.59.27-.59.59.27.59.59.59Z"/>
      <circle class="cls-1" cx="22.67" cy="58.86" r=".59"/>
      <path class="cls-1" d="m24.08,55.39c0,.33.27.59.59.59s.59-.27.59-.59-.27-.59-.59-.59-.59.27-.59.59Z"/>
      <path class="cls-1" d="m26.09,51.91c0,.33.27.59.59.59s.59-.27.59-.59c0-.18-.08-.33-.2-.44-.31.05-.61.1-.91.16-.04.08-.08.17-.08.27Z"/>
      <path class="cls-1" d="m22.67,65.22c-.33,0-.59.27-.59.59s.27.59.59.59.59-.27.59-.59-.27-.59-.59-.59Z"/>
      <path class="cls-1" d="m25.27,62.34c0-.33-.27-.59-.59-.59s-.59.27-.59.59.27.59.59.59.59-.27.59-.59Z"/>
      <circle class="cls-1" cx="22.67" cy="72.77" r=".59"/>
      <path class="cls-1" d="m25.27,69.29c0-.33-.27-.59-.59-.59s-.59.27-.59.59.27.59.59.59.59-.27.59-.59Z"/>
      <circle class="cls-1" cx="22.67" cy="79.72" r=".59"/>
      <path class="cls-1" d="m25.27,76.24c0-.33-.27-.59-.59-.59s-.59.27-.59.59.27.59.59.59.59-.27.59-.59Z"/>
      <path class="cls-1" d="m22.67,86.08c-.33,0-.59.27-.59.59s.27.59.59.59.59-.27.59-.59-.27-.59-.59-.59Z"/>
      <path class="cls-1" d="m24.08,83.2c0,.33.27.59.59.59s.59-.27.59-.59-.27-.59-.59-.59-.59.27-.59.59Z"/>
      <circle class="cls-1" cx="22.67" cy="93.62" r=".59"/>
      <path class="cls-1" d="m24.08,90.15c0,.33.27.59.59.59s.59-.27.59-.59-.27-.59-.59-.59-.59.27-.59.59Z"/>
      <path class="cls-1" d="m24.08,97.1c0,.33.27.59.59.59s.59-.27.59-.59-.27-.59-.59-.59-.59.27-.59.59Z"/>
      <circle class="cls-1" cx="18.65" cy="58.86" r=".59"/>
      <circle class="cls-1" cx="20.66" cy="55.39" r=".59"/>
      <path class="cls-1" d="m18.65,65.22c-.33,0-.59.27-.59.59s.27.59.59.59.59-.27.59-.59-.27-.59-.59-.59Z"/>
      <path class="cls-1" d="m20.66,61.75c-.33,0-.59.27-.59.59s.27.59.59.59.59-.27.59-.59-.27-.59-.59-.59Z"/>
      <circle class="cls-1" cx="18.65" cy="72.77" r=".59"/>
      <circle class="cls-1" cx="20.66" cy="69.29" r=".59"/>
      <circle class="cls-1" cx="18.65" cy="79.72" r=".59"/>
      <circle class="cls-1" cx="20.66" cy="76.24" r=".59"/>
      <path class="cls-1" d="m18.65,86.08c-.33,0-.59.27-.59.59s.27.59.59.59.59-.27.59-.59-.27-.59-.59-.59Z"/>
      <circle class="cls-1" cx="20.66" cy="83.2" r=".59"/>
      <circle class="cls-1" cx="18.65" cy="93.62" r=".59"/>
      <path class="cls-1" d="m20.07,90.15c0,.33.27.59.59.59s.59-.27.59-.59-.27-.59-.59-.59-.59.27-.59.59Z"/>
      <circle class="cls-1" cx="20.66" cy="97.1" r=".59"/>
      <path class="cls-1" d="m14.64,58.27c-.33,0-.59.27-.59.59s.27.59.59.59.59-.27.59-.59-.27-.59-.59-.59Z"/>
      <path class="cls-1" d="m17.24,55.39s0-.03,0-.04c-.28.19-.55.38-.83.58.07.03.15.05.24.05.33,0,.59-.27.59-.59Z"/>
      <path class="cls-1" d="m14.64,65.22c-.33,0-.59.27-.59.59s.27.59.59.59.59-.27.59-.59-.27-.59-.59-.59Z"/>
      <path class="cls-1" d="m17.24,62.34c0-.33-.27-.59-.59-.59s-.59.27-.59.59.27.59.59.59.59-.27.59-.59Z"/>
      <path class="cls-1" d="m14.64,72.17c-.33,0-.59.27-.59.59s.27.59.59.59.59-.27.59-.59-.27-.59-.59-.59Z"/>
      <circle class="cls-1" cx="16.65" cy="69.29" r=".59"/>
      <circle class="cls-1" cx="16.65" cy="76.24" r=".59"/>
      <circle class="cls-1" cx="16.65" cy="83.2" r=".59"/>
      <path class="cls-1" d="m14.64,93.03c-.33,0-.59.27-.59.59s.27.59.59.59.59-.27.59-.59-.27-.59-.59-.59Z"/>
      <path class="cls-1" d="m16.05,90.15c0,.33.27.59.59.59s.59-.27.59-.59-.27-.59-.59-.59-.59.27-.59.59Z"/>
      <path class="cls-1" d="m10.63,65.22c-.33,0-.59.27-.59.59s.27.59.59.59.59-.27.59-.59-.27-.59-.59-.59Z"/>
      <path class="cls-1" d="m12.63,61.75c-.33,0-.59.27-.59.59s.27.59.59.59.59-.27.59-.59-.27-.59-.59-.59Z"/>
      <path class="cls-1" d="m10.63,72.17c-.33,0-.59.27-.59.59s.27.59.59.59.59-.27.59-.59-.27-.59-.59-.59Z"/>
      <circle class="cls-1" cx="12.63" cy="69.29" r=".59"/>
      <path class="cls-1" d="m10.63,79.13c-.33,0-.59.27-.59.59s.27.59.59.59.59-.27.59-.59-.27-.59-.59-.59Z"/>
      <circle class="cls-1" cx="12.63" cy="76.24" r=".59"/>
      <path class="cls-1" d="m10.63,86.08c-.33,0-.59.27-.59.59s.27.59.59.59.59-.27.59-.59-.27-.59-.59-.59Z"/>
      <circle class="cls-1" cx="12.63" cy="83.2" r=".59"/>
      <path class="cls-1" d="m14.64,80.31c.33,0,.59-.27.59-.59s-.27-.59-.59-.59-.59.27-.59.59.27.59.59.59Z"/>
      <path class="cls-1" d="m13.23,90.15c0-.33-.27-.59-.59-.59s-.59.27-.59.59.27.59.59.59.59-.27.59-.59Z"/>
      <path class="cls-1" d="m14.64,87.27c.33,0,.59-.27.59-.59s-.27-.59-.59-.59-.59.27-.59.59.27.59.59.59Z"/>
      <circle class="cls-1" cx="8.62" cy="69.29" r=".59"/>
      <circle class="cls-1" cx="8.62" cy="76.24" r=".59"/>
      <circle class="cls-1" cx="8.62" cy="83.2" r=".59"/>
      <path class="cls-1" d="m7.21,79.72c0-.33-.27-.59-.59-.59-.06,0-.11.02-.17.03.05.39.11.77.18,1.15.32,0,.59-.27.59-.59Z"/>
      <path class="cls-1" d="m6.61,73.36c.33,0,.59-.27.59-.59s-.27-.59-.59-.59c-.04,0-.07.01-.1.02-.06.37-.1.74-.14,1.11.07.03.15.05.24.05Z"/>
    </g>
  </g>
  <g id="_人物" data-name="人物">
    <g>
      <g>
        <path class="cls-1" d="m52.92,136.68c-3.61-.17-6.62-.01-8.34.13-.82.07-1.48-.63-1.39-1.44l.42-3.8s4.96-1.39,9.7-.36l-.39,5.47Z"/>
        <path class="cls-1" d="m125.65,75.37c.32,1.77.89,10.23-5.72,10.18s-6.56-7.97-6.24-12.28c0,0,.75,1.25,1.47,3.29.73,2.04,2.19,3.62,5.22,3.27s4.26-2.68,5.26-4.46Z"/>
        <path class="cls-1" d="m97.13,44.7c-.26-.73-.54-1.57-.78-2.3-.31-.95-1.4-1.4-2.29-.94-1.76.9-4.61,2.32-7.05,3.45-1.34.62-2.9.47-4.11-.37-.98-.69-2.2-1.57-3.34-2.46-.68-.53-1.66-.4-2.16.3l-1.32,1.84c-.26.36-.42.76-.49,1.18h-.05c-2.98,14.45-8.05,69.36-8.05,69.36l13.97-1.76s-.02-2.73,1.03-22.05,7.63-36.02,14.04-44.29c.6-.46.84-1.25.59-1.96Z"/>
        <path class="cls-7" d="m105.18,25.52c-.02-3.02-2.07-4.27-5.02-4.17v.05c.17-1.12.35-2.26.51-3.42,0,0-1.6,1.85-2.91,2.53,3.08-8.56-1.05-12.94-4.64-13.07-4.6-2-8.26.8-8.26.8-5.92,1.86-8.96,5.91-9.42,11.55-2.85-.5-6.18,1.02-6.22,5.02-.04,4,3.64,5.96,6.82,5.83h0c.2.92.43,1.75.69,2.44.85,2.25,2.07,3.58,2.77,4.21l-.21,4.58,3.39,2.75c1.25,1.02,2.99,1.2,4.42.47l7.84-3.99-.74-4.4c1.76-1.46,2.8-3.29,3.36-4.68h0c5.1.11,7.66-2.98,7.63-6.49Z"/>
        <path class="cls-7" d="m48.92,167.39c.72-4.5,5.25-20.99,5.94-24.13s.28-4.51.28-4.51c-2.23-.18-2.22-2.12-2.22-2.12h-9.11c-.87,4.9-3.05,6.73-4.94,12.27-1.74,5.09-1.88,11.95-.92,17.87.14.88.94,1.49,1.82,1.39h0c.81-.1,1.43-.77,1.45-1.58.05-1.73.2-4.79.58-7.64,0,0-.05,3.43,2.53,8.48.42.83,1.5,1.09,2.26.55h0c.56-.4.79-1.11.56-1.76,0,0,.03.39,1.76,1.19Z"/>
        <path class="cls-7" d="m126.2,65.16c1.24,9.14-1.13,14.16-5.92,14.74-4.79.58-5.53-5.2-7-7.35-1.47-2.15.15-5.12.23-7.76.08-2.64-.91-4.71.68-7.84,1.29-2.54,1.02-7.58.87-10.8-.05-1.09.72-2.05,1.8-2.24h0c1.27-.22,2.46.69,2.55,1.98.13,1.75.27,4.2.24,6.5,0,.84,1.02,1.23,1.56.6,2.75-3.2,5.65-6.18,6.99-6.7,1.76-.68,2.6.8,2.2,2.07"/>
        <path class="cls-7" d="m124.96,60.99c1.86-1.24,3.76-2.56,5.45-3.36s3.36-1.35,3.99-.36c.9,1.41-.74,2.23-4.13,4.95s-6.34,3.55-6.17,6.86c.17,3.3.25,3.99-.58,4.54s-1.94-.08-2.76-1.24c-.83-1.16-2.46-1.82-4.11-.25"/>
        <path class="cls-7" d="m122.68,58.01c1.04-1.47,3.76-5.03,5.98-7.64,1.46-1.72,3.57-3.27,4.82-2.59s.84,1.7-.22,3.6c-1.24,2.23-5.05,6.19-6.03,8.04"/>
        <polygon class="cls-8" points="67.5 114.77 81.47 113.01 81.81 119.99 66.93 121.81 67.5 114.77"/>
        <path class="cls-4" d="m93.13,7.44c3.58.13,7.71,4.51,4.64,13.07,1.31-.67,2.91-2.53,2.91-2.53-.15,1.08-.31,2.14-.47,3.18l2.36.48c1.81-4.76,1.39-9.63-1.08-13.4-2.15-3.29-5.4-4.13-8.62-3.5-1.34-4.11-9.54-6.57-14.07,1.09-.31.52-.77.94-1.31,1.23-3.04,1.63-8.61,6-4.42,12.8l2.4-.06s.6-15.09,17.68-12.34Z"/>
        <path class="cls-4" d="m81.39,105.88c-.71.99-1.56,2.06-2.46,2.97-.69.7-1.86.64-2.46-.13-1.37-1.76-2.34-3.53-2.92-4.7-.42-.85-.63-1.79-.63-2.74.04-25.28,6.24-42.31,7.73-46.02.21-.52.32-1.08.32-1.64v-4.96s3.45-3.83,6.01,0c-.94,2.43-1.88,4.5-2.43,5.69-.33.71-.47,1.49-.4,2.27.28,3.14,1.03,11.64,1.36,16.24,0,0-4.52,18.91-4.1,33.03Z"/>
        <g>
          <path class="cls-2" d="m80.96,53.62c0,.09-.02.18-.03.27.09-.12.15-.27.15-.43,0-.15-.05-.28-.13-.39v.55Z"/>
          <path class="cls-2" d="m83.96,49.73c0-.4-.33-.73-.73-.73s-.73.33-.73.73.33.73.73.73.73-.33.73-.73Z"/>
          <path class="cls-2" d="m83.96,57.2c0-.4-.33-.73-.73-.73s-.73.33-.73.73.33.73.73.73.73-.33.73-.73Z"/>
          <path class="cls-2" d="m83.96,64.66c0-.4-.33-.73-.73-.73s-.73.33-.73.73.33.73.73.73.73-.33.73-.73Z"/>
          <path class="cls-2" d="m80.36,75.13c-.4,0-.73.33-.73.73s.33.73.73.73.73-.33.73-.73-.33-.73-.73-.73Z"/>
          <path class="cls-2" d="m83.23,72.87c.4,0,.73-.33.73-.73s-.33-.73-.73-.73-.73.33-.73.73.33.73.73.73Z"/>
          <path class="cls-2" d="m80.36,82.6c-.4,0-.73.33-.73.73s.33.73.73.73.73-.33.73-.73-.33-.73-.73-.73Z"/>
          <path class="cls-2" d="m83.23,78.87c-.4,0-.73.33-.73.73s.33.73.73.73.73-.33.73-.73-.33-.73-.73-.73Z"/>
          <path class="cls-2" d="m80.36,90.07c-.4,0-.73.33-.73.73s.33.73.73.73.73-.33.73-.73-.33-.73-.73-.73Z"/>
          <path class="cls-2" d="m82.5,87.07c0,.21.09.4.24.53.06-.4.12-.8.18-1.19-.24.12-.42.36-.42.65Z"/>
          <path class="cls-2" d="m80.36,97.54c-.4,0-.73.33-.73.73s.33.73.73.73.73-.33.73-.73-.33-.73-.73-.73Z"/>
          <path class="cls-2" d="m80.36,105.01c-.4,0-.73.33-.73.73s.33.73.73.73.73-.33.73-.73-.33-.73-.73-.73Z"/>
          <path class="cls-2" d="m78.22,64.66c0-.3-.18-.56-.44-.67-.12.45-.25.91-.37,1.39.03,0,.05.02.08.02.4,0,.73-.33.73-.73Z"/>
          <path class="cls-2" d="m80.36,61.66c.4,0,.73-.33.73-.73s-.33-.73-.73-.73-.73.33-.73.73.33.73.73.73Z"/>
          <path class="cls-2" d="m75.01,76.46c.2-.13.33-.34.33-.6,0-.16-.06-.3-.15-.42-.06.34-.12.68-.18,1.02Z"/>
          <path class="cls-2" d="m78.22,72.13c0-.4-.33-.73-.73-.73s-.73.33-.73.73.33.73.73.73.73-.33.73-.73Z"/>
          <path class="cls-2" d="m80.36,69.13c.4,0,.73-.33.73-.73s-.33-.73-.73-.73-.73.33-.73.73.33.73.73.73Z"/>
          <path class="cls-2" d="m78.22,79.6c0-.4-.33-.73-.73-.73s-.73.33-.73.73.33.73.73.73.73-.33.73-.73Z"/>
          <path class="cls-2" d="m76.75,87.07c0,.4.33.73.73.73s.73-.33.73-.73-.33-.73-.73-.73-.73.33-.73.73Z"/>
          <path class="cls-2" d="m76.75,94.54c0,.4.33.73.73.73s.73-.33.73-.73-.33-.73-.73-.73-.73.33-.73.73Z"/>
          <path class="cls-2" d="m76.75,102.01c0,.4.33.73.73.73s.73-.33.73-.73-.33-.73-.73-.73-.73.33-.73.73Z"/>
          <path class="cls-2" d="m77.48,108.74c-.26,0-.47.14-.6.34.39.25.86.31,1.3.2-.09-.31-.36-.54-.69-.54Z"/>
          <path class="cls-2" d="m75.34,105.74c0-.4-.33-.73-.73-.73-.17,0-.33.07-.45.17.21.39.46.8.73,1.24.27-.11.46-.37.46-.68Z"/>
          <path class="cls-2" d="m74.61,84.07c.4,0,.73-.33.73-.73s-.33-.73-.73-.73c-.22,0-.41.1-.54.25-.03.27-.07.54-.1.82.12.23.36.4.64.4Z"/>
          <path class="cls-2" d="m74.61,91.54c.4,0,.73-.33.73-.73s-.33-.73-.73-.73-.73.33-.73.73.33.73.73.73Z"/>
          <path class="cls-2" d="m75.34,98.27c0-.4-.33-.73-.73-.73s-.73.33-.73.73.33.73.73.73.73-.33.73-.73Z"/>
        </g>
        <path class="cls-5" d="m128.8,85.17c-.63-2.34-.13-12.07-2.41-18.37.44,5.18-.74,8.57-.74,8.57.84,5.47-.98,10.81-6.55,10.13-5.57-.68-5.46-7.35-5.46-7.35l.06-4.88s-.41-.72-1.03-2.9c-.61-2.18,1.43-4.6.97-6.84-.46-2.23-.28-3.98.56-6.59s.97-5.12.97-5.12c-4.67-2.38-14.95-5.53-17.93-6.41l-.69,1.26c-7.58,10.08-11.68,25.06-13.75,41.79-1.16,9.36-1.77,21.22-1.02,31.06h-.01s-14.84,2.3-14.84,2.3l-.03.05c.95-9.98,1.71-24.31,3.46-36.93,1.44-10.39,3.52-28.07,5.19-39.52,0,0-13.23,6.28-17.3,8.48-4.07,2.2-5.5,5.5-6.05,11.34-.55,5.83-.33,14.64-1.43,19.27-1.1,4.62-4.4,7.16-3.74,10.9s1.65,3.08.77,8.59c-.81,5.08-5.19,18.99-6.55,26.73-.2,1.15.38,2.3,1.44,2.78.21.09.44.19.69.28l.25-2.2c5.46-2.01,9.7-.36,9.7-.36l-.46,4.47c-.16,1.5.89,2.8,2.3,3.06h0c0,.58,0,1.24,0,1.77,0,.63-.1,1.24-.29,1.83-3.64,11.43-7.02,30.1-8.26,38.92-.17,1.21.77,2.29,1.99,2.29h24.57c.72,0,1.36-.47,1.58-1.16,1.01-3.21,3.94-12.2,6.07-15.7l1.24,15.33c.07.86.79,1.52,1.65,1.52h27.84c1.18,0,2.14-.96,2.12-2.15-.13-7.3-.58-30.79-.79-32.51-.25-2.03-.8-2.74-.31-4.84.49-2.1.84-3.58.44-4.97.56-.14,1.11-.28,1.63-.42,1.93-.54,3.07-2.52,2.6-4.46-1.79-7.38-5.97-24.7-6.89-29.01-.85-3.99-.66-7.93-.33-8.92,0,0,1.97,2.31,5.21,3.4,6.84,2.43,12.34-2.99,13.69-7.04,1.35-4.05.54-5.11-.09-7.45Z"/>
        <path class="cls-1" d="m81.47,113.01c0,.23,0,2.33,0,2.33-1.68.12-5.82.58-7.7.76-.55.05-.96.51-.95,1.06,0,.34.01.66.02,1.05.01.64.58,1.14,1.22,1.06l7.63-.93.16,2.1-8.33,1.2c-1.56.23-2.97-.98-2.97-2.57,0-1.74.06-3.7.09-4.73l10.83-1.34Z"/>
      </g>
      <g>
        <path class="cls-4" d="m80.04,38.56c-.16,0-.31-.04-.46-.13-.09-.06-2.3-1.51-3.65-5.06-1.18-3.11-1.73-8.73-1.34-13.65.49-6.13,3.96-10.38,10.01-12.29.45-.14.93.11,1.07.56s-.11.93-.56,1.07c-5.42,1.71-8.38,5.34-8.83,10.8-.38,4.7.13,10.01,1.23,12.91,1.14,2.99,2.97,4.22,2.98,4.24.39.26.5.78.25,1.17-.16.25-.44.39-.71.39Z"/>
        <path class="cls-4" d="m75.73,31.49c-2.07,0-4.1-.77-5.47-2.1-1.25-1.21-1.89-2.79-1.87-4.59.03-2.42,1.11-3.83,2.02-4.58,1.35-1.13,3.3-1.6,5.2-1.27.46.08.77.52.69.98s-.53.77-.98.69c-1.42-.25-2.84.09-3.82.9-.91.75-1.39,1.89-1.41,3.29-.01,1.34.44,2.46,1.36,3.35,1.11,1.07,2.85,1.69,4.57,1.62.01,0,.02,0,.04,0,.45,0,.83.36.85.81.02.47-.34.87-.81.89-.12,0-.24,0-.36,0Z"/>
        <path class="cls-4" d="m102.56,22.49c-.1,0-.2-.02-.3-.06-.44-.17-.66-.66-.49-1.1,1.7-4.46,1.33-9.07-1-12.64-2.22-3.4-5.44-3.58-7.75-3.13-.42.08-.84-.16-.97-.57-.54-1.67-2.5-3.01-4.76-3.26-3.04-.33-5.88,1.31-7.78,4.51-.37.63-.94,1.17-1.64,1.54-1.31.7-4.44,2.66-5.27,5.76-.49,1.82-.1,3.79,1.17,5.85.25.4.12.92-.28,1.17-.4.25-.92.12-1.17-.28-1.53-2.47-1.99-4.89-1.37-7.18,1-3.73,4.61-6.01,6.11-6.81.42-.23.76-.54.98-.91,2.25-3.8,5.68-5.75,9.43-5.34,2.65.29,4.92,1.75,5.91,3.73,3.68-.49,6.79.9,8.81,3.98,2.63,4.03,3.06,9.19,1.17,14.17-.13.34-.45.55-.79.55Z"/>
        <path class="cls-4" d="m77.51,17.3c1.14-5.23,5.1-9.98,10.5-11.05,1.9-.33,3.75-.54,5.58.52,0,0-.44-.14-.44-.14,1.59.05,3.06.81,4.14,1.88,3.2,3.28,2.7,8.35,1.27,12.3,0,0-1.19-1.04-1.19-1.04.96-.53,1.91-1.5,2.66-2.34.52-.63,1.62-.12,1.48.68-.35,2.52-.76,5.04-1.28,7.55-1.53,8.83-5.71,15.6-15.75,14.13,0,0,.86-1.27.86-1.27,1.54,2.4,4.42,1.14,5.77-.81.72-.85,2.01.25,1.3,1.1-2.02,2.91-6.39,4.03-8.53.58-.39-.6.18-1.41.86-1.27,12.66,1.91,13.61-10.96,15.09-20.22,0,0,1.49.67,1.49.67-.73.71-3.36,3.93-4.3,2.4-.12-.22-.13-.47-.06-.69,1.74-4.18,1.73-11.32-3.86-11.99-2.84-1.4-6.54-.33-9.04,1.48-2.62,1.87-4.27,4.81-5.03,7.93-.25,1-1.76.64-1.52-.37h0Z"/>
        <path class="cls-4" d="m97.83,32.87c-.1,0-.19,0-.29,0-.47-.01-.84-.4-.83-.87.01-.47.36-.83.87-.83,2.19.04,4.02-.55,5.22-1.74,1-.99,1.55-2.37,1.54-3.9,0-1.05-.3-1.86-.87-2.41-.68-.65-1.81-.98-3.27-.92-.42.01-.86-.35-.88-.82-.02-.47.35-.86.82-.88,1.94-.06,3.48.42,4.5,1.4.91.87,1.38,2.09,1.39,3.62.02,1.99-.71,3.81-2.05,5.12-1.48,1.46-3.61,2.23-6.16,2.23Z"/>
        <path class="cls-4" d="m94.93,41.94c-.38,0-.73-.26-.82-.64-.59-2.35-.76-4.45-.77-4.54-.04-.47.31-.88.78-.92.46-.04.88.31.92.78,0,.02.17,2.05.72,4.26.11.46-.16.92-.62,1.03-.07.02-.14.03-.21.03Z"/>
        <path class="cls-4" d="m89.13,52.32c-.16,0-.32-.02-.48-.06-.5-.13-.93-.47-1.18-.93-.35-.65-.83-1.53-1.26-2.29-.4-.7-1.12-1.14-1.93-1.18-.66-.03-1.24.16-1.71.54h0c-1.32,1.08-2.57,2.24-3.38,3.03-.46.44-1.1.62-1.72.49-.62-.13-1.12-.56-1.35-1.15-.63-1.6-1.05-3.01-1.29-3.92-.29-1.08-.08-2.22.57-3.13l1.32-1.85c.38-.53.94-.87,1.58-.96.64-.09,1.28.08,1.79.48.95.74,2.06,1.56,3.31,2.43.96.67,2.21.79,3.26.3,2.52-1.17,5.48-2.66,7.02-3.44.65-.33,1.4-.36,2.06-.08.67.28,1.18.83,1.41,1.52.24.73.52,1.56.78,2.29.37,1.07.02,2.24-.88,2.91-2.32,1.75-5.33,3.69-6.92,4.69-.3.19-.66.29-1.01.29Zm-5.01-6.17c.07,0,.14,0,.21,0,1.43.07,2.67.83,3.36,2.03.44.77.93,1.67,1.28,2.33.03.06.08.08.12.09.04.01.09.01.15-.02,1.56-.98,4.53-2.89,6.8-4.61.3-.23.42-.63.29-1-.26-.74-.54-1.59-.79-2.32-.07-.22-.23-.39-.44-.48-.21-.09-.44-.08-.65.03-1.55.79-4.53,2.29-7.08,3.47-1.6.74-3.5.57-4.96-.45-1.27-.89-2.41-1.73-3.38-2.49-.14-.11-.32-.16-.5-.13-.18.03-.33.12-.44.26l-1.32,1.85c-.36.5-.47,1.12-.31,1.7.23.87.63,2.21,1.23,3.73.02.06.07.09.13.11.04,0,.12.01.18-.05.84-.81,2.12-2.01,3.48-3.12.74-.61,1.67-.93,2.63-.93Zm-2.09,1.59h0,0Z"/>
        <path class="cls-4" d="m79.28,42.71s-.02,0-.03,0c-.47-.02-.84-.41-.82-.88l.16-4.53c.02-.47.39-.83.88-.82.47.02.84.41.82.88l-.16,4.53c-.02.46-.39.82-.85.82Z"/>
        <path class="cls-4" d="m99.73,141.62c-5.23,0-10.26-.96-13.32-3.77-7.52-6.89-6.2-35.39-4.45-49.5,2.36-19.09,6.91-32.89,13.91-42.2.28-.38.82-.45,1.19-.17.38.28.45.82.17,1.19-6.82,9.06-11.26,22.6-13.59,41.38-3.24,26.21-.49,44.01,3.91,48.04,5,4.58,17.41,3.86,26.83,1.25,1.49-.41,2.37-1.93,2-3.44-1.77-7.28-5.97-24.69-6.9-29.04-.56-2.64-.63-5.02-.63-6.2,0-.47.39-.81.86-.85.47,0,.85.39.85.86,0,1.12.06,3.36.59,5.84.92,4.33,5.12,21.71,6.89,28.99.58,2.41-.82,4.82-3.2,5.48-3.89,1.08-9.61,2.14-15.11,2.14Z"/>
        <path class="cls-4" d="m43.36,134.62c-.1,0-.2-.02-.3-.05-.27-.1-.51-.2-.74-.3-1.41-.63-2.21-2.15-1.93-3.7.73-4.16,2.34-10.15,3.77-15.43,1.24-4.6,2.41-8.95,2.78-11.28.57-3.59.32-4.36-.09-5.65-.21-.64-.46-1.43-.68-2.65-.43-2.47.62-4.42,1.74-6.5.77-1.44,1.58-2.92,2.01-4.75.67-2.81.84-7.32,1-11.69.1-2.7.2-5.26.41-7.46.52-5.53,1.79-9.46,6.5-12.01,1.02-.55,3.18-1.57,5.48-2.64l1.46-.69c.43-.2.93-.02,1.13.41.2.42.02.93-.41,1.13l-1.46.69c-2.17,1.02-4.42,2.07-5.39,2.6-3.58,1.94-5.05,4.73-5.61,10.67-.2,2.16-.3,4.69-.4,7.37-.17,4.44-.34,9.04-1.05,12.01-.49,2.05-1.38,3.7-2.17,5.16-1.06,1.96-1.89,3.51-1.56,5.39.2,1.11.42,1.81.62,2.42.52,1.61.76,2.63.15,6.44-.39,2.42-1.57,6.81-2.82,11.46-1.41,5.25-3.02,11.2-3.73,15.28-.14.78.25,1.54.95,1.85.19.09.41.18.64.26.44.16.66.65.5,1.09-.13.34-.45.55-.8.55Z"/>
        <path class="cls-4" d="m55.65,139.65c-1,0-1.96-.41-2.65-1.13-.75-.78-1.11-1.85-1-2.92.54-5.23,3.29-31.6,3.86-37.53.32-3.35.35-6.91.37-10.68.02-3.92.05-7.97.4-12.31,1.01-12.54,1.61-16.3,1.77-17.15.09-.46.53-.77.99-.68.46.09.77.53.68.99-.32,1.72-.95,7.08-1.75,16.98-.35,4.28-.37,8.3-.39,12.19-.02,3.81-.05,7.41-.38,10.84-.57,5.94-3.32,32.32-3.86,37.54-.06.58.14,1.15.54,1.57.4.42.95.64,1.55.61,4.16-.25,6.81-1.77,8.34-4.78,1.29-2.53,2-11.57,2.82-22.04.65-8.29,1.38-17.69,2.58-26.32.62-4.46,1.35-10.25,2.13-16.37,1.04-8.17,2.11-16.63,3.06-23.16.07-.46.5-.79.96-.72.46.07.79.5.72.96-.95,6.52-2.02,14.96-3.06,23.13-.78,6.13-1.51,11.92-2.13,16.39-1.19,8.57-1.92,17.94-2.57,26.21-.87,11.09-1.55,19.85-3,22.68-1.81,3.55-5,5.41-9.75,5.7-.08,0-.15,0-.23,0Z"/>
        <path class="cls-4" d="m41.8,133.67c-.19,0-.38-.06-.54-.2-.36-.3-.41-.84-.11-1.2,2.39-2.87,8.69-2.7,12.34-1.89.46.1.75.56.65,1.01-.1.46-.56.75-1.01.65-3.89-.86-9.07-.6-10.67,1.32-.17.2-.41.31-.65.31Z"/>
        <path class="cls-4" d="m44.47,137.66c-.58,0-1.13-.23-1.53-.65-.45-.46-.67-1.1-.59-1.74l.42-3.8c.05-.47.46-.8.94-.75.47.05.8.47.75.94l-.42,3.8c-.02.19.07.31.12.37.05.06.17.15.35.13,1.88-.15,4.88-.3,8.45-.13.47.02.83.42.81.89-.02.47-.42.82-.89.81-3.48-.17-6.4-.02-8.23.13-.06,0-.12,0-.18,0Z"/>
        <path class="cls-4" d="m45.7,169.09c-.19,0-.38-.02-.57-.07-.67-.17-1.24-.61-1.55-1.22-.6-1.17-1.06-2.26-1.42-3.25-.04.8-.07,1.51-.08,2.04-.04,1.24-.96,2.25-2.2,2.4-1.34.17-2.55-.76-2.76-2.09-1.07-6.57-.71-13.4.95-18.28.84-2.45,1.74-4.21,2.53-5.76,1.02-2,1.91-3.72,2.38-6.38.08-.46.52-.77.99-.69.46.08.77.52.69.99-.52,2.91-1.5,4.83-2.54,6.86-.8,1.57-1.64,3.2-2.43,5.53-1.58,4.62-1.91,11.15-.88,17.45.07.43.46.74.89.68.39-.05.69-.37.7-.76.05-1.63.19-4.8.58-7.72.06-.45.46-.76.91-.74.45.03.79.41.79.86,0,.03,0,3.31,2.44,8.09.12.24.33.32.44.35.2.05.41,0,.57-.11.25-.18.36-.49.25-.78-.41-1.18-1.18-3.52-1.66-5.91-.09-.46.21-.91.67-1,.46-.09.91.21,1,.67.46,2.29,1.2,4.54,1.6,5.68.35,1-.01,2.12-.88,2.73-.41.29-.89.44-1.39.44Z"/>
        <path class="cls-4" d="m46.1,157.81c-1.46,0-2.64-1.15-2.67-2.57-.05-1.84-.03-3.15,0-4.96.02-1.11.04-2.41.05-4.13,0-.47.38-.84.85-.84h0c.47,0,.85.39.84.86-.01,1.73-.04,3.04-.05,4.15-.03,1.79-.05,3.08,0,4.88.01.5.43.91.93.91s.91-.31,1.01-.76c.22-1,.53-2.61.8-4.62.15-1.12.75-2.14,1.68-2.85.73-.56,1.26-1.24,1.58-2.03.18-.44.67-.64,1.11-.47.43.18.64.67.47,1.11-.43,1.06-1.16,2.01-2.12,2.74-.58.44-.94,1.06-1.03,1.73-.27,2.07-.6,3.73-.82,4.76-.27,1.24-1.35,2.1-2.63,2.1Z"/>
        <path class="cls-4" d="m46.79,182.79s-.07,0-.1,0c-.47-.06-.8-.48-.74-.95.91-7.53,4.08-27.15,8.09-39.75.17-.52.25-1.05.25-1.58,0-.53,0-1.19,0-1.76,0-.47.38-.85.85-.85h0c.47,0,.85.38.85.85,0,.57,0,1.24,0,1.77,0,.7-.11,1.41-.33,2.09-3.98,12.48-7.12,31.96-8.02,39.44-.05.43-.42.75-.84.75Z"/>
        <path class="cls-4" d="m74.37,183.84c-.07,0-.15,0-.22-.03-.45-.12-.72-.59-.6-1.04.65-2.44,2.81-8.72,4.53-13.18.17-.44.67-.66,1.1-.49.44.17.66.66.49,1.1-1.71,4.41-3.84,10.61-4.47,13.01-.1.38-.45.63-.82.63Z"/>
        <path class="cls-4" d="m78.71,148.83c-.39,0-.71-.32-.71-.71,0-1.5-.25-2.48-.52-3.52-.24-.93-.48-1.89-.57-3.24-.08-1.28-.03-3.26.03-5.36.07-2.57.14-5.23-.03-6.74-.04-.39.24-.74.62-.78.39-.04.74.24.78.62.18,1.61.11,4.31.04,6.93-.06,2.07-.11,4.02-.03,5.24.08,1.22.29,2.08.53,2.98.28,1.08.56,2.19.56,3.87,0,.39-.32.71-.71.71Z"/>
        <path class="cls-4" d="m82.15,184.4c-.43,0-.8-.33-.85-.77-.27-2.84-1.62-20.33-1.9-27.48-.02-.47.35-.86.82-.88.43-.04.86.35.88.82.28,7.12,1.62,24.55,1.89,27.39.04.47-.3.88-.77.93-.03,0-.05,0-.08,0Z"/>
        <path class="cls-4" d="m113.65,182.3s0,0-.01,0c-.47,0-.84-.39-.84-.86.14-8.61-.56-30.42-.81-32.44-.07-.58-.17-1.05-.26-1.48-.22-1.08-.42-2.01-.03-3.66.48-2.06.79-3.38.45-4.54-.13-.45.13-.92.58-1.05.45-.13.92.13,1.05.58.46,1.58.09,3.15-.41,5.32-.32,1.36-.18,2.02.02,3,.09.45.2.97.28,1.61.27,2.18.96,23.89.82,32.67,0,.46-.39.84-.85.84Z"/>
        <path class="cls-4" d="m115.16,52.67c-.13,0-.26-.03-.38-.09-4.82-2.46-15.67-5.72-17.79-6.35-.45-.13-.71-.61-.57-1.06.13-.45.6-.71,1.06-.57,2.15.64,13.12,3.94,18.08,6.47.42.21.58.73.37,1.14-.15.29-.45.46-.76.46Z"/>
        <path class="cls-4" d="m97.37,55.35c-.29,0-.58-.15-.73-.42-.24-.4-.1-.93.3-1.16l4.6-2.7c.26-.15.37-.46.26-.74l-1.26-3.36c-.16-.44.06-.93.5-1.09.44-.17.93.06,1.09.5l1.26,3.36c.39,1.06-.03,2.23-1,2.8l-4.6,2.7c-.13.08-.28.12-.43.12Z"/>
        <path class="cls-4" d="m85.49,88.49c-.08,0-.17-.01-.25-.04-.45-.14-.7-.62-.56-1.06,3.41-11,11.82-25.97,14.32-30.29.08-.14.1-.3.06-.46-.04-.16-.15-.29-.29-.37l-6.12-3.46c-.41-.23-.55-.75-.32-1.16.23-.41.75-.55,1.16-.32l6.12,3.46c.54.31.93.81,1.1,1.41.16.6.08,1.22-.23,1.76-2.47,4.29-10.8,19.11-14.16,29.95-.11.36-.45.6-.81.6Z"/>
        <path class="cls-4" d="m93.41,69.83c-.34,0-.62-.27-.64-.61-.01-.35.26-.65.61-.66,2.6-.11,6.6-.15,8.42-.04.35.02.62.32.6.68-.02.35-.33.61-.68.6-1.77-.11-5.72-.07-8.29.04,0,0-.02,0-.03,0Z"/>
        <path class="cls-4" d="m67.98,57.13c-.34,0-.66-.2-.79-.54l-1.28-3.21c-.4-1-.12-2.15.69-2.87l3.1-2.73c.65-.57,1.37-1.06,2.15-1.45l3.32-1.68c.42-.21.93-.04,1.14.38.21.42.04.93-.38,1.14l-3.33,1.68c-.64.33-1.25.73-1.79,1.21l-3.1,2.73c-.27.24-.36.63-.23.96l1.28,3.21c.17.44-.04.93-.47,1.1-.1.04-.21.06-.32.06Z"/>
        <path class="cls-4" d="m67.96,87.09c-.4,0-.75-.28-.83-.68-1.64-8.19-2.91-22.7-3.26-26.95-.08-.96.38-1.87,1.2-2.38l5.33-3.3c.4-.25.92-.12,1.17.27.25.4.12.92-.27,1.17l-5.33,3.3c-.28.17-.43.47-.4.79.35,4.23,1.61,18.66,3.23,26.75.09.46-.21.91-.67,1-.06.01-.11.02-.17.02Z"/>
        <path class="cls-4" d="m100.53,115.76c-1.21,0-2.3-.84-2.58-2.06-.38-1.68-.73-3.57-.96-4.85-.1-.56.03-1.13.36-1.59s.83-.76,1.4-.84c1.74-.24,6.06-.84,8.66-1.14.34-.04.67.21.71.56.04.35-.21.67-.56.71-2.59.29-6.89.89-8.62,1.13-.22.03-.41.15-.54.33-.13.18-.18.4-.14.61.23,1.27.58,3.13.95,4.8.16.69.83,1.15,1.54,1.05,2.15-.33,5.81-.9,8.7-1.38.34-.06.68.18.73.52.06.35-.18.68-.52.73-2.89.48-6.56,1.05-8.71,1.38-.13.02-.27.03-.4.03Z"/>
        <path class="cls-4" d="m105.71,66.07s-.06,0-.09,0c-.39-.05-.67-.4-.62-.79.77-6.41,5.1-10.92,8.98-12.07.38-.11.77.1.88.48s-.1.77-.48.88c-3.44,1.02-7.28,5.08-7.98,10.88-.04.36-.35.62-.7.62Z"/>
        <path class="cls-4" d="m119.62,80.79c-3.66,0-5.1-3.44-6.08-5.76-.33-.79-.64-1.53-.96-2-1.18-1.73-.75-3.75-.32-5.7.2-.91.38-1.76.41-2.57.02-.73-.04-1.41-.11-2.13-.17-1.79-.35-3.64.88-6.07,1.15-2.28.93-7.01.79-10.14v-.24c-.08-1.52,1-2.86,2.49-3.12.84-.15,1.71.07,2.39.59s1.1,1.31,1.16,2.17c.13,1.7.27,4.22.24,6.57,2.04-2.26,5.61-6.21,7.39-6.9,1.12-.43,2.26-.21,2.98.59.67.74.83,1.82.38,2.69-.46.91-1.02,1.59-1.56,2.25-.17.21-.35.43-.53.65-.29.37-.82.44-1.19.15-.37-.29-.44-.82-.15-1.19.18-.24.37-.46.56-.69.5-.61.98-1.2,1.36-1.94.12-.24.07-.56-.13-.78-.25-.27-.64-.32-1.1-.15-.76.3-2.96,2.17-6.65,6.46-.48.56-1.24.76-1.93.5-.69-.26-1.14-.91-1.13-1.66.03-2.29-.11-4.76-.24-6.43-.03-.38-.21-.72-.51-.95-.3-.23-.67-.33-1.05-.26-.66.12-1.13.7-1.1,1.37v.24c.17,3.31.4,8.31-.96,10.99-1.01,1.99-.87,3.45-.71,5.14.07.74.14,1.51.12,2.34-.03.96-.24,1.93-.44,2.87-.36,1.67-.71,3.25.07,4.38.42.61.76,1.43,1.13,2.3,1.24,2.95,2.33,5.02,5.07,4.69,1.5-.18,2.72-.86,3.61-2.02,1.76-2.28,2.3-6.34,1.56-11.76-.06-.47.26-.89.73-.96.46-.07.89.26.96.73.8,5.87.14,10.38-1.9,13.03-1.18,1.53-2.78,2.43-4.75,2.67-.26.03-.52.05-.76.05Z"/>
        <path class="cls-4" d="m122.87,74.67c-.95,0-1.97-.63-2.8-1.79-.34-.47-.8-.77-1.27-.81-.51-.05-1.03.18-1.56.68-.34.32-.88.31-1.2-.03-.32-.34-.31-.88.03-1.2,1.12-1.07,2.2-1.21,2.89-1.14.96.09,1.87.65,2.5,1.52.57.79,1.27,1.24,1.6,1.02.34-.22.36-.56.22-3.25l-.03-.53c-.15-2.93,1.8-4.26,4.06-5.8.74-.51,1.58-1.08,2.43-1.76.6-.49,1.15-.91,1.64-1.29,2.25-1.75,2.58-2.11,2.3-2.54-.08-.13-.53-.45-2.91.67-1.41.66-3.04,1.75-4.61,2.81l-.73.49c-.39.26-.92.15-1.18-.24-.26-.39-.15-.92.24-1.18l.72-.48c1.62-1.09,3.31-2.22,4.84-2.94,1.17-.55,3.92-1.84,5.07-.04,1.15,1.81-.38,3-2.69,4.8-.48.37-1.02.79-1.62,1.27-.9.72-1.77,1.32-2.54,1.84-2.31,1.58-3.41,2.42-3.32,4.31l.03.53c.16,3.05.2,3.97-.99,4.76-.35.23-.73.34-1.12.34Z"/>
        <path class="cls-4" d="m127.23,60.27c-.18,0-.35-.05-.5-.17-.38-.28-.46-.81-.18-1.19.7-.94,1.51-1.99,2.33-3.05,1.24-1.61,2.53-3.27,3.39-4.53.79-1.15,1.14-1.91,1.07-2.26,0-.04-.04-.17-.34-.35-.65-.38-1.64.6-2.97,2.03l-.38.41c-2.29,2.44-5.18,5.85-6.3,7.28-.29.37-.82.43-1.19.14-.37-.29-.43-.83-.14-1.19,1.14-1.45,4.08-4.92,6.4-7.39l.37-.4c1.5-1.62,3.21-3.45,5.08-2.34.62.37,1,.86,1.13,1.45.23,1.04-.36,2.19-1.33,3.59-.89,1.3-2.19,2.98-3.45,4.61-.81,1.05-1.62,2.09-2.31,3.02-.17.23-.42.34-.68.34Z"/>
        <path class="cls-4" d="m118.6,101.12c-1.23,0-2.46-.22-3.69-.65-5.07-1.8-8.28-5.96-9.3-12.03-.49-2.9-.45-4.91.12-6.92.38-1.32.08-3.29-.42-6.55-.14-.9-.29-1.89-.45-3-.07-.46.26-.9.72-.96.47-.07.9.26.96.72.16,1.1.31,2.09.44,2.98.53,3.49.86,5.6.38,7.28-.5,1.75-.52,3.54-.08,6.17.91,5.43,3.74,9.13,8.19,10.71,2.41.86,4.79.73,7.06-.38,2.89-1.41,4.86-4.1,5.54-6.13,1.14-3.43.45-5.92-.17-8.12l-.19-.67c-.24-.89-.3-2.36-.37-4.23-.13-3.47-.32-8.22-1.77-12.25-.16-.44.07-.93.51-1.09.44-.16.93.07,1.09.51,1.55,4.28,1.73,9.18,1.87,12.76.07,1.69.12,3.15.31,3.85l.18.66c.65,2.31,1.45,5.19.14,9.11-.73,2.2-2.85,5.39-6.41,7.12-1.5.73-3.09,1.1-4.69,1.1Z"/>
        <path class="cls-4" d="m112.45,87.09s-.09,0-.14-.01c-.46-.07-.78-.51-.71-.97.43-2.65,1.23-12.8,1.24-12.9.04-.47.43-.83.91-.78.47.04.82.44.78.91-.14,1.82-.55,7.36,1.83,9.94.87.95,2.04,1.42,3.56,1.43,1.56.03,2.65-.47,3.48-1.46,1.88-2.24,1.63-6.43,1.39-7.72-.08-.46.22-.91.68-.99.46-.09.91.22.99.68.29,1.61.55,6.37-1.76,9.12-1.16,1.38-2.78,2.07-4.8,2.06-1.99-.02-3.61-.68-4.8-1.98-.55-.6-1-1.32-1.36-2.17-.17,1.73-.34,3.27-.47,4.11-.07.42-.43.72-.84.72Z"/>
        <path class="cls-4" d="m119.09,93.04c-.35,0-.64-.29-.64-.64v-6.91c0-.35.29-.64.64-.64s.64.29.64.64v6.91c0,.35-.29.64-.64.64Z"/>
        <path class="cls-4" d="m85.49,73.7c-.44,0-.81-.34-.85-.79-.34-4.56-1.07-12.87-1.36-16.23-.08-.92.08-1.86.48-2.7.49-1.04,1.45-3.16,2.41-5.63.17-.44.67-.66,1.1-.49.44.17.66.66.49,1.1-.93,2.4-1.85,4.45-2.46,5.74-.27.57-.38,1.21-.33,1.83.3,3.36,1.03,11.68,1.37,16.25.04.47-.32.88-.79.91-.02,0-.04,0-.06,0Z"/>
        <path class="cls-4" d="m77.76,110.19s-.1,0-.15,0c-.71-.04-1.37-.39-1.81-.95-1.42-1.81-2.42-3.64-3.01-4.85-.47-.96-.72-2.04-.72-3.11.04-25.65,6.49-43.1,7.79-46.34.17-.42.26-.87.26-1.33v-4.96c0-.47.38-.85.85-.85s.85.38.85.85v4.96c0,.67-.13,1.33-.38,1.96-1.27,3.19-7.63,20.36-7.67,45.71,0,.81.19,1.63.54,2.36.56,1.14,1.5,2.85,2.83,4.55.18.24.43.29.56.29.24.02.46-.07.62-.24.76-.76,1.55-1.73,2.37-2.87.27-.38.8-.47,1.19-.2.38.27.47.8.2,1.19-.87,1.22-1.73,2.25-2.55,3.08-.47.48-1.11.74-1.78.74Z"/>
        <path class="cls-4" d="m85.21,93.86c-.35,0-.66-.26-.7-.62-.05-.39.23-.74.61-.79l2.18-.28c.38-.05.74.23.79.61.05.39-.23.74-.61.79l-2.18.28s-.06,0-.09,0Z"/>
        <path class="cls-4" d="m85.49,111.23c-.35,0-.66-.26-.7-.62-.05-.39.23-.74.61-.79l2.18-.28c.38-.05.74.22.79.61.05.39-.23.74-.61.79l-2.18.28s-.06,0-.09,0Z"/>
        <g>
          <ellipse class="cls-4" cx="65.77" cy="93.71" rx="1.11" ry=".94" transform="translate(-36.44 145.29) rotate(-81.71)"/>
          <path class="cls-4" d="m65.73,95.53c-.07,0-.14,0-.22-.02-.9-.13-1.52-1.05-1.37-2.04.07-.46.29-.87.62-1.17.36-.32.82-.47,1.28-.4.45.07.86.34,1.11.75.23.38.33.84.26,1.3-.13.91-.86,1.58-1.68,1.58Zm.09-2.22s-.09.04-.12.06c-.08.07-.14.19-.16.31-.04.24.08.42.17.44.09.01.25-.13.29-.37.02-.13,0-.25-.06-.34-.02-.03-.06-.08-.11-.09,0,0,0,0-.01,0Z"/>
        </g>
        <g>
          <ellipse class="cls-4" cx="63.76" cy="111.63" rx="1.11" ry=".94" transform="translate(-55.89 158.64) rotate(-81.71)"/>
          <path class="cls-4" d="m63.72,113.45c-.07,0-.14,0-.22-.02-.45-.07-.86-.34-1.11-.75-.23-.38-.33-.84-.26-1.3.07-.51.34-.97.73-1.26.34-.26.75-.36,1.17-.31.45.07.86.34,1.11.75.23.38.33.84.26,1.3-.07.46-.29.88-.62,1.17-.3.27-.68.41-1.06.41Zm.09-2.22s-.07.02-.1.04c-.09.07-.16.19-.18.33-.02.13,0,.25.06.34.02.03.06.08.11.09.06,0,.11-.04.13-.06.08-.07.14-.18.16-.31.02-.13,0-.25-.06-.34-.02-.03-.06-.08-.11-.09,0,0,0,0-.01,0Z"/>
        </g>
        <path class="cls-4" d="m67.5,115.62c-.42,0-.78-.31-.84-.73-.06-.47.26-.89.73-.96,2.73-.38,10.57-1.37,13.99-1.76.46-.05.89.28.94.75.05.47-.28.89-.75.94-3.41.39-11.23,1.38-13.95,1.76-.04,0-.08,0-.12,0Z"/>
        <path class="cls-4" d="m66.9,122.66c-.42,0-.78-.31-.84-.73-.07-.46.26-.9.72-.96,0,0,2.37-.34,4.76-.63.47-.06.89.27.95.74.06.47-.27.89-.74.95-2.37.29-4.72.62-4.72.62-.04,0-.08,0-.12,0Z"/>
        <path class="cls-4" d="m73.15,122.52c-.83,0-1.63-.3-2.26-.84-.75-.65-1.19-1.6-1.19-2.6,0-1.86.07-3.95.09-4.76.02-.47.43-.83.88-.82.47.02.84.41.82.88-.03.8-.09,2.86-.09,4.7,0,.51.22.98.6,1.32.38.33.89.48,1.4.41l8.33-1.2c.47-.07.9.26.96.72.07.46-.26.9-.72.96l-8.33,1.2c-.16.02-.33.04-.49.04Z"/>
        <path class="cls-4" d="m73.94,119.99c-.43,0-.85-.15-1.18-.44-.38-.33-.61-.81-.62-1.32v-.51q-.02-.18-.01-.31c.02-.9.61-1.57,1.42-1.68l7.83-1.09c.38-.06.75.22.8.6.05.39-.22.75-.6.8l-7.83,1.09c-.11.02-.19.11-.2.22q0,.19,0,.33v.52c.01.15.09.24.14.28.05.04.15.11.3.09l7.62-.93c.38-.05.74.23.79.62s-.23.74-.62.79l-7.62.93c-.07,0-.14.01-.22.01Z"/>
        <path class="cls-4" d="m71.42,147.32s-.1,0-.15-.02c-2.17-.47-5-.61-8.42-.44-.39.03-.72-.28-.75-.67-.02-.39.28-.72.67-.74,3.54-.19,6.5-.03,8.79.47.38.08.63.46.54.84-.07.33-.37.56-.69.56Z"/>
        <path class="cls-4" d="m55.14,181.14s-.05,0-.08,0c-.39-.04-.67-.4-.62-.78,1.09-9.65,3.85-21.47,5.97-29.68.1-.38.49-.61.86-.51.38.1.61.48.51.86-2.11,8.17-4.86,19.91-5.94,29.48-.04.36-.35.63-.7.63Z"/>
        <path class="cls-4" d="m96.47,182.16c-.38,0-.69-.3-.71-.68-.32-7.61-.09-31.06,0-36.23,0-.39.32-.7.71-.7h.01c.39,0,.7.33.7.72-.09,5.16-.32,28.56,0,36.14.02.39-.29.72-.68.74,0,0-.02,0-.03,0Z"/>
        <path class="cls-4" d="m95.69,19.04c-.18,0-.36-.07-.5-.21-.19-.19-.45-.32-.76-.37-.56-.1-1.46-.2-2.86.06-.39.07-.75-.18-.83-.56-.07-.38.18-.76.56-.83,1.81-.34,2.98-.14,3.37-.07.6.1,1.12.37,1.52.77.28.28.28.73,0,1-.14.14-.32.21-.5.21Z"/>
        <path class="cls-4" d="m79.15,18.61c-.22,0-.43-.1-.57-.29-.23-.31-.17-.76.15-.99.44-.33,1.01-.51,1.7-.54.64-.04,1.78-.01,3.06.16.39.05.66.41.61.79s-.41.66-.79.61c-1.53-.2-2.61-.16-2.81-.15-.4.02-.72.11-.93.27-.13.09-.27.14-.42.14Z"/>
        <ellipse class="cls-4" cx="82.31" cy="21.17" rx="1.23" ry="1.05" transform="translate(52.26 100.67) rotate(-83.72)"/>
        <ellipse class="cls-4" cx="92.76" cy="21.34" rx="1.23" ry="1.05" transform="translate(61.39 111.21) rotate(-83.72)"/>
        <ellipse class="cls-4" cx="87.23" cy="31.42" rx="1.37" ry="1.11" transform="translate(46.46 114.68) rotate(-83.72)"/>
        <circle class="cls-4" cx="87.38" cy="26.68" r=".72"/>
        <circle class="cls-4" cx="122.82" cy="89.28" r=".98"/>
        <circle class="cls-4" cx="122.82" cy="92.56" r=".98"/>
        <path class="cls-4" d="m86.69,35.22c-.22,0-.41-.01-.56-.04-.35-.05-.59-.37-.54-.72.05-.35.38-.59.72-.54.29.04.85.04,1.44-.1.34-.08.69.13.77.47.08.34-.13.69-.47.77-.49.12-.97.16-1.36.16Z"/>
      </g>
    </g>
  </g>
  <g id="_アイコン" data-name="アイコン">
    <g>
      <g>
        <path class="cls-2" d="m123.26,29.09l5.8-5.89c1.04-1.06.97-2.78-.16-3.75h0c-1.13-.97-2.84-.77-3.72.42l-4.92,6.65c-.62.84-.49,2.01.31,2.69h0c.79.68,1.97.62,2.7-.12Z"/>
        <path class="cls-3" d="m121.84,30.41c-.63,0-1.26-.21-1.77-.65-1.08-.92-1.27-2.54-.42-3.69l4.92-6.65c.54-.73,1.37-1.21,2.28-1.32.91-.1,1.82.18,2.52.77.69.59,1.11,1.45,1.15,2.37.04.91-.3,1.81-.94,2.46l-5.8,5.89c-.53.54-1.23.81-1.94.81Zm5.39-10.84c-.07,0-.14,0-.21.01-.51.06-.96.32-1.26.73l-4.92,6.65c-.39.52-.3,1.26.19,1.68.49.42,1.24.39,1.69-.07h0s5.8-5.89,5.8-5.89c.36-.36.54-.85.52-1.36-.02-.51-.25-.98-.64-1.31-.33-.29-.75-.44-1.18-.44Z"/>
      </g>
      <g>
        <circle class="cls-2" cx="117.43" cy="32.87" r="2.12"/>
        <path class="cls-3" d="m117.42,35.73c-.68,0-1.33-.24-1.86-.69-.58-.5-.94-1.19-1-1.95-.06-.76.18-1.5.68-2.08.5-.58,1.19-.94,1.95-1,.76-.06,1.5.18,2.08.68,1.2,1.03,1.34,2.84.32,4.04-.5.58-1.19.94-1.95,1-.08,0-.15,0-.23,0Zm0-4.25s-.07,0-.11,0c-.37.03-.71.2-.95.48-.24.28-.36.64-.33,1.01.03.37.2.7.48.94.28.24.65.36,1.01.33.37-.03.71-.2.95-.48.5-.58.43-1.46-.15-1.95-.25-.22-.57-.33-.9-.33Z"/>
      </g>
    </g>
    <g>
      <path class="cls-6" d="m18.27,136.25l-9.18.73c-1.35.11-2.57.87-3.26,2.04l-4.66,7.94c-.84,1.43.28,3.2,1.92,3.07l4.75-.38-.11.07,2.75,4.39c.64,1.02,1.86,1.52,3.03,1.24.95-.23,2.21-.71,3.76-1.68s2.53-1.89,3.16-2.64c.77-.93.85-2.24.21-3.27l-2.75-4.39-.11.07,2.41-4.11c.84-1.43-.28-3.2-1.92-3.07Z"/>
      <path class="cls-3" d="m2.93,150.93c-1.01,0-1.94-.51-2.49-1.38-.58-.93-.6-2.1-.04-3.05l4.66-7.94c.83-1.42,2.31-2.35,3.96-2.48l9.18-.73c1.1-.09,2.14.44,2.72,1.37s.6,2.1.04,3.04l-4.66,7.94c-.83,1.42-2.31,2.35-3.96,2.48l-9.18.73c-.08,0-.16,0-.23,0Zm15.5-13.79s-.06,0-.1,0l-9.18.73c-1.06.08-2.02.68-2.56,1.6l-4.66,7.94c-.22.38-.21.82.02,1.19s.64.57,1.07.54h0l9.18-.73c1.06-.08,2.02-.68,2.56-1.6l4.66-7.94c.22-.38.22-.82-.02-1.19-.21-.34-.57-.54-.97-.54Z"/>
      <path class="cls-3" d="m12.86,156.32c-1.25,0-2.44-.64-3.13-1.73l-2.75-4.39c-.26-.42-.13-.97.28-1.23.42-.26.97-.14,1.23.28l2.75,4.39c.44.7,1.27,1.04,2.06.84,1.06-.26,2.23-.79,3.49-1.57,1.26-.79,2.25-1.61,2.94-2.45.52-.63.58-1.53.14-2.22l-2.75-4.39c-.26-.42-.13-.97.28-1.23.42-.26.97-.13,1.23.28l2.75,4.39c.84,1.35.73,3.08-.28,4.31-.82.99-1.95,1.94-3.37,2.83-1.42.89-2.77,1.49-4.02,1.79-.29.07-.58.1-.87.1Z"/>
      <path class="cls-3" d="m23.1,144.63c-.22,0-.43-.11-.56-.31l-2.91-4.65c-.19-.31-.1-.71.21-.91.31-.19.72-.1.91.21l2.91,4.65c.19.31.1.71-.21.91-.11.07-.23.1-.35.1Z"/>
      <path class="cls-3" d="m24.41,147.99c-.08,0-.15-.01-.23-.04-.19-.07-.34-.22-.4-.42l-.83-2.61c-.09-.29.02-.6.28-.76.25-.16.58-.13.8.08l1.98,1.88c.15.14.22.34.2.54-.02.2-.13.38-.31.49l-.58.36h0l-.58.36c-.11.07-.23.1-.35.1Zm.58-1.02h0,0Z"/>
      <path class="cls-3" d="m23.11,145.52c-.52,0-1.03-.26-1.32-.73-.22-.35-.29-.77-.2-1.18.09-.4.34-.75.69-.97.35-.22.77-.29,1.18-.2.4.09.75.34.97.69h0c.46.73.23,1.69-.49,2.15-.26.16-.54.24-.82.24Zm0-1.8s-.08,0-.13.04c-.07.05-.1.11-.11.15,0,.04-.01.11.03.18.07.11.22.15.33.08.11-.07.15-.22.08-.33h0c-.04-.07-.11-.1-.15-.11-.01,0-.03,0-.05,0Z"/>
    </g>
  </g>
</svg>