<?xml version="1.0" encoding="UTF-8"?>
<svg id="Layer_2" data-name="Layer 2" xmlns="http://www.w3.org/2000/svg" viewBox="0 0 14.01 14.01">
  <defs>
    <style>
      .cls-1 {
        fill: #565656;
      }

      .cls-2 {
        fill: #d5d5d5;
      }
    </style>
  </defs>
  <g id="_アイコン" data-name="アイコン">
    <g>
      <rect class="cls-2" x="2.11" y="2.11" width="9.79" height="9.79" rx="1.79" ry="1.79" transform="translate(-2.85 6.03) rotate(-39.32)"/>
      <path class="cls-1" d="m6.58,14.01c-.09,0-.18,0-.27-.01-.7-.07-1.34-.41-1.78-.96L.6,8.25C.15,7.7-.06,7.01.01,6.31c.07-.7.41-1.34.96-1.78L5.77.6C6.31.15,7-.06,7.7.01c.7.07,1.34.41,1.78.96l3.93,4.8c.45.55.65,1.23.58,1.94-.07.7-.41,1.34-.96,1.78l-4.8,3.93c-.48.39-1.06.6-1.67.6Zm.86-12.31c-.22,0-.42.07-.59.21l-4.8,3.93c-.19.16-.32.39-.34.64-.02.25.05.5.21.69l3.93,4.8c.16.19.38.32.63.34.25.03.5-.05.69-.21l4.8-3.93h0c.19-.16.32-.39.34-.64.02-.25-.05-.5-.21-.69l-3.93-4.8c-.16-.19-.38-.32-.63-.34-.03,0-.06,0-.09,0Z"/>
    </g>
  </g>
</svg>