<?xml version="1.0" encoding="UTF-8"?>
<svg id="Layer_2" data-name="Layer 2" xmlns="http://www.w3.org/2000/svg" xmlns:xlink="http://www.w3.org/1999/xlink" viewBox="0 0 155.33 199.58">
  <defs>
    <style>
      .cls-1 {
        fill: #fff;
      }

      .cls-2 {
        fill: #565656;
      }

      .cls-3 {
        fill: #363636;
      }

      .cls-4 {
        fill: #33b0da;
      }

      .cls-5 {
        fill: #ffdfbc;
      }

      .cls-6 {
        fill: #ffd964;
      }

      .cls-7 {
        clip-path: url(#clippath);
      }

      .cls-8 {
        fill: #d5d5d5;
      }

      .cls-9 {
        fill: none;
      }
    </style>
    <clipPath id="clippath">
      <path class="cls-9" d="m70.58,65.47c.43-4.04,1.97-10.04,1.97-10.04,0,0-1.4-2.57-2.09-3.99,0,0,1.49-3.18,3.28-3.68s3.94,2.27,3.94,2.27c0,0-.64,3.31-.97,5.2,0,0,2.02,5.21,2.63,8.22l-4.22,8.94-4.55-6.93Z"/>
    </clipPath>
  </defs>
  <g id="_背景ドット" data-name="背景ドット">
    <g>
      <circle class="cls-1" cx="56.78" cy="104.63" r=".59"/>
      <path class="cls-1" d="m58.2,101.16c0,.33.27.59.59.59.17,0,.32-.07.42-.18-.04-.31-.08-.61-.12-.92-.09-.05-.19-.09-.3-.09-.33,0-.59.27-.59.59Z"/>
      <path class="cls-1" d="m58.79,107.52c-.33,0-.59.27-.59.59s.27.59.59.59c.23,0,.41-.13.51-.31.02-.16.02-.33.04-.49-.08-.22-.3-.39-.55-.39Z"/>
      <path class="cls-1" d="m52.77,90.14c-.33,0-.59.27-.59.59s.27.59.59.59.59-.27.59-.59-.27-.59-.59-.59Z"/>
      <path class="cls-1" d="m52.77,97.09c-.33,0-.59.27-.59.59s.27.59.59.59.59-.27.59-.59-.27-.59-.59-.59Z"/>
      <path class="cls-1" d="m54.78,93.61c-.33,0-.59.27-.59.59s.27.59.59.59.59-.27.59-.59-.27-.59-.59-.59Z"/>
      <circle class="cls-1" cx="54.78" cy="101.16" r=".59"/>
      <circle class="cls-1" cx="56.78" cy="97.68" r=".59"/>
      <circle class="cls-1" cx="54.78" cy="108.11" r=".59"/>
      <path class="cls-1" d="m56.66,117.97c-.27.06-.47.28-.47.57,0,.09.03.18.07.26.14-.27.27-.55.4-.83Z"/>
      <path class="cls-1" d="m54.18,115.06c0,.33.27.59.59.59s.59-.27.59-.59-.27-.59-.59-.59-.59.27-.59.59Z"/>
      <circle class="cls-1" cx="56.78" cy="111.59" r=".59"/>
      <path class="cls-1" d="m54.18,122.01c0,.08.02.15.04.22.18-.27.36-.54.53-.81-.32.01-.57.27-.57.59Z"/>
      <circle class="cls-1" cx="48.76" cy="83.78" r=".59"/>
      <path class="cls-1" d="m48.76,90.14c-.33,0-.59.27-.59.59s.27.59.59.59.59-.27.59-.59-.27-.59-.59-.59Z"/>
      <path class="cls-1" d="m50.76,87.85c.33,0,.59-.27.59-.59s-.27-.59-.59-.59-.59.27-.59.59.27.59.59.59Z"/>
      <path class="cls-1" d="m51.36,94.21c0-.33-.27-.59-.59-.59s-.59.27-.59.59.27.59.59.59.59-.27.59-.59Z"/>
      <circle class="cls-1" cx="48.76" cy="104.63" r=".59"/>
      <path class="cls-1" d="m50.76,101.75c.33,0,.59-.27.59-.59s-.27-.59-.59-.59-.59.27-.59.59.27.59.59.59Z"/>
      <circle class="cls-1" cx="48.76" cy="111.59" r=".59"/>
      <path class="cls-1" d="m50.17,108.11c0,.33.27.59.59.59s.59-.27.59-.59-.27-.59-.59-.59-.59.27-.59.59Z"/>
      <path class="cls-1" d="m52.77,105.23c.33,0,.59-.27.59-.59s-.27-.59-.59-.59-.59.27-.59.59.27.59.59.59Z"/>
      <path class="cls-1" d="m48.76,117.94c-.33,0-.59.27-.59.59s.27.59.59.59.59-.27.59-.59-.27-.59-.59-.59Z"/>
      <path class="cls-1" d="m50.17,115.06c0,.33.27.59.59.59s.59-.27.59-.59-.27-.59-.59-.59-.59.27-.59.59Z"/>
      <path class="cls-1" d="m52.77,112.18c.33,0,.59-.27.59-.59s-.27-.59-.59-.59-.59.27-.59.59.27.59.59.59Z"/>
      <circle class="cls-1" cx="48.76" cy="125.49" r=".59"/>
      <path class="cls-1" d="m50.76,121.42c-.33,0-.59.27-.59.59s.27.59.59.59.59-.27.59-.59-.27-.59-.59-.59Z"/>
      <path class="cls-1" d="m52.77,119.13c.33,0,.59-.27.59-.59s-.27-.59-.59-.59-.59.27-.59.59.27.59.59.59Z"/>
      <path class="cls-1" d="m44.74,83.18c-.33,0-.59.27-.59.59s.27.59.59.59.59-.27.59-.59-.27-.59-.59-.59Z"/>
      <path class="cls-1" d="m46.75,80.9s0,0,0,0c-.18-.13-.37-.26-.55-.39.08.23.3.39.55.39Z"/>
      <path class="cls-1" d="m47.34,87.25c0-.33-.27-.59-.59-.59s-.59.27-.59.59.27.59.59.59.59-.27.59-.59Z"/>
      <path class="cls-1" d="m44.74,97.09c-.33,0-.59.27-.59.59s.27.59.59.59.59-.27.59-.59-.27-.59-.59-.59Z"/>
      <path class="cls-1" d="m46.75,94.8c.33,0,.59-.27.59-.59s-.27-.59-.59-.59-.59.27-.59.59.27.59.59.59Z"/>
      <path class="cls-1" d="m44.74,104.04c-.33,0-.59.27-.59.59s.27.59.59.59.59-.27.59-.59-.27-.59-.59-.59Z"/>
      <path class="cls-1" d="m47.34,101.16c0-.33-.27-.59-.59-.59s-.59.27-.59.59.27.59.59.59.59-.27.59-.59Z"/>
      <circle class="cls-1" cx="48.76" cy="97.68" r=".59"/>
      <path class="cls-1" d="m44.74,110.99c-.33,0-.59.27-.59.59s.27.59.59.59.59-.27.59-.59-.27-.59-.59-.59Z"/>
      <path class="cls-1" d="m46.16,108.11c0,.33.27.59.59.59s.59-.27.59-.59-.27-.59-.59-.59-.59.27-.59.59Z"/>
      <path class="cls-1" d="m44.74,117.94c-.33,0-.59.27-.59.59s.27.59.59.59.59-.27.59-.59-.27-.59-.59-.59Z"/>
      <path class="cls-1" d="m46.16,115.06c0,.33.27.59.59.59s.59-.27.59-.59-.27-.59-.59-.59-.59.27-.59.59Z"/>
      <path class="cls-1" d="m44.74,124.9c-.33,0-.59.27-.59.59s.27.59.59.59.59-.27.59-.59-.27-.59-.59-.59Z"/>
      <path class="cls-1" d="m46.16,122.01c0,.33.27.59.59.59s.59-.27.59-.59-.27-.59-.59-.59-.59.27-.59.59Z"/>
      <path class="cls-1" d="m46.16,128.96c0,.33.27.59.59.59s.59-.27.59-.59-.27-.59-.59-.59-.59.27-.59.59Z"/>
      <circle class="cls-1" cx="42.74" cy="80.3" r=".59"/>
      <path class="cls-1" d="m40.73,90.14c-.33,0-.59.27-.59.59s.27.59.59.59.59-.27.59-.59-.27-.59-.59-.59Z"/>
      <circle class="cls-1" cx="42.74" cy="87.25" r=".59"/>
      <circle class="cls-1" cx="40.73" cy="97.68" r=".59"/>
      <path class="cls-1" d="m43.33,94.21c0-.33-.27-.59-.59-.59s-.59.27-.59.59.27.59.59.59.59-.27.59-.59Z"/>
      <path class="cls-1" d="m44.74,91.32c.33,0,.59-.27.59-.59s-.27-.59-.59-.59-.59.27-.59.59.27.59.59.59Z"/>
      <circle class="cls-1" cx="42.74" cy="101.16" r=".59"/>
      <circle class="cls-1" cx="42.74" cy="108.11" r=".59"/>
      <path class="cls-1" d="m42.14,115.06c0,.33.27.59.59.59s.59-.27.59-.59-.27-.59-.59-.59-.59.27-.59.59Z"/>
      <circle class="cls-1" cx="42.74" cy="122.01" r=".59"/>
      <circle class="cls-1" cx="42.74" cy="128.96" r=".59"/>
      <path class="cls-1" d="m41.32,132.44c0-.33-.27-.59-.59-.59s-.59.27-.59.59.27.59.59.59c.06,0,.11-.02.16-.03.04-.02.08-.03.12-.05.18-.1.31-.29.31-.51Z"/>
      <path class="cls-1" d="m36.72,83.18c-.33,0-.59.27-.59.59s.27.59.59.59.59-.27.59-.59-.27-.59-.59-.59Z"/>
      <path class="cls-1" d="m38.72,80.9c.33,0,.59-.27.59-.59s-.27-.59-.59-.59-.59.27-.59.59.27.59.59.59Z"/>
      <path class="cls-1" d="m36.72,90.14c-.33,0-.59.27-.59.59s.27.59.59.59.59-.27.59-.59-.27-.59-.59-.59Z"/>
      <path class="cls-1" d="m39.32,87.25c0-.33-.27-.59-.59-.59s-.59.27-.59.59.27.59.59.59.59-.27.59-.59Z"/>
      <circle class="cls-1" cx="40.73" cy="83.78" r=".59"/>
      <path class="cls-1" d="m36.72,97.09c-.33,0-.59.27-.59.59s.27.59.59.59.59-.27.59-.59-.27-.59-.59-.59Z"/>
      <path class="cls-1" d="m39.32,94.21c0-.33-.27-.59-.59-.59s-.59.27-.59.59.27.59.59.59.59-.27.59-.59Z"/>
      <path class="cls-1" d="m36.72,104.04c-.33,0-.59.27-.59.59s.27.59.59.59.59-.27.59-.59-.27-.59-.59-.59Z"/>
      <path class="cls-1" d="m39.32,101.16c0-.33-.27-.59-.59-.59s-.59.27-.59.59.27.59.59.59.59-.27.59-.59Z"/>
      <path class="cls-1" d="m36.72,110.99c-.33,0-.59.27-.59.59s.27.59.59.59.59-.27.59-.59-.27-.59-.59-.59Z"/>
      <path class="cls-1" d="m38.13,108.11c0,.33.27.59.59.59s.59-.27.59-.59-.27-.59-.59-.59-.59.27-.59.59Z"/>
      <circle class="cls-1" cx="40.73" cy="104.63" r=".59"/>
      <path class="cls-1" d="m36.72,117.94c-.33,0-.59.27-.59.59s.27.59.59.59.59-.27.59-.59-.27-.59-.59-.59Z"/>
      <path class="cls-1" d="m38.13,115.06c0,.33.27.59.59.59s.59-.27.59-.59-.27-.59-.59-.59-.59.27-.59.59Z"/>
      <circle class="cls-1" cx="40.73" cy="111.59" r=".59"/>
      <path class="cls-1" d="m36.72,124.9c-.33,0-.59.27-.59.59s.27.59.59.59.59-.27.59-.59-.27-.59-.59-.59Z"/>
      <path class="cls-1" d="m38.13,122.01c0,.33.27.59.59.59s.59-.27.59-.59-.27-.59-.59-.59-.59.27-.59.59Z"/>
      <path class="cls-1" d="m40.73,119.13c.33,0,.59-.27.59-.59s-.27-.59-.59-.59-.59.27-.59.59.27.59.59.59Z"/>
      <path class="cls-1" d="m36.72,131.85c-.33,0-.59.27-.59.59s.27.59.59.59.59-.27.59-.59-.27-.59-.59-.59Z"/>
      <path class="cls-1" d="m38.13,128.96c0,.33.27.59.59.59s.59-.27.59-.59-.27-.59-.59-.59-.59.27-.59.59Z"/>
      <circle class="cls-1" cx="40.73" cy="125.49" r=".59"/>
      <path class="cls-1" d="m36.12,76.83c0,.33.27.59.59.59s.59-.27.59-.59c0-.15-.06-.29-.16-.39-.22-.06-.43-.1-.65-.16-.22.09-.38.3-.38.55Z"/>
      <path class="cls-1" d="m32.7,76.23c-.33,0-.59.27-.59.59s.27.59.59.59.59-.27.59-.59-.27-.59-.59-.59Z"/>
      <path class="cls-1" d="m32.7,83.18c-.33,0-.59.27-.59.59s.27.59.59.59.59-.27.59-.59-.27-.59-.59-.59Z"/>
      <circle class="cls-1" cx="34.71" cy="80.3" r=".59"/>
      <path class="cls-1" d="m32.7,90.14c-.33,0-.59.27-.59.59s.27.59.59.59.59-.27.59-.59-.27-.59-.59-.59Z"/>
      <circle class="cls-1" cx="34.71" cy="87.25" r=".59"/>
      <path class="cls-1" d="m32.7,97.09c-.33,0-.59.27-.59.59s.27.59.59.59.59-.27.59-.59-.27-.59-.59-.59Z"/>
      <path class="cls-1" d="m35.3,94.21c0-.33-.27-.59-.59-.59s-.59.27-.59.59.27.59.59.59.59-.27.59-.59Z"/>
      <path class="cls-1" d="m32.7,104.04c-.33,0-.59.27-.59.59s.27.59.59.59.59-.27.59-.59-.27-.59-.59-.59Z"/>
      <circle class="cls-1" cx="34.71" cy="101.16" r=".59"/>
      <path class="cls-1" d="m32.7,110.99c-.33,0-.59.27-.59.59s.27.59.59.59.59-.27.59-.59-.27-.59-.59-.59Z"/>
      <circle class="cls-1" cx="34.71" cy="108.11" r=".59"/>
      <path class="cls-1" d="m32.7,117.94c-.33,0-.59.27-.59.59s.27.59.59.59.59-.27.59-.59-.27-.59-.59-.59Z"/>
      <path class="cls-1" d="m34.12,115.06c0,.33.27.59.59.59s.59-.27.59-.59-.27-.59-.59-.59-.59.27-.59.59Z"/>
      <path class="cls-1" d="m32.7,124.9c-.33,0-.59.27-.59.59s.27.59.59.59.59-.27.59-.59-.27-.59-.59-.59Z"/>
      <circle class="cls-1" cx="34.71" cy="122.01" r=".59"/>
      <path class="cls-1" d="m32.7,131.85c-.33,0-.59.27-.59.59s.27.59.59.59.59-.27.59-.59-.27-.59-.59-.59Z"/>
      <circle class="cls-1" cx="34.71" cy="128.96" r=".59"/>
      <circle class="cls-1" cx="28.69" cy="76.83" r=".59"/>
      <circle class="cls-1" cx="28.69" cy="83.78" r=".59"/>
      <path class="cls-1" d="m31.29,80.3c0-.33-.27-.59-.59-.59s-.59.27-.59.59.27.59.59.59.59-.27.59-.59Z"/>
      <path class="cls-1" d="m30.7,86.66c-.33,0-.59.27-.59.59s.27.59.59.59.59-.27.59-.59-.27-.59-.59-.59Z"/>
      <circle class="cls-1" cx="28.69" cy="97.68" r=".59"/>
      <path class="cls-1" d="m31.29,94.21c0-.33-.27-.59-.59-.59s-.59.27-.59.59.27.59.59.59.59-.27.59-.59Z"/>
      <circle class="cls-1" cx="28.69" cy="104.63" r=".59"/>
      <path class="cls-1" d="m31.29,101.16c0-.33-.27-.59-.59-.59s-.59.27-.59.59.27.59.59.59.59-.27.59-.59Z"/>
      <circle class="cls-1" cx="28.69" cy="111.59" r=".59"/>
      <path class="cls-1" d="m30.1,108.11c0,.33.27.59.59.59s.59-.27.59-.59-.27-.59-.59-.59-.59.27-.59.59Z"/>
      <path class="cls-1" d="m28.69,117.94c-.33,0-.59.27-.59.59s.27.59.59.59.59-.27.59-.59-.27-.59-.59-.59Z"/>
      <path class="cls-1" d="m30.1,115.06c0,.33.27.59.59.59s.59-.27.59-.59-.27-.59-.59-.59-.59.27-.59.59Z"/>
      <circle class="cls-1" cx="28.69" cy="125.49" r=".59"/>
      <path class="cls-1" d="m30.1,122.01c0,.33.27.59.59.59s.59-.27.59-.59-.27-.59-.59-.59-.59.27-.59.59Z"/>
      <circle class="cls-1" cx="28.69" cy="132.44" r=".59"/>
      <path class="cls-1" d="m30.1,128.96c0,.33.27.59.59.59s.59-.27.59-.59-.27-.59-.59-.59-.59.27-.59.59Z"/>
      <path class="cls-1" d="m24.68,76.23c-.33,0-.59.27-.59.59s.27.59.59.59.59-.27.59-.59-.27-.59-.59-.59Z"/>
      <circle class="cls-1" cx="26.68" cy="80.3" r=".59"/>
      <path class="cls-1" d="m24.68,90.14c-.33,0-.59.27-.59.59s.27.59.59.59.59-.27.59-.59-.27-.59-.59-.59Z"/>
      <circle class="cls-1" cx="26.68" cy="87.25" r=".59"/>
      <path class="cls-1" d="m24.68,97.09c-.33,0-.59.27-.59.59s.27.59.59.59.59-.27.59-.59-.27-.59-.59-.59Z"/>
      <path class="cls-1" d="m27.28,94.21c0-.33-.27-.59-.59-.59s-.59.27-.59.59.27.59.59.59.59-.27.59-.59Z"/>
      <path class="cls-1" d="m28.69,91.32c.33,0,.59-.27.59-.59s-.27-.59-.59-.59-.59.27-.59.59.27.59.59.59Z"/>
      <path class="cls-1" d="m24.68,104.04c-.33,0-.59.27-.59.59s.27.59.59.59.59-.27.59-.59-.27-.59-.59-.59Z"/>
      <circle class="cls-1" cx="26.68" cy="101.16" r=".59"/>
      <path class="cls-1" d="m24.68,110.99c-.33,0-.59.27-.59.59s.27.59.59.59.59-.27.59-.59-.27-.59-.59-.59Z"/>
      <circle class="cls-1" cx="26.68" cy="108.11" r=".59"/>
      <path class="cls-1" d="m24.68,117.94c-.33,0-.59.27-.59.59s.27.59.59.59.59-.27.59-.59-.27-.59-.59-.59Z"/>
      <path class="cls-1" d="m26.09,115.06c0,.33.27.59.59.59s.59-.27.59-.59-.27-.59-.59-.59-.59.27-.59.59Z"/>
      <path class="cls-1" d="m24.68,124.9c-.33,0-.59.27-.59.59s.27.59.59.59.59-.27.59-.59-.27-.59-.59-.59Z"/>
      <circle class="cls-1" cx="26.68" cy="122.01" r=".59"/>
      <path class="cls-1" d="m24.68,131.85c-.33,0-.59.27-.59.59s.27.59.59.59.59-.27.59-.59-.27-.59-.59-.59Z"/>
      <circle class="cls-1" cx="26.68" cy="128.96" r=".59"/>
      <circle class="cls-1" cx="20.66" cy="83.78" r=".59"/>
      <path class="cls-1" d="m22.67,80.9c.33,0,.59-.27.59-.59s-.27-.59-.59-.59-.59.27-.59.59.27.59.59.59Z"/>
      <path class="cls-1" d="m20.66,90.14c-.33,0-.59.27-.59.59s.27.59.59.59.59-.27.59-.59-.27-.59-.59-.59Z"/>
      <path class="cls-1" d="m23.26,87.25c0-.33-.27-.59-.59-.59s-.59.27-.59.59.27.59.59.59.59-.27.59-.59Z"/>
      <path class="cls-1" d="m24.68,84.37c.33,0,.59-.27.59-.59s-.27-.59-.59-.59-.59.27-.59.59.27.59.59.59Z"/>
      <circle class="cls-1" cx="20.66" cy="97.68" r=".59"/>
      <path class="cls-1" d="m23.26,94.21c0-.33-.27-.59-.59-.59s-.59.27-.59.59.27.59.59.59.59-.27.59-.59Z"/>
      <circle class="cls-1" cx="20.66" cy="104.63" r=".59"/>
      <path class="cls-1" d="m23.26,101.16c0-.33-.27-.59-.59-.59s-.59.27-.59.59.27.59.59.59.59-.27.59-.59Z"/>
      <circle class="cls-1" cx="20.66" cy="111.59" r=".59"/>
      <path class="cls-1" d="m22.07,108.11c0,.33.27.59.59.59s.59-.27.59-.59-.27-.59-.59-.59-.59.27-.59.59Z"/>
      <path class="cls-1" d="m20.66,117.94c-.33,0-.59.27-.59.59s.27.59.59.59.59-.27.59-.59-.27-.59-.59-.59Z"/>
      <path class="cls-1" d="m22.07,115.06c0,.33.27.59.59.59s.59-.27.59-.59-.27-.59-.59-.59-.59.27-.59.59Z"/>
      <circle class="cls-1" cx="20.66" cy="125.49" r=".59"/>
      <path class="cls-1" d="m22.07,122.01c0,.33.27.59.59.59s.59-.27.59-.59-.27-.59-.59-.59-.59.27-.59.59Z"/>
      <circle class="cls-1" cx="20.66" cy="132.44" r=".59"/>
      <path class="cls-1" d="m22.07,128.96c0,.33.27.59.59.59s.59-.27.59-.59-.27-.59-.59-.59-.59.27-.59.59Z"/>
      <path class="cls-1" d="m20.1,77c.08.24.29.42.56.42.33,0,.59-.27.59-.59,0-.06-.02-.12-.03-.17-.38.11-.75.23-1.12.35Z"/>
      <path class="cls-1" d="m16.65,83.18c-.33,0-.59.27-.59.59s.27.59.59.59.59-.27.59-.59-.27-.59-.59-.59Z"/>
      <path class="cls-1" d="m18.65,79.71c-.33,0-.59.27-.59.59s.27.59.59.59.59-.27.59-.59-.27-.59-.59-.59Z"/>
      <path class="cls-1" d="m16.65,90.14c-.33,0-.59.27-.59.59s.27.59.59.59.59-.27.59-.59-.27-.59-.59-.59Z"/>
      <path class="cls-1" d="m19.25,87.25c0-.33-.27-.59-.59-.59s-.59.27-.59.59.27.59.59.59.59-.27.59-.59Z"/>
      <path class="cls-1" d="m16.65,97.09c-.33,0-.59.27-.59.59s.27.59.59.59.59-.27.59-.59-.27-.59-.59-.59Z"/>
      <path class="cls-1" d="m19.25,94.21c0-.33-.27-.59-.59-.59s-.59.27-.59.59.27.59.59.59.59-.27.59-.59Z"/>
      <path class="cls-1" d="m19.25,101.16c0-.33-.27-.59-.59-.59s-.59.27-.59.59.27.59.59.59.59-.27.59-.59Z"/>
      <path class="cls-1" d="m18.06,108.11c0,.33.27.59.59.59s.59-.27.59-.59-.27-.59-.59-.59-.59.27-.59.59Z"/>
      <path class="cls-1" d="m18.06,115.06c0,.33.27.59.59.59s.59-.27.59-.59-.27-.59-.59-.59-.59.27-.59.59Z"/>
      <path class="cls-1" d="m18.06,122.01c0,.33.27.59.59.59s.59-.27.59-.59-.27-.59-.59-.59-.59.27-.59.59Z"/>
      <path class="cls-1" d="m18.06,128.96c0,.33.27.59.59.59s.59-.27.59-.59-.27-.59-.59-.59-.59.27-.59.59Z"/>
      <path class="cls-1" d="m16.65,131.85c-.18,0-.34.09-.45.21.34.17.68.33,1.02.49,0-.04.02-.07.02-.11,0-.33-.27-.59-.59-.59Z"/>
      <circle class="cls-1" cx="12.63" cy="83.78" r=".59"/>
      <path class="cls-1" d="m15.23,80.3c0-.33-.27-.59-.59-.59s-.59.27-.59.59.27.59.59.59.59-.27.59-.59Z"/>
      <path class="cls-1" d="m14.64,86.66c-.33,0-.59.27-.59.59s.27.59.59.59.59-.27.59-.59-.27-.59-.59-.59Z"/>
      <circle class="cls-1" cx="12.63" cy="97.68" r=".59"/>
      <path class="cls-1" d="m15.23,94.21c0-.33-.27-.59-.59-.59s-.59.27-.59.59.27.59.59.59.59-.27.59-.59Z"/>
      <circle class="cls-1" cx="12.63" cy="104.63" r=".59"/>
      <path class="cls-1" d="m15.23,101.16c0-.33-.27-.59-.59-.59s-.59.27-.59.59.27.59.59.59.59-.27.59-.59Z"/>
      <circle class="cls-1" cx="12.63" cy="111.59" r=".59"/>
      <path class="cls-1" d="m14.05,108.11c0,.33.27.59.59.59s.59-.27.59-.59-.27-.59-.59-.59-.59.27-.59.59Z"/>
      <path class="cls-1" d="m16.65,105.23c.33,0,.59-.27.59-.59s-.27-.59-.59-.59-.59.27-.59.59.27.59.59.59Z"/>
      <path class="cls-1" d="m12.63,117.94c-.33,0-.59.27-.59.59s.27.59.59.59.59-.27.59-.59-.27-.59-.59-.59Z"/>
      <path class="cls-1" d="m14.05,115.06c0,.33.27.59.59.59s.59-.27.59-.59-.27-.59-.59-.59-.59.27-.59.59Z"/>
      <path class="cls-1" d="m16.65,112.18c.33,0,.59-.27.59-.59s-.27-.59-.59-.59-.59.27-.59.59.27.59.59.59Z"/>
      <circle class="cls-1" cx="12.63" cy="125.49" r=".59"/>
      <path class="cls-1" d="m14.05,122.01c0,.33.27.59.59.59s.59-.27.59-.59-.27-.59-.59-.59-.59.27-.59.59Z"/>
      <path class="cls-1" d="m16.65,119.13c.33,0,.59-.27.59-.59s-.27-.59-.59-.59-.59.27-.59.59.27.59.59.59Z"/>
      <path class="cls-1" d="m14.05,128.96c0,.33.27.59.59.59s.59-.27.59-.59-.27-.59-.59-.59-.59.27-.59.59Z"/>
      <path class="cls-1" d="m16.65,126.08c.33,0,.59-.27.59-.59s-.27-.59-.59-.59-.59.27-.59.59.27.59.59.59Z"/>
      <path class="cls-1" d="m8.62,90.14c-.33,0-.59.27-.59.59s.27.59.59.59.59-.27.59-.59-.27-.59-.59-.59Z"/>
      <path class="cls-1" d="m10.63,87.85c.33,0,.59-.27.59-.59s-.27-.59-.59-.59-.59.27-.59.59.27.59.59.59Z"/>
      <path class="cls-1" d="m8.36,84.31c.08.04.17.07.26.07.33,0,.59-.27.59-.59,0-.09-.02-.17-.05-.24-.27.25-.54.51-.8.77Z"/>
      <path class="cls-1" d="m8.62,97.09c-.33,0-.59.27-.59.59s.27.59.59.59.59-.27.59-.59-.27-.59-.59-.59Z"/>
      <path class="cls-1" d="m11.22,94.21c0-.33-.27-.59-.59-.59s-.59.27-.59.59.27.59.59.59.59-.27.59-.59Z"/>
      <path class="cls-1" d="m12.63,91.32c.33,0,.59-.27.59-.59s-.27-.59-.59-.59-.59.27-.59.59.27.59.59.59Z"/>
      <path class="cls-1" d="m11.22,101.16c0-.33-.27-.59-.59-.59s-.59.27-.59.59.27.59.59.59.59-.27.59-.59Z"/>
      <path class="cls-1" d="m10.03,108.11c0,.33.27.59.59.59s.59-.27.59-.59-.27-.59-.59-.59-.59.27-.59.59Z"/>
      <path class="cls-1" d="m10.03,115.06c0,.33.27.59.59.59s.59-.27.59-.59-.27-.59-.59-.59-.59.27-.59.59Z"/>
      <path class="cls-1" d="m8.62,124.9c-.33,0-.59.27-.59.59s.27.59.59.59.59-.27.59-.59-.27-.59-.59-.59Z"/>
      <path class="cls-1" d="m10.03,122.01c0,.33.27.59.59.59s.59-.27.59-.59-.27-.59-.59-.59-.59.27-.59.59Z"/>
      <path class="cls-1" d="m10.63,128.37s-.05.01-.07.01c.21.18.44.34.66.52-.03-.3-.28-.53-.58-.53Z"/>
      <circle class="cls-1" cx="6.61" cy="87.25" r=".59"/>
      <path class="cls-1" d="m6.61,93.61c-.33,0-.59.27-.59.59s.27.59.59.59.59-.27.59-.59-.27-.59-.59-.59Z"/>
      <circle class="cls-1" cx="4.61" cy="104.63" r=".59"/>
      <circle class="cls-1" cx="6.61" cy="101.16" r=".59"/>
      <circle class="cls-1" cx="4.61" cy="111.59" r=".59"/>
      <circle class="cls-1" cx="6.61" cy="108.11" r=".59"/>
      <path class="cls-1" d="m8.62,105.23c.33,0,.59-.27.59-.59s-.27-.59-.59-.59-.59.27-.59.59.27.59.59.59Z"/>
      <path class="cls-1" d="m4.61,117.94c-.33,0-.59.27-.59.59s.27.59.59.59.59-.27.59-.59-.27-.59-.59-.59Z"/>
      <path class="cls-1" d="m6.02,115.06c0,.33.27.59.59.59s.59-.27.59-.59-.27-.59-.59-.59-.59.27-.59.59Z"/>
      <path class="cls-1" d="m8.62,112.18c.33,0,.59-.27.59-.59s-.27-.59-.59-.59-.59.27-.59.59.27.59.59.59Z"/>
      <circle class="cls-1" cx="6.61" cy="122.01" r=".59"/>
      <path class="cls-1" d="m8.62,119.13c.33,0,.59-.27.59-.59s-.27-.59-.59-.59-.59.27-.59.59.27.59.59.59Z"/>
      <path class="cls-1" d="m2.6,93.61c-.33,0-.59.27-.59.59s.27.59.59.59.59-.27.59-.59-.27-.59-.59-.59Z"/>
      <path class="cls-1" d="m4.61,91.32c.33,0,.59-.27.59-.59s-.27-.59-.59-.59-.59.27-.59.59.27.59.59.59Z"/>
      <path class="cls-1" d="m3.19,101.16c0-.33-.27-.59-.59-.59s-.59.27-.59.59.27.59.59.59.59-.27.59-.59Z"/>
      <circle class="cls-1" cx="4.61" cy="97.68" r=".59"/>
      <path class="cls-1" d="m1.19,97.68c0-.24-.14-.44-.34-.53-.11.37-.21.74-.3,1.12.02,0,.03,0,.05,0,.33,0,.59-.27.59-.59Z"/>
      <path class="cls-1" d="m2.6,108.7c.33,0,.59-.27.59-.59s-.27-.59-.59-.59-.59.27-.59.59.27.59.59.59Z"/>
      <path class="cls-1" d="m3.19,115.06c0-.33-.27-.59-.59-.59s-.59.27-.59.59.27.59.59.59.59-.27.59-.59Z"/>
      <path class="cls-1" d="m.59,105.23c.33,0,.59-.27.59-.59s-.27-.59-.59-.59-.59.27-.59.59.27.59.59.59Z"/>
      <path class="cls-1" d="m.59,112.18c.33,0,.59-.27.59-.59s-.27-.59-.59-.59c-.13,0-.24.05-.34.12.07.35.15.7.23,1.05.04,0,.07.02.11.02Z"/>
    </g>
  </g>
  <g id="_人物" data-name="人物">
    <g>
      <g>
        <path class="cls-5" d="m90.85,22.76c-.21-3.82-3.56-5.24-6.59-4.71v.5c-.19-1.06-1.15-1.8-2.25-1.72-6.78.5-7.05-5.12-7.76-7.74-.77-2.87-2.7-3.69-5.74-3.47-4.98.35-8.56,4.34-9.75,8.32-.61,2.05-.81,4.74-.65,7.68v-.04c-2.74-.26-6.04,1.32-5.7,5.66.34,4.33,5.04,6.11,7.88,5.2v-.03c.97,2.37,2.64,5.14,5.26,6.97l-.13,4.48s.6.22,4.06,2.02c3.46,1.8,4.41.63,6.99-.86,2.58-1.48,2.93-2.16,4.15-2.54l-.03-4.55c2.15-2.13,3.48-4.99,3.69-7.91.02-.25.03-.5.04-.75v.06c3.48-.26,6.73-2.74,6.52-6.56Z"/>
        <path class="cls-1" d="m99.41,84.44c3.09,5.1,7.7,11.52,16.34,11.77s12.16-6.47,14.32-10.37c2.68-4.84,5.1-8.97,6.01-10.37"/>
        <path class="cls-1" d="m135.36,76.63c-.91,1.4-2.61,4.36-5.29,9.21-2.16,3.9-5.68,10.61-14.32,10.37s-13.25-6.66-16.34-11.77c.43-17.02-3.24-33-3.24-33,2.63.08,6.99.58,8.39,4.36,1.28,3.46,3.67,9.29,6.83,12.52.5.51,1.19.75,1.91.78,1.96.06,3.63,1.24,4.34,4.56,0,0,3.92-2.63,6.08-4.75,0,0-.15-.88,2.2-.74,0,0-.87,7.86,9.43,8.46Z"/>
        <path class="cls-1" d="m18.61,84.61c1.4,5.32,3.98,9.48,6.47,12.03,4.09,4.21,8.65,4.79,12.58,4.35,6.32-.72,12-4.77,13.48-16.41,1.35-10.62,2.14-25.08-2.79-31.24h0c-1.39.62-2.68,1.19-3.9,1.73-3.92,1.72-5.98,4.9-6.55,10.45-.12,1.19-.79,2.27-1.85,2.83-1.75.93-2.11,2.32-1.67,4.06.55,2.2-.49,3.14-.93,5.34l-1.53-1.71s-.78,5.83-8.07,7.05c-3.54.5-5.24,1.53-5.24,1.53Z"/>
        <path class="cls-1" d="m77.61,30.08c-1.08,2.58-2.31,5.28-4.64,5.41s-3.88-2.06-5.06-4.38c.64.72,2.02.66,3.26.18s1.33-.57,2.67-.36,2.78.71,3.77-.85Z"/>
        <path class="cls-1" d="m84.26,47.08c-.03-.52-.2-1.02-.52-1.45l-1.82-2.45c-.59-.8-1.72-.95-2.5-.34-1.25.97-2.7,2.02-4.09,2.98-.26.18-.54.33-.83.45l-2.99.34c-.34-.07-.68-.16-1.01-.3-1.47-.63-3.09-1.43-4.46-2.24-.76-.45-1.73-.25-2.28.44-.47.61-1.03,1.3-1.52,1.92-.3.38-.49.83-.56,1.29h-.04s-2.94,1.06-2.94,1.06c0,0,13.58,18.04,16.41,23.64,0,0,6.94-13.57,9.94-24.9l-.8-.42Z"/>
        <path class="cls-9" d="m99.41,84.44c3.09,5.1,7.7,11.52,16.34,11.77s12.16-6.47,14.32-10.37c2.68-4.84,5.1-8.97,6.01-10.37"/>
        <path class="cls-4" d="m80.54,120.25c-4.23,4.34-9.38,8.89-11.54,10.77-.63.55-1.51.69-2.28.36-5.35-2.3-14.19-6.17-17.94-7.81-1.04-.46-1.67-1.51-1.58-2.64.12-1.51.28-3.95.38-7.41.18-6.34.28-11.21,0-18.36,5.23-12.46,6.56-33.73.77-41.82l10.36-4.58c3.83,4.38,12.9,18.24,16.41,23.64l.61-1.25c2.84-5.82,7.09-14.76,9.33-23.66,0,0,8.23,2.96,11.11,3.95,1.07,5.35,1.97,9.38,2.8,18.27.75,8.11.08,19.09.99,29.7.66,7.74,2.11,14.65,2.84,17.82.26,1.13-.17,2.31-1.11,3l-9.94,7.39c-.8.6-1.9.57-2.67-.06-2.62-2.12-5.99-5.06-8.54-7.32h0Z"/>
        <path class="cls-3" d="m85.84,17.94c3.22-6.83-.34-11.52-4.03-12.37-2.96-.68-4.5-.87-8.88-3.66-3.89-2.48-7.91-.25-10.05,2.96-.49.74-1.25,1.26-2.12,1.43-3.05.6-4.85,2.36-5.45,5.43-.69,3.52-3.75,6.82-.35,10.4,0,0,.67-.83,3.17-.6-.16-2.91.05-5.57.66-7.61,1.19-3.99,4.77-7.97,9.75-8.32,3.04-.21,4.97.6,5.74,3.47.7,2.62.98,8.24,7.76,7.74.89-.07,1.7.41,2.08,1.15l1.75-.03Z"/>
        <path class="cls-3" d="m101.69,120.24c.5,11.39.5,20.12-1.11,35-1.62,14.88-5.01,39.34-5.01,39.34-5.78,2.52-13.52,4.09-22.22,2.62-4.4,1.47-17.93,2.52-25.07,0,.31-6.92,1.25-32.31,1.4-46.04.14-11.96-.14-18.56-.02-27.21l17.19,7.24c1.04.44,2.24.21,3.04-.57l10.65-10.37,8.2,7.13c1,.87,2.48.92,3.53.11l9.42-7.25Z"/>
        <path class="cls-6" d="m70.58,65.47c.43-4.04,1.97-10.04,1.97-10.04,0,0-1.4-2.57-2.09-3.99,0,0,1.49-3.18,3.28-3.68s3.94,2.27,3.94,2.27c0,0-.64,3.31-.97,5.2,0,0,2.02,5.21,2.63,8.22l-4.22,8.94-4.55-6.93Z"/>
        <path class="cls-3" d="m69.73,33.92c1.85.02,5.22-.29,6.3-.62,0,0-.46,1.84-2.66,2.06s-3.63-1.44-3.63-1.44Z"/>
        <path class="cls-5" d="m8.22,87.81c-.9.78-.89,2.18.02,2.95h0c.71.61,1.75.63,2.49.05,3.32-2.63,6.49-5.04,9.03-7.15.44-.37,1.12-.13,1.24.44.37,1.74.81,3.42,1.15,4.63.3,1.06,1.19,1.93,2.44,1.51,1.35-.46,1.49-1.64,1.36-2.79-.13-1.09-.13-2.6-.21-3.33-.07-.66.31-1.29.93-1.54,3.57-1.39,5.21-4.08,5.31-7.41.1-3.27-1.92-4.92-4.5-6.09-.49-.22-.96-.52-1.32-.92-2.28-2.45-5.9-1.77-9.05-1.46-2.93.28-4.38-1.53-7.8-2.95-.96-.4-2.07-.16-2.76.61h0c-.94,1.04-.83,2.65.26,3.54s2.44,1.91,3.94,2.84c1.09.68,1.19,2.22.22,3.06-2.94,2.54-6.96,6.28-9.61,9.25-.71.8-.65,2.01.14,2.73l.05.05c.76.7,1.93.69,2.67-.02,0,0-2.95,1.98-1.14,3.91s5.14-1.91,5.14-1.91Z"/>
        <path class="cls-5" d="m145.27,63.48c-.43-.38-.24-1.07.31-1.21,1.42-.36,2.62-.88,3.54-1.36,1.22-.64,1.6-2.2.82-3.33-.57-.83-1.61-1.19-2.58-.89-1.87.58-3.35.58-5.39.44-2.37-.16-4.38-.68-7.38,1.31-.54.36-1.15.64-1.79.75-3.95.68-6.02,2.47-6.32,4.61-.16,1.13.04,2.05.49,2.88h-.02s-1.03,1.51-1.03,1.51c0,0-.62,8.04,9.43,8.46l.89-1.49c.42.45.8.88,1.13,1.28.49.59,1.28.83,2.02.6,1.25-.38,1.33-1.55,1.33-1.55,1.09,1.14,2.05,2.8,3.65,3.1,1.23.23,2.04-.61,2.12-1.53l.02.08c1.27,1.17,2.46,2.45,3.88,2.15,1.09-.23,1.43-1.27,1.18-2.22v.02c1.54.49,3.07-.38,2.89-2.3-.17-1.79-4.3-6.98-9.19-11.29Z"/>
        <g class="cls-7">
          <g>
            <path class="cls-2" d="m57.64,63.96c-.15,0-.29-.06-.4-.17-.22-.22-.22-.58,0-.8l22.26-22.26c.22-.22.58-.22.8,0,.22.22.22.58,0,.8l-22.26,22.26c-.11.11-.26.17-.4.17Z"/>
            <path class="cls-2" d="m60.19,66.52c-.15,0-.29-.06-.4-.17-.22-.22-.22-.58,0-.8l22.26-22.26c.22-.22.58-.22.8,0,.22.22.22.58,0,.8l-22.26,22.26c-.11.11-.26.17-.4.17Z"/>
            <path class="cls-2" d="m62.75,69.07c-.15,0-.29-.06-.4-.17-.22-.22-.22-.58,0-.8l22.26-22.26c.22-.22.58-.22.8,0,.22.22.22.58,0,.8l-22.26,22.26c-.11.11-.26.17-.4.17Z"/>
            <path class="cls-2" d="m65.3,71.63c-.15,0-.29-.06-.4-.17-.22-.22-.22-.58,0-.8l22.26-22.26c.22-.22.58-.22.8,0,.22.22.22.58,0,.8l-22.26,22.26c-.11.11-.26.17-.4.17Z"/>
            <path class="cls-2" d="m67.86,74.19c-.15,0-.29-.06-.4-.17-.22-.22-.22-.58,0-.8l22.26-22.26c.22-.22.58-.22.8,0,.22.22.22.58,0,.8l-22.26,22.26c-.11.11-.26.17-.4.17Z"/>
            <path class="cls-2" d="m70.42,76.74c-.15,0-.29-.06-.4-.17-.22-.22-.22-.58,0-.8l22.26-22.26c.22-.22.58-.22.8,0,.22.22.22.58,0,.8l-22.26,22.26c-.11.11-.26.17-.4.17Z"/>
            <path class="cls-2" d="m72.97,79.3c-.15,0-.29-.06-.4-.17-.22-.22-.22-.58,0-.8l22.26-22.26c.22-.22.58-.22.8,0,.22.22.22.58,0,.8l-22.26,22.26c-.11.11-.26.17-.4.17Z"/>
            <path class="cls-2" d="m75.53,81.86c-.15,0-.29-.06-.4-.17-.22-.22-.22-.58,0-.8l22.26-22.26c.22-.22.58-.22.8,0,.22.22.22.58,0,.8l-22.26,22.26c-.11.11-.26.17-.4.17Z"/>
          </g>
        </g>
      </g>
      <g>
        <circle class="cls-3" cx="72.65" cy="27.66" r=".71"/>
        <circle class="cls-3" cx="76.95" cy="78" r="1"/>
        <circle class="cls-3" cx="77.71" cy="89.22" r="1"/>
        <circle class="cls-3" cx="78.42" cy="100.12" r="1"/>
        <circle class="cls-3" cx="108.86" cy="83.58" r=".85"/>
        <circle class="cls-3" cx="79.42" cy="110.96" r="1"/>
        <path class="cls-3" d="m72.06,42.23c-9.57,0-12.75-9.7-13.31-11.72-1.72-6.24-2.03-12.68-.79-16.83,1.24-4.16,4.97-8.54,10.5-8.93,2.33-.16,5.54.08,6.62,4.1.09.33.17.71.26,1.11.62,2.85,1.4,6.39,6.61,6h0c.82-.06,1.61.2,2.22.74.59.52.94,1.24.99,2.03.22,4.14.22,7.95-.02,11.32-.38,5.44-4.68,11.53-11.89,12.11-.41.03-.81.05-1.19.05Zm-2.67-35.81c-.26,0-.53.01-.82.03-4.69.33-7.95,4.23-8.99,7.72-1.13,3.8-.82,10.04.8,15.89.52,1.87,3.58,11.17,12.73,10.43,6.26-.5,10-5.8,10.33-10.53.23-3.3.24-7.04.02-11.11-.02-.33-.16-.63-.41-.85-.27-.23-.61-.35-.97-.32-6.7.48-7.8-4.6-8.4-7.34-.08-.38-.16-.73-.24-1.03-.54-2.03-1.71-2.88-4.04-2.88Z"/>
        <path class="cls-3" d="m58.72,33.51c-1.44,0-2.97-.45-4.24-1.3-1.72-1.15-2.75-2.9-2.91-4.92-.2-2.56.77-4.1,1.61-4.93,1.23-1.21,3.1-1.82,5-1.64.47.05.81.46.77.93-.05.47-.46.81-.93.77-1.41-.13-2.77.3-3.65,1.16-.86.84-1.23,2.05-1.11,3.58.15,1.91,1.26,3.04,2.16,3.64,1.39.93,3.24,1.26,4.61.82.44-.15.92.1,1.07.55.14.45-.1.93-.55,1.07-.58.19-1.2.27-1.84.27Z"/>
        <path class="cls-3" d="m84.34,30.17c-.44,0-.81-.34-.85-.79-.04-.47.32-.88.79-.91,2.92-.22,5.92-2.28,5.73-5.67-.07-1.31-.56-2.33-1.45-3.04-1.03-.82-2.58-1.15-4.14-.89-.46.08-.9-.23-.98-.69-.08-.46.23-.9.69-.98,2.06-.36,4.06.09,5.49,1.23,1.27,1.01,1.99,2.49,2.09,4.27.25,4.47-3.58,7.18-7.3,7.46-.02,0-.04,0-.06,0Z"/>
        <path class="cls-3" d="m54.94,22.99c-.22,0-.45-.09-.62-.27-2.84-3-1.72-5.9-.73-8.45.36-.93.7-1.81.87-2.7.66-3.38,2.72-5.43,6.12-6.1.64-.13,1.2-.51,1.58-1.07,2.33-3.5,6.84-5.99,11.22-3.21,3.89,2.48,5.41,2.82,7.91,3.39l.7.16c2.15.49,4.04,2.05,5.07,4.17,1.3,2.67,1.13,6-.46,9.39-.2.42-.71.61-1.13.41-.42-.2-.61-.71-.41-1.13,1.76-3.73,1.23-6.37.47-7.92-.81-1.66-2.27-2.88-3.92-3.26l-.69-.16c-2.59-.58-4.31-.97-8.45-3.61-3.43-2.19-6.94-.21-8.89,2.72-.63.94-1.58,1.58-2.66,1.79-2.73.54-4.25,2.05-4.78,4.76-.2,1.03-.58,2.02-.96,2.98-.96,2.49-1.72,4.46.38,6.67.32.34.31.88-.03,1.2-.17.16-.38.23-.59.23Z"/>
        <path class="cls-3" d="m65.43,44.69h0c-.47,0-.85-.39-.85-.86,0-1.54,0-4.56,0-4.56h1.7s.01,3.02,0,4.57c0,.47-.38.85-.85.85Z"/>
        <path class="cls-3" d="m80.63,43.31c-.45,0-.83-.36-.85-.81-.08-1.86,0-4.52,0-4.64.02-.47.4-.82.88-.82.47.02.84.41.82.88,0,.03-.08,2.72,0,4.51.02.47-.34.87-.81.89-.01,0-.03,0-.04,0Z"/>
        <path class="cls-3" d="m67.4,55.92c-.6,0-1.17-.24-1.59-.68-1.03-1.07-2.61-2.8-4.29-5.02-.98-1.28-.95-3.07.07-4.34.49-.61,1.04-1.31,1.51-1.91.81-1.04,2.26-1.32,3.38-.65h0c1.25.75,2.8,1.52,4.36,2.19,1.33.57,2.83.41,4.01-.41,1.55-1.07,2.95-2.09,4.05-2.95.56-.44,1.25-.63,1.96-.53.7.1,1.32.46,1.75,1.03l1.82,2.45c.81,1.1.93,2.53.3,3.74-.47.91-1.23,2.29-2.13,3.69-.38.58-.99.94-1.68.99-.71.06-1.36-.22-1.82-.74-1.64-1.86-3.03-3.22-3.9-3.82-1.17-.8-1.63-.41-2.57.84-.84,1.13-1.76,2.57-2.57,3.85-.27.43-.54.84-.78,1.23-.37.57-.97.94-1.65,1.01-.07,0-.14.01-.22.01Zm-2.24-11.25c-.27,0-.54.13-.73.36-.47.61-1.03,1.31-1.52,1.92-.53.66-.54,1.58-.04,2.25,1.63,2.15,3.17,3.83,4.16,4.86.15.15.33.17.42.15.09,0,.27-.05.39-.24.25-.38.5-.79.77-1.21.83-1.3,1.76-2.78,2.65-3.96.26-.35.63-.84,1.11-1.24-.75-.01-1.49-.17-2.21-.48-1.62-.69-3.24-1.51-4.56-2.29h0c-.14-.08-.29-.12-.44-.12Zm9.83,2.32c.36.11.75.3,1.16.59,1.26.87,2.98,2.7,4.21,4.09.11.12.27.18.42.17.09,0,.26-.04.38-.22.87-1.34,1.59-2.66,2.05-3.54.33-.63.26-1.38-.16-1.95l-1.82-2.45c-.15-.2-.37-.33-.61-.36-.24-.03-.49.03-.68.19-1.13.88-2.55,1.92-4.13,3-.27.18-.54.34-.83.48Z"/>
        <path class="cls-3" d="m90.46,128.91c-.68,0-1.35-.23-1.91-.68-3.54-2.86-8.38-7.16-10.94-9.46-1.08-.97-1.74-2.31-1.85-3.76-1.04-13.58-1.66-31.89-1.88-39.13-.05-1.75.33-3.52,1.1-5.09,3.42-6.99,7.19-15.24,9.27-23.49.06-.23.21-.43.42-.54.21-.11.46-.13.69-.05.08.03,8.25,2.97,11.09,3.95.29.1.5.34.56.64l.27,1.32c.96,4.75,1.78,8.85,2.54,17.04.36,3.92.4,8.49.44,13.33.04,5.35.08,10.88.55,16.38.65,7.59,2.05,14.35,2.82,17.7.34,1.46-.22,2.98-1.43,3.87l-9.94,7.39c-.54.4-1.17.6-1.81.6Zm-4.8-80.3c-2.16,8.09-5.82,16.1-9.15,22.92-.65,1.33-.97,2.81-.92,4.29.22,7.23.84,25.51,1.87,39.06.08,1.02.54,1.95,1.29,2.63,2.56,2.3,7.37,6.57,10.88,9.41.47.38,1.15.4,1.63.04l9.94-7.39c.66-.49.97-1.33.79-2.13-.79-3.4-2.21-10.25-2.86-17.94-.47-5.57-.52-11.13-.56-16.52-.04-4.8-.07-9.34-.43-13.18-.75-8.1-1.57-12.16-2.52-16.86l-.17-.84c-2.53-.88-7.71-2.74-9.78-3.48Z"/>
        <path class="cls-3" d="m116.95,72.41c-.31,0-.61-.17-.76-.47-.64-1.29-1.59-1.94-2.9-1.98-.99-.03-1.87-.4-2.49-1.03-2.44-2.49-4.8-6.8-7.02-12.82-.9-2.43-3.39-3.67-7.62-3.81-.47-.01-.84-.41-.82-.88.01-.46.39-.82.85-.82,0,0,.02,0,.03,0,1.84.06,7.43.23,9.17,4.92,2.14,5.79,4.38,9.9,6.64,12.22.4.41.94.51,1.33.52,1.94.06,3.46,1.08,4.37,2.93.21.42.04.93-.38,1.14-.12.06-.25.09-.38.09Z"/>
        <path class="cls-3" d="m116.22,97.07c-.16,0-.33,0-.49,0-8.66-.25-13.48-6.29-17.04-12.18-.24-.4-.12-.92.29-1.17.41-.24.93-.12,1.17.29,3.33,5.49,7.79,11.13,15.64,11.36,7.9.23,11.23-5.73,13.41-9.68l.14-.25c2.69-4.86,5.12-9,6.04-10.42.25-.39.78-.51,1.18-.25.39.25.51.78.25,1.18-.9,1.4-3.31,5.49-5.98,10.32l-.14.25c-2.19,3.97-5.83,10.56-14.46,10.56Z"/>
        <path class="cls-3" d="m128.6,85.29c-2.24,0-4.17-.59-5.77-1.78-3.17-2.35-3.99-6.35-4.2-7.96-.05-.39.22-.74.61-.79.38-.05.74.22.79.61.18,1.43.91,4.97,3.64,7,1.81,1.35,4.2,1.79,7.09,1.31.39-.06.75.2.81.58.06.39-.2.75-.58.81-.83.14-1.63.21-2.4.21Z"/>
        <path class="cls-3" d="m103.25,80.03c-.16,0-.32-.06-.45-.18-.25-.25-.26-.65,0-.9,2.34-2.39,6.49-5.59,8.88-6.84.31-.17.7-.04.86.27.16.31.04.7-.27.86-2.29,1.2-6.29,4.29-8.56,6.6-.12.13-.29.19-.46.19Z"/>
        <path class="cls-3" d="m152.42,78.06c-.36,0-.73-.06-1.09-.17-.45-.14-.69-.62-.55-1.07.14-.45.62-.69,1.07-.55.52.17,1.04.11,1.37-.16.4-.32.44-.86.41-1.25-.12-1.27-3.65-6.09-8.91-10.74-.43-.38-.61-.96-.48-1.52.14-.57.57-1.01,1.14-1.15,1.16-.29,2.29-.73,3.36-1.29.37-.19.63-.52.73-.93.1-.41.03-.82-.21-1.17-.36-.52-1.01-.75-1.62-.56-1.95.6-3.5.63-5.71.48-.31-.02-.62-.05-.92-.08-1.92-.17-3.57-.32-5.93,1.25-.69.46-1.4.75-2.12.88-3.31.57-5.36,1.98-5.62,3.88-.3,2.2.84,3.43,3.68,5.5,2.65,1.93,5.27,4.35,7.02,6.48.27.32.7.46,1.11.33.33-.1.58-.34.69-.67.11-.33.06-.69-.15-.97-1.09-1.52-2.68-3.31-4.73-5.32-.34-.33-.34-.87-.01-1.2.33-.34.87-.34,1.2-.01,2.12,2.07,3.78,3.94,4.93,5.54.52.73.66,1.67.38,2.51-.29.85-.95,1.49-1.8,1.75-1.07.32-2.22-.02-2.92-.88-1.66-2.02-4.17-4.34-6.71-6.19-2.75-2-4.82-3.8-4.36-7.11.37-2.68,2.93-4.63,7.02-5.33.48-.08.97-.29,1.46-.62,2.86-1.9,4.98-1.71,7.03-1.52.29.03.58.05.88.07,2.04.14,3.38.12,5.08-.41,1.33-.41,2.75.08,3.53,1.23.51.74.68,1.67.46,2.54-.22.87-.8,1.61-1.59,2.02-1.11.58-2.28,1.04-3.48,1.37,4.33,3.87,9.05,9.36,9.27,11.67.11,1.14-.26,2.11-1.03,2.74-.51.41-1.17.63-1.86.63Z"/>
        <path class="cls-3" d="m144.78,79.47c-.18,0-.37-.02-.56-.05-1.52-.29-2.5-1.47-3.38-2.51-.25-.29-.49-.58-.74-.84-.32-.34-.31-.88.03-1.2.34-.32.88-.31,1.2.03.27.29.54.6.81.93.76.9,1.47,1.76,2.39,1.93.6.11.88-.19.99-.37.14-.23.22-.62-.03-.95-.79-1.04-1.84-2.24-3.07-3.63-.82-.93-1.71-1.93-2.61-3-.3-.36-.26-.9.1-1.2.36-.3.9-.26,1.2.1.89,1.06,1.77,2.05,2.58,2.97,1.25,1.41,2.33,2.63,3.15,3.73.63.84.68,1.97.11,2.87-.48.77-1.29,1.2-2.2,1.2Z"/>
        <path class="cls-3" d="m149.98,80.17c-1.45,0-2.63-1.11-3.7-2.1l-.34-.32c-.35-.32-.37-.86-.05-1.2.32-.35.86-.37,1.2-.05l.35.33c.99.92,1.93,1.8,2.78,1.62.27-.06.43-.19.52-.42.14-.37.04-.89-.23-1.27-1.64-2.24-4.14-5.44-6.73-7.97-.33-.33-.34-.87-.01-1.2.33-.33.87-.34,1.2-.01,2.67,2.62,5.23,5.89,6.91,8.18.62.85.8,1.98.45,2.89-.29.77-.94,1.31-1.76,1.48-.2.04-.4.06-.59.06Z"/>
        <path class="cls-3" d="m110.94,80.79c-.16,0-.33-.05-.48-.15-.39-.26-.49-.79-.22-1.18,1.77-2.6,4.62-4.54,7.38-6.41.76-.51,1.52-1.03,2.25-1.56.64-.46,1.29-1.15,1.91-1.82,1.38-1.48,2.81-3.02,4.49-2.28.33.15.54.49.5.85-.09.98.39,3.11,2.06,4.92,1.12,1.21,3.13,2.64,6.51,2.62.46.01.85.37.86.84,0,.47-.37.85-.84.86-.04,0-.08,0-.12,0-3.91,0-6.32-1.72-7.66-3.17-1.58-1.72-2.35-3.79-2.5-5.33-.58.25-1.36,1.08-2.06,1.84-.68.73-1.39,1.49-2.16,2.05-.75.54-1.52,1.06-2.29,1.58-2.75,1.86-5.34,3.62-6.92,5.96-.16.24-.43.37-.7.37Z"/>
        <path class="cls-3" d="m33.45,78.6c-.05,0-.11,0-.17-.02-.46-.09-.76-.54-.67-1,.16-.82.4-1.47.61-2.04.38-1.04.63-1.73.33-2.93-.57-2.28.14-3.97,2.1-5.01.78-.42,1.31-1.23,1.41-2.17.6-5.83,2.78-9.27,7.05-11.14,1.52-.66,3.15-1.39,4.93-2.19,3.47-1.55,7.4-3.3,12.28-5.38.43-.18.93.02,1.12.45.18.43-.02.93-.45,1.12-4.86,2.08-8.79,3.83-12.25,5.37-1.79.8-3.42,1.53-4.94,2.19-3.7,1.62-5.5,4.53-6.04,9.76-.16,1.51-1.01,2.81-2.3,3.5-1.27.67-1.63,1.57-1.25,3.1.43,1.7.03,2.78-.38,3.92-.2.54-.4,1.1-.54,1.79-.08.41-.44.69-.83.69Z"/>
        <path class="cls-3" d="m35.52,101.96c-4.34,0-7.97-1.56-11.06-4.73-2.98-3.06-5.41-7.59-6.68-12.41-.12-.45.15-.92.61-1.04.45-.12.92.15,1.04.61,1.2,4.55,3.47,8.8,6.25,11.66,3.21,3.3,7.09,4.64,11.88,4.1,7.23-.82,11.51-6.09,12.73-15.67,1.97-15.43,1.06-26.01-2.61-30.6-.29-.37-.23-.9.13-1.19.37-.29.9-.23,1.2.13,4.02,5.03,5.02,15.75,2.96,31.88-1.33,10.46-6.12,16.23-14.23,17.15-.76.09-1.51.13-2.23.13Z"/>
        <path class="cls-3" d="m75.13,73.25c-.28,0-.55-.14-.71-.39-7.92-12.2-13.72-20.56-16.33-23.54-.31-.35-.27-.89.08-1.2.35-.31.89-.27,1.2.08,3.41,3.9,10.85,15.06,16.48,23.74.26.39.14.92-.25,1.18-.14.09-.3.14-.46.14Z"/>
        <path class="cls-3" d="m67.58,132.41c-.4,0-.81-.08-1.2-.25-5.35-2.31-14.2-6.17-17.94-7.81-1.37-.6-2.21-2-2.09-3.49.12-1.43.28-3.86.38-7.36.18-6.23.28-11.18,0-18.3-.02-.47.35-.86.82-.88.01,0,.02,0,.03,0,.45,0,.83.36.85.82.28,7.17.18,12.15,0,18.41-.1,3.54-.27,6-.39,7.45-.06.76.37,1.48,1.07,1.79,3.74,1.64,12.58,5.51,17.93,7.81.47.2,1,.12,1.39-.22,2.04-1.77,7.25-6.37,11.49-10.73.33-.34.87-.34,1.2-.02.34.33.34.87.01,1.2-4.29,4.4-9.54,9.03-11.59,10.82-.56.49-1.26.75-1.97.75Z"/>
        <path class="cls-3" d="m39.73,84.74c-.21,0-.42-.08-.58-.23-2.01-1.9-4.57-4.42-7.4-7.28-.33-.33-.33-.87,0-1.2.33-.33.87-.33,1.2,0,3.55,3.59,5.96,5.92,7.36,7.24.34.32.36.86.03,1.2-.17.18-.39.27-.62.27Z"/>
        <path class="cls-3" d="m60.04,199.58c-4.37,0-8.82-.44-12.04-1.57-.35-.12-.58-.47-.57-.84.28-6.22,1.24-31.89,1.4-46.01.07-6.23.03-11.1-.01-15.39-.04-3.95-.07-7.68,0-11.82,0-.47.39-.84.85-.84,0,0,0,0,.01,0,.47,0,.84.39.84.86-.06,4.12-.03,7.84,0,11.78.04,4.3.08,9.17.01,15.42-.16,13.7-1.06,38.24-1.38,45.43,7.02,2.17,19.72,1.2,23.92-.2.13-.04.27-.05.41-.03,9.17,1.55,16.58-.39,21.31-2.37.48-3.49,3.47-25.28,4.95-38.84,1.59-14.66,1.62-23.25,1.11-34.88-.02-.47.34-.87.81-.89.5-.03.87.34.89.81.52,11.71.49,20.36-1.12,35.13-1.6,14.72-4.98,39.12-5.02,39.37-.04.29-.23.54-.5.66-4.88,2.13-12.73,4.31-22.5,2.71-2.66.83-7.95,1.5-13.37,1.5Z"/>
        <path class="cls-3" d="m9.51,92.08c-.65,0-1.3-.22-1.82-.67-.63-.54-.98-1.31-.99-2.12,0-.81.35-1.59.96-2.12,1.87-1.63,4.69-4,7.47-6.1.38-.28.91-.21,1.19.17.28.38.21.91-.17,1.19-2.74,2.06-5.52,4.41-7.38,6.02-.24.21-.38.51-.38.83,0,.33.14.62.39.83.41.35,1,.36,1.41.03,1.21-.96,2.4-1.89,3.55-2.79,1.99-1.55,3.86-3.02,5.47-4.35.44-.36,1.02-.47,1.56-.28.54.19.94.64,1.05,1.2.38,1.77.83,3.47,1.14,4.58.12.42.36.76.64.91.2.11.44.11.71.02.47-.16.95-.45.79-1.88-.07-.64-.11-1.41-.14-2.09-.02-.5-.04-.94-.07-1.25-.12-1.04.49-2.04,1.46-2.42,3.07-1.2,4.67-3.43,4.77-6.64.07-2.44-1.09-3.97-4-5.29-.64-.29-1.18-.67-1.6-1.12-1.76-1.89-4.62-1.59-7.39-1.29l-.96.1c-2.2.21-3.67-.61-5.36-1.57-.81-.46-1.73-.98-2.85-1.44-.63-.26-1.36-.1-1.81.4-.3.33-.45.75-.41,1.19.03.44.24.83.58,1.11,1.33,1.08,2.62,2.02,3.85,2.78.75.46,1.21,1.23,1.28,2.11.07.89-.28,1.73-.95,2.31-2.71,2.34-6.83,6.14-9.53,9.17-.4.45-.37,1.13.08,1.54.48.44,1.14.44,1.56.03,1.63-1.58,4.74-4.52,7.17-6.48.37-.3.9-.24,1.2.12.29.37.24.9-.13,1.2-2.38,1.93-5.44,4.83-7.06,6.39-1.07,1.02-2.75,1.04-3.84.04-1.17-1.08-1.26-2.84-.25-3.97,2.75-3.09,6.81-6.84,9.69-9.32.26-.23.39-.55.37-.89-.03-.33-.2-.62-.48-.8-1.29-.8-2.65-1.78-4.03-2.91-.71-.58-1.13-1.39-1.2-2.3-.07-.9.24-1.8.85-2.46.93-1.03,2.43-1.36,3.72-.82,1.21.5,2.18,1.05,3.04,1.53,1.56.88,2.69,1.52,4.36,1.36l.94-.1c3.03-.32,6.47-.69,8.82,1.83.26.28.62.53,1.05.72,2.21,1,5.12,2.8,5,6.89-.12,3.9-2.14,6.73-5.85,8.18-.26.1-.42.37-.39.65.04.33.06.82.08,1.36.03.65.06,1.38.13,1.96.22,1.94-.43,3.18-1.93,3.69-.72.24-1.43.2-2.05-.13-.69-.37-1.23-1.08-1.48-1.96-.31-1.11-.76-2.79-1.14-4.56-1.6,1.32-3.45,2.76-5.4,4.29-1.14.89-2.33,1.82-3.54,2.78-.51.41-1.13.61-1.75.61Z"/>
        <path class="cls-3" d="m4.57,91.24c-.71,0-1.41-.26-1.95-.78l-.13-.12c-.54-.52-.84-1.23-.85-1.98,0-.75.28-1.47.81-2.01,2.51-2.55,6.05-5.76,9.02-8.18.37-.3.9-.24,1.2.12.3.36.24.9-.12,1.2-2.93,2.39-6.42,5.55-8.89,8.06-.21.21-.32.49-.32.79,0,.3.12.57.33.78l.13.12c.42.4,1.06.42,1.49.04,2.96-2.61,8.17-7.15,9.9-8.23.4-.25.92-.13,1.17.27.25.4.13.92-.27,1.17-1.68,1.06-7.33,5.99-9.68,8.07-.53.46-1.19.69-1.85.69Z"/>
        <path class="cls-3" d="m21.7,73.21c-1.32,0-2.63-.35-3.92-1.05-.31-.17-.42-.56-.25-.87.17-.31.55-.42.87-.25,1.55.85,3.14,1.1,4.71.74.34-.08.68.14.76.48s-.14.69-.48.76c-.56.13-1.12.19-1.68.19Z"/>
        <path class="cls-3" d="m26.64,91.95c-.33,0-.63-.24-.7-.58-.07-.38.18-.76.56-.83,1.93-.37,6.61-1.89,8.41-7.91.11-.37.5-.59.88-.48.38.11.59.51.48.88-2.02,6.77-7.32,8.48-9.5,8.9-.04,0-.09.01-.13.01Z"/>
        <path class="cls-3" d="m70.58,66.32s-.06,0-.09,0c-.47-.05-.8-.47-.75-.94.38-3.56,1.58-8.52,1.91-9.83-.39-.72-1.39-2.58-1.95-3.72-.21-.42-.03-.93.39-1.14.42-.21.93-.03,1.14.39.68,1.38,2.06,3.93,2.08,3.95.1.19.13.41.08.62-.01.06-1.53,5.99-1.95,9.92-.05.44-.42.76-.84.76Z"/>
        <path class="cls-3" d="m79.34,64.31c-.4,0-.75-.28-.83-.68-.59-2.91-2.57-8.03-2.59-8.08-.06-.14-.07-.3-.04-.45.33-1.89.97-5.21.97-5.21l1.67.33s-.59,3.04-.93,4.95c.4,1.04,2.03,5.41,2.59,8.14.09.46-.2.91-.66,1-.06.01-.11.02-.17.02Z"/>
        <path class="cls-3" d="m72.55,56.28c-.45,0-.83-.35-.85-.81-.02-.47.34-.87.81-.89l4.16-.19c.49-.01.87.34.89.81.02.47-.34.87-.81.89l-4.16.19s-.03,0-.04,0Z"/>
        <path class="cls-3" d="m74.41,19.78c-.19,0-.38-.09-.5-.25-.21-.28-.16-.68.12-.89,1.66-1.28,3.38-1.99,5.58-2.3.34-.05.67.19.72.54.05.35-.19.67-.54.72-2,.28-3.49.9-4.98,2.05-.12.09-.25.13-.39.13Z"/>
        <path class="cls-3" d="m68.61,20.08c-.08,0-.17-.02-.25-.05-1.06-.44-3.37-.82-4.65-.85-.35,0-.63-.3-.62-.65,0-.35.29-.63.65-.62,1.43.03,3.88.43,5.12.94.33.14.48.51.34.83-.1.24-.34.39-.59.39Z"/>
        <path class="cls-3" d="m72.77,36.2c-2.75,0-4.45-2.71-5.5-4.77-.16-.32-.06-.71.23-.91.29-.2.69-.15.93.12.36.41,1.4.4,2.48,0l.25-.1c1.11-.43,1.39-.52,2.78-.3.17.03.35.06.52.09,1.27.23,1.95.31,2.54-.62.2-.31.6-.42.93-.25.33.17.47.56.33.9-1.01,2.4-2.39,5.69-5.26,5.84-.08,0-.15,0-.23,0Zm-3.34-3.84c1.12,1.73,2.23,2.49,3.49,2.42,1.33-.07,2.26-1.25,3.1-2.92-.63.06-1.26-.05-1.81-.15-.16-.03-.33-.06-.49-.08-1.05-.16-1.09-.15-2.05.22l-.26.1c-.61.24-1.32.4-1.99.41Z"/>
        <path class="cls-3" d="m69.86,34.77c-.38,0-.69-.3-.71-.68-.01-.39.29-.72.68-.73,2.77-.1,3.96-.25,5.91-.61.38-.07.75.18.83.57.07.38-.18.75-.57.83-1.94.36-3.21.53-6.11.63,0,0-.02,0-.03,0Z"/>
        <path class="cls-3" d="m65.75,23.8c-.07,0-.14,0-.21-.03-.19-.05-.42-.23-.51-.4,0,0,0,0,0,0-.08-.15-.29-.68.43-1.18.13-.09,1.32-.88,1.93-.17.15.18.23.47.17.7-.11.4-.46.53-.66.61-.08.03-.18.06-.28.12l-.16.1c-.18.11-.42.26-.71.26Zm.6-.88l-.03.02s.03.03.04.04c0-.02,0-.04,0-.06Z"/>
        <path class="cls-3" d="m77.68,22.85c-.19,0-.36-.05-.51-.09l-.18-.05c-.11-.03-.22-.03-.3-.04-.22-.02-.59-.04-.81-.4-.12-.2-.13-.51-.03-.72.39-.85,1.75-.42,1.91-.36.83.28.77.85.73,1.02-.04.19-.21.43-.38.53-.15.09-.3.12-.44.12Zm-.57-.72s0,.05.01.07c0-.02.02-.03.03-.05l-.04-.02Zm.6-.69h0,0Z"/>
        <path class="cls-1" d="m77.43,143.77s-.02,0-.03,0c-.39-.02-.69-.35-.67-.74.03-.61.08-1.54.14-2.68.19-3.64.49-9.13.56-12.97,0-.39.37-.69.72-.69.39,0,.7.33.7.72-.08,3.86-.37,9.37-.57,13.02-.06,1.13-.11,2.06-.14,2.67-.02.38-.33.68-.71.68Z"/>
        <path class="cls-1" d="m73.34,198.91s-.04,0-.07,0c-.39-.04-.68-.38-.64-.77.6-6.32,1.54-20.19,2.37-32.44.38-5.55.73-10.72,1.01-14.64.03-.39.38-.68.76-.66.39.03.68.37.66.76-.28,3.92-.63,9.09-1.01,14.64-.83,12.25-1.78,26.14-2.38,32.48-.03.37-.34.64-.7.64Z"/>
        <path class="cls-1" d="m62.19,194.71s-.03,0-.05,0c-.31-.03-.54-.3-.52-.61.27-3.08.61-11.74.98-20.92.23-5.79.47-11.71.69-16.38.01-.31.25-.55.59-.54.31.02.55.28.54.59-.22,4.67-.46,10.59-.69,16.37-.37,9.19-.72,17.86-.99,20.97-.03.3-.27.52-.56.52Z"/>
        <path class="cls-1" d="m85.09,195.93s-.04,0-.06,0c-.31-.04-.54-.32-.5-.63.2-1.79.76-5.9,1.4-10.65,1.14-8.42,2.56-18.9,3.11-24.46.03-.31.31-.54.62-.51.31.03.54.31.51.62-.56,5.58-1.98,16.07-3.12,24.5-.64,4.75-1.2,8.85-1.4,10.63-.03.29-.28.5-.56.5Z"/>
        <path class="cls-1" d="m72.42,150.79c-.06,0-.12,0-.18-.03-2.02-.67-4.11-.96-6.98-.96-.31,0-.57-.25-.57-.57s.25-.57.57-.57c3,0,5.19.31,7.33,1.02.3.1.46.42.36.72-.08.24-.3.39-.54.39Z"/>
        <path class="cls-3" d="m125.93,69.02c-.16,0-.33-.05-.48-.15-.39-.26-.49-.79-.23-1.18l1.03-1.52c.26-.39.79-.49,1.18-.23.39.26.49.79.23,1.18l-1.03,1.52c-.16.24-.43.37-.7.37Z"/>
      </g>
    </g>
  </g>
  <g id="_アイコン" data-name="アイコン">
    <g>
      <path class="cls-6" d="m29.99,157.52c-.54-.59-1.46-.61-2.09-.12l-1.89,1.47c-.59.46-.81,1.29-.45,1.95.41.74,1.27.94,1.97.6l.19.24c.22.29.27.69.1,1.01-.35.64-1.07,1.12-1.81,1.26-1.39.27-2.43-.73-3.11-1.61-1.28-1.72-1.13-3.31-.41-4.12.56-.62,1.36-.93,1.96-.75.79.23,1.63-.22,1.86-1.02.23-.8-.23-1.63-1.02-1.86-1.72-.5-3.7.14-5.04,1.64-1.53,1.72-2.05,4.83.26,7.94,1.74,2.25,4.04,3.2,6.31,2.62.76-.2,1.48-.56,2.1-1.04.45-.35.81-.76,1.08-1.24.11-.19.3-.33.52-.34.29-.02.6-.13.81-.3.66-.51.77-1.45.26-2.11l-1.66-2.14c.56-.56.63-1.46.07-2.07Z"/>
      <path class="cls-2" d="m24.08,154.39c.4,0,.81.05,1.2.17.79.23,1.25,1.07,1.02,1.86-.19.66-.79,1.08-1.44,1.08-.14,0-.28-.02-.42-.06-.11-.03-.23-.05-.36-.05-.54,0-1.15.3-1.6.8-.72.81-.87,2.39.41,4.12.61.78,1.49,1.65,2.65,1.65.15,0,.3-.01.46-.04.75-.14,1.46-.62,1.81-1.26.17-.32.12-.72-.1-1.01l-.19-.24c-.22.11-.45.16-.68.16-.51,0-1-.25-1.28-.76-.36-.66-.15-1.49.45-1.95l1.89-1.47c.29-.23.65-.34,1-.34.4,0,.8.15,1.09.47.56.61.49,1.51-.07,2.07l1.66,2.14c.51.65.39,1.6-.26,2.11-.21.16-.52.27-.81.3-.22.02-.41.15-.52.34-.27.47-.63.88-1.08,1.24-.62.48-1.33.84-2.1,1.04-.43.11-.87.17-1.3.17-1.82,0-3.59-.97-5-2.79-2.31-3.11-1.79-6.22-.26-7.94,1.04-1.16,2.46-1.8,3.84-1.8m0-1.42h0c-1.82,0-3.6.83-4.9,2.27-1.92,2.15-2.61,5.99.18,9.73,1.69,2.17,3.86,3.36,6.14,3.36.55,0,1.11-.07,1.65-.21.93-.24,1.83-.68,2.61-1.29.5-.39.92-.84,1.26-1.35.43-.09.83-.28,1.16-.53,1.27-.99,1.5-2.82.51-4.09l-1.07-1.38c.35-.98.15-2.1-.59-2.92-.54-.59-1.32-.93-2.13-.93-.39,0-.77.07-1.13.22-.06-1.2-.87-2.3-2.1-2.66-.52-.15-1.05-.22-1.59-.22h0Zm1.13,9.51c-.37-.13-.77-.48-1.2-1.04-.84-1.13-.75-2-.47-2.3.22-.24.47-.33.55-.33.06.02.11.03.17.05-.39.83-.39,1.82.07,2.65.22.4.53.73.88.98h0Z"/>
    </g>
    <g>
      <path class="cls-8" d="m128.07,120l-10.99-3.6c-.91-.3-1.95.05-2.39.9-.56,1.08,0,2.35,1.1,2.72l3.08,1.01c.36.12.55.5.43.85l-3.16,9.65c-.3.91.05,1.95.9,2.39,1.08.56,2.35,0,2.71-1.1l3.19-9.75c.12-.36.5-.55.85-.43l2.98.98c.91.3,1.95-.05,2.39-.9.56-1.08,0-2.36-1.1-2.72Z"/>
      <path class="cls-2" d="m116.42,116.29c.22,0,.44.03.66.1l10.99,3.6c1.11.36,1.66,1.64,1.1,2.72-.33.65-1.02,1-1.73,1-.22,0-.44-.03-.66-.1l-2.98-.98c-.07-.02-.14-.03-.21-.03-.28,0-.55.18-.64.47l-3.19,9.75c-.26.81-1.01,1.32-1.82,1.32-.3,0-.6-.07-.89-.22-.85-.44-1.2-1.48-.9-2.39l3.16-9.65c.12-.36-.08-.74-.43-.85l-3.08-1.01c-1.11-.36-1.66-1.64-1.1-2.72.33-.65,1.02-1,1.73-1m0-1.6c-1.35,0-2.56.71-3.15,1.86-.48.93-.53,2.01-.14,2.96.39.96,1.18,1.69,2.16,2.01l2.2.72-2.87,8.77c-.55,1.68.18,3.53,1.69,4.31.5.26,1.07.4,1.63.4,1.52,0,2.87-.97,3.34-2.42l2.9-8.87,2.1.69c.37.12.76.18,1.16.18,1.35,0,2.56-.71,3.15-1.86.48-.93.53-2.01.14-2.96-.39-.96-1.18-1.69-2.16-2.01l-10.99-3.6c-.37-.12-.76-.18-1.16-.18h0Z"/>
    </g>
  </g>
</svg>