<?xml version="1.0" encoding="UTF-8"?>
<svg id="Layer_2" data-name="Layer 2" xmlns="http://www.w3.org/2000/svg" viewBox="0 0 150.31 197.79">
  <defs>
    <style>
      .cls-1 {
        fill: #fff;
      }

      .cls-2 {
        fill: #95e0e6;
      }

      .cls-3 {
        fill: #565656;
      }

      .cls-4 {
        fill: #363636;
      }

      .cls-5 {
        fill: #33b0da;
      }

      .cls-6 {
        fill: #8dc05f;
      }

      .cls-7 {
        fill: #ffdfbc;
      }

      .cls-8 {
        fill: #ffd964;
      }

      .cls-9 {
        fill: #d5d5d5;
      }

      .cls-10 {
        fill: #b9b9b9;
      }
    </style>
  </defs>
  <g id="_背景ドット" data-name="背景ドット">
    <g>
      <path class="cls-1" d="m145.86,44.42c0,.33.27.59.59.59s.59-.27.59-.59-.27-.59-.59-.59-.59.27-.59.59Z"/>
      <path class="cls-1" d="m147.86,40.95c0,.33.27.59.59.59.05,0,.09-.02.13-.03-.15-.35-.31-.7-.48-1.04-.15.11-.25.27-.25.47Z"/>
      <path class="cls-1" d="m150.31,50.81c-.25.07-.44.29-.44.56,0,.25.16.46.37.55.03-.37.05-.74.07-1.11Z"/>
      <path class="cls-1" d="m146.45,50.78c-.33,0-.59.27-.59.59s.27.59.59.59.59-.27.59-.59-.27-.59-.59-.59Z"/>
      <path class="cls-1" d="m148.46,47.3c-.33,0-.59.27-.59.59s.27.59.59.59.59-.27.59-.59-.27-.59-.59-.59Z"/>
      <path class="cls-1" d="m146.45,57.73c-.33,0-.59.27-.59.59s.27.59.59.59.59-.27.59-.59-.27-.59-.59-.59Z"/>
      <circle class="cls-1" cx="148.46" cy="54.85" r=".59"/>
      <path class="cls-1" d="m142.44,43.83c-.33,0-.59.27-.59.59s.27.59.59.59.59-.27.59-.59-.27-.59-.59-.59Z"/>
      <path class="cls-1" d="m144.44,41.54c.33,0,.59-.27.59-.59s-.27-.59-.59-.59-.59.27-.59.59.27.59.59.59Z"/>
      <path class="cls-1" d="m145.86,37.47c0,.33.27.59.59.59.09,0,.17-.02.24-.06-.21-.32-.44-.64-.67-.95-.1.11-.17.25-.17.41Z"/>
      <circle class="cls-1" cx="142.44" cy="51.37" r=".59"/>
      <path class="cls-1" d="m145.04,47.9c0-.33-.27-.59-.59-.59s-.59.27-.59.59.27.59.59.59.59-.27.59-.59Z"/>
      <circle class="cls-1" cx="142.44" cy="58.32" r=".59"/>
      <path class="cls-1" d="m143.85,54.85c0,.33.27.59.59.59s.59-.27.59-.59-.27-.59-.59-.59-.59.27-.59.59Z"/>
      <circle class="cls-1" cx="142.44" cy="65.28" r=".59"/>
      <path class="cls-1" d="m145.04,61.8c0-.33-.27-.59-.59-.59s-.59.27-.59.59.27.59.59.59.59-.27.59-.59Z"/>
      <path class="cls-1" d="m138.42,36.88c-.33,0-.59.27-.59.59s.27.59.59.59.59-.27.59-.59-.27-.59-.59-.59Z"/>
      <path class="cls-1" d="m140.43,34.59c.33,0,.59-.27.59-.59s-.27-.59-.59-.59-.59.27-.59.59.27.59.59.59Z"/>
      <path class="cls-1" d="m138.42,43.83c-.33,0-.59.27-.59.59s.27.59.59.59.59-.27.59-.59-.27-.59-.59-.59Z"/>
      <path class="cls-1" d="m141.02,40.95c0-.33-.27-.59-.59-.59s-.59.27-.59.59.27.59.59.59.59-.27.59-.59Z"/>
      <circle class="cls-1" cx="142.44" cy="37.47" r=".59"/>
      <path class="cls-1" d="m138.42,50.78c-.33,0-.59.27-.59.59s.27.59.59.59.59-.27.59-.59-.27-.59-.59-.59Z"/>
      <path class="cls-1" d="m141.02,47.9c0-.33-.27-.59-.59-.59s-.59.27-.59.59.27.59.59.59.59-.27.59-.59Z"/>
      <path class="cls-1" d="m138.42,57.73c-.33,0-.59.27-.59.59s.27.59.59.59.59-.27.59-.59-.27-.59-.59-.59Z"/>
      <path class="cls-1" d="m139.84,54.85c0,.33.27.59.59.59s.59-.27.59-.59-.27-.59-.59-.59-.59.27-.59.59Z"/>
      <path class="cls-1" d="m138.42,64.68c-.33,0-.59.27-.59.59s.27.59.59.59.59-.27.59-.59-.27-.59-.59-.59Z"/>
      <path class="cls-1" d="m139.84,61.8c0,.33.27.59.59.59s.59-.27.59-.59-.27-.59-.59-.59-.59.27-.59.59Z"/>
      <path class="cls-1" d="m139.86,68.66c.25-.15.49-.31.73-.47-.05-.01-.1-.03-.16-.03-.3,0-.53.22-.57.5Z"/>
      <circle class="cls-1" cx="134.41" cy="30.52" r=".59"/>
      <circle class="cls-1" cx="134.41" cy="37.47" r=".59"/>
      <circle class="cls-1" cx="136.42" cy="33.99" r=".59"/>
      <path class="cls-1" d="m137.83,30.52c0,.33.27.59.59.59.19,0,.35-.09.46-.23-.33-.18-.68-.35-1.02-.51-.01.05-.03.1-.03.15Z"/>
      <path class="cls-1" d="m134.41,43.83c-.33,0-.59.27-.59.59s.27.59.59.59.59-.27.59-.59-.27-.59-.59-.59Z"/>
      <circle class="cls-1" cx="136.42" cy="40.95" r=".59"/>
      <circle class="cls-1" cx="134.41" cy="51.37" r=".59"/>
      <path class="cls-1" d="m137.01,47.9c0-.33-.27-.59-.59-.59s-.59.27-.59.59.27.59.59.59.59-.27.59-.59Z"/>
      <circle class="cls-1" cx="134.41" cy="58.32" r=".59"/>
      <circle class="cls-1" cx="136.42" cy="54.85" r=".59"/>
      <circle class="cls-1" cx="134.41" cy="65.28" r=".59"/>
      <circle class="cls-1" cx="136.42" cy="61.8" r=".59"/>
      <path class="cls-1" d="m135.82,68.75c0,.33.27.59.59.59s.59-.27.59-.59-.27-.59-.59-.59-.59.27-.59.59Z"/>
      <path class="cls-1" d="m130.4,29.92c-.33,0-.59.27-.59.59s.27.59.59.59.59-.27.59-.59-.27-.59-.59-.59Z"/>
      <path class="cls-1" d="m130.4,36.88c-.33,0-.59.27-.59.59s.27.59.59.59.59-.27.59-.59-.27-.59-.59-.59Z"/>
      <path class="cls-1" d="m133,33.99c0-.33-.27-.59-.59-.59s-.59.27-.59.59.27.59.59.59.59-.27.59-.59Z"/>
      <path class="cls-1" d="m130.4,43.83c-.33,0-.59.27-.59.59s.27.59.59.59.59-.27.59-.59-.27-.59-.59-.59Z"/>
      <path class="cls-1" d="m132.4,40.35c-.33,0-.59.27-.59.59s.27.59.59.59.59-.27.59-.59-.27-.59-.59-.59Z"/>
      <path class="cls-1" d="m130.4,50.78c-.33,0-.59.27-.59.59s.27.59.59.59.59-.27.59-.59-.27-.59-.59-.59Z"/>
      <path class="cls-1" d="m133,47.9c0-.33-.27-.59-.59-.59s-.59.27-.59.59.27.59.59.59.59-.27.59-.59Z"/>
      <path class="cls-1" d="m130.4,57.73c-.33,0-.59.27-.59.59s.27.59.59.59.59-.27.59-.59-.27-.59-.59-.59Z"/>
      <path class="cls-1" d="m131.81,54.85c0,.33.27.59.59.59s.59-.27.59-.59-.27-.59-.59-.59-.59.27-.59.59Z"/>
      <path class="cls-1" d="m130.4,64.68c-.33,0-.59.27-.59.59s.27.59.59.59.59-.27.59-.59-.27-.59-.59-.59Z"/>
      <path class="cls-1" d="m131.81,61.8c0,.33.27.59.59.59s.59-.27.59-.59-.27-.59-.59-.59-.59.27-.59.59Z"/>
      <path class="cls-1" d="m130.67,71.71c-.08-.04-.17-.08-.27-.08-.13,0-.24.05-.34.12.21-.01.41-.03.62-.05Z"/>
      <path class="cls-1" d="m131.81,68.75c0,.33.27.59.59.59s.59-.27.59-.59-.27-.59-.59-.59-.59.27-.59.59Z"/>
      <path class="cls-1" d="m126.38,29.92c-.33,0-.59.27-.59.59s.27.59.59.59.59-.27.59-.59-.27-.59-.59-.59Z"/>
      <path class="cls-1" d="m126.38,36.88c-.33,0-.59.27-.59.59s.27.59.59.59.59-.27.59-.59-.27-.59-.59-.59Z"/>
      <circle class="cls-1" cx="128.39" cy="33.99" r=".59"/>
      <circle class="cls-1" cx="128.39" cy="40.95" r=".59"/>
      <path class="cls-1" d="m126.38,50.78c-.33,0-.59.27-.59.59s.27.59.59.59.59-.27.59-.59-.27-.59-.59-.59Z"/>
      <path class="cls-1" d="m128.39,48.49c.33,0,.59-.27.59-.59s-.27-.59-.59-.59-.59.27-.59.59.27.59.59.59Z"/>
      <path class="cls-1" d="m126.38,57.73c-.33,0-.59.27-.59.59s.27.59.59.59.59-.27.59-.59-.27-.59-.59-.59Z"/>
      <circle class="cls-1" cx="128.39" cy="54.85" r=".59"/>
      <path class="cls-1" d="m126.38,64.68c-.33,0-.59.27-.59.59s.27.59.59.59.59-.27.59-.59-.27-.59-.59-.59Z"/>
      <circle class="cls-1" cx="128.39" cy="61.8" r=".59"/>
      <path class="cls-1" d="m126.68,71.73c-.09-.05-.19-.09-.3-.09-.08,0-.15.02-.22.04.17.02.34.03.51.05Z"/>
      <path class="cls-1" d="m127.8,68.75c0,.33.27.59.59.59s.59-.27.59-.59-.27-.59-.59-.59-.59.27-.59.59Z"/>
      <circle class="cls-1" cx="122.37" cy="30.52" r=".59"/>
      <path class="cls-1" d="m124.97,33.99c0-.33-.27-.59-.59-.59s-.59.27-.59.59.27.59.59.59.59-.27.59-.59Z"/>
      <path class="cls-1" d="m122.37,43.83c-.33,0-.59.27-.59.59s.27.59.59.59.59-.27.59-.59-.27-.59-.59-.59Z"/>
      <path class="cls-1" d="m124.38,41.54c.33,0,.59-.27.59-.59s-.27-.59-.59-.59-.59.27-.59.59.27.59.59.59Z"/>
      <circle class="cls-1" cx="122.37" cy="51.37" r=".59"/>
      <path class="cls-1" d="m124.97,47.9c0-.33-.27-.59-.59-.59s-.59.27-.59.59.27.59.59.59.59-.27.59-.59Z"/>
      <path class="cls-1" d="m126.38,45.02c.33,0,.59-.27.59-.59s-.27-.59-.59-.59-.59.27-.59.59.27.59.59.59Z"/>
      <circle class="cls-1" cx="122.37" cy="58.32" r=".59"/>
      <path class="cls-1" d="m123.78,54.85c0,.33.27.59.59.59s.59-.27.59-.59-.27-.59-.59-.59-.59.27-.59.59Z"/>
      <circle class="cls-1" cx="122.37" cy="65.28" r=".59"/>
      <path class="cls-1" d="m123.78,61.8c0,.33.27.59.59.59s.59-.27.59-.59-.27-.59-.59-.59-.59.27-.59.59Z"/>
      <path class="cls-1" d="m123.78,68.75c0,.33.27.59.59.59s.59-.27.59-.59-.27-.59-.59-.59-.59.27-.59.59Z"/>
      <path class="cls-1" d="m118.36,36.88c-.33,0-.59.27-.59.59s.27.59.59.59.59-.27.59-.59-.27-.59-.59-.59Z"/>
      <circle class="cls-1" cx="120.36" cy="33.99" r=".59"/>
      <path class="cls-1" d="m118.36,31.11c.32,0,.59-.26.59-.58-.31.15-.61.31-.91.48.09.06.2.11.32.11Z"/>
      <path class="cls-1" d="m118.36,43.83c-.33,0-.59.27-.59.59s.27.59.59.59.59-.27.59-.59-.27-.59-.59-.59Z"/>
      <circle class="cls-1" cx="120.36" cy="40.95" r=".59"/>
      <circle class="cls-1" cx="122.37" cy="37.47" r=".59"/>
      <path class="cls-1" d="m118.36,50.78c-.33,0-.59.27-.59.59s.27.59.59.59.59-.27.59-.59-.27-.59-.59-.59Z"/>
      <path class="cls-1" d="m120.96,47.9c0-.33-.27-.59-.59-.59s-.59.27-.59.59.27.59.59.59.59-.27.59-.59Z"/>
      <path class="cls-1" d="m118.36,57.73c-.33,0-.59.27-.59.59s.27.59.59.59.59-.27.59-.59-.27-.59-.59-.59Z"/>
      <circle class="cls-1" cx="120.36" cy="54.85" r=".59"/>
      <path class="cls-1" d="m118.36,64.68c-.33,0-.59.27-.59.59s.27.59.59.59.59-.27.59-.59-.27-.59-.59-.59Z"/>
      <circle class="cls-1" cx="120.36" cy="61.8" r=".59"/>
      <path class="cls-1" d="m119.77,68.75c0,.33.27.59.59.59s.59-.27.59-.59-.27-.59-.59-.59-.59.27-.59.59Z"/>
      <circle class="cls-1" cx="114.34" cy="37.47" r=".59"/>
      <path class="cls-1" d="m116.94,33.99c0-.33-.27-.59-.59-.59s-.59.27-.59.59.27.59.59.59.59-.27.59-.59Z"/>
      <path class="cls-1" d="m116.35,40.35c-.33,0-.59.27-.59.59s.27.59.59.59.59-.27.59-.59-.27-.59-.59-.59Z"/>
      <path class="cls-1" d="m116.94,47.9c0-.33-.27-.59-.59-.59s-.59.27-.59.59.27.59.59.59.59-.27.59-.59Z"/>
      <path class="cls-1" d="m115.76,54.85c0,.33.27.59.59.59s.59-.27.59-.59-.27-.59-.59-.59-.59.27-.59.59Z"/>
      <circle class="cls-1" cx="114.34" cy="65.28" r=".59"/>
      <path class="cls-1" d="m115.76,61.8c0,.33.27.59.59.59s.59-.27.59-.59-.27-.59-.59-.59-.59.27-.59.59Z"/>
      <path class="cls-1" d="m116.76,68.33c-.06-.05-.12-.1-.2-.13.07.04.13.08.2.13Z"/>
      <circle class="cls-1" cx="112.34" cy="40.95" r=".59"/>
      <path class="cls-1" d="m110.42,38.05c.28-.04.51-.28.51-.58,0-.04-.02-.08-.02-.12-.16.23-.33.46-.48.69Z"/>
      <path class="cls-1" d="m110.33,50.78c-.33,0-.59.27-.59.59s.27.59.59.59.59-.27.59-.59-.27-.59-.59-.59Z"/>
      <path class="cls-1" d="m111.74,47.9c0,.33.27.59.59.59s.59-.27.59-.59-.27-.59-.59-.59-.59.27-.59.59Z"/>
      <path class="cls-1" d="m114.34,45.02c.33,0,.59-.27.59-.59s-.27-.59-.59-.59-.59.27-.59.59.27.59.59.59Z"/>
      <path class="cls-1" d="m110.33,57.73c-.33,0-.59.27-.59.59s.27.59.59.59.59-.27.59-.59-.27-.59-.59-.59Z"/>
      <circle class="cls-1" cx="112.34" cy="54.85" r=".59"/>
      <circle class="cls-1" cx="114.34" cy="51.37" r=".59"/>
      <circle class="cls-1" cx="112.34" cy="61.8" r=".59"/>
      <circle class="cls-1" cx="114.34" cy="58.32" r=".59"/>
      <path class="cls-1" d="m108.92,40.95c0-.06-.02-.12-.04-.17-.11.24-.22.48-.33.72.21-.09.36-.3.36-.55Z"/>
      <path class="cls-1" d="m108.32,48.49c.33,0,.59-.27.59-.59s-.27-.59-.59-.59-.59.27-.59.59.27.59.59.59Z"/>
      <path class="cls-1" d="m110.33,45.02c.33,0,.59-.27.59-.59s-.27-.59-.59-.59-.59.27-.59.59.27.59.59.59Z"/>
      <path class="cls-1" d="m108.92,54.85c0-.33-.27-.59-.59-.59s-.59.27-.59.59.27.59.59.59.59-.27.59-.59Z"/>
      <path class="cls-1" d="m106.91,51.37c0-.1-.03-.19-.08-.28,0,.17.02.33.03.49.03-.07.04-.14.04-.22Z"/>
    </g>
    <g>
      <circle class="cls-1" cx="62.17" cy="134.79" r=".59"/>
      <path class="cls-1" d="m62.55,127.4c-.1-.09-.23-.15-.38-.15-.33,0-.59.27-.59.59s.27.59.59.59c.23,0,.43-.14.52-.33-.05-.24-.09-.47-.14-.71Z"/>
      <path class="cls-1" d="m58.15,120.3c-.33,0-.59.27-.59.59s.27.59.59.59.59-.27.59-.59-.27-.59-.59-.59Z"/>
      <path class="cls-1" d="m58.15,127.25c-.33,0-.59.27-.59.59s.27.59.59.59.59-.27.59-.59-.27-.59-.59-.59Z"/>
      <path class="cls-1" d="m59.57,124.37c0,.33.27.59.59.59s.59-.27.59-.59-.27-.59-.59-.59-.59.27-.59.59Z"/>
      <path class="cls-1" d="m58.15,134.2c-.33,0-.59.27-.59.59s.27.59.59.59.59-.27.59-.59-.27-.59-.59-.59Z"/>
      <path class="cls-1" d="m60.16,130.72c-.33,0-.59.27-.59.59s.27.59.59.59.59-.27.59-.59-.27-.59-.59-.59Z"/>
      <path class="cls-1" d="m61.57,141.75c0,.33.26.59.59.59.1-.37.19-.74.28-1.11-.08-.04-.17-.07-.27-.07-.33,0-.59.27-.59.59Z"/>
      <path class="cls-1" d="m60.16,137.68c-.33,0-.59.27-.59.59s.27.59.59.59.59-.27.59-.59-.27-.59-.59-.59Z"/>
      <path class="cls-1" d="m60.16,145.82c.33,0,.59-.27.59-.59s-.27-.59-.59-.59-.59.27-.59.59.27.59.59.59Z"/>
      <path class="cls-1" d="m54.14,113.35c-.33,0-.59.27-.59.59s.27.59.59.59.59-.27.59-.59-.27-.59-.59-.59Z"/>
      <path class="cls-1" d="m54.14,120.3c-.33,0-.59.27-.59.59s.27.59.59.59.59-.27.59-.59-.27-.59-.59-.59Z"/>
      <circle class="cls-1" cx="56.15" cy="117.41" r=".59"/>
      <path class="cls-1" d="m54.14,127.25c-.33,0-.59.27-.59.59s.27.59.59.59.59-.27.59-.59-.27-.59-.59-.59Z"/>
      <path class="cls-1" d="m56.74,124.37c0-.33-.27-.59-.59-.59s-.59.27-.59.59.27.59.59.59.59-.27.59-.59Z"/>
      <path class="cls-1" d="m54.14,134.2c-.33,0-.59.27-.59.59s.27.59.59.59.59-.27.59-.59-.27-.59-.59-.59Z"/>
      <circle class="cls-1" cx="56.15" cy="131.32" r=".59"/>
      <path class="cls-1" d="m54.14,141.15c-.33,0-.59.27-.59.59s.27.59.59.59.59-.27.59-.59-.27-.59-.59-.59Z"/>
      <circle class="cls-1" cx="56.15" cy="138.27" r=".59"/>
      <path class="cls-1" d="m54.14,148.1c-.33,0-.59.27-.59.59s.27.59.59.59.59-.27.59-.59-.27-.59-.59-.59Z"/>
      <path class="cls-1" d="m55.55,145.22c0,.33.27.59.59.59s.59-.27.59-.59-.27-.59-.59-.59-.59.27-.59.59Z"/>
      <path class="cls-1" d="m58.15,142.34c.33,0,.59-.27.59-.59s-.27-.59-.59-.59-.59.27-.59.59.27.59.59.59Z"/>
      <circle class="cls-1" cx="56.15" cy="152.17" r=".59"/>
      <path class="cls-1" d="m58.15,149.29c.33,0,.59-.27.59-.59s-.27-.59-.59-.59-.59.27-.59.59.27.59.59.59Z"/>
      <path class="cls-1" d="m54.14,155.06c-.33,0-.59.27-.59.59s.27.59.59.59c.03,0,.05-.01.07-.01.17-.18.35-.36.52-.54,0-.01,0-.03,0-.04,0-.33-.27-.59-.59-.59Z"/>
      <circle class="cls-1" cx="50.12" cy="113.94" r=".59"/>
      <path class="cls-1" d="m51.54,110.46c0,.33.27.59.59.59s.57-.25.59-.57c-.23-.2-.46-.4-.69-.6-.28.05-.49.28-.49.57Z"/>
      <path class="cls-1" d="m50.12,120.3c-.33,0-.59.27-.59.59s.27.59.59.59.59-.27.59-.59-.27-.59-.59-.59Z"/>
      <path class="cls-1" d="m52.73,117.41c0-.33-.27-.59-.59-.59s-.59.27-.59.59.27.59.59.59.59-.27.59-.59Z"/>
      <circle class="cls-1" cx="50.12" cy="127.84" r=".59"/>
      <path class="cls-1" d="m52.73,124.37c0-.33-.27-.59-.59-.59s-.59.27-.59.59.27.59.59.59.59-.27.59-.59Z"/>
      <circle class="cls-1" cx="50.12" cy="134.79" r=".59"/>
      <path class="cls-1" d="m52.73,131.32c0-.33-.27-.59-.59-.59s-.59.27-.59.59.27.59.59.59.59-.27.59-.59Z"/>
      <circle class="cls-1" cx="50.12" cy="141.75" r=".59"/>
      <path class="cls-1" d="m51.54,138.27c0,.33.27.59.59.59s.59-.27.59-.59-.27-.59-.59-.59-.59.27-.59.59Z"/>
      <path class="cls-1" d="m50.12,148.1c-.33,0-.59.27-.59.59s.27.59.59.59.59-.27.59-.59-.27-.59-.59-.59Z"/>
      <path class="cls-1" d="m51.54,145.22c0,.33.27.59.59.59s.59-.27.59-.59-.27-.59-.59-.59-.59.27-.59.59Z"/>
      <circle class="cls-1" cx="50.12" cy="155.65" r=".59"/>
      <path class="cls-1" d="m51.54,152.17c0,.33.27.59.59.59s.59-.27.59-.59-.27-.59-.59-.59-.59.27-.59.59Z"/>
      <path class="cls-1" d="m46.11,106.39c-.33,0-.59.27-.59.59s.27.59.59.59.59-.27.59-.59-.27-.59-.59-.59Z"/>
      <path class="cls-1" d="m46.11,113.35c-.33,0-.59.27-.59.59s.27.59.59.59.59-.27.59-.59-.27-.59-.59-.59Z"/>
      <circle class="cls-1" cx="48.12" cy="110.46" r=".59"/>
      <path class="cls-1" d="m46.11,120.3c-.33,0-.59.27-.59.59s.27.59.59.59.59-.27.59-.59-.27-.59-.59-.59Z"/>
      <circle class="cls-1" cx="48.12" cy="117.41" r=".59"/>
      <path class="cls-1" d="m46.11,127.25c-.33,0-.59.27-.59.59s.27.59.59.59.59-.27.59-.59-.27-.59-.59-.59Z"/>
      <path class="cls-1" d="m48.71,124.37c0-.33-.27-.59-.59-.59s-.59.27-.59.59.27.59.59.59.59-.27.59-.59Z"/>
      <circle class="cls-1" cx="48.12" cy="131.32" r=".59"/>
      <circle class="cls-1" cx="48.12" cy="138.27" r=".59"/>
      <path class="cls-1" d="m47.52,145.22c0,.33.27.59.59.59s.59-.27.59-.59-.27-.59-.59-.59-.59.27-.59.59Z"/>
      <circle class="cls-1" cx="48.12" cy="152.17" r=".59"/>
      <path class="cls-1" d="m45.54,162.51c.28-.14.56-.28.84-.43-.08-.04-.17-.07-.27-.07-.29,0-.53.22-.57.5Z"/>
      <circle class="cls-1" cx="48.12" cy="159.13" r=".59"/>
      <circle class="cls-1" cx="42.1" cy="106.99" r=".59"/>
      <circle class="cls-1" cx="42.1" cy="113.94" r=".59"/>
      <path class="cls-1" d="m44.7,110.46c0-.33-.27-.59-.59-.59s-.59.27-.59.59.27.59.59.59.59-.27.59-.59Z"/>
      <path class="cls-1" d="m42.1,120.3c-.33,0-.59.27-.59.59s.27.59.59.59.59-.27.59-.59-.27-.59-.59-.59Z"/>
      <path class="cls-1" d="m44.7,117.41c0-.33-.27-.59-.59-.59s-.59.27-.59.59.27.59.59.59.59-.27.59-.59Z"/>
      <circle class="cls-1" cx="42.1" cy="127.84" r=".59"/>
      <path class="cls-1" d="m44.7,124.37c0-.33-.27-.59-.59-.59s-.59.27-.59.59.27.59.59.59.59-.27.59-.59Z"/>
      <circle class="cls-1" cx="42.1" cy="134.79" r=".59"/>
      <path class="cls-1" d="m43.51,131.32c0,.33.27.59.59.59s.59-.27.59-.59-.27-.59-.59-.59-.59.27-.59.59Z"/>
      <circle class="cls-1" cx="42.1" cy="141.75" r=".59"/>
      <path class="cls-1" d="m43.51,138.27c0,.33.27.59.59.59s.59-.27.59-.59-.27-.59-.59-.59-.59.27-.59.59Z"/>
      <path class="cls-1" d="m46.11,135.39c.33,0,.59-.27.59-.59s-.27-.59-.59-.59-.59.27-.59.59.27.59.59.59Z"/>
      <path class="cls-1" d="m42.1,148.1c-.33,0-.59.27-.59.59s.27.59.59.59.59-.27.59-.59-.27-.59-.59-.59Z"/>
      <path class="cls-1" d="m43.51,145.22c0,.33.27.59.59.59s.59-.27.59-.59-.27-.59-.59-.59-.59.27-.59.59Z"/>
      <path class="cls-1" d="m46.11,142.34c.33,0,.59-.27.59-.59s-.27-.59-.59-.59-.59.27-.59.59.27.59.59.59Z"/>
      <circle class="cls-1" cx="42.1" cy="155.65" r=".59"/>
      <path class="cls-1" d="m43.51,152.17c0,.33.27.59.59.59s.59-.27.59-.59-.27-.59-.59-.59-.59.27-.59.59Z"/>
      <path class="cls-1" d="m46.11,149.29c.33,0,.59-.27.59-.59s-.27-.59-.59-.59-.59.27-.59.59.27.59.59.59Z"/>
      <circle class="cls-1" cx="42.1" cy="162.6" r=".59"/>
      <path class="cls-1" d="m44.1,158.53c-.33,0-.59.27-.59.59s.27.59.59.59.59-.27.59-.59-.27-.59-.59-.59Z"/>
      <path class="cls-1" d="m46.11,156.24c.33,0,.59-.27.59-.59s-.27-.59-.59-.59-.59.27-.59.59.27.59.59.59Z"/>
      <path class="cls-1" d="m38.08,106.39c-.33,0-.59.27-.59.59s.27.59.59.59.59-.27.59-.59-.27-.59-.59-.59Z"/>
      <path class="cls-1" d="m40.09,104.11c.25,0,.47-.16.55-.38-.37-.11-.74-.22-1.12-.32,0,.04-.02.07-.02.11,0,.33.27.59.59.59Z"/>
      <path class="cls-1" d="m38.08,113.35c-.33,0-.59.27-.59.59s.27.59.59.59.59-.27.59-.59-.27-.59-.59-.59Z"/>
      <path class="cls-1" d="m40.68,110.46c0-.33-.27-.59-.59-.59s-.59.27-.59.59.27.59.59.59.59-.27.59-.59Z"/>
      <path class="cls-1" d="m38.08,120.3c-.33,0-.59.27-.59.59s.27.59.59.59.59-.27.59-.59-.27-.59-.59-.59Z"/>
      <path class="cls-1" d="m40.68,117.41c0-.33-.27-.59-.59-.59s-.59.27-.59.59.27.59.59.59.59-.27.59-.59Z"/>
      <path class="cls-1" d="m38.08,127.25c-.33,0-.59.27-.59.59s.27.59.59.59.59-.27.59-.59-.27-.59-.59-.59Z"/>
      <path class="cls-1" d="m40.68,124.37c0-.33-.27-.59-.59-.59s-.59.27-.59.59.27.59.59.59.59-.27.59-.59Z"/>
      <path class="cls-1" d="m38.08,134.2c-.33,0-.59.27-.59.59s.27.59.59.59.59-.27.59-.59-.27-.59-.59-.59Z"/>
      <path class="cls-1" d="m40.68,131.32c0-.33-.27-.59-.59-.59s-.59.27-.59.59.27.59.59.59.59-.27.59-.59Z"/>
      <path class="cls-1" d="m38.08,141.15c-.33,0-.59.27-.59.59s.27.59.59.59.59-.27.59-.59-.27-.59-.59-.59Z"/>
      <path class="cls-1" d="m39.5,138.27c0,.33.27.59.59.59s.59-.27.59-.59-.27-.59-.59-.59-.59.27-.59.59Z"/>
      <path class="cls-1" d="m38.08,148.1c-.33,0-.59.27-.59.59s.27.59.59.59.59-.27.59-.59-.27-.59-.59-.59Z"/>
      <path class="cls-1" d="m39.5,145.22c0,.33.27.59.59.59s.59-.27.59-.59-.27-.59-.59-.59-.59.27-.59.59Z"/>
      <path class="cls-1" d="m38.08,155.06c-.33,0-.59.27-.59.59s.27.59.59.59.59-.27.59-.59-.27-.59-.59-.59Z"/>
      <path class="cls-1" d="m39.5,152.17c0,.33.27.59.59.59s.59-.27.59-.59-.27-.59-.59-.59-.59.27-.59.59Z"/>
      <path class="cls-1" d="m38.08,162.01c-.33,0-.59.27-.59.59s.27.59.59.59.59-.27.59-.59-.27-.59-.59-.59Z"/>
      <path class="cls-1" d="m39.5,159.13c0,.33.27.59.59.59s.59-.27.59-.59-.27-.59-.59-.59-.59.27-.59.59Z"/>
      <circle class="cls-1" cx="34.07" cy="106.99" r=".59"/>
      <circle class="cls-1" cx="36.08" cy="103.51" r=".59"/>
      <circle class="cls-1" cx="34.07" cy="113.94" r=".59"/>
      <circle class="cls-1" cx="36.08" cy="110.46" r=".59"/>
      <path class="cls-1" d="m34.07,120.3c-.33,0-.59.27-.59.59s.27.59.59.59.59-.27.59-.59-.27-.59-.59-.59Z"/>
      <circle class="cls-1" cx="36.08" cy="117.41" r=".59"/>
      <circle class="cls-1" cx="34.07" cy="127.84" r=".59"/>
      <path class="cls-1" d="m36.67,124.37c0-.33-.27-.59-.59-.59s-.59.27-.59.59.27.59.59.59.59-.27.59-.59Z"/>
      <circle class="cls-1" cx="34.07" cy="134.79" r=".59"/>
      <circle class="cls-1" cx="36.08" cy="131.32" r=".59"/>
      <circle class="cls-1" cx="34.07" cy="141.75" r=".59"/>
      <circle class="cls-1" cx="36.08" cy="138.27" r=".59"/>
      <path class="cls-1" d="m34.07,148.1c-.33,0-.59.27-.59.59s.27.59.59.59.59-.27.59-.59-.27-.59-.59-.59Z"/>
      <path class="cls-1" d="m35.48,145.22c0,.33.27.59.59.59s.59-.27.59-.59-.27-.59-.59-.59-.59.27-.59.59Z"/>
      <circle class="cls-1" cx="34.07" cy="155.65" r=".59"/>
      <circle class="cls-1" cx="36.08" cy="152.17" r=".59"/>
      <circle class="cls-1" cx="34.07" cy="162.6" r=".59"/>
      <circle class="cls-1" cx="36.08" cy="159.13" r=".59"/>
      <path class="cls-1" d="m30.06,106.39c-.33,0-.59.27-.59.59s.27.59.59.59.59-.27.59-.59-.27-.59-.59-.59Z"/>
      <path class="cls-1" d="m32.66,103.51c0-.33-.27-.59-.59-.59s-.59.27-.59.59.27.59.59.59.59-.27.59-.59Z"/>
      <path class="cls-1" d="m30.06,113.35c-.33,0-.59.27-.59.59s.27.59.59.59.59-.27.59-.59-.27-.59-.59-.59Z"/>
      <path class="cls-1" d="m32.66,110.46c0-.33-.27-.59-.59-.59s-.59.27-.59.59.27.59.59.59.59-.27.59-.59Z"/>
      <path class="cls-1" d="m30.06,120.3c-.33,0-.59.27-.59.59s.27.59.59.59.59-.27.59-.59-.27-.59-.59-.59Z"/>
      <path class="cls-1" d="m32.66,117.41c0-.33-.27-.59-.59-.59s-.59.27-.59.59.27.59.59.59.59-.27.59-.59Z"/>
      <path class="cls-1" d="m30.06,127.25c-.33,0-.59.27-.59.59s.27.59.59.59.59-.27.59-.59-.27-.59-.59-.59Z"/>
      <path class="cls-1" d="m32.66,124.37c0-.33-.27-.59-.59-.59s-.59.27-.59.59.27.59.59.59.59-.27.59-.59Z"/>
      <path class="cls-1" d="m32.66,131.32c0-.33-.27-.59-.59-.59s-.59.27-.59.59.27.59.59.59.59-.27.59-.59Z"/>
      <path class="cls-1" d="m30.06,141.15c-.33,0-.59.27-.59.59s.27.59.59.59.59-.27.59-.59-.27-.59-.59-.59Z"/>
      <path class="cls-1" d="m31.47,138.27c0,.33.27.59.59.59s.59-.27.59-.59-.27-.59-.59-.59-.59.27-.59.59Z"/>
      <path class="cls-1" d="m30.06,148.1c-.33,0-.59.27-.59.59s.27.59.59.59.59-.27.59-.59-.27-.59-.59-.59Z"/>
      <path class="cls-1" d="m31.47,145.22c0,.33.27.59.59.59s.59-.27.59-.59-.27-.59-.59-.59-.59.27-.59.59Z"/>
      <path class="cls-1" d="m30.06,155.06c-.33,0-.59.27-.59.59s.27.59.59.59.59-.27.59-.59-.27-.59-.59-.59Z"/>
      <path class="cls-1" d="m31.47,152.17c0,.33.27.59.59.59s.59-.27.59-.59-.27-.59-.59-.59-.59.27-.59.59Z"/>
      <path class="cls-1" d="m30.06,162.01c-.33,0-.59.27-.59.59s.27.59.59.59.59-.27.59-.59-.27-.59-.59-.59Z"/>
      <path class="cls-1" d="m31.47,159.13c0,.33.27.59.59.59s.59-.27.59-.59-.27-.59-.59-.59-.59.27-.59.59Z"/>
      <path class="cls-1" d="m32.06,165.48c-.2,0-.37.11-.48.26,0,0,0,0,0,0,.31,0,.62-.01.94-.02-.11-.14-.27-.24-.46-.24Z"/>
      <circle class="cls-1" cx="26.04" cy="106.99" r=".59"/>
      <circle class="cls-1" cx="28.05" cy="103.51" r=".59"/>
      <circle class="cls-1" cx="26.04" cy="113.94" r=".59"/>
      <circle class="cls-1" cx="28.05" cy="110.46" r=".59"/>
      <path class="cls-1" d="m26.04,120.3c-.33,0-.59.27-.59.59s.27.59.59.59.59-.27.59-.59-.27-.59-.59-.59Z"/>
      <circle class="cls-1" cx="28.05" cy="117.41" r=".59"/>
      <path class="cls-1" d="m28.64,124.37c0-.33-.27-.59-.59-.59s-.59.27-.59.59.27.59.59.59.59-.27.59-.59Z"/>
      <circle class="cls-1" cx="26.04" cy="134.79" r=".59"/>
      <circle class="cls-1" cx="28.05" cy="131.32" r=".59"/>
      <circle class="cls-1" cx="26.04" cy="141.75" r=".59"/>
      <circle class="cls-1" cx="28.05" cy="138.27" r=".59"/>
      <path class="cls-1" d="m30.06,135.39c.33,0,.59-.27.59-.59s-.27-.59-.59-.59-.59.27-.59.59.27.59.59.59Z"/>
      <path class="cls-1" d="m26.04,148.1c-.33,0-.59.27-.59.59s.27.59.59.59.59-.27.59-.59-.27-.59-.59-.59Z"/>
      <path class="cls-1" d="m27.46,145.22c0,.33.27.59.59.59s.59-.27.59-.59-.27-.59-.59-.59-.59.27-.59.59Z"/>
      <circle class="cls-1" cx="26.04" cy="155.65" r=".59"/>
      <circle class="cls-1" cx="28.05" cy="152.17" r=".59"/>
      <circle class="cls-1" cx="26.04" cy="162.6" r=".59"/>
      <circle class="cls-1" cx="28.05" cy="159.13" r=".59"/>
      <path class="cls-1" d="m27.88,165.52c.16.02.32.04.48.06-.09-.06-.19-.1-.3-.1-.06,0-.12.02-.17.04Z"/>
      <path class="cls-1" d="m22.03,106.39c-.33,0-.59.27-.59.59s.27.59.59.59.59-.27.59-.59-.27-.59-.59-.59Z"/>
      <path class="cls-1" d="m24.04,104.11c.33,0,.59-.27.59-.59,0-.12-.04-.22-.1-.31-.36.08-.72.17-1.08.26,0,.02-.01.03-.01.05,0,.33.27.59.59.59Z"/>
      <path class="cls-1" d="m22.03,113.35c-.33,0-.59.27-.59.59s.27.59.59.59.59-.27.59-.59-.27-.59-.59-.59Z"/>
      <path class="cls-1" d="m24.63,110.46c0-.33-.27-.59-.59-.59s-.59.27-.59.59.27.59.59.59.59-.27.59-.59Z"/>
      <path class="cls-1" d="m24.63,117.41c0-.33-.27-.59-.59-.59s-.59.27-.59.59.27.59.59.59.59-.27.59-.59Z"/>
      <path class="cls-1" d="m22.03,127.25c-.33,0-.59.27-.59.59s.27.59.59.59.59-.27.59-.59-.27-.59-.59-.59Z"/>
      <path class="cls-1" d="m24.04,124.96c.33,0,.59-.27.59-.59s-.27-.59-.59-.59-.59.27-.59.59.27.59.59.59Z"/>
      <path class="cls-1" d="m22.03,134.2c-.33,0-.59.27-.59.59s.27.59.59.59.59-.27.59-.59-.27-.59-.59-.59Z"/>
      <path class="cls-1" d="m24.63,131.32c0-.33-.27-.59-.59-.59s-.59.27-.59.59.27.59.59.59.59-.27.59-.59Z"/>
      <circle class="cls-1" cx="26.04" cy="127.84" r=".59"/>
      <path class="cls-1" d="m22.03,141.15c-.33,0-.59.27-.59.59s.27.59.59.59.59-.27.59-.59-.27-.59-.59-.59Z"/>
      <path class="cls-1" d="m23.44,138.27c0,.33.27.59.59.59s.59-.27.59-.59-.27-.59-.59-.59-.59.27-.59.59Z"/>
      <path class="cls-1" d="m22.03,148.1c-.33,0-.59.27-.59.59s.27.59.59.59.59-.27.59-.59-.27-.59-.59-.59Z"/>
      <path class="cls-1" d="m23.44,145.22c0,.33.27.59.59.59s.59-.27.59-.59-.27-.59-.59-.59-.59.27-.59.59Z"/>
      <path class="cls-1" d="m22.03,155.06c-.33,0-.59.27-.59.59s.27.59.59.59.59-.27.59-.59-.27-.59-.59-.59Z"/>
      <path class="cls-1" d="m23.44,152.17c0,.33.27.59.59.59s.59-.27.59-.59-.27-.59-.59-.59-.59.27-.59.59Z"/>
      <path class="cls-1" d="m22.03,162.01c-.33,0-.59.27-.59.59s.27.59.59.59.59-.27.59-.59-.27-.59-.59-.59Z"/>
      <path class="cls-1" d="m23.44,159.13c0,.33.27.59.59.59s.59-.27.59-.59-.27-.59-.59-.59-.59.27-.59.59Z"/>
      <path class="cls-1" d="m18.02,106.39c-.33,0-.59.27-.59.59s.27.59.59.59.59-.27.59-.59-.27-.59-.59-.59Z"/>
      <circle class="cls-1" cx="20.02" cy="110.46" r=".59"/>
      <path class="cls-1" d="m18.02,120.3c-.33,0-.59.27-.59.59s.27.59.59.59.59-.27.59-.59-.27-.59-.59-.59Z"/>
      <circle class="cls-1" cx="20.02" cy="117.41" r=".59"/>
      <path class="cls-1" d="m18.02,127.25c-.33,0-.59.27-.59.59s.27.59.59.59.59-.27.59-.59-.27-.59-.59-.59Z"/>
      <path class="cls-1" d="m20.62,124.37c0-.33-.27-.59-.59-.59s-.59.27-.59.59.27.59.59.59.59-.27.59-.59Z"/>
      <path class="cls-1" d="m22.03,121.48c.33,0,.59-.27.59-.59s-.27-.59-.59-.59-.59.27-.59.59.27.59.59.59Z"/>
      <circle class="cls-1" cx="20.02" cy="131.32" r=".59"/>
      <circle class="cls-1" cx="20.02" cy="138.27" r=".59"/>
      <path class="cls-1" d="m19.43,145.22c0,.33.27.59.59.59s.59-.27.59-.59-.27-.59-.59-.59-.59.27-.59.59Z"/>
      <circle class="cls-1" cx="20.02" cy="152.17" r=".59"/>
      <circle class="cls-1" cx="20.02" cy="159.13" r=".59"/>
      <path class="cls-1" d="m18.02,162.01c-.26,0-.48.17-.56.41.35.17.7.34,1.05.5.06-.09.1-.2.1-.31,0-.33-.27-.59-.59-.59Z"/>
      <circle class="cls-1" cx="14" cy="113.94" r=".59"/>
      <path class="cls-1" d="m16.01,111.06c.33,0,.59-.27.59-.59s-.27-.59-.59-.59-.59.27-.59.59.27.59.59.59Z"/>
      <path class="cls-1" d="m14,120.3c-.33,0-.59.27-.59.59s.27.59.59.59.59-.27.59-.59-.27-.59-.59-.59Z"/>
      <path class="cls-1" d="m16.6,117.41c0-.33-.27-.59-.59-.59s-.59.27-.59.59.27.59.59.59.59-.27.59-.59Z"/>
      <path class="cls-1" d="m18.02,114.53c.33,0,.59-.27.59-.59s-.27-.59-.59-.59-.59.27-.59.59.27.59.59.59Z"/>
      <circle class="cls-1" cx="14" cy="127.84" r=".59"/>
      <path class="cls-1" d="m16.6,124.37c0-.33-.27-.59-.59-.59s-.59.27-.59.59.27.59.59.59.59-.27.59-.59Z"/>
      <circle class="cls-1" cx="14" cy="134.79" r=".59"/>
      <path class="cls-1" d="m16.6,131.32c0-.33-.27-.59-.59-.59s-.59.27-.59.59.27.59.59.59.59-.27.59-.59Z"/>
      <circle class="cls-1" cx="14" cy="141.75" r=".59"/>
      <path class="cls-1" d="m15.42,138.27c0,.33.27.59.59.59s.59-.27.59-.59-.27-.59-.59-.59-.59.27-.59.59Z"/>
      <path class="cls-1" d="m18.02,135.39c.33,0,.59-.27.59-.59s-.27-.59-.59-.59-.59.27-.59.59.27.59.59.59Z"/>
      <path class="cls-1" d="m14,148.1c-.33,0-.59.27-.59.59s.27.59.59.59.59-.27.59-.59-.27-.59-.59-.59Z"/>
      <path class="cls-1" d="m15.42,145.22c0,.33.27.59.59.59s.59-.27.59-.59-.27-.59-.59-.59-.59.27-.59.59Z"/>
      <path class="cls-1" d="m18.02,142.34c.33,0,.59-.27.59-.59s-.27-.59-.59-.59-.59.27-.59.59.27.59.59.59Z"/>
      <circle class="cls-1" cx="14" cy="155.65" r=".59"/>
      <path class="cls-1" d="m15.42,152.17c0,.33.27.59.59.59s.59-.27.59-.59-.27-.59-.59-.59-.59.27-.59.59Z"/>
      <path class="cls-1" d="m18.02,149.29c.33,0,.59-.27.59-.59s-.27-.59-.59-.59-.59.27-.59.59.27.59.59.59Z"/>
      <path class="cls-1" d="m15.42,159.13c0,.33.27.59.59.59s.59-.27.59-.59-.27-.59-.59-.59-.59.27-.59.59Z"/>
      <path class="cls-1" d="m18.02,156.24c.33,0,.59-.27.59-.59s-.27-.59-.59-.59-.59.27-.59.59.27.59.59.59Z"/>
      <path class="cls-1" d="m9.99,113.35c-.33,0-.59.27-.59.59s.27.59.59.59.59-.27.59-.59-.27-.59-.59-.59Z"/>
      <circle class="cls-1" cx="12" cy="110.46" r=".59"/>
      <circle class="cls-1" cx="12" cy="117.41" r=".59"/>
      <path class="cls-1" d="m9.99,127.25c-.33,0-.59.27-.59.59s.27.59.59.59.59-.27.59-.59-.27-.59-.59-.59Z"/>
      <path class="cls-1" d="m12.59,124.37c0-.33-.27-.59-.59-.59s-.59.27-.59.59.27.59.59.59.59-.27.59-.59Z"/>
      <path class="cls-1" d="m9.99,134.2c-.33,0-.59.27-.59.59s.27.59.59.59.59-.27.59-.59-.27-.59-.59-.59Z"/>
      <circle class="cls-1" cx="12" cy="131.32" r=".59"/>
      <path class="cls-1" d="m9.99,141.15c-.33,0-.59.27-.59.59s.27.59.59.59.59-.27.59-.59-.27-.59-.59-.59Z"/>
      <circle class="cls-1" cx="12" cy="138.27" r=".59"/>
      <path class="cls-1" d="m9.99,148.1c-.33,0-.59.27-.59.59s.27.59.59.59.59-.27.59-.59-.27-.59-.59-.59Z"/>
      <path class="cls-1" d="m11.4,145.22c0,.33.27.59.59.59s.59-.27.59-.59-.27-.59-.59-.59-.59.27-.59.59Z"/>
      <path class="cls-1" d="m9.99,155.06c-.33,0-.59.27-.59.59s.27.59.59.59.59-.27.59-.59-.27-.59-.59-.59Z"/>
      <circle class="cls-1" cx="12" cy="152.17" r=".59"/>
      <path class="cls-1" d="m12,158.53c-.14,0-.26.05-.36.13.29.24.59.48.9.7.03-.07.05-.16.05-.24,0-.33-.27-.59-.59-.59Z"/>
      <path class="cls-1" d="m5.98,120.3c-.33,0-.59.27-.59.59s.27.59.59.59.59-.27.59-.59-.27-.59-.59-.59Z"/>
      <path class="cls-1" d="m7.98,118.01c.33,0,.59-.27.59-.59s-.27-.59-.59-.59-.59.27-.59.59.27.59.59.59Z"/>
      <circle class="cls-1" cx="5.98" cy="127.84" r=".59"/>
      <path class="cls-1" d="m8.58,124.37c0-.33-.27-.59-.59-.59s-.59.27-.59.59.27.59.59.59.59-.27.59-.59Z"/>
      <path class="cls-1" d="m9.99,121.48c.33,0,.59-.27.59-.59s-.27-.59-.59-.59-.59.27-.59.59.27.59.59.59Z"/>
      <circle class="cls-1" cx="5.98" cy="134.79" r=".59"/>
      <path class="cls-1" d="m8.58,131.32c0-.33-.27-.59-.59-.59s-.59.27-.59.59.27.59.59.59.59-.27.59-.59Z"/>
      <circle class="cls-1" cx="5.98" cy="141.75" r=".59"/>
      <path class="cls-1" d="m7.39,138.27c0,.33.27.59.59.59s.59-.27.59-.59-.27-.59-.59-.59-.59.27-.59.59Z"/>
      <path class="cls-1" d="m5.98,148.1c-.33,0-.59.27-.59.59s.27.59.59.59.59-.27.59-.59-.27-.59-.59-.59Z"/>
      <path class="cls-1" d="m7.39,145.22c0,.33.27.59.59.59s.59-.27.59-.59-.27-.59-.59-.59-.59.27-.59.59Z"/>
      <path class="cls-1" d="m7.98,151.58c-.33,0-.59.27-.59.59s.27.59.59.59.59-.27.59-.59-.27-.59-.59-.59Z"/>
      <path class="cls-1" d="m4.44,117.75s.06-.08.08-.13c-.03.04-.05.09-.08.13Z"/>
      <path class="cls-1" d="m3.97,124.96c.33,0,.59-.27.59-.59s-.27-.59-.59-.59-.59.27-.59.59.27.59.59.59Z"/>
      <circle class="cls-1" cx="3.97" cy="131.32" r=".59"/>
      <circle class="cls-1" cx="3.97" cy="138.27" r=".59"/>
      <path class="cls-1" d="m3.97,145.82c.33,0,.59-.27.59-.59s-.27-.59-.59-.59-.59.27-.59.59.27.59.59.59Z"/>
      <path class="cls-1" d="m.55,131.32c0-.28-.2-.5-.46-.57-.04.38-.07.77-.09,1.15.31-.02.55-.27.55-.58Z"/>
      <path class="cls-1" d="m1.37,127.84c0,.33.27.59.59.59s.59-.27.59-.59-.27-.59-.59-.59-.59.27-.59.59Z"/>
      <path class="cls-1" d="m.13,137.71c.04.35.08.7.13,1.05.17-.11.28-.28.28-.49,0-.26-.18-.48-.42-.56Z"/>
      <path class="cls-1" d="m1.96,135.39c.33,0,.59-.27.59-.59s-.27-.59-.59-.59-.59.27-.59.59.27.59.59.59Z"/>
      <path class="cls-1" d="m1.96,142.34c.33,0,.59-.27.59-.59s-.27-.59-.59-.59-.59.27-.59.59.27.59.59.59Z"/>
    </g>
  </g>
  <g id="_人物" data-name="人物">
    <g>
      <g>
        <path class="cls-1" d="m92.84,39.49c1.61.02,1.61.89,2,2.88.39,2,1.15,5.13,1.15,5.13,0,0-14.32,22.56-17.32,37.3l.74,21.59-12.6-.79s.09-12.63,3.1-20.39c0,0-1.45-2.5-1.02-6.55,0,0,4.47-3.91,4.39-4.08s-7.34-4.88-6.13-17.98l5.04-5.29s-1.95,3.94,1.71,5.79,5.9,0,5.9,0c0,0,2.46-1.17,3.52-4.5,1.06-3.33,5.24-11.02,5.24-11.02l4.26-2.1Z"/>
        <g>
          <path class="cls-7" d="m102.48,23.82c-1.11,2.02-3.91,4.78-5.44,5.48l-1.05,2.95c2.23.62,5.52-.32,7-2.46,1.85-2.68,1.24-6.22-.51-5.98Z"/>
          <path class="cls-7" d="m92.76,37.1c5.51-6.41,6.81-18.49,6.81-18.49-2.93-3.05-6.32-4.51-7.16-10.09,0,0,.59-4.63-5.3-4.4s-9.46,6.52-9.46,6.52c-1.07,2.82-2.63,8.6-3.24,13.81-2.44-1.44-2.68-3.49-2.68-3.49-1.19,1.72-1.31,7.22,2.44,8.39h0s0,0,0,0c.09,2.13.71,3.82,1.52,5.14h0c-.15-.01-.31,0-.47.05-.74.22-1.18.98-1,1.73.62,2.66.95,4.12.74,6.93h.02c-.05.22-.11.43-.14.64-.26,1.87-.93,4.82-2.62,7.47-.68,1.07-.86,2.42-.31,3.56.19.39.41.75.68,1.1,1.71,2.19,4.85,2.55,7.24,1.13,2.08-1.23,3.03-2.76,3.52-4.5.2-.7.89-1.11,1.59-.92.7.19,1.38.43,1.96.65.94.36,1.95-.15,2.25-1.11.27-.87-.17-1.81-1.02-2.13-.14-.05-.31-.11-.47-.17.14.05.29.1.42.15.85.33,1.81-.11,2.11-.97.27-.77-.07-1.62-.8-1.99-.17-.09-.36-.17-.54-.26.98.34,2.05-.24,2.27-1.28.11-.54-.05-1.1-.45-1.49-.6-.58-1.26-1.08-2.08-1.49l4.26-2.1-.08-2.39Zm-7.75,7.29h0c.07.02.13.04.2.06-.07-.02-.14-.04-.2-.06Z"/>
        </g>
        <path class="cls-5" d="m82.47,6.4c-.85,1.75-4.34,4.07-5.43,4.58,0,0-2.18,8.53-2.9,13.29-2.79-2.81-4.11-8.26-1.34-13.09,2.76-4.82,3.88-4.34,5.87-6.51,1.99-2.17,3.28-2.54,6.46-2.53,0,0,5.15-3.55,8.85.61,5.43-1.35,7.34,2.61,9.02,6.33s5.28,10.14.71,15.43l-1.23-.88s-.41,3.27-5.36,5.41c0,0,1.77-7.42,2.62-10.5l-.89-.78s-4.5.59-8.18-2.2c-3.12-2.37-4.08-6.35-4.22-8.32-.03-.47-.42-.84-.89-.84h0c-.47,0-.84.36-.89.82-.34,2.77.63,5.64,1.92,7.57.34.52-.33,1.11-.84.75-1.94-1.38-4.41-4.18-3.28-9.14Z"/>
        <polygon class="cls-6" points="67.12 105.79 79.41 106.39 79.41 115.47 65.78 114.22 67.12 105.79"/>
        <path class="cls-4" d="m83.57,40.33c2.24.07,5.47,1.22,5.47,1.22l3.8-2.07v-1.64s-6.11.39-9.27,2.48Z"/>
        <path class="cls-10" d="m106.5,96.8h0c1.92-2.78,3.82-6.1,5.08-9.41,2.83-7.42,6.04-16.37,5.97-23.56-.08-7.51-10.25-11.32-15.07-14.92,0,0-1.62-.73-3.63-2.91-2.01-2.17-3.63-1.63-3.63-1.63l.76,3.14c-4.66,6.57-14.96,24.77-17.32,37.3-2.86-.46-5.19-.89-6.45-1.12-.66-.13-1.35.13-1.75.67-2,2.76-3.56,7.71-4.07,11.9,0,0,0,0,0,0-5.71-.98-6.95-7.28-6.95-7.3,2.12-2.07,3.94-4.72,5.72-6.62,3.07-3.28,5.77-5.49,7.39-6.71,1.21-.91,2.09-2.19,2.46-3.65.21-.84.35-1.66.43-2.46,0,0-1.51,2.38-3.24,4.23,0,0-7.33-7.27-5.04-17.14,0,0,4.41-3.3,6.13-7.31,1.72-4.01,1.53-5.45,1.53-5.45-4.96,3.37-13.12,4.64-17.09,4.89-3.96.25-4.95,1.57-7.1,6.44-2.15,4.87-4.21,10.57-5.78,15.55-1.57,4.99-2.56,7.15-2.15,11.13.41,3.98,2.21,9.44,9.25,10.31,1.72.21,3.25-.22,4.65-1.01h0s-1.02,4.06-3,11.74c-1.88,7.29-4.65,16.86-8.06,26.66-.46,1.33.22,2.79,1.55,3.25.86.3,1.88.58,2.97.76h0c-2.57,10.45-6.62,27.29-7.19,37.53-.66,11.89,6.03,16.43,14.78,23.94,0,0,4.56.17,10.44-.73,2.25-.34,4.54-.02,6.65.84,7.24,2.92,18.51,3.22,25.68,1.79-1.9-6.61,1.98-9.25,1.49-18.83-.22-4.29-.41-14.12-.33-18,.08-3.88,1.73-4.38,3.39-6.94s.66-12.8.65-18.19h0c2.28-.65,4.37-1.38,6.07-2.06,1.66-.67,2.57-2.45,2.14-4.18-1.65-6.7-5.71-23.41-7.32-31.94Zm-36.87,74.7c-.65-.56-.98-1.41-.93-2.26.29-4.73,3.74-14.81,4.58-19.71l.19,24.21s-2.19-.82-3.84-2.24Zm9.77-56.03l-13.63-1.25h0c.74-4.42,1.27-9.41,1.79-14.82,2.26.64,7.04,1.95,11.68,3.02h0c.16,4.02.08,8.59.18,13.06h0Z"/>
        <path class="cls-7" d="m69.91,85.21c-.97-2.02-.94-3.95-1.02-6.55-2.62,2.23-9.45,10.29-9.45,10.29.96,3.02,2.78,6.61,6.96,7.3,0,0,.53-6.16,3.51-11.04Z"/>
        <path class="cls-1" d="m79.32,106.53l-7.75-.45c-1.17-.07-2.21.74-2.42,1.89-.25,1.34-.49,2.81-.71,4.2-.21,1.33.77,2.55,2.12,2.65l8.85.65-.09-8.94Zm-1.81,5.86c-.09.49-.53.84-1.03.8l-4.42-.34c-.56-.04-.97-.54-.89-1.09.09-.71.23-1.68.42-2.63.1-.48.54-.82,1.03-.78l4.46.31c.58.04.99.57.89,1.14l-.45,2.59Z"/>
      </g>
      <g>
        <circle class="cls-4" cx="98.85" cy="12.29" r=".71"/>
        <circle class="cls-4" cx="84.77" cy="26.34" r=".71"/>
        <circle class="cls-4" cx="80.97" cy="20.79" r=".85"/>
        <circle class="cls-4" cx="90.89" cy="22.2" r=".85"/>
        <circle class="cls-4" cx="71.75" cy="96.67" r="1.2"/>
        <circle class="cls-4" cx="62.26" cy="78.87" r="1.2"/>
        <circle class="cls-4" cx="65.3" cy="75.68" r="1.22"/>
        <circle class="cls-4" cx="75.66" cy="97.77" r="1.21"/>
        <path class="cls-4" d="m85.86,16.41c-.12,0-.25-.03-.37-.08-2.95-1.42-3.98-4.73-4.06-7.51-2.6,2.5-5.31,3.62-6.86,4.1-.45.14-.92-.12-1.06-.56-.14-.45.12-.92.56-1.06,1.7-.52,4.96-1.92,7.73-5.41.25-.31.67-.41,1.03-.24.36.17.55.56.47.95-.51,2.39-.16,6.73,2.93,8.22.42.2.6.71.4,1.14-.15.3-.45.48-.77.48Z"/>
        <path class="cls-4" d="m79.11,38.76c-.15,0-.3-.04-.44-.12-1.54-.92-5.14-3.67-5.37-9.26-.25-6.21,2.18-15.46,3.54-19.04.17-.44.66-.66,1.1-.49.44.17.66.66.49,1.1-1.32,3.46-3.67,12.41-3.43,18.37.19,4.76,3.24,7.09,4.54,7.88.4.24.53.76.29,1.17-.16.27-.44.41-.73.41Z"/>
        <path class="cls-4" d="m74.14,25.07c-.17,0-.34-.05-.49-.16-2.72-1.94-3.73-5.41-3-10.31.51-3.46,2.61-5.56,4.3-7.24.52-.52,1.01-1.01,1.41-1.49,1.31-1.58,3.9-4.19,6.54-3.95.47.04.81.46.77.92s-.45.82-.92.77c-1.35-.1-3.24,1.13-5.08,3.34-.45.54-.97,1.06-1.52,1.61-1.59,1.59-3.4,3.39-3.82,6.29-.62,4.23.15,7.15,2.31,8.68.38.27.47.8.2,1.19-.17.23-.43.36-.69.36Z"/>
        <path class="cls-4" d="m74.16,30.19c-.08,0-.17-.01-.25-.04-1.59-.5-2.75-1.68-3.35-3.42-.8-2.34-.4-5.02.46-6.26.27-.39.8-.48,1.18-.21.39.27.48.8.21,1.18-.51.74-.9,2.86-.25,4.74.42,1.23,1.18,2.02,2.25,2.36.45.14.7.62.56,1.06-.11.36-.45.6-.81.6Z"/>
        <path class="cls-4" d="m94.95,18.39s-.07,0-.11,0c-7.14-.89-9.55-8.42-9.2-12.06.04-.47.46-.82.93-.77.47.04.81.46.77.93-.26,2.69,1.6,9.44,7.72,10.21.47.06.8.48.74.95-.05.43-.42.75-.84.75Z"/>
        <path class="cls-4" d="m95.99,47.61c-.31,0-.61-.17-.76-.46-.66-1.28-1.13-3.85-1.41-5.77-.05-.37-.3-.68-.64-.82l-.67-.27c-.31-.13-.52-.42-.53-.76l-.08-2.39c0-.21.07-.42.21-.58,4.72-5.49,6.28-15.52,6.56-17.63-.59-.58-1.2-1.12-1.79-1.64-2.27-2-4.62-4.06-5.32-8.63-.07-.46.25-.9.71-.97.46-.08.9.25.97.71.6,3.95,2.53,5.64,4.76,7.61.71.63,1.46,1.28,2.18,2.03.17.18.26.43.23.68-.05.5-1.35,12.12-6.79,18.7l.05,1.51.16.06c.9.37,1.54,1.19,1.68,2.15.36,2.51.81,4.42,1.24,5.24.21.42.05.93-.37,1.15-.12.06-.26.09-.39.09Z"/>
        <path class="cls-4" d="m103.89,25.73c-.18,0-.37-.06-.52-.18-.37-.29-.44-.82-.15-1.19.89-1.14,1.83-2.63,1.99-5.02.23-3.37-1.85-7.8-3.68-11.28-2.18-4.14-4.48-4.78-7.45-4.47-.27.03-.54-.08-.72-.28-2.2-2.44-5.86-1.75-7.75-.47-.39.26-.92.16-1.18-.23-.26-.39-.16-.92.23-1.18,2.32-1.56,6.76-2.4,9.66.43,4.01-.29,6.54,1.29,8.71,5.41,1.94,3.68,4.13,8.39,3.88,12.18-.19,2.86-1.36,4.68-2.35,5.95-.17.21-.42.33-.67.33Z"/>
        <path class="cls-4" d="m97.46,33.29c-.61,0-1.19-.07-1.71-.22-.45-.13-.72-.59-.59-1.05.13-.45.59-.72,1.05-.59,1.83.51,4.77-.24,6.07-2.12,1.17-1.69,1.15-3.65.68-4.41-.03-.04-.05-.08-.08-.11-1.33,2.06-3.88,4.54-5.5,5.28-.43.2-.93,0-1.13-.42-.2-.43,0-.93.42-1.13,1.3-.59,3.99-3.18,5.05-5.11.13-.23.36-.39.63-.43.83-.12,1.57.26,2.05,1.03.83,1.34.85,3.99-.73,6.27-1.41,2.03-4,3.01-6.22,3.01Z"/>
        <path class="cls-4" d="m76.76,58.8c-1.88,0-3.69-.8-4.87-2.31-.3-.38-.56-.8-.77-1.25-.66-1.36-.52-3,.36-4.39,1.58-2.49,2.23-5.25,2.49-7.13.24-1.7,1.06-3.26,2.32-4.41,3.77-3.42,8.84-5.22,14.67-5.22.07,0,.15,0,.22,0,1.31.01,2.38,1,2.49,2.3.06.67-.16,1.35-.61,1.86-.45.51-1.06.81-1.74.85-1.11.06-2.93.25-4.8.86,2,.49,3.46,1.29,4.72,2.52.6.59.86,1.44.68,2.27-.14.68-.54,1.27-1.12,1.64.33.6.4,1.33.16,2.01-.2.57-.59,1.03-1.11,1.33.22.54.27,1.17.08,1.77-.21.68-.7,1.25-1.34,1.56-.64.31-1.36.34-2.03.09s-1.31-.46-1.89-.63c-.24-.07-.47.08-.54.33-.62,2.2-1.86,3.78-3.91,5h0c-1.1.65-2.3.96-3.48.96Zm14.2-23.01c-5.47,0-10.02,1.61-13.52,4.78-.97.88-1.6,2.08-1.78,3.38-.29,2.05-1,5.07-2.74,7.81-.56.88-.66,1.92-.26,2.74.16.34.36.66.58.94,1.39,1.78,4.03,2.18,6.14.93h0c1.67-.99,2.64-2.22,3.14-4,.33-1.17,1.49-1.82,2.63-1.51.63.17,1.31.4,2.03.67.23.09.47.08.68-.03.22-.11.38-.3.46-.54.14-.44-.08-.92-.51-1.08-.42-.16-.95-.35-1.59-.55-.73-.22-1.59-.45-2.56-.65-.03,0-.06-.01-.09-.02h0c-.46-.09-.76-.54-.67-1,.09-.46.53-.76,1-.67h0s.01,0,.02,0c1.07.21,2.03.47,2.83.72.64.2,1.18.39,1.61.55.2.08.42.07.61-.02.19-.09.33-.24.4-.44.13-.37-.03-.77-.38-.95-.12-.06-.25-.12-.38-.19-.12-.04-.23-.08-.34-.13-.44-.21-.95-.44-1.52-.67-.73-.29-1.48-.55-2.16-.74-.36-.1-.72-.18-1.07-.24-.46-.08-.77-.52-.69-.98.08-.46.51-.76.97-.7.35.06.73.14,1.14.26.83.22,1.65.51,2.39.8.65.25,1.29.53,1.87.8.19.04.39.02.58-.07.25-.12.42-.35.48-.62.05-.26-.03-.53-.21-.71-1.26-1.24-2.86-2.14-6.58-2.51-.37-.04-.67-.31-.75-.67-.08-.36.09-.73.41-.92,2.77-1.61,5.93-2.08,8.1-2.19.21-.01.41-.11.55-.27.14-.17.21-.38.2-.6-.03-.41-.39-.74-.81-.74-.07,0-.15,0-.22,0Z"/>
        <path class="cls-4" d="m77.97,39.87c-.45,0-.82-.35-.85-.8-.04-.64-.19-1.36-.44-2.12-.15-.45.09-.93.54-1.08.45-.15.93.09,1.08.54.3.91.48,1.77.52,2.56.03.47-.33.87-.8.9-.02,0-.03,0-.05,0Z"/>
        <path class="cls-4" d="m74.94,44.05s-.04,0-.06,0c-.47-.04-.82-.44-.78-.91.2-2.73-.12-4.13-.72-6.67-.28-1.18.42-2.39,1.59-2.74.24-.07.48-.1.74-.1.47.01.84.41.82.88-.01.46-.39.82-.85.82-.01,0-.03,0-.05,0-.06,0-.12,0-.18.03-.31.09-.49.41-.42.72.61,2.62.99,4.2.76,7.19-.03.45-.41.79-.85.79Z"/>
        <path class="cls-4" d="m72.2,74.46c-.24,0-.47-.1-.64-.29-.31-.35-.27-.89.08-1.2,2.47-2.16,4.26-5.49,4.25-7.91,0-.93.15-1.73.48-2.45l2.67-5.87c.19-.43.7-.62,1.13-.42.43.19.62.7.42,1.13l-2.67,5.87c-.22.49-.33,1.05-.32,1.73.01,2.91-1.97,6.69-4.83,9.19-.16.14-.36.21-.56.21Z"/>
        <path class="cls-4" d="m67.16,57.44c-.22,0-.43-.08-.6-.25-.33-.33-.34-.87,0-1.2,1.75-1.77,4.99-5.23,5.02-5.27.32-.34.86-.36,1.2-.04.34.32.36.86.04,1.2-.03.03-3.29,3.52-5.06,5.3-.17.17-.38.25-.6.25Z"/>
        <path class="cls-4" d="m52.86,93.06c-.33,0-.67-.02-1.02-.06-7.4-.91-9.52-6.52-9.99-11.06-.37-3.58.35-5.8,1.54-9.48.2-.62.41-1.27.64-1.99,1.74-5.53,3.8-11.08,5.81-15.64,2.17-4.92,3.33-6.67,7.83-6.95,3.96-.25,11.92-1.53,16.66-4.74.39-.26.92-.16,1.18.23.26.39.16.92-.23,1.18-6.21,4.22-16.37,4.96-17.51,5.03-3.53.22-4.31,1.25-6.38,5.93-1.96,4.44-4.05,10.08-5.75,15.47-.23.72-.44,1.39-.64,2.01-1.16,3.58-1.8,5.56-1.47,8.78.59,5.71,3.46,8.93,8.51,9.55,4.21.5,7.36-3.37,10.14-6.8.81-1,1.57-1.94,2.34-2.76,3.07-3.28,5.77-5.51,7.5-6.81,1.06-.8,1.83-1.93,2.14-3.18.2-.77.33-1.56.41-2.33.05-.47.46-.81.93-.76.47.04.81.46.76.93-.08.86-.24,1.73-.45,2.58-.41,1.63-1.4,3.09-2.77,4.12-1.68,1.26-4.3,3.42-7.28,6.61-.73.78-1.48,1.7-2.26,2.67-2.85,3.52-6.06,7.48-10.66,7.48Z"/>
        <path class="cls-4" d="m49.06,69.64c-.16,0-.32-.04-.46-.14-.39-.25-.51-.78-.25-1.18,2.08-3.22,4.66-4.72,7.1-4.09.34.09.75-.04,1.05-.35,1.54-1.53,5.49-5.39,8.88-8.14.88-.72,1.77-.97,2.72-.77.46.1.75.55.65,1.01-.1.46-.54.75-1.01.65-.3-.07-.69-.07-1.29.42-3.33,2.71-7.23,6.52-8.75,8.03-.73.72-1.75,1.03-2.67.79-2.38-.61-4.46,2.15-5.25,3.36-.16.25-.44.39-.72.39Z"/>
        <path class="cls-4" d="m73.23,75.08s-.08,0-.12,0c-3.36-.21-6.01-9.03-6.12-9.4-1.26-4.25-1.37-8.58-.27-10.06.31-.42.73-.65,1.19-.65h0c.47,0,.85.38.85.85,0,.42-.3.77-.71.84-.45.6-.78,3.99.56,8.54,1.36,4.61,3.55,8.12,4.59,8.19.19,0,.49-.33.74-.9.19-.43.69-.63,1.12-.44.43.19.63.69.44,1.12-.68,1.57-1.59,1.92-2.28,1.92Z"/>
        <path class="cls-4" d="m88.52,42.41c-.33,0-.65-.2-.78-.52-.18-.43.02-.93.45-1.11,2.12-.89,4.23-2.02,4.25-2.03.42-.22.93-.07,1.15.35.22.41.07.93-.35,1.15-.09.05-2.2,1.18-4.4,2.1-.11.04-.22.07-.33.07Z"/>
        <path class="cls-4" d="m78.67,85.65c-.05,0-.1,0-.16-.01-.46-.09-.77-.53-.68-.99,2.63-14.01,14.88-34.61,18.63-39.19.3-.36.83-.42,1.2-.12.36.3.42.83.12,1.2-3.69,4.5-15.7,24.7-18.28,38.43-.08.41-.43.69-.83.69Z"/>
        <path class="cls-4" d="m101.91,56.59c-.06,0-.13,0-.19-.01l-4.02-.56c-.46-.07-.79-.49-.73-.96s.5-.78.96-.73l3.68.51c-.03-2.11,0-4.64.01-5.58-1.49-1.38-3.67-3.1-4.26-3.55l-2.32-.52c-.46-.1-.75-.56-.65-1.01.1-.46.56-.75,1.01-.65l2.51.56c.12.03.24.08.33.16.12.09,3.04,2.34,4.81,4.04.17.16.27.39.26.63,0,.04-.06,3.6-.02,6.24,0,.41-.16.8-.47,1.08-.26.23-.59.35-.93.35Z"/>
        <path class="cls-4" d="m95.17,105.51c-2.46,0-5.65-.33-9.81-1-5.73-.92-14.52-3.32-18.04-4.31-1.19-.34-1.99-1.47-1.91-2.71.3-4.21,1.9-10.26,4.36-13.65.58-.8,1.59-1.2,2.59-1.01,3.24.61,11.6,2.1,19.24,2.78.47.04.81.45.77.92-.04.47-.46.83-.92.77-7.72-.68-16.14-2.18-19.4-2.8-.35-.07-.71.07-.9.34-1.98,2.73-3.72,8.22-4.04,12.78-.03.44.24.83.67.95,3.48.98,12.2,3.36,17.84,4.26,5.31.85,11.72,1.62,14.28.11,2.15-1.27,8.05-8.45,10.89-15.87,2.9-7.6,5.99-16.29,5.91-23.25-.06-5.27-5.65-8.62-10.58-11.58-1.54-.92-2.99-1.79-4.15-2.66-.38-.28-.45-.81-.17-1.19.28-.38.81-.45,1.19-.17,1.1.82,2.51,1.67,4.01,2.57,5.05,3.03,11.34,6.8,11.4,13.02.08,7.26-3.07,16.13-6.02,23.88-2.81,7.37-8.89,15.11-11.61,16.73-1.24.74-3.02,1.1-5.61,1.1Z"/>
        <path class="cls-4" d="m87.1,86.85s-.06,0-.1,0c-.47-.05-.8-.47-.75-.94.41-3.55,2.93-4.44,6.64-4.56,1.05-1.8,1.88-4.51,2.75-7.37.62-2.03,1.26-4.14,2.06-6.25,2.47-6.49,6.49-9.3,12.64-8.88,3.19.22,5.11,1.77,6.15,3.03,1.41,1.69,1.91,3.64,1.79,4.75-.05.47-.48.8-.94.75-.47-.05-.8-.47-.75-.94.07-.65-.31-2.15-1.41-3.46-.83-1-2.38-2.24-4.96-2.42-5.46-.38-8.71,1.95-10.93,7.79-.78,2.06-1.42,4.13-2.03,6.14-1.01,3.32-1.89,6.19-3.18,8.18-.15.24-.42.38-.7.39-4.31.07-5.22,1.09-5.44,3.06-.05.43-.42.75-.84.75Z"/>
        <path class="cls-4" d="m82.89,82.8c-.09,0-.19-.01-.28-.05-.44-.15-.68-.64-.53-1.08,2.05-5.92,10.26-16.89,16.53-23.29l-1.89-.52c-.9-.25-1.59-.97-1.79-1.88l-1.35-6.03c-.1-.46.19-.91.64-1.02.46-.1.91.18,1.02.64l1.35,6.03c.07.3.29.53.58.61l2.38.65c.49.13.86.5.99.99.13.49,0,1-.36,1.36-6.19,6.22-14.48,17.2-16.49,23.01-.12.35-.45.57-.8.57Zm16.22-24.29h0,0Z"/>
        <path class="cls-4" d="m69.91,86.06c-.32,0-.62-.18-.77-.48-.97-2.01-1.02-3.88-1.08-6.24l-.02-.65c-.01-.47.35-.86.82-.88.49-.04.86.35.88.82l.02.66c.06,2.25.11,3.87.92,5.55.2.42.03.93-.4,1.14-.12.06-.25.08-.37.08Z"/>
        <path class="cls-4" d="m66.4,97.1s-.09,0-.14-.01c-3.65-.61-6.14-3.19-7.63-7.89-.14-.45.11-.92.55-1.07.45-.14.93.11,1.07.55,1.27,4.03,3.33,6.23,6.28,6.72.46.08.78.51.7.98-.07.42-.43.71-.84.71Z"/>
        <path class="cls-4" d="m92.62,137.95c-3.09,0-5.89-.51-7.93-1.81-6.06-3.85-6.13-15.35-6.19-26.47-.01-2.55-.03-4.96-.12-7.22-.02-.47.35-.86.82-.88.46-.06.86.35.88.82.09,2.29.1,4.71.12,7.28.06,10.17.12,21.69,5.4,25.04,5.51,3.5,18.43.38,25.77-2.58,1.27-.51,1.96-1.85,1.63-3.19-1.67-6.78-5.72-23.46-7.33-31.99-.09-.46.22-.91.68-.99.45-.08.91.22.99.68,1.6,8.48,5.64,25.13,7.31,31.9.52,2.13-.61,4.35-2.65,5.17-4.53,1.82-12.63,4.24-19.38,4.24Z"/>
        <path class="cls-4" d="m52.37,134.58c-2.44,0-4.57-.63-5.56-.98-1.76-.62-2.69-2.56-2.07-4.33,3.96-11.37,6.74-21.54,8.04-26.59,1.98-7.67,3-11.73,3-11.73.11-.46.58-.73,1.03-.62.46.11.73.58.62,1.03,0,0-1.02,4.06-3,11.74-1.31,5.08-4.1,15.3-8.08,26.73-.31.89.15,1.86,1.03,2.17,2.38.84,8.32,2.3,12.01-2.24,4.65-5.71,6.02-16.69,7.33-30.45.04-.47.46-.82.93-.77.47.04.81.46.77.93-1.34,14.05-2.75,25.28-7.7,31.37-2.39,2.93-5.56,3.74-8.33,3.74Z"/>
        <path class="cls-4" d="m55.18,112.85c-.21,0-.42-.02-.62-.06l-1.56-.32c-.38-.08-.63-.45-.55-.84.08-.38.45-.63.84-.55l1.56.32c.79.16,1.59-.25,1.9-.97.54-1.22,1.01-2.63,1.31-3.59.04-.12,0-.23-.03-.27-.03-.05-.09-.13-.22-.16l-2.59-.56c-.38-.08-.62-.46-.54-.84s.46-.62.84-.54l2.59.56c.48.11.9.41,1.15.84.25.42.3.94.16,1.41-.31,1-.81,2.47-1.37,3.74-.5,1.14-1.64,1.85-2.86,1.85Z"/>
        <path class="cls-4" d="m92.13,114.92c-1.47,0-2.77-1.01-3.12-2.5-.36-1.56-.6-2.89-.7-3.96-.04-.39.25-.74.64-.77.39-.05.74.25.77.64.1,1.01.32,2.28.67,3.78.21.9,1.05,1.5,1.97,1.38,3.44-.44,9.87-1.44,14.32-3.17.36-.14.77.04.92.4.14.36-.04.78-.4.92-4.58,1.79-11.15,2.81-14.65,3.26-.14.02-.28.03-.41.03Z"/>
        <path class="cls-4" d="m100.42,197.79c-.37,0-.71-.24-.82-.62-1.06-3.69-.42-6.22.31-9.15.64-2.55,1.37-5.45,1.14-9.86-.23-4.5-.41-14.29-.33-18.06.07-3.08,1.07-4.28,2.22-5.67.42-.51.86-1.03,1.3-1.71,1.09-1.69.84-8.16.65-12.88-.07-1.79-.14-3.47-.14-4.85,0-.47.38-.85.85-.85h0c.47,0,.85.38.85.85,0,1.35.07,3.02.14,4.79.27,6.87.36,11.88-.92,13.87-.49.76-.99,1.36-1.42,1.88-1.07,1.28-1.77,2.13-1.83,4.62-.08,3.75.1,13.47.33,17.94.24,4.67-.52,7.7-1.19,10.37-.71,2.8-1.26,5.02-.33,8.27.13.45-.13.92-.58,1.05-.08.02-.16.03-.24.03Z"/>
        <path class="cls-4" d="m75.23,192.17c-.42,0-.78-.31-.84-.73-.13-.92-.37-1.84-.63-2.82-.39-1.47-.84-3.14-.94-5.1-.18-3.5-.49-34.01,0-40.4.04-.47.45-.82.91-.78.47.04.82.44.78.91-.49,6.35-.18,36.7,0,40.18.09,1.78.5,3.29.88,4.75.28,1.03.54,2.01.68,3.03.06.47-.26.89-.73.96-.04,0-.08,0-.12,0Z"/>
        <path class="cls-4" d="m73.4,174.58c-.12,0-.24-.02-.35-.08l-3.15-1.42c-1.44-.65-2.25-2.19-1.96-3.74.83-4.52,3.25-15.19,4.71-20.76.12-.46.58-.72,1.04-.61.45.12.73.58.61,1.04-1.45,5.54-3.86,16.15-4.68,20.64-.14.78.26,1.56.99,1.88l3.15,1.42c.43.19.62.7.43,1.12-.14.31-.45.5-.78.5Z"/>
        <path class="cls-4" d="m57.65,195.89c-.2,0-.39-.07-.55-.21-.72-.62-1.43-1.22-2.12-1.81-7.59-6.43-13.58-11.5-12.95-22.83.6-10.75,5.06-28.94,7.21-37.69.11-.46.57-.73,1.03-.62.46.11.73.57.62,1.03-2.14,8.69-6.58,26.78-7.17,37.38-.58,10.48,4.84,15.08,12.35,21.44.69.59,1.41,1.19,2.13,1.81.36.31.4.84.09,1.2-.17.2-.41.3-.65.3Z"/>
        <path class="cls-4" d="m50.23,180.98c-.32,0-.6-.24-.63-.57-.74-7.06,1.67-27.71,3.21-35.77.07-.35.41-.57.75-.51.35.07.57.4.51.75-1.48,7.8-3.91,28.57-3.19,35.4.04.35-.22.66-.57.7-.02,0-.04,0-.07,0Z"/>
        <path class="cls-4" d="m86.3,194.27c-.33,0-.6-.25-.63-.58-.65-7.3-.76-39.08,0-47.89.03-.35.33-.6.69-.58.35.03.61.34.58.69-.75,8.77-.65,40.4,0,47.67.03.35-.23.66-.58.69-.02,0-.04,0-.06,0Z"/>
        <path class="cls-4" d="m79.32,107.37s-.03,0-.05,0l-12.42-.73c-.47-.03-.83-.43-.8-.9s.43-.82.9-.8l12.42.73c.47.03.83.43.8.9-.03.45-.4.8-.85.8Z"/>
        <path class="cls-4" d="m69.54,115.34s-.04,0-.06,0l-3.76-.28c-.47-.03-.82-.44-.79-.91.03-.47.45-.83.91-.79l3.76.28c.47.03.82.44.79.91-.03.45-.41.79-.85.79Z"/>
        <path class="cls-4" d="m73.11,131.6c-.34,0-.62-.27-.64-.61-.11-2.86.06-11.31.17-13.86.01-.35.32-.59.66-.61.35.02.63.31.61.66-.11,2.54-.28,10.93-.17,13.76.01.35-.26.65-.61.66h-.03Z"/>
        <path class="cls-4" d="m67.92,141.76c-.1,0-.21-.03-.31-.08-.04-.02-3.64-2.01-5.28-2.83-.32-.16-.44-.54-.29-.86.16-.31.54-.44.86-.29,1.67.83,5.18,2.78,5.33,2.86.31.17.42.56.25.87-.12.21-.33.33-.56.33Z"/>
        <path class="cls-4" d="m68.67,53.43c-.25,0-.51-.11-.67-.33l-1.72-2.22c-.67-.86-.54-2.09.3-2.79.88-.74,2.21-1.83,3.52-2.78.38-.28.91-.19,1.19.19.28.38.19.91-.19,1.19-1.27.92-2.56,1.98-3.42,2.71-.14.11-.16.31-.05.45l1.72,2.22c.29.37.22.91-.15,1.19-.15.12-.34.18-.52.18Z"/>
        <path class="cls-4" d="m64.69,58.28c-.45,0-.83-.35-.85-.81-.07-1.47-.11-2.6-.13-3.36-.04-1.09.83-2.03,1.92-2.09l5.33-.29c.46,0,.87.33.9.8.02.47-.33.87-.8.9l-5.33.29c-.18,0-.32.16-.31.34.02.75.07,1.87.13,3.33.02.47-.34.87-.81.89-.01,0-.03,0-.04,0Z"/>
        <path class="cls-4" d="m93.97,19.18c-.1,0-.2-.02-.3-.07-1.35-.71-3.1-.91-4.37-.5-.34.11-.7-.07-.8-.41-.11-.33.07-.7.41-.8,1.6-.52,3.7-.29,5.36.58.31.17.43.55.27.86-.11.22-.34.34-.57.34Z"/>
        <path class="cls-4" d="m82.82,17.8c-.08,0-.17-.02-.25-.05-1.15-.5-2.6-.59-3.88-.25-.35.09-.69-.11-.78-.45-.09-.34.11-.69.45-.78,1.54-.41,3.3-.3,4.71.31.32.14.47.52.33.84-.1.24-.34.38-.58.38Z"/>
        <path class="cls-4" d="m88.57,26.03c-.17,0-.35-.07-.47-.21-.31-.35-.78-1.36-.94-2.03-.08-.34.13-.69.47-.77.34-.08.69.13.77.47.13.54.52,1.33.65,1.48.23.26.21.67-.06.9-.12.11-.27.16-.42.16Z"/>
        <path class="cls-4" d="m86.32,31.81c-1.48,0-3.36-.37-4.52-1.16-.32-.22-.41-.66-.19-.99.22-.32.66-.41.99-.19.89.61,2.74,1,4.19.9.38-.03.73.26.76.66.03.39-.27.73-.66.76-.18.01-.38.02-.57.02Z"/>
        <path class="cls-4" d="m89.7,31.46c-.35,0-.64-.29-.64-.64v-.4c0-.35.29-.64.64-.64s.64.29.64.64v.4c0,.35-.29.64-.64.64Z"/>
        <path class="cls-4" d="m102.97,20.34c-.29,0-.56-.2-.62-.5-.34-1.59-1.18-3.2-2.48-4.8-.22-.27-.18-.67.09-.9.27-.22.67-.18.9.09,1.43,1.75,2.34,3.55,2.73,5.33.08.34-.14.68-.49.76-.04,0-.09.01-.14.01Z"/>
        <path class="cls-4" d="m79.41,116.32s-.04,0-.06,0l-8.85-.65c-.89-.06-1.71-.5-2.26-1.19-.54-.69-.78-1.58-.64-2.44.22-1.41.46-2.88.71-4.23.29-1.56,1.69-2.68,3.3-2.58l7.75.45c.47.03.83.43.8.9-.03.47-.4.83-.9.8l-7.75-.45c-.74-.02-1.4.47-1.53,1.19-.25,1.33-.48,2.79-.71,4.18-.06.4.04.8.29,1.12.26.33.63.52,1.05.55l8.85.65c.47.03.82.44.79.91-.03.45-.41.79-.85.79Z"/>
        <path class="cls-4" d="m76.55,113.9s-.09,0-.13,0l-4.42-.34c-.46-.04-.89-.26-1.18-.62-.29-.36-.42-.81-.36-1.27.09-.68.24-1.7.43-2.67h0c.17-.83.92-1.42,1.77-1.35l4.46.3c.48.03.92.27,1.21.64.29.38.41.86.33,1.33l-.45,2.59c-.14.81-.84,1.39-1.66,1.39Zm-4.28-4.63c-.19.94-.33,1.92-.41,2.58-.01.09.02.16.05.2.03.03.09.09.19.1l4.42.34c.13.02.26-.08.28-.22l.45-2.59c.02-.1-.02-.17-.05-.21s-.09-.09-.19-.1l-4.46-.3c-.14,0-.26.08-.28.21h0Z"/>
      </g>
    </g>
  </g>
  <g id="_アイコン" data-name="アイコン">
    <g>
      <path class="cls-9" d="m121.79,149.65c-.71-.33-1.01-1.18-.68-1.88l3.98-8.44c.33-.71,1.17-1.01,1.88-.68s1.01,1.18.68,1.88l-3.98,8.44c-.33.71-1.17,1.01-1.88.68Z"/>
      <path class="cls-3" d="m126.37,138.52c.2,0,.41.04.6.14.71.33,1.01,1.18.68,1.88l-3.98,8.44c-.24.51-.75.81-1.28.81-.2,0-.41-.04-.6-.14-.71-.33-1.01-1.18-.68-1.88l3.98-8.44c.24-.51.75-.81,1.28-.81m0-1.52h0c-1.13,0-2.17.66-2.65,1.68l-3.98,8.44c-.69,1.46-.06,3.21,1.4,3.9.39.19.81.28,1.25.28,1.13,0,2.17-.66,2.65-1.68l3.98-8.44c.33-.71.37-1.5.11-2.24-.26-.74-.8-1.33-1.51-1.66-.39-.19-.81-.28-1.25-.28h0Z"/>
    </g>
    <g>
      <path class="cls-8" d="m47.52,28.02l-10.69-6.96c-.88-.57-2.09-.5-2.8.27-.9.99-.68,2.51.4,3.21l2.68,1.74c.52.34.67,1.03.33,1.55l-5.9,9.07c-.57.88-.5,2.09.28,2.8.99.9,2.51.67,3.2-.4l5.96-9.16c.34-.52,1.03-.67,1.55-.33l2.58,1.68c.88.57,2.09.5,2.8-.27.9-.99.68-2.51-.4-3.21Z"/>
      <path class="cls-3" d="m35.56,20.68c.44,0,.89.13,1.27.38l10.69,6.96c1.08.7,1.3,2.22.4,3.21-.4.44-.96.65-1.53.65-.44,0-.89-.13-1.27-.38l-2.58-1.68c-.19-.12-.4-.18-.61-.18-.37,0-.73.18-.94.51l-5.96,9.16c-.41.62-1.08.96-1.77.96-.5,0-1.01-.18-1.43-.56-.78-.71-.85-1.92-.28-2.8l5.9-9.07c.34-.52.19-1.22-.33-1.55l-2.68-1.74c-1.08-.7-1.3-2.22-.4-3.21.4-.44.96-.65,1.53-.65m0-1.84c-1.11,0-2.16.46-2.89,1.25-.79.87-1.16,2.03-1.01,3.18.15,1.15.79,2.18,1.77,2.81l2.08,1.35-5.51,8.46c-1.08,1.66-.83,3.89.58,5.17.74.67,1.69,1.04,2.67,1.04,1.34,0,2.58-.67,3.32-1.8l5.57-8.56,1.98,1.29c.68.44,1.47.68,2.28.68,1.11,0,2.16-.46,2.89-1.25.79-.87,1.16-2.03,1.01-3.18-.15-1.15-.79-2.18-1.77-2.81l-10.69-6.96c-.68-.44-1.47-.68-2.28-.68h0Z"/>
    </g>
    <g>
      <path class="cls-2" d="m32.04,98.67c.87-.42,1.23-1.47.81-2.33-.42-.87-1.46-1.23-2.33-.81l-3.42,1.65c-.37.18-.8.02-.98-.34l-.35-.72c-.18-.37-.02-.8.34-.98l3.42-1.65c.87-.42,1.23-1.47.81-2.33s-1.46-1.23-2.33-.81l-5.27,2.55c-1.08.52-1.54,1.83-1.01,2.91l4.65,9.62c.52,1.08,1.83,1.54,2.91,1.01l5.27-2.55c.87-.42,1.23-1.47.81-2.33s-1.46-1.23-2.33-.81l-3.42,1.65c-.37.18-.8.02-.98-.34l-.35-.72c-.18-.37-.02-.8.34-.98l3.42-1.65Z"/>
      <path class="cls-3" d="m28.76,90.15c.65,0,1.27.36,1.57.99.42.87.06,1.91-.81,2.33l-3.42,1.65c-.37.18-.52.62-.34.98l.35.72c.13.26.39.42.66.42.11,0,.22-.02.32-.07l3.42-1.65c.25-.12.5-.17.76-.17.65,0,1.27.36,1.57.99.42.87.06,1.91-.81,2.33l-3.42,1.65c-.37.18-.52.62-.34.98l.35.72c.13.26.39.42.66.42.11,0,.22-.02.32-.07l3.42-1.65c.25-.12.5-.17.76-.17.65,0,1.27.36,1.57.99.42.87.06,1.91-.81,2.33l-5.27,2.55c-.31.15-.63.22-.95.22-.81,0-1.59-.45-1.96-1.23l-4.65-9.62c-.52-1.08-.07-2.39,1.01-2.91l5.27-2.55c.25-.12.5-.17.76-.17m0-1.8h0c-.54,0-1.06.12-1.54.35l-5.27,2.55c-.96.46-1.68,1.27-2.03,2.27-.35,1-.29,2.08.17,3.04l4.65,9.62c.66,1.37,2.07,2.25,3.59,2.25.6,0,1.19-.13,1.73-.4l5.27-2.55c1.76-.85,2.5-2.98,1.65-4.74-.5-1.03-1.48-1.76-2.59-1.95.53-.97.6-2.17.08-3.24-.5-1.03-1.48-1.76-2.59-1.95.53-.97.6-2.17.08-3.24-.59-1.22-1.84-2.01-3.2-2.01h0Z"/>
    </g>
    <g>
      <path class="cls-1" d="m28.59,174.48c-.94.35-1.93.52-2.92.47-3.23-.16-5.9-2.47-7.33-6.34s-.91-7.36,1.43-9.59c2.18-2.07,5.69-2.65,8.55-1.42,1.06.46,1.55,1.69,1.09,2.75-.46,1.06-1.69,1.54-2.75,1.09-1.34-.58-3.02-.32-4.02.61-1.09,1.03-1.23,2.84-.39,5.1.84,2.26,2.12,3.54,3.62,3.62,1.35.06,2.8-.84,3.45-2.15.5-1.04,1.76-1.47,2.79-.96,1.04.51,1.47,1.76.96,2.79-.91,1.88-2.58,3.32-4.49,4.03Z"/>
      <path class="cls-3" d="m25.15,156.96c1.08,0,2.16.21,3.17.64,1.06.46,1.55,1.69,1.09,2.75-.34.79-1.11,1.26-1.92,1.26-.28,0-.56-.05-.82-.17-.48-.21-1.01-.31-1.53-.31-.93,0-1.85.32-2.49.92-1.09,1.03-1.23,2.84-.39,5.1.84,2.26,2.12,3.54,3.62,3.62.04,0,.09,0,.13,0,1.32,0,2.69-.88,3.32-2.16.36-.74,1.11-1.17,1.88-1.17.31,0,.62.07.91.21,1.04.51,1.47,1.76.96,2.79-.91,1.88-2.58,3.32-4.49,4.03-.83.31-1.71.48-2.58.48-.11,0-.22,0-.34,0-3.23-.16-5.9-2.47-7.33-6.34-1.43-3.87-.91-7.36,1.43-9.59,1.42-1.34,3.39-2.06,5.38-2.06m0-1.84c-2.51,0-4.93.93-6.65,2.56-2.91,2.75-3.6,6.97-1.89,11.56s4.97,7.34,8.97,7.54c.14,0,.28.01.43.01,1.08,0,2.17-.2,3.22-.59,2.4-.89,4.41-2.69,5.51-4.95.95-1.95.14-4.3-1.81-5.26-.54-.26-1.12-.4-1.72-.4-1.5,0-2.89.87-3.54,2.21-.31.62-1.04,1.12-1.66,1.12-.72-.03-1.48-.96-2.02-2.42-.54-1.46-.57-2.65-.07-3.12.27-.26.74-.42,1.22-.42.29,0,.56.05.8.16.49.21,1.01.32,1.55.32,1.57,0,2.99-.93,3.61-2.37.42-.97.43-2.04.05-3.01-.39-.98-1.13-1.74-2.1-2.16-1.22-.53-2.53-.79-3.9-.79h0Z"/>
    </g>
    <g>
      <path class="cls-6" d="m125.72,96.49c-3.12-.88-4.87-4.35-3.91-7.75s4.27-5.43,7.39-4.55,4.87,4.35,3.91,7.74-4.27,5.44-7.39,4.56Zm2.71-9.61c-1.64-.46-3.4.72-3.94,2.63-.54,1.91.35,3.84,1.99,4.3,1.64.46,3.4-.72,3.94-2.63s-.35-3.84-1.99-4.3Z"/>
      <path class="cls-3" d="m127.71,83.99c.49,0,.98.07,1.47.2,3.12.88,4.87,4.35,3.91,7.74-.81,2.86-3.29,4.76-5.91,4.76-.49,0-.98-.07-1.47-.2-3.12-.88-4.87-4.35-3.91-7.75.81-2.86,3.29-4.76,5.91-4.76m-.52,9.92c1.4,0,2.76-1.1,3.22-2.73.54-1.91-.35-3.84-1.99-4.3-.24-.07-.48-.1-.72-.1-1.4,0-2.76,1.1-3.22,2.73-.54,1.91.35,3.84,1.99,4.3.24.07.48.1.72.1m.52-11.33h0c-3.32,0-6.31,2.38-7.28,5.79-1.17,4.14,1.03,8.4,4.89,9.49.61.17,1.23.26,1.86.26,3.32,0,6.31-2.38,7.28-5.79.56-1.98.37-4.06-.53-5.84-.92-1.82-2.47-3.12-4.36-3.65-.61-.17-1.23-.26-1.86-.26h0Zm-.52,9.92c-.11,0-.23-.02-.34-.05-.87-.24-1.33-1.41-1.01-2.55.28-.98,1.06-1.69,1.85-1.69.11,0,.23.02.34.05.52.15.79.59.91.84.23.5.27,1.12.1,1.71-.28.98-1.06,1.7-1.85,1.7h0Z"/>
    </g>
  </g>
</svg>