<?xml version="1.0" encoding="UTF-8"?>
<svg id="Layer_2" data-name="Layer 2" xmlns="http://www.w3.org/2000/svg" viewBox="0 0 113.74 181.68">
  <defs>
    <style>
      .cls-1 {
        fill: #fff;
      }

      .cls-2 {
        fill: #95e0e6;
      }

      .cls-3 {
        fill: #565656;
      }

      .cls-4 {
        fill: #363636;
      }

      .cls-5 {
        fill: #8f8f8f;
      }

      .cls-6 {
        fill: #ffdfbc;
      }

      .cls-7 {
        fill: #d5d5d5;
      }
    </style>
  </defs>
  <g id="_背景ドット" data-name="背景ドット">
    <g>
      <path class="cls-1" d="m55.76,46.07c-.33,0-.59.27-.59.59s.27.59.59.59c.03,0,.06-.01.1-.02-.02-.39-.04-.78-.07-1.16,0,0-.02,0-.02,0Z"/>
      <path class="cls-1" d="m53.17,36.33c.02.11.06.22.14.3-.05-.1-.09-.2-.14-.3Z"/>
      <path class="cls-1" d="m51.74,46.07c-.33,0-.59.27-.59.59s.27.59.59.59.59-.27.59-.59-.27-.59-.59-.59Z"/>
      <path class="cls-1" d="m53.75,43.78c.33,0,.59-.27.59-.59s-.27-.59-.59-.59-.59.27-.59.59.27.59.59.59Z"/>
      <path class="cls-1" d="m55.46,53.11c-.18.1-.3.29-.3.51,0,.14.06.27.14.37.06-.29.11-.59.16-.88Z"/>
      <path class="cls-1" d="m51.74,53.03c-.33,0-.59.27-.59.59s.27.59.59.59.59-.27.59-.59-.27-.59-.59-.59Z"/>
      <path class="cls-1" d="m53.16,50.14c0,.33.27.59.59.59s.59-.27.59-.59-.27-.59-.59-.59-.59.27-.59.59Z"/>
      <path class="cls-1" d="m51.74,59.98c-.33,0-.59.27-.59.59s.27.59.59.59.59-.27.59-.59-.27-.59-.59-.59Z"/>
      <path class="cls-1" d="m53.75,57.69c.33,0,.59-.27.59-.59s-.27-.59-.59-.59-.59.27-.59.59.27.59.59.59Z"/>
      <circle class="cls-1" cx="47.73" cy="39.72" r=".59"/>
      <circle class="cls-1" cx="49.74" cy="36.24" r=".59"/>
      <path class="cls-1" d="m51.15,32.78c0,.22.14.41.33.51-.11-.17-.21-.34-.33-.51Z"/>
      <path class="cls-1" d="m47.73,46.07c-.33,0-.59.27-.59.59s.27.59.59.59.59-.27.59-.59-.27-.59-.59-.59Z"/>
      <circle class="cls-1" cx="49.74" cy="43.19" r=".59"/>
      <path class="cls-1" d="m51.15,39.72c0,.33.27.59.59.59s.59-.27.59-.59-.27-.59-.59-.59-.59.27-.59.59Z"/>
      <path class="cls-1" d="m50.33,50.14c0-.33-.27-.59-.59-.59s-.59.27-.59.59.27.59.59.59.59-.27.59-.59Z"/>
      <circle class="cls-1" cx="49.74" cy="57.09" r=".59"/>
      <circle class="cls-1" cx="49.74" cy="64.05" r=".59"/>
      <path class="cls-1" d="m43.72,32.17c-.33,0-.59.27-.59.59s.27.59.59.59.59-.27.59-.59-.27-.59-.59-.59Z"/>
      <path class="cls-1" d="m45.72,29.88c.33,0,.59-.27.59-.59s-.27-.59-.59-.59-.59.27-.59.59.27.59.59.59Z"/>
      <path class="cls-1" d="m43.72,39.12c-.33,0-.59.27-.59.59s.27.59.59.59.59-.27.59-.59-.27-.59-.59-.59Z"/>
      <path class="cls-1" d="m46.32,36.24c0-.33-.27-.59-.59-.59s-.59.27-.59.59.27.59.59.59.59-.27.59-.59Z"/>
      <circle class="cls-1" cx="47.73" cy="32.76" r=".59"/>
      <path class="cls-1" d="m43.72,46.07c-.33,0-.59.27-.59.59s.27.59.59.59.59-.27.59-.59-.27-.59-.59-.59Z"/>
      <path class="cls-1" d="m46.32,43.19c0-.33-.27-.59-.59-.59s-.59.27-.59.59.27.59.59.59.59-.27.59-.59Z"/>
      <path class="cls-1" d="m43.72,53.03c-.33,0-.59.27-.59.59s.27.59.59.59.59-.27.59-.59-.27-.59-.59-.59Z"/>
      <path class="cls-1" d="m46.32,50.14c0-.33-.27-.59-.59-.59s-.59.27-.59.59.27.59.59.59.59-.27.59-.59Z"/>
      <path class="cls-1" d="m43.72,59.98c-.33,0-.59.27-.59.59s.27.59.59.59.59-.27.59-.59-.27-.59-.59-.59Z"/>
      <path class="cls-1" d="m45.13,57.09c0,.33.27.59.59.59s.59-.27.59-.59-.27-.59-.59-.59-.59.27-.59.59Z"/>
      <circle class="cls-1" cx="47.73" cy="53.62" r=".59"/>
      <path class="cls-1" d="m43.72,66.93c-.33,0-.59.27-.59.59s.27.59.59.59.59-.27.59-.59-.27-.59-.59-.59Z"/>
      <path class="cls-1" d="m45.13,64.05c0,.33.27.59.59.59s.59-.27.59-.59-.27-.59-.59-.59-.59.27-.59.59Z"/>
      <circle class="cls-1" cx="47.73" cy="60.57" r=".59"/>
      <path class="cls-1" d="m48.31,67.46c-.03-.29-.28-.53-.58-.53-.33,0-.59.27-.59.59s.24.56.55.59c.21-.21.42-.43.62-.65Z"/>
      <path class="cls-1" d="m43.12,25.81c0,.33.27.59.59.59s.59-.27.59-.59c0-.05-.02-.09-.03-.14-.21-.15-.41-.3-.62-.44-.3.03-.54.27-.54.58Z"/>
      <path class="cls-1" d="m39.7,25.22c-.33,0-.59.27-.59.59s.27.59.59.59.59-.27.59-.59-.27-.59-.59-.59Z"/>
      <path class="cls-1" d="m39.7,32.17c-.33,0-.59.27-.59.59s.27.59.59.59.59-.27.59-.59-.27-.59-.59-.59Z"/>
      <circle class="cls-1" cx="41.71" cy="29.29" r=".59"/>
      <path class="cls-1" d="m39.7,39.12c-.33,0-.59.27-.59.59s.27.59.59.59.59-.27.59-.59-.27-.59-.59-.59Z"/>
      <circle class="cls-1" cx="41.71" cy="36.24" r=".59"/>
      <path class="cls-1" d="m39.7,46.07c-.33,0-.59.27-.59.59s.27.59.59.59.59-.27.59-.59-.27-.59-.59-.59Z"/>
      <circle class="cls-1" cx="41.71" cy="43.19" r=".59"/>
      <path class="cls-1" d="m39.7,53.03c-.33,0-.59.27-.59.59s.27.59.59.59.59-.27.59-.59-.27-.59-.59-.59Z"/>
      <path class="cls-1" d="m42.3,50.14c0-.33-.27-.59-.59-.59s-.59.27-.59.59.27.59.59.59.59-.27.59-.59Z"/>
      <path class="cls-1" d="m39.7,59.98c-.33,0-.59.27-.59.59s.27.59.59.59.59-.27.59-.59-.27-.59-.59-.59Z"/>
      <circle class="cls-1" cx="41.71" cy="57.09" r=".59"/>
      <path class="cls-1" d="m39.7,66.93c-.33,0-.59.27-.59.59s.27.59.59.59.59-.27.59-.59-.27-.59-.59-.59Z"/>
      <circle class="cls-1" cx="41.71" cy="64.05" r=".59"/>
      <path class="cls-1" d="m41.11,71c0,.33.27.59.59.59s.59-.27.59-.59-.27-.59-.59-.59-.59.27-.59.59Z"/>
      <path class="cls-1" d="m35.69,25.22c-.33,0-.59.27-.59.59s.27.59.59.59.59-.27.59-.59-.27-.59-.59-.59Z"/>
      <path class="cls-1" d="m37.69,22.93c.32,0,.57-.25.59-.56-.35-.14-.69-.27-1.05-.4-.08.1-.13.22-.13.36,0,.33.27.59.59.59Z"/>
      <circle class="cls-1" cx="35.69" cy="32.76" r=".59"/>
      <path class="cls-1" d="m38.29,29.29c0-.33-.27-.59-.59-.59s-.59.27-.59.59.27.59.59.59.59-.27.59-.59Z"/>
      <circle class="cls-1" cx="35.69" cy="39.72" r=".59"/>
      <path class="cls-1" d="m37.69,35.65c-.33,0-.59.27-.59.59s.27.59.59.59.59-.27.59-.59-.27-.59-.59-.59Z"/>
      <path class="cls-1" d="m35.69,46.07c-.33,0-.59.27-.59.59s.27.59.59.59.59-.27.59-.59-.27-.59-.59-.59Z"/>
      <path class="cls-1" d="m38.29,43.19c0-.33-.27-.59-.59-.59s-.59.27-.59.59.27.59.59.59.59-.27.59-.59Z"/>
      <circle class="cls-1" cx="35.69" cy="53.62" r=".59"/>
      <path class="cls-1" d="m38.29,50.14c0-.33-.27-.59-.59-.59s-.59.27-.59.59.27.59.59.59.59-.27.59-.59Z"/>
      <circle class="cls-1" cx="35.69" cy="60.57" r=".59"/>
      <path class="cls-1" d="m37.1,57.09c0,.33.27.59.59.59s.59-.27.59-.59-.27-.59-.59-.59-.59.27-.59.59Z"/>
      <circle class="cls-1" cx="35.69" cy="67.52" r=".59"/>
      <path class="cls-1" d="m37.1,64.05c0,.33.27.59.59.59s.59-.27.59-.59-.27-.59-.59-.59-.59.27-.59.59Z"/>
      <path class="cls-1" d="m35.69,73.88c-.33,0-.59.27-.59.59s.27.59.59.59.59-.27.59-.59-.27-.59-.59-.59Z"/>
      <path class="cls-1" d="m38.29,71c0-.33-.27-.59-.59-.59s-.59.27-.59.59.27.59.59.59.59-.27.59-.59Z"/>
      <path class="cls-1" d="m31.67,25.22c-.33,0-.59.27-.59.59s.27.59.59.59.59-.27.59-.59-.27-.59-.59-.59Z"/>
      <path class="cls-1" d="m34.27,22.34c0-.33-.27-.59-.59-.59s-.59.27-.59.59.27.59.59.59.59-.27.59-.59Z"/>
      <path class="cls-1" d="m31.67,32.17c-.33,0-.59.27-.59.59s.27.59.59.59.59-.27.59-.59-.27-.59-.59-.59Z"/>
      <circle class="cls-1" cx="33.68" cy="29.29" r=".59"/>
      <path class="cls-1" d="m31.67,39.12c-.33,0-.59.27-.59.59s.27.59.59.59.59-.27.59-.59-.27-.59-.59-.59Z"/>
      <circle class="cls-1" cx="33.68" cy="36.24" r=".59"/>
      <path class="cls-1" d="m31.67,46.07c-.33,0-.59.27-.59.59s.27.59.59.59.59-.27.59-.59-.27-.59-.59-.59Z"/>
      <circle class="cls-1" cx="33.68" cy="43.19" r=".59"/>
      <path class="cls-1" d="m31.67,53.03c-.33,0-.59.27-.59.59s.27.59.59.59.59-.27.59-.59-.27-.59-.59-.59Z"/>
      <path class="cls-1" d="m34.27,50.14c0-.33-.27-.59-.59-.59s-.59.27-.59.59.27.59.59.59.59-.27.59-.59Z"/>
      <path class="cls-1" d="m31.67,59.98c-.33,0-.59.27-.59.59s.27.59.59.59.59-.27.59-.59-.27-.59-.59-.59Z"/>
      <circle class="cls-1" cx="33.68" cy="57.09" r=".59"/>
      <path class="cls-1" d="m31.67,66.93c-.33,0-.59.27-.59.59s.27.59.59.59.59-.27.59-.59-.27-.59-.59-.59Z"/>
      <circle class="cls-1" cx="33.68" cy="64.05" r=".59"/>
      <path class="cls-1" d="m31.67,73.88c-.33,0-.59.27-.59.59s.27.59.59.59.59-.27.59-.59-.27-.59-.59-.59Z"/>
      <path class="cls-1" d="m33.09,71c0,.33.27.59.59.59s.59-.27.59-.59-.27-.59-.59-.59-.59.27-.59.59Z"/>
      <path class="cls-1" d="m27.66,25.22c-.33,0-.59.27-.59.59s.27.59.59.59.59-.27.59-.59-.27-.59-.59-.59Z"/>
      <path class="cls-1" d="m30.26,22.34c0-.33-.27-.59-.59-.59s-.59.27-.59.59.27.59.59.59.59-.27.59-.59Z"/>
      <circle class="cls-1" cx="27.66" cy="32.76" r=".59"/>
      <path class="cls-1" d="m30.26,29.29c0-.33-.27-.59-.59-.59s-.59.27-.59.59.27.59.59.59.59-.27.59-.59Z"/>
      <circle class="cls-1" cx="27.66" cy="39.72" r=".59"/>
      <path class="cls-1" d="m30.26,36.24c0-.33-.27-.59-.59-.59s-.59.27-.59.59.27.59.59.59.59-.27.59-.59Z"/>
      <path class="cls-1" d="m27.66,46.07c-.33,0-.59.27-.59.59s.27.59.59.59.59-.27.59-.59-.27-.59-.59-.59Z"/>
      <path class="cls-1" d="m30.26,43.19c0-.33-.27-.59-.59-.59s-.59.27-.59.59.27.59.59.59.59-.27.59-.59Z"/>
      <circle class="cls-1" cx="27.66" cy="53.62" r=".59"/>
      <path class="cls-1" d="m29.07,50.14c0,.33.27.59.59.59s.59-.27.59-.59-.27-.59-.59-.59-.59.27-.59.59Z"/>
      <circle class="cls-1" cx="27.66" cy="60.57" r=".59"/>
      <path class="cls-1" d="m29.07,57.09c0,.33.27.59.59.59s.59-.27.59-.59-.27-.59-.59-.59-.59.27-.59.59Z"/>
      <circle class="cls-1" cx="27.66" cy="67.52" r=".59"/>
      <path class="cls-1" d="m29.07,64.05c0,.33.27.59.59.59s.59-.27.59-.59-.27-.59-.59-.59-.59.27-.59.59Z"/>
      <path class="cls-1" d="m27.66,73.88c-.33,0-.59.27-.59.59s.27.59.59.59.59-.27.59-.59-.27-.59-.59-.59Z"/>
      <path class="cls-1" d="m29.07,71c0,.33.27.59.59.59s.59-.27.59-.59-.27-.59-.59-.59-.59.27-.59.59Z"/>
      <path class="cls-1" d="m23.65,25.22c-.33,0-.59.27-.59.59s.27.59.59.59.59-.27.59-.59-.27-.59-.59-.59Z"/>
      <path class="cls-1" d="m26.25,22.34c0-.33-.27-.59-.59-.59s-.59.27-.59.59.27.59.59.59.59-.27.59-.59Z"/>
      <path class="cls-1" d="m23.65,32.17c-.33,0-.59.27-.59.59s.27.59.59.59.59-.27.59-.59-.27-.59-.59-.59Z"/>
      <path class="cls-1" d="m26.25,29.29c0-.33-.27-.59-.59-.59s-.59.27-.59.59.27.59.59.59.59-.27.59-.59Z"/>
      <path class="cls-1" d="m23.65,39.12c-.33,0-.59.27-.59.59s.27.59.59.59.59-.27.59-.59-.27-.59-.59-.59Z"/>
      <path class="cls-1" d="m26.25,36.24c0-.33-.27-.59-.59-.59s-.59.27-.59.59.27.59.59.59.59-.27.59-.59Z"/>
      <path class="cls-1" d="m26.25,43.19c0-.33-.27-.59-.59-.59s-.59.27-.59.59.27.59.59.59.59-.27.59-.59Z"/>
      <path class="cls-1" d="m23.65,53.03c-.33,0-.59.27-.59.59s.27.59.59.59.59-.27.59-.59-.27-.59-.59-.59Z"/>
      <path class="cls-1" d="m25.65,50.74c.33,0,.59-.27.59-.59s-.27-.59-.59-.59-.59.27-.59.59.27.59.59.59Z"/>
      <path class="cls-1" d="m23.65,59.98c-.33,0-.59.27-.59.59s.27.59.59.59.59-.27.59-.59-.27-.59-.59-.59Z"/>
      <path class="cls-1" d="m25.06,57.09c0,.33.27.59.59.59s.59-.27.59-.59-.27-.59-.59-.59-.59.27-.59.59Z"/>
      <path class="cls-1" d="m23.65,66.93c-.33,0-.59.27-.59.59s.27.59.59.59.59-.27.59-.59-.27-.59-.59-.59Z"/>
      <path class="cls-1" d="m25.06,64.05c0,.33.27.59.59.59s.59-.27.59-.59-.27-.59-.59-.59-.59.27-.59.59Z"/>
      <path class="cls-1" d="m23.65,73.88c-.33,0-.59.27-.59.59s.27.59.59.59.59-.27.59-.59-.27-.59-.59-.59Z"/>
      <path class="cls-1" d="m25.06,71c0,.33.27.59.59.59s.59-.27.59-.59-.27-.59-.59-.59-.59.27-.59.59Z"/>
      <path class="cls-1" d="m19.63,25.22c-.33,0-.59.27-.59.59s.27.59.59.59.59-.27.59-.59-.27-.59-.59-.59Z"/>
      <path class="cls-1" d="m22.23,22.34c0-.33-.27-.59-.59-.59s-.59.27-.59.59.27.59.59.59.59-.27.59-.59Z"/>
      <circle class="cls-1" cx="19.63" cy="32.76" r=".59"/>
      <circle class="cls-1" cx="21.64" cy="29.29" r=".59"/>
      <circle class="cls-1" cx="21.64" cy="36.24" r=".59"/>
      <path class="cls-1" d="m19.63,46.07c-.33,0-.59.27-.59.59s.27.59.59.59.59-.27.59-.59-.27-.59-.59-.59Z"/>
      <circle class="cls-1" cx="21.64" cy="43.19" r=".59"/>
      <path class="cls-1" d="m22.23,50.14c0-.33-.27-.59-.59-.59s-.59.27-.59.59.27.59.59.59.59-.27.59-.59Z"/>
      <path class="cls-1" d="m23.65,47.26c.33,0,.59-.27.59-.59s-.27-.59-.59-.59-.59.27-.59.59.27.59.59.59Z"/>
      <circle class="cls-1" cx="21.64" cy="57.09" r=".59"/>
      <circle class="cls-1" cx="21.64" cy="64.05" r=".59"/>
      <path class="cls-1" d="m21.05,71c0,.33.27.59.59.59s.59-.27.59-.59-.27-.59-.59-.59-.59.27-.59.59Z"/>
      <path class="cls-1" d="m20.23,74.47c0-.33-.27-.59-.59-.59s-.59.27-.59.59c0,.17.08.33.19.43.15.05.3.1.45.15.3-.03.54-.27.54-.58Z"/>
      <path class="cls-1" d="m15.62,25.22c-.33,0-.59.27-.59.59s.27.59.59.59.59-.27.59-.59-.27-.59-.59-.59Z"/>
      <path class="cls-1" d="m17.63,22.93c.33,0,.59-.27.59-.59,0-.07-.02-.14-.04-.21-.37.14-.74.28-1.1.43.09.22.3.37.55.37Z"/>
      <path class="cls-1" d="m18.22,29.29c0-.33-.27-.59-.59-.59s-.59.27-.59.59.27.59.59.59.59-.27.59-.59Z"/>
      <path class="cls-1" d="m15.62,39.12c-.33,0-.59.27-.59.59s.27.59.59.59.59-.27.59-.59-.27-.59-.59-.59Z"/>
      <path class="cls-1" d="m17.63,36.83c.33,0,.59-.27.59-.59s-.27-.59-.59-.59-.59.27-.59.59.27.59.59.59Z"/>
      <path class="cls-1" d="m15.62,46.07c-.33,0-.59.27-.59.59s.27.59.59.59.59-.27.59-.59-.27-.59-.59-.59Z"/>
      <path class="cls-1" d="m18.22,43.19c0-.33-.27-.59-.59-.59s-.59.27-.59.59.27.59.59.59.59-.27.59-.59Z"/>
      <circle class="cls-1" cx="19.63" cy="39.72" r=".59"/>
      <path class="cls-1" d="m15.62,53.03c-.33,0-.59.27-.59.59s.27.59.59.59.59-.27.59-.59-.27-.59-.59-.59Z"/>
      <path class="cls-1" d="m18.22,50.14c0-.33-.27-.59-.59-.59s-.59.27-.59.59.27.59.59.59.59-.27.59-.59Z"/>
      <path class="cls-1" d="m15.62,59.98c-.33,0-.59.27-.59.59s.27.59.59.59.59-.27.59-.59-.27-.59-.59-.59Z"/>
      <path class="cls-1" d="m17.03,57.09c0,.33.27.59.59.59s.59-.27.59-.59-.27-.59-.59-.59-.59.27-.59.59Z"/>
      <circle class="cls-1" cx="19.63" cy="53.62" r=".59"/>
      <path class="cls-1" d="m15.62,66.93c-.33,0-.59.27-.59.59s.27.59.59.59.59-.27.59-.59-.27-.59-.59-.59Z"/>
      <path class="cls-1" d="m17.03,64.05c0,.33.27.59.59.59s.59-.27.59-.59-.27-.59-.59-.59-.59.27-.59.59Z"/>
      <circle class="cls-1" cx="19.63" cy="60.57" r=".59"/>
      <path class="cls-1" d="m18.22,71c0-.33-.27-.59-.59-.59s-.59.27-.59.59.27.59.59.59.59-.27.59-.59Z"/>
      <circle class="cls-1" cx="19.63" cy="67.52" r=".59"/>
      <path class="cls-1" d="m11.61,32.17c-.33,0-.59.27-.59.59s.27.59.59.59.59-.27.59-.59-.27-.59-.59-.59Z"/>
      <circle class="cls-1" cx="13.61" cy="29.29" r=".59"/>
      <path class="cls-1" d="m11.61,39.12c-.33,0-.59.27-.59.59s.27.59.59.59.59-.27.59-.59-.27-.59-.59-.59Z"/>
      <circle class="cls-1" cx="13.61" cy="36.24" r=".59"/>
      <path class="cls-1" d="m15.62,33.36c.33,0,.59-.27.59-.59s-.27-.59-.59-.59-.59.27-.59.59.27.59.59.59Z"/>
      <path class="cls-1" d="m11.61,46.07c-.33,0-.59.27-.59.59s.27.59.59.59.59-.27.59-.59-.27-.59-.59-.59Z"/>
      <circle class="cls-1" cx="13.61" cy="43.19" r=".59"/>
      <path class="cls-1" d="m11.61,53.03c-.33,0-.59.27-.59.59s.27.59.59.59.59-.27.59-.59-.27-.59-.59-.59Z"/>
      <path class="cls-1" d="m14.21,50.14c0-.33-.27-.59-.59-.59s-.59.27-.59.59.27.59.59.59.59-.27.59-.59Z"/>
      <path class="cls-1" d="m11.61,59.98c-.33,0-.59.27-.59.59s.27.59.59.59.59-.27.59-.59-.27-.59-.59-.59Z"/>
      <circle class="cls-1" cx="13.61" cy="57.09" r=".59"/>
      <path class="cls-1" d="m11.61,66.93c-.33,0-.59.27-.59.59s.27.59.59.59.59-.27.59-.59-.27-.59-.59-.59Z"/>
      <circle class="cls-1" cx="13.61" cy="64.05" r=".59"/>
      <path class="cls-1" d="m13.02,71c0,.33.27.59.59.59s.59-.27.59-.59-.27-.59-.59-.59-.59.27-.59.59Z"/>
      <path class="cls-1" d="m11.06,26.04c.09.21.3.36.55.36.33,0,.59-.27.59-.59,0-.18-.08-.33-.21-.44-.32.22-.63.44-.93.67Z"/>
      <circle class="cls-1" cx="7.59" cy="32.76" r=".59"/>
      <path class="cls-1" d="m9.6,28.69c-.33,0-.59.27-.59.59s.27.59.59.59.59-.27.59-.59-.27-.59-.59-.59Z"/>
      <circle class="cls-1" cx="7.59" cy="39.72" r=".59"/>
      <path class="cls-1" d="m10.19,36.24c0-.33-.27-.59-.59-.59s-.59.27-.59.59.27.59.59.59.59-.27.59-.59Z"/>
      <path class="cls-1" d="m7.59,46.07c-.33,0-.59.27-.59.59s.27.59.59.59.59-.27.59-.59-.27-.59-.59-.59Z"/>
      <path class="cls-1" d="m10.19,43.19c0-.33-.27-.59-.59-.59s-.59.27-.59.59.27.59.59.59.59-.27.59-.59Z"/>
      <path class="cls-1" d="m10.19,50.14c0-.33-.27-.59-.59-.59s-.59.27-.59.59.27.59.59.59.59-.27.59-.59Z"/>
      <circle class="cls-1" cx="7.59" cy="60.57" r=".59"/>
      <path class="cls-1" d="m9.01,57.09c0,.33.27.59.59.59s.59-.27.59-.59-.27-.59-.59-.59-.59.27-.59.59Z"/>
      <path class="cls-1" d="m7.59,66.93c-.16,0-.29.06-.4.16.26.29.54.58.81.86.11-.11.18-.26.18-.42,0-.33-.27-.59-.59-.59Z"/>
      <path class="cls-1" d="m9.01,64.05c0,.33.27.59.59.59s.59-.27.59-.59-.27-.59-.59-.59-.59.27-.59.59Z"/>
      <path class="cls-1" d="m3.58,39.12c-.33,0-.59.27-.59.59s.27.59.59.59.59-.27.59-.59-.27-.59-.59-.59Z"/>
      <circle class="cls-1" cx="5.59" cy="36.24" r=".59"/>
      <circle class="cls-1" cx="5.59" cy="43.19" r=".59"/>
      <path class="cls-1" d="m5.59,50.74c.33,0,.59-.27.59-.59s-.27-.59-.59-.59-.59.27-.59.59.27.59.59.59Z"/>
      <path class="cls-1" d="m3.58,59.98c-.33,0-.59.27-.59.59s.27.59.59.59.59-.27.59-.59-.27-.59-.59-.59Z"/>
      <circle class="cls-1" cx="5.59" cy="57.09" r=".59"/>
      <circle class="cls-1" cx="7.59" cy="53.62" r=".59"/>
      <circle class="cls-1" cx="5.59" cy="64.05" r=".59"/>
      <path class="cls-1" d="m1.57,43.78c.33,0,.59-.27.59-.59s-.27-.59-.59-.59-.59.27-.59.59.27.59.59.59Z"/>
      <path class="cls-1" d="m1.57,50.74c.33,0,.59-.27.59-.59s-.27-.59-.59-.59-.59.27-.59.59.27.59.59.59Z"/>
      <path class="cls-1" d="m3.58,47.26c.33,0,.59-.27.59-.59s-.27-.59-.59-.59-.59.27-.59.59.27.59.59.59Z"/>
      <path class="cls-1" d="m.16,46.67c0-.12-.05-.23-.11-.33-.02.24-.04.48-.05.73.1-.11.16-.24.16-.4Z"/>
      <path class="cls-1" d="m1.57,56.5c-.14,0-.25.05-.35.13.11.36.23.71.36,1.06.33,0,.59-.27.59-.59s-.27-.59-.59-.59Z"/>
      <path class="cls-1" d="m3.58,54.21c.33,0,.59-.27.59-.59s-.27-.59-.59-.59-.59.27-.59.59.27.59.59.59Z"/>
    </g>
  </g>
  <g id="_人物" data-name="人物">
    <g>
      <g>
        <path class="cls-6" d="m87.39,21.47v.05c.05-1.52.02-2.98-.09-4.34-.41-5.04-2.68-8.19-5.16-9.59l-9.13-2.38c-5.28,1.07-10.65,3.14-12.22,9.08-.35,1.33-.62,2.84-.82,4.42v-.04c-2.81-.81-6.01.45-6.5,4.34-.49,3.9,2.63,7.77,6.47,7.94v-.03c.14.87.31,1.62.52,2.18,1.24,3.3,4.21,7.84,10.32,8.67,6.11.83,11.63-2.53,13.95-7.81.17-.38.31-.79.46-1.18l-.02.12c4.22.23,7.07-2.01,7.28-6.15.2-3.93-2.74-5.43-5.06-5.28Z"/>
        <path class="cls-5" d="m70.54,127.65c-2.08-2.48-2.51-8-2.26-14.15-6.25.18-16.01-1-16.01-1-1.19,7.95-2.71,13.38-6.27,15.51-3.41,2.05-7.02,1.67-9.28,1.09-.32-.08-.61-.23-.87-.41l-.03-.02c-1.36,9.27-2.16,26.82-2.06,33.94.1,7.12,1.3,8.72,3.51,15.34,0,0,5.02,3.2,22.42,1.65,1.8-.16,3.62-.05,5.35.46,8.54,2.52,19.33,1.61,25.87.7.5-6.72,5.01-36.19,5.34-49.08-9.07,1.68-21.99.42-25.72-4.02Zm-9.26,46.28c-.7-1-4.14-5.62-4.65-8.33-.5-2.71,3.91-15.64,5.81-21.35l-1.17,29.68Z"/>
        <path class="cls-1" d="m70.18,18.97c-1.5-.59-3.42-.8-5.12-.74-1.2.04-2.1,1.11-2,2.31.14,1.61.91,3.13,3.79,3.33,3.07.21,4.18-.98,4.56-2.47.26-1-.27-2.06-1.23-2.44Z"/>
        <path class="cls-1" d="m76.68,19.66c1.6-.24,3.51-.03,5.16.41,1.17.31,1.8,1.55,1.44,2.7-.49,1.54-1.57,2.85-4.42,2.41-3.04-.47-3.86-1.88-3.91-3.41-.03-1.03.72-1.95,1.74-2.11Z"/>
        <path class="cls-2" d="m110.58,67.93c-1.53-9.72-5.7-13.33-10.84-16.06-5.12-2.72-13.91-8.07-17.82-10.4l.22,1.87c.23,1.35.09,2.74-.33,4.05-1.83,5.68-6.74,18.74-8.73,32.02l-2.53,13.17c-1.1,9.07-4.62,29.55,0,35.06,3.85,4.59,17.54,5.78,26.63,3.83,1.22-.26,2.09-1.32,2.07-2.57-.08-4.71-.32-16.61-.94-24.97h0c5.48-.37,9.95-3.87,12.28-8.38,2.73-5.3,1.53-17.91,0-27.63Z"/>
        <path class="cls-2" d="m40.19,98.1c-.5,3.77-4.05,21.83-5.28,28.08-.26,1.31.54,2.59,1.83,2.93,2.25.58,5.87.96,9.28-1.09,6.02-3.61,6.21-16.67,8.82-35.42.2-1.46.41-2.9.62-4.31l3.19-19.49c3.44-18.92,6.4-29.35,6.4-29.35l-.28,1.11c-4.67,1.89-6.76,3.43-6.76,3.43-7.6,2.09-15.11,3.61-20.48,9.68-2.64,2.99-3.96,8.27-7.38,14.21-3.41,5.94-10.44,12.37-6.83,21.58,3.04,7.74,9.36,8.99,16.88,8.65Z"/>
        <path class="cls-4" d="m73.07,79.42c1.99-13.28,6.9-26.35,8.73-32.02.42-1.31.56-2.7.33-4.05s-.35-3.21-.16-5.32c-3.87,3.78-11.53,5.7-16.94,1.42,0,0-5.32,22.97-6.4,29.35,0,0,2.11.09,2.49,2.2,3.7.77,4.12,1.79,6.52,3.97,2.39,2.18,5.43,4.45,5.43,4.45Z"/>
        <path class="cls-4" d="m50.17,88.84c-.37,2.3-1.78,7.49-4.17,7.78-3.79.46-3.51-8.47-2.34-15.42.34,5.56,2.63,7.49,6.51,7.65Z"/>
        <path class="cls-4" d="m55.45,88.28l1.97-.1s4.65,4.19,13.12,4.42c0,0-2.52,14.45-2.32,21.38,0,0-11.87-.44-16.02-.96,0,0,1.59-14.15,3.25-24.74Z"/>
        <path class="cls-7" d="m81.23,4.26c-1.24-2.11-2.22-2.65-4.08-2.85s-1.15.14-3.66.37-5.61-.07-7.44,1.74c0,0-2.53-.19-3.45,2.6,0,0-3.16,1.75-4.62,5.32-1.46,3.57-1.01,7.15-1.01,7.15l3.01-.17s.91-6.85,4.45-9.83c3.55-2.98,7.63-3.46,8.64-3.4,0,0-2.51,2.79.17,2.63s3.57-1.1,3.57-1.1c0,0,1.6,2.91,5.43,1.1,0,0,5.46,1.67,5.17,13.02l2.74,1.24s1.57-2.41.77-5.4c-.79-2.99-.6-3.42-.6-3.42,0,0,1.04-1.65-.32-3.61,0,0-.94.04-2.58-1.99-1.64-2.03-2.5-4.2-6.18-3.4Z"/>
        <path class="cls-6" d="m68.91,76.13c-2.78-2.6-4.36-3.85-7.79-5.13h0c-.14-.55-.5-1.05-.99-1.37-2.9-1.9-6.49-2.47-10.42-.3-4.34,2.4-5.36,6.37-5.77,9.17-.43,2.91-.79,6.79,2.24,9.32,2.41,2.01,6.76.49,10.78.37,3.94,3.06,9.78,4.83,15.26,4.31.62-7.12,2.94-12.07,2.94-12.07-1.83-.77-3.43-1.68-6.24-4.3Z"/>
      </g>
      <g>
        <path class="cls-4" d="m72.64,42.75c-.65,0-1.3-.04-1.96-.13-7.18-.97-10.09-6.77-11-9.21-1.37-3.65-1.21-13.59.3-19.34,1.75-6.64,7.8-8.67,12.87-9.7.45-.09.91.2,1,.66.09.46-.2.91-.66,1-4.59.93-10.05,2.74-11.57,8.47-1.54,5.82-1.5,15.25-.36,18.31,1.01,2.68,3.6,7.31,9.64,8.13,5.56.75,10.81-2.19,13.05-7.31,2.03-4.63,2.96-10.76,2.5-16.38-.48-5.91-3.47-8.21-4.73-8.92-.41-.23-.55-.75-.32-1.16.23-.41.75-.55,1.16-.32,3.16,1.79,5.2,5.53,5.59,10.26.48,5.89-.5,12.32-2.64,17.2-2.28,5.22-7.31,8.45-12.88,8.45Z"/>
        <path class="cls-4" d="m85.75,33.76c-.2,0-.41,0-.62-.02-.47-.03-.83-.43-.8-.89.03-.47.46-.81.89-.8,1.97.11,3.59-.37,4.7-1.37,1.03-.93,1.59-2.27,1.68-3.97.07-1.41-.3-2.52-1.09-3.3-.76-.75-1.92-1.16-3.06-1.08-.48.02-.87-.33-.9-.79s.33-.87.79-.9c1.61-.1,3.26.48,4.37,1.57.79.78,1.72,2.22,1.6,4.6-.11,2.15-.88,3.93-2.24,5.15-1.33,1.2-3.15,1.82-5.31,1.82Z"/>
        <path class="cls-4" d="m73.07,80.27s-.08,0-.13,0c-.46-.07-.79-.5-.71-.97,1.69-11.24,5.44-22.31,7.68-28.93.42-1.24.79-2.33,1.08-3.23.4-1.23.5-2.49.3-3.65-.2-1.17-.39-3.08-.17-5.54.04-.47.45-.83.92-.77.47.04.81.46.77.92-.21,2.28-.03,4.03.15,5.1.25,1.42.12,2.97-.36,4.46-.29.91-.66,2-1.09,3.25-2.22,6.56-5.95,17.54-7.61,28.63-.06.42-.43.72-.84.72Z"/>
        <path class="cls-4" d="m97.34,104.82c-.71,0-1.42-.05-2.14-.15-6.48-.92-17.14-5.07-22.03-7.59-1.25-.65-2-1.99-1.9-3.42.34-5,1.48-9.95,3.11-13.58.7-1.55,2.34-2.38,4.01-2.02,4.54,1,15.92,3.45,23.34,4.77.46.08.77.52.69.99-.08.46-.52.78-.99.69-7.45-1.33-18.85-3.79-23.41-4.79-.86-.19-1.73.24-2.09,1.06-1.56,3.45-2.64,8.19-2.97,13-.05.75.33,1.46.98,1.79,4.89,2.52,15.43,6.56,21.49,7.42,5.86.82,11.51-2.24,14.38-7.82,2.06-4,2.03-13.63-.08-27.11-1.42-9.01-5.03-12.59-10.4-15.44-4.19-2.23-10.83-6.21-15.23-8.85-1.01-.6-1.9-1.14-2.62-1.57-.4-.24-.54-.76-.3-1.17.24-.4.76-.54,1.17-.3.73.43,1.62.97,2.63,1.57,4.38,2.63,11,6.6,15.16,8.81,5.67,3.01,9.76,7,11.28,16.68,1.54,9.78,2.77,22.61-.08,28.15-2.86,5.55-8.2,8.88-13.99,8.88Z"/>
        <path class="cls-4" d="m93.95,80.13c-.39,0-.71-.31-.71-.7-.02-3.07.01-6.87.4-13.78.27-4.74,1.78-8.6,4.04-10.33,1.05-.8,2.2-1.09,3.33-.85.38.08.63.46.54.84-.08.38-.47.62-.84.54-.72-.16-1.45.04-2.17.59-1.93,1.47-3.23,4.94-3.48,9.28-.39,6.87-.42,10.64-.4,13.69,0,.39-.31.71-.7.71h0Z"/>
        <path class="cls-4" d="m85.95,55.83c-.28,0-.56-.14-.72-.4-.25-.4-.12-.92.27-1.17l3.04-1.88c.37-.23.52-.67.38-1.07-.55-1.53-1.45-3.88-2.63-6.39-.2-.43-.01-.93.41-1.13.43-.2.93-.01,1.13.41,1.2,2.57,2.12,4.97,2.69,6.53.41,1.15-.04,2.45-1.08,3.1l-3.04,1.89c-.14.09-.29.13-.45.13Z"/>
        <path class="cls-4" d="m79.26,76.41c-.13,0-.25-.03-.37-.09-.42-.21-.6-.72-.39-1.14,1.88-3.83,8.17-14.37,10.79-18.72.03-.05.03-.1,0-.16-.02-.04-.06-.08-.13-.09l-4.23-.5c-.86-.1-1.62-.58-2.08-1.32l-2.58-4.13c-.25-.4-.13-.92.27-1.17.4-.25.92-.13,1.17.27l2.58,4.13c.18.3.49.49.84.53l4.23.5c.63.08,1.18.46,1.46,1.04.28.57.25,1.24-.08,1.78-2.6,4.33-8.86,14.81-10.72,18.59-.15.3-.45.48-.76.48Z"/>
        <path class="cls-4" d="m75.16,81.28c-.11,0-.22-.02-.33-.07-1.99-.84-3.69-1.84-6.49-4.47-2.66-2.49-4.17-3.71-7.5-4.96-.44-.17-.66-.65-.5-1.09.16-.44.65-.66,1.09-.5,3.6,1.35,5.3,2.72,8.07,5.31,2.63,2.46,4.14,3.36,5.99,4.14.43.18.63.68.45,1.11-.14.32-.45.52-.78.52Z"/>
        <path class="cls-4" d="m70.3,93.44c-4.97,0-10.14-1.68-13.87-4.58-.37-.29-.44-.82-.15-1.19.29-.37.82-.44,1.19-.15,3.91,3.04,9.53,4.62,14.67,4.14.48-.05.88.3.93.77.04.47-.3.88-.77.93-.66.06-1.33.09-2,.09Z"/>
        <path class="cls-4" d="m87.89,133.24c-7.58,0-15.16-1.67-18-5.05-4.28-5.09-2.13-21.13-.71-31.75.2-1.47.38-2.8.52-3.96.06-.47.47-.81.95-.74.47.06.8.48.74.95-.14,1.16-.32,2.5-.52,3.98-1.3,9.69-3.47,25.91.33,30.43,3.58,4.25,17.04,5.42,25.8,3.55.84-.18,1.41-.89,1.4-1.72-.08-4.73-.32-16.61-.94-24.92-.04-.47.32-.88.78-.91.46-.04.88.32.91.78.62,8.35.87,20.28.95,25.02.03,1.63-1.13,3.07-2.75,3.41-2.9.62-6.18.93-9.46.93Z"/>
        <path class="cls-4" d="m40.26,130.41c-1.39,0-2.68-.22-3.74-.49-1.72-.44-2.8-2.16-2.45-3.91,1.42-7.21,4.79-24.38,5.28-28.02.06-.46.48-.79.96-.73.46.06.79.49.73.96-.49,3.69-3.86,20.9-5.29,28.13-.17.87.36,1.72,1.21,1.94,2.22.57,5.53.87,8.63-1,4.46-2.68,5.56-11.76,7.08-24.33.4-3.32.82-6.75,1.34-10.48.2-1.47.41-2.91.62-4.32.07-.46.5-.78.96-.72.46.07.79.5.72.96-.21,1.41-.41,2.84-.62,4.31-.52,3.71-.93,7.14-1.33,10.45-1.64,13.53-2.72,22.47-7.9,25.58-2.1,1.26-4.25,1.67-6.19,1.67Z"/>
        <path class="cls-4" d="m58.63,69.64c-.05,0-.1,0-.15-.01-.46-.08-.77-.53-.68-.99,3.4-18.74,6.39-29.33,6.42-29.43.13-.45.59-.71,1.05-.59.45.13.71.6.59,1.05-.03.1-2.99,10.62-6.38,29.27-.08.41-.43.7-.84.7Z"/>
        <path class="cls-4" d="m37.24,98.95c-3.21,0-6.18-.63-8.59-1.88-3.08-1.6-5.15-4.08-6.15-7.38-2.42-8.02,1.37-13.74,4.72-18.8.79-1.2,1.54-2.33,2.19-3.45,1.46-2.55,2.55-5,3.51-7.17,1.28-2.9,2.39-5.4,3.97-7.19,5.02-5.67,11.65-7.45,18.68-9.33.69-.18,1.38-.37,2.07-.56.54-.37,2.7-1.77,6.81-3.44.43-.17.93.03,1.11.47.18.44-.03.93-.47,1.11-4.48,1.82-6.55,3.31-6.57,3.33-.08.06-.18.11-.28.13-.74.2-1.48.4-2.22.6-6.77,1.82-13.17,3.53-17.84,8.82-1.41,1.59-2.46,3.98-3.69,6.75-.98,2.2-2.08,4.7-3.59,7.33-.67,1.17-1.44,2.32-2.24,3.54-3.29,4.97-6.7,10.11-4.5,17.36.86,2.85,2.64,4.99,5.3,6.36,4.18,2.16,10.28,2.26,16.31.25.45-.15.93.09,1.08.54.15.45-.09.93-.54,1.08-3.06,1.02-6.14,1.53-9.03,1.53Z"/>
        <path class="cls-4" d="m57.31,52.62c-.18,0-.37-.06-.52-.18l-2.62-2.05c-.59-.46-.95-1.16-.98-1.9-.03-.75.27-1.47.82-1.97l3.41-3.16c.34-.32.88-.3,1.2.05.32.34.3.88-.05,1.2l-3.41,3.16c-.18.17-.28.4-.27.66.01.25.13.48.33.63l2.62,2.05c.37.29.44.82.15,1.19-.17.21-.42.33-.67.33Z"/>
        <path class="cls-4" d="m52.73,68.72c-.46,0-.84-.37-.85-.83-.19-8.3-.09-13.65-.03-15.57.01-.49.23-.96.6-1.28.37-.33.87-.49,1.36-.43l3.15.33c.28.03.55-.05.77-.22l4.68-3.61c.38-.29.91-.22,1.19.15.29.37.22.91-.15,1.19l-4.68,3.6c-.57.44-1.27.63-1.98.56l-3.15-.33s-.09.08-.09.08c-.05,1.9-.16,7.22.03,15.48.01.47-.36.86-.83.87h-.02Z"/>
        <path class="cls-4" d="m35.2,75.18c-.38,0-.7-.3-.71-.68-.01-.39.29-.72.68-.73.08,0,8.47-.3,9.92-.46.39-.04.74.24.78.63s-.24.74-.63.78c-1.5.17-9.68.45-10.03.47,0,0-.02,0-.02,0Z"/>
        <path class="cls-4" d="m49.74,89.7c-1.56,0-2.98-.29-4.11-1.23-3.59-3-2.9-7.62-2.54-10.1.44-2.97,1.56-7.21,6.2-9.79,4.84-2.68,8.81-1.3,11.3.33,1.08.71,1.64,2.02,1.39,3.25l-.03.12c-.19.8-.69,1.47-1.42,1.89,0,0,0,0-.01,0,.57.24,1.13.52,1.66.84.88.53,1.42,1.42,1.45,2.39,0,.08,0,.17,0,.26-.03.88-.45,1.67-1.17,2.18.62.74.87,1.77.6,2.73-.04.16-.1.32-.16.49-.34.89-1.11,1.53-2.01,1.78.28.55.39,1.19.27,1.84-.27,1.44-1.58,2.47-3.01,2.36-1.49-.09-3.1.12-4.67.32-1.3.17-2.56.33-3.74.33Zm5-20.91c-1.39,0-2.95.35-4.62,1.28-3.94,2.18-4.92,5.71-5.34,8.55-.44,2.98-.69,6.34,1.95,8.54,1.41,1.18,3.91.86,6.54.52,1.64-.21,3.34-.43,4.99-.33.62.02,1.12-.38,1.23-.96.11-.59-.22-1.16-.79-1.37-2.72-.99-5.46-.75-7.66-.56-.43.04-.89-.27-.96-.71-.07-.44.16-.86.6-.96,3.39-.8,6.43-.15,9.1.43.66.14,1.32-.19,1.54-.77.04-.11.08-.22.11-.33.17-.59-.14-1.26-.7-1.52-.21-.1-.43-.2-.66-.29-.12-.03-.24-.06-.35-.1-.64-.23-1.3-.42-1.96-.57-2.23-.47-4.68-.52-6.44-.07-.45.12-.91-.15-1.03-.6-.12-.45.14-.91.59-1.04,2.06-.58,4.76-.54,7.38.08.8.17,1.58.4,2.29.67.31.05.65-.02.92-.2.17-.12.46-.39.48-.86v-.16c0-.38-.24-.75-.63-.98-2.98-1.79-6.85-2.24-10.35-1.2-.38.11-.8-.06-.99-.41-.19-.35-.11-.79.19-1.05,2.63-2.26,5.55-1.81,8.31-.99.41.12.85.07,1.22-.14.32-.18.54-.47.62-.81.13-.63-.13-1.23-.64-1.56-1.23-.81-2.91-1.55-4.92-1.55Z"/>
        <path class="cls-4" d="m45.73,97.48c-.77,0-1.46-.3-2.01-.88-2.77-2.9-1.38-12.64-.89-15.56.08-.46.52-.77.98-.7.46.08.78.52.7.98-1.17,6.93-.99,12.6.45,14.1.27.28.56.39.95.34,1.44-.17,2.91-3.8,3.43-7.07.07-.46.51-.77.98-.7.46.08.78.51.7.98-.13.82-1.4,8.06-4.91,8.49-.13.01-.25.02-.38.02Z"/>
        <path class="cls-4" d="m90.92,181.59s-.04,0-.06,0c-.47-.03-.82-.44-.78-.91.17-2.33.81-7.23,1.61-13.42,1.48-11.48,3.52-27.2,3.73-35.62.01-.47.36-.84.87-.83.47.01.84.4.83.87-.22,8.51-2.25,24.28-3.74,35.79-.77,5.93-1.43,11.05-1.6,13.33-.03.45-.41.79-.85.79Z"/>
        <path class="cls-4" d="m61.15,178.79s-.02,0-.03,0c-.47-.01-.84-.41-.82-.88.03-.94.07-2.21.12-3.72l-.08-.12c-1.11-1.55-4.05-5.66-4.54-8.31-.47-2.55,2.58-12.03,5.49-20.71l.36-1.07c.13-.4.55-.64.96-.57.42.08.71.45.69.88-.34,7.01-.89,21.54-1.17,29.65,0,.01,0,.03,0,.04-.06,1.63-.1,2.99-.13,3.98-.01.46-.39.82-.85.82Zm.18-28.44c-1.89,5.81-4.18,13.33-3.86,15.11.3,1.62,1.84,4.12,3.05,5.91.22-6.12.53-14.5.81-21.02Z"/>
        <path class="cls-4" d="m37.29,178.79c-.36,0-.69-.23-.81-.58-.45-1.35-.86-2.48-1.22-3.5-1.45-4.06-2.25-6.29-2.33-12.09-.1-7.33.72-24.86,2.07-34.07.07-.46.5-.78.96-.72.46.07.79.5.72.96-1.34,9.13-2.15,26.53-2.05,33.8.08,5.52.8,7.53,2.23,11.54.37,1.03.78,2.18,1.23,3.54.15.45-.09.93-.54,1.08-.09.03-.18.04-.27.04Z"/>
        <path class="cls-4" d="m67.66,114.83c-2.11,0-9.7-.07-15.59-.97-.46-.07-.78-.5-.71-.97.07-.46.51-.78.97-.71,6.74,1.03,15.79.95,15.88.95h0c.47,0,.85.38.85.84,0,.47-.37.85-.84.86-.01,0-.21,0-.57,0Z"/>
        <path class="cls-4" d="m75.83,106.54h-2.16c-.39,0-.71-.32-.71-.71s.32-.71.71-.71h2.16c.39,0,.71.32.71.71s-.32.71-.71.71Z"/>
        <ellipse class="cls-4" cx="50.05" cy="104.4" rx="1.77" ry="1.49" transform="translate(-62.62 131.08) rotate(-77.71)"/>
        <circle class="cls-4" cx="79.78" cy="93.98" r="1.39"/>
        <circle class="cls-4" cx="83.51" cy="95.58" r="1.39"/>
        <path class="cls-4" d="m59.95,31.8s-.03,0-.04,0c-2.01-.09-3.97-1.1-5.37-2.76-1.48-1.75-2.17-3.99-1.9-6.14.31-2.46,1.55-3.75,2.53-4.4,1.42-.93,3.26-1.17,5.05-.65.45.13.71.6.58,1.05-.13.45-.6.71-1.05.58-1.31-.38-2.64-.22-3.64.44-.98.65-1.6,1.75-1.78,3.19-.21,1.68.34,3.44,1.51,4.83,1.1,1.3,2.61,2.09,4.15,2.16.47.02.83.42.81.89-.02.46-.4.81-.85.81Z"/>
        <path class="cls-4" d="m57.03,19.45c-.42,0-.79-.32-.84-.75-.19-1.58,0-5.53,1.29-7.94.22-.41.74-.57,1.15-.35.41.22.57.74.35,1.15-1.05,1.96-1.27,5.5-1.1,6.93.06.47-.28.89-.74.95-.03,0-.07,0-.1,0Z"/>
        <path class="cls-4" d="m60.62,8.68c-.16,0-.31-.04-.46-.13-.4-.25-.51-.78-.26-1.17.71-1.11,1.67-1.68,2.33-2.01.42-.21.93-.04,1.14.38.21.42.04.93-.38,1.14-.52.26-1.17.65-1.65,1.4-.16.25-.44.39-.72.39Z"/>
        <path class="cls-4" d="m66.06,4.38c-.09,0-.18-.01-.27-.04-.22-.08-.62-.06-1.22.03-.47.07-.9-.24-.97-.71-.07-.46.24-.9.71-.97.92-.15,1.52-.13,2.02.03.45.15.69.63.54,1.08-.12.36-.45.58-.81.58Z"/>
        <path class="cls-4" d="m70.44,3.04c-.35,0-.68-.22-.8-.56-.16-.44.07-.93.51-1.09,1.14-.41,2.19-.55,3.41-.45.47.04.82.45.78.91-.04.47-.45.83-.91.78-.98-.08-1.79.03-2.7.36-.09.03-.19.05-.29.05Z"/>
        <path class="cls-4" d="m79.12,2.83c-.2,0-.41-.07-.57-.22-.63-.56-1-.79-1.87-.91-.46-.07-.79-.5-.72-.96.07-.46.5-.79.96-.72,1.29.19,1.96.61,2.76,1.33.35.31.38.85.06,1.2-.17.19-.4.28-.63.28Z"/>
        <path class="cls-4" d="m90,10.51s-.04,0-.06,0c-1.74-.12-3.04-1.92-4.09-3.37-.26-.36-.5-.69-.71-.94-.86-1.01-2.1-1.31-3.69-.91-.45.11-.92-.16-1.03-.61-.12-.46.16-.92.61-1.03,2.2-.56,4.12-.05,5.4,1.45.24.28.51.65.8,1.05.75,1.04,1.89,2.61,2.83,2.67.47.03.82.44.79.91-.03.45-.41.79-.85.79Z"/>
        <path class="cls-4" d="m90.32,14.12c-.1,0-.19-.02-.29-.05-.59-.21-.86-.37-1.39-.95-.32-.35-.29-.88.05-1.2.34-.32.88-.29,1.2.05.34.37.38.38.72.51.44.16.67.65.51,1.09-.12.35-.45.56-.8.56Z"/>
        <path class="cls-4" d="m90.73,20.04c-.07,0-.14,0-.21-.03-.46-.12-.73-.58-.61-1.04.21-.82.23-1.95.04-2.42-.18-.43.03-.93.46-1.11.43-.18.93.03,1.11.46.38.93.31,2.46.04,3.5-.1.38-.45.64-.82.64Z"/>
        <path class="cls-4" d="m78.6,9.45c-.07,0-.13,0-.2-.02-1.05-.25-1.81-1.03-2.25-1.61-.67.31-1.52.64-2.75.85-.47.08-.9-.23-.98-.69-.08-.46.23-.9.69-.98,1.32-.23,2.1-.6,2.79-.93l.19-.09c.41-.19.9-.03,1.12.37.18.33.82,1.25,1.6,1.44.46.11.74.57.63,1.03-.09.39-.44.65-.83.65Z"/>
        <path class="cls-4" d="m73.33,32.95c-1.67,0-3.25-.37-4.35-1.07-.4-.25-.52-.77-.27-1.17.25-.4.77-.52,1.17-.27,1.14.71,3.08.98,4.94.69.47-.07.9.24.97.71.07.46-.24.9-.71.97-.58.09-1.17.14-1.75.14Z"/>
        <path class="cls-4" d="m77.83,33.38c-.21,0-.41-.1-.53-.28-.65-.97-1.19-2.09-1.39-2.52-.15-.32,0-.7.31-.85.32-.15.7,0,.85.31.15.32.67,1.43,1.29,2.35.2.29.12.69-.17.88-.11.07-.23.11-.35.11Z"/>
        <path class="cls-4" d="m67.05,31.8c-.13,0-.26-.04-.38-.12-.28-.21-.35-.61-.14-.89.09-.13.26-.38.45-.66.25-.38.53-.8.73-1.07.21-.28.6-.35.89-.14.28.21.35.61.14.89-.19.26-.46.67-.7,1.03-.2.3-.38.57-.48.71-.12.17-.32.26-.52.26Z"/>
        <path class="cls-4" d="m72.93,28.95c-.43,0-.78-.08-1.1-.17-.34-.09-.54-.44-.45-.78s.44-.54.78-.45c.27.07.49.12.77.12.35,0,.64.29.64.64s-.29.64-.64.64Z"/>
        <path class="cls-4" d="m71.44,39.41s-.03,0-.05,0c-.35-.02-.62-.33-.59-.68.06-.79.18-1.32.19-1.34.08-.34.43-.55.77-.47.34.08.55.42.47.77,0,0-.11.46-.16,1.13-.02.34-.3.59-.63.59Z"/>
        <path class="cls-4" d="m73.61,39.07c-.06-.21-.16-.55-.24-.92-.08-.34.14-.68.49-.76.34-.07.68.14.76.49.07.34.16.64.2.78l-.6.23-.61.17Z"/>
        <path class="cls-4" d="m68.63,38.57c-.08,0-.17-.02-.25-.05-.32-.14-.48-.51-.34-.84l.25-.58c.14-.32.51-.48.84-.34.32.14.48.51.34.84l-.25.58c-.1.24-.34.39-.59.39Z"/>
        <path class="cls-4" d="m67.52,24.6c-.23,0-.47,0-.72-.03-2.74-.19-4.24-1.53-4.44-3.97-.07-.78.19-1.57.71-2.15.51-.57,1.21-.9,1.97-.93,1.98-.07,3.95.22,5.41.79h0c1.3.51,2.01,1.91,1.66,3.27-.52,2.01-2.06,3.02-4.58,3.02Zm-1.9-5.67c-.18,0-.36,0-.54,0-.37.01-.71.17-.96.46-.26.29-.39.69-.36,1.09.1,1.22.56,2.5,3.13,2.68,2.89.2,3.57-.93,3.83-1.94.17-.65-.18-1.36-.8-1.6-1.16-.45-2.7-.7-4.3-.7Z"/>
        <path class="cls-4" d="m70.75,19.95c-.25,0-.49-.15-.59-.4,0,0-.64-1.34-3.73-2.25-.34-.1-.53-.45-.43-.79.1-.34.45-.53.79-.43,3.7,1.08,4.48,2.81,4.56,3,.13.33-.03.7-.36.83-.08.03-.16.04-.24.04Z"/>
        <path class="cls-4" d="m63.16,20.41h-.81c-.39,0-.71-.32-.71-.71s.32-.71.71-.71h.81c.39,0,.71.32.71.71s-.32.71-.71.71Z"/>
        <path class="cls-4" d="m74.94,22.17c-.14,0-.29-.04-.41-.13-.63-.45-2.1-.63-2.76-.33-.36.16-.78,0-.94-.35-.16-.36,0-.78.35-.94,1.13-.51,3.12-.29,4.17.47.32.23.39.67.16.99-.14.19-.36.29-.58.29Z"/>
        <path class="cls-4" d="m79.91,25.97c-.36,0-.75-.03-1.16-.09-2.92-.45-4.44-1.82-4.51-4.09-.05-1.41.96-2.62,2.34-2.83t0,0c1.55-.23,3.53-.08,5.44.42.74.19,1.34.67,1.71,1.34.38.68.46,1.51.22,2.25-.63,1.99-1.99,3-4.05,3Zm-3.12-5.61c-.66.1-1.16.71-1.13,1.38.04,1.04.44,2.29,3.31,2.73,2.54.39,3.27-.75,3.64-1.93.12-.38.08-.8-.11-1.14-.18-.33-.48-.56-.83-.65-1.73-.46-3.51-.6-4.87-.39h0Z"/>
        <path class="cls-4" d="m76.06,20.5c-.13,0-.26-.04-.37-.12-.28-.2-.35-.59-.16-.87.12-.17,1.26-1.68,5.11-1.92.36-.03.65.25.68.6.02.35-.25.65-.6.68-3.21.2-4.13,1.37-4.14,1.38-.13.17-.32.26-.52.26Z"/>
        <path class="cls-4" d="m84.16,22.8c-.05,0-.1,0-.16-.02l-.79-.18c-.38-.09-.62-.46-.54-.85.09-.38.47-.62.85-.54l.79.18c.38.09.62.46.54.85-.07.33-.37.55-.69.55Z"/>
        <circle class="cls-4" cx="67.8" cy="20.85" r=".85"/>
        <circle class="cls-4" cx="78.86" cy="22.09" r=".85"/>
      </g>
    </g>
  </g>
  <g id="_アイコン" data-name="アイコン">
    <g>
      <path class="cls-7" d="m105.99,168.59c-.55-.2-1.06-.51-1.48-.91-1.37-1.31-1.67-3.36-.83-5.63.85-2.27,2.42-3.62,4.31-3.71,1.76-.08,3.54,1.01,4.34,2.65.3.61.04,1.34-.57,1.64-.61.29-1.34.04-1.64-.57-.38-.77-1.22-1.3-2.02-1.27-.88.04-1.63.79-2.13,2.12s-.42,2.39.22,2.99c.58.55,1.57.7,2.36.37.62-.27,1.34.02,1.61.64.27.62-.02,1.34-.64,1.61-1.12.48-2.42.49-3.54.07Z"/>
      <path class="cls-3" d="m108.19,158.34c1.7,0,3.38,1.07,4.15,2.65.3.61.04,1.34-.57,1.64-.17.08-.35.12-.53.12-.46,0-.89-.25-1.11-.69-.36-.75-1.16-1.27-1.94-1.27-.03,0-.05,0-.08,0-.88.04-1.63.79-2.13,2.12-.49,1.32-.42,2.39.22,2.99.37.35.92.54,1.47.54.3,0,.61-.06.89-.18.16-.07.32-.1.48-.1.48,0,.93.28,1.13.74.27.62-.02,1.34-.64,1.61-.58.25-1.22.37-1.84.37-.58,0-1.16-.1-1.69-.3-.55-.2-1.06-.51-1.48-.91-1.37-1.31-1.67-3.36-.83-5.63.85-2.27,2.42-3.62,4.31-3.71.06,0,.12,0,.19,0m0-1.28c-.08,0-.16,0-.25,0-2.43.11-4.41,1.77-5.45,4.54-1.03,2.77-.62,5.32,1.14,7,.54.51,1.18.91,1.91,1.18.68.25,1.4.38,2.14.38.82,0,1.61-.16,2.35-.48.61-.26,1.09-.75,1.34-1.37.25-.62.24-1.3-.02-1.91-.4-.92-1.3-1.51-2.3-1.51-.34,0-.67.07-.99.2-.11.05-.24.07-.38.07-.24,0-.47-.08-.59-.19-.18-.18-.23-.75.1-1.62.33-.87.73-1.27.99-1.29h0c.27,0,.65.21.81.55.41.85,1.3,1.41,2.25,1.41.38,0,.74-.08,1.08-.25,1.24-.6,1.77-2.1,1.16-3.34-.98-2.02-3.11-3.37-5.3-3.37h0Z"/>
    </g>
    <g>
      <path class="cls-7" d="m24.86,45.04c-3.04,1.06-6.44-.77-7.59-4.08s.38-6.85,3.42-7.91c3.04-1.06,6.44.77,7.59,4.08s-.38,6.85-3.42,7.91Zm-3.26-9.37c-1.59.55-2.36,2.52-1.71,4.38s2.47,2.92,4.06,2.37,2.36-2.52,1.71-4.38-2.47-2.92-4.06-2.37Z"/>
      <path class="cls-3" d="m22.46,32.75c2.49,0,4.89,1.71,5.82,4.38,1.15,3.31-.38,6.85-3.42,7.91-.58.2-1.18.3-1.77.3-2.49,0-4.89-1.71-5.82-4.38-1.15-3.3.38-6.85,3.42-7.91.58-.2,1.18-.3,1.77-.3m.62,9.82c.29,0,.59-.05.87-.15,1.59-.55,2.36-2.52,1.71-4.38-.53-1.53-1.85-2.52-3.19-2.52-.29,0-.59.05-.87.15-1.59.55-2.36,2.52-1.71,4.38.53,1.53,1.85,2.52,3.19,2.52m-.62-11.23c-.76,0-1.52.13-2.24.38-3.77,1.31-5.7,5.67-4.29,9.71,1.11,3.19,3.99,5.33,7.16,5.33.76,0,1.52-.13,2.24-.38,3.77-1.31,5.7-5.67,4.29-9.72-1.11-3.19-3.99-5.33-7.16-5.33h0Zm.62,9.82c-.76,0-1.54-.66-1.85-1.57-.2-.57-.2-1.19,0-1.7.1-.25.34-.7.84-.88.13-.05.27-.07.41-.07.76,0,1.54.66,1.85,1.56.2.57.2,1.19,0,1.7-.1.25-.34.7-.84.88-.13.05-.27.07-.41.07h0Z"/>
    </g>
  </g>
</svg>