<?xml version="1.0" encoding="UTF-8"?>
<svg id="Layer_2" data-name="Layer 2" xmlns="http://www.w3.org/2000/svg" viewBox="0 0 148.33 185.35">
  <defs>
    <style>
      .cls-1 {
        fill: #fff;
      }

      .cls-2 {
        fill: #95e0e6;
      }

      .cls-3 {
        fill: #565656;
      }

      .cls-4 {
        fill: #363636;
      }

      .cls-5 {
        fill: #8dc05f;
      }

      .cls-6 {
        fill: #8f8f8f;
      }

      .cls-7 {
        fill: #ffdfbc;
      }

      .cls-8 {
        fill: #ffd964;
      }

      .cls-9 {
        fill: #d5d5d5;
      }
    </style>
  </defs>
  <g id="_背景ドット" data-name="背景ドット">
    <g>
      <path class="cls-1" d="m39.44,37.63c-.33,0-.59.27-.59.59s.27.59.59.59.59-.27.59-.59-.27-.59-.59-.59Z"/>
      <path class="cls-1" d="m40.95,42.01c.03-.24.05-.47.07-.71-.1.11-.17.25-.17.41,0,.11.04.21.09.3Z"/>
      <path class="cls-1" d="m38.85,31.28c0,.33.27.59.59.59.04,0,.08-.02.12-.02-.15-.35-.32-.69-.48-1.03-.14.11-.23.27-.23.46Z"/>
      <path class="cls-1" d="m37.44,28.39c.09,0,.17-.02.24-.05-.21-.32-.46-.62-.69-.92-.09.1-.15.23-.15.38,0,.33.27.59.59.59Z"/>
      <path class="cls-1" d="m35.43,37.63c-.33,0-.59.27-.59.59s.27.59.59.59.59-.27.59-.59-.27-.59-.59-.59Z"/>
      <path class="cls-1" d="m37.44,35.35c.33,0,.59-.27.59-.59s-.27-.59-.59-.59-.59.27-.59.59.27.59.59.59Z"/>
      <path class="cls-1" d="m35.43,44.59c-.33,0-.59.27-.59.59s.27.59.59.59.59-.27.59-.59-.27-.59-.59-.59Z"/>
      <path class="cls-1" d="m36.84,41.7c0,.33.27.59.59.59s.59-.27.59-.59-.27-.59-.59-.59-.59.27-.59.59Z"/>
      <path class="cls-1" d="m35.43,51.54c-.33,0-.59.27-.59.59s.27.59.59.59.59-.27.59-.59-.27-.59-.59-.59Z"/>
      <path class="cls-1" d="m37.44,49.25c.33,0,.59-.27.59-.59s-.27-.59-.59-.59-.59.27-.59.59.27.59.59.59Z"/>
      <circle class="cls-1" cx="39.44" cy="45.18" r=".59"/>
      <circle class="cls-1" cx="31.42" cy="24.32" r=".59"/>
      <circle class="cls-1" cx="31.42" cy="31.28" r=".59"/>
      <circle class="cls-1" cx="33.42" cy="27.8" r=".59"/>
      <path class="cls-1" d="m31.42,37.63c-.33,0-.59.27-.59.59s.27.59.59.59.59-.27.59-.59-.27-.59-.59-.59Z"/>
      <path class="cls-1" d="m34.02,34.75c0-.33-.27-.59-.59-.59s-.59.27-.59.59.27.59.59.59.59-.27.59-.59Z"/>
      <path class="cls-1" d="m34.84,31.28c0,.33.27.59.59.59s.59-.27.59-.59-.27-.59-.59-.59-.59.27-.59.59Z"/>
      <circle class="cls-1" cx="31.42" cy="45.18" r=".59"/>
      <circle class="cls-1" cx="33.42" cy="41.7" r=".59"/>
      <circle class="cls-1" cx="31.42" cy="52.13" r=".59"/>
      <circle class="cls-1" cx="33.42" cy="48.66" r=".59"/>
      <path class="cls-1" d="m32.83,55.61c0,.06.02.12.04.18.3-.22.6-.43.89-.66-.1-.07-.21-.11-.33-.11-.33,0-.59.27-.59.59Z"/>
      <path class="cls-1" d="m27.4,23.73c-.33,0-.59.27-.59.59s.27.59.59.59.59-.27.59-.59-.27-.59-.59-.59Z"/>
      <path class="cls-1" d="m29.41,21.44c.05,0,.1-.02.15-.03-.24-.11-.46-.24-.7-.34.09.22.3.37.55.37Z"/>
      <path class="cls-1" d="m27.4,30.68c-.33,0-.59.27-.59.59s.27.59.59.59.59-.27.59-.59-.27-.59-.59-.59Z"/>
      <path class="cls-1" d="m30,27.8c0-.33-.27-.59-.59-.59s-.59.27-.59.59.27.59.59.59.59-.27.59-.59Z"/>
      <path class="cls-1" d="m27.4,37.63c-.33,0-.59.27-.59.59s.27.59.59.59.59-.27.59-.59-.27-.59-.59-.59Z"/>
      <path class="cls-1" d="m29.41,34.16c-.33,0-.59.27-.59.59s.27.59.59.59.59-.27.59-.59-.27-.59-.59-.59Z"/>
      <path class="cls-1" d="m27.4,44.59c-.33,0-.59.27-.59.59s.27.59.59.59.59-.27.59-.59-.27-.59-.59-.59Z"/>
      <path class="cls-1" d="m30,41.7c0-.33-.27-.59-.59-.59s-.59.27-.59.59.27.59.59.59.59-.27.59-.59Z"/>
      <path class="cls-1" d="m27.4,51.54c-.33,0-.59.27-.59.59s.27.59.59.59.59-.27.59-.59-.27-.59-.59-.59Z"/>
      <path class="cls-1" d="m28.82,48.66c0,.33.27.59.59.59s.59-.27.59-.59-.27-.59-.59-.59-.59.27-.59.59Z"/>
      <path class="cls-1" d="m28.82,55.61c0,.33.27.59.59.59s.59-.27.59-.59-.27-.59-.59-.59-.59.27-.59.59Z"/>
      <path class="cls-1" d="m23.39,23.73c-.33,0-.59.27-.59.59s.27.59.59.59.59-.27.59-.59-.27-.59-.59-.59Z"/>
      <path class="cls-1" d="m25.99,20.85c0-.33-.27-.59-.59-.59s-.59.27-.59.59.27.59.59.59.59-.27.59-.59Z"/>
      <path class="cls-1" d="m23.39,30.68c-.33,0-.59.27-.59.59s.27.59.59.59.59-.27.59-.59-.27-.59-.59-.59Z"/>
      <circle class="cls-1" cx="25.4" cy="27.8" r=".59"/>
      <path class="cls-1" d="m25.99,34.75c0-.33-.27-.59-.59-.59s-.59.27-.59.59.27.59.59.59.59-.27.59-.59Z"/>
      <circle class="cls-1" cx="25.4" cy="41.7" r=".59"/>
      <circle class="cls-1" cx="25.4" cy="48.66" r=".59"/>
      <path class="cls-1" d="m26.89,58.81c.26-.08.5-.18.76-.27-.07-.03-.15-.05-.24-.05-.23,0-.42.13-.52.32Z"/>
      <circle class="cls-1" cx="25.4" cy="55.61" r=".59"/>
      <path class="cls-1" d="m23.39,58.49c-.33,0-.59.27-.59.59,0,.21.12.39.29.5.25-.03.5-.08.75-.11.09-.1.15-.23.15-.38,0-.33-.27-.59-.59-.59Z"/>
      <circle class="cls-1" cx="19.38" cy="24.32" r=".59"/>
      <path class="cls-1" d="m21.98,20.85c0-.33-.27-.59-.59-.59s-.59.27-.59.59.27.59.59.59.59-.27.59-.59Z"/>
      <circle class="cls-1" cx="19.38" cy="31.28" r=".59"/>
      <path class="cls-1" d="m21.98,27.8c0-.33-.27-.59-.59-.59s-.59.27-.59.59.27.59.59.59.59-.27.59-.59Z"/>
      <path class="cls-1" d="m21.98,34.75c0-.33-.27-.59-.59-.59s-.59.27-.59.59.27.59.59.59.59-.27.59-.59Z"/>
      <path class="cls-1" d="m20.79,41.7c0,.33.27.59.59.59s.59-.27.59-.59-.27-.59-.59-.59-.59.27-.59.59Z"/>
      <path class="cls-1" d="m23.39,38.82c.33,0,.59-.27.59-.59s-.27-.59-.59-.59-.59.27-.59.59.27.59.59.59Z"/>
      <path class="cls-1" d="m20.79,48.66c0,.33.27.59.59.59s.59-.27.59-.59-.27-.59-.59-.59-.59.27-.59.59Z"/>
      <path class="cls-1" d="m23.39,45.77c.33,0,.59-.27.59-.59s-.27-.59-.59-.59-.59.27-.59.59.27.59.59.59Z"/>
      <path class="cls-1" d="m20.79,55.61c0,.33.27.59.59.59s.59-.27.59-.59-.27-.59-.59-.59-.59.27-.59.59Z"/>
      <path class="cls-1" d="m23.39,52.73c.33,0,.59-.27.59-.59s-.27-.59-.59-.59-.59.27-.59.59.27.59.59.59Z"/>
      <path class="cls-1" d="m19.97,59.08c0-.33-.27-.59-.59-.59s-.59.27-.59.59c0,.22.12.4.3.51.18.02.36.02.54.03.2-.1.34-.3.34-.53Z"/>
      <path class="cls-1" d="m15.36,23.73c-.33,0-.59.27-.59.59s.27.59.59.59.59-.27.59-.59-.27-.59-.59-.59Z"/>
      <path class="cls-1" d="m17.96,20.85c0-.33-.27-.59-.59-.59s-.59.27-.59.59.27.59.59.59.59-.27.59-.59Z"/>
      <path class="cls-1" d="m15.36,30.68c-.33,0-.59.27-.59.59s.27.59.59.59.59-.27.59-.59-.27-.59-.59-.59Z"/>
      <circle class="cls-1" cx="17.37" cy="27.8" r=".59"/>
      <path class="cls-1" d="m17.96,34.75c0-.33-.27-.59-.59-.59s-.59.27-.59.59.27.59.59.59.59-.27.59-.59Z"/>
      <path class="cls-1" d="m15.36,44.59c-.33,0-.59.27-.59.59s.27.59.59.59.59-.27.59-.59-.27-.59-.59-.59Z"/>
      <circle class="cls-1" cx="17.37" cy="41.7" r=".59"/>
      <path class="cls-1" d="m19.38,38.82c.33,0,.59-.27.59-.59s-.27-.59-.59-.59-.59.27-.59.59.27.59.59.59Z"/>
      <path class="cls-1" d="m15.36,51.54c-.33,0-.59.27-.59.59s.27.59.59.59.59-.27.59-.59-.27-.59-.59-.59Z"/>
      <circle class="cls-1" cx="17.37" cy="48.66" r=".59"/>
      <circle class="cls-1" cx="19.38" cy="45.18" r=".59"/>
      <path class="cls-1" d="m15.36,58.49c-.19,0-.36.1-.47.24.34.11.7.19,1.05.28-.03-.3-.28-.53-.58-.53Z"/>
      <circle class="cls-1" cx="17.37" cy="55.61" r=".59"/>
      <circle class="cls-1" cx="19.38" cy="52.13" r=".59"/>
      <circle class="cls-1" cx="11.35" cy="24.32" r=".59"/>
      <path class="cls-1" d="m13.36,21.44c.33,0,.59-.27.59-.59,0-.02-.01-.04-.01-.07-.35.13-.7.27-1.05.42.11.14.27.24.47.24Z"/>
      <path class="cls-1" d="m13.95,27.8c0-.33-.27-.59-.59-.59s-.59.27-.59.59.27.59.59.59.59-.27.59-.59Z"/>
      <path class="cls-1" d="m11.35,37.63c-.33,0-.59.27-.59.59s.27.59.59.59.59-.27.59-.59-.27-.59-.59-.59Z"/>
      <path class="cls-1" d="m13.36,35.35c.33,0,.59-.27.59-.59s-.27-.59-.59-.59-.59.27-.59.59.27.59.59.59Z"/>
      <circle class="cls-1" cx="11.35" cy="45.18" r=".59"/>
      <path class="cls-1" d="m13.95,41.7c0-.33-.27-.59-.59-.59s-.59.27-.59.59.27.59.59.59.59-.27.59-.59Z"/>
      <path class="cls-1" d="m15.36,38.82c.33,0,.59-.27.59-.59s-.27-.59-.59-.59-.59.27-.59.59.27.59.59.59Z"/>
      <circle class="cls-1" cx="11.35" cy="52.13" r=".59"/>
      <path class="cls-1" d="m12.76,48.66c0,.33.27.59.59.59s.59-.27.59-.59-.27-.59-.59-.59-.59.27-.59.59Z"/>
      <path class="cls-1" d="m12.76,55.61c0,.33.27.59.59.59s.59-.27.59-.59-.27-.59-.59-.59-.59.27-.59.59Z"/>
      <path class="cls-1" d="m7.33,30.68c-.33,0-.59.27-.59.59s.27.59.59.59.59-.27.59-.59-.27-.59-.59-.59Z"/>
      <circle class="cls-1" cx="9.34" cy="27.8" r=".59"/>
      <path class="cls-1" d="m7.3,24.91s.03,0,.04,0c.32,0,.58-.26.59-.58-.22.19-.42.38-.63.57Z"/>
      <path class="cls-1" d="m7.33,37.63c-.33,0-.59.27-.59.59s.27.59.59.59.59-.27.59-.59-.27-.59-.59-.59Z"/>
      <path class="cls-1" d="m9.94,34.75c0-.33-.27-.59-.59-.59s-.59.27-.59.59.27.59.59.59.59-.27.59-.59Z"/>
      <circle class="cls-1" cx="11.35" cy="31.28" r=".59"/>
      <path class="cls-1" d="m7.33,44.59c-.33,0-.59.27-.59.59s.27.59.59.59.59-.27.59-.59-.27-.59-.59-.59Z"/>
      <circle class="cls-1" cx="9.34" cy="41.7" r=".59"/>
      <path class="cls-1" d="m7.33,51.54c-.33,0-.59.27-.59.59s.27.59.59.59.59-.27.59-.59-.27-.59-.59-.59Z"/>
      <circle class="cls-1" cx="9.34" cy="48.66" r=".59"/>
      <path class="cls-1" d="m9.94,55.61c0-.33-.27-.59-.59-.59-.29,0-.52.21-.57.49.28.21.55.43.84.63.19-.1.33-.29.33-.52Z"/>
      <path class="cls-1" d="m5.33,28.39c.33,0,.59-.27.59-.59s-.27-.59-.59-.59c-.06,0-.11.02-.17.03-.15.19-.29.38-.43.57,0,.32.27.58.59.58Z"/>
      <path class="cls-1" d="m3.32,37.63c-.33,0-.59.27-.59.59s.27.59.59.59.59-.27.59-.59-.27-.59-.59-.59Z"/>
      <path class="cls-1" d="m5.33,35.35c.33,0,.59-.27.59-.59s-.27-.59-.59-.59-.59.27-.59.59.27.59.59.59Z"/>
      <circle class="cls-1" cx="3.32" cy="45.18" r=".59"/>
      <path class="cls-1" d="m5.92,41.7c0-.33-.27-.59-.59-.59s-.59.27-.59.59.27.59.59.59.59-.27.59-.59Z"/>
      <path class="cls-1" d="m5.92,48.66c0-.33-.27-.59-.59-.59s-.59.27-.59.59.27.59.59.59.59-.27.59-.59Z"/>
      <path class="cls-1" d="m1.91,34.75c0-.21-.11-.38-.27-.48-.1.35-.2.71-.27,1.07.3-.03.55-.27.55-.58Z"/>
      <path class="cls-1" d="m2.73,31.28c0,.33.27.59.59.59s.59-.27.59-.59-.27-.59-.59-.59c-.15,0-.29.06-.4.16-.06.13-.13.26-.19.4,0,.01,0,.03,0,.04Z"/>
      <path class="cls-1" d="m1.91,41.7c0-.33-.27-.59-.59-.59-.12,0-.23.05-.33.11.03.35.07.69.12,1.03.07.03.14.04.21.04.33,0,.59-.27.59-.59Z"/>
    </g>
    <g>
      <path class="cls-1" d="m143.8,121.06c-.33,0-.59.27-.59.59s.27.59.59.59.59-.27.59-.59-.27-.59-.59-.59Z"/>
      <path class="cls-1" d="m145.21,118.17c0,.33.27.59.59.59.16,0,.3-.06.41-.17-.14-.34-.29-.68-.45-1.01-.31.02-.55.27-.55.59Z"/>
      <path class="cls-1" d="m147.22,128.6c0,.33.27.59.59.59.23,0,.42-.13.52-.32,0-.19,0-.38-.01-.57-.1-.17-.29-.3-.5-.3-.33,0-.59.27-.59.59Z"/>
      <path class="cls-1" d="m143.8,128.01c-.33,0-.59.27-.59.59s.27.59.59.59.59-.27.59-.59-.27-.59-.59-.59Z"/>
      <path class="cls-1" d="m145.8,124.53c-.33,0-.59.27-.59.59s.27.59.59.59.59-.27.59-.59-.27-.59-.59-.59Z"/>
      <path class="cls-1" d="m147.22,121.65c0,.17.07.32.18.42-.05-.18-.1-.36-.15-.54,0,.04-.02.08-.02.12Z"/>
      <path class="cls-1" d="m147.73,134.97c-.29.04-.52.28-.52.58,0,.21.11.38.27.49.09-.35.17-.71.25-1.06Z"/>
      <path class="cls-1" d="m143.8,134.96c-.33,0-.59.27-.59.59s.27.59.59.59.59-.27.59-.59-.27-.59-.59-.59Z"/>
      <path class="cls-1" d="m145.21,132.08c0,.33.27.59.59.59s.59-.27.59-.59-.27-.59-.59-.59-.59.27-.59.59Z"/>
      <path class="cls-1" d="m143.8,141.91c-.33,0-.59.27-.59.59s.27.59.59.59.59-.27.59-.59-.27-.59-.59-.59Z"/>
      <path class="cls-1" d="m145.8,139.62c.33,0,.59-.27.59-.59s-.27-.59-.59-.59-.59.27-.59.59.27.59.59.59Z"/>
      <path class="cls-1" d="m143.2,114.7c0,.33.27.59.59.59.25,0,.46-.15.55-.37-.17-.28-.34-.54-.52-.81,0,0-.02,0-.03,0-.33,0-.59.27-.59.59Z"/>
      <path class="cls-1" d="m139.78,114.1c-.33,0-.59.27-.59.59s.27.59.59.59.59-.27.59-.59-.27-.59-.59-.59Z"/>
      <path class="cls-1" d="m141.79,111.82c.11,0,.2-.04.29-.09-.24-.3-.49-.58-.75-.87-.08.1-.13.22-.13.36,0,.33.27.59.59.59Z"/>
      <circle class="cls-1" cx="139.78" cy="121.65" r=".59"/>
      <circle class="cls-1" cx="141.79" cy="118.17" r=".59"/>
      <circle class="cls-1" cx="141.79" cy="125.13" r=".59"/>
      <circle class="cls-1" cx="141.79" cy="132.08" r=".59"/>
      <path class="cls-1" d="m141.2,139.03c0,.33.27.59.59.59s.59-.27.59-.59-.27-.59-.59-.59-.59.27-.59.59Z"/>
      <circle class="cls-1" cx="141.79" cy="145.98" r=".59"/>
      <path class="cls-1" d="m135.77,107.15c-.33,0-.59.27-.59.59s.27.59.59.59.59-.27.59-.59-.27-.59-.59-.59Z"/>
      <path class="cls-1" d="m135.77,114.1c-.33,0-.59.27-.59.59s.27.59.59.59.59-.27.59-.59-.27-.59-.59-.59Z"/>
      <path class="cls-1" d="m137.18,111.22c0,.33.27.59.59.59s.59-.27.59-.59-.27-.59-.59-.59-.59.27-.59.59Z"/>
      <path class="cls-1" d="m135.77,121.06c-.33,0-.59.27-.59.59s.27.59.59.59.59-.27.59-.59-.27-.59-.59-.59Z"/>
      <path class="cls-1" d="m138.37,118.17c0-.33-.27-.59-.59-.59s-.59.27-.59.59.27.59.59.59.59-.27.59-.59Z"/>
      <path class="cls-1" d="m135.77,128.01c-.33,0-.59.27-.59.59s.27.59.59.59.59-.27.59-.59-.27-.59-.59-.59Z"/>
      <path class="cls-1" d="m138.37,125.13c0-.33-.27-.59-.59-.59s-.59.27-.59.59.27.59.59.59.59-.27.59-.59Z"/>
      <path class="cls-1" d="m135.77,134.96c-.33,0-.59.27-.59.59s.27.59.59.59.59-.27.59-.59-.27-.59-.59-.59Z"/>
      <path class="cls-1" d="m137.18,132.08c0,.33.27.59.59.59s.59-.27.59-.59-.27-.59-.59-.59-.59.27-.59.59Z"/>
      <circle class="cls-1" cx="139.78" cy="128.6" r=".59"/>
      <path class="cls-1" d="m135.77,141.91c-.33,0-.59.27-.59.59s.27.59.59.59.59-.27.59-.59-.27-.59-.59-.59Z"/>
      <path class="cls-1" d="m137.18,139.03c0,.33.27.59.59.59s.59-.27.59-.59-.27-.59-.59-.59-.59.27-.59.59Z"/>
      <circle class="cls-1" cx="139.78" cy="135.55" r=".59"/>
      <path class="cls-1" d="m140.05,148.93c-.08-.04-.17-.07-.27-.07-.33,0-.59.27-.59.59,0,.09.02.17.05.24.27-.25.54-.51.81-.76Z"/>
      <path class="cls-1" d="m135.77,148.86c-.33,0-.59.27-.59.59s.27.59.59.59.59-.27.59-.59-.27-.59-.59-.59Z"/>
      <path class="cls-1" d="m137.18,145.98c0,.33.27.59.59.59s.59-.27.59-.59-.27-.59-.59-.59-.59.27-.59.59Z"/>
      <path class="cls-1" d="m139.78,143.1c.33,0,.59-.27.59-.59s-.27-.59-.59-.59-.59.27-.59.59.27.59.59.59Z"/>
      <path class="cls-1" d="m131.76,107.15c-.33,0-.59.27-.59.59s.27.59.59.59.59-.27.59-.59-.27-.59-.59-.59Z"/>
      <path class="cls-1" d="m133.66,104.84c-.11-.06-.22-.11-.33-.17.08.09.2.14.33.17Z"/>
      <path class="cls-1" d="m131.76,114.1c-.33,0-.59.27-.59.59s.27.59.59.59.59-.27.59-.59-.27-.59-.59-.59Z"/>
      <path class="cls-1" d="m134.36,111.22c0-.33-.27-.59-.59-.59s-.59.27-.59.59.27.59.59.59.59-.27.59-.59Z"/>
      <path class="cls-1" d="m131.76,121.06c-.33,0-.59.27-.59.59s.27.59.59.59.59-.27.59-.59-.27-.59-.59-.59Z"/>
      <circle class="cls-1" cx="133.76" cy="118.17" r=".59"/>
      <path class="cls-1" d="m131.76,128.01c-.33,0-.59.27-.59.59s.27.59.59.59.59-.27.59-.59-.27-.59-.59-.59Z"/>
      <circle class="cls-1" cx="133.76" cy="125.13" r=".59"/>
      <path class="cls-1" d="m131.76,134.96c-.33,0-.59.27-.59.59s.27.59.59.59.59-.27.59-.59-.27-.59-.59-.59Z"/>
      <circle class="cls-1" cx="133.76" cy="132.08" r=".59"/>
      <path class="cls-1" d="m131.76,141.91c-.33,0-.59.27-.59.59s.27.59.59.59.59-.27.59-.59-.27-.59-.59-.59Z"/>
      <path class="cls-1" d="m133.17,139.03c0,.33.27.59.59.59s.59-.27.59-.59-.27-.59-.59-.59-.59.27-.59.59Z"/>
      <path class="cls-1" d="m131.76,148.86c-.33,0-.59.27-.59.59s.27.59.59.59.59-.27.59-.59-.27-.59-.59-.59Z"/>
      <circle class="cls-1" cx="133.76" cy="145.98" r=".59"/>
      <path class="cls-1" d="m133.76,152.34c-.33,0-.59.27-.59.59s.27.59.59.59c.04,0,.07-.01.1-.02.12-.06.23-.13.35-.2.09-.1.14-.23.14-.37,0-.33-.27-.59-.59-.59Z"/>
      <circle class="cls-1" cx="127.74" cy="107.75" r=".59"/>
      <path class="cls-1" d="m130.34,104.27c0-.33-.27-.59-.59-.59s-.59.27-.59.59.27.59.59.59.59-.27.59-.59Z"/>
      <path class="cls-1" d="m127.74,114.1c-.33,0-.59.27-.59.59s.27.59.59.59.59-.27.59-.59-.27-.59-.59-.59Z"/>
      <path class="cls-1" d="m130.34,111.22c0-.33-.27-.59-.59-.59s-.59.27-.59.59.27.59.59.59.59-.27.59-.59Z"/>
      <circle class="cls-1" cx="127.74" cy="121.65" r=".59"/>
      <path class="cls-1" d="m130.34,118.17c0-.33-.27-.59-.59-.59s-.59.27-.59.59.27.59.59.59.59-.27.59-.59Z"/>
      <circle class="cls-1" cx="127.74" cy="128.6" r=".59"/>
      <path class="cls-1" d="m130.34,125.13c0-.33-.27-.59-.59-.59s-.59.27-.59.59.27.59.59.59.59-.27.59-.59Z"/>
      <circle class="cls-1" cx="127.74" cy="135.55" r=".59"/>
      <path class="cls-1" d="m129.16,132.08c0,.33.27.59.59.59s.59-.27.59-.59-.27-.59-.59-.59-.59.27-.59.59Z"/>
      <path class="cls-1" d="m127.74,141.91c-.33,0-.59.27-.59.59s.27.59.59.59.59-.27.59-.59-.27-.59-.59-.59Z"/>
      <path class="cls-1" d="m129.16,139.03c0,.33.27.59.59.59s.59-.27.59-.59-.27-.59-.59-.59-.59.27-.59.59Z"/>
      <circle class="cls-1" cx="127.74" cy="149.46" r=".59"/>
      <path class="cls-1" d="m129.16,145.98c0,.33.27.59.59.59s.59-.27.59-.59-.27-.59-.59-.59-.59.27-.59.59Z"/>
      <path class="cls-1" d="m127.3,156.03c.22-.05.45-.11.67-.17-.07-.03-.14-.04-.22-.04-.18,0-.34.09-.45.21Z"/>
      <path class="cls-1" d="m129.16,152.93c0,.33.27.59.59.59s.59-.27.59-.59-.27-.59-.59-.59-.59.27-.59.59Z"/>
      <path class="cls-1" d="m123.73,107.15c-.33,0-.59.27-.59.59s.27.59.59.59.59-.27.59-.59-.27-.59-.59-.59Z"/>
      <circle class="cls-1" cx="125.74" cy="104.27" r=".59"/>
      <path class="cls-1" d="m123.73,114.1c-.33,0-.59.27-.59.59s.27.59.59.59.59-.27.59-.59-.27-.59-.59-.59Z"/>
      <path class="cls-1" d="m126.33,111.22c0-.33-.27-.59-.59-.59s-.59.27-.59.59.27.59.59.59.59-.27.59-.59Z"/>
      <path class="cls-1" d="m123.73,121.06c-.33,0-.59.27-.59.59s.27.59.59.59.59-.27.59-.59-.27-.59-.59-.59Z"/>
      <circle class="cls-1" cx="125.74" cy="118.17" r=".59"/>
      <circle class="cls-1" cx="125.74" cy="125.13" r=".59"/>
      <circle class="cls-1" cx="125.74" cy="132.08" r=".59"/>
      <path class="cls-1" d="m125.14,139.03c0,.33.27.59.59.59s.59-.27.59-.59-.27-.59-.59-.59-.59.27-.59.59Z"/>
      <circle class="cls-1" cx="125.74" cy="145.98" r=".59"/>
      <circle class="cls-1" cx="125.74" cy="152.93" r=".59"/>
      <path class="cls-1" d="m123.73,155.81c-.33,0-.59.27-.59.59,0,.11.04.21.09.29.36-.03.71-.07,1.06-.12.02-.06.04-.11.04-.18,0-.33-.27-.59-.59-.59Z"/>
      <circle class="cls-1" cx="119.72" cy="107.75" r=".59"/>
      <path class="cls-1" d="m122.32,104.27c0-.33-.27-.59-.59-.59s-.59.27-.59.59.27.59.59.59.59-.27.59-.59Z"/>
      <path class="cls-1" d="m119.72,114.1c-.33,0-.59.27-.59.59s.27.59.59.59.59-.27.59-.59-.27-.59-.59-.59Z"/>
      <path class="cls-1" d="m122.32,111.22c0-.33-.27-.59-.59-.59s-.59.27-.59.59.27.59.59.59.59-.27.59-.59Z"/>
      <circle class="cls-1" cx="119.72" cy="121.65" r=".59"/>
      <path class="cls-1" d="m122.32,118.17c0-.33-.27-.59-.59-.59s-.59.27-.59.59.27.59.59.59.59-.27.59-.59Z"/>
      <path class="cls-1" d="m122.32,125.13c0-.33-.27-.59-.59-.59s-.59.27-.59.59.27.59.59.59.59-.27.59-.59Z"/>
      <path class="cls-1" d="m121.13,132.08c0,.33.27.59.59.59s.59-.27.59-.59-.27-.59-.59-.59-.59.27-.59.59Z"/>
      <path class="cls-1" d="m123.73,129.19c.33,0,.59-.27.59-.59s-.27-.59-.59-.59-.59.27-.59.59.27.59.59.59Z"/>
      <path class="cls-1" d="m121.13,139.03c0,.33.27.59.59.59s.59-.27.59-.59-.27-.59-.59-.59-.59.27-.59.59Z"/>
      <path class="cls-1" d="m123.73,136.15c.33,0,.59-.27.59-.59s-.27-.59-.59-.59-.59.27-.59.59.27.59.59.59Z"/>
      <path class="cls-1" d="m121.13,145.98c0,.33.27.59.59.59s.59-.27.59-.59-.27-.59-.59-.59-.59.27-.59.59Z"/>
      <path class="cls-1" d="m123.73,143.1c.33,0,.59-.27.59-.59s-.27-.59-.59-.59-.59.27-.59.59.27.59.59.59Z"/>
      <path class="cls-1" d="m121.13,152.93c0,.33.27.59.59.59s.59-.27.59-.59-.27-.59-.59-.59-.59.27-.59.59Z"/>
      <path class="cls-1" d="m123.73,150.05c.33,0,.59-.27.59-.59s-.27-.59-.59-.59-.59.27-.59.59.27.59.59.59Z"/>
      <path class="cls-1" d="m119.72,155.81c-.33,0-.59.27-.59.59,0,.14.06.27.14.37.3.02.59.02.89.03.1-.11.16-.24.16-.4,0-.33-.27-.59-.59-.59Z"/>
      <path class="cls-1" d="m115.7,107.15c-.33,0-.59.27-.59.59s.27.59.59.59.59-.27.59-.59-.27-.59-.59-.59Z"/>
      <circle class="cls-1" cx="117.71" cy="104.27" r=".59"/>
      <path class="cls-1" d="m115.7,114.1c-.33,0-.59.27-.59.59s.27.59.59.59.59-.27.59-.59-.27-.59-.59-.59Z"/>
      <path class="cls-1" d="m118.3,111.22c0-.33-.27-.59-.59-.59s-.59.27-.59.59.27.59.59.59.59-.27.59-.59Z"/>
      <path class="cls-1" d="m115.7,121.06c-.33,0-.59.27-.59.59s.27.59.59.59.59-.27.59-.59-.27-.59-.59-.59Z"/>
      <circle class="cls-1" cx="117.71" cy="118.17" r=".59"/>
      <circle class="cls-1" cx="117.71" cy="125.13" r=".59"/>
      <circle class="cls-1" cx="117.71" cy="132.08" r=".59"/>
      <circle class="cls-1" cx="119.72" cy="128.6" r=".59"/>
      <path class="cls-1" d="m117.12,139.03c0,.33.27.59.59.59s.59-.27.59-.59-.27-.59-.59-.59-.59.27-.59.59Z"/>
      <circle class="cls-1" cx="119.72" cy="135.55" r=".59"/>
      <circle class="cls-1" cx="117.71" cy="145.98" r=".59"/>
      <path class="cls-1" d="m119.72,143.1c.33,0,.59-.27.59-.59s-.27-.59-.59-.59-.59.27-.59.59.27.59.59.59Z"/>
      <circle class="cls-1" cx="117.71" cy="152.93" r=".59"/>
      <circle class="cls-1" cx="119.72" cy="149.46" r=".59"/>
      <path class="cls-1" d="m115.7,155.81c-.27,0-.49.19-.56.43.38.08.76.14,1.15.21,0-.02,0-.03,0-.05,0-.33-.27-.59-.59-.59Z"/>
      <circle class="cls-1" cx="111.69" cy="107.75" r=".59"/>
      <path class="cls-1" d="m114.29,104.27c0-.33-.27-.59-.59-.59s-.59.27-.59.59.27.59.59.59.59-.27.59-.59Z"/>
      <path class="cls-1" d="m111.69,114.1c-.33,0-.59.27-.59.59s.27.59.59.59.59-.27.59-.59-.27-.59-.59-.59Z"/>
      <path class="cls-1" d="m114.29,111.22c0-.33-.27-.59-.59-.59s-.59.27-.59.59.27.59.59.59.59-.27.59-.59Z"/>
      <path class="cls-1" d="m114.29,118.17c0-.33-.27-.59-.59-.59s-.59.27-.59.59.27.59.59.59.59-.27.59-.59Z"/>
      <circle class="cls-1" cx="111.69" cy="128.6" r=".59"/>
      <path class="cls-1" d="m113.7,125.72c.33,0,.59-.27.59-.59s-.27-.59-.59-.59-.59.27-.59.59.27.59.59.59Z"/>
      <circle class="cls-1" cx="111.69" cy="135.55" r=".59"/>
      <path class="cls-1" d="m114.29,132.08c0-.33-.27-.59-.59-.59s-.59.27-.59.59.27.59.59.59.59-.27.59-.59Z"/>
      <path class="cls-1" d="m115.7,129.19c.33,0,.59-.27.59-.59s-.27-.59-.59-.59-.59.27-.59.59.27.59.59.59Z"/>
      <path class="cls-1" d="m111.69,141.91c-.33,0-.59.27-.59.59s.27.59.59.59.59-.27.59-.59-.27-.59-.59-.59Z"/>
      <path class="cls-1" d="m113.1,139.03c0,.33.27.59.59.59s.59-.27.59-.59-.27-.59-.59-.59-.59.27-.59.59Z"/>
      <path class="cls-1" d="m115.7,136.15c.33,0,.59-.27.59-.59s-.27-.59-.59-.59-.59.27-.59.59.27.59.59.59Z"/>
      <circle class="cls-1" cx="111.69" cy="149.46" r=".59"/>
      <path class="cls-1" d="m113.1,145.98c0,.33.27.59.59.59s.59-.27.59-.59-.27-.59-.59-.59-.59.27-.59.59Z"/>
      <path class="cls-1" d="m115.7,143.1c.33,0,.59-.27.59-.59s-.27-.59-.59-.59-.59.27-.59.59.27.59.59.59Z"/>
      <path class="cls-1" d="m113.1,152.93c0,.33.27.59.59.59s.59-.27.59-.59-.27-.59-.59-.59-.59.27-.59.59Z"/>
      <path class="cls-1" d="m115.7,150.05c.33,0,.59-.27.59-.59s-.27-.59-.59-.59-.59.27-.59.59.27.59.59.59Z"/>
      <path class="cls-1" d="m107.67,107.15c-.33,0-.59.27-.59.59s.27.59.59.59.59-.27.59-.59-.27-.59-.59-.59Z"/>
      <path class="cls-1" d="m109.68,104.86c.33,0,.59-.27.59-.59,0-.2-.1-.37-.25-.47-.31.13-.62.27-.92.42,0,.02-.01.04-.01.06,0,.33.27.59.59.59Z"/>
      <path class="cls-1" d="m110.28,111.22c0-.33-.27-.59-.59-.59s-.59.27-.59.59.27.59.59.59.59-.27.59-.59Z"/>
      <path class="cls-1" d="m107.67,121.06c-.33,0-.59.27-.59.59s.27.59.59.59.59-.27.59-.59-.27-.59-.59-.59Z"/>
      <path class="cls-1" d="m109.68,118.77c.33,0,.59-.27.59-.59s-.27-.59-.59-.59-.59.27-.59.59.27.59.59.59Z"/>
      <path class="cls-1" d="m107.67,128.01c-.33,0-.59.27-.59.59s.27.59.59.59.59-.27.59-.59-.27-.59-.59-.59Z"/>
      <path class="cls-1" d="m110.28,125.13c0-.33-.27-.59-.59-.59s-.59.27-.59.59.27.59.59.59.59-.27.59-.59Z"/>
      <circle class="cls-1" cx="111.69" cy="121.65" r=".59"/>
      <path class="cls-1" d="m107.67,134.96c-.33,0-.59.27-.59.59s.27.59.59.59.59-.27.59-.59-.27-.59-.59-.59Z"/>
      <path class="cls-1" d="m110.28,132.08c0-.33-.27-.59-.59-.59s-.59.27-.59.59.27.59.59.59.59-.27.59-.59Z"/>
      <path class="cls-1" d="m107.67,141.91c-.33,0-.59.27-.59.59s.27.59.59.59.59-.27.59-.59-.27-.59-.59-.59Z"/>
      <path class="cls-1" d="m109.09,139.03c0,.33.27.59.59.59s.59-.27.59-.59-.27-.59-.59-.59-.59.27-.59.59Z"/>
      <path class="cls-1" d="m107.67,148.86c-.33,0-.59.27-.59.59s.27.59.59.59.59-.27.59-.59-.27-.59-.59-.59Z"/>
      <path class="cls-1" d="m109.09,145.98c0,.33.27.59.59.59s.59-.27.59-.59-.27-.59-.59-.59-.59.27-.59.59Z"/>
      <path class="cls-1" d="m109.09,152.93c0,.33.27.59.59.59s.59-.27.59-.59-.27-.59-.59-.59-.59.27-.59.59Z"/>
      <path class="cls-1" d="m103.66,114.1c-.33,0-.59.27-.59.59s.27.59.59.59.59-.27.59-.59-.27-.59-.59-.59Z"/>
      <path class="cls-1" d="m105.67,111.82c.33,0,.59-.27.59-.59s-.27-.59-.59-.59-.59.27-.59.59.27.59.59.59Z"/>
      <circle class="cls-1" cx="103.66" cy="121.65" r=".59"/>
      <circle class="cls-1" cx="105.67" cy="118.17" r=".59"/>
      <path class="cls-1" d="m107.67,115.29c.33,0,.59-.27.59-.59s-.27-.59-.59-.59-.59.27-.59.59.27.59.59.59Z"/>
      <circle class="cls-1" cx="103.66" cy="128.6" r=".59"/>
      <circle class="cls-1" cx="105.67" cy="125.13" r=".59"/>
      <circle class="cls-1" cx="103.66" cy="135.55" r=".59"/>
      <circle class="cls-1" cx="105.67" cy="132.08" r=".59"/>
      <path class="cls-1" d="m103.66,141.91c-.33,0-.59.27-.59.59s.27.59.59.59.59-.27.59-.59-.27-.59-.59-.59Z"/>
      <path class="cls-1" d="m105.07,139.03c0,.33.27.59.59.59s.59-.27.59-.59-.27-.59-.59-.59-.59.27-.59.59Z"/>
      <circle class="cls-1" cx="103.66" cy="149.46" r=".59"/>
      <circle class="cls-1" cx="105.67" cy="145.98" r=".59"/>
      <path class="cls-1" d="m105.69,152.34c.17.11.33.22.5.32-.1-.19-.28-.32-.5-.32Z"/>
      <path class="cls-1" d="m103.13,107.99c.09.2.3.35.54.35.33,0,.59-.27.59-.59,0-.19-.1-.35-.23-.46-.3.23-.6.47-.89.71Z"/>
      <path class="cls-1" d="m99.65,114.1c-.33,0-.59.27-.59.59s.27.59.59.59.59-.27.59-.59-.27-.59-.59-.59Z"/>
      <path class="cls-1" d="m101.65,110.63c-.33,0-.59.27-.59.59s.27.59.59.59.59-.27.59-.59-.27-.59-.59-.59Z"/>
      <path class="cls-1" d="m99.65,121.06c-.33,0-.59.27-.59.59s.27.59.59.59.59-.27.59-.59-.27-.59-.59-.59Z"/>
      <path class="cls-1" d="m102.25,118.17c0-.33-.27-.59-.59-.59s-.59.27-.59.59.27.59.59.59.59-.27.59-.59Z"/>
      <path class="cls-1" d="m99.65,128.01c-.33,0-.59.27-.59.59s.27.59.59.59.59-.27.59-.59-.27-.59-.59-.59Z"/>
      <path class="cls-1" d="m102.25,125.13c0-.33-.27-.59-.59-.59s-.59.27-.59.59.27.59.59.59.59-.27.59-.59Z"/>
      <path class="cls-1" d="m102.25,132.08c0-.33-.27-.59-.59-.59s-.59.27-.59.59.27.59.59.59.59-.27.59-.59Z"/>
      <path class="cls-1" d="m99.65,141.91c-.33,0-.59.27-.59.59s.27.59.59.59.59-.27.59-.59-.27-.59-.59-.59Z"/>
      <path class="cls-1" d="m101.06,139.03c0,.33.27.59.59.59s.59-.27.59-.59-.27-.59-.59-.59-.59.27-.59.59Z"/>
      <path class="cls-1" d="m102.25,145.98c0-.33-.27-.59-.59-.59s-.59.27-.59.59.27.59.59.59.59-.27.59-.59Z"/>
      <circle class="cls-1" cx="95.63" cy="121.65" r=".59"/>
      <circle class="cls-1" cx="97.64" cy="118.17" r=".59"/>
      <circle class="cls-1" cx="95.63" cy="128.6" r=".59"/>
      <circle class="cls-1" cx="97.64" cy="125.13" r=".59"/>
      <circle class="cls-1" cx="95.63" cy="135.55" r=".59"/>
      <circle class="cls-1" cx="97.64" cy="132.08" r=".59"/>
      <path class="cls-1" d="m97.64,139.62c.33,0,.59-.27.59-.59s-.27-.59-.59-.59-.59.27-.59.59.27.59.59.59Z"/>
      <path class="cls-1" d="m99.65,136.15c.33,0,.59-.27.59-.59s-.27-.59-.59-.59-.59.27-.59.59.27.59.59.59Z"/>
      <path class="cls-1" d="m94.22,125.13c0-.33-.27-.59-.59-.59-.03,0-.05.01-.07.01-.06.37-.12.75-.17,1.12.07.03.15.05.24.05.33,0,.59-.27.59-.59Z"/>
      <path class="cls-1" d="m94.22,132.08c0-.33-.27-.59-.59-.59-.14,0-.26.06-.36.14.03.33.06.66.1.98.08.04.17.07.26.07.33,0,.59-.27.59-.59Z"/>
    </g>
  </g>
  <g id="_人物" data-name="人物">
    <g>
      <g>
        <path class="cls-1" d="m79.8,44.5l-1.45-2.47c-.29-.5-.92-.62-1.38-.29-.98.73-3.29,2.25-4.81,3.24-.88.57-2,.57-2.88,0-1.52-.99-3.82-2.52-4.8-3.24-.46-.34-1.08-.21-1.38.29l-1.45,2.47c-.28.48-.36,1.02-.3,1.55-.06.88-.02,2.13.37,3.84.84,3.74,8.99,32.52,8.99,32.52,0,0,6.99-21.47,8.77-34.95.08-.13.18-.27.26-.39.5-.78.53-1.78.06-2.58Z"/>
        <path class="cls-6" d="m116.94,74.99c-3.52-3.73-6-6.62-7.01-7.82-.31-.37-.54-.81-.64-1.28-.36-1.69-.85-2.62-2.1-3.51-.65-.46-1.05-1.2-1.16-1.99-.82-5.64-3.04-7.52-5.58-8.67-2.72-1.24-9.75-2.84-15.78-5.33l-5.29-4.25-1.06-.15s2.22,1.69,1.82,4.8c-.41,3.11-5.37,23.5-9.4,36.12-2.97-9.05-8.84-32.23-9.5-35.38-.66-3.15,1.81-5.39,1.81-5.39-2.96.74-6.22,4.11-6.22,4.11-6.03,2.49-11.32,4.22-14.04,5.46-2.72,1.24-4.72,4.54-5.05,8.11,0,0-.6,1.95-1.18,4.71-.58,2.76-.93,5.27-.58,8.32,0,0-4.82,10.17-6.72,10.48-2.91.47-2.18-6.73-2.38-8.69-.21-1.96-.52-2.93-.52-2.93-1.81,3.26-3.98,7.13-4.88,9.73-.18.52-.2,1.07-.07,1.6,2.16,8.74,5.79,20.86,13.1,20.75,6.04-.09,9.82-4.83,10.86-6.97v1.8c-.17,14.53-1.14,33.94-1.27,43.6-.01.87.51,1.66,1.32,1.97l1.88.61c.37,14.17,1.53,30.12,2.03,37.34,3.32,2.82,8.09,3.23,11.67,2.33,9.26-2.33,7.85,1.59,13.09-.55-.44-4.26-2.02-37.01-2.02-37.01.73,8.06,3.85,31.42,4.21,32.8.37,1.37-1.65,2.75,0,4.76,4.23,1.09,7.21-.28,11.2,0,3.99.28,6.66,1.83,10.51,0,.09-5.96.09-33.07-.21-40.85h0c.59-.16,1.16-.34,1.7-.53,1.05-.38,1.7-1.44,1.55-2.55-.64-4.65-1.24-9.88-1.73-15.4,0,0,4.71-.57,6.74-6.34,0,0,3.93,2.29,5.44.17,0,0,12.25-23.27,12.8-29.41.55-6.14-2.66-9.62-7.33-14.57Zm-11.82,18.25c-1.64,5.59-4.91,10.7-7.1,14.77,0,0-.3-16.72.52-27.51l2.83,2.41c1.92,2.44,3.76,4.84,3.76,4.84-1.83,1.81-1.92,3.85,0,5.49Z"/>
        <path class="cls-7" d="m37.47,54.78c-.48-2.54-.39-4.95-.23-6.56.11-1.06-.72-1.98-1.78-1.98-.87,0-1.61.61-1.76,1.47-.02.09-.03.19-.05.28h0c-.28-.44-.76-.74-1.32-.75-1.9-.04-3.77.21-5.19.49-1.51.29-2.58,1.64-2.51,3.18.06,1.27.18,2.79.39,4,0,0,0,0,0,0-.79,1.02-1.62,2.23-2.4,3.68-.6,1.11-.5,2.47.21,3.51,1.49,2.19,2.86,4.25,3.22,5.5.45,1.56.58,4.48.84,8.25.26,3.77.22,7.2,1.61,7.45,1.98.35,5.59-6.51,7.08-9.32.26-.49.38-1.03.36-1.59-.07-1.71-.12-5.65.62-7.88.97-2.91,1.74-5.28.9-9.74Z"/>
        <path class="cls-7" d="m106.75,117.33c-3.05,6.55-5.43,7.54-9.74,8.32-.56.1-1.09.31-1.54.65-1.35,1-2.87,2.57-3.81,3.6-.52.57-1.38.65-2,.19h0c-.65-.48-.82-1.4-.36-2.07,1.19-1.71,2.82-3.39,4.62-4.78.31-.24.05-.74-.32-.6-3.44,1.28-6.75,4.03-8.54,5.68-.77.71-1.96.64-2.63-.15h0c-.62-.73-.58-1.81.1-2.48,2.12-2.09,5.28-4.71,8.94-6.08-3.18,1.26-6.16,3.51-8.13,5.32-.66.6-1.67.58-2.31-.05h0c-.64-.64-.65-1.69-.03-2.34,3.87-4.08,6.31-5.3,9-6.32,0,0-3.59-.88-4.78-.41-.76.3-2.92,1.66-4.38,2.6-.8.52-1.87.28-2.38-.52h0c-.53-.83-.26-1.92.59-2.41.91-.52,2.13-1.25,3.37-2.11,2.53-1.73,3.17-1.91,7.41-.74,4.23,1.18,8.52.76,9.76,0,0,0,3.53,1.26,7.17,4.71Z"/>
        <path class="cls-7" d="m88.52,25.38l-6.63-.44c-.65-3.35-3.1-5.27-5.71-7.33-2.9-2.3-6.41-5.8-7.5-8.3h-6.02c-1.64,3.23-3.23,7.55-3.29,12.42,0,.56-.01,1.13-.02,1.7h0c-2.54-.43-5.52.67-5.52,3.9s2.36,5.4,6.54,6.14h0c.18.52.39,1,.64,1.41.81,1.34,2.13,2.59,3.68,3.59l-.22,3.29,6.45,3.91,5.89-3.91-.11-2.94c1.58-1.08,2.87-2.47,3.72-3.71.42-.61.76-1.37,1.02-2.24h.01c2.47-.11,7.68-1.92,7.05-7.48Z"/>
        <path class="cls-5" d="m64.8,4.19c3.41-3.59,11.14-5.11,15.64-.3s5.96,9.07,8.52,11.87c2.56,2.8,2.98,6.63-1.7,10.89,0,0-1.02.99-5.16.63,0,0,.77-4.22-3.23-7.5,0,0-4.64.41-6.96-.87,0,0-9.85,1.57-9.46-8.35,0,0-3.45,4.85-3.07,12.51,0,0-8.21-.25-4.37,7.64-5.6-3.09-3.34-9.3-1.15-12.59,1.34-2.01,2.19-2.98,2.68-6.63.49-3.65,4.2-6.03,6.82-5.78l1.46-1.52Z"/>
        <path class="cls-8" d="m74.34,71.03c-.46-7.43-1.89-15.99-1.89-15.99l1.23-5.15s-1.78-3.11-2.95-3.11-2.95,3.11-2.95,3.11l1.23,5.15s-1.69,7.69-1.91,16.1l3.61,11.27,3.61-11.38Z"/>
        <path class="cls-1" d="m32.96,47.35l-.66-5.67c-.16-1.38-1.64-2.3-2.88-1.67-.02,0-.03.02-.05.02-.71.37-1.05,1.21-.95,2.01l.65,5.31h3.88Z"/>
        <path class="cls-1" d="m108.9,115.41l-.8,1.26c-.38.59-1.2.71-1.71.23-1.39-1.29-3.45-2.85-6.58-4.12-.66-.27-.91-1.07-.52-1.67l.48-.72s3.72.85,9.13,5.01Z"/>
        <path class="cls-1" d="m25.49,69.72c1.65.37,6.82.47,10.49-1.68l-.08,4.98s-4.41,10-7.41,10.29-2.14-7.54-3-13.59Z"/>
      </g>
      <g>
        <circle class="cls-4" cx="70.93" cy="29.63" r=".71"/>
        <circle class="cls-4" cx="65.61" cy="23.91" r=".84"/>
        <circle class="cls-4" cx="76.26" cy="23.91" r=".84"/>
        <path class="cls-4" d="m60.39,34.31s-.1,0-.15-.01c-4.6-.81-7.24-3.36-7.24-6.98,0-1.48.54-2.72,1.57-3.58,1.22-1.03,3.07-1.46,4.95-1.15.46.08.78.52.7.98-.08.46-.52.77-.98.7-1.37-.23-2.73.07-3.57.77-.64.54-.97,1.31-.97,2.29,0,3.71,3.66,4.92,5.84,5.3.46.08.77.52.69.99-.07.41-.43.7-.84.7Z"/>
        <path class="cls-4" d="m55,31.57c-.14,0-.28-.03-.41-.11-2-1.1-3.26-2.67-3.74-4.64-.95-3.9,1.51-8,2.29-9.17l.35-.52c1.11-1.64,1.78-2.63,2.19-5.76.5-3.76,3.97-6.32,6.9-6.52.46-.04.88.32.91.79.03.47-.32.88-.79.91-2.27.16-4.96,2.23-5.34,5.05-.47,3.53-1.31,4.77-2.47,6.48l-.34.51c-1.4,2.1-2.67,5.26-2.05,7.82.36,1.49,1.34,2.68,2.91,3.55.41.23.56.74.33,1.16-.16.28-.45.44-.75.44Z"/>
        <path class="cls-4" d="m87.26,27.5c-.23,0-.46-.09-.63-.28-.32-.35-.29-.89.06-1.2,2.11-1.92,3.22-3.81,3.31-5.63.07-1.42-.49-2.78-1.66-4.06-1.14-1.25-2.03-2.71-3.07-4.4-1.36-2.23-2.91-4.75-5.44-7.46-2.13-2.27-4.79-2.76-6.64-2.77h-.04c-2.92,0-5.95,1.2-7.73,3.07-.33.34-.86.35-1.2.03-.34-.32-.35-.86-.03-1.2,2.11-2.23,5.54-3.6,8.96-3.6h.04c2.19,0,5.33.59,7.88,3.3,2.66,2.84,4.25,5.44,5.65,7.73.99,1.62,1.85,3.02,2.88,4.15,1.46,1.6,2.19,3.43,2.1,5.28-.11,2.29-1.41,4.58-3.86,6.81-.16.15-.37.22-.57.22Z"/>
        <path class="cls-4" d="m64.49,42.6s-.09,0-.14-.01c-.46-.08-.77-.52-.7-.98.25-1.49.3-3.09.3-3.11.01-.47.37-.82.87-.83.47.01.84.41.83.87,0,.07-.05,1.74-.32,3.34-.07.42-.43.71-.84.71Z"/>
        <path class="cls-4" d="m76.98,42.6c-.41,0-.77-.29-.84-.71-.2-1.18-.28-2.39-.31-3-.02-.47.34-.87.81-.89.47-.02.87.34.89.81.02.46.1,1.67.29,2.8.08.46-.23.9-.7.98-.05,0-.1.01-.14.01Z"/>
        <path class="cls-4" d="m65.8,52.86c-.58,0-1.13-.27-1.5-.73-1.52-1.93-2.63-3.56-3.29-4.59-.68-1.06-.71-2.39-.08-3.47l1.45-2.47c.26-.44.7-.76,1.19-.86.49-.1,1.01.02,1.42.32.99.73,3.41,2.33,4.76,3.22.59.39,1.35.39,1.95,0,1.35-.88,3.78-2.48,4.77-3.22.41-.3.94-.42,1.42-.32.49.1.93.41,1.19.86l1.45,2.47c.64,1.08.61,2.41-.08,3.47-.67,1.03-1.78,2.67-3.29,4.59-.4.5-1,.78-1.63.73-.63-.04-1.2-.41-1.53-.97-.57-.99-1.61-2.53-2.63-3.74-.22-.26-.5-.3-.65-.3h0c-.15,0-.43.04-.65.3h0c-1.01,1.21-2.04,2.75-2.62,3.74-.33.56-.9.92-1.53.97-.04,0-.09,0-.13,0Zm-2.69-10.83l.73.43-1.45,2.47c-.31.52-.29,1.17.04,1.69.65,1,1.73,2.59,3.2,4.46.05.06.1.09.17.09.04,0,.12-.02.18-.12.57-.98,1.64-2.61,2.79-3.98.36-.43.83-.72,1.36-.84-.46-.08-.91-.25-1.31-.52-1.67-1.09-3.86-2.55-4.84-3.27l-.87-.4Zm8.21,4.19c.53.12,1,.42,1.36.84,1.16,1.38,2.24,3.01,2.8,3.98.06.1.13.12.18.12.07,0,.12-.02.17-.09,1.47-1.87,2.55-3.46,3.2-4.46.33-.52.35-1.16.04-1.69l-1.45-2.47-.64-.72.5.68c-1.03.76-3.48,2.38-4.85,3.27-.41.27-.85.44-1.31.52Zm-1.89,1.39h0,0Z"/>
        <path class="cls-4" d="m70.73,83.75c-.35,0-.68-.22-.8-.56-2.61-7.28-7.69-26.19-9.52-35.5-.26-1.32-.03-2.68.65-3.83.24-.4.76-.54,1.16-.3.41.24.54.76.3,1.16-.47.8-.63,1.73-.45,2.64,1.82,9.25,6.86,28.03,9.45,35.26.16.44-.07.93-.51,1.09-.09.03-.19.05-.29.05Z"/>
        <path class="cls-4" d="m55.18,53.68s-.08,0-.12,0c-.46-.07-.79-.5-.72-.96.52-3.64,1.61-6.51,1.65-6.63.05-.14.14-.26.26-.35.36-.29.83-.7,1.37-1.17.79-.69,1.72-1.5,2.63-2.24,1.04-.85,1.65-.95,2.45-1.01l.28-.02c.47-.05.88.3.93.76.05.47-.3.88-.76.93l-.32.03c-.55.04-.8.06-1.51.63-.9.73-1.81,1.52-2.58,2.2-.47.41-.88.77-1.22,1.05-.25.71-1.07,3.15-1.49,6.07-.06.42-.42.73-.84.73Z"/>
        <path class="cls-4" d="m66.77,83.26c-.25,0-.5-.11-.66-.32-4.35-5.4-11.18-18.95-14.32-28.43-.2-.6-.09-1.25.3-1.75.37-.47.94-.71,1.52-.65l3.02.28c.29.03.59-.06.83-.25l3.75-2.93c.37-.29.9-.22,1.19.15.29.37.22.91-.15,1.19l-3.75,2.93c-.58.46-1.3.67-2.04.6l-3.02-.28c-.06.07-.07.11-.05.17,3.1,9.33,9.79,22.62,14.03,27.9.29.37.24.9-.13,1.2-.16.13-.35.19-.53.19Z"/>
        <path class="cls-4" d="m37.74,60.67s-.05,0-.08,0c-.47-.04-.81-.46-.77-.93.36-3.92,2.59-7.46,5.54-8.8,1.36-.62,3.36-1.36,5.68-2.23,2.49-.93,5.32-1.98,8.39-3.25.43-.18.93.03,1.11.46.18.43-.03.93-.46,1.11-3.09,1.28-5.93,2.33-8.44,3.27-2.29.85-4.27,1.59-5.57,2.18-2.41,1.1-4.24,4.07-4.55,7.41-.04.44-.41.77-.85.77Z"/>
        <path class="cls-4" d="m53.78,146.49c-3.23,0-6.3-.59-8.68-1.5-1.13-.44-1.88-1.55-1.86-2.77.06-4.2.28-10.37.51-16.9.31-8.66.66-18.48.75-26.7.1-8.84-.48-16.3-1.15-24.93-.48-6.21-1.03-13.24-1.41-21.93-.02-.47.34-.87.81-.89.47-.02.87.34.89.81.38,8.66.92,15.68,1.4,21.87.67,8.67,1.25,16.16,1.16,25.08-.09,8.24-.44,18.07-.75,26.74-.23,6.52-.45,12.68-.51,16.87,0,.52.3.98.77,1.16,4.74,1.83,12.45,2.26,18.17-1.11,3.71-2.19,5.92-5.58,6.55-10.09.07-.46.5-.79.96-.72.47.07.79.5.72.96-.7,4.97-3.25,8.89-7.38,11.31-3.32,1.95-7.25,2.73-10.96,2.73Z"/>
        <path class="cls-4" d="m34.4,104.63c-7.56,0-11.36-11.42-13.82-21.39-.17-.69-.14-1.41.09-2.08.82-2.37,2.65-5.75,4.3-8.73.23-.41.74-.56,1.16-.33.41.23.56.75.33,1.16-1.62,2.91-3.41,6.21-4.18,8.46-.13.37-.14.74-.05,1.12,2.32,9.37,5.79,20.1,12.17,20.1.03,0,.06,0,.09,0,5.76-.09,9.25-4.71,10.11-6.49.2-.42.71-.6,1.14-.4.42.2.6.71.4,1.14-.99,2.04-4.99,7.35-11.61,7.45-.04,0-.08,0-.12,0Z"/>
        <path class="cls-4" d="m29.46,70.95c-1.51,0-2.8-.37-3.66-1.08-.36-.3-.41-.84-.11-1.2.3-.36.83-.41,1.2-.11.71.59,2.13.82,3.71.61,2.04-.28,3.87-1.21,4.68-2.37.27-.38.8-.48,1.18-.21.39.27.48.8.21,1.18-1.3,1.86-3.87,2.82-5.85,3.08-.47.06-.93.1-1.37.1Z"/>
        <path class="cls-4" d="m28.64,84.18c-.1,0-.2,0-.29-.03-1.76-.31-2.82-2.88-3.15-7.64-.13-1.85-.37-4.76-.51-6.34-.06-.67.46-1.05.77-1.25-.05-.44-.09-.55-.18-.86l-.06-.21c-.35-1.21-1.94-3.55-3.1-5.26-.9-1.33-1-3.01-.26-4.39,1.9-3.53,4.1-5.82,5.61-7.13,1.74-1.51,3.89-1.35,5.59.4,1.37,1.41,3.13,3.58,3.7,4.84.05.11.09.22.13.34-.06-.53-.14-1.1-.25-1.7-.5-2.65-.4-5.16-.24-6.8.03-.27-.06-.53-.24-.73-.18-.2-.43-.31-.7-.31-.46,0-.85.32-.93.77l-.05.28c-.08.46-.52.77-.99.69-.46-.08-.77-.52-.69-.99l.05-.28c.22-1.26,1.32-2.17,2.6-2.17.75,0,1.46.32,1.96.87.5.55.75,1.3.67,2.05-.15,1.53-.24,3.87.22,6.32.89,4.71.04,7.24-.93,10.17-.7,2.11-.64,6-.58,7.58.03.7-.13,1.4-.46,2.02l-.05.1c-3.16,5.96-5.56,9.68-7.64,9.68Zm-2.23-13.84c.14,1.64.36,4.31.48,6.06.29,4.29,1.2,5.99,1.75,6.08.44.04,1.86-.72,6.13-8.78l.05-.1c.19-.36.28-.75.26-1.16-.08-2.07-.1-5.89.67-8.18.7-2.09,1.28-3.85,1.21-6.36-.06.42-.21.82-.45,1.16-.47.7-1.21,1.08-2.03,1.03-.47-.02-.83-.42-.81-.89.02-.47.47-.84.89-.81.21,0,.4-.09.54-.29.21-.31.25-.75.09-1.1-.46-1.03-2.11-3.06-3.37-4.35-.75-.77-1.92-1.45-3.26-.3-1.4,1.21-3.44,3.35-5.22,6.65-.44.82-.38,1.83.17,2.63,1.59,2.34,2.94,4.39,3.33,5.74l.06.2c.14.48.19.65.28,1.55.07.67-.49,1.03-.76,1.2,0,0-.01,0-.02.01Zm-.03-.31h0s0,0,0,0Z"/>
        <path class="cls-4" d="m41.98,78.74c-.33,0-.65-.2-.79-.53-.33-.81-.76-1.91-1.22-3.09-.77-1.99-1.65-4.25-2.25-5.55-.2-.43-.01-.93.41-1.13.43-.2.93-.01,1.13.41.62,1.35,1.51,3.64,2.3,5.65.45,1.17.88,2.26,1.21,3.06.18.43-.03.93-.46,1.11-.11.04-.22.06-.32.06Z"/>
        <path class="cls-4" d="m25.01,55.76c-.41,0-.77-.29-.84-.71-.18-1.05-.31-2.43-.4-4.1-.1-1.94,1.28-3.69,3.2-4.06,1.91-.37,3.71-.54,5.37-.5,1.33.03,2.42,1.15,2.42,2.5,0,1.27-.95,2.33-2.2,2.48-.95.11-2.31.3-3.38.57-.46.11-.92-.16-1.03-.62-.11-.46.16-.92.62-1.03,1.16-.29,2.59-.49,3.59-.61.4-.05.7-.39.7-.79,0-.43-.34-.79-.75-.8-1.54-.03-3.22.13-5.01.47-1.11.21-1.87,1.18-1.82,2.3.08,1.6.21,2.92.37,3.9.08.46-.23.9-.69.98-.05,0-.1.01-.14.01Z"/>
        <path class="cls-4" d="m33.42,63.08c-.93,0-1.66-.61-2.03-.98-.33-.33-.32-.87,0-1.2.34-.33.87-.32,1.2.01.29.29.64.51.83.47.04,0,.17,0,.36-.23.31-.37-.1-1.68-1.47-3.49l-.23-.31c-.61-.81-1.74-2.32-2.3-2.32h0c-.71.02-1.41.77-3.42,3.1-.31.36-.85.4-1.2.09-.36-.31-.4-.84-.09-1.2,2.16-2.5,3.14-3.64,4.66-3.69,1.47-.02,2.66,1.57,3.72,3l.23.3c1.32,1.75,2.64,4.14,1.41,5.61-.55.66-1.17.82-1.59.84-.03,0-.06,0-.08,0Z"/>
        <path class="cls-4" d="m26.87,63.58c-.18,0-.37-.06-.52-.18-.37-.29-.43-.82-.15-1.19.13-.17.33-.38.52-.59.65-.68,1.64-.91,2.53-.6.32.11.65.26,1.01.46.16.09.35.1.53.05.19-.06.33-.19.42-.36.18-.37.06-.77-.25-.96-1.03-.61-1.97-1-2.74-1.14-.46-.08-.77-.52-.69-.98.08-.46.52-.77.98-.69.98.17,2.1.62,3.32,1.35,1.08.65,1.48,1.99.93,3.12-.31.63-.83,1.08-1.45,1.28-.62.2-1.28.14-1.85-.17-.29-.16-.55-.27-.78-.36-.25-.09-.54-.02-.73.17-.15.16-.31.33-.41.46-.17.21-.42.33-.67.33Z"/>
        <path class="cls-4" d="m49.31,182.99c-.44,0-.82-.34-.85-.79l-.12-1.78c-.54-7.85-1.56-22.47-1.91-35.59-.01-.47.36-.86.83-.87.49,0,.86.36.87.83.35,13.08,1.36,27.67,1.9,35.51l.12,1.79c.03.47-.32.87-.79.91-.02,0-.04,0-.06,0Z"/>
        <path class="cls-4" d="m29.08,48.2c-.42,0-.79-.32-.84-.75l-.65-5.31c-.15-1.2.42-2.35,1.4-2.86.87-.44,1.8-.42,2.61.02.86.46,1.44,1.32,1.55,2.28l.66,5.67c.05.47-.28.89-.75.94-.48.06-.89-.28-.94-.75l-.66-5.67c-.05-.41-.3-.78-.67-.98-.19-.1-.57-.24-.98-.03-.39.21-.6.68-.54,1.17l.65,5.31c.06.47-.27.89-.74.95-.04,0-.07,0-.1,0Z"/>
        <path class="cls-4" d="m72.5,19.76s-.07,0-.11,0c-4.42-.67-7.17-6.68-7.74-9.31-.08-.38.16-.76.54-.84.38-.09.76.16.84.54.57,2.6,3.07,7.69,6.57,8.21.39.06.65.42.59.81-.05.35-.35.6-.7.6Z"/>
        <path class="cls-4" d="m71.31,41.5c-4,0-8.94-2.78-11.01-6.19-1.75-2.88-1.84-8.08-1.77-13.6.05-4.19,1.19-8.49,3.38-12.79.2-.38.64-.56,1.05-.41.4.15.63.57.54.99-.96,4.19.07,7.89,2.7,9.63.39.26.5.79.24,1.18-.26.39-.79.5-1.18.24-2.06-1.37-3.34-3.65-3.7-6.39-.85,2.56-1.29,5.09-1.32,7.58-.05,3.98-.12,9.99,1.52,12.69,1.77,2.91,6.15,5.37,9.56,5.37s6.66-2.6,8.42-5.18c1.18-1.73,1.69-4.65,1.46-8.45-.22-3.69-2.65-5.61-5.46-7.84l-.08-.06c-3.03-2.4-6.6-6-7.75-8.62-.19-.43,0-.93.44-1.12.43-.19.93,0,1.12.44,1.02,2.35,4.47,5.78,7.24,7.97l.08.06c2.87,2.27,5.84,4.62,6.1,9.08.25,4.24-.34,7.44-1.76,9.51-1.86,2.73-5.56,5.92-9.82,5.92Z"/>
        <path class="cls-4" d="m81.47,33.71c-.45,0-.83-.36-.85-.81-.02-.47.34-.87.81-.89,1.2-.06,3.62-.61,5.11-2.36.94-1.11,1.33-2.51,1.14-4.17-.05-.47.28-.89.75-.94.47-.05.89.28.94.75.24,2.15-.28,3.99-1.54,5.47-1.63,1.92-4.35,2.87-6.32,2.96-.01,0-.03,0-.04,0Z"/>
        <path class="cls-4" d="m85.02,27.36c-.1,0-.2-.02-.3-.07-.36-.16-.51-.59-.34-.94,1.03-2.22.27-5.62-1.82-8.08-2.49-2.94-4.14-5.3-5.36-7.66-.18-.35-.04-.78.3-.96.35-.18.78-.04.96.3,1.17,2.27,2.77,4.55,5.19,7.4,2.46,2.9,3.29,6.85,2.02,9.59-.12.26-.38.41-.64.41Z"/>
        <path class="cls-4" d="m67.11,72s-.01,0-.02,0c-.47-.01-.84-.4-.83-.87.2-7.66,1.62-14.81,1.88-16.07l-1.18-4.96c-.11-.46.17-.92.63-1.02.46-.11.92.17,1.02.63l1.23,5.15c.03.12.03.25,0,.38-.02.08-1.67,7.71-1.89,15.94-.01.46-.39.83-.85.83Z"/>
        <path class="cls-4" d="m98.03,108.85c-.46,0-.83-.36-.85-.82-.07-1.94-.09-4.63-.1-7.01,0-.87,0-1.7-.02-2.4-.1-8.92.48-16.41,1.16-25.08.48-6.19,1.03-13.21,1.4-21.87.02-.47.42-.83.89-.81.47.02.83.42.81.89-.38,8.69-.93,15.72-1.41,21.93-.67,8.63-1.25,16.09-1.15,24.93,0,.71.01,1.54.02,2.41.01,2.36.03,5.04.1,6.95.02.47-.35.86-.82.88-.01,0-.02,0-.03,0Z"/>
        <path class="cls-4" d="m90.27,145.44c-6.17,0-12.4-1.83-15.71-5.81-4.46-5.36-5.13-9.46-5.52-16.92-.28-5.34-1.25-33.79.91-40.08,2.51-7.3,7.64-26.07,9.46-35.27.18-.91.02-1.85-.45-2.64-.24-.4-.1-.93.3-1.16.41-.24.93-.1,1.17.3.68,1.16.91,2.52.65,3.83-1.82,9.25-6.99,28.15-9.52,35.49-1.89,5.51-1.25,31.2-.82,39.44.38,7.24.98,10.93,5.13,15.93,4.58,5.51,15.98,6.4,23.33,3.74.69-.25,1.09-.92,1-1.63-.66-4.83-1.25-10.03-1.73-15.44-.04-.47.3-.88.77-.92.49-.03.88.3.92.77.48,5.39,1.07,10.56,1.73,15.36.21,1.52-.66,2.94-2.1,3.46-2.83,1.02-6.16,1.56-9.5,1.56Z"/>
        <path class="cls-4" d="m86.29,53.68c-.42,0-.78-.31-.84-.73-.42-2.91-1.24-5.36-1.49-6.07-.34-.28-.75-.65-1.22-1.05-.78-.68-1.69-1.47-2.59-2.2-.71-.57-.96-.59-1.51-.63l-.32-.03c-.47-.05-.81-.46-.76-.93.05-.47.46-.81.93-.76l.28.02c.8.06,1.41.16,2.45,1.01.92.74,1.84,1.55,2.64,2.24.54.47,1.01.88,1.36,1.17.11.09.2.22.26.35.05.12,1.13,2.99,1.65,6.63.07.46-.26.9-.72.96-.04,0-.08,0-.12,0Z"/>
        <path class="cls-4" d="m74.7,83.26c-.19,0-.38-.06-.53-.19-.37-.29-.42-.83-.13-1.2,4.25-5.28,10.94-18.58,14.03-27.9.02-.06,0-.1,0-.13l-3.06.24c-.73.07-1.45-.15-2.04-.6l-3.75-2.92c-.37-.29-.44-.82-.15-1.19.29-.37.82-.44,1.19-.15l3.75,2.93c.24.19.54.28.83.25l3.02-.28c.59-.05,1.15.19,1.52.66.39.49.5,1.14.3,1.74-3.15,9.48-9.97,23.03-14.32,28.43-.17.21-.41.32-.66.32Z"/>
        <path class="cls-4" d="m111.48,119.81c-.13,0-.27-.03-.4-.1-.42-.22-.58-.73-.36-1.15.12-.23,12.17-23.19,12.7-29.09.52-5.84-2.67-9.22-7.1-13.91-3.59-3.81-6.12-6.76-7.04-7.86-.41-.48-.69-1.06-.82-1.65-.34-1.57-.75-2.27-1.76-3-.81-.58-1.36-1.51-1.51-2.56-.82-5.64-3.05-7.09-5.08-8.02-1.15-.52-3.19-1.14-5.55-1.85-3.03-.91-6.79-2.05-10.2-3.46-.43-.18-.64-.68-.46-1.11.18-.43.68-.64,1.11-.46,3.33,1.38,7.05,2.5,10.04,3.41,2.42.73,4.51,1.36,5.77,1.93,2.62,1.19,5.17,3.15,6.07,9.32.09.59.38,1.11.82,1.42,1.55,1.11,2.07,2.32,2.43,4.03.07.33.23.64.46.91.91,1.08,3.41,4.01,6.97,7.79,4.55,4.82,8.15,8.63,7.56,15.23-.56,6.24-12.39,28.77-12.89,29.73-.15.29-.45.45-.75.45Z"/>
        <path class="cls-4" d="m74.34,71.88c-.45,0-.82-.35-.85-.8-.45-7.3-1.87-15.81-1.88-15.9-.02-.11-.01-.23.01-.34l1.23-5.15c.11-.46.57-.74,1.02-.63s.74.57.63,1.02l-1.19,4.98c.2,1.25,1.45,9.09,1.87,15.9.03.47-.33.87-.8.9-.02,0-.04,0-.05,0Z"/>
        <path class="cls-4" d="m72.45,55.9h-3.43c-.47,0-.85-.38-.85-.85s.38-.85.85-.85h3.43c.47,0,.85.38.85.85s-.38.85-.85.85Z"/>
        <path class="cls-4" d="m97.98,185.32s0,0-.01,0c-.47,0-.84-.39-.84-.86.08-5.49.09-32.97-.2-40.8-.02-.47.35-.86.82-.88.01,0,.02,0,.03,0,.45,0,.83.36.85.82.31,8.04.29,35.23.21,40.9,0,.46-.39.84-.85.84Z"/>
        <path class="cls-4" d="m76.27,185.32c-.25,0-.49-.11-.66-.31-.35-.43-.57-.85-.7-1.24,0,.02,0,.05,0,.07.05.47-.29.88-.76.93-.46.05-.88-.29-.93-.76-.43-4.23-1.96-35.72-2.02-37.06-.02-.46.33-.86.79-.89.45-.04.86.31.91.77.76,8.4,3.88,31.51,4.19,32.66.21.79-.06,1.5-.31,2.12-.34.88-.57,1.45.14,2.32.3.36.24.9-.12,1.2-.16.13-.35.19-.54.19Zm-2.14-14.32c.26,4.76.5,9.01.67,11.36.07-.52.25-.98.4-1.36.17-.44.32-.82.25-1.07-.15-.56-.68-4.18-1.32-8.93Z"/>
        <path class="cls-4" d="m109.75,120.61c-1.67,0-3.58-.82-4.07-1.04-.43-.2-.62-.7-.42-1.13.19-.43.7-.62,1.13-.42,1.57.71,3.61,1.18,4.16.72.09-.07.09-.1.08-.14-.01-.28-.4-1.43-4.73-4.3-3.74-2.48-7.5-3.68-8.1-3.25-.13.45-.58.69-1.04.56-.45-.13-.69-.62-.56-1.07.15-.52.53-.91,1.06-1.1,2.08-.76,6.87,1.65,9.59,3.45,4.76,3.16,5.44,4.67,5.49,5.63.03.6-.21,1.13-.69,1.54-.49.41-1.16.56-1.88.56Z"/>
        <path class="cls-4" d="m98.4,113.82c-.26,0-.51-.12-.68-.33-.24-.31-.44-.57-.61-.79-.17-.22-.32-.4-.45-.57-.63-.85-.72-2-.21-2.94.42-.79.92-1.68,1.46-2.65,2.13-3.81,4.77-8.55,6.16-12.79.05-.15,0-.33-.11-.47-1.4-1.58-1.46-3.5-.19-5.27.14-.2.15-.45.02-.62-.7-.92-1.88-2.43-3.08-3.97-.29-.37-.23-.9.14-1.19.37-.29.9-.23,1.19.14,1.21,1.54,2.39,3.07,3.1,3.98.6.77.6,1.84.02,2.65-.8,1.12-.78,2.17.08,3.15.52.59.69,1.4.46,2.12-1.43,4.4-4.12,9.22-6.29,13.09-.53.96-1.03,1.84-1.45,2.62-.19.36-.16.79.08,1.11.12.16.26.33.42.54.18.22.38.49.63.81.29.37.21.91-.16,1.19-.15.12-.34.18-.52.18Z"/>
        <path class="cls-4" d="m107.78,90.01c-.2,0-.39-.09-.52-.26-.21-.29-.14-.68.14-.89,2.96-2.14,6.6-2.4,7.75-2.32.35.02.62.33.59.68-.02.35-.35.61-.68.59-.97-.07-4.27.17-6.91,2.08-.11.08-.24.12-.37.12Z"/>
        <path class="cls-4" d="m107.14,118.05c-.49,0-.97-.18-1.33-.52-1.79-1.66-3.85-2.95-6.32-3.95-.55-.22-.97-.68-1.15-1.25-.18-.57-.09-1.18.24-1.68l.48-.72c.26-.39.79-.5,1.18-.24.39.26.5.79.24,1.18l-.48.72c-.06.09-.05.19-.03.23s.05.13.16.17c2.66,1.08,4.9,2.48,6.84,4.28.07.07.15.07.21.07.05,0,.14-.03.2-.13l.8-1.26c.25-.4.78-.51,1.17-.26.4.25.51.78.26,1.17l-.8,1.26c-.32.5-.83.83-1.42.9-.08.01-.17.02-.25.02Z"/>
        <path class="cls-4" d="m90.56,131.23c-.49,0-.98-.15-1.4-.46-1.04-.76-1.28-2.18-.55-3.23.56-.81,1.23-1.63,1.98-2.42-2.06,1.29-3.85,2.82-4.94,3.83-.54.5-1.25.76-1.98.71-.73-.04-1.4-.38-1.88-.94-.64-.76-.79-1.79-.47-2.67-.32-.12-.63-.32-.89-.58-.96-.96-.98-2.54-.04-3.53,2.75-2.9,4.85-4.41,6.71-5.38-.71-.07-1.29-.07-1.56.03-.25.1-1.15.54-4.24,2.52-.58.37-1.27.5-1.94.35-.67-.15-1.25-.55-1.62-1.13-.38-.59-.5-1.32-.33-2,.17-.69.6-1.26,1.21-1.61.81-.46,2.04-1.2,3.31-2.07,2.83-1.94,3.82-2.05,8.12-.85,4.13,1.15,8.17.67,9.08.1.4-.25.92-.12,1.17.28.25.4.12.92-.28,1.17-1.58.98-6.25,1.26-10.43.1-4.12-1.15-4.47-.91-6.7.62-1.32.9-2.59,1.66-3.43,2.14-.2.12-.35.31-.4.54-.06.23-.02.47.11.68.12.2.32.33.55.38.22.05.46,0,.65-.12,2.36-1.52,3.89-2.42,4.53-2.68,1.38-.54,4.65.22,5.29.38.36.09.62.4.65.77s-.2.71-.55.85c-2.47.94-4.84,2.05-8.69,6.11-.31.32-.3.84.01,1.16.3.3.76.32,1.08.07,2.08-1.94,5.05-4.25,8.46-5.53.44-.16.92.05,1.09.49.17.44-.05.92-.48,1.1-3.57,1.42-6.7,4.08-7.87,5.15-.03.02-.06.05-.08.07-.25.23-.48.45-.7.67-.37.36-.39.93-.05,1.33.17.2.42.33.68.34.27.02.53-.08.73-.26,1.74-1.6,5.2-4.5,8.82-5.85.55-.21,1.17.02,1.45.54.29.52.16,1.17-.32,1.54-1.75,1.35-3.33,2.97-4.44,4.59-.2.28-.12.69.16.9.27.2.64.16.87-.08,1.03-1.13,2.55-2.69,3.93-3.71.54-.4,1.18-.67,1.9-.8,3.93-.71,6.11-1.39,9.12-7.84.2-.43.7-.61,1.13-.41.43.2.61.7.41,1.13-3.03,6.51-5.53,7.92-10.36,8.8-.46.08-.86.25-1.19.49-1.33.98-2.88,2.61-3.68,3.49-.46.51-1.1.77-1.74.77Z"/>
        <path class="cls-4" d="m70.69,34.15c-1.63,0-3.12-.28-3.9-.66-.35-.17-.5-.6-.32-.95.17-.35.6-.5.95-.32,1.01.5,4.32.86,6.68-.03.37-.14.77.05.91.41.14.37-.05.77-.41.91-1.19.45-2.6.63-3.91.63Z"/>
        <path class="cls-4" d="m76.49,32.78c-.25,0-.49-.15-.59-.39l-.35-.85c-.14-.33.02-.7.34-.83.32-.13.7.02.83.34l.35.85c.14.33-.02.7-.34.83-.08.03-.16.05-.25.05Z"/>
        <path class="cls-4" d="m74.62,20.95c-.28,0-.53-.18-.61-.46-.1-.34.09-.69.43-.79,1.49-.44,2.82-.69,4.51-.49.35.04.6.36.56.71-.04.35-.35.6-.71.56-1.27-.15-2.39-.03-3.99.44-.06.02-.12.03-.18.03Z"/>
        <path class="cls-4" d="m67.45,20.95c-.06,0-.11,0-.17-.02-1.94-.54-3.97-.33-4.55-.25-.35.05-.67-.2-.72-.55-.05-.35.2-.67.55-.72.64-.09,2.89-.32,5.06.28.34.09.54.45.44.79-.08.28-.33.47-.61.47Z"/>
        <path class="cls-4" d="m73.64,94.52c-.13,0-.25-.01-.38-.03-1.27-.23-2.1-1.55-1.85-2.94.12-.66.46-1.24.96-1.64.53-.42,1.17-.59,1.8-.47,1.27.23,2.1,1.55,1.85,2.94h0c-.23,1.26-1.25,2.15-2.38,2.15Zm.15-3.71c-.19,0-.37.07-.54.2-.23.18-.39.46-.45.78-.11.63.21,1.21.71,1.3.51.09,1-.34,1.12-.97h0c.11-.63-.21-1.21-.71-1.3-.04,0-.09-.01-.13-.01Zm1.54,1.44h0,0Z"/>
        <path class="cls-4" d="m73.68,112.58c-.05,0-.1,0-.15,0-.64-.04-1.22-.36-1.63-.9-.39-.51-.58-1.16-.53-1.83.05-.67.32-1.28.78-1.73.48-.47,1.09-.71,1.74-.67.64.04,1.22.36,1.63.9.39.51.58,1.16.53,1.82h0c-.05.67-.32,1.28-.78,1.73-.44.44-1,.67-1.59.67Zm.05-3.72c-.21,0-.42.09-.59.26-.21.21-.34.5-.36.82-.02.32.06.63.24.87.16.21.37.33.6.35.23.02.46-.08.64-.26.21-.21.34-.5.36-.83h0c.02-.32-.06-.63-.24-.87-.16-.21-.37-.33-.6-.35-.02,0-.03,0-.05,0Z"/>
        <path class="cls-4" d="m87.47,173.88c-.34,0-.63-.27-.64-.62-.08-2.5-.26-6.53-.48-11.2-.27-5.89-.57-12.57-.74-17.71-.01-.35.27-.65.62-.66.32,0,.65.27.66.62.17,5.13.47,11.81.74,17.7.21,4.68.4,8.71.48,11.22.01.35-.26.65-.62.66h-.02Z"/>
        <path class="cls-4" d="m59.52,183.72c-.33,0-.61-.26-.64-.6-.27-4.14-1.2-29.48-1.19-37.91,0-.35.29-.64.64-.64h0c.35,0,.64.29.64.64,0,8.41.92,33.69,1.19,37.82.02.35-.24.66-.6.68-.01,0-.03,0-.04,0Z"/>
        <path class="cls-4" d="m29.22,78.69c-1.46,0-2.64-.33-3.3-.57-.33-.12-.5-.49-.38-.82.12-.33.49-.5.82-.38,1.18.43,4.29,1.19,7.51-.94.29-.2.69-.11.88.18s.12.69-.18.88c-1.91,1.27-3.79,1.64-5.35,1.64Z"/>
      </g>
    </g>
  </g>
  <g id="_アイコン" data-name="アイコン">
    <g>
      <path class="cls-5" d="m19.03,107.12l-9.62.84c-1.42.12-2.69.93-3.4,2.17l-4.82,8.36c-.87,1.5.32,3.36,2.04,3.21l4.98-.43-.11.07,2.92,4.58c.68,1.07,1.96,1.58,3.19,1.27.99-.25,2.31-.77,3.92-1.8,1.62-1.03,2.64-2,3.29-2.8.8-.98.87-2.36.19-3.43l-2.92-4.58-.11.07,2.5-4.33c.87-1.5-.32-3.36-2.04-3.21Z"/>
      <path class="cls-3" d="m3.05,122.61c-1.04,0-2-.52-2.57-1.41-.61-.96-.64-2.17-.07-3.16l4.82-8.36c.86-1.49,2.4-2.47,4.11-2.62l9.62-.84c1.14-.1,2.22.44,2.84,1.4.61.96.64,2.17.07,3.16l-4.82,8.36c-.86,1.49-2.39,2.47-4.11,2.62l-9.62.84h0c-.09,0-.18.01-.27.01Zm.19-.92h0,0Zm15.99-13.68s-.08,0-.11,0l-9.62.84c-1.12.1-2.13.74-2.7,1.72l-4.82,8.36c-.23.41-.22.89.03,1.28.25.4.69.6,1.15.57l9.62-.84c1.12-.1,2.13-.74,2.69-1.72l4.82-8.36c.23-.41.22-.89-.03-1.28-.23-.36-.61-.57-1.04-.57Z"/>
      <path class="cls-3" d="m13.5,128.19c-1.29,0-2.52-.65-3.24-1.78l-2.92-4.58c-.27-.42-.15-.98.28-1.25.42-.27.98-.15,1.25.28l2.92,4.58c.47.74,1.36,1.09,2.2.88,1.11-.28,2.34-.84,3.66-1.68,1.32-.84,2.35-1.72,3.07-2.61.55-.68.6-1.63.13-2.37l-2.92-4.58c-.27-.42-.15-.98.28-1.25.42-.27.98-.15,1.25.28l2.92,4.58c.89,1.4.79,3.2-.25,4.48-.84,1.04-2.02,2.05-3.5,2.99-1.48.94-2.89,1.59-4.19,1.91-.31.08-.62.12-.93.12Z"/>
      <path class="cls-3" d="m24.16,115.88c-.23,0-.46-.12-.6-.33l-3.09-4.85c-.21-.33-.11-.76.22-.97.33-.21.76-.11.97.22l3.09,4.85c.21.33.11.76-.22.97-.12.08-.25.11-.38.11Z"/>
      <path class="cls-3" d="m25.56,119.4c-.08,0-.16-.01-.24-.04-.21-.07-.36-.24-.43-.44l-.89-2.73c-.1-.31.02-.64.29-.81.27-.17.63-.14.86.08l2.1,1.96c.16.15.24.36.22.58-.02.22-.14.41-.32.53l-.6.38h0l-.6.38c-.11.07-.25.11-.38.11Z"/>
      <path class="cls-3" d="m24.17,116.82c-.54,0-1.08-.27-1.39-.76-.49-.77-.26-1.79.5-2.27.37-.24.81-.32,1.24-.22.43.1.8.35,1.03.72h0c.24.37.31.81.22,1.24-.09.43-.35.8-.72,1.03-.27.17-.58.26-.88.26Zm0-1.88s-.08,0-.13.04c-.11.07-.14.22-.07.33.07.11.22.14.33.07.07-.05.1-.11.1-.15,0-.04.01-.11-.03-.18h0c-.05-.07-.11-.1-.15-.1-.01,0-.03,0-.05,0Z"/>
    </g>
    <g>
      <g>
        <path class="cls-8" d="m120.8,144.54c3.92,2.91,5.62,7.64,3.11,12.02-1.91,3.34-4.96,4.66-7.8,5.29-1.63.36-2.75.62-3.77,1.31-.73.49-1.7.41-2.41-.11l-3.71-2.75c-.71-.52-1.06-1.43-.8-2.27.36-1.17.28-2.33.16-3.99-.21-2.91.17-6.2,2.81-9,3.47-3.67,8.48-3.41,12.4-.49Z"/>
        <path class="cls-3" d="m111.24,164.41c-.65,0-1.3-.21-1.86-.62l-3.71-2.75c-1.04-.78-1.5-2.1-1.13-3.28.32-1.02.24-2.13.12-3.65-.29-4.04.71-7.21,3.06-9.7,3.56-3.77,9.04-4.01,13.62-.6h0c4.59,3.41,5.94,8.72,3.36,13.22-1.7,2.97-4.45,4.85-8.4,5.73-1.49.34-2.57.58-3.46,1.18-.48.33-1.04.49-1.61.49Zm3.34-21.18c-2.04,0-3.98.82-5.51,2.44-2.01,2.12-2.82,4.76-2.56,8.3.12,1.66.21,2.98-.2,4.33-.13.44.06.96.47,1.26l3.71,2.75c.41.31.96.34,1.34.09,1.17-.79,2.46-1.08,4.09-1.44,3.47-.78,5.76-2.32,7.21-4.85,2.12-3.71,1-7.95-2.86-10.82h0c-1.84-1.37-3.81-2.05-5.68-2.05Z"/>
      </g>
      <path class="cls-3" d="m108.89,166.69c-.19,0-.38-.06-.55-.18l-4.97-3.69c-.41-.3-.49-.88-.19-1.29.3-.41.88-.49,1.29-.19l4.97,3.69c.41.3.49.88.19,1.29-.18.24-.46.37-.74.37Z"/>
      <path class="cls-3" d="m106.97,168.61c-.19,0-.38-.06-.55-.18l-4.33-3.22c-.41-.3-.49-.88-.19-1.29.3-.41.88-.49,1.29-.19l4.33,3.22c.41.3.49.88.19,1.29-.18.24-.46.37-.74.37Z"/>
      <path class="cls-3" d="m103.88,170.44c-.58,0-1.22-.22-1.82-.66-1.19-.88-1.59-2.21-.94-3.08.15-.2.36-.33.61-.36.24-.04.49.03.68.17l2.68,1.99c.2.15.33.36.36.61.04.24-.03.49-.17.68-.32.44-.83.65-1.41.65Z"/>
      <path class="cls-3" d="m120.34,139.94c-.12,0-.24-.02-.36-.07-.47-.2-.69-.74-.49-1.21l.68-1.63c.2-.47.74-.69,1.21-.49.47.2.69.74.49,1.21l-.68,1.63c-.15.35-.49.57-.85.57Z"/>
      <path class="cls-3" d="m112.87,139.35c-.46,0-.87-.35-.92-.82l-.18-1.7c-.05-.51.31-.96.82-1.01.51-.05.96.31,1.01.82l.18,1.7c.05.51-.31.96-.82,1.01-.03,0-.07,0-.1,0Z"/>
      <path class="cls-3" d="m126.22,144.31c-.27,0-.53-.11-.71-.33-.32-.39-.27-.97.12-1.3l1.36-1.12c.39-.32.97-.27,1.3.12.32.39.27.97-.12,1.3l-1.36,1.12c-.17.14-.38.21-.58.21Z"/>
      <path class="cls-3" d="m128.95,151.29c-.43,0-.82-.31-.9-.75-.09-.5.23-.98.73-1.08l1.68-.32c.5-.09.98.23,1.08.73.09.5-.23.98-.73,1.08l-1.68.32c-.06.01-.12.02-.17.02Z"/>
      <path class="cls-3" d="m114.37,156.03c-.92,0-1.77-.55-2.16-1.47-.44-1.05-.16-2.46,1.45-3.31-.53-.28-1.2-.42-2.01-.27-.43.07-.85-.21-.92-.65-.08-.43.21-.85.65-.92,1.77-.31,3.23.31,4.19,1.29,1.83-.13,3.5.84,4.48,2.06.27.34.22.84-.12,1.12-.34.28-.85.22-1.12-.12-.52-.65-1.31-1.2-2.21-1.39.03.09.05.17.08.26.39,1.5-.21,2.81-1.51,3.27-.26.09-.52.14-.78.14Zm.52-3.57c-.13.05-.27.1-.41.17-.7.35-1,.84-.8,1.32.12.27.46.62.94.45.71-.25.58-1.03.5-1.36-.05-.18-.13-.38-.23-.57Z"/>
    </g>
    <g>
      <rect class="cls-1" x="22.08" y="155.59" width="10.22" height="10.22" rx="1.79" ry="1.79" transform="translate(-95.67 53.61) rotate(-39.32)"/>
      <path class="cls-3" d="m26.73,167.87c-.08,0-.17,0-.25-.01-.67-.07-1.26-.39-1.69-.9l-4.2-5.13c-.42-.52-.62-1.17-.55-1.83.07-.66.39-1.26.9-1.69l5.13-4.2c.52-.42,1.18-.62,1.83-.55.67.07,1.26.39,1.69.9l4.2,5.13c.87,1.07.72,2.65-.35,3.52l-5.13,4.2c-.45.37-1,.57-1.58.57Zm.92-12.92c-.25,0-.49.08-.68.25l-5.13,4.2c-.22.18-.36.44-.39.73s.06.57.24.79l4.2,5.13c.18.22.44.36.73.39.29.03.57-.06.79-.24l5.13-4.2h0c.46-.38.53-1.06.15-1.52l-4.2-5.13c-.18-.22-.44-.36-.73-.39-.04,0-.07,0-.11,0Z"/>
    </g>
    <g>
      <circle class="cls-1" cx="106.94" cy="33.39" r="3.5"/>
      <path class="cls-3" d="m106.94,37.6c-2.32,0-4.21-1.89-4.21-4.21s1.89-4.21,4.21-4.21,4.21,1.89,4.21,4.21-1.89,4.21-4.21,4.21Zm0-7c-1.54,0-2.79,1.25-2.79,2.79s1.25,2.79,2.79,2.79,2.79-1.25,2.79-2.79-1.25-2.79-2.79-2.79Z"/>
    </g>
    <g>
      <path class="cls-9" d="m131.46,55.06l-8.69,2.81c-1.11.36-1.42,1.79-.55,2.57l6.78,6.12c.87.78,2.26.33,2.5-.81l1.91-8.93c.24-1.14-.84-2.12-1.95-1.76Z"/>
      <path class="cls-3" d="m130.01,67.81c-.57,0-1.13-.21-1.58-.61l-6.78-6.12c-.64-.57-.91-1.42-.73-2.25.18-.84.77-1.49,1.59-1.76l8.69-2.81c.81-.26,1.68-.08,2.32.49.64.57.91,1.42.73,2.25l-1.91,8.93c-.18.84-.77,1.5-1.59,1.76-.24.08-.49.12-.74.12Zm1.92-11.97c-.06,0-.14,0-.21.03h0l-8.69,2.81c-.33.11-.42.38-.45.5-.02.11-.05.4.21.64l6.78,6.12c.26.23.54.18.65.14.11-.04.38-.16.45-.5l1.91-8.93c.07-.34-.12-.56-.21-.64-.07-.06-.22-.17-.44-.17Zm-.47-.77h0,0Z"/>
    </g>
    <g>
      <g>
        <path class="cls-2" d="m35.08,24.77l-4.13-9.15c-.74-1.64-2.72-2.32-4.31-1.46h0c-1.59.86-2.12,2.88-1.15,4.4l5.37,8.48c.68,1.07,2.06,1.43,3.18.83h0c1.11-.6,1.57-1.96,1.05-3.11Z"/>
        <path class="cls-3" d="m32.89,28.97c-1.07,0-2.12-.53-2.73-1.5l-5.37-8.48c-.58-.92-.75-2.04-.48-3.09.28-1.05.98-1.94,1.93-2.46.96-.51,2.09-.61,3.12-.26,1.03.35,1.87,1.11,2.32,2.1l4.13,9.15s0,0,0,0c.69,1.53.07,3.36-1.41,4.16-.48.26-1,.38-1.52.38Zm-4.79-14.38c-.37,0-.75.09-1.09.28-.57.31-.97.82-1.13,1.44-.16.62-.06,1.27.28,1.81l5.37,8.48c.45.71,1.37.95,2.11.55.74-.4,1.04-1.3.7-2.06l-4.13-9.15c-.27-.59-.75-1.03-1.36-1.23-.24-.08-.49-.12-.74-.12Z"/>
      </g>
      <g>
        <circle class="cls-2" cx="36.8" cy="33.03" r="2.58"/>
        <path class="cls-3" d="m36.81,36.42c-1.21,0-2.38-.65-2.99-1.78-.43-.8-.52-1.71-.26-2.58s.84-1.58,1.64-2.01c1.65-.89,3.71-.27,4.59,1.38.43.8.52,1.71.26,2.58s-.84,1.58-1.64,2.01c-.51.27-1.06.4-1.6.4Zm0-5.16c-.28,0-.57.07-.84.21-.42.22-.72.6-.86,1.05s-.09.93.14,1.35c.46.86,1.54,1.18,2.4.72.42-.22.72-.6.86-1.05s.09-.93-.14-1.35c-.32-.59-.93-.93-1.56-.93Z"/>
      </g>
    </g>
  </g>
</svg>