<?xml version="1.0" encoding="UTF-8"?>
<svg id="Layer_2" data-name="Layer 2" xmlns="http://www.w3.org/2000/svg" viewBox="0 0 187.09 210.15">
  <defs>
    <style>
      .cls-1 {
        fill: #fff;
      }

      .cls-2 {
        fill: #95e0e6;
      }

      .cls-3 {
        fill: #363636;
      }

      .cls-4 {
        fill: #33b0da;
      }

      .cls-5 {
        fill: #ffdfbc;
      }

      .cls-6 {
        fill: #ffd964;
      }

      .cls-7 {
        fill: #b9b9b9;
      }
    </style>
  </defs>
  <g id="_人物" data-name="人物">
    <g>
      <g>
        <g>
          <path class="cls-7" d="m35.99,147.18c-1.26,5.85,2.78,12.97,10.45,9.48l-10.45-9.48Z"/>
          <path class="cls-7" d="m50.15,181.15c-1.78,5.45.29,10.16,5.26,10.06s6.29-3.46,6.29-3.46l-11.55-6.6Z"/>
          <path class="cls-1" d="m125.48,59.41c1.78,5.32,10.8,5.52,15.02-.17,0,0-6.43,23.44-7.45,35.76l-7.8-1.78-3.29-3.05s1.73-18.75,3.51-30.76Z"/>
          <path class="cls-7" d="m130.13,114.03c-.66,8.87-.49,17.79-.31,22.76.08,2.2,1.96,3.88,4.15,3.74,2.62-.17,5.44-.36,8.26-.52h0c-2.72,8.94-10.58,10.46-16.74,9.83-9.44-.96-19.87-7.43-23.98-10.04-8.62-5.47-14.62-4.65-18.87-3.51-9.6,2.59-19.92,11.71-29.95,22.29-1.06,1.12-2.82,1.18-3.96.15l-17.69-16.04c-1.17-1.06-1.24-2.87-.18-4.03,24.28-26.57,43.04-34.19,57.4-33.92l2.02.63c-1.58,14.75,14.62,16.8,22.07,9.91.62-.57.66-1.54.11-2.19l-.02-.03c-.49-.58-1.32-.72-1.97-.33-1.28.77-2.9,1.62-4.17,2.07-.21.07-.35-.2-.18-.34,1.23-.95,2.23-1.86,3.01-2.64h0c4.44.31,8.38.67,11.1.93,1.68.16,2.89-1.57,2.16-3.1,0,0,2.43,2.94,7.73,4.36Z"/>
          <path class="cls-1" d="m122.5,111.29l2.84-2.03c.86-.62,1.16-1.76.72-2.72l-9.64-21.12c-.67-1.46-1.83-2.65-3.3-3.29-8.08-3.53-17.3-3.62-24.83,0-3.54-9.55-11.56-12.85-14.57-13.78-.71-.22-1.48-.12-2.11.29l-3.03,1.94c-.43.28-.76.67-.95,1.13l.05-.1c6.96,1.46,13.12,4.57,15.96,13.77.33,1.06,1.19,1.88,2.27,2.12l1.76.41c.8.18,1.65.08,2.36-.35,6.12-3.72,12.07-3.49,20.43-.36.9.34,1.63,1.03,2.05,1.89l9.9,20.58s.43.98.11,1.62Z"/>
          <path class="cls-5" d="m153.26,29.98c-1.08-1.75-1.22-2.76-.57-4.53,1.4-3.42.37-6.61-2.43-8.31-.96-.58-1.65-1.5-1.91-2.58-.97-4-5.19-5.9-9.68-4.74-1.19.31-2.42.1-3.5-.48-4.66-2.5-12.65-.21-13.21,5.39l1.3,1.01c-.55-.25-1-.58-1.3-1.01-4.48,2.49-6.82,8.93-6.51,17.51.11,2.94.35,5.57.7,7.94.83,5.52,4.89,9.69,9.91,10.98l-.45,7.63c1.26,4.31,9.12,8.33,14.9.44,1.04-3.84,1.48-7.63,1.48-7.63l-1.2-5.22c1.19.28,4.25.77,7.36-.59.2-.09.39-.18.58-.29,3.39-1.89,3.66-5.81,1.93-8.51l.02.02c4.14-1.26,3.67-5.27,2.59-7.03Z"/>
          <path class="cls-5" d="m125.73,108.88c3.3-2.56,3.06-9.61,1.08-13.31-1.81-3.4-4.84-5.96-9.16-7.44l8.61,18.25s.22,1.67-.53,2.51Z"/>
          <path class="cls-5" d="m92.67,105.95c.5,1.15,1.89,1.61,2.98.98,1.58-.91,3.29-1.83,4.36-2.41.68-.36,1.5-.25,2.06.28l.06.06c.79.75.73,2.02-.12,2.69-1.32,1.03-3.19,2.49-4.65,3.58,0,0,5.75-4.55,9-6.7.68-.45,1.57-.4,2.2.12h0c.91.75.92,2.14,0,2.88-1.8,1.47-4.62,3.79-6.72,5.62,0,0,3.35-2.82,5.94-4.97.72-.59,1.76-.56,2.44.07h0c.67.66.7,1.72.09,2.43-.84.96-2.2,2.36-4.17,3.88-.18.14-.03.41.18.34,1.27-.46,2.9-1.3,4.17-2.07.65-.39,1.48-.25,1.97.33l.02.03c.55.65.51,1.62-.11,2.19-7.45,6.88-23.64,4.84-22.07-9.91l2.38.57Z"/>
          <path class="cls-3" d="m112.84,146.07c-4.88-2.21-9.07-4.82-11.33-6.26-8.62-5.47-14.62-4.65-18.87-3.51-9.6,2.59-19.92,11.71-29.95,22.29-2.73,4.07-7.33,10.12-9.67,14.02-1.1,1.82-.47,4.19,1.38,5.24l19.56,11.18c1.8,1.03,4.09.43,5.14-1.35,5.07-8.55,11.52-21.26,20.06-30.28,6.85-7.23,15.54-11.74,23.69-11.34h0Z"/>
          <path class="cls-4" d="m109.13,111.84c4.44.31,8.38.67,11.1.93,1.68.16,2.89-1.57,2.16-3.1l-9.9-20.58c-.42-.87-1.15-1.56-2.05-1.89-8.35-3.13-14.31-3.37-20.43.36-.7.43-1.56.53-2.36.35l-1.76-.41c-1.08-.25-1.94-1.06-2.27-2.12-2.84-9.21-8.99-12.31-15.96-13.77l-.05.1c-.19.45-.26.96-.16,1.47l4.98,26.22c.19,1.01.97,1.8,1.97,2,3.63.74,12.45,2.64,18.35,4.86l-.1-.3c.5,1.15,1.89,1.61,2.98.98,1.58-.91,3.29-1.83,4.36-2.41.68-.36,1.5-.25,2.06.28l.06.06c.79.75.73,2.02-.12,2.69-1.32,1.03-3.19,2.49-4.65,3.58,0,0,5.75-4.55,9-6.7.68-.45,1.57-.4,2.2.12h0c.91.75.92,2.14,0,2.88-1.8,1.47-4.62,3.79-6.72,5.62,0,0,3.35-2.82,5.94-4.97.72-.59,1.76-.56,2.44.07h0c.67.66.7,1.72.09,2.43-.31.36-.7.78-1.16,1.24h0Z"/>
          <path class="cls-2" d="m130.13,114.03c-.66,8.87-.49,17.79-.31,22.76.08,2.2,1.96,3.88,4.15,3.74,5.89-.39,12.82-.82,18.37-1.04,2.36-.09,4.1-2.24,3.69-4.56-.76-4.28-2.08-11.14-3.89-18.24"/>
          <path class="cls-2" d="m123.4,110.65c6.54,5.2,23.52,7.52,31.6,4.72,10.79-3.74,14.75-14.75,13.76-31.6s-11.01-22.13-19.92-27.53l.37,1.31c-.21-1.37-.91-2.63-1.98-3.51-1.33-1.1-3.34-2.63-5.59-3.88l-.03-.18c.35,2.14.25,4.33-.33,6.42-1.79,6.44-5.93,21.52-8.73,37.78l-7.28-.97c3.96,4.62,4.92,14.45-1.86,17.43Z"/>
          <path class="cls-2" d="m126.18,51.21c-.35,9.55-3.21,28.39-4.2,38.95l-4.15-1.67-1.4-3.07c-.67-1.46-1.83-2.65-3.3-3.29-5.05-2.21-10.55-3.07-15.8-2.52l.3-.03c2.48-4.9,3.89-8.8,6.74-15.84,3.52-8.7,12.55-12.22,20.11-13.07l1.7.55Z"/>
          <path class="cls-6" d="m150.67,37.01c4.14-1.26,3.67-5.28,2.59-7.03s-1.22-2.76-.57-4.53c1.4-3.42.37-6.61-2.43-8.31-.96-.58-1.65-1.5-1.91-2.58-.97-4-5.19-5.9-9.68-4.74-1.19.31-2.42.1-3.5-.48-4.66-2.5-12.65-.21-13.21,5.39.77,1.1,2.45,1.55,4.61,1.65,1.43.07,2.56,1.23,2.62,2.66.06,1.63.62,2.96,2.31,3.74.86.4,1.45,1.2,1.51,2.15.17,2.42,1.65,4.32,4.23,4.58.99.1,1.82.82,2.16,1.76.54,1.52,1.73,2.82,3.49,3.09,0,0,4.66-1.49,7.76,2.63Z"/>
          <path class="cls-4" d="m48.06,158.13c-2.24,5.41-4.66,9.91-6.51,13.03-1.66,2.8-5.21,3.8-8.1,2.33-5.04-2.57-13.14-6.98-20.88-12.45s-14.4-11.45-9.98-17.56,20.1-1.79,29.31,0l4.09,3.71c-1.62,6,2.54,12.46,10.45,9.48l1.62,1.47Z"/>
          <path class="cls-4" d="m62.71,188.33c-.15,5.11-1.42,12.91-4.61,17.82-1.59,2.44-4.69,3.4-7.43,2.41-8.98-3.27-25.5-11.09-32.24-16.45-5.7-4.53-6.52-9.77-1.85-12.99,5.2-3.59,21.8-.12,28.84-.67l4.74,2.71c-1.25,3.9-.21,9.1,3.97,9.94,3.22.65,6.11-1.59,7.05-3.65l1.54.88Z"/>
          <path class="cls-6" d="m114.06,93.53c-2.77-1.61-5.28-2.51-9.54-2.65-.87-.03-1.47.87-1.12,1.66h0c.18.42.59.7,1.05.72s1.02.04,1.6.1c.41.04.58.51.34.84-.68.92-.57,2.4,2.25,2.84,3.64.56,5.21,1.13,8.19,2.26l-2.77-5.76Z"/>
          <path class="cls-6" d="m101.27,104.56c-.06-.44-.29-.85-.61-1.18.29-.03.57-.06.83-.08,1.06-.1,1.76-1.15,1.44-2.17h0c-.22-.69-.87-1.16-1.59-1.17-3.5-.02-7.57.73-10.19,1.78l1.9,5.18c1.24.65,1.87.54,3.8-.67s2.92-2.01,4.43-1.69Z"/>
          <circle class="cls-1" cx="112.62" cy="94.99" r="3.48"/>
          <path class="cls-1" d="m118.45,32.36c-2.22-.33-3.74.78-3.45,3.19s1.69,4.09,3.78,3.82,2.89-1.78,2.78-3.78-1.63-3-3.11-3.23Z"/>
          <path class="cls-1" d="m128.65,33.81c-2.57-.4-4.34,1.36-4,3.93.5,3.85,4.09,4.17,5.81,2.83,2.94-2.29,1.84-6.19-1.81-6.77Z"/>
        </g>
        <g>
          <path class="cls-3" d="m129.32,52.81c-2.88,0-5.69-.86-8.15-2.54-3.35-2.28-5.61-5.9-6.21-9.91-.37-2.45-.61-5.17-.71-8.07-.32-8.79,2.08-15.4,6.61-18.29.43-2.29,1.94-4.22,4.31-5.48,3.3-1.76,7.56-1.85,10.58-.23.85.46,1.79.59,2.62.37,2.75-.71,5.53-.4,7.65.87,1.79,1.07,3,2.71,3.5,4.75.19.76.67,1.42,1.36,1.84,3.37,2.04,4.51,5.89,2.92,9.79-.5,1.37-.41,1.99.48,3.44.81,1.32,1.3,3.52.56,5.47-.43,1.12-1.44,2.62-3.83,3.34-.64.19-1.31-.17-1.5-.8s.17-1.31.8-1.5c1.17-.35,1.94-.99,2.28-1.89.43-1.13.14-2.54-.36-3.35-1.27-2.06-1.44-3.47-.68-5.57,1.16-2.83.41-5.45-1.92-6.87-1.24-.76-2.12-1.94-2.45-3.33-.34-1.39-1.17-2.51-2.39-3.25-1.57-.94-3.69-1.16-5.81-.61-1.43.37-2.98.16-4.37-.58-2.31-1.24-5.73-1.14-8.31.23-.99.53-2.63,1.69-3.06,3.71.48.37,1.45.74,3.39.84,2.07.1,3.68,1.74,3.77,3.82.06,1.41.52,2.19,1.61,2.69,1.27.59,2.12,1.8,2.21,3.16.07.95.5,3.19,3.16,3.47,1.42.15,2.67,1.15,3.17,2.55.22.61.9,2.05,2.54,2.31.56.09.99.56,1.02,1.13.07,1.36.09,2.67.08,3.91-.09,6.7-4.6,12.48-10.96,14.06-.2.05-.41.1-.61.15-1.09.25-2.19.37-3.28.37Zm-7.53-36.54c-3.55,2.55-5.41,8.27-5.13,15.93.1,2.81.33,5.44.69,7.8.51,3.4,2.35,6.34,5.19,8.27,2.82,1.93,6.21,2.57,9.54,1.81.19-.04.38-.09.57-.14,5.31-1.32,9.06-6.15,9.14-11.76.01-.92,0-1.88-.04-2.88-1.57-.57-2.83-1.87-3.46-3.62-.19-.53-.65-.91-1.15-.97-3.01-.31-5.1-2.55-5.31-5.7-.03-.49-.34-.92-.82-1.14-1.93-.89-2.91-2.46-3.01-4.78-.03-.82-.67-1.47-1.48-1.51-1.46-.07-3.39-.29-4.73-1.32Z"/>
          <g>
            <path class="cls-1" d="m118.45,32.36c-2.22-.33-3.74.78-3.45,3.19s1.69,4.09,3.78,3.82,2.89-1.78,2.78-3.78-1.63-3-3.11-3.23Z"/>
            <path class="cls-3" d="m118.35,40.32c-.86,0-1.66-.27-2.33-.79-1.04-.81-1.73-2.18-1.93-3.86-.22-1.75.4-2.77.96-3.31.82-.8,2.08-1.12,3.54-.9h0c1.71.26,3.75,1.48,3.9,4.09.15,2.62-1.23,4.44-3.58,4.75-.19.02-.37.04-.55.04Zm-.64-7.09c-.59,0-1.07.15-1.38.45-.47.45-.48,1.21-.42,1.76.14,1.18.59,2.14,1.24,2.63.43.33.93.46,1.51.38,1.41-.18,2.07-1.13,1.98-2.82-.1-1.89-1.81-2.29-2.33-2.37h0c-.21-.03-.42-.05-.61-.05Z"/>
          </g>
          <ellipse class="cls-3" cx="128.09" cy="37.77" rx="1.13" ry="1.41" transform="translate(-2.3 8.93) rotate(-3.96)"/>
          <ellipse class="cls-3" cx="118.48" cy="36.12" rx="1.13" ry="1.41" transform="translate(-2.21 8.26) rotate(-3.96)"/>
          <circle class="cls-3" cx="122.24" cy="42.64" r=".78"/>
          <circle class="cls-3" cx="124.61" cy="46.08" r=".88"/>
          <circle class="cls-3" cx="135.3" cy="111.29" r="1.43"/>
          <circle class="cls-3" cx="95.61" cy="98.16" r="1.13"/>
          <circle class="cls-3" cx="100.9" cy="97.61" r="1.13"/>
          <circle class="cls-3" cx="105.87" cy="97.82" r="1.13"/>
          <circle class="cls-3" cx="111.49" cy="98.74" r="1.13"/>
          <circle class="cls-3" cx="139.46" cy="111.97" r="1.43"/>
          <circle class="cls-3" cx="143.93" cy="112.2" r="1.43"/>
          <path class="cls-3" d="m143.61,47.91c-2.12,0-3.64-.49-3.75-.52-.63-.21-.97-.89-.76-1.52.21-.63.89-.97,1.52-.76.03.01,3.54,1.12,7.03-.41.16-.07.32-.15.47-.24,2.35-1.31,2.66-3.64,2.16-5.38-.56-1.95-2.33-3.87-5.1-3.74-1.21.05-2.03.22-2.04.22-.65.14-1.29-.28-1.43-.93-.14-.65.28-1.29.93-1.43.04,0,1.01-.21,2.43-.27,4.08-.17,6.71,2.63,7.53,5.49.94,3.3-.36,6.5-3.31,8.14-.22.12-.45.24-.68.34-1.78.78-3.54,1.01-5.01,1.01Z"/>
          <path class="cls-3" d="m132.76,95.21c-.07,0-.14,0-.21-.02-.66-.11-1.1-.74-.98-1.39,2.75-15.96,6.53-30.49,8.54-37.72.53-1.89.63-3.88.3-5.91-.37-2.3-.37-3.65-.37-3.7,0-.66.54-1.2,1.2-1.2h0c.66,0,1.2.55,1.2,1.21h0s0,1.23.34,3.31c.38,2.37.26,4.7-.36,6.93-1.61,5.79-5.65,21.03-8.49,37.49-.1.59-.61,1-1.19,1Z"/>
          <path class="cls-3" d="m121.97,90.81s-.08,0-.11,0c-.66-.06-1.15-.65-1.09-1.31.39-4.13,1.05-9.36,1.75-14.9,1.1-8.68,2.24-17.65,2.45-23.43.02-.67.6-1.19,1.25-1.16.67.02,1.18.58,1.16,1.25-.22,5.89-1.36,14.92-2.47,23.65-.7,5.52-1.36,10.73-1.74,14.82-.06.62-.58,1.09-1.2,1.09Z"/>
          <path class="cls-3" d="m132.86,64.94c-.58,0-1.1-.06-1.54-.13-3.23-.57-6.05-2.9-6.86-5.67-.19-.64.18-1.31.82-1.49.64-.19,1.31.18,1.49.82.48,1.63,2.33,3.52,4.96,3.98,2.82.49,5.6-.89,7.8-3.91.39-.54,1.15-.65,1.68-.26.54.39.65,1.15.26,1.68-3,4.09-6.3,4.99-8.62,4.99Z"/>
          <path class="cls-3" d="m133.7,141.74c-1.26,0-2.46-.46-3.4-1.31-1.03-.93-1.63-2.21-1.68-3.59-.17-4.66-.36-13.84.31-22.9.05-.66.64-1.18,1.29-1.11.66.05,1.16.63,1.11,1.29-.67,8.94-.48,18.02-.3,22.63.03.73.34,1.41.88,1.9.54.49,1.25.73,1.98.68,7.84-.52,13.85-.86,18.4-1.04.78-.03,1.51-.39,2-1,.49-.6.69-1.39.55-2.15-.78-4.43-2.09-11.17-3.87-18.15-.16-.65.23-1.3.87-1.46.64-.17,1.3.22,1.46.87,1.8,7.05,3.11,13.86,3.9,18.33.26,1.45-.13,2.94-1.05,4.08-.93,1.15-2.3,1.84-3.78,1.9-4.52.18-10.52.51-18.33,1.03-.12,0-.23.01-.35.01Z"/>
          <path class="cls-3" d="m133.62,90.46c-.24,0-.48-.07-.69-.22-.54-.38-.67-1.14-.29-1.68,3.12-4.43,10.03-13.6,12.86-17.35.35-.47.29-1.12-.14-1.52l-1.92-1.76c-.54-.5-.77-1.25-.6-1.97.17-.71.72-1.28,1.43-1.47l4.23-1.15c.2-.06.33-.26.3-.46l-.79-5.14c-.17-1.09-.72-2.07-1.56-2.76-1.26-1.04-3.23-2.54-5.41-3.75-.58-.32-.79-1.06-.47-1.64.32-.58,1.06-.79,1.64-.47,2.34,1.3,4.43,2.9,5.77,4,1.3,1.07,2.15,2.58,2.41,4.26l.79,5.14c.22,1.42-.66,2.78-2.05,3.15l-3.55.97,1.4,1.29c1.35,1.24,1.54,3.28.43,4.74-2.82,3.73-9.71,12.88-12.81,17.28-.23.33-.61.51-.99.51Z"/>
          <path class="cls-3" d="m137.86,96.18c-5.09,0-10.58-1.22-12.9-1.8-.65-.16-1.04-.82-.88-1.46.16-.65.81-1.04,1.46-.88,9.46,2.37,17.14,2.33,19.57-.1,2.39-2.39,3.04-5.82,3.67-9.15.16-.87.33-1.72.51-2.53,1.04-4.51,4.02-8.02,7.97-9.39,3.49-1.2,7.28-.55,10.14,1.76.52.42.6,1.18.18,1.69-.42.52-1.18.6-1.69.18-2.25-1.81-5.1-2.31-7.84-1.36-3.16,1.09-5.56,3.95-6.41,7.65-.18.79-.34,1.61-.5,2.44-.67,3.51-1.42,7.49-4.34,10.4-1.92,1.91-5.33,2.53-8.96,2.53Z"/>
          <path class="cls-3" d="m146.18,117.77c-8.6,0-18.79-2.41-23.53-6.18-.52-.41-.61-1.17-.19-1.69.41-.52,1.17-.61,1.69-.19,6.05,4.81,22.56,7.27,30.46,4.53,9.72-3.37,13.96-13.31,12.95-30.39-.91-15.47-9.68-20.75-18.16-25.85l-1.18-.71c-.57-.34-.75-1.09-.41-1.65.34-.57,1.09-.75,1.65-.41l1.17.71c8.6,5.17,18.34,11.04,19.33,27.78,1.08,18.3-3.69,29.03-14.57,32.81-2.5.87-5.73,1.26-9.22,1.26Z"/>
          <path class="cls-3" d="m97.62,80.78c-.18,0-.37-.04-.54-.13-.59-.3-.83-1.02-.53-1.62,1.91-3.78,3.21-7.03,5.01-11.53.51-1.28,1.07-2.67,1.69-4.22,4.38-10.82,16.21-13.27,21.09-13.82.66-.07,1.26.4,1.33,1.06.07.66-.4,1.26-1.06,1.33-4.45.5-15.24,2.71-19.13,12.33-.62,1.54-1.18,2.92-1.69,4.21-1.82,4.56-3.13,7.85-5.1,11.73-.21.42-.64.66-1.08.66Z"/>
          <path class="cls-3" d="m122.5,112.49c-.38,0-.75-.17-.98-.5-.39-.54-.26-1.29.28-1.68l2.84-2.03c.39-.28.53-.8.33-1.24l-9.64-21.12c-.56-1.22-1.51-2.18-2.69-2.69-7.82-3.42-16.73-3.43-23.83-.02-.31.15-.66.16-.97.03-.31-.13-.56-.38-.68-.7-3.32-8.97-10.75-12.11-13.79-13.05-.38-.11-.77-.06-1.1.15l-3.03,1.94c-.45.29-.68.82-.58,1.35l4.98,26.22c.1.53.5.94,1.03,1.04,3.57.72,12.53,2.65,18.54,4.92.62.23.94.93.7,1.55-.23.62-.93.94-1.55.7-5.85-2.2-14.65-4.1-18.17-4.81-1.49-.3-2.63-1.46-2.91-2.96l-4.98-26.22c-.29-1.5.36-3.01,1.65-3.83l3.03-1.94c.92-.59,2.06-.75,3.11-.42,3.24,1,10.98,4.26,14.87,13.32,7.51-3.17,16.63-3,24.66.51,1.72.75,3.11,2.14,3.91,3.9l9.64,21.12c.68,1.48.21,3.25-1.12,4.2l-2.84,2.03c-.21.15-.46.23-.7.23Z"/>
          <path class="cls-3" d="m120.46,113.98c-.11,0-.23,0-.34-.02-2.56-.25-6.56-.62-11.07-.93-.66-.05-1.16-.62-1.12-1.29.05-.66.62-1.16,1.29-1.12,4.53.32,8.56.68,11.14.93.5.06.78-.27.88-.4.1-.14.3-.51.08-.97l-9.9-20.58c-.29-.6-.78-1.06-1.39-1.29-8.44-3.16-13.87-3.09-19.38.26-.96.58-2.11.76-3.25.49l-1.76-.41c-1.49-.34-2.7-1.47-3.15-2.94-2.85-9.23-9.21-11.72-15.05-12.95-.65-.14-1.07-.78-.93-1.43.14-.65.78-1.07,1.43-.93,6.15,1.29,13.63,4.12,16.86,14.6.2.65.73,1.15,1.39,1.31l1.76.41c.52.12,1.05.05,1.46-.2,6.15-3.74,12.37-3.87,21.47-.45,1.19.45,2.15,1.33,2.71,2.5l9.9,20.58c.54,1.12.43,2.38-.27,3.4-.64.92-1.65,1.44-2.75,1.44Z"/>
          <path class="cls-3" d="m118.18,83.87c-.58,0-1.09-.42-1.19-1.01-.78-4.7-1.85-12.98-2.27-16.32-.15-1.21.53-2.4,1.65-2.89l3.05-1.32-2.89-1.84c-.65-.42-1.11-1.1-1.24-1.86-.14-.76.05-1.55.52-2.16,1.19-1.56,3.59-4.49,6.31-6.54.53-.4,1.29-.29,1.69.24.4.53.29,1.29-.24,1.69-2.49,1.87-4.73,4.61-5.84,6.07-.08.1-.08.21-.07.28.01.06.05.17.17.25l3.17,2.02c.7.44,1.09,1.23,1.03,2.06-.07.83-.58,1.54-1.34,1.87l-3.35,1.46c-.15.07-.24.22-.22.38.42,3.33,1.48,11.57,2.26,16.23.11.66-.33,1.28-.99,1.39-.07.01-.13.02-.2.02Z"/>
          <path class="cls-3" d="m125.73,110.09c-.36,0-.72-.16-.95-.47-.41-.53-.31-1.28.21-1.69,2.64-2.04,2.62-8.3.76-11.8-1.71-3.21-4.57-5.52-8.49-6.87-.63-.22-.96-.9-.75-1.53.22-.63.9-.96,1.53-.75,4.52,1.55,7.83,4.25,9.84,8.02,2.06,3.87,2.55,11.76-1.41,14.83-.22.17-.48.25-.74.25Z"/>
          <path class="cls-3" d="m102.19,120.28c-2.33,0-4.63-.49-6.64-1.5-2.8-1.41-7.37-5.04-6.47-13.53.07-.66.66-1.13,1.33-1.07.06,0,.12.02.18.03l-7.67-17.55c-.27-.61.01-1.32.62-1.59.61-.27,1.32.01,1.59.62l8.64,19.76c.14.32.4.45.55.5.14.05.42.1.73-.07,1.22-.7,2.7-1.52,4.39-2.42,1.13-.61,2.52-.42,3.46.47.3.29.54.61.7.95.75-.54,1.46-1.04,2.09-1.45,1.12-.74,2.58-.67,3.63.19.72.59,1.13,1.46,1.13,2.38,0,.27-.04.54-.1.79.25.12.48.29.69.48,1.12,1.11,1.2,2.86.23,4.04h.01c.78,0,1.55.34,2.09.98.99,1.18.89,2.87-.19,3.88-2.89,2.67-6.98,4.1-10.97,4.1Zm-10.77-14.16c-.36,4.92,1.48,8.64,5.21,10.51,4.54,2.28,11.08,1.3,14.9-2.22.14-.13.14-.37,0-.53-.13-.15-.3-.18-.44-.1-1.51.92-3.15,1.73-4.39,2.18-.65.23-1.36-.04-1.69-.64-.33-.61-.18-1.36.37-1.78,1.92-1.49,3.23-2.84,4-3.72.2-.23.19-.57-.03-.79-.21-.19-.57-.2-.82,0-2.58,2.14-5.93,4.96-5.93,4.96-.51.43-1.26.36-1.69-.14s-.37-1.26.12-1.69c2.08-1.8,4.82-4.06,6.75-5.64.21-.17.24-.39.24-.5s-.03-.34-.24-.51c-.22-.18-.54-.2-.77-.05-1.22.81-2.81,1.97-4.31,3.09-1.31,1.03-3.16,2.47-4.63,3.57-.53.39-1.27.29-1.68-.23-.4-.52-.31-1.27.21-1.68.14-.11,2.28-1.81,4.67-3.6.17-.14.2-.32.2-.41,0-.1-.01-.29-.18-.45-.24-.23-.51-.27-.72-.15-1.67.89-3.13,1.7-4.32,2.39-.81.47-1.79.57-2.68.28-.9-.29-1.62-.96-2-1.82l-.14-.31Z"/>
          <path class="cls-3" d="m50.64,160.67c-.97,0-1.95-.34-2.71-1.04l-17.69-16.04c-.8-.73-1.27-1.72-1.32-2.8-.05-1.09.33-2.13,1.06-2.94,21.11-23.11,40.73-34.64,58.31-34.31.67.01,1.19.56,1.18,1.23-.01.66-.55,1.18-1.2,1.18,0,0-.02,0-.02,0-16.87-.3-35.86,10.96-56.49,33.53-.3.33-.46.76-.43,1.2.02.44.21.84.53,1.13l17.69,16.04c.65.59,1.68.55,2.28-.08,12.67-13.38,22.08-20.36,30.51-22.63,4.6-1.24,11.01-1.94,19.83,3.65,3.47,2.2,14.03,8.89,23.46,9.85,4.61.47,12.75-.07,15.46-8.99.19-.64.87-1,1.5-.8.64.19,1,.87.8,1.5-2.35,7.71-8.91,11.61-18.01,10.68-10-1.02-20.92-7.94-24.51-10.22-7.98-5.06-13.53-4.54-17.91-3.36-10.34,2.78-21.72,13.87-29.39,21.96-.79.83-1.86,1.25-2.93,1.25Z"/>
          <path class="cls-3" d="m110.07,81.96c-.06,0-.11,0-.17-.01-.54-.09-.9-.61-.81-1.15.51-2.96.71-5.2.93-7.57.09-.98.18-1.99.29-3.09.06-.54.55-.94,1.09-.88.55.06.94.54.88,1.09-.11,1.1-.2,2.1-.29,3.06-.22,2.41-.42,4.69-.95,7.73-.08.48-.5.82-.98.82Z"/>
          <path class="cls-3" d="m36.25,175.37c-1.13,0-2.28-.26-3.35-.8-5.35-2.73-13.35-7.12-21.03-12.54-5.36-3.78-10.94-8.32-11.77-13.31-.35-2.08.16-4.08,1.51-5.95,4.32-5.96,16.75-3.35,26.73-1.25,1.34.28,2.61.55,3.78.78.65.13,1.08.76.95,1.41-.13.65-.76,1.08-1.41.95-1.18-.23-2.46-.5-3.82-.78-8.32-1.75-20.88-4.39-24.29.31-.97,1.34-1.33,2.69-1.09,4.14.69,4.14,6.12,8.44,10.78,11.73,7.56,5.34,15.45,9.67,20.73,12.36,2.33,1.18,5.19.37,6.52-1.87,1.68-2.83,4.16-7.36,6.43-12.87.25-.62.96-.91,1.57-.65.61.25.91.96.65,1.57-2.33,5.64-4.87,10.28-6.59,13.18-1.36,2.3-3.81,3.59-6.34,3.59Z"/>
          <path class="cls-3" d="m42.56,170.41c-.12,0-.25-.02-.37-.07-5.7-2.29-17.11-8.36-27.04-15.09-10.08-6.84-12.65-9.72-11.97-13.42.1-.54.62-.9,1.16-.79.54.1.89.62.79,1.16-.49,2.63,2.11,5.3,11.13,11.42,9.46,6.41,20.98,12.61,26.67,14.89.51.21.75.78.55,1.29-.16.39-.53.62-.92.62Z"/>
          <path class="cls-3" d="m42.65,158.62c-2.07,0-3.92-.68-5.39-2.01-2.47-2.24-3.43-6.06-2.43-9.74.17-.64.83-1.03,1.48-.85.64.17,1.02.83.85,1.48-.76,2.81-.08,5.69,1.73,7.33,1.71,1.55,4.24,1.8,7.14.71.62-.23,1.32.08,1.55.7.23.62-.08,1.32-.7,1.55-1.47.56-2.89.83-4.22.83Z"/>
          <path class="cls-3" d="m11.1,152.17c-.29,0-.57-.12-.77-.37-.35-.42-.28-1.05.14-1.4l2.93-2.38c1.75-1.42,4.03-2.1,6.27-1.86,3.87.41,11.1,1.2,16.1,1.85.54.07.93.57.85,1.11-.07.54-.58.93-1.11.85-4.98-.65-12.2-1.44-16.05-1.85-1.71-.18-3.47.34-4.81,1.43l-2.93,2.38c-.18.15-.41.22-.63.22Z"/>
          <path class="cls-3" d="m20.03,151.36c-.64,0-1.17-.5-1.2-1.14-.22-4-.74-9.04-.75-9.09-.07-.66.41-1.25,1.07-1.32.66-.06,1.25.41,1.32,1.07,0,.05.54,5.15.76,9.21.04.67-.47,1.23-1.14,1.27-.02,0-.04,0-.07,0Z"/>
          <path class="cls-3" d="m25.37,151.56c-.62,0-1.14-.47-1.2-1.09-.12-1.26-.22-2.47-.32-3.68-.13-1.54-.26-3.07-.41-4.66-.06-.66.42-1.25,1.08-1.32.66-.07,1.25.42,1.32,1.08.16,1.6.29,3.14.42,4.69.1,1.2.2,2.42.32,3.67.06.66-.43,1.25-1.09,1.31-.04,0-.07,0-.11,0Z"/>
          <path class="cls-3" d="m30.45,152.49c-.62,0-1.14-.47-1.2-1.09-.12-1.26-.22-2.47-.32-3.69-.13-1.54-.26-3.07-.41-4.66-.06-.66.42-1.25,1.08-1.32.66-.07,1.25.42,1.32,1.08.15,1.6.29,3.14.42,4.69.1,1.21.2,2.42.32,3.67.06.66-.43,1.25-1.09,1.31-.04,0-.07,0-.11,0Z"/>
          <path class="cls-3" d="m65.82,190.74c-.84,0-1.69-.21-2.47-.66l-19.56-11.18c-1.18-.67-2.02-1.77-2.36-3.08-.34-1.31-.15-2.67.55-3.83,1.46-2.43,3.74-5.63,5.95-8.72,1.39-1.95,2.71-3.79,3.75-5.35.37-.55,1.12-.7,1.67-.33.55.37.7,1.12.33,1.67-1.07,1.59-2.39,3.45-3.79,5.41-2.18,3.05-4.44,6.21-5.85,8.56-.36.6-.46,1.3-.28,1.98.18.68.61,1.25,1.23,1.6l19.56,11.18c1.22.7,2.8.29,3.51-.92.96-1.62,1.97-3.39,3.03-5.25,4.53-7.94,10.17-17.83,17.19-25.24,7.44-7.85,16.41-12.11,24.62-11.72.66.03,1.18.6,1.14,1.26-.03.66-.59,1.17-1.26,1.14-7.51-.38-15.8,3.63-22.75,10.97-6.82,7.2-12.38,16.95-16.84,24.78-1.07,1.88-2.09,3.66-3.05,5.29-.92,1.56-2.6,2.44-4.31,2.44Z"/>
          <path class="cls-3" d="m52.89,210.15c-.88,0-1.77-.15-2.64-.47-8.97-3.26-25.7-11.17-32.58-16.64-3.54-2.82-5.43-6.02-5.33-9.03.08-2.31,1.3-4.35,3.54-5.89,3.76-2.6,11.9-1.93,19.77-1.29,3.77.31,7.33.6,9.66.41.67-.04,1.24.45,1.29,1.11s-.44,1.24-1.11,1.29c-2.53.2-6.18-.1-10.04-.42-6.75-.55-15.15-1.23-18.2.88-1.61,1.11-2.45,2.46-2.5,3.99-.08,2.23,1.49,4.74,4.42,7.07,6.68,5.31,23.08,13.05,31.9,16.26,2.26.82,4.73.03,6.01-1.93,3.02-4.63,4.27-12.16,4.42-17.2.02-.67.58-1.18,1.24-1.17.67.02,1.19.58,1.17,1.24-.17,5.61-1.52,13.39-4.81,18.44-1.4,2.14-3.74,3.35-6.21,3.35Z"/>
          <path class="cls-3" d="m58.99,205.58c-.11,0-.22-.02-.33-.06-7.21-2.52-24.18-10.12-32.96-15.07-5.41-3.04-8.48-6.22-8.88-9.17-.2-1.47.27-2.81,1.34-3.88.39-.39,1.02-.38,1.4,0,.39.39.38,1.02,0,1.4-.63.62-.89,1.36-.77,2.2.18,1.32,1.44,4.08,7.89,7.71,8.7,4.9,25.5,12.43,32.64,14.92.52.18.79.75.61,1.26-.14.41-.53.67-.94.67Z"/>
          <path class="cls-3" d="m55.27,192.41c-.46,0-.92-.04-1.38-.14-1.8-.36-3.26-1.42-4.22-3.06-1.34-2.28-1.59-5.51-.65-8.43.2-.63.88-.98,1.51-.78.63.2.98.88.78,1.52-.72,2.25-.55,4.79.44,6.48.61,1.04,1.5,1.69,2.62,1.92,2.72.54,5.02-1.45,5.71-2.97.28-.6.99-.87,1.6-.59.6.28.87.99.59,1.6-1.08,2.37-3.87,4.47-7,4.47Z"/>
          <path class="cls-3" d="m25.6,190.25c-.19,0-.38-.05-.54-.16-.46-.3-.58-.92-.28-1.37l2.02-3.07c1.06-1.6,2.83-2.58,4.75-2.61,2.49-.04,5.29-.08,7.95-.1,4.31-.05,8.38-.09,10.13-.19.53-.02,1.02.39,1.04.94.03.55-.39,1.02-.94,1.04-1.79.1-5.88.14-10.21.19-2.66.03-5.46.06-7.94.1-1.26.02-2.43.67-3.13,1.72l-2.02,3.07c-.19.29-.51.45-.83.45Z"/>
          <path class="cls-3" d="m33.95,187.69s-.01,0-.02,0c-.67,0-1.2-.56-1.19-1.22.03-1.88.02-3.97,0-5.94,0-.92,0-1.81,0-2.64,0-.67.54-1.21,1.2-1.21s1.2.54,1.2,1.21c0,.82,0,1.71,0,2.63,0,1.98.02,4.09,0,5.98,0,.66-.55,1.19-1.2,1.19Z"/>
          <path class="cls-3" d="m39.07,187.85h0c-.67,0-1.2-.54-1.2-1.21,0-1.28-.02-2.73-.04-4.19-.02-1.43-.04-2.87-.04-4.15,0-.67.54-1.21,1.2-1.21s1.2.54,1.2,1.21c0,1.27.02,2.7.04,4.12.02,1.47.04,2.94.04,4.23,0,.67-.54,1.2-1.2,1.2Z"/>
          <path class="cls-3" d="m44.26,188.05h0c-.67,0-1.2-.54-1.2-1.21,0-1.28-.02-2.74-.04-4.21-.02-1.43-.04-2.86-.04-4.14,0-.67.54-1.21,1.2-1.21s1.2.54,1.2,1.21c0,1.27.02,2.69.04,4.11.02,1.47.04,2.95.04,4.24,0,.67-.54,1.2-1.2,1.2Z"/>
          <path class="cls-3" d="m123.81,37.45c-1.27,0-2.33-.43-2.86-.93-.37-.35-.39-.93-.05-1.3.35-.37.93-.39,1.3-.05.25.23,1.17.57,2.29.37.51-.09.98.24,1.07.74s-.24.98-.74,1.07c-.35.06-.69.09-1.02.09Z"/>
          <path class="cls-3" d="m128.26,42.21c-.59,0-1.18-.11-1.73-.33-.9-.37-2.46-1.38-2.8-4.02-.2-1.55.22-2.93,1.2-3.88.97-.94,2.33-1.32,3.86-1.09h0c2.09.33,3.67,1.66,4.14,3.47.46,1.8-.25,3.65-1.91,4.94-.76.59-1.76.91-2.76.91Zm-.33-7.54c-.69,0-1.29.22-1.71.63-.55.53-.78,1.36-.66,2.32.17,1.29.75,2.17,1.67,2.55.86.35,1.95.22,2.66-.32,1.06-.82,1.53-1.95,1.25-3.02-.28-1.1-1.27-1.89-2.64-2.11h0c-.2-.03-.39-.05-.57-.05Z"/>
          <path class="cls-3" d="m133.7,38.52c-.11,0-.23,0-.34,0l-1.26-.07c-.51-.03-.9-.46-.87-.97s.46-.91.97-.87l1.26.07c.83.04,1.66-.13,2.41-.5l5.71-2.87c.45-.23,1.01-.05,1.24.41.23.45.05,1.01-.41,1.24l-5.71,2.87c-.93.47-1.95.71-2.99.71Z"/>
          <path class="cls-3" d="m132.5,33.88c-.28,0-.54-.16-.65-.44-.28-.66-.76-1.11-1.44-1.35-.77-.27-1.55-.15-1.83,0-.34.19-.77.07-.96-.27-.19-.34-.07-.77.27-.96.74-.41,1.97-.46,2.98-.11.74.26,1.74.84,2.29,2.14.15.36-.02.78-.38.93-.09.04-.18.06-.27.06Z"/>
          <path class="cls-3" d="m121.97,31.11c-.25,0-.5-.14-.63-.38-.32-.61-.84-.85-1.21-.93-.59-.14-1.25-.02-1.72.31-.32.23-.76.15-.99-.17s-.15-.76.17-.99c.8-.57,1.88-.77,2.87-.54.93.22,1.69.81,2.14,1.65.18.35.05.77-.3.96-.11.06-.22.08-.33.08Z"/>
          <path class="cls-3" d="m76.28,82.66c-.13,0-.27-.04-.39-.11-.73-.48-2.62-1.31-3.46-1.6-.37-.13-.57-.53-.44-.9s.53-.57.9-.44c.93.32,2.92,1.19,3.77,1.75.33.21.42.65.21.98-.14.21-.36.32-.59.32Z"/>
          <path class="cls-3" d="m76.96,86.89c-.13,0-.27-.04-.39-.11-.73-.48-2.62-1.31-3.46-1.6-.37-.13-.57-.53-.44-.9s.53-.57.9-.44c.93.32,2.92,1.19,3.77,1.75.33.21.42.65.21.98-.14.21-.36.32-.59.32Z"/>
          <path class="cls-3" d="m77.62,90.87c-.13,0-.27-.04-.39-.12-.73-.48-2.62-1.31-3.46-1.6-.37-.13-.57-.53-.44-.9s.53-.57.9-.44c.93.32,2.92,1.19,3.77,1.75.33.21.42.65.21.98-.14.21-.36.32-.59.32Z"/>
          <path class="cls-3" d="m93.86,95.18c-.33,0-.65-.16-.84-.46-.29-.46-.16-1.08.3-1.37,2.5-1.59,6.42-1.53,7.99-1.43.55.04.96.51.93,1.05-.04.55-.51.95-1.05.93-2.81-.18-5.42.25-6.79,1.13-.17.11-.35.16-.53.16Z"/>
        </g>
      </g>
      <g>
        <circle class="cls-1" cx="73.07" cy="24.24" r="21.9"/>
        <path class="cls-6" d="m74.84,30c4.38-1.28,6.93-6.03,5.49-10.95s-5.71-7.03-10.36-5.66c-4.65,1.36-7.1,5.45-5.66,10.36s6.15,7.53,10.53,6.25Z"/>
        <g>
          <path class="cls-3" d="m72.56,31.34c-4.12,0-7.9-2.85-9.2-7.29-.77-2.64-.55-5.16.64-7.28,1.15-2.04,3.17-3.57,5.7-4.31,2.53-.74,5.06-.54,7.13.55,2.15,1.14,3.69,3.14,4.46,5.78.76,2.6.54,5.28-.63,7.57-1.16,2.27-3.13,3.91-5.53,4.61h0c-.85.25-1.72.37-2.56.37Zm2.28-1.32h0,0Zm-2.14-16.03c-.79,0-1.61.12-2.45.37-2.06.6-3.62,1.77-4.53,3.38-.92,1.64-1.08,3.63-.46,5.75,1.26,4.29,5.34,6.74,9.3,5.58,1.88-.55,3.41-1.83,4.33-3.61.94-1.83,1.11-3.99.49-6.1-.62-2.12-1.83-3.7-3.49-4.59-.97-.51-2.04-.77-3.19-.77Z"/>
          <path class="cls-3" d="m71.72,27.45c-.14,0-.28-.04-.41-.13-1.22-.85-2.56-2.32-2.69-3.89-.07-.82.21-1.56.81-2.15.7-.69,1.69-.86,2.7-.49.65-.86,1.58-1.25,2.54-1.04.82.17,1.46.65,1.85,1.37.74,1.39.4,3.35-.17,4.73-.15.36-.56.54-.92.39-.36-.15-.54-.56-.39-.92.54-1.31.63-2.76.23-3.52-.19-.36-.47-.56-.89-.65-.38-.08-.72.06-1.03.4.44.41.75.93.71,1.47-.04.52-.4.92-.96,1.09-.56.16-1.08.02-1.4-.4-.33-.43-.34-1.04-.2-1.62-.45-.12-.81-.05-1.09.22-.3.3-.43.62-.39,1.03.07.86.93,2.03,2.09,2.84.32.22.4.67.17.99-.14.2-.36.3-.58.3Z"/>
          <path class="cls-3" d="m75.35,37.96c-1.28,0-2.46-.78-2.94-2.03-.47-1.23-1.41-3.55-2.34-5.29-.26-.48-.08-1.08.4-1.34.48-.26,1.08-.08,1.34.4.99,1.83,1.96,4.24,2.45,5.52.22.58.84.89,1.44.71l1.61-.47c.6-.18.96-.77.83-1.38-.28-1.34-.76-3.9-.92-5.97-.04-.55.37-1.02.92-1.06.55-.05,1.02.37,1.06.92.15,1.96.62,4.42.88,5.72.33,1.63-.62,3.21-2.22,3.68l-1.61.47c-.3.09-.61.13-.91.13Z"/>
          <path class="cls-3" d="m72.61,34.48c-.21,0-.42-.09-.56-.28-.24-.31-.18-.75.13-.99l5.74-4.42c.31-.24.75-.18.99.13.24.31.18.75-.13.99l-5.74,4.42c-.13.1-.28.15-.43.15Z"/>
          <path class="cls-3" d="m73.82,37.03c-.21,0-.42-.09-.56-.28-.24-.31-.18-.75.13-.99l4.97-3.83c.31-.24.75-.18.99.13.24.31.18.75-.13.99l-4.97,3.83c-.13.1-.28.15-.43.15Z"/>
          <path class="cls-3" d="m67.71,6.95c-.43,0-.82-.28-.95-.71l-1.45-4.96c-.15-.53.15-1.08.67-1.23.53-.15,1.08.15,1.23.67l1.45,4.96c.15.53-.15,1.08-.67,1.23-.09.03-.19.04-.28.04Z"/>
          <path class="cls-3" d="m61.88,9.83c-.25,0-.51-.1-.7-.29l-3.15-3.14c-.39-.39-.39-1.01,0-1.4.39-.39,1.01-.39,1.4,0l3.15,3.14c.39.39.39,1.01,0,1.4-.19.19-.45.29-.7.29Z"/>
          <path class="cls-3" d="m74.12,6.5c-.07,0-.14,0-.22-.02-.54-.12-.87-.65-.75-1.18l1-4.52c.12-.54.65-.87,1.18-.75s.87.65.75,1.18l-1,4.52c-.1.46-.51.78-.97.78Z"/>
        </g>
        <path class="cls-3" d="m73.07,47.34c-12.74,0-23.11-10.37-23.11-23.11,0-5.35,1.87-10.57,5.27-14.69.42-.51,1.18-.59,1.7-.16.51.42.59,1.18.16,1.7-3.04,3.69-4.72,8.36-4.72,13.15,0,11.41,9.28,20.7,20.7,20.7s20.7-9.28,20.7-20.7c0-8.59-5.17-16.15-13.16-19.28-.62-.24-.93-.94-.68-1.56s.94-.93,1.56-.68c8.92,3.49,14.69,11.94,14.69,21.53,0,12.74-10.37,23.11-23.11,23.11Z"/>
        <path class="cls-3" d="m98.85,41.61c-.21,0-.41-.05-.6-.16l-7.38-4.29c-.58-.33-.77-1.07-.44-1.65.33-.58,1.07-.77,1.65-.44l7.38,4.29c.58.33.77,1.07.44,1.65-.22.38-.63.6-1.04.6Z"/>
      </g>
      <g>
        <g>
          <path class="cls-1" d="m55.06,55.04l.78,9.9c.14,1.74,2.1,2.67,3.54,1.69l8.18-5.63c1.43-.99,1.26-3.16-.31-3.91l-8.96-4.27c-1.57-.75-3.37.49-3.23,2.22Z"/>
          <path class="cls-4" d="m58.1,68.02c-.48,0-.95-.11-1.4-.32-1.06-.51-1.75-1.51-1.85-2.68l-.78-9.9c-.09-1.17.43-2.27,1.4-2.94.97-.67,2.18-.76,3.25-.26l8.96,4.27c1.06.51,1.75,1.51,1.84,2.68s-.43,2.27-1.4,2.94l-8.18,5.63c-.56.38-1.2.58-1.84.58Zm-.79-14.43c-.34,0-.6.14-.72.23-.18.12-.6.49-.55,1.15h0s.78,9.9.78,9.9c.05.66.52.95.72,1.05.2.09.72.27,1.27-.1l8.18-5.63c.55-.38.56-.93.55-1.15-.02-.22-.12-.76-.72-1.05l-8.96-4.27c-.2-.09-.38-.13-.55-.13Z"/>
        </g>
        <g>
          <circle class="cls-6" cx="32.03" cy="86.01" r="7.61"/>
          <path class="cls-4" d="m32.03,94.61c-4.74,0-8.6-3.86-8.6-8.6s3.86-8.6,8.6-8.6,8.6,3.86,8.6,8.6-3.86,8.6-8.6,8.6Zm0-15.22c-3.65,0-6.62,2.97-6.62,6.62s2.97,6.62,6.62,6.62,6.62-2.97,6.62-6.62-2.97-6.62-6.62-6.62Z"/>
        </g>
        <g>
          <circle class="cls-1" cx="178.3" cy="117.21" r="5.5"/>
          <path class="cls-4" d="m178.3,123.7c-3.58,0-6.49-2.91-6.49-6.49s2.91-6.49,6.49-6.49,6.49,2.91,6.49,6.49-2.91,6.49-6.49,6.49Zm0-11c-2.48,0-4.51,2.02-4.51,4.51s2.02,4.5,4.51,4.5,4.51-2.02,4.51-4.5-2.02-4.51-4.51-4.51Z"/>
        </g>
        <g>
          <rect class="cls-2" x="170.73" y="45.64" width="13.9" height="13.9" rx="2.75" ry="2.75" transform="translate(44.55 -76.29) rotate(27.58)"/>
          <path class="cls-4" d="m179.45,62.01c-.6,0-1.19-.14-1.73-.43l-7.44-3.89c-1.83-.96-2.54-3.22-1.58-5.05l3.89-7.44c.96-1.83,3.22-2.54,5.05-1.59l7.44,3.89c.89.46,1.54,1.24,1.84,2.2.3.95.21,1.97-.25,2.85l-3.89,7.44c-.46.89-1.24,1.54-2.2,1.84-.37.12-.75.17-1.13.17Zm-3.55-16.84c-.64,0-1.25.34-1.56.95l-3.89,7.44c-.45.86-.12,1.93.75,2.38l7.44,3.89h0c.42.22.89.26,1.34.12.45-.14.82-.45,1.03-.86l3.89-7.44c.22-.42.26-.89.12-1.34-.14-.45-.45-.82-.86-1.03l-7.44-3.89c-.26-.14-.54-.2-.81-.2Z"/>
        </g>
        <g>
          <rect class="cls-6" x="94.28" y="161.41" width="7.41" height="7.41" rx="1.61" ry="1.61" transform="translate(-33.5 25.2) rotate(-12.53)"/>
          <path class="cls-4" d="m96.39,170.22c-.49,0-.97-.14-1.39-.41-.59-.37-.99-.95-1.14-1.63l-.91-4.1c-.15-.68-.03-1.38.34-1.96s.95-.99,1.63-1.14l4.1-.91c1.39-.31,2.79.57,3.1,1.97l.91,4.1c.15.68.03,1.37-.34,1.96-.37.59-.95.99-1.63,1.14l-4.1.91c-.19.04-.38.06-.57.06Zm3.19-8.22s-.09,0-.13.01l-4.1.91c-.16.04-.3.13-.39.27-.09.14-.12.3-.08.46l.91,4.1c.04.16.13.3.27.39.14.09.31.12.46.08l4.1-.91h0c.16-.04.3-.13.39-.27s.12-.3.08-.46l-.91-4.1c-.06-.29-.32-.48-.6-.48Z"/>
        </g>
        <g>
          <path class="cls-1" d="m135.65,168.82c-.3,1.37-1.51,2.4-2.97,2.41-1.41,0-4.17.31-6.77,2.3-2.82,2.16-3.79,5.07-4.08,6.23-.4,1.64-2.06,2.64-3.7,2.23-1.64-.4-2.62-2.07-2.23-3.7.55-2.21,2.09-6.4,6.3-9.62,4.02-3.07,8.27-3.54,10.45-3.55,1.69,0,3.06,1.36,3.07,3.04,0,.23-.02.45-.07.66Z"/>
          <path class="cls-4" d="m118.87,183.07c-.32,0-.65-.04-.97-.12-2.15-.53-3.48-2.73-2.96-4.89.58-2.35,2.21-6.78,6.66-10.18,4.25-3.25,8.75-3.75,11.05-3.75,1.11-.03,2.1.41,2.87,1.17s1.19,1.78,1.2,2.86c0,.29-.03.59-.09.87-.4,1.84-2.06,3.18-3.94,3.19-1.29,0-3.8.28-6.17,2.09-2.57,1.97-3.46,4.62-3.72,5.68-.46,1.84-2.11,3.08-3.93,3.08Zm13.8-16.96h0c-2.05,0-6.06.45-9.85,3.35-3.97,3.03-5.42,6.98-5.94,9.07-.26,1.1.41,2.23,1.51,2.5,1.1.27,2.22-.4,2.5-1.51.31-1.25,1.36-4.43,4.44-6.78,2.83-2.16,5.83-2.5,7.37-2.5.96,0,1.81-.69,2.01-1.62h0c.03-.15.05-.29.05-.45,0-.55-.22-1.07-.61-1.46-.39-.39-.9-.6-1.45-.6Z"/>
        </g>
        <g>
          <path class="cls-2" d="m43.98,115.52c-.31-1.23.05-2.59,1.05-3.49,1.44-1.3,3.67-1.19,4.97.26l9.64,10.71c1.3,1.44,1.19,3.67-.26,4.97-1.44,1.3-3.67,1.19-4.97-.26l-9.64-10.71c-.39-.44-.66-.95-.8-1.48Z"/>
          <path class="cls-4" d="m57.04,129.86c-.08,0-.16,0-.24,0-1.2-.06-2.31-.59-3.12-1.49l-9.65-10.71c-.49-.54-.84-1.2-1.02-1.9-.42-1.63.1-3.35,1.35-4.47.9-.81,2.05-1.21,3.25-1.15,1.2.06,2.31.59,3.12,1.49l9.65,10.71c.81.89,1.22,2.05,1.15,3.25-.06,1.21-.59,2.32-1.49,3.12-.84.75-1.9,1.16-3.02,1.16Zm-9.65-17.75c-.63,0-1.22.23-1.69.65-.7.63-.99,1.59-.76,2.51h0c.1.4.29.75.57,1.06l9.65,10.71c.45.5,1.07.8,1.75.83.67.03,1.32-.19,1.82-.65.5-.45.8-1.07.83-1.75.04-.67-.19-1.32-.65-1.82l-9.65-10.71c-.45-.5-1.07-.8-1.75-.83-.04,0-.09,0-.13,0Z"/>
        </g>
      </g>
    </g>
  </g>
</svg>