<?xml version="1.0" encoding="UTF-8"?>
<svg id="Layer_2" data-name="Layer 2" xmlns="http://www.w3.org/2000/svg" xmlns:xlink="http://www.w3.org/1999/xlink" viewBox="0 0 148 192.24">
  <defs>
    <style>
      .cls-1 {
        fill: #fff;
      }

      .cls-2 {
        fill: #95e0e6;
      }

      .cls-3 {
        fill: #565656;
      }

      .cls-4 {
        fill: #363636;
      }

      .cls-5 {
        fill: #33b0da;
      }

      .cls-6 {
        fill: #8dc05f;
      }

      .cls-7 {
        fill: #ffdfbc;
      }

      .cls-8 {
        fill: #ffd964;
      }

      .cls-9 {
        clip-path: url(#clippath);
      }

      .cls-10 {
        fill: #d5d5d5;
      }

      .cls-11 {
        fill: none;
      }

      .cls-12 {
        fill: #b9b9b9;
      }
    </style>
    <clipPath id="clippath">
      <path class="cls-11" d="m60.32,102.25c-2.53-2.2-1.04-4.41,1.17-6.15-2.85-7.26-3.3-12.42-4.79-18.12-1.98,1.29-3.76,2.73-4.82,3.63-.54.45-.71,1.21-.42,1.84.43.92.73,2.35-.54,3.68-1.36,1.42-3.75,2.81-5.48,4.48l4.82,6.7c-6.65,1.07-9.97,10.92-9.97,10.92-5.05-3.89-10.47-8.9-13.85-13.46-4.24-5.73-1.68-11.08.65-13.86s4.73-6.35,8.03-10.17,3.11-4.34,5.38-6.35,4.6-1.49,4.6-1.49c0,0,.13-.52,1.04-4.08s2.07-5.18,5.18-6.8,9.65-4.21,16.2-6.03l2.79-.77c2.07,3.11,6.1,6.02,11.34,6.15s9.61-3.16,11.73-5.17c4.11.14,9.67.77,10.75,2.67,1.08,1.9.41,4.02,2.21,4.56s5.04,1.43,5.04,1.43l-.02-.03c-.74-1.27-1.67-2.87-2.64-4.54,0,0,5.18-2.72,11.74-8.15,2.35.04,5.16.58,5.53,4.79.37,4.21.99,4.54,3.39,6.56,2.39,2.02,8.79,6.11,7.06,13.33s-8.09,8.67-13.87,9.29-12.54,2.06-15.14,3.83l.11,2.61c.3,7.23.56,13.08.61,14.6.11,2.97,3.06,7.16-5.3,10.68l-36.98,1.26-5.55-7.84Z"/>
    </clipPath>
  </defs>
  <g id="_背景ドット" data-name="背景ドット">
    <g>
      <path class="cls-1" d="m148,147.2c-.01-.38-.03-.76-.06-1.14-.25.07-.45.29-.45.56,0,.3.22.53.5.58Z"/>
      <path class="cls-1" d="m146.33,156.51c-.07-.03-.16-.05-.24-.05-.33,0-.59.27-.59.59,0,.25.15.46.36.55.17-.36.32-.72.47-1.09Z"/>
      <path class="cls-1" d="m142.07,142.55c-.33,0-.59.27-.59.59s.27.59.59.59.59-.27.59-.59-.27-.59-.59-.59Z"/>
      <path class="cls-1" d="m144.08,140.27c.33,0,.59-.27.59-.59s-.27-.59-.59-.59-.59.27-.59.59.27.59.59.59Z"/>
      <circle class="cls-1" cx="144.08" cy="146.62" r=".59"/>
      <path class="cls-1" d="m145.49,143.15c0,.33.27.59.59.59s.59-.27.59-.59-.27-.59-.59-.59-.59.27-.59.59Z"/>
      <circle class="cls-1" cx="144.08" cy="153.58" r=".59"/>
      <path class="cls-1" d="m146.09,150.69c.33,0,.59-.27.59-.59s-.27-.59-.59-.59-.59.27-.59.59.27.59.59.59Z"/>
      <path class="cls-1" d="m143.49,160.53c0,.25.15.46.37.55.22-.32.44-.64.64-.97-.11-.11-.25-.17-.42-.17-.33,0-.59.27-.59.59Z"/>
      <circle class="cls-1" cx="138.06" cy="136.2" r=".59"/>
      <path class="cls-1" d="m140.07,133.31c.33,0,.59-.27.59-.59s-.27-.59-.59-.59-.59.27-.59.59.27.59.59.59Z"/>
      <path class="cls-1" d="m138.06,142.55c-.33,0-.59.27-.59.59s.27.59.59.59.59-.27.59-.59-.27-.59-.59-.59Z"/>
      <path class="cls-1" d="m140.66,139.67c0-.33-.27-.59-.59-.59s-.59.27-.59.59.27.59.59.59.59-.27.59-.59Z"/>
      <path class="cls-1" d="m142.07,136.79c.33,0,.59-.27.59-.59s-.27-.59-.59-.59-.59.27-.59.59.27.59.59.59Z"/>
      <circle class="cls-1" cx="138.06" cy="150.1" r=".59"/>
      <path class="cls-1" d="m140.66,146.62c0-.33-.27-.59-.59-.59s-.59.27-.59.59.27.59.59.59.59-.27.59-.59Z"/>
      <circle class="cls-1" cx="138.06" cy="157.05" r=".59"/>
      <path class="cls-1" d="m139.47,153.58c0,.33.27.59.59.59s.59-.27.59-.59-.27-.59-.59-.59-.59.27-.59.59Z"/>
      <path class="cls-1" d="m142.07,150.69c.33,0,.59-.27.59-.59s-.27-.59-.59-.59-.59.27-.59.59.27.59.59.59Z"/>
      <path class="cls-1" d="m141.49,163.93c.16-.17.33-.33.48-.51-.26.04-.45.25-.48.51Z"/>
      <path class="cls-1" d="m138.06,163.41c-.33,0-.59.27-.59.59s.27.59.59.59.59-.27.59-.59-.27-.59-.59-.59Z"/>
      <path class="cls-1" d="m140.07,159.93c-.33,0-.59.27-.59.59s.27.59.59.59.59-.27.59-.59-.27-.59-.59-.59Z"/>
      <path class="cls-1" d="m142.07,157.64c.33,0,.59-.27.59-.59s-.27-.59-.59-.59-.59.27-.59.59.27.59.59.59Z"/>
      <path class="cls-1" d="m137.47,129.24c0,.33.27.59.59.59s.59-.27.59-.59c0-.01,0-.03,0-.04-.24-.18-.49-.35-.74-.52-.25.07-.44.29-.44.56Z"/>
      <path class="cls-1" d="m134.05,128.65c-.33,0-.59.27-.59.59s.27.59.59.59.59-.27.59-.59-.27-.59-.59-.59Z"/>
      <path class="cls-1" d="m134.05,135.6c-.33,0-.59.27-.59.59s.27.59.59.59.59-.27.59-.59-.27-.59-.59-.59Z"/>
      <circle class="cls-1" cx="136.05" cy="132.72" r=".59"/>
      <path class="cls-1" d="m134.05,142.55c-.33,0-.59.27-.59.59s.27.59.59.59.59-.27.59-.59-.27-.59-.59-.59Z"/>
      <path class="cls-1" d="m136.65,139.67c0-.33-.27-.59-.59-.59s-.59.27-.59.59.27.59.59.59.59-.27.59-.59Z"/>
      <path class="cls-1" d="m134.05,149.51c-.33,0-.59.27-.59.59s.27.59.59.59.59-.27.59-.59-.27-.59-.59-.59Z"/>
      <circle class="cls-1" cx="136.05" cy="146.62" r=".59"/>
      <path class="cls-1" d="m134.05,156.46c-.33,0-.59.27-.59.59s.27.59.59.59.59-.27.59-.59-.27-.59-.59-.59Z"/>
      <circle class="cls-1" cx="136.05" cy="153.58" r=".59"/>
      <path class="cls-1" d="m134.05,163.41c-.33,0-.59.27-.59.59s.27.59.59.59.59-.27.59-.59-.27-.59-.59-.59Z"/>
      <circle class="cls-1" cx="136.05" cy="160.53" r=".59"/>
      <path class="cls-1" d="m136.05,166.88c-.33,0-.59.27-.59.59s.27.59.59.59c.03,0,.06-.01.09-.02.12-.07.24-.14.37-.21.08-.1.14-.22.14-.37,0-.33-.27-.59-.59-.59Z"/>
      <circle class="cls-1" cx="130.03" cy="129.24" r=".59"/>
      <path class="cls-1" d="m132.04,126.36c.25,0,.47-.16.55-.38-.37-.13-.74-.25-1.11-.36-.01.05-.03.1-.03.15,0,.33.27.59.59.59Z"/>
      <circle class="cls-1" cx="130.03" cy="136.2" r=".59"/>
      <path class="cls-1" d="m132.63,132.72c0-.33-.27-.59-.59-.59s-.59.27-.59.59.27.59.59.59.59-.27.59-.59Z"/>
      <path class="cls-1" d="m130.03,142.55c-.33,0-.59.27-.59.59s.27.59.59.59.59-.27.59-.59-.27-.59-.59-.59Z"/>
      <path class="cls-1" d="m132.04,139.08c-.33,0-.59.27-.59.59s.27.59.59.59.59-.27.59-.59-.27-.59-.59-.59Z"/>
      <circle class="cls-1" cx="130.03" cy="150.1" r=".59"/>
      <path class="cls-1" d="m132.63,146.62c0-.33-.27-.59-.59-.59s-.59.27-.59.59.27.59.59.59.59-.27.59-.59Z"/>
      <circle class="cls-1" cx="130.03" cy="157.05" r=".59"/>
      <path class="cls-1" d="m131.45,153.58c0,.33.27.59.59.59s.59-.27.59-.59-.27-.59-.59-.59-.59.27-.59.59Z"/>
      <path class="cls-1" d="m130.03,163.41c-.33,0-.59.27-.59.59s.27.59.59.59.59-.27.59-.59-.27-.59-.59-.59Z"/>
      <path class="cls-1" d="m131.45,160.53c0,.33.27.59.59.59s.59-.27.59-.59-.27-.59-.59-.59-.59.27-.59.59Z"/>
      <path class="cls-1" d="m131.45,167.48c0,.33.27.59.59.59s.59-.27.59-.59-.27-.59-.59-.59-.59.27-.59.59Z"/>
      <path class="cls-1" d="m126.02,128.65c-.33,0-.59.27-.59.59s.27.59.59.59.59-.27.59-.59-.27-.59-.59-.59Z"/>
      <path class="cls-1" d="m128.62,125.77c0-.33-.27-.59-.59-.59s-.59.27-.59.59.27.59.59.59.59-.27.59-.59Z"/>
      <path class="cls-1" d="m126.02,135.6c-.33,0-.59.27-.59.59s.27.59.59.59.59-.27.59-.59-.27-.59-.59-.59Z"/>
      <path class="cls-1" d="m128.62,132.72c0-.33-.27-.59-.59-.59s-.59.27-.59.59.27.59.59.59.59-.27.59-.59Z"/>
      <path class="cls-1" d="m126.02,142.55c-.33,0-.59.27-.59.59s.27.59.59.59.59-.27.59-.59-.27-.59-.59-.59Z"/>
      <path class="cls-1" d="m128.62,139.67c0-.33-.27-.59-.59-.59s-.59.27-.59.59.27.59.59.59.59-.27.59-.59Z"/>
      <path class="cls-1" d="m128.03,146.03c-.33,0-.59.27-.59.59s.27.59.59.59.59-.27.59-.59-.27-.59-.59-.59Z"/>
      <path class="cls-1" d="m127.43,153.58c0,.33.27.59.59.59s.59-.27.59-.59-.27-.59-.59-.59-.59.27-.59.59Z"/>
      <path class="cls-1" d="m127.43,160.53c0,.33.27.59.59.59s.59-.27.59-.59-.27-.59-.59-.59-.59.27-.59.59Z"/>
      <path class="cls-1" d="m129.69,170.49c.15-.03.3-.07.45-.1-.03,0-.07-.02-.1-.02-.13,0-.25.05-.35.12Z"/>
      <path class="cls-1" d="m127.43,167.48c0,.33.27.59.59.59s.59-.27.59-.59-.27-.59-.59-.59-.59.27-.59.59Z"/>
      <path class="cls-1" d="m126.61,170.92c-.02-.31-.27-.56-.59-.56s-.59.27-.59.59c0,0,0,.02,0,.03.39,0,.79-.03,1.18-.06Z"/>
      <circle class="cls-1" cx="122.01" cy="129.24" r=".59"/>
      <circle class="cls-1" cx="124.01" cy="125.77" r=".59"/>
      <circle class="cls-1" cx="122.01" cy="136.2" r=".59"/>
      <circle class="cls-1" cx="124.01" cy="132.72" r=".59"/>
      <path class="cls-1" d="m122.01,142.55c-.33,0-.59.27-.59.59s.27.59.59.59.59-.27.59-.59-.27-.59-.59-.59Z"/>
      <path class="cls-1" d="m124.61,139.67c0-.33-.27-.59-.59-.59s-.59.27-.59.59.27.59.59.59.59-.27.59-.59Z"/>
      <circle class="cls-1" cx="124.01" cy="146.62" r=".59"/>
      <circle class="cls-1" cx="122.01" cy="157.05" r=".59"/>
      <circle class="cls-1" cx="124.01" cy="153.58" r=".59"/>
      <path class="cls-1" d="m126.02,150.69c.33,0,.59-.27.59-.59s-.27-.59-.59-.59-.59.27-.59.59.27.59.59.59Z"/>
      <path class="cls-1" d="m122.01,163.41c-.33,0-.59.27-.59.59s.27.59.59.59.59-.27.59-.59-.27-.59-.59-.59Z"/>
      <circle class="cls-1" cx="124.01" cy="160.53" r=".59"/>
      <path class="cls-1" d="m126.02,157.64c.33,0,.59-.27.59-.59s-.27-.59-.59-.59-.59.27-.59.59.27.59.59.59Z"/>
      <path class="cls-1" d="m122.01,170.36c-.25,0-.47.16-.55.38.37.05.75.1,1.13.14-.04-.29-.28-.52-.58-.52Z"/>
      <path class="cls-1" d="m124.01,168.07c.33,0,.59-.27.59-.59s-.27-.59-.59-.59-.59.27-.59.59.27.59.59.59Z"/>
      <path class="cls-1" d="m126.02,164.6c.33,0,.59-.27.59-.59s-.27-.59-.59-.59-.59.27-.59.59.27.59.59.59Z"/>
      <path class="cls-1" d="m117.99,128.65c-.33,0-.59.27-.59.59s.27.59.59.59.59-.27.59-.59-.27-.59-.59-.59Z"/>
      <path class="cls-1" d="m120.59,125.77c0-.33-.27-.59-.59-.59s-.59.27-.59.59.27.59.59.59.59-.27.59-.59Z"/>
      <path class="cls-1" d="m117.99,135.6c-.33,0-.59.27-.59.59s.27.59.59.59.59-.27.59-.59-.27-.59-.59-.59Z"/>
      <path class="cls-1" d="m120.59,132.72c0-.33-.27-.59-.59-.59s-.59.27-.59.59.27.59.59.59.59-.27.59-.59Z"/>
      <path class="cls-1" d="m120.59,139.67c0-.33-.27-.59-.59-.59s-.59.27-.59.59.27.59.59.59.59-.27.59-.59Z"/>
      <path class="cls-1" d="m117.99,149.51c-.33,0-.59.27-.59.59s.27.59.59.59.59-.27.59-.59-.27-.59-.59-.59Z"/>
      <path class="cls-1" d="m120,147.22c.33,0,.59-.27.59-.59s-.27-.59-.59-.59-.59.27-.59.59.27.59.59.59Z"/>
      <path class="cls-1" d="m117.99,156.46c-.33,0-.59.27-.59.59s.27.59.59.59.59-.27.59-.59-.27-.59-.59-.59Z"/>
      <path class="cls-1" d="m119.4,153.58c0,.33.27.59.59.59s.59-.27.59-.59-.27-.59-.59-.59-.59.27-.59.59Z"/>
      <circle class="cls-1" cx="122.01" cy="150.1" r=".59"/>
      <path class="cls-1" d="m117.99,163.41c-.33,0-.59.27-.59.59s.27.59.59.59.59-.27.59-.59-.27-.59-.59-.59Z"/>
      <path class="cls-1" d="m119.4,160.53c0,.33.27.59.59.59s.59-.27.59-.59-.27-.59-.59-.59-.59.27-.59.59Z"/>
      <path class="cls-1" d="m119.4,167.48c0,.33.27.59.59.59s.59-.27.59-.59-.27-.59-.59-.59-.59.27-.59.59Z"/>
      <path class="cls-1" d="m113.98,128.65c-.33,0-.59.27-.59.59s.27.59.59.59.59-.27.59-.59-.27-.59-.59-.59Z"/>
      <circle class="cls-1" cx="115.98" cy="132.72" r=".59"/>
      <path class="cls-1" d="m113.98,142.55c-.33,0-.59.27-.59.59s.27.59.59.59.59-.27.59-.59-.27-.59-.59-.59Z"/>
      <path class="cls-1" d="m115.98,140.27c.33,0,.59-.27.59-.59s-.27-.59-.59-.59-.59.27-.59.59.27.59.59.59Z"/>
      <path class="cls-1" d="m113.98,149.51c-.33,0-.59.27-.59.59s.27.59.59.59.59-.27.59-.59-.27-.59-.59-.59Z"/>
      <circle class="cls-1" cx="115.98" cy="146.62" r=".59"/>
      <path class="cls-1" d="m117.99,143.74c.33,0,.59-.27.59-.59s-.27-.59-.59-.59-.59.27-.59.59.27.59.59.59Z"/>
      <path class="cls-1" d="m113.98,156.46c-.33,0-.59.27-.59.59s.27.59.59.59.59-.27.59-.59-.27-.59-.59-.59Z"/>
      <circle class="cls-1" cx="115.98" cy="153.58" r=".59"/>
      <path class="cls-1" d="m113.98,163.41c-.33,0-.59.27-.59.59s.27.59.59.59.59-.27.59-.59-.27-.59-.59-.59Z"/>
      <circle class="cls-1" cx="115.98" cy="160.53" r=".59"/>
      <path class="cls-1" d="m115.39,167.48c0,.33.27.59.59.59s.59-.27.59-.59-.27-.59-.59-.59-.59.27-.59.59Z"/>
      <circle class="cls-1" cx="109.96" cy="136.2" r=".59"/>
      <circle class="cls-1" cx="111.97" cy="132.72" r=".59"/>
      <path class="cls-1" d="m109.96,142.55c-.33,0-.59.27-.59.59s.27.59.59.59.59-.27.59-.59-.27-.59-.59-.59Z"/>
      <path class="cls-1" d="m112.56,139.67c0-.33-.27-.59-.59-.59s-.59.27-.59.59.27.59.59.59.59-.27.59-.59Z"/>
      <path class="cls-1" d="m113.98,136.79c.33,0,.59-.27.59-.59s-.27-.59-.59-.59-.59.27-.59.59.27.59.59.59Z"/>
      <circle class="cls-1" cx="109.96" cy="150.1" r=".59"/>
      <circle class="cls-1" cx="111.97" cy="146.62" r=".59"/>
      <circle class="cls-1" cx="109.96" cy="157.05" r=".59"/>
      <circle class="cls-1" cx="111.97" cy="153.58" r=".59"/>
      <path class="cls-1" d="m109.96,163.41c-.33,0-.59.27-.59.59s.27.59.59.59.59-.27.59-.59-.27-.59-.59-.59Z"/>
      <circle class="cls-1" cx="111.97" cy="160.53" r=".59"/>
      <path class="cls-1" d="m111.97,166.88c-.08,0-.16.02-.23.05.27.19.54.36.82.54,0-.32-.27-.58-.59-.58Z"/>
      <path class="cls-1" d="m107.96,133.31c.33,0,.59-.27.59-.59s-.27-.59-.59-.59c-.07,0-.13.02-.19.04-.13.14-.25.28-.38.43,0,.04-.03.08-.03.13,0,.33.27.59.59.59Z"/>
      <path class="cls-1" d="m107.96,139.08c-.33,0-.59.27-.59.59s.27.59.59.59.59-.27.59-.59-.27-.59-.59-.59Z"/>
      <circle class="cls-1" cx="105.95" cy="150.1" r=".59"/>
      <circle class="cls-1" cx="107.96" cy="146.62" r=".59"/>
      <circle class="cls-1" cx="105.95" cy="157.05" r=".59"/>
      <circle class="cls-1" cx="107.96" cy="153.58" r=".59"/>
      <circle class="cls-1" cx="107.96" cy="160.53" r=".59"/>
      <path class="cls-1" d="m103.94,139.08c-.33,0-.59.27-.59.59s.27.59.59.59.59-.27.59-.59-.27-.59-.59-.59Z"/>
      <circle class="cls-1" cx="105.95" cy="136.2" r=".59"/>
      <path class="cls-1" d="m104.54,146.62c0-.33-.27-.59-.59-.59s-.59.27-.59.59.27.59.59.59.59-.27.59-.59Z"/>
      <path class="cls-1" d="m105.95,143.74c.33,0,.59-.27.59-.59s-.27-.59-.59-.59-.59.27-.59.59.27.59.59.59Z"/>
      <path class="cls-1" d="m102.04,143.72c.28-.05.49-.28.49-.57,0-.21-.11-.38-.27-.49-.08.35-.15.7-.21,1.06Z"/>
      <path class="cls-1" d="m104.54,153.58c0-.33-.27-.59-.59-.59s-.59.27-.59.59.27.59.59.59.59-.27.59-.59Z"/>
      <path class="cls-1" d="m101.94,150.69c.33,0,.59-.27.59-.59s-.27-.59-.59-.59c-.07,0-.13.02-.19.04.03.38.06.76.11,1.13.03,0,.05.02.08.02Z"/>
    </g>
    <g>
      <path class="cls-1" d="m49.76,66.08c-.33,0-.59.27-.59.59s.27.59.59.59c.13,0,.24-.05.34-.12.03-.3.06-.59.09-.89-.11-.11-.26-.18-.42-.18Z"/>
      <path class="cls-1" d="m45.75,59.13c-.33,0-.59.27-.59.59s.27.59.59.59.59-.27.59-.59-.27-.59-.59-.59Z"/>
      <circle class="cls-1" cx="47.75" cy="56.25" r=".59"/>
      <path class="cls-1" d="m45.75,66.08c-.33,0-.59.27-.59.59s.27.59.59.59.59-.27.59-.59-.27-.59-.59-.59Z"/>
      <path class="cls-1" d="m48.35,63.2c0-.33-.27-.59-.59-.59s-.59.27-.59.59.27.59.59.59.59-.27.59-.59Z"/>
      <path class="cls-1" d="m49.76,60.32c.07,0,.14-.02.2-.04-.06-.38-.13-.77-.21-1.15-.33,0-.59.27-.59.59s.27.59.59.59Z"/>
      <path class="cls-1" d="m45.75,73.04c-.33,0-.59.27-.59.59s.27.59.59.59.59-.27.59-.59-.27-.59-.59-.59Z"/>
      <circle class="cls-1" cx="47.75" cy="70.15" r=".59"/>
      <circle class="cls-1" cx="41.73" cy="52.77" r=".59"/>
      <circle class="cls-1" cx="43.74" cy="49.3" r=".59"/>
      <circle class="cls-1" cx="41.73" cy="59.73" r=".59"/>
      <circle class="cls-1" cx="43.74" cy="56.25" r=".59"/>
      <path class="cls-1" d="m45.75,53.37c.33,0,.59-.27.59-.59s-.27-.59-.59-.59-.59.27-.59.59.27.59.59.59Z"/>
      <path class="cls-1" d="m41.73,66.08c-.33,0-.59.27-.59.59s.27.59.59.59.59-.27.59-.59-.27-.59-.59-.59Z"/>
      <path class="cls-1" d="m44.33,63.2c0-.33-.27-.59-.59-.59s-.59.27-.59.59.27.59.59.59.59-.27.59-.59Z"/>
      <circle class="cls-1" cx="41.73" cy="73.63" r=".59"/>
      <circle class="cls-1" cx="43.74" cy="70.15" r=".59"/>
      <circle class="cls-1" cx="41.73" cy="80.58" r=".59"/>
      <circle class="cls-1" cx="43.74" cy="77.11" r=".59"/>
      <path class="cls-1" d="m41.14,45.82c0,.33.27.59.59.59.31,0,.56-.24.58-.55-.23-.21-.46-.42-.69-.62-.28.05-.49.28-.49.57Z"/>
      <circle class="cls-1" cx="37.72" cy="45.82" r=".59"/>
      <circle class="cls-1" cx="37.72" cy="52.77" r=".59"/>
      <circle class="cls-1" cx="39.73" cy="49.3" r=".59"/>
      <circle class="cls-1" cx="37.72" cy="59.73" r=".59"/>
      <circle class="cls-1" cx="39.73" cy="56.25" r=".59"/>
      <path class="cls-1" d="m40.32,63.2c0-.33-.27-.59-.59-.59s-.59.27-.59.59.27.59.59.59.59-.27.59-.59Z"/>
      <circle class="cls-1" cx="39.73" cy="70.15" r=".59"/>
      <circle class="cls-1" cx="39.73" cy="77.11" r=".59"/>
      <path class="cls-1" d="m39.73,83.46c-.33,0-.59.27-.59.59s.27.59.59.59c.02,0,.04,0,.06-.01.16-.12.33-.24.49-.36.03-.07.05-.14.05-.22,0-.33-.27-.59-.59-.59Z"/>
      <circle class="cls-1" cx="33.71" cy="45.82" r=".59"/>
      <path class="cls-1" d="m36.31,42.35c0-.33-.27-.59-.59-.59s-.59.27-.59.59.27.59.59.59.59-.27.59-.59Z"/>
      <circle class="cls-1" cx="33.71" cy="52.77" r=".59"/>
      <path class="cls-1" d="m36.31,49.3c0-.33-.27-.59-.59-.59s-.59.27-.59.59.27.59.59.59.59-.27.59-.59Z"/>
      <circle class="cls-1" cx="33.71" cy="59.73" r=".59"/>
      <path class="cls-1" d="m35.71,55.66c-.33,0-.59.27-.59.59s.27.59.59.59.59-.27.59-.59-.27-.59-.59-.59Z"/>
      <path class="cls-1" d="m33.71,66.08c-.33,0-.59.27-.59.59s.27.59.59.59.59-.27.59-.59-.27-.59-.59-.59Z"/>
      <path class="cls-1" d="m36.31,63.2c0-.33-.27-.59-.59-.59s-.59.27-.59.59.27.59.59.59.59-.27.59-.59Z"/>
      <circle class="cls-1" cx="33.71" cy="73.63" r=".59"/>
      <path class="cls-1" d="m35.12,70.15c0,.33.27.59.59.59s.59-.27.59-.59-.27-.59-.59-.59-.59.27-.59.59Z"/>
      <path class="cls-1" d="m37.72,67.27c.33,0,.59-.27.59-.59s-.27-.59-.59-.59-.59.27-.59.59.27.59.59.59Z"/>
      <circle class="cls-1" cx="33.71" cy="80.58" r=".59"/>
      <path class="cls-1" d="m35.12,77.11c0,.33.27.59.59.59s.59-.27.59-.59-.27-.59-.59-.59-.59.27-.59.59Z"/>
      <circle class="cls-1" cx="37.72" cy="73.63" r=".59"/>
      <path class="cls-1" d="m35.71,84.65c.33,0,.59-.27.59-.59s-.27-.59-.59-.59-.59.27-.59.59.27.59.59.59Z"/>
      <circle class="cls-1" cx="37.72" cy="80.58" r=".59"/>
      <path class="cls-1" d="m33.71,86.94c-.33,0-.59.27-.59.59,0,.18.09.34.22.45.32-.11.64-.23.95-.35,0-.03.02-.06.02-.1,0-.33-.27-.59-.59-.59Z"/>
      <circle class="cls-1" cx="29.69" cy="45.82" r=".59"/>
      <path class="cls-1" d="m32.29,42.35c0-.33-.27-.59-.59-.59s-.59.27-.59.59.27.59.59.59.59-.27.59-.59Z"/>
      <circle class="cls-1" cx="29.69" cy="52.77" r=".59"/>
      <path class="cls-1" d="m32.29,49.3c0-.33-.27-.59-.59-.59s-.59.27-.59.59.27.59.59.59.59-.27.59-.59Z"/>
      <circle class="cls-1" cx="29.69" cy="59.73" r=".59"/>
      <path class="cls-1" d="m32.29,56.25c0-.33-.27-.59-.59-.59s-.59.27-.59.59.27.59.59.59.59-.27.59-.59Z"/>
      <path class="cls-1" d="m29.69,66.08c-.33,0-.59.27-.59.59s.27.59.59.59.59-.27.59-.59-.27-.59-.59-.59Z"/>
      <path class="cls-1" d="m31.7,62.61c-.33,0-.59.27-.59.59s.27.59.59.59.59-.27.59-.59-.27-.59-.59-.59Z"/>
      <circle class="cls-1" cx="29.69" cy="73.63" r=".59"/>
      <path class="cls-1" d="m31.11,70.15c0,.33.27.59.59.59s.59-.27.59-.59-.27-.59-.59-.59-.59.27-.59.59Z"/>
      <circle class="cls-1" cx="29.69" cy="80.58" r=".59"/>
      <path class="cls-1" d="m31.11,77.11c0,.33.27.59.59.59s.59-.27.59-.59-.27-.59-.59-.59-.59.27-.59.59Z"/>
      <path class="cls-1" d="m29.69,86.94c-.33,0-.59.27-.59.59s.27.59.59.59.59-.27.59-.59-.27-.59-.59-.59Z"/>
      <path class="cls-1" d="m31.11,84.06c0,.33.27.59.59.59s.59-.27.59-.59-.27-.59-.59-.59-.59.27-.59.59Z"/>
      <circle class="cls-1" cx="25.68" cy="45.82" r=".59"/>
      <path class="cls-1" d="m28.28,42.35c0-.33-.27-.59-.59-.59s-.59.27-.59.59.27.59.59.59.59-.27.59-.59Z"/>
      <circle class="cls-1" cx="25.68" cy="52.77" r=".59"/>
      <path class="cls-1" d="m28.28,49.3c0-.33-.27-.59-.59-.59s-.59.27-.59.59.27.59.59.59.59-.27.59-.59Z"/>
      <circle class="cls-1" cx="25.68" cy="59.73" r=".59"/>
      <path class="cls-1" d="m28.28,56.25c0-.33-.27-.59-.59-.59s-.59.27-.59.59.27.59.59.59.59-.27.59-.59Z"/>
      <path class="cls-1" d="m25.68,66.08c-.33,0-.59.27-.59.59s.27.59.59.59.59-.27.59-.59-.27-.59-.59-.59Z"/>
      <path class="cls-1" d="m28.28,63.2c0-.33-.27-.59-.59-.59s-.59.27-.59.59.27.59.59.59.59-.27.59-.59Z"/>
      <circle class="cls-1" cx="25.68" cy="73.63" r=".59"/>
      <path class="cls-1" d="m27.09,70.15c0,.33.27.59.59.59s.59-.27.59-.59-.27-.59-.59-.59-.59.27-.59.59Z"/>
      <circle class="cls-1" cx="25.68" cy="80.58" r=".59"/>
      <path class="cls-1" d="m27.09,77.11c0,.33.27.59.59.59s.59-.27.59-.59-.27-.59-.59-.59-.59.27-.59.59Z"/>
      <path class="cls-1" d="m25.68,86.94c-.33,0-.59.27-.59.59s.27.59.59.59.59-.27.59-.59-.27-.59-.59-.59Z"/>
      <path class="cls-1" d="m27.09,84.06c0,.33.27.59.59.59s.59-.27.59-.59-.27-.59-.59-.59-.59.27-.59.59Z"/>
      <circle class="cls-1" cx="21.67" cy="45.82" r=".59"/>
      <circle class="cls-1" cx="23.67" cy="42.35" r=".59"/>
      <path class="cls-1" d="m25.13,39.07s0,0,0,0c.08.23.3.39.55.39s.46-.15.55-.37c-.36-.02-.73-.03-1.1-.03Z"/>
      <circle class="cls-1" cx="21.67" cy="52.77" r=".59"/>
      <circle class="cls-1" cx="23.67" cy="49.3" r=".59"/>
      <circle class="cls-1" cx="21.67" cy="59.73" r=".59"/>
      <circle class="cls-1" cx="23.67" cy="56.25" r=".59"/>
      <path class="cls-1" d="m21.67,66.08c-.33,0-.59.27-.59.59s.27.59.59.59.59-.27.59-.59-.27-.59-.59-.59Z"/>
      <path class="cls-1" d="m24.27,63.2c0-.33-.27-.59-.59-.59s-.59.27-.59.59.27.59.59.59.59-.27.59-.59Z"/>
      <circle class="cls-1" cx="21.67" cy="73.63" r=".59"/>
      <circle class="cls-1" cx="23.67" cy="70.15" r=".59"/>
      <circle class="cls-1" cx="21.67" cy="80.58" r=".59"/>
      <circle class="cls-1" cx="23.67" cy="77.11" r=".59"/>
      <path class="cls-1" d="m21.67,86.94c-.33,0-.59.27-.59.59s.27.59.59.59.59-.27.59-.59-.27-.59-.59-.59Z"/>
      <circle class="cls-1" cx="23.67" cy="84.06" r=".59"/>
      <path class="cls-1" d="m17.65,45.23c-.33,0-.59.27-.59.59s.27.59.59.59.59-.27.59-.59-.27-.59-.59-.59Z"/>
      <circle class="cls-1" cx="19.66" cy="42.35" r=".59"/>
      <path class="cls-1" d="m21.34,39.35c.09.06.2.11.33.11.18,0,.33-.08.44-.21-.26.03-.51.06-.77.1Z"/>
      <path class="cls-1" d="m17.65,52.18c-.33,0-.59.27-.59.59s.27.59.59.59.59-.27.59-.59-.27-.59-.59-.59Z"/>
      <circle class="cls-1" cx="19.66" cy="49.3" r=".59"/>
      <path class="cls-1" d="m17.65,59.13c-.33,0-.59.27-.59.59s.27.59.59.59.59-.27.59-.59-.27-.59-.59-.59Z"/>
      <circle class="cls-1" cx="19.66" cy="56.25" r=".59"/>
      <path class="cls-1" d="m17.65,66.08c-.33,0-.59.27-.59.59s.27.59.59.59.59-.27.59-.59-.27-.59-.59-.59Z"/>
      <path class="cls-1" d="m20.25,63.2c0-.33-.27-.59-.59-.59s-.59.27-.59.59.27.59.59.59.59-.27.59-.59Z"/>
      <path class="cls-1" d="m17.65,73.04c-.33,0-.59.27-.59.59s.27.59.59.59.59-.27.59-.59-.27-.59-.59-.59Z"/>
      <circle class="cls-1" cx="19.66" cy="70.15" r=".59"/>
      <path class="cls-1" d="m17.65,79.99c-.33,0-.59.27-.59.59s.27.59.59.59.59-.27.59-.59-.27-.59-.59-.59Z"/>
      <circle class="cls-1" cx="19.66" cy="77.11" r=".59"/>
      <path class="cls-1" d="m17.65,86.94c-.33,0-.59.27-.59.59s.27.59.59.59.59-.27.59-.59-.27-.59-.59-.59Z"/>
      <circle class="cls-1" cx="19.66" cy="84.06" r=".59"/>
      <path class="cls-1" d="m13.64,45.23c-.33,0-.59.27-.59.59s.27.59.59.59.59-.27.59-.59-.27-.59-.59-.59Z"/>
      <circle class="cls-1" cx="15.64" cy="42.35" r=".59"/>
      <path class="cls-1" d="m13.64,52.18c-.33,0-.59.27-.59.59s.27.59.59.59.59-.27.59-.59-.27-.59-.59-.59Z"/>
      <circle class="cls-1" cx="15.64" cy="49.3" r=".59"/>
      <path class="cls-1" d="m13.64,59.13c-.33,0-.59.27-.59.59s.27.59.59.59.59-.27.59-.59-.27-.59-.59-.59Z"/>
      <circle class="cls-1" cx="15.64" cy="56.25" r=".59"/>
      <path class="cls-1" d="m13.64,66.08c-.33,0-.59.27-.59.59s.27.59.59.59.59-.27.59-.59-.27-.59-.59-.59Z"/>
      <path class="cls-1" d="m16.24,63.2c0-.33-.27-.59-.59-.59s-.59.27-.59.59.27.59.59.59.59-.27.59-.59Z"/>
      <path class="cls-1" d="m13.64,73.04c-.33,0-.59.27-.59.59s.27.59.59.59.59-.27.59-.59-.27-.59-.59-.59Z"/>
      <circle class="cls-1" cx="15.64" cy="70.15" r=".59"/>
      <path class="cls-1" d="m13.64,79.99c-.33,0-.59.27-.59.59s.27.59.59.59.59-.27.59-.59-.27-.59-.59-.59Z"/>
      <circle class="cls-1" cx="15.64" cy="77.11" r=".59"/>
      <circle class="cls-1" cx="15.64" cy="84.06" r=".59"/>
      <path class="cls-1" d="m9.62,45.23c-.33,0-.59.27-.59.59s.27.59.59.59.59-.27.59-.59-.27-.59-.59-.59Z"/>
      <path class="cls-1" d="m12.09,42.71c-.1.06-.21.13-.31.2.13-.03.23-.1.31-.2Z"/>
      <path class="cls-1" d="m9.62,52.18c-.33,0-.59.27-.59.59s.27.59.59.59.59-.27.59-.59-.27-.59-.59-.59Z"/>
      <circle class="cls-1" cx="11.63" cy="49.3" r=".59"/>
      <path class="cls-1" d="m9.62,59.13c-.33,0-.59.27-.59.59s.27.59.59.59.59-.27.59-.59-.27-.59-.59-.59Z"/>
      <circle class="cls-1" cx="11.63" cy="56.25" r=".59"/>
      <path class="cls-1" d="m12.22,63.2c0-.33-.27-.59-.59-.59s-.59.27-.59.59.27.59.59.59.59-.27.59-.59Z"/>
      <path class="cls-1" d="m9.62,73.04c-.33,0-.59.27-.59.59s.27.59.59.59.59-.27.59-.59-.27-.59-.59-.59Z"/>
      <circle class="cls-1" cx="11.63" cy="70.15" r=".59"/>
      <path class="cls-1" d="m9.62,79.99c-.33,0-.59.27-.59.59s.27.59.59.59.59-.27.59-.59-.27-.59-.59-.59Z"/>
      <circle class="cls-1" cx="11.63" cy="77.11" r=".59"/>
      <circle class="cls-1" cx="11.63" cy="84.06" r=".59"/>
      <circle class="cls-1" cx="5.61" cy="52.77" r=".59"/>
      <circle class="cls-1" cx="7.62" cy="49.3" r=".59"/>
      <circle class="cls-1" cx="7.62" cy="56.25" r=".59"/>
      <path class="cls-1" d="m7.62,63.8c.33,0,.59-.27.59-.59s-.27-.59-.59-.59-.59.27-.59.59.27.59.59.59Z"/>
      <circle class="cls-1" cx="7.62" cy="70.15" r=".59"/>
      <path class="cls-1" d="m9.62,67.27c.33,0,.59-.27.59-.59s-.27-.59-.59-.59-.59.27-.59.59.27.59.59.59Z"/>
      <circle class="cls-1" cx="7.62" cy="77.11" r=".59"/>
      <circle class="cls-1" cx="5.61" cy="73.63" r=".59"/>
      <path class="cls-1" d="m5.61,79.99s-.03,0-.05,0c.2.25.4.49.61.73.01-.05.03-.09.03-.14,0-.33-.27-.59-.59-.59Z"/>
      <circle class="cls-1" cx="1.6" cy="59.73" r=".59"/>
      <circle class="cls-1" cx="3.6" cy="56.25" r=".59"/>
      <path class="cls-1" d="m4.2,63.2c0-.33-.27-.59-.59-.59s-.59.27-.59.59.27.59.59.59.59-.27.59-.59Z"/>
      <circle class="cls-1" cx="5.61" cy="59.73" r=".59"/>
      <circle class="cls-1" cx="3.6" cy="70.15" r=".59"/>
      <path class="cls-1" d="m5.61,67.27c.33,0,.59-.27.59-.59s-.27-.59-.59-.59-.59.27-.59.59.27.59.59.59Z"/>
      <path class="cls-1" d="m1.6,67.27c.33,0,.59-.27.59-.59s-.27-.59-.59-.59-.59.27-.59.59.27.59.59.59Z"/>
      <path class="cls-1" d="m4.2,77.11c0-.33-.27-.59-.59-.59-.13,0-.24.05-.34.12.19.34.39.67.6,1,.19-.1.33-.29.33-.52Z"/>
      <path class="cls-1" d="m2.19,73.63c0-.33-.27-.59-.59-.59,0,0,0,0-.02,0,.13.35.26.69.41,1.03.12-.11.2-.26.2-.44Z"/>
      <path class="cls-1" d="m.03,62.81c-.02.27-.02.55-.03.82.11-.11.18-.26.18-.43,0-.15-.06-.29-.16-.4Z"/>
    </g>
  </g>
  <g id="_人物" data-name="人物">
    <g>
      <g>
        <path class="cls-7" d="m111.04,27.25c.02-.94.19-1.87.49-2.77.35-1.05.74-2.32.68-3.53-.07-1.55-2.36-3.09-4.73-4.22-.6-.29-1.33-.11-1.73.43h0c-.46.63-.32,1.51.31,1.97.63.45,1.3.94,1.84,1.34.74.55,1.01,1.54.62,2.38-.06.13-.12.25-.19.38-.26.49-.93.57-1.32.19-.69-.67-1.73-1.63-2.45-2.08-.58-.37-1.03-.47-1.48-.37-3.27-1.8-4.08.5-4.08.5l-1.72-.7c.62-8.37-3.42-12.47-5.47-13.13.04-1.78-.21-3.26-1.57-5.28.79,1.22,1.16,2.29,1.33,3.12.18.88-.59,1.65-1.46,1.45-.43-.1-.75-.42-.9-.83-1.52-4.25-5.78-5.23-5.78-5.23.74,1.07,1.44,3.47,1.44,3.47,0,0-3.84-2.39-6.94-2.48,2.24.5,5.24,2.14,5.84,2.91-5.18-1.19-9.47.23-12.35,4.48-2.6,3.85-2.46,8.38-2.31,12.49h0c-2.26-.09-4.81,1.84-4.39,4.98.41,3.14,3.38,4.15,5.18,4.1.47,2.32,1.2,4.46,2.32,6.01.68.95,1.44,1.7,2.27,2.3h-.03s-.19,3.13-.19,3.13c-.07,1.18.48,2.32,1.47,2.95.87.56,1.86,1.02,2.6,1.34.76.32,1.36.92,1.69,1.67l1.6,3.53c.39-.98.83-2.13,1.56-3.19.73-1.07,1.03-1.26,3.86-3.13,2.83-1.87,2.35-2.29,1.32-2.77l.09-3.35c1.16-.8,2.19-1.9,3.14-3.41,1.01-1.6,1.81-3.89,2.37-6.41.8,1.71,1.65,3.62,2.42,5.2.87,1.76,2.61,3.8,5.73,4.51,1.24.28,1.94.68,2.58,1.23l6.93-4.52c-.5-3.65-.64-6.45-.6-8.63Zm-11.38,3.1c-.38.14-.8-.02-1.02-.36-.93-1.49-1.72-2.72-2.33-3.67l.46-.62c.1,2.4,2.23,1.55,2.23,1.55.38.57.8,1.33,1.12,1.91.25.46.03,1.03-.47,1.2Z"/>
        <path class="cls-1" d="m120.46,43.13c-1.29-1.59-4.33-5.25-5.89-7.14-.58-.7-1.56-.87-2.36-.44-2.36,1.29-5.3,3.18-7.8,5.06-.77.58-.98,1.63-.49,2.46,1.07,1.83,3,5.13,4.8,8.21,0,0,8.48-4.73,11.74-8.15Z"/>
        <path class="cls-1" d="m74.18,40.4c-.47.17-.95.46-1.33.72-.5.34-.89.83-1.11,1.39l-1.44,3.71c2.07,3.11,6.1,6.02,11.34,6.15s9.61-3.16,11.73-5.17l-3.54-4.71-1.43-.76.31,2.03s-2.78,2.18-4.33,3.23-2.74,4.3-2.74,4.3c0,0-1.21-3.46-2.25-4.11s-4.44-1.59-4.78-3.26-.43-3.52-.43-3.52Z"/>
        <path class="cls-1" d="m50.26,98.32c2.29,3.05,6.24,5.94,6.24,5.94-4.9,2.73-7.05,7-7.05,7l1.71,2.18c-.39.3-.8.58-1.24.84-.68.4-1.53.39-2.22,0-2.07-1.18-4.61-2.9-7.25-4.92,0,0,1.54-8.97,9.8-11.05Z"/>
        <path class="cls-1" d="m78.48,20.19c1.11.32,1.96,1.3,1.69,2.68-.37,1.92-1.16,3.47-3.67,3.62-2.12.12-3.96-.95-4.26-3.55-.15-1.32.4-2.44,1.8-2.86,1.16-.35,3.03-.3,4.44.11Z"/>
        <path class="cls-1" d="m85.67,20.5c-1.12.3-1.9,1.24-1.76,2.64.2,2,1.08,3.49,3.59,3.7,2.12.17,3.98-.85,4.34-3.45.18-1.32-.34-2.45-1.74-2.9-1.15-.37-3.02-.37-4.44,0Z"/>
        <path class="cls-1" d="m92.96,109.06l.42,4.27c.09.95-.63,1.77-1.58,1.8l-7.7.21c-.86.02-1.6-.63-1.68-1.48l-.42-4.44h2.34l.32,3.16c.09.84.81,1.47,1.65,1.45l4.37-.12c.93-.03,1.65-.83,1.56-1.76l-.29-3.05.99-.03Z"/>
        <path class="cls-12" d="m99.78,191.39s2.2-10.24,3.88-29.06,2.13-38.97,1.76-47.44l-.44-6.06c-6.11,0-34.14.81-39.12,1.26l-3.82,1.86-1.25,6.35c-1.16,6.82-2.86,11.67-2.53,14.97s.11,2.97-.77,16.84-2.77,23.45-1.33,27.3,2.19,5.28.71,8.7-1.81,4.73-1.81,4.73c12.59.47,17.01,1.09,22.65-.55s7.16.32,11.25,1.1,10.79,0,10.79,0Z"/>
        <path class="cls-4" d="m97.29,20.75c.62-8.37-3.42-12.47-5.47-13.13.04-1.78-.21-3.26-1.57-5.28.79,1.22,1.16,2.29,1.33,3.12.18.87-.59,1.65-1.46,1.45h0c-.43-.1-.75-.42-.9-.83-1.52-4.25-5.78-5.23-5.78-5.23.74,1.07,1.44,3.47,1.44,3.47,0,0-3.84-2.39-6.94-2.48,2.24.5,5.24,2.14,5.84,2.91-5.18-1.19-9.47.23-12.35,4.48-1.92,2.85-2.35,6.06-2.38,9.21,3.92-4.38,10.25-8.71,13.51-9.54-1.04,2.01-2.15,3.8-2.15,3.8,3.59-2.19,7.16-4.46,7.16-4.46,2.12.34,4.96,2.16,6.58,7.35.47,1.5.73,3.42.76,5.32,0,0,.63-.86,2.36-.16Z"/>
        <path class="cls-6" d="m65.87,110.09c4.98-.45,33.01-1.26,39.12-1.26l.44,6.06-33.86.18s.99-1.55-2.22-2.73-3.55-.98-3.48-2.25Z"/>
        <path class="cls-4" d="m81.28,41.05c.06,1.99,2.34,5.26,5.16,4.75l2.08-1.49v-5.2s-2.74,2.65-7.24,1.93Z"/>
        <g class="cls-9">
          <path class="cls-2" d="m60.32,102.25c-2.53-2.2-1.04-4.41,1.17-6.15-2.85-7.26-3.3-12.42-4.79-18.12-1.98,1.29-3.76,2.73-4.82,3.63-.54.45-.71,1.21-.42,1.84.43.92.73,2.35-.54,3.68-1.36,1.42-3.75,2.81-5.48,4.48l4.82,6.7c-6.65,1.07-9.97,10.92-9.97,10.92-5.05-3.89-10.47-8.9-13.85-13.46-4.24-5.73-1.68-11.08.65-13.86s4.73-6.35,8.03-10.17,3.11-4.34,5.38-6.35,4.6-1.49,4.6-1.49c0,0,.13-.52,1.04-4.08s2.07-5.18,5.18-6.8,9.65-4.21,16.2-6.03l2.79-.77c2.07,3.11,6.1,6.02,11.34,6.15s9.61-3.16,11.73-5.17c4.11.14,9.67.77,10.75,2.67,1.08,1.9.41,4.02,2.21,4.56s5.04,1.43,5.04,1.43l-.02-.03c-.74-1.27-1.67-2.87-2.64-4.54,0,0,5.18-2.72,11.74-8.15,2.35.04,5.16.58,5.53,4.79.37,4.21.99,4.54,3.39,6.56,2.39,2.02,8.79,6.11,7.06,13.33s-8.09,8.67-13.87,9.29-12.54,2.06-15.14,3.83l.11,2.61c.3,7.23.56,13.08.61,14.6.11,2.97,3.06,7.16-5.3,10.68l-36.98,1.26-5.55-7.84Z"/>
          <g>
            <path class="cls-5" d="m95.65,114.04c-.31,0-.57-.25-.57-.57V43.13c0-.31.25-.57.57-.57s.57.25.57.57v70.35c0,.31-.25.57-.57.57Z"/>
            <path class="cls-5" d="m104.93,114.04c-.31,0-.57-.25-.57-.57V43.13c0-.31.25-.57.57-.57s.57.25.57.57v70.35c0,.31-.25.57-.57.57Z"/>
            <path class="cls-1" d="m100.29,114.26c-.31,0-.57-.25-.57-.57V43.34c0-.31.25-.57.57-.57s.57.25.57.57v70.35c0,.31-.25.57-.57.57Z"/>
            <path class="cls-1" d="m91.01,114.26c-.31,0-.57-.25-.57-.57V43.34c0-.31.25-.57.57-.57s.57.25.57.57v70.35c0,.31-.25.57-.57.57Z"/>
            <path class="cls-5" d="m77.08,114.04c-.31,0-.57-.25-.57-.57V43.13c0-.31.25-.57.57-.57s.57.25.57.57v70.35c0,.31-.25.57-.57.57Z"/>
            <path class="cls-5" d="m86.36,114.04c-.31,0-.57-.25-.57-.57V43.13c0-.31.25-.57.57-.57s.57.25.57.57v70.35c0,.31-.25.57-.57.57Z"/>
            <path class="cls-1" d="m81.72,114.26c-.31,0-.57-.25-.57-.57V43.34c0-.31.25-.57.57-.57s.57.25.57.57v70.35c0,.31-.25.57-.57.57Z"/>
            <path class="cls-1" d="m72.44,114.26c-.31,0-.57-.25-.57-.57V43.34c0-.31.25-.57.57-.57s.57.25.57.57v70.35c0,.31-.25.57-.57.57Z"/>
            <path class="cls-5" d="m58.52,114.04c-.31,0-.57-.25-.57-.57V43.13c0-.31.25-.57.57-.57s.57.25.57.57v70.35c0,.31-.25.57-.57.57Z"/>
            <path class="cls-5" d="m67.8,114.04c-.31,0-.57-.25-.57-.57V43.13c0-.31.25-.57.57-.57s.57.25.57.57v70.35c0,.31-.25.57-.57.57Z"/>
            <path class="cls-1" d="m63.16,114.26c-.31,0-.57-.25-.57-.57V43.34c0-.31.25-.57.57-.57s.57.25.57.57v70.35c0,.31-.25.57-.57.57Z"/>
            <path class="cls-1" d="m53.88,114.26c-.31,0-.57-.25-.57-.57V43.34c0-.31.25-.57.57-.57s.57.25.57.57v70.35c0,.31-.25.57-.57.57Z"/>
            <path class="cls-5" d="m39.96,114.04c-.31,0-.57-.25-.57-.57V43.13c0-.31.25-.57.57-.57s.57.25.57.57v70.35c0,.31-.25.57-.57.57Z"/>
            <path class="cls-5" d="m49.24,114.04c-.31,0-.57-.25-.57-.57V43.13c0-.31.25-.57.57-.57s.57.25.57.57v70.35c0,.31-.25.57-.57.57Z"/>
            <path class="cls-1" d="m44.6,114.26c-.31,0-.57-.25-.57-.57V43.34c0-.31.25-.57.57-.57s.57.25.57.57v70.35c0,.31-.25.57-.57.57Z"/>
            <path class="cls-1" d="m35.31,114.26c-.31,0-.57-.25-.57-.57V43.34c0-.31.25-.57.57-.57s.57.25.57.57v70.35c0,.31-.25.57-.57.57Z"/>
            <path class="cls-5" d="m21.39,114.04c-.31,0-.57-.25-.57-.57V43.13c0-.31.25-.57.57-.57s.57.25.57.57v70.35c0,.31-.25.57-.57.57Z"/>
            <path class="cls-5" d="m30.67,114.04c-.31,0-.57-.25-.57-.57V43.13c0-.31.25-.57.57-.57s.57.25.57.57v70.35c0,.31-.25.57-.57.57Z"/>
            <path class="cls-1" d="m26.03,114.26c-.31,0-.57-.25-.57-.57V43.34c0-.31.25-.57.57-.57s.57.25.57.57v70.35c0,.31-.25.57-.57.57Z"/>
            <path class="cls-5" d="m114.21,114.04c-.31,0-.57-.25-.57-.57V43.13c0-.31.25-.57.57-.57s.57.25.57.57v70.35c0,.31-.25.57-.57.57Z"/>
            <path class="cls-5" d="m123.49,114.04c-.31,0-.57-.25-.57-.57V43.13c0-.31.25-.57.57-.57s.57.25.57.57v70.35c0,.31-.25.57-.57.57Z"/>
            <path class="cls-1" d="m118.85,114.26c-.31,0-.57-.25-.57-.57V43.34c0-.31.25-.57.57-.57s.57.25.57.57v70.35c0,.31-.25.57-.57.57Z"/>
            <path class="cls-1" d="m109.57,114.26c-.31,0-.57-.25-.57-.57V43.34c0-.31.25-.57.57-.57s.57.25.57.57v70.35c0,.31-.25.57-.57.57Z"/>
            <path class="cls-5" d="m132.77,114.04c-.31,0-.57-.25-.57-.57V43.13c0-.31.25-.57.57-.57s.57.25.57.57v70.35c0,.31-.25.57-.57.57Z"/>
            <path class="cls-5" d="m142.05,114.04c-.31,0-.57-.25-.57-.57V43.13c0-.31.25-.57.57-.57s.57.25.57.57v70.35c0,.31-.25.57-.57.57Z"/>
            <path class="cls-1" d="m137.41,114.26c-.31,0-.57-.25-.57-.57V43.34c0-.31.25-.57.57-.57s.57.25.57.57v70.35c0,.31-.25.57-.57.57Z"/>
            <path class="cls-1" d="m128.13,114.26c-.31,0-.57-.25-.57-.57V43.34c0-.31.25-.57.57-.57s.57.25.57.57v70.35c0,.31-.25.57-.57.57Z"/>
          </g>
        </g>
        <path class="cls-7" d="m49.45,111.26c1.61,2.26,4.21,5.26,7.05,5.07,4.11-.27,5.51-2.68,7.77-2.16,1.53.35,4.08,1.15,5.56,1.62.68.22,1.41-.09,1.73-.73h0c.35-.7.09-1.55-.6-1.92-1.13-.61-2.92-1.48-4.83-1.98-.48-.13-.65-.75-.26-1.07,1.9-1.6,4.8-2.36,7.8-1.62.7.17,1.44-.13,1.79-.76h0c.45-.8.15-1.83-.68-2.22-2.49-1.16-5.95-.92-7.98.2,3.16-1.62,6.79-.81,8.81-.12.86.3,1.8-.19,2.05-1.07v-.05c.22-.72-.09-1.5-.75-1.85-2.88-1.54-6.82-1.78-10.31-.35,1.89-1.89,3.97-2.56,7.85-3.1.93-.13,1.59-.96,1.51-1.89h0c-.09-.99-.98-1.7-1.97-1.57-.86.12-2.08.32-3.77.65-4.28.84-4.6.91-7.32,3.69s-5.57,5.05-7.48,4.66c0,0-4.72,3.25-5.98,6.55Z"/>
        <path class="cls-4" d="m49.45,111.26l2,2.43s-4.96,3.79-2-2.43Z"/>
        <path class="cls-1" d="m84.58,109.3l.32,3.14c.05.52.5.92,1.03.9l3.99-.1c.58-.01,1.03-.52.97-1.1l-.28-3.02,2.36-.06.42,4.27c.09.95-.63,1.77-1.58,1.8l-7.7.21c-.86.02-1.6-.63-1.68-1.48l-.42-4.44,2.57-.11Z"/>
      </g>
      <g>
        <path class="cls-4" d="m69.77,31.65c-2.17,0-5.41-1.26-5.88-4.84-.21-1.6.24-3.1,1.26-4.23,1.03-1.13,2.52-1.76,4.01-1.71.47.02.84.41.82.88-.02.47-.42.85-.88.82-1-.03-2,.41-2.69,1.16-.48.53-1.02,1.46-.83,2.86.38,2.85,3.21,3.39,4.31,3.36.45,0,.86.35.88.82.01.47-.35.86-.82.88-.05,0-.11,0-.16,0Z"/>
        <path class="cls-4" d="m81.65,41.91c-4.77,0-7.79-1.38-10.11-4.6-2.48-3.44-3.11-9.31-3.21-13.63-.01-.59-.04-1.19-.06-1.8-.16-4.22-.33-9,2.45-13.13,2.3-3.4,5.5-5.18,9.4-5.26-.79-.35-1.62-.66-2.37-.82-.43-.09-.71-.5-.66-.93.05-.44.42-.76.87-.75,1.86.05,3.91.84,5.38,1.54-.19-.47-.41-.9-.61-1.2-.2-.29-.2-.67,0-.96.2-.29.55-.43.89-.35.19.04,4.73,1.13,6.39,5.77.05.15.16.26.29.29.17.04.28-.04.34-.09.04-.04.15-.17.11-.36-.19-.92-.59-1.87-1.21-2.83-.25-.39-.14-.91.25-1.17.39-.26.91-.15,1.17.24,1.33,1.97,1.69,3.54,1.72,5.2,2.36,1.22,6.08,5.58,5.47,13.75-.04.47-.44.82-.91.78-.47-.04-.82-.44-.78-.91.58-7.81-3.11-11.69-4.89-12.26-.33-.1-.55-.39-.59-.73-.33.1-.69.11-1.04.04-.7-.16-1.27-.67-1.52-1.38-.71-2-2.09-3.19-3.25-3.87.29.78.5,1.45.53,1.58.1.34-.02.7-.3.92-.24.18-.56.22-.84.11-.02.03-.03.07-.05.1-.19.3-.56.45-.91.37-4.97-1.15-8.82.24-11.45,4.13-2.47,3.66-2.32,7.96-2.16,12.11.02.62.04,1.23.06,1.83.12,5.76,1.15,10.26,2.89,12.67,1.99,2.77,4.52,3.89,8.73,3.89,4.47,0,7.06-1.34,9.23-4.79.9-1.43,1.68-3.55,2.26-6.14.1-.46.56-.74,1.01-.65.46.1.75.56.65,1.02-.62,2.78-1.48,5.09-2.48,6.68-2.47,3.91-5.66,5.58-10.67,5.58Z"/>
        <path class="cls-4" d="m94.93,21.76c-.46,0-.84-.37-.85-.84-.03-1.88-.29-3.69-.72-5.08-1.59-5.11-4.26-6.39-5.6-6.71-.92.58-3.92,2.48-6.89,4.29-.34.2-.77.15-1.04-.13-.28-.28-.33-.71-.12-1.05,0-.01.44-.71,1.01-1.72-3.21,1.57-7.84,4.93-11.01,8.47-.31.35-.85.38-1.2.07-.35-.31-.38-.85-.07-1.2,3.87-4.32,10.38-8.89,13.93-9.79.32-.08.67.03.88.3.21.26.24.62.09.92-.17.32-.33.62-.49.92,2.39-1.48,4.27-2.68,4.3-2.7.18-.11.38-.15.59-.12,1.51.24,5.25,1.51,7.26,7.94.48,1.55.77,3.52.8,5.56,0,.47-.37.86-.84.86,0,0,0,0-.01,0Z"/>
        <path class="cls-4" d="m111.63,36.72c-.42,0-.78-.31-.84-.73-.45-3.24-.65-6.19-.6-8.76.02-1.02.2-2.04.53-3.02.36-1.06.69-2.19.64-3.21-.03-.72-1.17-2.02-4.25-3.5-.23-.11-.52-.04-.67.17-.09.12-.12.26-.1.41s.1.27.22.36c.64.45,1.31.94,1.85,1.35,1.07.79,1.44,2.23.89,3.42-.07.14-.14.28-.21.42-.25.46-.69.78-1.21.86-.53.08-1.07-.09-1.45-.46-.99-.96-1.81-1.66-2.32-1.98-.65-.42-.87-.43-1.93.44-.48.39-1.22,1.1-2.12,2.03-.22.22-.25.56-.09.83.11.18.29.3.5.33.12.01.35.01.56-.18.92-.86,1.69-1.51,2.28-1.93.38-.27.92-.18,1.18.2.27.38.18.91-.2,1.19-.52.37-1.25.98-2.1,1.78-.53.49-1.24.72-1.95.62-.72-.1-1.34-.51-1.72-1.13-.56-.93-.43-2.12.32-2.9.66-.69,1.6-1.62,2.27-2.17,1.11-.91,2.25-1.63,3.93-.55.76.49,1.82,1.46,2.58,2.19.04-.09.1-.21.15-.32.21-.46.06-1.02-.36-1.33-.54-.4-1.2-.88-1.83-1.33-.5-.35-.82-.88-.92-1.48-.1-.6.05-1.2.41-1.69.64-.87,1.81-1.16,2.78-.69,3.38,1.62,5.13,3.29,5.21,4.95.06,1.3-.31,2.61-.73,3.84-.28.82-.43,1.67-.44,2.51-.05,2.48.15,5.34.59,8.5.06.47-.26.89-.73.96-.04,0-.08,0-.12,0Z"/>
        <path class="cls-4" d="m98.05,28.47c-.1,0-.21,0-.32-.02-.72-.11-1.88-.65-1.63-3.01.15-1.37.82-2.72,2.25-4.51,1.77-2.23,3.67-1.27,4.81-.69.42.21.63.75.41,1.17-.21.42-.68.61-1.1.39,0,0-.09-.04-.09-.04-1.21-.62-1.83-.87-2.7.23-1.21,1.53-1.78,2.62-1.89,3.64-.02.18-.1,1.1.2,1.15.29.05.75-.35.86-.75.13-.45.59-.71,1.05-.58.45.13.71.6.58,1.05-.29,1.01-1.28,1.98-2.44,1.98Z"/>
        <path class="cls-4" d="m94.14,25.41c-.56,0-1.12-.21-1.55-.63-.45-.44-.7-1.06-.66-1.69.03-.63.33-1.22.83-1.62.37-.3.81-.64,1.27-.98,1.79-1.34,3.7-.6,5.35.2.42.21.6.71.39,1.14-.2.42-.71.6-1.14.39-1.85-.9-2.76-1-3.59-.37-.45.33-.87.66-1.23.95-.16.13-.19.29-.19.37,0,.09,0,.25.15.39.18.18.46.2.66.04.19-.14.39-.29.6-.43.67-.46,1.54-.52,2.27-.15.13.07.28.14.44.22.42.22.57.73.35,1.15-.22.41-.73.57-1.15.35-.15-.08-.28-.15-.4-.21-.18-.09-.39-.08-.55.04-.19.13-.37.26-.54.39-.4.3-.86.44-1.32.44Z"/>
        <path class="cls-4" d="m104.7,41.25c-.2,0-.4-.07-.56-.21-.51-.44-1.08-.79-2.21-1.04-3.78-.86-5.57-3.47-6.3-4.96-.53-1.08-1.1-2.32-1.66-3.54-.61-1.34-1.19-2.6-1.72-3.65-.56-1.11-.23-2.46.78-3.19.56-.41,1.28-.57,1.97-.45.7.13,1.29.53,1.67,1.12.64.99,1.57,2.44,2.68,4.22-.27-.52-.69-1.27-1.06-1.83-.26-.39-.15-.92.24-1.18.39-.26.92-.15,1.18.24.41.62.86,1.41,1.16,1.98.23.44.27.95.09,1.41-.18.46-.55.83-1.02,1-.75.27-1.6-.03-2.02-.71-1.1-1.77-2.02-3.21-2.67-4.2-.13-.2-.33-.33-.56-.37-.23-.04-.47,0-.66.15-.34.25-.45.69-.26,1.06.54,1.08,1.15,2.42,1.74,3.71.55,1.21,1.11,2.44,1.64,3.5.6,1.21,2.06,3.35,5.15,4.05,1.25.28,2.13.71,2.95,1.41.36.31.39.84.09,1.2-.17.19-.41.29-.64.29Z"/>
        <path class="cls-4" d="m110.07,80.34c-.35,0-.68-.22-.8-.57-.15-.44.08-.93.53-1.08,3.96-1.36,9.65-2.11,12.68-2.43,5.9-.63,11.57-2.12,13.14-8.64,1.43-5.94-3.16-9.59-5.89-11.77-.33-.26-.63-.5-.89-.72l-.32-.27c-2.36-1.98-2.99-2.68-3.36-6.87-.29-3.27-2.09-3.97-4.7-4.01-.25,0-.49-.12-.65-.31-1.29-1.59-4.32-5.25-5.88-7.13-.32-.38-.85-.48-1.3-.24-2.4,1.31-5.28,3.17-7.7,4.99-.42.32-.54.9-.27,1.35,1.65,2.82,5.35,9.14,7.44,12.76.6,1.03.67,2.28.21,3.42-.92,2.26-.48,6.17,2.55,9.83.3.36.25.9-.11,1.2-.36.3-.9.25-1.2-.11-3.72-4.49-3.84-9.03-2.82-11.55.26-.65.23-1.36-.11-1.93-2.09-3.62-5.79-9.93-7.44-12.75-.7-1.2-.4-2.74.71-3.57,2.49-1.86,5.44-3.78,7.91-5.12,1.15-.63,2.59-.36,3.42.64,1.47,1.77,4.25,5.12,5.65,6.84,2.47.11,5.56.91,5.96,5.55.32,3.66.7,3.98,2.76,5.72l.33.27c.25.21.53.44.85.69,2.85,2.27,8.17,6.5,6.49,13.5-1.82,7.57-8.41,9.27-14.61,9.94-5.04.54-9.53,1.4-12.31,2.35-.09.03-.18.05-.28.05Z"/>
        <path class="cls-4" d="m108.71,51.98c-.26,0-.51-.14-.63-.39-.17-.35-.03-.78.32-.95,2.83-1.42,7.73-4.6,9.81-6.57.29-.27.73-.26,1,.03.27.28.26.73-.03,1-2.2,2.09-7.17,5.31-10.15,6.81-.1.05-.21.08-.32.08Z"/>
        <path class="cls-4" d="m115.6,47.69c-.22,0-.43-.1-.57-.29-.25-.34-.73-1-1.34-1.83-1.64-2.24-4.12-5.63-5.54-7.51-.24-.31-.17-.76.14-.99.31-.24.76-.17.99.14,1.43,1.89,3.92,5.29,5.56,7.53.61.83,1.09,1.48,1.34,1.82.23.31.17.76-.15.99-.13.09-.27.14-.42.14Z"/>
        <path class="cls-4" d="m102.85,109.67c-.33,0-.65-.2-.78-.52-.18-.43.02-.93.45-1.11,6.14-2.59,5.59-5.31,5.06-7.93-.13-.67-.26-1.3-.29-1.93-.03-.74-.1-2.51-.21-4.97-.31-7.33-.89-20.98-1.22-31.48-.02-.47.35-.86.82-.88.43,0,.86.35.88.82.33,10.49.91,24.13,1.22,31.46.1,2.46.18,4.23.21,4.98.02.49.13,1.06.25,1.66.57,2.83,1.35,6.71-6.07,9.83-.11.05-.22.07-.33.07Z"/>
        <path class="cls-4" d="m111.15,56.67s-3.24-.89-5.06-1.43c-1.59-.48-1.86-1.87-2.08-2.98-.13-.66-.27-1.35-.62-1.97-.51-.9-3.45-2.02-10.04-2.24-.26,0-.51-.14-.66-.35l-2.85-3.98c-.42-.58-1-.99-1.64-1.16-.45-.12-.73-.57-.63-1.02.11-.45.55-.73,1-.64,1.08.28,2,.92,2.65,1.83l2.61,3.64c4.43.18,9.78.86,11.04,3.08.49.87.66,1.73.81,2.49.22,1.14.34,1.52.91,1.69,1.8.54,5.02,1.42,5.02,1.42l-.45,1.64Z"/>
        <path class="cls-4" d="m88.38,45.29c-.47,0-.85-.38-.85-.85v-5.1c0-.47.38-.85.85-.85s.85.38.85.85v5.1c0,.47-.38.85-.85.85Z"/>
        <path class="cls-4" d="m81.64,52.57c-.11,0-.21-.02-.32-.06-.44-.17-.65-.67-.47-1.11l.07-.17c.39-.99.84-2.11,1.58-3.19.82-1.2,1.2-1.45,4.09-3.36.94-.62,1.38-1,1.59-1.21-.04-.02-.1-.05-.16-.08-.43-.2-.61-.71-.41-1.13.2-.42.71-.61,1.13-.41.43.2,1.23.58,1.29,1.41.06.84-.59,1.58-2.5,2.84-2.88,1.9-3.02,2.01-3.63,2.9-.63.93-1.04,1.95-1.41,2.86l-.07.17c-.13.33-.45.53-.79.53Zm6.79-8.95h0,0Z"/>
        <path class="cls-4" d="m81.94,53.22c-.11,0-.21,0-.32,0-5.75-.14-9.99-3.47-12.03-6.53-.15-.23-.18-.52-.08-.78l1.44-3.71c.28-.73.78-1.35,1.42-1.79.55-.37,1.06-.65,1.52-.82.44-.16.93.07,1.09.51.16.44-.07.93-.51,1.09-.32.12-.72.33-1.15.62-.36.25-.64.59-.8,1l-1.28,3.28c1.89,2.6,5.53,5.3,10.41,5.42,5.21.14,9.52-3.41,11.12-4.94.34-.32.88-.31,1.2.03.32.34.31.88-.03,1.2-1.73,1.64-6.32,5.41-12.02,5.41Z"/>
        <path class="cls-4" d="m81.64,52.57c-.32,0-.63-.19-.78-.5l-1.6-3.52c-.25-.56-.7-1-1.25-1.23-.72-.31-1.78-.8-2.72-1.4-1.24-.79-1.95-2.22-1.86-3.72l.19-3.13c.03-.47.47-.83.9-.8.47.03.83.43.8.9l-.19,3.13c-.05.89.36,1.72,1.08,2.18.84.54,1.81.99,2.47,1.27.95.4,1.71,1.15,2.14,2.1l1.59,3.52c.19.43,0,.93-.42,1.13-.11.05-.23.08-.35.08Z"/>
        <path class="cls-4" d="m87.85,109.53s-.05,0-.08,0c-.39-.04-.67-.39-.63-.78.21-1.96.35-4.32-.5-7.48-.68-2.52-1.1-6.55-1.5-10.45-.15-1.4-.29-2.78-.44-4.03-.57-4.76-3.52-29.77-3.78-33.73-.03-.39.27-.73.66-.75.39-.02.73.27.75.66.25,3.92,3.2,28.89,3.77,33.65.15,1.26.29,2.64.44,4.05.4,3.85.81,7.82,1.46,10.23.99,3.68.7,6.49.54,8-.04.36-.35.63-.7.63Z"/>
        <path class="cls-4" d="m47.47,90.76c-.26,0-.51-.12-.68-.34-.28-.37-.21-.91.16-1.19l.8-.6c.98-.73,1.9-1.42,2.54-2.09.75-.79.88-1.68.39-2.73-.46-.97-.19-2.15.64-2.85,1.15-.97,2.93-2.4,4.91-3.7.39-.26.92-.15,1.18.25s.15.92-.25,1.18c-1.91,1.25-3.63,2.63-4.74,3.57-.25.21-.33.55-.2.84.79,1.69.54,3.33-.7,4.63-.74.77-1.72,1.5-2.75,2.28l-.79.59c-.15.12-.33.17-.51.17Z"/>
        <path class="cls-4" d="m48.82,115.44c-.53,0-1.06-.14-1.54-.41-6.37-3.63-16.41-11.83-21.53-18.75-5.14-6.95-.78-13.17.68-14.91.98-1.17,1.98-2.49,3.04-3.89,1.44-1.91,3.08-4.07,5-6.29,1.41-1.63,2.16-2.64,2.77-3.45.81-1.08,1.34-1.79,2.69-2.98,1.73-1.53,3.47-1.77,4.52-1.76.15-.58.41-1.6.86-3.38.98-3.86,2.35-5.65,5.61-7.35,3.16-1.65,9.8-4.27,16.36-6.1.46-.13.92.14,1.05.59.13.45-.14.92-.59,1.05-6.45,1.8-12.95,4.36-16.03,5.97-2.82,1.47-3.89,2.87-4.75,6.26-.9,3.54-1.03,4.07-1.04,4.08-.11.45-.56.72-1.01.62-.07-.01-1.96-.38-3.85,1.3-1.22,1.08-1.69,1.7-2.45,2.73-.62.83-1.39,1.86-2.84,3.54-1.88,2.18-3.5,4.32-4.93,6.2-1.08,1.42-2.09,2.76-3.09,3.96-1.61,1.92-4.89,7.02-.62,12.81,4.99,6.75,14.78,14.74,21,18.29.43.25.96.25,1.37,0,.4-.23.78-.5,1.15-.78.37-.29.91-.22,1.19.15.29.37.22.9-.15,1.19-.43.33-.87.64-1.33.9-.47.28-1,.42-1.53.42Z"/>
        <path class="cls-4" d="m56.43,105.52c-.06,0-.11,0-.17-.02-.41-.08-.69-.45-.68-.86-4.4-3.25-7.16-7.12-9.83-11.11-2.31-3.47-3.31-3.8-4.83-4.29l-.51-.17c-.43-.15-1.02-.41-1.21-1.01-.2-.62.16-1.12.43-1.48.35-.48.42-.66.29-.94-.08-.18-.32-.33-.67-.44-1.52-.47-4.87.01-8.63,2.19-.41.24-.93.1-1.16-.31-.24-.41-.1-.93.31-1.16,3.66-2.12,7.67-3.06,9.99-2.34,1.03.32,1.5.9,1.7,1.33.56,1.17-.02,2.07-.39,2.59l.38.13c1.91.63,3.2,1.2,5.71,4.97,2.66,3.99,5.42,7.84,9.83,10.99.26.19.4.51.35.83-.02.14-.05.29-.08.44-.08.4-.44.68-.83.68Z"/>
        <path class="cls-4" d="m54.49,71.66c-.26,0-.51-.16-.6-.43l-.26-.71c-.64-1.77-1.96-5.45-2.81-8.93-.08-.34.13-.69.47-.77.34-.08.69.13.77.47.83,3.41,2.14,7.05,2.77,8.8l.26.72c.12.33-.06.7-.39.81-.07.02-.14.04-.21.04Z"/>
        <path class="cls-4" d="m60.32,103.1c-.2,0-.4-.07-.56-.21-1.1-.96-1.64-2.01-1.61-3.15.03-1.3.79-2.58,2.32-3.91-1.84-4.86-2.88-9.73-3.81-14.04-.44-2.05-.85-3.98-1.31-5.75-.12-.45.15-.92.61-1.04.46-.12.92.15,1.04.61.47,1.81.89,3.76,1.33,5.83.95,4.42,2.02,9.44,3.95,14.35.14.35.03.74-.26.98-1.4,1.11-2.15,2.15-2.17,3.02-.01.61.32,1.21,1.03,1.83.35.31.39.85.08,1.2-.17.19-.4.29-.64.29Z"/>
        <path class="cls-4" d="m40.42,110.05c-.06,0-.13,0-.19-.03-.38-.11-.6-.5-.49-.87,1.77-6.29,5.35-10.27,10.34-11.52.37-.1.76.14.86.52.09.38-.14.76-.52.86-4.54,1.13-7.67,4.67-9.32,10.53-.09.31-.37.52-.68.52Z"/>
        <path class="cls-4" d="m48.44,115.41s-.01,0-.02,0c-.47-.01-.84-.4-.83-.87.1-4.07,4.54-9.77,8.65-11.09.45-.15.93.1,1.07.55.14.45-.1.93-.55,1.07-3.34,1.07-7.39,6.23-7.47,9.51-.01.46-.39.83-.85.83Z"/>
        <path class="cls-4" d="m56.23,117.19c-2.42,0-4.86-1.78-7.47-5.43-.27-.38-.18-.91.2-1.19.38-.27.91-.18,1.19.2,2.32,3.25,4.42,4.84,6.3,4.71,1.92-.13,3.2-.76,4.32-1.32,1.18-.59,2.29-1.14,3.7-.82,1.5.34,3.89,1.08,5.63,1.64.28.09.58-.04.71-.3.15-.29.04-.64-.25-.79-1.12-.61-2.83-1.43-4.64-1.91-.54-.14-.95-.57-1.07-1.12-.12-.53.06-1.08.48-1.43,2.25-1.89,5.44-2.56,8.55-1.8.34.08.68-.06.84-.35.11-.19.13-.41.06-.62-.04-.11-.13-.31-.36-.42-.47-.22-.98-.38-1.5-.49-1.74-.29-3.85-.29-5.74.68-.41.21-.92.05-1.14-.36-.22-.41-.07-.92.34-1.14,1.82-1.01,4.42-1.31,6.69-.88,1.11.17,2.08.45,2.81.7.19.07.4.05.58-.04.18-.1.32-.26.38-.46.11-.39-.03-.75-.33-.91-2.77-1.48-6.44-1.6-9.58-.31-.37.16-.8.02-1.03-.32-.22-.34-.18-.79.11-1.07,2.13-2.13,4.58-2.82,8.34-3.34.48-.07.82-.49.78-.97-.02-.25-.14-.47-.33-.62-.19-.15-.42-.22-.67-.18-1.02.14-2.27.36-3.72.65-4.17.82-4.34.85-6.88,3.45-3.66,3.75-6.29,5.3-8.26,4.9-.46-.09-.76-.54-.66-1s.54-.76,1-.66c.74.15,2.6-.22,6.71-4.42,2.83-2.89,3.32-3.06,7.76-3.93,1.48-.29,2.76-.51,3.81-.66.71-.1,1.4.09,1.96.53.55.44.91,1.09.97,1.8.13,1.38-.85,2.61-2.24,2.81-1.02.14-1.89.29-2.66.46,1.92.06,3.79.53,5.4,1.39,1,.54,1.5,1.73,1.18,2.84-.2.69-.65,1.24-1.24,1.54-.25.13-.5.21-.77.25.1.56,0,1.14-.28,1.64-.53.95-1.66,1.43-2.73,1.17-2.42-.6-4.89-.16-6.69,1.17,1.82.53,3.48,1.34,4.6,1.94,1.09.59,1.51,1.93.96,3.05-.51,1.02-1.67,1.51-2.76,1.16-1.4-.45-3.97-1.26-5.49-1.6-.78-.18-1.42.11-2.56.68-1.2.6-2.7,1.35-4.97,1.5-.11,0-.21.01-.32.01Z"/>
        <path class="cls-4" d="m99.78,192.24c-.06,0-.12,0-.18-.02-.46-.1-.75-.55-.65-1.01.02-.1,2.21-10.42,3.87-28.96,1.77-19.87,2.1-39.64,1.76-47.33l-.38-5.24c-7.4.06-33.54.83-38.25,1.26-.46.04-.88-.3-.92-.77-.04-.47.3-.88.77-.92,4.93-.44,33.09-1.27,39.19-1.27.45,0,.82.34.85.79l.44,6.06c.4,9.19-.15,29.48-1.77,47.58-1.67,18.66-3.88,29.06-3.9,29.17-.09.4-.44.67-.83.67Z"/>
        <path class="cls-4" d="m81.64,191.14s-.1,0-.15-.01c-.46-.08-.77-.52-.69-.99.05-.29,5.25-29.4,6.36-44.94.03-.47.44-.82.91-.79.47.03.82.44.79.91-1.12,15.63-6.33,44.82-6.39,45.12-.07.41-.43.7-.84.7Z"/>
        <path class="cls-4" d="m55.08,191.69c-.07,0-.14,0-.21-.03-.45-.11-.73-.57-.62-1.03.01-.06.36-1.43,1.85-4.86,1.23-2.86.78-4.06-.44-7.29l-.29-.78c-1.02-2.72-.53-7.62.2-15.04.37-3.7.78-7.9,1.08-12.62.27-4.18.47-7.07.62-9.16.34-4.81.38-5.31.15-7.55-.22-2.23.39-5,1.18-8.5.44-1.97.94-4.21,1.36-6.69.08-.46.53-.77.98-.7.46.08.77.52.7.98-.43,2.53-.93,4.79-1.38,6.78-.75,3.36-1.34,6.01-1.15,7.97.24,2.38.19,3-.15,7.84-.15,2.09-.35,4.97-.62,9.15-.3,4.75-.72,8.96-1.08,12.68-.68,6.92-1.18,11.92-.3,14.27l.29.77c1.27,3.38,1.91,5.07.41,8.56-1.41,3.27-1.76,4.59-1.76,4.6-.1.38-.44.64-.82.64Z"/>
        <path class="cls-4" d="m65.87,133.86c-.11,0-.22-.03-.33-.08-.35-.18-.48-.61-.3-.96,1.48-2.85,4.79-10.1,6.11-14.73.11-.38.5-.6.88-.49.38.11.59.5.49.88-1.35,4.72-4.72,12.1-6.22,14.99-.13.24-.37.38-.63.38Z"/>
        <path class="cls-4" d="m92.44,115.87c-.47,0-.85-.38-.85-.84,0-.47.37-.85.84-.86,7.16-.06,12.98-.14,12.99-.14,0,0,0,0,.01,0,.46,0,.84.37.85.84,0,.47-.37.86-.84.86,0,0-5.82.08-12.99.14h0Z"/>
        <path class="cls-4" d="m77.84,115.95c-2.64,0-4.74-.01-6.28-.04-.47,0-.84-.39-.84-.86,0-.47.4-.88.86-.84,2.45.04,6.34.05,11.55.02h0c.47,0,.85.38.85.85,0,.47-.38.85-.85.85-1.95,0-3.72.01-5.3.01Z"/>
        <path class="cls-4" d="m88.02,132.87s-.02,0-.03,0c-.39-.02-.69-.35-.68-.74l.08-1.76c.14-2.85.35-7.15.39-10.55,0-.39.32-.7.71-.7h0c.39,0,.7.33.7.72-.05,3.43-.26,7.74-.4,10.6l-.08,1.75c-.02.38-.33.68-.71.68Z"/>
        <path class="cls-4" d="m87.56,140.39c-.35,0-.67-.21-.8-.56-.16-.44.06-.93.5-1.09,2.15-.79,6.73-2.13,7.89-2.44.45-.12.92.14,1.04.6.12.45-.14.92-.6,1.04-1.14.31-5.64,1.62-7.75,2.4-.1.04-.2.05-.29.05Z"/>
        <path class="cls-4" d="m72.92,189.79s-.04,0-.06,0c-.39-.03-.68-.37-.65-.76.43-5.25,3.33-34.91,4.82-47.8.04-.39.41-.66.79-.62.39.04.67.4.62.79-1.49,12.88-4.39,42.52-4.82,47.76-.03.37-.34.65-.71.65Z"/>
        <path class="cls-4" d="m84.06,116.19c-1.28,0-2.36-.98-2.48-2.26l-.42-4.44c-.04-.47.3-.88.77-.93.47-.04.88.3.93.77l.42,4.44c.04.41.41.71.81.71l7.7-.21c.22,0,.42-.1.57-.27.15-.17.21-.38.19-.6l-.42-4.27c-.05-.47.3-.88.76-.93.46-.05.88.29.93.76l.42,4.27c.07.68-.15,1.37-.61,1.89-.46.52-1.11.82-1.8.84l-7.7.21s-.05,0-.07,0Z"/>
        <path class="cls-4" d="m85.9,114.05c-.87,0-1.62-.67-1.71-1.54l-.32-3.14c-.04-.39.24-.74.63-.78.38-.03.74.24.78.63l.32,3.14c.02.15.16.26.3.27l3.99-.1c.11,0,.18-.06.21-.1.03-.04.08-.11.07-.22l-.28-3.03c-.04-.39.25-.74.64-.77.37-.03.73.25.77.64l.28,3.02c.04.47-.11.94-.42,1.3s-.76.56-1.24.58l-3.99.1s-.03,0-.04,0Z"/>
        <path class="cls-4" d="m67.82,97.57c-.09,0-.19-.02-.28-.06-.36-.16-.52-.57-.37-.93,3-6.95,7.3-12.71,9.6-12.84.51-.02.95.2,1.2.63,1.1,1.9-2.22,6.87-3.7,8.92-.23.32-.67.39-.99.16-.32-.23-.39-.67-.16-.99,2.29-3.18,3.92-6.44,3.66-7.3-1.06.19-4.99,4.31-8.3,11.99-.12.27-.38.43-.65.43Z"/>
        <path class="cls-4" d="m82.01,106.72c-.18,0-.36-.07-.49-.2-.28-.27-.29-.72-.02-1,2.73-2.82,9.21-7.4,13.56-9.91.34-.19.77-.08.97.26.2.34.08.77-.26.97-4.18,2.41-10.65,6.98-13.25,9.67-.14.14-.32.22-.51.22Z"/>
        <circle class="cls-4" cx="97.49" cy="95.11" r=".71"/>
        <path class="cls-4" d="m76.16,27.35c-2.64,0-4.45-1.62-4.76-4.31-.21-1.85.68-3.26,2.41-3.77,1.32-.39,3.35-.35,4.92.11h0c1.67.49,2.61,1.99,2.29,3.66-.33,1.75-1.16,4.11-4.46,4.31-.13,0-.26.01-.39.01Zm-.24-6.65c-.61,0-1.19.06-1.64.2-.92.27-1.32.93-1.2,1.95.3,2.59,2.24,2.87,3.37,2.8,1.72-.1,2.5-.89,2.89-2.93.18-.97-.45-1.52-1.1-1.71h0c-.7-.2-1.54-.31-2.32-.31Z"/>
        <path class="cls-4" d="m87.97,27.72c-.18,0-.36,0-.54-.02-2.62-.22-4.09-1.72-4.37-4.46-.18-1.72.76-3.12,2.38-3.55h0c1.58-.42,3.61-.42,4.92,0,1.71.55,2.57,1.99,2.32,3.83-.37,2.63-2.15,4.2-4.71,4.2Zm-2.08-6.39h0c-.81.22-1.22.85-1.13,1.74.2,1.94,1.01,2.79,2.81,2.94,1.14.1,3.07-.14,3.43-2.72.14-1.02-.25-1.68-1.16-1.98-1-.33-2.7-.32-3.96.02Z"/>
        <path class="cls-4" d="m80.19,22.83c-.34,0-.66-.2-.79-.53-.17-.44.04-.93.47-1.11,1.01-.4,2.99-.44,4.24-.07.45.13.71.6.58,1.06-.13.45-.6.71-1.06.58-1.02-.3-2.6-.2-3.13.01-.1.04-.21.06-.32.06Z"/>
        <path class="cls-4" d="m81.67,34.18c-.96,0-1.9-.21-2.64-.57-.42-.2-.6-.71-.4-1.13.2-.42.71-.6,1.14-.4,1.13.54,2.98.6,4.11-.25.38-.28.91-.21,1.19.17.28.38.21.91-.17,1.19-.93.7-2.1,1-3.23,1Z"/>
        <path class="cls-4" d="m90.02,18.62c-.17,0-.34-.07-.47-.2-.67-.72-2.48-.71-3.26-.5-.35.09-.69-.11-.78-.45-.09-.34.11-.69.45-.78.94-.25,3.38-.39,4.53.86.24.26.22.66-.03.9-.12.11-.28.17-.43.17Z"/>
        <path class="cls-4" d="m74.53,18.21c-.22,0-.44-.12-.56-.33-.17-.31-.06-.7.24-.87.92-.52,2.15-.65,3.67-.39.35.06.58.39.52.74-.06.35-.39.58-.74.52-1.22-.21-2.17-.13-2.82.24-.1.06-.21.08-.31.08Z"/>
        <path class="cls-4" d="m72.21,23.17c-.19,0-.39-.07-.55-.2-.91-.77-1.25-1.53-1.01-2.25.3-.9,1.36-1.37,3.34-1.49.49-.02.87.33.9.8s-.33.87-.8.9c-1.06.06-1.54.23-1.74.32.07.09.19.23.41.42.36.3.4.84.1,1.2-.17.2-.41.3-.65.3Z"/>
        <path class="cls-4" d="m91.84,24.25c-.27,0-.54-.13-.71-.38-.26-.39-.16-.92.23-1.18.36-.24.51-.42.58-.51-.13-.09-.43-.23-.91-.28-.47-.05-.81-.46-.76-.93.05-.47.48-.81.93-.76,1.29.13,2.23.73,2.44,1.56.14.56.03,1.42-1.32,2.33-.15.1-.31.15-.47.15Zm.16-2.01h0,0Z"/>
        <circle class="cls-4" cx="76.55" cy="22.94" r=".86"/>
        <circle class="cls-4" cx="87.66" cy="23.29" r=".86"/>
        <circle class="cls-4" cx="81.63" cy="29.14" r=".71"/>
        <path class="cls-4" d="m93.37,32.62c-.38,0-.72-.25-.82-.64-.12-.45.16-.92.61-1.04l1.49-.39c.45-.12.92.15,1.04.61.12.45-.16.92-.61,1.04l-1.49.39c-.07.02-.14.03-.21.03Z"/>
      </g>
    </g>
  </g>
  <g id="_アイコン" data-name="アイコン">
    <g>
      <path class="cls-2" d="m35.15,149.96l-4.21-3.75s0,0-.01-.01l-9.15-8.16c-.97-.87-2.36-1.06-3.53-.49h0c-1.17.57-1.87,1.78-1.79,3.09l1.17,17.89c.09,1.32,1.22,2.32,2.54,2.23,1.31-.1,2.32-1.22,2.23-2.54l-.26-4.01,6.84-3.34,3,2.68c.75.67,1.79.78,2.64.37.27-.13.52-.32.74-.56.88-.99.79-2.5-.2-3.38Zm-13.44-2.1l-.12-1.76c-.05-.71.79-1.11,1.31-.64l1.32,1.18c.42.37.33,1.05-.18,1.3l-1.2.59c-.51.25-1.1-.1-1.14-.66Z"/>
      <path class="cls-3" d="m19.65,137.21c.77,0,1.53.28,2.13.81l9.15,8.16s0,0,.01.01l4.21,3.75c.99.88,1.07,2.39.2,3.38-.21.24-.46.43-.74.56-.33.16-.69.24-1.05.24-.57,0-1.13-.2-1.59-.61l-3-2.68-6.84,3.34.26,4.01c.09,1.32-.92,2.45-2.23,2.54-.05,0-.1,0-.15,0-1.25,0-2.3-.97-2.39-2.24l-1.17-17.89c-.08-1.31.62-2.52,1.79-3.09,0,0,0,0,0,0,.45-.22.93-.32,1.4-.32m2.86,11.38c.11,0,.23-.03.35-.08l1.2-.59c.51-.25.6-.93.18-1.3l-1.32-1.18c-.16-.14-.34-.2-.52-.2-.42,0-.83.35-.79.84l.12,1.76c.03.43.39.74.79.74m-2.86-13.22c-.76,0-1.52.18-2.21.51-1.85.9-2.96,2.81-2.83,4.86l1.17,17.89c.14,2.22,2,3.96,4.22,3.96.09,0,.18,0,.27,0,2.34-.17,4.11-2.19,3.95-4.51l-.18-2.78,4.62-2.26,2.08,1.85c.77.69,1.77,1.07,2.82,1.07.64,0,1.28-.15,1.86-.43.49-.24.93-.57,1.3-.99,1.55-1.75,1.4-4.43-.34-5.98l-4.21-3.75s-.01,0-.02-.01h0s-9.15-8.16-9.15-8.16c-.93-.83-2.12-1.28-3.36-1.28h0Z"/>
    </g>
    <g>
      <path class="cls-8" d="m118.98,110.72c-.9-.45-1.48-.75-1.86-.97-.87-.52-1.18-1.61-.73-2.51l5.19-10.39c.56-1.12,1.93-1.58,3.05-1.02l2.25,1.12c3.6,1.8,5.53,5.98,4.21,9.78-1.59,4.6-6.81,6.63-11.03,4.53-.4-.2-.76-.38-1.08-.53Zm1.94-3.11c.2.1.41.21.63.32,1.95.97,4.37.43,5.58-1.38,1.46-2.18.63-5.08-1.64-6.21l-.75-.38c-.28-.14-.63-.03-.77.26l-3.31,6.62c-.14.28-.03.63.26.77Z"/>
      <path class="cls-3" d="m123.61,95.58c.34,0,.69.08,1.01.24l2.25,1.12c3.6,1.8,5.53,5.98,4.21,9.78-1.17,3.37-4.28,5.36-7.51,5.36-1.18,0-2.38-.27-3.51-.83-.4-.2-.76-.38-1.08-.53-.9-.45-1.48-.75-1.86-.97-.87-.52-1.18-1.61-.73-2.51l5.19-10.39c.4-.8,1.2-1.26,2.04-1.26m-.03,12.81c1.39,0,2.75-.64,3.55-1.85,1.46-2.18.64-5.08-1.64-6.21l-.75-.38c-.08-.04-.17-.06-.26-.06-.21,0-.41.12-.51.32l-3.31,6.62c-.14.28-.03.63.26.77.2.1.41.21.63.32.64.32,1.34.47,2.02.47m.03-14.42h0c-1.48,0-2.81.82-3.48,2.15l-5.19,10.39c-.82,1.64-.23,3.67,1.35,4.61.43.26,1.05.58,1.97,1.03l.94.47.14.07c1.33.66,2.75.99,4.23.99,4.07,0,7.7-2.59,9.03-6.44,1.56-4.49-.6-9.54-5.01-11.74l-2.25-1.12c-.54-.27-1.14-.41-1.73-.41h0Zm-1.04,12.64l2.37-4.75c.6.35,1.03.93,1.22,1.61.2.75.07,1.52-.37,2.18-.47.71-1.3,1.13-2.22,1.13-.34,0-.68-.06-1-.18h0Z"/>
    </g>
    <g>
      <path class="cls-6" d="m53.49,10.37c-.64-.27-1.37.02-1.65.66l-1.14,2.65-2.95-1.27,1.14-2.65c.27-.64-.02-1.37-.66-1.65s-1.37.02-1.65.66l-3.27,7.6c-.27.64.02,1.37.66,1.65s1.37-.02,1.65-.66l1.14-2.65,2.95,1.27-1.14,2.65c-.27.64.02,1.37.66,1.65s1.37-.02,1.65-.66l3.27-7.6c.27-.64-.02-1.37-.66-1.65Z"/>
      <path class="cls-3" d="m47.74,8.01c.17,0,.33.03.49.1.64.27.93,1.01.66,1.65l-1.14,2.65,2.95,1.27,1.14-2.65c.2-.47.67-.76,1.15-.76.17,0,.33.03.49.1.64.27.93,1.01.66,1.65l-3.27,7.6c-.2.47-.67.76-1.15.76-.17,0-.33-.03-.49-.1-.64-.27-.93-1.01-.66-1.65l1.14-2.65-2.95-1.27-1.14,2.65c-.2.47-.67.76-1.15.76-.17,0-.33-.03-.49-.1-.64-.27-.93-1.01-.66-1.65l3.27-7.6c.2-.47.67-.76,1.15-.76m0-1.29h0c-1.02,0-1.93.6-2.33,1.54l-3.27,7.6c-.55,1.29.04,2.78,1.33,3.34.32.14.66.21,1,.21,1.02,0,1.93-.6,2.33-1.54l.63-1.47.59.25-.63,1.47c-.55,1.29.04,2.78,1.33,3.34.32.14.66.21,1,.21,1.02,0,1.93-.6,2.33-1.54l3.27-7.6c.27-.62.28-1.31.03-1.94-.25-.63-.73-1.13-1.36-1.39-.32-.14-.66-.21-1-.21-1.02,0-1.93.6-2.33,1.54l-.63,1.47-.59-.25.63-1.47c.27-.62.28-1.31.03-1.94-.25-.63-.73-1.13-1.36-1.39-.32-.14-.66-.21-1-.21h0Z"/>
    </g>
    <g>
      <path class="cls-10" d="m124.75,177.28c-.43-.19-.76-.57-.89-1.04l-2.56-9.23-2.59,5.82c-.36.81-1.31,1.17-2.12.81s-1.17-1.31-.81-2.12l4.4-9.91c.27-.62.91-1,1.58-.95.67.05,1.25.52,1.43,1.17l2.56,9.23,2.59-5.82c.36-.81,1.31-1.17,2.12-.81s1.17,1.31.81,2.12l-4.4,9.91c-.27.62-.91,1-1.58.95-.19-.01-.37-.06-.53-.13Z"/>
      <path class="cls-3" d="m121.65,160.68s.08,0,.12,0c.67.05,1.25.52,1.43,1.17l2.56,9.23,2.59-5.82c.27-.6.85-.95,1.47-.95.22,0,.44.04.65.14.81.36,1.17,1.31.81,2.12l-4.4,9.91c-.26.58-.84.95-1.47.95-.04,0-.08,0-.12,0-.19-.01-.37-.06-.53-.13-.43-.19-.76-.57-.89-1.04l-2.56-9.23-2.59,5.82c-.27.6-.85.95-1.47.95-.22,0-.44-.04-.65-.14-.81-.36-1.17-1.31-.81-2.12l4.4-9.91c.26-.58.84-.95,1.47-.95m0-1.7c-1.31,0-2.49.77-3.02,1.96l-4.4,9.91c-.74,1.67.01,3.62,1.68,4.36.43.19.88.29,1.34.29,1.3,0,2.49-.77,3.02-1.96l.66-1.49,1.29,4.66c.26.95.93,1.73,1.84,2.14.35.15.71.25,1.09.28.09,0,.17,0,.25,0,1.31,0,2.49-.77,3.02-1.96l4.4-9.91c.74-1.67-.01-3.62-1.68-4.36-.43-.19-.88-.29-1.34-.29-1.3,0-2.49.77-3.02,1.96l-.66,1.49-1.29-4.66c-.37-1.34-1.55-2.31-2.94-2.41-.08,0-.16,0-.24,0h0Z"/>
    </g>
    <g>
      <path class="cls-1" d="m29.04,54.19c-2.9.55-5.74-1.57-6.34-4.73s1.27-6.17,4.17-6.71,5.74,1.57,6.34,4.72-1.27,6.17-4.17,6.72Zm-1.69-8.94c-1.52.29-2.48,1.97-2.15,3.74s1.85,2.99,3.37,2.7,2.48-1.97,2.15-3.74-1.85-2.99-3.37-2.7Z"/>
      <path class="cls-3" d="m27.79,42.66c2.56,0,4.88,1.99,5.42,4.81.6,3.15-1.27,6.17-4.17,6.72-.31.06-.62.09-.92.09-2.56,0-4.88-1.99-5.42-4.81-.6-3.15,1.27-6.17,4.17-6.71.31-.06.62-.09.92-.09m.32,9.07c.15,0,.3-.01.45-.04,1.52-.29,2.48-1.97,2.15-3.74-.3-1.6-1.56-2.74-2.92-2.74-.15,0-.3.01-.45.04-1.52.29-2.48,1.97-2.15,3.74.3,1.6,1.56,2.74,2.92,2.74m-.32-10.68h0c-.41,0-.82.04-1.22.11-3.77.71-6.22,4.57-5.45,8.6.67,3.55,3.62,6.12,7,6.12.41,0,.82-.04,1.22-.11,3.77-.71,6.22-4.57,5.45-8.6-.67-3.55-3.62-6.12-7-6.12h0Zm.32,9.07c-.52,0-1.17-.54-1.33-1.43-.09-.48-.02-.96.19-1.33.1-.17.31-.46.67-.53.05,0,.1-.01.15-.01.52,0,1.17.54,1.33,1.43.17.87-.24,1.74-.87,1.86-.05,0-.1.01-.15.01h0Z"/>
    </g>
    <g>
      <path class="cls-10" d="m134.81,32.21c-.39.22-.87.2-1.24-.06l-6.59-4.64c-.52-.37-.65-1.09-.28-1.61.36-.52,1.09-.65,1.61-.28l4.59,3.23-.42-5.6c-.05-.64.44-1.19,1.07-1.24.64-.05,1.19.43,1.24,1.07l.6,8.04c.03.45-.19.87-.58,1.09Z"/>
      <path class="cls-3" d="m133.63,22c.6,0,1.11.46,1.15,1.07l.6,8.04c.03.45-.19.87-.58,1.09-.18.1-.38.15-.57.15-.23,0-.47-.07-.67-.21l-6.59-4.64c-.52-.37-.65-1.09-.28-1.61.22-.32.58-.49.95-.49.23,0,.46.07.66.21l4.59,3.23-.42-5.6c-.05-.64.44-1.19,1.07-1.24.03,0,.06,0,.09,0m0-1.45c-.06,0-.13,0-.2,0-1.43.11-2.51,1.36-2.4,2.79l.19,2.54-2.08-1.47c-.44-.31-.96-.47-1.5-.47-.85,0-1.65.41-2.13,1.11-.83,1.17-.54,2.8.63,3.63l6.59,4.64c.44.31.96.47,1.5.47.45,0,.9-.12,1.29-.34.87-.5,1.39-1.46,1.31-2.46l-.6-8.04c-.1-1.35-1.24-2.41-2.6-2.41h0Z"/>
    </g>
  </g>
</svg>