<?xml version="1.0" encoding="UTF-8"?>
<svg id="Layer_2" data-name="Layer 2" xmlns="http://www.w3.org/2000/svg" viewBox="0 0 106.71 185.5">
  <defs>
    <style>
      .cls-1 {
        fill: #fff;
      }

      .cls-2 {
        fill: #95e0e6;
      }

      .cls-3 {
        fill: #565656;
      }

      .cls-4 {
        fill: #363636;
      }

      .cls-5 {
        fill: #33b0da;
      }

      .cls-6 {
        fill: #8dc05f;
      }

      .cls-7 {
        fill: #ffdfbc;
      }

      .cls-8 {
        fill: #ffd964;
      }
    </style>
  </defs>
  <g id="_背景ドット" data-name="背景ドット">
    <g>
      <path class="cls-1" d="m55.84,124.53c-.33,0-.59.27-.59.59s.27.59.59.59.59-.27.59-.59-.27-.59-.59-.59Z"/>
      <circle class="cls-1" cx="55.84" cy="132.07" r=".59"/>
      <path class="cls-1" d="m53.24,114.7c0,.33.27.59.59.59.07,0,.14-.02.21-.04-.18-.34-.36-.68-.55-1.02-.15.11-.25.27-.25.47Z"/>
      <path class="cls-1" d="m51.83,124.53c-.33,0-.59.27-.59.59s.27.59.59.59.59-.27.59-.59-.27-.59-.59-.59Z"/>
      <path class="cls-1" d="m53.84,122.24c.33,0,.59-.27.59-.59s-.27-.59-.59-.59-.59.27-.59.59.27.59.59.59Z"/>
      <path class="cls-1" d="m55.25,118.17c0,.22.12.4.29.5-.08-.23-.17-.45-.26-.67-.02.06-.04.11-.04.17Z"/>
      <path class="cls-1" d="m51.83,131.48c-.33,0-.59.27-.59.59s.27.59.59.59.59-.27.59-.59-.27-.59-.59-.59Z"/>
      <path class="cls-1" d="m53.24,128.6c0,.33.27.59.59.59s.59-.27.59-.59-.27-.59-.59-.59-.59.27-.59.59Z"/>
      <path class="cls-1" d="m53.84,134.96c-.33,0-.59.27-.59.59s.27.59.59.59.59-.27.59-.59-.27-.59-.59-.59Z"/>
      <path class="cls-1" d="m53.24,142.5c0,.12.04.22.1.31.17-.3.34-.6.51-.9,0,0,0,0-.01,0-.33,0-.59.27-.59.59Z"/>
      <path class="cls-1" d="m51.24,118.17c0,.33.27.59.59.59s.59-.27.59-.59-.27-.59-.59-.59-.59.27-.59.59Z"/>
      <path class="cls-1" d="m47.82,117.58c-.33,0-.59.27-.59.59s.27.59.59.59.59-.27.59-.59-.27-.59-.59-.59Z"/>
      <circle class="cls-1" cx="49.82" cy="114.7" r=".59"/>
      <path class="cls-1" d="m51.24,111.22c0,.33.27.59.59.59.04,0,.07-.01.11-.02-.2-.29-.41-.57-.62-.85-.04.08-.08.17-.08.28Z"/>
      <path class="cls-1" d="m47.82,124.53c-.33,0-.59.27-.59.59s.27.59.59.59.59-.27.59-.59-.27-.59-.59-.59Z"/>
      <circle class="cls-1" cx="49.82" cy="121.65" r=".59"/>
      <path class="cls-1" d="m47.82,131.48c-.33,0-.59.27-.59.59s.27.59.59.59.59-.27.59-.59-.27-.59-.59-.59Z"/>
      <path class="cls-1" d="m49.23,128.6c0,.33.27.59.59.59s.59-.27.59-.59-.27-.59-.59-.59-.59.27-.59.59Z"/>
      <path class="cls-1" d="m47.82,138.43c-.33,0-.59.27-.59.59s.27.59.59.59.59-.27.59-.59-.27-.59-.59-.59Z"/>
      <circle class="cls-1" cx="49.82" cy="135.55" r=".59"/>
      <path class="cls-1" d="m51.25,145.92c.13-.16.25-.33.38-.49-.21.08-.35.26-.38.49Z"/>
      <path class="cls-1" d="m47.82,145.38c-.33,0-.59.27-.59.59s.27.59.59.59.59-.27.59-.59-.27-.59-.59-.59Z"/>
      <circle class="cls-1" cx="49.82" cy="142.5" r=".59"/>
      <path class="cls-1" d="m51.83,139.62c.33,0,.59-.27.59-.59s-.27-.59-.59-.59-.59.27-.59.59.27.59.59.59Z"/>
      <circle class="cls-1" cx="43.8" cy="111.22" r=".59"/>
      <path class="cls-1" d="m45.81,108.34c.33,0,.59-.27.59-.59s-.27-.59-.59-.59-.59.27-.59.59.27.59.59.59Z"/>
      <circle class="cls-1" cx="43.8" cy="118.17" r=".59"/>
      <path class="cls-1" d="m46.4,114.7c0-.33-.27-.59-.59-.59s-.59.27-.59.59.27.59.59.59.59-.27.59-.59Z"/>
      <path class="cls-1" d="m47.82,111.81c.33,0,.59-.27.59-.59s-.27-.59-.59-.59-.59.27-.59.59.27.59.59.59Z"/>
      <path class="cls-1" d="m43.8,124.53c-.33,0-.59.27-.59.59s.27.59.59.59.59-.27.59-.59-.27-.59-.59-.59Z"/>
      <path class="cls-1" d="m46.4,121.65c0-.33-.27-.59-.59-.59s-.59.27-.59.59.27.59.59.59.59-.27.59-.59Z"/>
      <path class="cls-1" d="m46.4,128.6c0-.33-.27-.59-.59-.59s-.59.27-.59.59.27.59.59.59.59-.27.59-.59Z"/>
      <path class="cls-1" d="m45.22,135.55c0,.33.27.59.59.59s.59-.27.59-.59-.27-.59-.59-.59-.59.27-.59.59Z"/>
      <path class="cls-1" d="m45.22,142.5c0,.33.27.59.59.59s.59-.27.59-.59-.27-.59-.59-.59-.59.27-.59.59Z"/>
      <path class="cls-1" d="m45.22,149.45c0,.33.27.59.59.59s.59-.27.59-.59-.27-.59-.59-.59-.59.27-.59.59Z"/>
      <path class="cls-1" d="m43.21,104.27c0,.33.27.59.59.59.26,0,.48-.17.56-.4-.32-.21-.64-.42-.96-.62-.11.11-.19.26-.19.43Z"/>
      <path class="cls-1" d="m39.79,103.67c-.33,0-.59.27-.59.59s.27.59.59.59.59-.27.59-.59-.27-.59-.59-.59Z"/>
      <path class="cls-1" d="m39.79,110.63c-.33,0-.59.27-.59.59s.27.59.59.59.59-.27.59-.59-.27-.59-.59-.59Z"/>
      <circle class="cls-1" cx="41.8" cy="107.74" r=".59"/>
      <path class="cls-1" d="m39.79,117.58c-.33,0-.59.27-.59.59s.27.59.59.59.59-.27.59-.59-.27-.59-.59-.59Z"/>
      <circle class="cls-1" cx="41.8" cy="114.7" r=".59"/>
      <path class="cls-1" d="m39.79,124.53c-.33,0-.59.27-.59.59s.27.59.59.59.59-.27.59-.59-.27-.59-.59-.59Z"/>
      <circle class="cls-1" cx="41.8" cy="121.65" r=".59"/>
      <path class="cls-1" d="m39.79,131.48c-.33,0-.59.27-.59.59s.27.59.59.59.59-.27.59-.59-.27-.59-.59-.59Z"/>
      <path class="cls-1" d="m42.39,128.6c0-.33-.27-.59-.59-.59s-.59.27-.59.59.27.59.59.59.59-.27.59-.59Z"/>
      <path class="cls-1" d="m39.79,138.43c-.33,0-.59.27-.59.59s.27.59.59.59.59-.27.59-.59-.27-.59-.59-.59Z"/>
      <circle class="cls-1" cx="41.8" cy="135.55" r=".59"/>
      <circle class="cls-1" cx="43.8" cy="132.07" r=".59"/>
      <path class="cls-1" d="m39.79,145.38c-.33,0-.59.27-.59.59s.27.59.59.59.59-.27.59-.59-.27-.59-.59-.59Z"/>
      <circle class="cls-1" cx="41.8" cy="142.5" r=".59"/>
      <circle class="cls-1" cx="43.8" cy="139.03" r=".59"/>
      <path class="cls-1" d="m44.15,152.46c-.1-.07-.21-.12-.34-.12-.33,0-.59.27-.59.59,0,.04.01.07.02.1.31-.19.61-.38.92-.57Z"/>
      <path class="cls-1" d="m39.79,152.34c-.33,0-.59.27-.59.59s.27.59.59.59.59-.27.59-.59-.27-.59-.59-.59Z"/>
      <path class="cls-1" d="m41.2,149.45c0,.33.27.59.59.59s.59-.27.59-.59-.27-.59-.59-.59-.59.27-.59.59Z"/>
      <circle class="cls-1" cx="43.8" cy="145.98" r=".59"/>
      <path class="cls-1" d="m35.78,103.67c-.33,0-.59.27-.59.59s.27.59.59.59.59-.27.59-.59-.27-.59-.59-.59Z"/>
      <path class="cls-1" d="m37.78,101.39c.09,0,.18-.03.26-.07-.26-.09-.52-.18-.79-.27.1.19.29.33.53.33Z"/>
      <circle class="cls-1" cx="35.78" cy="111.22" r=".59"/>
      <path class="cls-1" d="m38.38,107.74c0-.33-.27-.59-.59-.59s-.59.27-.59.59.27.59.59.59.59-.27.59-.59Z"/>
      <circle class="cls-1" cx="35.78" cy="118.17" r=".59"/>
      <path class="cls-1" d="m37.78,114.1c-.33,0-.59.27-.59.59s.27.59.59.59.59-.27.59-.59-.27-.59-.59-.59Z"/>
      <path class="cls-1" d="m35.78,124.53c-.33,0-.59.27-.59.59s.27.59.59.59.59-.27.59-.59-.27-.59-.59-.59Z"/>
      <path class="cls-1" d="m38.38,121.65c0-.33-.27-.59-.59-.59s-.59.27-.59.59.27.59.59.59.59-.27.59-.59Z"/>
      <circle class="cls-1" cx="35.78" cy="132.07" r=".59"/>
      <path class="cls-1" d="m38.38,128.6c0-.33-.27-.59-.59-.59s-.59.27-.59.59.27.59.59.59.59-.27.59-.59Z"/>
      <circle class="cls-1" cx="35.78" cy="139.03" r=".59"/>
      <path class="cls-1" d="m37.19,135.55c0,.33.27.59.59.59s.59-.27.59-.59-.27-.59-.59-.59-.59.27-.59.59Z"/>
      <circle class="cls-1" cx="35.78" cy="145.98" r=".59"/>
      <path class="cls-1" d="m37.19,142.5c0,.33.27.59.59.59s.59-.27.59-.59-.27-.59-.59-.59-.59.27-.59.59Z"/>
      <path class="cls-1" d="m35.78,152.34c-.33,0-.59.27-.59.59s.27.59.59.59.59-.27.59-.59-.27-.59-.59-.59Z"/>
      <path class="cls-1" d="m37.19,149.45c0,.33.27.59.59.59s.59-.27.59-.59-.27-.59-.59-.59-.59.27-.59.59Z"/>
      <path class="cls-1" d="m31.76,103.67c-.33,0-.59.27-.59.59s.27.59.59.59.59-.27.59-.59-.27-.59-.59-.59Z"/>
      <path class="cls-1" d="m34.36,100.79c0-.33-.27-.59-.59-.59s-.59.27-.59.59.27.59.59.59.59-.27.59-.59Z"/>
      <path class="cls-1" d="m31.76,110.63c-.33,0-.59.27-.59.59s.27.59.59.59.59-.27.59-.59-.27-.59-.59-.59Z"/>
      <path class="cls-1" d="m34.36,107.74c0-.33-.27-.59-.59-.59s-.59.27-.59.59.27.59.59.59.59-.27.59-.59Z"/>
      <path class="cls-1" d="m31.76,117.58c-.33,0-.59.27-.59.59s.27.59.59.59.59-.27.59-.59-.27-.59-.59-.59Z"/>
      <path class="cls-1" d="m34.36,114.7c0-.33-.27-.59-.59-.59s-.59.27-.59.59.27.59.59.59.59-.27.59-.59Z"/>
      <path class="cls-1" d="m31.76,124.53c-.33,0-.59.27-.59.59s.27.59.59.59.59-.27.59-.59-.27-.59-.59-.59Z"/>
      <path class="cls-1" d="m33.77,121.05c-.33,0-.59.27-.59.59s.27.59.59.59.59-.27.59-.59-.27-.59-.59-.59Z"/>
      <path class="cls-1" d="m31.76,131.48c-.33,0-.59.27-.59.59s.27.59.59.59.59-.27.59-.59-.27-.59-.59-.59Z"/>
      <path class="cls-1" d="m34.36,128.6c0-.33-.27-.59-.59-.59s-.59.27-.59.59.27.59.59.59.59-.27.59-.59Z"/>
      <path class="cls-1" d="m31.76,138.43c-.33,0-.59.27-.59.59s.27.59.59.59.59-.27.59-.59-.27-.59-.59-.59Z"/>
      <path class="cls-1" d="m33.17,135.55c0,.33.27.59.59.59s.59-.27.59-.59-.27-.59-.59-.59-.59.27-.59.59Z"/>
      <path class="cls-1" d="m31.76,145.38c-.33,0-.59.27-.59.59s.27.59.59.59.59-.27.59-.59-.27-.59-.59-.59Z"/>
      <path class="cls-1" d="m33.17,142.5c0,.33.27.59.59.59s.59-.27.59-.59-.27-.59-.59-.59-.59.27-.59.59Z"/>
      <path class="cls-1" d="m31.76,152.34c-.33,0-.59.27-.59.59s.27.59.59.59.59-.27.59-.59-.27-.59-.59-.59Z"/>
      <path class="cls-1" d="m33.17,149.45c0,.33.27.59.59.59s.59-.27.59-.59-.27-.59-.59-.59-.59.27-.59.59Z"/>
      <path class="cls-1" d="m33.77,155.81c-.33,0-.59.27-.59.59,0,.1.03.19.08.28.37-.06.73-.12,1.09-.2,0-.03.02-.05.02-.08,0-.33-.27-.59-.59-.59Z"/>
      <path class="cls-1" d="m27.75,103.67c-.33,0-.59.27-.59.59s.27.59.59.59.59-.27.59-.59-.27-.59-.59-.59Z"/>
      <path class="cls-1" d="m30.35,100.79c0-.33-.27-.59-.59-.59s-.59.27-.59.59.27.59.59.59.59-.27.59-.59Z"/>
      <circle class="cls-1" cx="27.75" cy="111.22" r=".59"/>
      <circle class="cls-1" cx="29.75" cy="107.74" r=".59"/>
      <circle class="cls-1" cx="27.75" cy="118.17" r=".59"/>
      <circle class="cls-1" cx="29.75" cy="114.7" r=".59"/>
      <path class="cls-1" d="m27.75,124.53c-.33,0-.59.27-.59.59s.27.59.59.59.59-.27.59-.59-.27-.59-.59-.59Z"/>
      <circle class="cls-1" cx="29.75" cy="121.65" r=".59"/>
      <circle class="cls-1" cx="27.75" cy="132.07" r=".59"/>
      <path class="cls-1" d="m29.16,128.6c0,.33.27.59.59.59s.59-.27.59-.59-.27-.59-.59-.59-.59.27-.59.59Z"/>
      <circle class="cls-1" cx="27.75" cy="139.03" r=".59"/>
      <circle class="cls-1" cx="29.75" cy="135.55" r=".59"/>
      <circle class="cls-1" cx="27.75" cy="145.98" r=".59"/>
      <circle class="cls-1" cx="29.75" cy="142.5" r=".59"/>
      <path class="cls-1" d="m27.75,152.34c-.33,0-.59.27-.59.59s.27.59.59.59.59-.27.59-.59-.27-.59-.59-.59Z"/>
      <path class="cls-1" d="m29.16,149.45c0,.33.27.59.59.59s.59-.27.59-.59-.27-.59-.59-.59-.59.27-.59.59Z"/>
      <circle class="cls-1" cx="29.75" cy="156.41" r=".59"/>
      <path class="cls-1" d="m23.73,103.67c-.33,0-.59.27-.59.59s.27.59.59.59.59-.27.59-.59-.27-.59-.59-.59Z"/>
      <path class="cls-1" d="m26.33,100.79c0-.33-.27-.59-.59-.59s-.59.27-.59.59.27.59.59.59.59-.27.59-.59Z"/>
      <path class="cls-1" d="m23.73,110.63c-.33,0-.59.27-.59.59s.27.59.59.59.59-.27.59-.59-.27-.59-.59-.59Z"/>
      <path class="cls-1" d="m26.33,107.74c0-.33-.27-.59-.59-.59s-.59.27-.59.59.27.59.59.59.59-.27.59-.59Z"/>
      <path class="cls-1" d="m23.73,117.58c-.33,0-.59.27-.59.59s.27.59.59.59.59-.27.59-.59-.27-.59-.59-.59Z"/>
      <path class="cls-1" d="m26.33,114.7c0-.33-.27-.59-.59-.59s-.59.27-.59.59.27.59.59.59.59-.27.59-.59Z"/>
      <path class="cls-1" d="m26.33,121.65c0-.33-.27-.59-.59-.59s-.59.27-.59.59.27.59.59.59.59-.27.59-.59Z"/>
      <path class="cls-1" d="m23.73,131.48c-.33,0-.59.27-.59.59s.27.59.59.59.59-.27.59-.59-.27-.59-.59-.59Z"/>
      <path class="cls-1" d="m25.74,129.19c.33,0,.59-.27.59-.59s-.27-.59-.59-.59-.59.27-.59.59.27.59.59.59Z"/>
      <path class="cls-1" d="m23.73,138.43c-.33,0-.59.27-.59.59s.27.59.59.59.59-.27.59-.59-.27-.59-.59-.59Z"/>
      <path class="cls-1" d="m25.15,135.55c0,.33.27.59.59.59s.59-.27.59-.59-.27-.59-.59-.59-.59.27-.59.59Z"/>
      <path class="cls-1" d="m23.73,145.38c-.33,0-.59.27-.59.59s.27.59.59.59.59-.27.59-.59-.27-.59-.59-.59Z"/>
      <path class="cls-1" d="m25.15,142.5c0,.33.27.59.59.59s.59-.27.59-.59-.27-.59-.59-.59-.59.27-.59.59Z"/>
      <path class="cls-1" d="m23.73,152.34c-.33,0-.59.27-.59.59s.27.59.59.59.59-.27.59-.59-.27-.59-.59-.59Z"/>
      <path class="cls-1" d="m25.15,149.45c0,.33.27.59.59.59s.59-.27.59-.59-.27-.59-.59-.59-.59.27-.59.59Z"/>
      <path class="cls-1" d="m26.33,156.41c0-.33-.27-.59-.59-.59s-.59.27-.59.59c0,.22.12.4.29.5.17.02.35.03.53.05.22-.09.37-.3.37-.55Z"/>
      <path class="cls-1" d="m19.72,103.67c-.33,0-.59.27-.59.59s.27.59.59.59.59-.27.59-.59-.27-.59-.59-.59Z"/>
      <path class="cls-1" d="m21.73,101.39c.33,0,.59-.27.59-.59,0-.14-.06-.27-.14-.37-.34.08-.68.16-1.02.25,0,.04-.02.08-.02.12,0,.33.27.59.59.59Z"/>
      <path class="cls-1" d="m19.72,110.63c-.33,0-.59.27-.59.59s.27.59.59.59.59-.27.59-.59-.27-.59-.59-.59Z"/>
      <circle class="cls-1" cx="21.73" cy="107.74" r=".59"/>
      <circle class="cls-1" cx="21.73" cy="114.7" r=".59"/>
      <path class="cls-1" d="m19.72,124.53c-.33,0-.59.27-.59.59s.27.59.59.59.59-.27.59-.59-.27-.59-.59-.59Z"/>
      <circle class="cls-1" cx="21.73" cy="121.65" r=".59"/>
      <path class="cls-1" d="m19.72,131.48c-.33,0-.59.27-.59.59s.27.59.59.59.59-.27.59-.59-.27-.59-.59-.59Z"/>
      <path class="cls-1" d="m22.32,128.6c0-.33-.27-.59-.59-.59s-.59.27-.59.59.27.59.59.59.59-.27.59-.59Z"/>
      <path class="cls-1" d="m23.73,125.72c.33,0,.59-.27.59-.59s-.27-.59-.59-.59-.59.27-.59.59.27.59.59.59Z"/>
      <path class="cls-1" d="m19.72,138.43c-.33,0-.59.27-.59.59s.27.59.59.59.59-.27.59-.59-.27-.59-.59-.59Z"/>
      <circle class="cls-1" cx="21.73" cy="135.55" r=".59"/>
      <path class="cls-1" d="m19.72,145.38c-.33,0-.59.27-.59.59s.27.59.59.59.59-.27.59-.59-.27-.59-.59-.59Z"/>
      <circle class="cls-1" cx="21.73" cy="142.5" r=".59"/>
      <path class="cls-1" d="m19.72,152.34c-.33,0-.59.27-.59.59s.27.59.59.59.59-.27.59-.59-.27-.59-.59-.59Z"/>
      <path class="cls-1" d="m21.13,149.45c0,.33.27.59.59.59s.59-.27.59-.59-.27-.59-.59-.59-.59.27-.59.59Z"/>
      <path class="cls-1" d="m21.73,155.81c-.22,0-.41.13-.51.31.36.1.73.18,1.1.26,0-.32-.27-.58-.59-.58Z"/>
      <path class="cls-1" d="m15.71,103.67c-.33,0-.59.27-.59.59s.27.59.59.59.59-.27.59-.59-.27-.59-.59-.59Z"/>
      <path class="cls-1" d="m18.31,107.74c0-.33-.27-.59-.59-.59s-.59.27-.59.59.27.59.59.59.59-.27.59-.59Z"/>
      <circle class="cls-1" cx="15.71" cy="118.17" r=".59"/>
      <path class="cls-1" d="m17.71,115.29c.33,0,.59-.27.59-.59s-.27-.59-.59-.59-.59.27-.59.59.27.59.59.59Z"/>
      <path class="cls-1" d="m15.71,124.53c-.33,0-.59.27-.59.59s.27.59.59.59.59-.27.59-.59-.27-.59-.59-.59Z"/>
      <path class="cls-1" d="m18.31,121.65c0-.33-.27-.59-.59-.59s-.59.27-.59.59.27.59.59.59.59-.27.59-.59Z"/>
      <path class="cls-1" d="m19.72,118.76c.33,0,.59-.27.59-.59s-.27-.59-.59-.59-.59.27-.59.59.27.59.59.59Z"/>
      <circle class="cls-1" cx="15.71" cy="132.07" r=".59"/>
      <path class="cls-1" d="m18.31,128.6c0-.33-.27-.59-.59-.59s-.59.27-.59.59.27.59.59.59.59-.27.59-.59Z"/>
      <circle class="cls-1" cx="15.71" cy="139.03" r=".59"/>
      <path class="cls-1" d="m17.12,135.55c0,.33.27.59.59.59s.59-.27.59-.59-.27-.59-.59-.59-.59.27-.59.59Z"/>
      <circle class="cls-1" cx="15.71" cy="145.98" r=".59"/>
      <path class="cls-1" d="m17.12,142.5c0,.33.27.59.59.59s.59-.27.59-.59-.27-.59-.59-.59-.59.27-.59.59Z"/>
      <path class="cls-1" d="m15.71,152.34c-.33,0-.59.27-.59.59s.27.59.59.59.59-.27.59-.59-.27-.59-.59-.59Z"/>
      <path class="cls-1" d="m17.12,149.45c0,.33.27.59.59.59s.59-.27.59-.59-.27-.59-.59-.59-.59.27-.59.59Z"/>
      <path class="cls-1" d="m11.69,110.63c-.33,0-.59.27-.59.59s.27.59.59.59.59-.27.59-.59-.27-.59-.59-.59Z"/>
      <circle class="cls-1" cx="13.7" cy="107.74" r=".59"/>
      <path class="cls-1" d="m11.69,117.58c-.33,0-.59.27-.59.59s.27.59.59.59.59-.27.59-.59-.27-.59-.59-.59Z"/>
      <circle class="cls-1" cx="13.7" cy="114.7" r=".59"/>
      <circle class="cls-1" cx="15.71" cy="111.22" r=".59"/>
      <path class="cls-1" d="m11.69,124.53c-.33,0-.59.27-.59.59s.27.59.59.59.59-.27.59-.59-.27-.59-.59-.59Z"/>
      <circle class="cls-1" cx="13.7" cy="121.65" r=".59"/>
      <path class="cls-1" d="m11.69,131.48c-.33,0-.59.27-.59.59s.27.59.59.59.59-.27.59-.59-.27-.59-.59-.59Z"/>
      <path class="cls-1" d="m14.29,128.6c0-.33-.27-.59-.59-.59s-.59.27-.59.59.27.59.59.59.59-.27.59-.59Z"/>
      <path class="cls-1" d="m11.69,138.43c-.33,0-.59.27-.59.59s.27.59.59.59.59-.27.59-.59-.27-.59-.59-.59Z"/>
      <circle class="cls-1" cx="13.7" cy="135.55" r=".59"/>
      <path class="cls-1" d="m11.69,145.38c-.33,0-.59.27-.59.59s.27.59.59.59.59-.27.59-.59-.27-.59-.59-.59Z"/>
      <circle class="cls-1" cx="13.7" cy="142.5" r=".59"/>
      <path class="cls-1" d="m14.29,149.45c0-.33-.27-.59-.59-.59s-.59.27-.59.59.27.59.59.59.59-.27.59-.59Z"/>
      <path class="cls-1" d="m10.28,107.74c0-.33-.27-.59-.59-.59s-.59.27-.59.59.27.59.59.59.59-.27.59-.59Z"/>
      <circle class="cls-1" cx="7.68" cy="118.17" r=".59"/>
      <path class="cls-1" d="m9.69,114.1c-.33,0-.59.27-.59.59s.27.59.59.59.59-.27.59-.59-.27-.59-.59-.59Z"/>
      <path class="cls-1" d="m7.68,124.53c-.33,0-.59.27-.59.59s.27.59.59.59.59-.27.59-.59-.27-.59-.59-.59Z"/>
      <path class="cls-1" d="m10.28,121.65c0-.33-.27-.59-.59-.59s-.59.27-.59.59.27.59.59.59.59-.27.59-.59Z"/>
      <path class="cls-1" d="m10.28,128.6c0-.33-.27-.59-.59-.59s-.59.27-.59.59.27.59.59.59.59-.27.59-.59Z"/>
      <circle class="cls-1" cx="7.68" cy="139.03" r=".59"/>
      <path class="cls-1" d="m9.09,135.55c0,.33.27.59.59.59s.59-.27.59-.59-.27-.59-.59-.59-.59.27-.59.59Z"/>
      <circle class="cls-1" cx="7.68" cy="145.98" r=".59"/>
      <path class="cls-1" d="m9.09,142.5c0,.33.27.59.59.59s.59-.27.59-.59-.27-.59-.59-.59-.59.27-.59.59Z"/>
      <path class="cls-1" d="m10.28,149.45c0-.33-.27-.59-.59-.59s-.59.27-.59.59c0,0,0,0,0,.01.21.19.43.38.64.57.3-.03.54-.27.54-.58Z"/>
      <circle class="cls-1" cx="7.68" cy="111.22" r=".59"/>
      <circle class="cls-1" cx="5.67" cy="114.7" r=".59"/>
      <circle class="cls-1" cx="5.67" cy="121.65" r=".59"/>
      <path class="cls-1" d="m5.67,129.19c.33,0,.59-.27.59-.59s-.27-.59-.59-.59-.59.27-.59.59.27.59.59.59Z"/>
      <path class="cls-1" d="m3.67,138.43c-.33,0-.59.27-.59.59s.27.59.59.59.59-.27.59-.59-.27-.59-.59-.59Z"/>
      <circle class="cls-1" cx="5.67" cy="135.55" r=".59"/>
      <circle class="cls-1" cx="7.68" cy="132.07" r=".59"/>
      <circle class="cls-1" cx="5.67" cy="142.5" r=".59"/>
      <path class="cls-1" d="m1.66,122.24c.33,0,.59-.27.59-.59s-.27-.59-.59-.59-.59.27-.59.59.27.59.59.59Z"/>
      <path class="cls-1" d="m3.67,118.76c.33,0,.59-.27.59-.59s-.27-.59-.59-.59-.59.27-.59.59.27.59.59.59Z"/>
      <path class="cls-1" d="m1.66,129.19c.33,0,.59-.27.59-.59s-.27-.59-.59-.59-.59.27-.59.59.27.59.59.59Z"/>
      <path class="cls-1" d="m3.67,125.72c.33,0,.59-.27.59-.59s-.27-.59-.59-.59-.59.27-.59.59.27.59.59.59Z"/>
      <path class="cls-1" d="m.25,125.12c0-.15-.06-.27-.15-.38-.04.28-.07.56-.1.85.15-.11.25-.27.25-.47Z"/>
      <path class="cls-1" d="m1.66,136.14c.33,0,.59-.27.59-.59s-.27-.59-.59-.59-.59.27-.59.59.27.59.59.59Z"/>
      <path class="cls-1" d="m3.67,132.67c.33,0,.59-.27.59-.59s-.27-.59-.59-.59-.59.27-.59.59.27.59.59.59Z"/>
      <path class="cls-1" d="m.15,132.39c.06-.09.1-.19.1-.31,0-.17-.08-.33-.2-.43.03.25.06.5.09.75Z"/>
    </g>
  </g>
  <g id="_人物" data-name="人物">
    <g>
      <g>
        <path class="cls-1" d="m72.31,47.06c0,.07-1.74-3.9-2.7-4.56,0,0-1.35-1.62-5.41-1.58l-12.03-.58s-3.53,1.29-4.33,1.66c-.6.27-1.96,1.91-2.89,3.16-.25.33-.43.71-.54,1.1h0c-1.33.98-3.83,2.53-6.59,3.82-2.76,1.3-4.24.43-6.09,4.38-1.85,3.95-2.46,6.79-3.25,9.2l30.52,2.05s21.06-11.56,26.8-14.22c0,0-6.26-2.95-13.5-4.45Z"/>
        <path class="cls-7" d="m71.52,22.6c-.21-1.81-1.09-4.86-5.53-6.99l-5.51-10.31-16.21,2.83c-2.12,3.11-2.85,8-2.16,12.54l-.02-.08c-3.2.55-4.75,3.29-3.98,6.53.78,3.24,4.24,4.95,7.23,4.54h0c.22.37.45.73.69,1.04,1.42,1.84,3.4,3.67,5.84,4.74.17,1.21.32,3.08-.21,4.31-.83,1.94-2.22,3.12-1.44,5.68s5.77,12.23,5.77,12.23l8.52-1.23c.8-4.66.84-15.55.84-15.55,0,0-1.76-3.78-2.28-7.69h0c1.57-1.7,2.74-3.85,3.22-5.85,4.87-2.33,5.44-5.02,5.24-6.73Z"/>
        <path class="cls-1" d="m79.65,99.18s2.97,5.87,8.98,4.8,9.78-5.37,11.28-10.53c1.5-5.16-.43-7.03-2.04-8.94,0,0-.69-3.46-1.09-5.57,0,0-1.63,1.28-3.68,2.68l.8,5.1c.19,1.19-.56,2.33-1.73,2.63-4.13,1.06-14,4.01-25.48,10.43,0,0,10.19.17,12.96-.59Z"/>
        <path class="cls-8" d="m44.78,98.55c4.92.21,12.48.6,18.21,1.21,2.08.22,4.16-.18,6.02-1.14,8.93-4.61,20.1-8.5,23.91-9.78.78-.26,1.24-1.05,1.1-1.85l-1.84-10.66-1.42-8.25-2.64-15.34c-.18-1.07-1.33-1.69-2.32-1.23-7.3,3.36-20.92,10.91-25.17,13.28-.85.48-1.82.7-2.79.64l-28.64-1.61c-1.2-.07-2.07,1.12-1.65,2.24l11.66,30.89c.39,1.03,1.38,1.7,2.48,1.67l3.08-.07Z"/>
        <path class="cls-4" d="m51.65,42.26c2.94,1.51,6.12.29,6.05-3.98,0,0-2.88.69-5.42-.66,0,0,.86,1.9-.64,4.64Z"/>
        <path class="cls-2" d="m68.53,27.67c3.33-1.95,5.06-6.21,5.01-9.86-.08-5.29-4.46-10.46-8.24-13.65-5.82-4.92-14.24-3.62-17.1-.7-3.44-.04-6.97,2.7-8.63,7.26-1.66,4.57-1.97,9.02-1.61,14.06,0,0,.47-3.93,4.2-3.72-.8-4.65-.07-9.73,2.11-12.93,1.22,3.02,4,7.36,9.24,9.97.53.26,1.01-.43.6-.84-2.04-2.01-4.79-5.35-5.29-9.13,0,0,4.94,6.73,14.39,5.51,7.47,5.03,10.79,8.15,5.32,14.02Z"/>
        <path class="cls-5" d="m85.73,184.62c-1.1-5.17-1.87-15.08-1.87-27.41s1.76-26.31,1.87-34.24c.11-7.93-2.97-12.11-5.6-18.82-.37-1.86-.48-4.97-.48-4.97-9.99,2.1-34.87-.63-34.87-.63l-2.91,2.38.59,6.43c-1.96,6.38-3.83,17.91-3.74,34.54s2.1,31.82,3.74,41.29c4.95,1.43,13.54.86,16.68,0,6.72,2.86,19.82,2.72,26.59,1.43Z"/>
        <path class="cls-7" d="m60.76,92.38c2.21-.35,4-.34,5.3-.37,1.55-.04,2.97-.89,3.7-2.26.55-1.04,1.25-2.28,1.97-3.44.44-.71.18-1.64-.57-2.01h0c-.59-.29-1.31-.13-1.71.39-.55.7-1.31,1.7-1.89,2.57-.36.55-.97.87-1.63.9l-1.27.04c-.49.02-.73-.58-.37-.9,1.82-1.59,5.53-4.85,8.07-7.07.59-.51.64-1.41.11-1.99h0c-.51-.56-1.36-.61-1.93-.12-1.73,1.48-5.23,4.52-7.02,6.39,1.71-1.79,5.21-4.83,7.13-6.48.71-.61.73-1.71.04-2.34h0c-.56-.51-1.41-.55-2.01-.08-1.94,1.5-6.11,4.74-8.2,6.49l-.93.84c1.82-1.71,4.56-3.86,6.11-5.05.65-.5.78-1.43.28-2.09h0c-.46-.61-1.31-.78-1.97-.39-4.1,2.41-7.87,5.59-9.2,6.76-.32.28-.77.37-1.17.23h0c-.69-.24-1.01-1.03-.68-1.68.21-.41.46-.91.72-1.48.35-.75.63-1.43.83-1.95.23-.58.05-1.24-.43-1.64h0c-.59-.49-1.45-.44-1.98.11-2.57,2.68-4.99,6.38-4.58,12,.47,6.32,3.98,7.37,3.98,7.37,0,0,4.79-2.02,9.31-2.74Z"/>
        <path class="cls-7" d="m97.16,72.34c-.09.07-.18.15-.27.23l-.23-.21c.3-.4.52-.78.61-1.1.4-1.4-1.11-2.72-2.77-1.87h0c.6-1.06.81-2.11-.21-2.79-.29-.2-.6-.28-.92-.27l.06-.61c.63-2.79-.63-4.62-1.37-5.45-.74-.82-1.99-1.16-2.63,0l1.34,7.8c-.23.26-.47.54-.71.84-1.69,2.12-2.16,3.55-.94,4.38.71.49,1.61.16,2.47-.5v.02s-.26.31-.26.31c-1.93,2.42-.5,3.7.86,3.19l.91,5.29s4.8-2.43,6.31-6.75h0c.22-.35.4-.7.51-1.01.61-1.69-1.29-2.7-2.77-1.51Z"/>
        <path class="cls-1" d="m46.16,97.15c-4.85,5.2-9.72,7.54-15.69,5.29-4.79-1.81-8.41-7.63-7.56-10.92.84-3.29,1.67-4.16.98-6.41-.69-2.25-1.3-3.12-.78-5.55s2.51-7.8,4.33-13.83l6.96,18.46s1.71.13,6.65,2.74l6.41-2.74s-.58,8.63,3.98,10.94l-5.28,2.04Z"/>
      </g>
      <g>
        <ellipse class="cls-4" cx="60.38" cy="20.59" rx="1.14" ry="1.26" transform="translate(-2.03 7.37) rotate(-6.87)"/>
        <ellipse class="cls-4" cx="49.95" cy="22.62" rx="1.14" ry="1.26" transform="translate(-2.35 6.14) rotate(-6.87)"/>
        <path class="cls-4" d="m56.23,39.22c-5.39,0-9.08-3.68-10.88-6.01-2.09-2.71-3.34-8.02-4.03-12.01-.87-5.06,0-10.25,2.24-13.55.18-.26.48-.4.79-.37.31.03.58.24.7.53,1.17,2.89,3.57,6.82,8.34,9.1.42.2.6.71.4,1.13-.2.42-.71.6-1.13.4-4.45-2.13-7.02-5.53-8.49-8.45-1.38,2.92-1.85,7.02-1.18,10.92.92,5.36,2.23,9.36,3.7,11.25,1.75,2.27,5.49,5.97,10.9,5.26,3.97-.52,7.65-5.53,8.05-9.34.41-3.88.16-7.08-.51-12.37-.06-.47.27-.89.74-.95.47-.07.89.27.95.74.59,4.69.97,8.35.51,12.76-.48,4.6-4.66,10.22-9.52,10.85-.54.07-1.07.1-1.58.1Z"/>
        <path class="cls-4" d="m44.45,32.56c-3.05,0-6.34-1.81-7.17-5.25-.46-1.9-.2-3.72.72-5.12.87-1.31,2.23-2.16,3.94-2.45.46-.08.9.23.98.7.08.46-.23.9-.7.98-1.23.21-2.2.8-2.8,1.71-.66,1-.83,2.35-.49,3.78.68,2.84,3.8,4.24,6.29,3.89.47-.06.89.26.96.73.06.47-.26.89-.73.96-.33.04-.67.07-1,.07Z"/>
        <path class="cls-4" d="m57.66,15.01c-.1,0-.19-.02-.29-.05-4.42-1.59-8.15-4.81-9.98-8.62-.2-.42-.03-.93.4-1.14.43-.2.93-.02,1.14.4,1.64,3.41,5.01,6.31,9.02,7.75.44.16.67.65.51,1.09-.12.35-.45.56-.8.56Z"/>
        <path class="cls-4" d="m66.39,29.7c-.34,0-.66-.21-.79-.55-.17-.44.05-.93.49-1.1,2.42-.93,3.55-2.59,4.07-3.82.61-1.43.36-3.17-.64-4.41-1.35-1.69-3.72-3.48-7.06-5.33-5.23-2.89-8.07-4.95-9.23-6.67-.26-.39-.16-.92.23-1.18.39-.26.92-.16,1.18.23,1.45,2.15,6.86,5.14,8.65,6.13,3.58,1.98,6.06,3.87,7.57,5.75,1.4,1.75,1.73,4.11.87,6.14-.65,1.53-2.05,3.6-5.03,4.74-.1.04-.2.06-.3.06Z"/>
        <path class="cls-4" d="m68.53,28.52c-.29,0-.58-.15-.73-.42-.24-.41-.1-.93.3-1.16,3.22-1.89,4.63-6.05,4.59-9.12-.09-5.93-6.1-11.46-7.94-13.02-5.67-4.79-13.54-3.21-15.94-.75-.16.17-.37.28-.62.26-.02,0-.04,0-.07,0-3.18,0-6.29,2.68-7.75,6.7-1.47,4.04-1.95,8.27-1.57,13.71.03.47-.32.88-.79.91-.47.01-.88-.32-.91-.79-.4-5.69.11-10.13,1.66-14.41,1.66-4.58,5.28-7.68,9.08-7.82,3.36-3.04,11.94-4.22,17.99.89,2.54,2.14,8.44,7.82,8.54,14.29.06,3.67-1.6,8.37-5.43,10.61-.13.08-.28.12-.43.12Z"/>
        <path class="cls-4" d="m41.87,38.06c-.16,0-.32-.02-.48-.05-.78-.17-1.43-.75-1.79-1.59-.32-.75-.39-1.66-.2-2.56.43-1.99,1.98-3.28,3.53-2.94.78.17,1.43.75,1.79,1.59.32.75.39,1.66.2,2.56h0c-.2.9-.64,1.69-1.24,2.24-.54.49-1.18.75-1.81.75Zm.58-5.49c-.51,0-1.16.63-1.39,1.66-.12.55-.08,1.1.1,1.53.08.19.27.52.59.59.32.07.63-.15.79-.29.34-.31.61-.8.72-1.35h0c.12-.55.08-1.1-.1-1.53-.08-.19-.27-.52-.59-.59-.04,0-.08-.01-.12-.01Z"/>
        <path class="cls-4" d="m69.09,34.53c-1.54,0-2.8-1.53-2.87-3.52-.03-.92.2-1.8.64-2.48.5-.76,1.25-1.22,2.04-1.25,1.63-.05,2.88,1.49,2.96,3.52h0c.07,2.03-1.11,3.67-2.69,3.73-.03,0-.06,0-.09,0Zm-.1-5.55h-.02c-.33.01-.57.31-.69.48-.25.39-.39.93-.37,1.49.04,1.13.64,1.9,1.19,1.88.53-.02,1.09-.83,1.05-1.97h0c-.04-1.12-.65-1.88-1.18-1.88Z"/>
        <path class="cls-4" d="m58.16,64.16c-.28,0-.55-.14-.71-.39-4.26-6.53-7.01-14.17-8-17.15-.39-1.17-.16-2.44.62-3.39,1.22-1.49,1.42-3.05,1.38-5.61,0-.47.37-.86.84-.86.47.04.86.37.86.84.05,2.9-.22,4.83-1.76,6.71-.41.5-.53,1.16-.32,1.77.97,2.92,3.66,10.39,7.81,16.76.26.39.14.92-.25,1.18-.14.09-.3.14-.46.14Z"/>
        <path class="cls-4" d="m49.26,38.79c-.27,0-.53-.13-.69-.36-.19-.27-.21-.63-.04-.91.11-.19.38-.78.38-1.25s.38-.85.85-.85c.37,0,.69.24.8.57.15-.02.29,0,.43.06.43.18.63.68.45,1.12-.45,1.06-1.48,1.51-2.02,1.61-.05,0-.1.01-.16.01Z"/>
        <path class="cls-4" d="m46.79,57.6c-.27,0-.53-.05-.79-.16-.62-.26-1.07-.81-1.21-1.47-.73-3.59-1.13-6.51-1.33-8.33-.12-1.07.16-2.13.8-2.99.66-.89,2.3-3,3.22-3.42.82-.38,4.25-1.64,4.4-1.69.44-.16.93.07,1.09.51.16.44-.07.93-.51,1.09-.97.36-3.64,1.35-4.27,1.64-.31.16-1.39,1.31-2.57,2.9-.38.51-.55,1.14-.48,1.78.2,1.78.59,4.65,1.31,8.18.03.15.14.21.2.24.06.02.18.05.3-.03,1.84-1.19,4.27-2.74,5.36-3.3.42-.22.93-.05,1.15.36s.05.93-.36,1.15c-.8.42-2.66,1.56-5.22,3.22-.33.21-.71.33-1.1.33Z"/>
        <path class="cls-4" d="m28.48,64.52c-.09,0-.18-.01-.27-.04-.45-.15-.69-.63-.54-1.07.2-.6.38-1.23.58-1.91.61-2.05,1.3-4.38,2.7-7.39,1.5-3.21,2.94-3.63,4.6-4.11.59-.17,1.2-.35,1.9-.68,2.67-1.25,5.16-2.78,6.44-3.74.38-.28.91-.2,1.19.17.28.38.2.91-.17,1.19-1.26.94-3.77,2.52-6.74,3.92-.82.38-1.52.59-2.15.77-1.52.44-2.36.69-3.54,3.2-1.35,2.89-2.02,5.15-2.61,7.15-.2.69-.39,1.33-.6,1.95-.12.36-.45.58-.81.58Z"/>
        <path class="cls-4" d="m54.06,44.03c-1.08,0-2.15-.39-2.98-1.14-.35-.31-.38-.85-.06-1.2.32-.35.85-.38,1.2-.06.79.71,1.96.91,2.89.48,1.16-.53,1.78-1.88,1.74-3.81,0-.47.36-.86.83-.87h.02c.46,0,.84.37.85.83.05,2.61-.95,4.57-2.73,5.39-.55.25-1.15.38-1.75.38Z"/>
        <path class="cls-4" d="m71.52,54.81c-.18,0-.35-.05-.5-.17-.75-.55-1.68-1.25-2.49-1.9-1.14-.9-2.19-1.15-2.61-.64-.3.36-.84.41-1.2.12-.36-.3-.41-.83-.12-1.2.81-.99,2.61-1.48,4.97.39.8.63,1.72,1.32,2.45,1.86.38.28.46.81.18,1.19-.17.23-.42.34-.68.34Z"/>
        <path class="cls-4" d="m72.73,54.13c-.44,0-.82-.34-.85-.79-.15-2.04-.34-4.87-.43-6.22-.02-.33-.15-.65-.38-.93-1.03-1.29-1.77-2.49-2.21-3.27-.21-.37-.59-.61-.99-.62-.99-.03-2.49-.19-3.99-.77-.44-.17-.65-.67-.48-1.1.17-.44.66-.65,1.1-.48,1.27.5,2.56.63,3.42.66.99.03,1.92.6,2.42,1.49.41.72,1.1,1.84,2.06,3.04.44.55.7,1.2.75,1.88.09,1.36.28,4.18.43,6.22.03.47-.32.88-.79.91-.02,0-.04,0-.06,0Z"/>
        <path class="cls-4" d="m83.22,50.82c-.1,0-.19-.02-.29-.05-.04-.01-3.94-1.42-10.79-2.8-.46-.09-.76-.54-.67-1,.09-.46.54-.75,1-.67,6.98,1.41,10.87,2.81,11.03,2.87.44.16.67.65.51,1.09-.13.35-.45.56-.8.56Z"/>
        <path class="cls-4" d="m58.08,64.17c-.31,0-.62-.04-.93-.12-6.93-1.77-16.32-2.47-22.8-2.53h-.02c-.49,0-.96.16-1.36.45l-2.69,1.98c-.38.28-.91.2-1.19-.18-.28-.38-.2-.91.18-1.19l2.69-1.98c.7-.51,1.52-.78,2.37-.78h.03c8.52.08,17.19,1.05,23.21,2.59.71.18,1.47-.04,2.03-.59,6.95-6.92,15.59-10.93,20.11-12.71,1.25-.49,2.62-.46,3.85.09l3,1.35c.43.19.62.7.43,1.12s-.7.62-1.12.43l-3-1.35c-.81-.36-1.71-.39-2.53-.06-4.41,1.73-12.8,5.62-19.53,12.33-.75.75-1.73,1.15-2.73,1.15Z"/>
        <path class="cls-4" d="m34.4,85.03c-.34,0-.67-.21-.8-.55l-6.84-18.12c-.3-.8-.18-1.68.33-2.37.5-.69,1.31-1.07,2.16-1.02l28.64,1.61c.83.04,1.62-.14,2.33-.54,4.06-2.27,17.9-9.93,25.23-13.31.71-.33,1.52-.3,2.21.06.7.37,1.17,1.02,1.31,1.8l2.64,15.34c.08.46-.23.9-.69.98-.46.08-.9-.23-.98-.69l-2.64-15.34c-.04-.25-.2-.46-.42-.58-.22-.12-.48-.12-.7-.02-7.28,3.35-21.06,10.99-25.11,13.25-.99.55-2.12.82-3.25.75l-28.64-1.61c-.3-.01-.53.11-.7.33-.17.22-.2.5-.1.76l6.84,18.12c.17.44-.06.93-.5,1.1-.1.04-.2.05-.3.05Z"/>
        <path class="cls-4" d="m64.13,100.67c-.39,0-.78-.02-1.16-.06-5.6-.6-13-.99-18.22-1.21-.47-.02-.83-.42-.81-.89.02-.47.43-.84.89-.81,5.24.22,12.68.62,18.33,1.22,1.86.2,3.76-.17,5.5-1.07,8.85-4.56,19.74-8.38,24.01-9.82.38-.13.6-.51.54-.9l-1.84-10.66c-.08-.46.23-.9.69-.98.47-.08.9.23.98.69l1.84,10.66c.21,1.23-.49,2.41-1.67,2.8-4.23,1.42-15.02,5.21-23.77,9.72-1.68.87-3.49,1.31-5.3,1.31Z"/>
        <path class="cls-4" d="m55.97,60.51c-.42,0-.78-.31-.84-.73-.07-.46.26-.9.72-.96l7.91-1.14c.96-5.96.74-11.53.6-13.7-.04-.6-.18-1.14-.42-1.61-1.99-3.95-1.74-7.12-1.73-7.25.03-.3.21-.57.49-.7.14-.06.28-.09.43-.08,0-.04-.01-.08-.02-.12-.06-.47.26-.89.73-.96.46-.06.89.26.96.73.14,1.08.52,1.9.53,1.91.16.35.07.77-.23,1.01-.3.25-.72.26-1.04.04l-.07-.05c.15,1.16.53,2.83,1.47,4.7.34.67.54,1.43.59,2.26.15,2.3.39,8.34-.72,14.71-.06.36-.35.64-.72.7l-8.52,1.23s-.08,0-.12,0Z"/>
        <path class="cls-4" d="m34.86,104.14c-1.53,0-3.09-.3-4.68-.91-4.94-1.86-9.09-8-8.09-11.93.24-.94.49-1.71.68-2.32.5-1.55.72-2.26.3-3.63-.13-.42-.25-.78-.37-1.12-.52-1.54-.9-2.65-.43-4.85.3-1.4,1.04-3.65,1.98-6.5.73-2.22,1.56-4.74,2.36-7.4.13-.45.61-.71,1.06-.57.45.13.7.61.57,1.06-.8,2.68-1.64,5.21-2.38,7.44-.89,2.69-1.65,5.02-1.93,6.32-.37,1.74-.11,2.53.38,3.95.12.35.25.74.38,1.17.58,1.88.23,2.98-.31,4.65-.2.62-.43,1.33-.65,2.22-.73,2.83,2.62,8.25,7.04,9.91,5.13,1.94,9.69.37,14.76-5.07.32-.34.86-.36,1.2-.04.34.32.36.86.04,1.2-4.02,4.3-7.89,6.41-11.93,6.41Z"/>
        <path class="cls-4" d="m41.05,87.77c-.06,0-.13,0-.19-.02-1.63-.37-2.67-.97-4.1-1.8-.37-.22-.78-.45-1.24-.7-.86-.47-1.94-.11-3.19.32-1.2.4-2.56.86-3.99.63-.46-.08-.78-.51-.7-.98.08-.46.51-.77.98-.7,1.01.17,2.06-.19,3.17-.56,1.5-.51,3.05-1.03,4.56-.19.47.26.88.5,1.26.72,1.28.74,2.14,1.24,3.39,1.55.96-.36,4.54-1.71,6.04-2.59.41-.24.93-.1,1.16.3.24.41.1.93-.3,1.16-1.86,1.09-6.36,2.74-6.55,2.81-.09.03-.19.05-.29.05Z"/>
        <path class="cls-4" d="m46.16,98c-.08,0-.15,0-.23-.03-4.66-1.29-6.75-6.96-5.71-11.25.11-.46.58-.74,1.03-.63.46.11.74.57.63,1.03-.75,3.12.6,8.13,4.51,9.21.45.12.72.59.59,1.05-.1.38-.45.62-.82.62Z"/>
        <path class="cls-4" d="m51.45,95.96c-.08,0-.16-.01-.24-.04-.17-.05-4.08-1.29-4.59-8.12-.47-6.34,2.52-10.25,4.81-12.65.83-.87,2.21-.95,3.14-.18.77.64,1.04,1.68.68,2.61-.27.69-.55,1.37-.85,2-.27.58-.52,1.09-.73,1.51-.06.12-.04.23-.01.28.02.05.08.15.21.2.12.04.24.02.34-.06,1.43-1.25,5.2-4.43,9.33-6.86,1.04-.61,2.36-.35,3.08.61.77,1.03.57,2.5-.45,3.28-1.48,1.14-4.25,3.3-6.04,4.99-.34.32-.88.31-1.2-.04-.32-.34-.31-.88.04-1.2,1.85-1.74,4.66-3.95,6.17-5.11.29-.22.34-.62.12-.91-.2-.27-.57-.34-.86-.17-4,2.35-7.68,5.45-9.07,6.67-.55.48-1.32.63-2.01.39-.56-.19-1.01-.62-1.24-1.17-.22-.55-.19-1.17.08-1.7.21-.4.45-.89.7-1.44.34-.73.61-1.4.81-1.91.09-.24.02-.51-.18-.68-.24-.2-.61-.18-.82.04-2.07,2.16-4.76,5.69-4.35,11.35.41,5.58,3.27,6.58,3.39,6.62.44.14.69.62.55,1.06-.11.36-.45.6-.81.6Z"/>
        <path class="cls-4" d="m49.43,96.79c-.35,0-.67-.21-.8-.56-.16-.44.07-.93.51-1.09.45-.16,1-.4,1.64-.67,2.32-.99,5.82-2.49,9.88-2.94,1.91-.21,3.71-.34,5.37-.38,1.25-.03,2.39-.72,2.97-1.81.7-1.32,1.37-2.49,2-3.49.12-.19.09-.36.07-.45-.02-.09-.09-.25-.29-.34-.23-.11-.51-.05-.67.15-.76.98-1.4,1.85-1.85,2.52-.51.77-1.38,1.24-2.31,1.27l-1.27.04c-.6.03-1.11-.32-1.32-.87-.21-.54-.07-1.14.37-1.53l8.07-7.07c.11-.1.18-.23.18-.38,0-.15-.04-.29-.14-.39-.19-.21-.49-.24-.7-.09-1.92,1.65-5.3,4.6-6.97,6.34h0s0,0,0,0c0,0-.01.01-.02.02h0c-.33.34-.86.35-1.2.03-.34-.32-.35-.86-.03-1.2.02-.02.04-.04.06-.07,1.81-1.87,5.16-4.8,7.02-6.38.03-.03.06-.05.09-.07,0,0,.01-.01.02-.02.16-.14.25-.32.25-.53s-.08-.4-.23-.54c-.26-.24-.64-.25-.92-.04-2.19,1.7-6.17,4.79-8.17,6.47-.36.3-.9.25-1.2-.11-.3-.36-.25-.9.11-1.2,2.03-1.7,6.02-4.81,8.23-6.51.93-.72,2.24-.66,3.11.13.51.46.8,1.13.79,1.82,0,.05,0,.09,0,.14.39.11.76.33,1.06.66.41.45.62,1.03.58,1.63-.03.61-.3,1.16-.76,1.56l-2.84,2.49c.48-.1,1-.05,1.46.17.57.28,1,.79,1.18,1.4.18.62.08,1.28-.26,1.82-.6.96-1.26,2.1-1.94,3.39-.87,1.63-2.57,2.67-4.43,2.72-1.6.04-3.36.16-5.22.37-3.82.42-7.18,1.86-9.4,2.81-.67.29-1.25.54-1.73.71-.1.04-.19.05-.29.05Zm18.57-11.62l-2.45,2.15h.35c.39-.02.74-.22.95-.53.31-.47.7-1.01,1.16-1.62Z"/>
        <path class="cls-4" d="m65.06,100.62c-.45,0-.82-.35-.85-.8-.03-.47.33-.87.8-.9,1.22-.07,2.96-.06,4.81-.05,3.49.02,8.76.05,9.92-.67,1.46-.89,1.43-2.31,1.05-5.12-.06-.47.26-.89.73-.96.46-.06.89.26.96.73.34,2.45.72,5.23-1.84,6.8-1.47.9-5.41.95-10.82.92-1.82,0-3.53-.02-4.7.05-.02,0-.03,0-.05,0Z"/>
        <path class="cls-4" d="m85.73,185.47c-.39,0-.75-.27-.83-.67-1.18-5.59-1.89-15.9-1.89-27.59,0-7.18.59-14.88,1.11-21.67.38-4.98.71-9.28.76-12.58.08-5.79-1.6-9.53-3.56-13.87-.65-1.45-1.33-2.95-1.98-4.62-.02-.05-.03-.09-.04-.14-.38-1.91-.49-4.98-.49-5.11-.01-.4.25-.75.64-.85.39-.1.79.08.97.44.11.22,2.77,5.29,8.08,4.35,5.17-.92,9.04-4.54,10.62-9.93,1.29-4.43-.11-6.08-1.6-7.83l-.27-.32c-.09-.11-.16-.24-.18-.38,0,0-.69-3.47-1.09-5.58-.09-.46.22-.91.68-.99.46-.08.91.22.99.68.34,1.79.89,4.56,1.05,5.35l.12.15c1.56,1.83,3.49,4.1,1.94,9.41-1.76,6.03-6.12,10.09-11.95,11.13-3.78.68-6.48-1.15-8.09-2.83.07.67.15,1.36.26,1.93.63,1.6,1.29,3.06,1.92,4.47,2.04,4.52,3.79,8.43,3.71,14.59-.05,3.36-.38,7.68-.76,12.69-.52,6.76-1.11,14.42-1.11,21.54,0,11.58.69,21.76,1.86,27.24.1.46-.2.91-.66,1.01-.06.01-.12.02-.18.02Z"/>
        <path class="cls-4" d="m42.46,184.04c-.41,0-.77-.29-.84-.71-1.36-7.86-3.67-23.7-3.76-41.43-.1-19.68,2.54-30.67,3.73-34.63l-.58-6.26c-.04-.47.3-.88.77-.92.47-.05.88.3.92.77l.59,6.43c.01.11,0,.22-.03.33-1.15,3.74-3.81,14.56-3.71,34.28.09,17.61,2.38,33.34,3.73,41.15.08.46-.23.9-.69.98-.05,0-.1.01-.15.01Z"/>
        <path class="cls-4" d="m45.66,108.34c-1.34,0-2.46-.04-3.29-.13-.47-.05-.8-.47-.75-.94.05-.47.48-.79.94-.75,5.35.59,26.67-1.19,33.06-2.76.45-.11.92.17,1.03.62.11.46-.17.92-.62,1.03-5.29,1.3-22,2.93-30.36,2.93Z"/>
        <path class="cls-4" d="m60.66,107.34c-.38,0-.7-.31-.71-.69l-.19-7.12c-.01-.39.3-.72.69-.73,0,0,.01,0,.02,0,.38,0,.7.31.71.69l.19,7.12c.01.39-.3.72-.69.73,0,0-.01,0-.02,0Z"/>
        <path class="cls-4" d="m60.75,128.11c-.46,0-.84-.37-.85-.84-.05-3.45,0-11.08,0-11.16,0-.47.38-.84.85-.84h0c.47,0,.85.39.84.86,0,.08-.05,7.69,0,11.12,0,.47-.37.86-.84.86h-.01Z"/>
        <path class="cls-4" d="m59.14,184.77c-.45,0-.83-.36-.85-.81-.4-8.8.02-38.51,1.43-50.85.05-.47.47-.8.94-.75.47.05.8.47.75.94-1.4,12.27-1.82,41.83-1.42,50.58.02.47-.34.87-.81.89-.01,0-.03,0-.04,0Z"/>
        <path class="cls-4" d="m76.71,127.89c-.27,0-.52-.17-.61-.44-.64-1.99-1.57-5.73-2.56-9.68-.85-3.41-1.74-6.94-2.48-9.53-.1-.34.1-.69.44-.79.34-.1.69.1.79.44.75,2.61,1.63,6.15,2.49,9.57.98,3.93,1.92,7.65,2.54,9.6.11.33-.08.69-.41.8-.06.02-.13.03-.19.03Z"/>
        <path class="cls-4" d="m47.75,129.86h-.02c-.35,0-.63-.3-.62-.66.17-6.22,1.04-15.21,1.68-21.78.04-.35.35-.6.7-.57.35.03.61.35.57.7-.64,6.55-1.51,15.52-1.68,21.69,0,.35-.29.62-.64.62Z"/>
        <path class="cls-4" d="m64.03,127.18c-.15,0-.29-.05-.41-.15-.27-.23-.3-.63-.08-.9,1.7-2.02,5.34-4.6,7.85-5.07.34-.06.68.16.74.51.06.35-.16.68-.51.74-1.95.37-5.41,2.62-7.1,4.64-.13.15-.31.23-.49.23Z"/>
        <path class="cls-4" d="m71.68,177.68c-.35,0-.63-.28-.64-.63-.08-4.62-.34-31.51,0-43.01.01-.34.29-.62.64-.62h.02c.35.01.63.3.62.66-.34,11.48-.08,38.34,0,42.95,0,.35-.27.64-.63.65h-.01Z"/>
        <path class="cls-4" d="m93.42,66.57c-.06,0-.12,0-.19-.02-.46-.1-.75-.56-.64-1.02.5-2.24-.36-3.79-1.17-4.69-.27-.3-.64-.49-.89-.46-.06,0-.21.02-.37.31-.23.41-.75.56-1.16.33-.41-.23-.56-.75-.33-1.16.38-.68.97-1.09,1.66-1.17.82-.09,1.69.29,2.34,1.02.88.98,2.26,3.1,1.57,6.2-.09.4-.44.66-.83.66Z"/>
        <path class="cls-4" d="m89.88,74.4c-.45,0-.86-.13-1.25-.39-.58-.39-.93-.93-1.03-1.56-.16-1.06.39-2.31,1.79-4.06.95-1.19,3.17-3.98,5.37-2.5h0c.6.4.97.95,1.07,1.6.22,1.42-.88,2.91-1.92,4.2-1.45,1.79-2.83,2.71-4.02,2.71Zm3.56-7.22c-.42,0-1.21.37-2.72,2.27-1.35,1.7-1.48,2.45-1.43,2.74.02.11.07.25.3.41.53.36,1.75-.46,2.99-1.98.46-.57,1.68-2.08,1.56-2.88-.02-.12-.07-.27-.33-.44-.07-.05-.18-.12-.37-.12Z"/>
        <path class="cls-4" d="m91.6,77.29c-.58,0-1.14-.22-1.53-.64-.33-.36-1.27-1.71.6-4.04.29-.37.83-.43,1.2-.13.37.29.43.83.13,1.2-.8,1-.84,1.65-.68,1.83.13.14.47.15.8-.08,1.54-1.04,4.04-3.33,4.33-4.38.09-.31-.01-.63-.27-.84-.33-.27-.81-.29-1.29-.04-.42.21-.93.05-1.14-.37-.21-.42-.05-.93.37-1.14,1.08-.55,2.28-.46,3.14.25.79.64,1.11,1.65.83,2.62-.52,1.83-3.86,4.54-5.02,5.33-.46.31-.98.47-1.47.47Z"/>
        <path class="cls-4" d="m96.23,78.15c-.43,0-.83-.12-1.19-.35-.63-.41-.98-1.01-1.02-1.74-.09-1.73,1.66-3.62,2.6-4.38h0c1.04-.84,2.39-.94,3.35-.26.85.61,1.14,1.65.75,2.72-.52,1.44-2.06,3.33-3.63,3.86-.3.1-.59.15-.87.15Zm2.3-5.47c-.25,0-.55.09-.84.33h0c-.99.79-2.01,2.17-1.97,2.97,0,.15.05.28.25.4.06.04.22.14.59.01.99-.33,2.2-1.79,2.57-2.82.09-.24.13-.56-.14-.75-.11-.08-.27-.13-.46-.13Zm-1.37-.33h0,0Z"/>
        <path class="cls-4" d="m93.1,82.47c-.35,0-.68-.22-.8-.57-.15-.44.08-.93.53-1.08,1.89-.65,3.02-2.36,4.12-4.01.3-.45.59-.89.89-1.3.28-.38.81-.46,1.19-.18.38.28.46.81.18,1.19-.29.39-.56.81-.85,1.23-1.2,1.8-2.55,3.84-4.98,4.68-.09.03-.19.05-.28.05Z"/>
        <path class="cls-4" d="m57.82,17.23c-.2,0-.39-.09-.52-.27-.21-.29-.14-.68.15-.89,1.33-.96,3.65-1.13,5.06-.39.31.17.43.55.26.86-.16.31-.55.43-.86.26-.98-.52-2.79-.38-3.72.29-.11.08-.24.12-.37.12Z"/>
        <path class="cls-4" d="m56.31,31.43c-.69,0-1.36-.12-1.93-.3-.37-.12-.58-.52-.46-.89s.51-.58.89-.46c1.11.36,2.73.42,3.64-.55.27-.29.72-.3,1-.03.29.27.3.72.03,1-.85.91-2.04,1.24-3.18,1.24Z"/>
        <path class="cls-4" d="m46.12,19.9c-.12,0-.25-.04-.36-.11-.29-.2-.37-.59-.17-.89.8-1.18,2.83-1.79,4.73-1.43.35.07.57.4.51.75-.07.35-.41.57-.75.51-1.55-.3-2.99.24-3.44.89-.12.18-.32.28-.53.28Z"/>
        <circle class="cls-4" cx="56.38" cy="26.67" r=".71"/>
      </g>
    </g>
  </g>
  <g id="_アイコン" data-name="アイコン">
    <g>
      <path class="cls-2" d="m96.97,120.6c-.72-.47-.92-1.44-.45-2.16l5.65-8.61c.47-.72,1.44-.92,2.16-.45s.92,1.44.45,2.16l-5.65,8.61c-.47.72-1.44.92-2.16.45Z"/>
      <path class="cls-3" d="m103.48,109.12c.29,0,.59.08.85.26.72.47.92,1.44.45,2.16l-5.65,8.61c-.3.46-.8.7-1.31.7-.29,0-.59-.08-.85-.26-.72-.47-.92-1.44-.45-2.16l5.65-8.61c.3-.46.8-.7,1.31-.7m0-1.67h0c-1.09,0-2.11.55-2.71,1.46l-5.65,8.61c-.47.72-.64,1.59-.46,2.43.18.85.67,1.57,1.39,2.05.53.35,1.14.53,1.77.53,1.09,0,2.11-.55,2.71-1.46l5.65-8.61c.98-1.49.56-3.5-.93-4.48-.53-.35-1.14-.53-1.77-.53h0Z"/>
    </g>
    <g>
      <path class="cls-6" d="m23.24,35.99l-9.75-4.05c-.89-.37-1.9.05-2.27.94s.05,1.9.94,2.27l2.01.84c.7.29,1.03,1.09.74,1.79l-3.27,7.87c-.37.88.05,1.9.94,2.27s1.9-.05,2.27-.94l3.27-7.87c.29-.7,1.09-1.03,1.79-.74l2.01.84c.89.37,1.9-.05,2.27-.94s-.05-1.9-.94-2.27Z"/>
      <path class="cls-3" d="m12.83,31.8c.22,0,.45.04.67.13l9.75,4.05c.89.37,1.3,1.38.94,2.27-.28.67-.92,1.07-1.6,1.07-.22,0-.45-.04-.67-.13l-2.01-.84c-.17-.07-.35-.11-.52-.11-.54,0-1.04.32-1.26.84l-3.27,7.87c-.28.67-.92,1.07-1.6,1.07-.22,0-.45-.04-.67-.13-.89-.37-1.3-1.38-.94-2.27l3.27-7.87c.29-.7-.04-1.5-.74-1.79l-2.01-.84c-.89-.37-1.3-1.38-.94-2.27.28-.67.92-1.07,1.6-1.07m0-1.7c-1.39,0-2.64.83-3.17,2.12-.73,1.75.1,3.76,1.85,4.49l1.7.71-3.14,7.56c-.35.85-.35,1.78,0,2.63.35.85,1.01,1.51,1.86,1.86.42.18.86.26,1.32.26,1.39,0,2.64-.83,3.17-2.12l3.14-7.56,1.7.71c.42.18.86.26,1.32.26,1.39,0,2.64-.83,3.17-2.12.73-1.75-.1-3.76-1.85-4.49l-9.75-4.05c-.42-.18-.86-.26-1.32-.26h0Z"/>
    </g>
  </g>
</svg>