<?xml version="1.0" encoding="UTF-8"?>
<svg id="Layer_2" data-name="Layer 2" xmlns="http://www.w3.org/2000/svg" viewBox="0 0 135.58 182.48">
  <defs>
    <style>
      .cls-1 {
        fill: #fff;
      }

      .cls-2 {
        fill: #95e0e6;
      }

      .cls-3 {
        fill: #565656;
      }

      .cls-4 {
        fill: #363636;
      }

      .cls-5 {
        fill: #8dc05f;
      }

      .cls-6 {
        fill: #8f8f8f;
      }

      .cls-7 {
        fill: #ffdfbc;
      }

      .cls-8 {
        fill: #ffd964;
      }

      .cls-9 {
        fill: #d5d5d5;
      }
    </style>
  </defs>
  <g id="_背景ドット" data-name="背景ドット">
    <g>
      <path class="cls-1" d="m50.76,34.16c-.33,0-.59.27-.59.59s.27.59.59.59.59-.27.59-.59-.27-.59-.59-.59Z"/>
      <circle class="cls-1" cx="50.76" cy="41.7" r=".59"/>
      <path class="cls-1" d="m52.67,38.8c-.08-.35-.16-.7-.25-1.04-.14.11-.24.27-.24.47,0,.29.22.53.5.57Z"/>
      <circle class="cls-1" cx="50.76" cy="48.65" r=".59"/>
      <path class="cls-1" d="m52.18,45.18c0,.33.27.59.59.59.24,0,.45-.15.54-.36,0-.14,0-.28.01-.42-.08-.23-.29-.41-.56-.41-.33,0-.59.27-.59.59Z"/>
      <path class="cls-1" d="m52.18,52.13c0,.08.02.15.04.22.07-.23.13-.46.19-.69-.14.11-.24.27-.24.46Z"/>
      <path class="cls-1" d="m51.2,55.21c-.11-.12-.26-.2-.44-.2-.33,0-.59.27-.59.59s.26.58.58.59c.15-.33.31-.66.45-.99Z"/>
      <path class="cls-1" d="m49.35,31.27c0-.33-.27-.59-.59-.59s-.59.27-.59.59.27.59.59.59.59-.27.59-.59Z"/>
      <path class="cls-1" d="m46.75,41.11c-.33,0-.59.27-.59.59s.27.59.59.59.59-.27.59-.59-.27-.59-.59-.59Z"/>
      <path class="cls-1" d="m48.76,38.82c.33,0,.59-.27.59-.59s-.27-.59-.59-.59-.59.27-.59.59.27.59.59.59Z"/>
      <path class="cls-1" d="m48.76,44.58c-.33,0-.59.27-.59.59s.27.59.59.59.59-.27.59-.59-.27-.59-.59-.59Z"/>
      <path class="cls-1" d="m48.16,52.13c0,.33.27.59.59.59s.59-.27.59-.59-.27-.59-.59-.59-.59.27-.59.59Z"/>
      <path class="cls-1" d="m48.76,58.49c-.33,0-.59.27-.59.59s.27.59.59.59c0,0,.01,0,.02,0,.18-.27.36-.55.53-.82-.09-.21-.3-.36-.55-.36Z"/>
      <path class="cls-1" d="m46.16,27.8c0,.33.27.59.59.59s.59-.26.59-.59c-.16-.2-.32-.39-.49-.58-.04,0-.07-.02-.11-.02-.33,0-.59.27-.59.59Z"/>
      <path class="cls-1" d="m44.6,24.89c-.13-.12-.27-.24-.41-.36.07.18.22.31.41.36Z"/>
      <path class="cls-1" d="m42.74,34.16c-.33,0-.59.27-.59.59s.27.59.59.59.59-.27.59-.59-.27-.59-.59-.59Z"/>
      <circle class="cls-1" cx="44.74" cy="31.27" r=".59"/>
      <path class="cls-1" d="m42.74,41.11c-.33,0-.59.27-.59.59s.27.59.59.59.59-.27.59-.59-.27-.59-.59-.59Z"/>
      <circle class="cls-1" cx="44.74" cy="38.23" r=".59"/>
      <path class="cls-1" d="m46.75,35.34c.33,0,.59-.27.59-.59s-.27-.59-.59-.59-.59.27-.59.59.27.59.59.59Z"/>
      <path class="cls-1" d="m42.74,48.06c-.33,0-.59.27-.59.59s.27.59.59.59.59-.27.59-.59-.27-.59-.59-.59Z"/>
      <circle class="cls-1" cx="44.74" cy="45.18" r=".59"/>
      <path class="cls-1" d="m42.74,55.01c-.33,0-.59.27-.59.59s.27.59.59.59.59-.27.59-.59-.27-.59-.59-.59Z"/>
      <circle class="cls-1" cx="44.74" cy="52.13" r=".59"/>
      <path class="cls-1" d="m46.75,49.25c.33,0,.59-.27.59-.59s-.27-.59-.59-.59-.59.27-.59.59.27.59.59.59Z"/>
      <path class="cls-1" d="m47,62.02c-.08-.03-.16-.06-.25-.06-.33,0-.59.27-.59.59,0,.12.04.22.1.31.25-.28.5-.56.74-.84Z"/>
      <path class="cls-1" d="m42.74,61.96c-.33,0-.59.27-.59.59s.27.59.59.59.59-.27.59-.59-.27-.59-.59-.59Z"/>
      <path class="cls-1" d="m44.15,59.08c0,.33.27.59.59.59s.59-.27.59-.59-.27-.59-.59-.59-.59.27-.59.59Z"/>
      <path class="cls-1" d="m46.75,56.2c.33,0,.59-.27.59-.59s-.27-.59-.59-.59-.59.27-.59.59.27.59.59.59Z"/>
      <circle class="cls-1" cx="38.72" cy="27.8" r=".59"/>
      <path class="cls-1" d="m40.73,24.92c.33,0,.59-.27.59-.59s-.27-.59-.59-.59-.59.27-.59.59.27.59.59.59Z"/>
      <path class="cls-1" d="m38.72,34.16c-.33,0-.59.27-.59.59s.27.59.59.59.59-.27.59-.59-.27-.59-.59-.59Z"/>
      <path class="cls-1" d="m41.32,31.27c0-.33-.27-.59-.59-.59s-.59.27-.59.59.27.59.59.59.59-.27.59-.59Z"/>
      <path class="cls-1" d="m42.74,28.39c.33,0,.59-.27.59-.59s-.27-.59-.59-.59-.59.27-.59.59.27.59.59.59Z"/>
      <circle class="cls-1" cx="38.72" cy="41.7" r=".59"/>
      <path class="cls-1" d="m41.32,38.23c0-.33-.27-.59-.59-.59s-.59.27-.59.59.27.59.59.59.59-.27.59-.59Z"/>
      <circle class="cls-1" cx="38.72" cy="48.65" r=".59"/>
      <path class="cls-1" d="m41.32,45.18c0-.33-.27-.59-.59-.59s-.59.27-.59.59.27.59.59.59.59-.27.59-.59Z"/>
      <circle class="cls-1" cx="38.72" cy="55.61" r=".59"/>
      <path class="cls-1" d="m40.14,52.13c0,.33.27.59.59.59s.59-.27.59-.59-.27-.59-.59-.59-.59.27-.59.59Z"/>
      <path class="cls-1" d="m38.72,61.96c-.33,0-.59.27-.59.59s.27.59.59.59.59-.27.59-.59-.27-.59-.59-.59Z"/>
      <path class="cls-1" d="m40.14,59.08c0,.33.27.59.59.59s.59-.27.59-.59-.27-.59-.59-.59-.59.27-.59.59Z"/>
      <path class="cls-1" d="m40.14,66.03c0,.33.27.59.59.59s.59-.27.59-.59-.27-.59-.59-.59-.59.27-.59.59Z"/>
      <path class="cls-1" d="m34.71,20.25c-.33,0-.59.27-.59.59s.27.59.59.59.59-.27.59-.59-.27-.59-.59-.59Z"/>
      <path class="cls-1" d="m34.71,27.2c-.33,0-.59.27-.59.59s.27.59.59.59.59-.27.59-.59-.27-.59-.59-.59Z"/>
      <circle class="cls-1" cx="36.72" cy="24.32" r=".59"/>
      <path class="cls-1" d="m38.13,20.85c0,.33.27.59.59.59.24,0,.45-.15.54-.35-.34-.19-.69-.36-1.04-.54-.05.09-.09.19-.09.3Z"/>
      <path class="cls-1" d="m34.71,34.16c-.33,0-.59.27-.59.59s.27.59.59.59.59-.27.59-.59-.27-.59-.59-.59Z"/>
      <circle class="cls-1" cx="36.72" cy="31.27" r=".59"/>
      <path class="cls-1" d="m34.71,41.11c-.33,0-.59.27-.59.59s.27.59.59.59.59-.27.59-.59-.27-.59-.59-.59Z"/>
      <circle class="cls-1" cx="36.72" cy="38.23" r=".59"/>
      <path class="cls-1" d="m34.71,48.06c-.33,0-.59.27-.59.59s.27.59.59.59.59-.27.59-.59-.27-.59-.59-.59Z"/>
      <circle class="cls-1" cx="36.72" cy="45.18" r=".59"/>
      <path class="cls-1" d="m34.71,55.01c-.33,0-.59.27-.59.59s.27.59.59.59.59-.27.59-.59-.27-.59-.59-.59Z"/>
      <circle class="cls-1" cx="36.72" cy="52.13" r=".59"/>
      <path class="cls-1" d="m34.71,61.96c-.33,0-.59.27-.59.59s.27.59.59.59.59-.27.59-.59-.27-.59-.59-.59Z"/>
      <path class="cls-1" d="m36.12,59.08c0,.33.27.59.59.59s.59-.27.59-.59-.27-.59-.59-.59-.59.27-.59.59Z"/>
      <path class="cls-1" d="m34.71,68.92c-.33,0-.59.27-.59.59s.27.59.59.59.59-.27.59-.59-.27-.59-.59-.59Z"/>
      <circle class="cls-1" cx="36.72" cy="66.03" r=".59"/>
      <circle class="cls-1" cx="30.7" cy="20.85" r=".59"/>
      <circle class="cls-1" cx="30.7" cy="27.8" r=".59"/>
      <path class="cls-1" d="m33.3,24.32c0-.33-.27-.59-.59-.59s-.59.27-.59.59.27.59.59.59.59-.27.59-.59Z"/>
      <path class="cls-1" d="m30.7,34.16c-.33,0-.59.27-.59.59s.27.59.59.59.59-.27.59-.59-.27-.59-.59-.59Z"/>
      <path class="cls-1" d="m32.7,30.68c-.33,0-.59.27-.59.59s.27.59.59.59.59-.27.59-.59-.27-.59-.59-.59Z"/>
      <circle class="cls-1" cx="30.7" cy="41.7" r=".59"/>
      <path class="cls-1" d="m33.3,38.23c0-.33-.27-.59-.59-.59s-.59.27-.59.59.27.59.59.59.59-.27.59-.59Z"/>
      <circle class="cls-1" cx="30.7" cy="48.65" r=".59"/>
      <path class="cls-1" d="m33.3,45.18c0-.33-.27-.59-.59-.59s-.59.27-.59.59.27.59.59.59.59-.27.59-.59Z"/>
      <circle class="cls-1" cx="30.7" cy="55.61" r=".59"/>
      <path class="cls-1" d="m32.11,52.13c0,.33.27.59.59.59s.59-.27.59-.59-.27-.59-.59-.59-.59.27-.59.59Z"/>
      <path class="cls-1" d="m30.7,61.96c-.33,0-.59.27-.59.59s.27.59.59.59.59-.27.59-.59-.27-.59-.59-.59Z"/>
      <path class="cls-1" d="m32.11,59.08c0,.33.27.59.59.59s.59-.27.59-.59-.27-.59-.59-.59-.59.27-.59.59Z"/>
      <circle class="cls-1" cx="30.7" cy="69.51" r=".59"/>
      <path class="cls-1" d="m32.11,66.03c0,.33.27.59.59.59s.59-.27.59-.59-.27-.59-.59-.59-.59.27-.59.59Z"/>
      <path class="cls-1" d="m26.68,20.25c-.33,0-.59.27-.59.59s.27.59.59.59.59-.27.59-.59-.27-.59-.59-.59Z"/>
      <path class="cls-1" d="m28.73,17.96s-.09,0-.14-.01c.03,0,.06.02.09.02.02,0,.03,0,.04,0Z"/>
      <path class="cls-1" d="m26.68,27.2c-.33,0-.59.27-.59.59s.27.59.59.59.59-.27.59-.59-.27-.59-.59-.59Z"/>
      <circle class="cls-1" cx="28.69" cy="24.32" r=".59"/>
      <path class="cls-1" d="m26.68,34.16c-.33,0-.59.27-.59.59s.27.59.59.59.59-.27.59-.59-.27-.59-.59-.59Z"/>
      <circle class="cls-1" cx="28.69" cy="31.27" r=".59"/>
      <circle class="cls-1" cx="28.69" cy="38.23" r=".59"/>
      <path class="cls-1" d="m26.68,48.06c-.33,0-.59.27-.59.59s.27.59.59.59.59-.27.59-.59-.27-.59-.59-.59Z"/>
      <circle class="cls-1" cx="28.69" cy="45.18" r=".59"/>
      <path class="cls-1" d="m26.68,55.01c-.33,0-.59.27-.59.59s.27.59.59.59.59-.27.59-.59-.27-.59-.59-.59Z"/>
      <circle class="cls-1" cx="28.69" cy="52.13" r=".59"/>
      <path class="cls-1" d="m26.68,61.96c-.33,0-.59.27-.59.59s.27.59.59.59.59-.27.59-.59-.27-.59-.59-.59Z"/>
      <path class="cls-1" d="m28.1,59.08c0,.33.27.59.59.59s.59-.27.59-.59-.27-.59-.59-.59-.59.27-.59.59Z"/>
      <path class="cls-1" d="m26.68,68.92c-.33,0-.59.27-.59.59s.27.59.59.59.59-.27.59-.59-.27-.59-.59-.59Z"/>
      <circle class="cls-1" cx="28.69" cy="66.03" r=".59"/>
      <circle class="cls-1" cx="22.67" cy="20.85" r=".59"/>
      <path class="cls-1" d="m24.93,17.9c-.14,0-.27.02-.4.03.05.01.1.03.15.03.09,0,.18-.02.25-.06Z"/>
      <circle class="cls-1" cx="22.67" cy="27.8" r=".59"/>
      <path class="cls-1" d="m25.27,24.32c0-.33-.27-.59-.59-.59s-.59.27-.59.59.27.59.59.59.59-.27.59-.59Z"/>
      <path class="cls-1" d="m25.27,31.27c0-.33-.27-.59-.59-.59s-.59.27-.59.59.27.59.59.59.59-.27.59-.59Z"/>
      <circle class="cls-1" cx="22.67" cy="41.7" r=".59"/>
      <path class="cls-1" d="m24.68,38.82c.33,0,.59-.27.59-.59s-.27-.59-.59-.59-.59.27-.59.59.27.59.59.59Z"/>
      <circle class="cls-1" cx="22.67" cy="48.65" r=".59"/>
      <path class="cls-1" d="m25.27,45.18c0-.33-.27-.59-.59-.59s-.59.27-.59.59.27.59.59.59.59-.27.59-.59Z"/>
      <path class="cls-1" d="m26.68,42.3c.33,0,.59-.27.59-.59s-.27-.59-.59-.59-.59.27-.59.59.27.59.59.59Z"/>
      <circle class="cls-1" cx="22.67" cy="55.61" r=".59"/>
      <path class="cls-1" d="m24.08,52.13c0,.33.27.59.59.59s.59-.27.59-.59-.27-.59-.59-.59-.59.27-.59.59Z"/>
      <path class="cls-1" d="m22.67,61.96c-.33,0-.59.27-.59.59s.27.59.59.59.59-.27.59-.59-.27-.59-.59-.59Z"/>
      <path class="cls-1" d="m24.08,59.08c0,.33.27.59.59.59s.59-.27.59-.59-.27-.59-.59-.59-.59.27-.59.59Z"/>
      <circle class="cls-1" cx="22.67" cy="69.51" r=".59"/>
      <path class="cls-1" d="m24.08,66.03c0,.33.27.59.59.59s.59-.27.59-.59-.27-.59-.59-.59-.59.27-.59.59Z"/>
      <path class="cls-1" d="m18.66,20.25c-.33,0-.59.27-.59.59s.27.59.59.59.59-.27.59-.59-.27-.59-.59-.59Z"/>
      <path class="cls-1" d="m21.26,24.32c0-.33-.27-.59-.59-.59s-.59.27-.59.59.27.59.59.59.59-.27.59-.59Z"/>
      <path class="cls-1" d="m18.66,34.16c-.33,0-.59.27-.59.59s.27.59.59.59.59-.27.59-.59-.27-.59-.59-.59Z"/>
      <path class="cls-1" d="m20.66,31.87c.33,0,.59-.27.59-.59s-.27-.59-.59-.59-.59.27-.59.59.27.59.59.59Z"/>
      <path class="cls-1" d="m18.66,41.11c-.33,0-.59.27-.59.59s.27.59.59.59.59-.27.59-.59-.27-.59-.59-.59Z"/>
      <path class="cls-1" d="m21.26,38.23c0-.33-.27-.59-.59-.59s-.59.27-.59.59.27.59.59.59.59-.27.59-.59Z"/>
      <path class="cls-1" d="m22.67,35.34c.33,0,.59-.27.59-.59s-.27-.59-.59-.59-.59.27-.59.59.27.59.59.59Z"/>
      <path class="cls-1" d="m18.66,48.06c-.33,0-.59.27-.59.59s.27.59.59.59.59-.27.59-.59-.27-.59-.59-.59Z"/>
      <path class="cls-1" d="m21.26,45.18c0-.33-.27-.59-.59-.59s-.59.27-.59.59.27.59.59.59.59-.27.59-.59Z"/>
      <path class="cls-1" d="m18.66,55.01c-.33,0-.59.27-.59.59s.27.59.59.59.59-.27.59-.59-.27-.59-.59-.59Z"/>
      <path class="cls-1" d="m20.07,52.13c0,.33.27.59.59.59s.59-.27.59-.59-.27-.59-.59-.59-.59.27-.59.59Z"/>
      <path class="cls-1" d="m18.66,61.96c-.33,0-.59.27-.59.59s.27.59.59.59.59-.27.59-.59-.27-.59-.59-.59Z"/>
      <path class="cls-1" d="m20.07,59.08c0,.33.27.59.59.59s.59-.27.59-.59-.27-.59-.59-.59-.59.27-.59.59Z"/>
      <path class="cls-1" d="m18.66,68.92c-.33,0-.59.27-.59.59s.27.59.59.59.59-.27.59-.59-.27-.59-.59-.59Z"/>
      <path class="cls-1" d="m20.07,66.03c0,.33.27.59.59.59s.59-.27.59-.59-.27-.59-.59-.59-.59.27-.59.59Z"/>
      <circle class="cls-1" cx="14.64" cy="27.8" r=".59"/>
      <circle class="cls-1" cx="16.65" cy="24.32" r=".59"/>
      <path class="cls-1" d="m14.64,34.16c-.33,0-.59.27-.59.59s.27.59.59.59.59-.27.59-.59-.27-.59-.59-.59Z"/>
      <circle class="cls-1" cx="16.65" cy="31.27" r=".59"/>
      <path class="cls-1" d="m18.66,28.39c.33,0,.59-.27.59-.59s-.27-.59-.59-.59-.59.27-.59.59.27.59.59.59Z"/>
      <circle class="cls-1" cx="14.64" cy="41.7" r=".59"/>
      <circle class="cls-1" cx="16.65" cy="38.23" r=".59"/>
      <circle class="cls-1" cx="14.64" cy="48.65" r=".59"/>
      <circle class="cls-1" cx="16.65" cy="45.18" r=".59"/>
      <circle class="cls-1" cx="14.64" cy="55.61" r=".59"/>
      <circle class="cls-1" cx="16.65" cy="52.13" r=".59"/>
      <path class="cls-1" d="m14.64,61.96c-.33,0-.59.27-.59.59s.27.59.59.59.59-.27.59-.59-.27-.59-.59-.59Z"/>
      <path class="cls-1" d="m16.05,59.08c0,.33.27.59.59.59s.59-.27.59-.59-.27-.59-.59-.59-.59.27-.59.59Z"/>
      <circle class="cls-1" cx="16.65" cy="66.03" r=".59"/>
      <path class="cls-1" d="m14.06,20.9c.03.3.27.54.58.54.33,0,.59-.27.59-.59,0-.17-.08-.32-.19-.43-.33.16-.66.32-.98.49Z"/>
      <path class="cls-1" d="m10.63,27.2c-.33,0-.59.27-.59.59s.27.59.59.59.59-.27.59-.59-.27-.59-.59-.59Z"/>
      <path class="cls-1" d="m12.63,23.73c-.33,0-.59.27-.59.59s.27.59.59.59.59-.27.59-.59-.27-.59-.59-.59Z"/>
      <path class="cls-1" d="m10.63,34.16c-.33,0-.59.27-.59.59s.27.59.59.59.59-.27.59-.59-.27-.59-.59-.59Z"/>
      <path class="cls-1" d="m13.23,31.27c0-.33-.27-.59-.59-.59s-.59.27-.59.59.27.59.59.59.59-.27.59-.59Z"/>
      <path class="cls-1" d="m10.63,41.11c-.33,0-.59.27-.59.59s.27.59.59.59.59-.27.59-.59-.27-.59-.59-.59Z"/>
      <path class="cls-1" d="m13.23,38.23c0-.33-.27-.59-.59-.59s-.59.27-.59.59.27.59.59.59.59-.27.59-.59Z"/>
      <path class="cls-1" d="m10.63,48.06c-.33,0-.59.27-.59.59s.27.59.59.59.59-.27.59-.59-.27-.59-.59-.59Z"/>
      <path class="cls-1" d="m13.23,45.18c0-.33-.27-.59-.59-.59s-.59.27-.59.59.27.59.59.59.59-.27.59-.59Z"/>
      <path class="cls-1" d="m10.63,55.01c-.33,0-.59.27-.59.59s.27.59.59.59.59-.27.59-.59-.27-.59-.59-.59Z"/>
      <path class="cls-1" d="m12.04,52.13c0,.33.27.59.59.59s.59-.27.59-.59-.27-.59-.59-.59-.59.27-.59.59Z"/>
      <path class="cls-1" d="m10.63,61.96c-.33,0-.59.27-.59.59s.27.59.59.59.59-.27.59-.59-.27-.59-.59-.59Z"/>
      <path class="cls-1" d="m12.04,59.08c0,.33.27.59.59.59s.59-.27.59-.59-.27-.59-.59-.59-.59.27-.59.59Z"/>
      <path class="cls-1" d="m12.04,66.03c0,.33.27.59.59.59s.59-.27.59-.59-.27-.59-.59-.59-.59.27-.59.59Z"/>
      <path class="cls-1" d="m9.21,24.32c0-.05-.02-.1-.03-.14-.27.23-.54.46-.79.69.07.03.15.05.23.05.33,0,.59-.27.59-.59Z"/>
      <circle class="cls-1" cx="8.62" cy="31.27" r=".59"/>
      <circle class="cls-1" cx="6.61" cy="41.7" r=".59"/>
      <circle class="cls-1" cx="8.62" cy="38.23" r=".59"/>
      <circle class="cls-1" cx="8.62" cy="45.18" r=".59"/>
      <circle class="cls-1" cx="8.62" cy="52.13" r=".59"/>
      <path class="cls-1" d="m8.03,59.08c0,.33.27.59.59.59s.59-.27.59-.59-.27-.59-.59-.59-.59.27-.59.59Z"/>
      <path class="cls-1" d="m7.21,62.56c0-.33-.27-.59-.59-.59-.2,0-.36.1-.47.25.25.29.5.57.76.85.18-.1.3-.29.3-.51Z"/>
      <path class="cls-1" d="m2.6,34.16c-.33,0-.59.27-.59.59s.27.59.59.59.59-.27.59-.59-.27-.59-.59-.59Z"/>
      <path class="cls-1" d="m4.61,30.68c-.33,0-.59.27-.59.59s.27.59.59.59.59-.27.59-.59-.27-.59-.59-.59Z"/>
      <circle class="cls-1" cx="6.61" cy="27.8" r=".59"/>
      <path class="cls-1" d="m2.6,41.11c-.33,0-.59.27-.59.59s.27.59.59.59.59-.27.59-.59-.27-.59-.59-.59Z"/>
      <path class="cls-1" d="m5.2,38.23c0-.33-.27-.59-.59-.59s-.59.27-.59.59.27.59.59.59.59-.27.59-.59Z"/>
      <path class="cls-1" d="m6.61,35.34c.33,0,.59-.27.59-.59s-.27-.59-.59-.59-.59.27-.59.59.27.59.59.59Z"/>
      <path class="cls-1" d="m5.2,45.18c0-.33-.27-.59-.59-.59s-.59.27-.59.59.27.59.59.59.59-.27.59-.59Z"/>
      <path class="cls-1" d="m4.01,52.13c0,.33.27.59.59.59s.59-.27.59-.59-.27-.59-.59-.59-.59.27-.59.59Z"/>
      <circle class="cls-1" cx="6.61" cy="48.65" r=".59"/>
      <path class="cls-1" d="m4.01,59.08c0,.33.27.59.59.59s.59-.27.59-.59-.27-.59-.59-.59-.59.27-.59.59Z"/>
      <circle class="cls-1" cx="6.61" cy="55.61" r=".59"/>
      <path class="cls-1" d="m1.19,38.23c0-.33-.27-.59-.59-.59,0,0,0,0,0,0-.1.36-.19.73-.27,1.1.09.05.18.08.28.08.33,0,.59-.27.59-.59Z"/>
      <circle class="cls-1" cx=".59" cy="45.18" r=".59"/>
      <path class="cls-1" d="m.59,51.54s-.05.01-.07.01c.1.38.2.75.32,1.12.2-.09.35-.3.35-.54,0-.33-.27-.59-.59-.59Z"/>
      <path class="cls-1" d="m2.6,49.25c.33,0,.59-.27.59-.59s-.27-.59-.59-.59-.59.27-.59.59.27.59.59.59Z"/>
      <path class="cls-1" d="m2.6,56.2c.33,0,.59-.27.59-.59s-.27-.59-.59-.59-.59.27-.59.59c0,.08.02.15.05.22,0,0,0,.01,0,.02.09.21.3.35.54.35Z"/>
    </g>
    <g>
      <path class="cls-1" d="m135.57,131.8c-.1-.19-.29-.32-.52-.32-.33,0-.59.27-.59.59s.27.59.59.59c.24,0,.44-.14.53-.34,0-.17,0-.35-.01-.52Z"/>
      <path class="cls-1" d="m135.15,138.45s-.07-.02-.1-.02c-.33,0-.59.27-.59.59,0,.29.21.51.47.57.08-.38.15-.76.22-1.14Z"/>
      <circle class="cls-1" cx="131.04" cy="125.12" r=".59"/>
      <path class="cls-1" d="m132.45,121.65c0,.33.27.59.59.59.13,0,.25-.05.35-.13-.14-.35-.3-.7-.46-1.04-.28.05-.49.28-.49.57Z"/>
      <path class="cls-1" d="m133.04,128.01c-.33,0-.59.27-.59.59s.27.59.59.59.59-.27.59-.59-.27-.59-.59-.59Z"/>
      <path class="cls-1" d="m134.49,125.3s0,.05.02.07c0-.02-.01-.05-.02-.07Z"/>
      <path class="cls-1" d="m132.45,135.55c0,.33.27.59.59.59s.59-.27.59-.59-.27-.59-.59-.59-.59.27-.59.59Z"/>
      <path class="cls-1" d="m133.64,142.5c0-.33-.27-.59-.59-.59s-.59.27-.59.59.27.59.59.59.59-.27.59-.59Z"/>
      <path class="cls-1" d="m130.44,118.17c0,.33.27.59.59.59.23,0,.43-.14.53-.33-.17-.29-.34-.57-.52-.86,0,0,0,0,0,0-.33,0-.59.27-.59.59Z"/>
      <path class="cls-1" d="m127.02,117.58c-.33,0-.59.27-.59.59s.27.59.59.59.59-.27.59-.59-.27-.59-.59-.59Z"/>
      <path class="cls-1" d="m129.03,115.29c.12,0,.22-.04.32-.11-.24-.31-.49-.61-.74-.91-.11.11-.17.26-.17.42,0,.33.27.59.59.59Z"/>
      <path class="cls-1" d="m127.02,124.53c-.33,0-.59.27-.59.59s.27.59.59.59.59-.27.59-.59-.27-.59-.59-.59Z"/>
      <path class="cls-1" d="m129.62,121.65c0-.33-.27-.59-.59-.59s-.59.27-.59.59.27.59.59.59.59-.27.59-.59Z"/>
      <path class="cls-1" d="m127.02,131.48c-.33,0-.59.27-.59.59s.27.59.59.59.59-.27.59-.59-.27-.59-.59-.59Z"/>
      <path class="cls-1" d="m128.44,128.6c0,.33.27.59.59.59s.59-.27.59-.59-.27-.59-.59-.59-.59.27-.59.59Z"/>
      <path class="cls-1" d="m127.02,138.43c-.33,0-.59.27-.59.59s.27.59.59.59.59-.27.59-.59-.27-.59-.59-.59Z"/>
      <path class="cls-1" d="m128.44,135.55c0,.33.27.59.59.59s.59-.27.59-.59-.27-.59-.59-.59-.59.27-.59.59Z"/>
      <circle class="cls-1" cx="131.04" cy="132.07" r=".59"/>
      <path class="cls-1" d="m127.02,145.38c-.33,0-.59.27-.59.59s.27.59.59.59.59-.27.59-.59-.27-.59-.59-.59Z"/>
      <path class="cls-1" d="m128.44,142.5c0,.33.27.59.59.59s.59-.27.59-.59-.27-.59-.59-.59-.59.27-.59.59Z"/>
      <path class="cls-1" d="m131.04,139.62c.33,0,.59-.27.59-.59s-.27-.59-.59-.59-.59.27-.59.59.27.59.59.59Z"/>
      <path class="cls-1" d="m127.02,152.34c-.33,0-.59.27-.59.59s.27.59.59.59.59-.27.59-.59-.27-.59-.59-.59Z"/>
      <path class="cls-1" d="m129.03,150.05c.33,0,.59-.27.59-.59s-.27-.59-.59-.59-.59.27-.59.59.27.59.59.59Z"/>
      <circle class="cls-1" cx="131.04" cy="145.98" r=".59"/>
      <path class="cls-1" d="m123.01,110.63c-.33,0-.59.27-.59.59s.27.59.59.59.59-.27.59-.59-.27-.59-.59-.59Z"/>
      <circle class="cls-1" cx="123.01" cy="118.17" r=".59"/>
      <circle class="cls-1" cx="125.02" cy="114.7" r=".59"/>
      <circle class="cls-1" cx="125.02" cy="121.65" r=".59"/>
      <circle class="cls-1" cx="123.01" cy="132.07" r=".59"/>
      <circle class="cls-1" cx="125.02" cy="128.6" r=".59"/>
      <path class="cls-1" d="m123.01,138.43c-.33,0-.59.27-.59.59s.27.59.59.59.59-.27.59-.59-.27-.59-.59-.59Z"/>
      <path class="cls-1" d="m124.42,135.55c0,.33.27.59.59.59s.59-.27.59-.59-.27-.59-.59-.59-.59.27-.59.59Z"/>
      <circle class="cls-1" cx="123.01" cy="145.98" r=".59"/>
      <circle class="cls-1" cx="125.02" cy="142.5" r=".59"/>
      <circle class="cls-1" cx="123.01" cy="152.93" r=".59"/>
      <circle class="cls-1" cx="125.02" cy="149.45" r=".59"/>
      <path class="cls-1" d="m124.42,156.41s0,0,0,0c.24-.19.47-.38.71-.57-.04,0-.07-.02-.11-.02-.33,0-.59.27-.59.59Z"/>
      <path class="cls-1" d="m119,110.63c-.33,0-.59.27-.59.59s.27.59.59.59.59-.27.59-.59-.27-.59-.59-.59Z"/>
      <path class="cls-1" d="m121,108.34c.17,0,.32-.08.43-.19-.33-.2-.66-.38-.99-.57-.02.05-.03.11-.03.17,0,.33.27.59.59.59Z"/>
      <path class="cls-1" d="m121.6,114.7c0-.33-.27-.59-.59-.59s-.59.27-.59.59.27.59.59.59.59-.27.59-.59Z"/>
      <path class="cls-1" d="m119,124.53c-.33,0-.59.27-.59.59s.27.59.59.59.59-.27.59-.59-.27-.59-.59-.59Z"/>
      <path class="cls-1" d="m121,122.24c.33,0,.59-.27.59-.59s-.27-.59-.59-.59-.59.27-.59.59.27.59.59.59Z"/>
      <path class="cls-1" d="m121.6,128.6c0-.33-.27-.59-.59-.59s-.59.27-.59.59.27.59.59.59.59-.27.59-.59Z"/>
      <circle class="cls-1" cx="123.01" cy="125.12" r=".59"/>
      <path class="cls-1" d="m120.41,135.55c0,.33.27.59.59.59s.59-.27.59-.59-.27-.59-.59-.59-.59.27-.59.59Z"/>
      <path class="cls-1" d="m120.41,142.5c0,.33.27.59.59.59s.59-.27.59-.59-.27-.59-.59-.59-.59.27-.59.59Z"/>
      <path class="cls-1" d="m120.41,149.45c0,.33.27.59.59.59s.59-.27.59-.59-.27-.59-.59-.59-.59.27-.59.59Z"/>
      <path class="cls-1" d="m120.41,156.41c0,.33.27.59.59.59s.59-.27.59-.59-.27-.59-.59-.59-.59.27-.59.59Z"/>
      <path class="cls-1" d="m117.58,107.74c0-.33-.27-.59-.59-.59s-.59.27-.59.59.27.59.59.59.59-.27.59-.59Z"/>
      <circle class="cls-1" cx="114.98" cy="118.17" r=".59"/>
      <circle class="cls-1" cx="116.99" cy="114.7" r=".59"/>
      <circle class="cls-1" cx="114.98" cy="125.12" r=".59"/>
      <circle class="cls-1" cx="116.99" cy="121.65" r=".59"/>
      <path class="cls-1" d="m119,118.76c.33,0,.59-.27.59-.59s-.27-.59-.59-.59-.59.27-.59.59.27.59.59.59Z"/>
      <circle class="cls-1" cx="114.98" cy="132.07" r=".59"/>
      <circle class="cls-1" cx="116.99" cy="128.6" r=".59"/>
      <path class="cls-1" d="m114.98,138.43c-.33,0-.59.27-.59.59s.27.59.59.59.59-.27.59-.59-.27-.59-.59-.59Z"/>
      <path class="cls-1" d="m116.39,135.55c0,.33.27.59.59.59s.59-.27.59-.59-.27-.59-.59-.59-.59.27-.59.59Z"/>
      <path class="cls-1" d="m119,132.67c.33,0,.59-.27.59-.59s-.27-.59-.59-.59-.59.27-.59.59.27.59.59.59Z"/>
      <circle class="cls-1" cx="114.98" cy="145.98" r=".59"/>
      <circle class="cls-1" cx="116.99" cy="142.5" r=".59"/>
      <path class="cls-1" d="m119,139.62c.33,0,.59-.27.59-.59s-.27-.59-.59-.59-.59.27-.59.59.27.59.59.59Z"/>
      <circle class="cls-1" cx="114.98" cy="152.93" r=".59"/>
      <circle class="cls-1" cx="116.99" cy="149.45" r=".59"/>
      <path class="cls-1" d="m119,146.57c.33,0,.59-.27.59-.59s-.27-.59-.59-.59-.59.27-.59.59.27.59.59.59Z"/>
      <path class="cls-1" d="m119.49,159.57c-.11-.17-.28-.28-.49-.28-.33,0-.59.27-.59.59,0,.07.02.14.04.2.35-.16.7-.33,1.05-.51Z"/>
      <path class="cls-1" d="m114.98,159.29c-.33,0-.59.27-.59.59s.27.59.59.59.59-.27.59-.59-.27-.59-.59-.59Z"/>
      <circle class="cls-1" cx="116.99" cy="156.41" r=".59"/>
      <path class="cls-1" d="m119,153.52c.33,0,.59-.27.59-.59s-.27-.59-.59-.59-.59.27-.59.59.27.59.59.59Z"/>
      <path class="cls-1" d="m110.97,110.63c-.33,0-.59.27-.59.59s.27.59.59.59.59-.27.59-.59-.27-.59-.59-.59Z"/>
      <path class="cls-1" d="m112.97,108.34c.33,0,.59-.27.59-.59s-.27-.59-.59-.59-.59.27-.59.59.27.59.59.59Z"/>
      <path class="cls-1" d="m110.97,117.58c-.33,0-.59.27-.59.59s.27.59.59.59.59-.27.59-.59-.27-.59-.59-.59Z"/>
      <path class="cls-1" d="m113.57,114.7c0-.33-.27-.59-.59-.59s-.59.27-.59.59.27.59.59.59.59-.27.59-.59Z"/>
      <path class="cls-1" d="m114.98,111.81c.33,0,.59-.27.59-.59s-.27-.59-.59-.59-.59.27-.59.59.27.59.59.59Z"/>
      <path class="cls-1" d="m110.97,124.53c-.33,0-.59.27-.59.59s.27.59.59.59.59-.27.59-.59-.27-.59-.59-.59Z"/>
      <path class="cls-1" d="m113.57,121.65c0-.33-.27-.59-.59-.59s-.59.27-.59.59.27.59.59.59.59-.27.59-.59Z"/>
      <path class="cls-1" d="m110.97,131.48c-.33,0-.59.27-.59.59s.27.59.59.59.59-.27.59-.59-.27-.59-.59-.59Z"/>
      <path class="cls-1" d="m113.57,128.6c0-.33-.27-.59-.59-.59s-.59.27-.59.59.27.59.59.59.59-.27.59-.59Z"/>
      <path class="cls-1" d="m110.97,138.43c-.33,0-.59.27-.59.59s.27.59.59.59.59-.27.59-.59-.27-.59-.59-.59Z"/>
      <path class="cls-1" d="m112.38,135.55c0,.33.27.59.59.59s.59-.27.59-.59-.27-.59-.59-.59-.59.27-.59.59Z"/>
      <path class="cls-1" d="m110.97,145.38c-.33,0-.59.27-.59.59s.27.59.59.59.59-.27.59-.59-.27-.59-.59-.59Z"/>
      <path class="cls-1" d="m112.38,142.5c0,.33.27.59.59.59s.59-.27.59-.59-.27-.59-.59-.59-.59.27-.59.59Z"/>
      <path class="cls-1" d="m110.97,152.34c-.33,0-.59.27-.59.59s.27.59.59.59.59-.27.59-.59-.27-.59-.59-.59Z"/>
      <path class="cls-1" d="m112.38,149.45c0,.33.27.59.59.59s.59-.27.59-.59-.27-.59-.59-.59-.59.27-.59.59Z"/>
      <path class="cls-1" d="m110.97,159.29c-.33,0-.59.27-.59.59s.27.59.59.59.59-.27.59-.59-.27-.59-.59-.59Z"/>
      <path class="cls-1" d="m112.38,156.41c0,.33.27.59.59.59s.59-.27.59-.59-.27-.59-.59-.59-.59.27-.59.59Z"/>
      <path class="cls-1" d="m106.95,110.63c-.33,0-.59.27-.59.59s.27.59.59.59.59-.27.59-.59-.27-.59-.59-.59Z"/>
      <path class="cls-1" d="m108.96,108.34c.33,0,.59-.27.59-.59s-.27-.59-.59-.59-.59.27-.59.59.27.59.59.59Z"/>
      <path class="cls-1" d="m110.37,104.27c0,.33.27.59.59.59.29,0,.52-.21.57-.48-.38-.07-.76-.14-1.15-.19,0,.03-.02.05-.02.08Z"/>
      <path class="cls-1" d="m106.95,117.58c-.33,0-.59.27-.59.59s.27.59.59.59.59-.27.59-.59-.27-.59-.59-.59Z"/>
      <circle class="cls-1" cx="108.96" cy="114.7" r=".59"/>
      <path class="cls-1" d="m106.95,124.53c-.33,0-.59.27-.59.59s.27.59.59.59.59-.27.59-.59-.27-.59-.59-.59Z"/>
      <circle class="cls-1" cx="108.96" cy="121.65" r=".59"/>
      <path class="cls-1" d="m106.95,131.48c-.33,0-.59.27-.59.59s.27.59.59.59.59-.27.59-.59-.27-.59-.59-.59Z"/>
      <circle class="cls-1" cx="108.96" cy="128.6" r=".59"/>
      <path class="cls-1" d="m106.95,138.43c-.33,0-.59.27-.59.59s.27.59.59.59.59-.27.59-.59-.27-.59-.59-.59Z"/>
      <path class="cls-1" d="m108.37,135.55c0,.33.27.59.59.59s.59-.27.59-.59-.27-.59-.59-.59-.59.27-.59.59Z"/>
      <path class="cls-1" d="m106.95,145.38c-.33,0-.59.27-.59.59s.27.59.59.59.59-.27.59-.59-.27-.59-.59-.59Z"/>
      <circle class="cls-1" cx="108.96" cy="142.5" r=".59"/>
      <path class="cls-1" d="m106.95,152.34c-.33,0-.59.27-.59.59s.27.59.59.59.59-.27.59-.59-.27-.59-.59-.59Z"/>
      <circle class="cls-1" cx="108.96" cy="149.45" r=".59"/>
      <path class="cls-1" d="m106.95,159.29c-.33,0-.59.27-.59.59s.27.59.59.59.59-.27.59-.59-.27-.59-.59-.59Z"/>
      <circle class="cls-1" cx="108.96" cy="156.41" r=".59"/>
      <path class="cls-1" d="m102.94,110.63c-.33,0-.59.27-.59.59s.27.59.59.59.59-.27.59-.59-.27-.59-.59-.59Z"/>
      <path class="cls-1" d="m104.95,108.34c.33,0,.59-.27.59-.59s-.27-.59-.59-.59-.59.27-.59.59.27.59.59.59Z"/>
      <path class="cls-1" d="m106.36,104.27c0,.33.27.59.59.59s.59-.27.59-.59c0-.13-.05-.25-.13-.35-.3-.01-.61-.02-.91-.02-.09.1-.14.23-.14.38Z"/>
      <circle class="cls-1" cx="102.94" cy="118.17" r=".59"/>
      <path class="cls-1" d="m105.54,114.7c0-.33-.27-.59-.59-.59s-.59.27-.59.59.27.59.59.59.59-.27.59-.59Z"/>
      <circle class="cls-1" cx="102.94" cy="125.12" r=".59"/>
      <path class="cls-1" d="m105.54,121.65c0-.33-.27-.59-.59-.59s-.59.27-.59.59.27.59.59.59.59-.27.59-.59Z"/>
      <circle class="cls-1" cx="102.94" cy="132.07" r=".59"/>
      <path class="cls-1" d="m105.54,128.6c0-.33-.27-.59-.59-.59s-.59.27-.59.59.27.59.59.59.59-.27.59-.59Z"/>
      <path class="cls-1" d="m102.94,138.43c-.33,0-.59.27-.59.59s.27.59.59.59.59-.27.59-.59-.27-.59-.59-.59Z"/>
      <path class="cls-1" d="m104.35,135.55c0,.33.27.59.59.59s.59-.27.59-.59-.27-.59-.59-.59-.59.27-.59.59Z"/>
      <circle class="cls-1" cx="102.94" cy="145.98" r=".59"/>
      <path class="cls-1" d="m104.35,142.5c0,.33.27.59.59.59s.59-.27.59-.59-.27-.59-.59-.59-.59.27-.59.59Z"/>
      <circle class="cls-1" cx="102.94" cy="152.93" r=".59"/>
      <path class="cls-1" d="m104.35,149.45c0,.33.27.59.59.59s.59-.27.59-.59-.27-.59-.59-.59-.59.27-.59.59Z"/>
      <path class="cls-1" d="m102.94,159.29c-.33,0-.59.27-.59.59s.27.59.59.59.59-.27.59-.59-.27-.59-.59-.59Z"/>
      <path class="cls-1" d="m104.35,156.41c0,.33.27.59.59.59s.59-.27.59-.59-.27-.59-.59-.59-.59.27-.59.59Z"/>
      <path class="cls-1" d="m98.93,110.63c-.33,0-.59.27-.59.59s.27.59.59.59.59-.27.59-.59-.27-.59-.59-.59Z"/>
      <path class="cls-1" d="m100.93,107.15c-.33,0-.59.27-.59.59s.27.59.59.59.59-.27.59-.59-.27-.59-.59-.59Z"/>
      <path class="cls-1" d="m102.35,104.27c0,.33.27.59.59.59s.59-.27.59-.59c0-.09-.03-.18-.06-.26-.37.03-.73.08-1.1.12-.01.04-.03.09-.03.13Z"/>
      <path class="cls-1" d="m98.93,104.86c.16,0,.31-.07.42-.18-.2.05-.4.09-.59.14.06.02.11.03.17.03Z"/>
      <path class="cls-1" d="m98.93,117.58c-.33,0-.59.27-.59.59s.27.59.59.59.59-.27.59-.59-.27-.59-.59-.59Z"/>
      <circle class="cls-1" cx="100.93" cy="114.7" r=".59"/>
      <path class="cls-1" d="m98.93,124.53c-.33,0-.59.27-.59.59s.27.59.59.59.59-.27.59-.59-.27-.59-.59-.59Z"/>
      <circle class="cls-1" cx="100.93" cy="121.65" r=".59"/>
      <path class="cls-1" d="m98.93,131.48c-.33,0-.59.27-.59.59s.27.59.59.59.59-.27.59-.59-.27-.59-.59-.59Z"/>
      <circle class="cls-1" cx="100.93" cy="128.6" r=".59"/>
      <path class="cls-1" d="m98.93,138.43c-.33,0-.59.27-.59.59s.27.59.59.59.59-.27.59-.59-.27-.59-.59-.59Z"/>
      <path class="cls-1" d="m100.34,135.55c0,.33.27.59.59.59s.59-.27.59-.59-.27-.59-.59-.59-.59.27-.59.59Z"/>
      <path class="cls-1" d="m98.93,145.38c-.33,0-.59.27-.59.59s.27.59.59.59.59-.27.59-.59-.27-.59-.59-.59Z"/>
      <circle class="cls-1" cx="100.93" cy="142.5" r=".59"/>
      <path class="cls-1" d="m98.93,152.34c-.33,0-.59.27-.59.59s.27.59.59.59.59-.27.59-.59-.27-.59-.59-.59Z"/>
      <circle class="cls-1" cx="100.93" cy="149.45" r=".59"/>
      <path class="cls-1" d="m98.93,159.29c-.33,0-.59.27-.59.59s.27.59.59.59.59-.27.59-.59-.27-.59-.59-.59Z"/>
      <circle class="cls-1" cx="100.93" cy="156.41" r=".59"/>
      <path class="cls-1" d="m94.91,110.63c-.33,0-.59.27-.59.59s.27.59.59.59.59-.27.59-.59-.27-.59-.59-.59Z"/>
      <path class="cls-1" d="m97.51,107.74c0-.33-.27-.59-.59-.59s-.59.27-.59.59.27.59.59.59.59-.27.59-.59Z"/>
      <circle class="cls-1" cx="94.91" cy="118.17" r=".59"/>
      <path class="cls-1" d="m96.92,114.1c-.33,0-.59.27-.59.59s.27.59.59.59.59-.27.59-.59-.27-.59-.59-.59Z"/>
      <circle class="cls-1" cx="94.91" cy="125.12" r=".59"/>
      <path class="cls-1" d="m97.51,121.65c0-.33-.27-.59-.59-.59s-.59.27-.59.59.27.59.59.59.59-.27.59-.59Z"/>
      <circle class="cls-1" cx="94.91" cy="132.07" r=".59"/>
      <path class="cls-1" d="m97.51,128.6c0-.33-.27-.59-.59-.59s-.59.27-.59.59.27.59.59.59.59-.27.59-.59Z"/>
      <path class="cls-1" d="m94.91,138.43c-.33,0-.59.27-.59.59s.27.59.59.59.59-.27.59-.59-.27-.59-.59-.59Z"/>
      <path class="cls-1" d="m96.33,135.55c0,.33.27.59.59.59s.59-.27.59-.59-.27-.59-.59-.59-.59.27-.59.59Z"/>
      <circle class="cls-1" cx="94.91" cy="145.98" r=".59"/>
      <path class="cls-1" d="m96.33,142.5c0,.33.27.59.59.59s.59-.27.59-.59-.27-.59-.59-.59-.59.27-.59.59Z"/>
      <circle class="cls-1" cx="94.91" cy="152.93" r=".59"/>
      <path class="cls-1" d="m96.33,149.45c0,.33.27.59.59.59s.59-.27.59-.59-.27-.59-.59-.59-.59.27-.59.59Z"/>
      <path class="cls-1" d="m94.91,159.29c-.33,0-.59.27-.59.59s.27.59.59.59.59-.27.59-.59-.27-.59-.59-.59Z"/>
      <path class="cls-1" d="m96.33,156.41c0,.33.27.59.59.59s.59-.27.59-.59-.27-.59-.59-.59-.59.27-.59.59Z"/>
      <path class="cls-1" d="m90.9,110.63c-.33,0-.59.27-.59.59s.27.59.59.59.59-.27.59-.59-.27-.59-.59-.59Z"/>
      <path class="cls-1" d="m93.5,107.74c0-.33-.27-.59-.59-.59s-.59.27-.59.59.27.59.59.59.59-.27.59-.59Z"/>
      <circle class="cls-1" cx="92.91" cy="114.7" r=".59"/>
      <path class="cls-1" d="m90.9,124.53c-.33,0-.59.27-.59.59s.27.59.59.59.59-.27.59-.59-.27-.59-.59-.59Z"/>
      <circle class="cls-1" cx="92.91" cy="121.65" r=".59"/>
      <path class="cls-1" d="m90.9,131.48c-.33,0-.59.27-.59.59s.27.59.59.59.59-.27.59-.59-.27-.59-.59-.59Z"/>
      <circle class="cls-1" cx="92.91" cy="128.6" r=".59"/>
      <path class="cls-1" d="m90.9,138.43c-.33,0-.59.27-.59.59s.27.59.59.59.59-.27.59-.59-.27-.59-.59-.59Z"/>
      <path class="cls-1" d="m92.31,135.55c0,.33.27.59.59.59s.59-.27.59-.59-.27-.59-.59-.59-.59.27-.59.59Z"/>
      <path class="cls-1" d="m90.9,145.38c-.33,0-.59.27-.59.59s.27.59.59.59.59-.27.59-.59-.27-.59-.59-.59Z"/>
      <circle class="cls-1" cx="92.91" cy="142.5" r=".59"/>
      <path class="cls-1" d="m90.9,152.34c-.33,0-.59.27-.59.59s.27.59.59.59.59-.27.59-.59-.27-.59-.59-.59Z"/>
      <circle class="cls-1" cx="92.91" cy="149.45" r=".59"/>
      <circle class="cls-1" cx="92.91" cy="156.41" r=".59"/>
      <circle class="cls-1" cx="86.89" cy="118.17" r=".59"/>
      <path class="cls-1" d="m88.89,115.29c.33,0,.59-.27.59-.59s-.27-.59-.59-.59-.59.27-.59.59.27.59.59.59Z"/>
      <circle class="cls-1" cx="86.89" cy="125.12" r=".59"/>
      <path class="cls-1" d="m89.49,121.65c0-.33-.27-.59-.59-.59s-.59.27-.59.59.27.59.59.59.59-.27.59-.59Z"/>
      <path class="cls-1" d="m90.9,118.76c.33,0,.59-.27.59-.59s-.27-.59-.59-.59-.59.27-.59.59.27.59.59.59Z"/>
      <path class="cls-1" d="m89.49,128.6c0-.33-.27-.59-.59-.59s-.59.27-.59.59.27.59.59.59.59-.27.59-.59Z"/>
      <path class="cls-1" d="m88.3,135.55c0,.33.27.59.59.59s.59-.27.59-.59-.27-.59-.59-.59-.59.27-.59.59Z"/>
      <path class="cls-1" d="m88.3,142.5c0,.33.27.59.59.59s.59-.27.59-.59-.27-.59-.59-.59-.59.27-.59.59Z"/>
      <circle class="cls-1" cx="86.89" cy="152.93" r=".59"/>
      <path class="cls-1" d="m88.3,149.45c0,.33.27.59.59.59s.59-.27.59-.59-.27-.59-.59-.59-.59.27-.59.59Z"/>
      <path class="cls-1" d="m88.3,156.41c0,.33.27.59.59.59s.59-.27.59-.59-.27-.59-.59-.59-.59.27-.59.59Z"/>
      <path class="cls-1" d="m86.39,111.52c.1.17.28.29.5.29.33,0,.59-.27.59-.59,0-.19-.09-.34-.22-.45-.29.25-.59.5-.87.75Z"/>
      <path class="cls-1" d="m82.87,117.58c-.33,0-.59.27-.59.59s.27.59.59.59.59-.27.59-.59-.27-.59-.59-.59Z"/>
      <path class="cls-1" d="m84.88,114.1c-.33,0-.59.27-.59.59s.27.59.59.59.59-.27.59-.59-.27-.59-.59-.59Z"/>
      <path class="cls-1" d="m82.87,124.53c-.33,0-.59.27-.59.59s.27.59.59.59.59-.27.59-.59-.27-.59-.59-.59Z"/>
      <path class="cls-1" d="m85.47,121.65c0-.33-.27-.59-.59-.59s-.59.27-.59.59.27.59.59.59.59-.27.59-.59Z"/>
      <path class="cls-1" d="m82.87,131.48c-.33,0-.59.27-.59.59s.27.59.59.59.59-.27.59-.59-.27-.59-.59-.59Z"/>
      <path class="cls-1" d="m85.47,128.6c0-.33-.27-.59-.59-.59s-.59.27-.59.59.27.59.59.59.59-.27.59-.59Z"/>
      <path class="cls-1" d="m82.87,138.43c-.33,0-.59.27-.59.59s.27.59.59.59.59-.27.59-.59-.27-.59-.59-.59Z"/>
      <path class="cls-1" d="m84.29,135.55c0,.33.27.59.59.59s.59-.27.59-.59-.27-.59-.59-.59-.59.27-.59.59Z"/>
      <circle class="cls-1" cx="86.89" cy="132.07" r=".59"/>
      <path class="cls-1" d="m82.87,145.38c-.33,0-.59.27-.59.59s.27.59.59.59.59-.27.59-.59-.27-.59-.59-.59Z"/>
      <path class="cls-1" d="m84.29,142.5c0,.33.27.59.59.59s.59-.27.59-.59-.27-.59-.59-.59-.59.27-.59.59Z"/>
      <path class="cls-1" d="m86.89,139.62c.33,0,.59-.27.59-.59s-.27-.59-.59-.59-.59.27-.59.59.27.59.59.59Z"/>
      <path class="cls-1" d="m84.88,150.05c.33,0,.59-.27.59-.59s-.27-.59-.59-.59-.59.27-.59.59.27.59.59.59Z"/>
      <circle class="cls-1" cx="86.89" cy="145.98" r=".59"/>
      <circle class="cls-1" cx="80.87" cy="121.65" r=".59"/>
      <circle class="cls-1" cx="80.87" cy="128.6" r=".59"/>
      <path class="cls-1" d="m78.86,138.43c-.33,0-.59.27-.59.59s.27.59.59.59.59-.27.59-.59-.27-.59-.59-.59Z"/>
      <path class="cls-1" d="m80.27,135.55c0,.33.27.59.59.59s.59-.27.59-.59-.27-.59-.59-.59-.59.27-.59.59Z"/>
      <circle class="cls-1" cx="80.87" cy="142.5" r=".59"/>
      <path class="cls-1" d="m81.27,149.03c.05.08.1.15.15.23-.03-.09-.08-.17-.15-.23Z"/>
      <path class="cls-1" d="m77.45,128.6c0-.2-.1-.36-.25-.47-.06.34-.12.68-.17,1.03.24-.08.42-.29.42-.56Z"/>
      <circle class="cls-1" cx="78.86" cy="125.12" r=".59"/>
      <path class="cls-1" d="m76.85,134.96s-.05.01-.07.01c.02.39.05.78.09,1.17.32,0,.58-.27.58-.59s-.27-.59-.59-.59Z"/>
      <circle class="cls-1" cx="78.86" cy="132.07" r=".59"/>
    </g>
  </g>
  <g id="_人物" data-name="人物">
    <g>
      <g>
        <path class="cls-8" d="m47.08,111.25s7.64,1.13,22.1,1.13,22.35-1.13,22.35-1.13l.92,6.47s-10.8,1.87-23.02,1.87-23.27-1.87-23.27-1.87l.92-6.47Z"/>
        <path class="cls-1" d="m75.93,112.38l.2,5.15c.05,1.2-.87,2.21-2.06,2.27s-2.81.12-4.76.12c-1.95,0-3.58-.06-4.76-.12s-2.11-1.07-2.06-2.27l.2-5.15h2.5s2.49,2.19,2.49,2.19c-.64-.02-1.22-.05-1.65-.08-.4-.02-.74.29-.76.69l-.08,1.71c-.02.35.25.65.6.67.69.04,1.92.08,3.52.08,1.6,0,2.83-.05,3.52-.08.35-.02.62-.32.6-.67l-.08-1.71c-.02-.4-.36-.71-.76-.69-.43.03-1,.06-1.65.08l2.19-2.08,2.8-.1Z"/>
        <path class="cls-6" d="m91.05,111.25c2.64-2.31,4.51-5.12,3.55-8.5-.96-3.39-.91-5.69-.91-10.06l.12-.04c1.1-.1,2.25-.36,3.44-.8,4.77-1.76,8.04-6.7,8.79-13.73s.33-20.09-2.51-24.95c-2.28-3.89-6.15-5.03-14.41-7.62l-10.76-2.13s-4.53,8.93-9.06,8.93-8.33-9.16-8.33-9.16l-11.49,2.37c-8.26,2.59-12.13,3.73-14.41,7.62-2.85,4.86-3.27,17.92-2.51,24.95.75,7.03,4.02,11.97,8.79,13.73,1.24.46,2.43.72,3.57.81v.03c0,4.37.05,6.68-.91,10.06-.96,3.39.91,6.19,3.55,8.5,0,0,9.63,1.13,21.62,1.13s21.87-1.13,21.87-1.13Z"/>
        <path class="cls-7" d="m82.1,16.25c1.33,3.6.51,10,.51,10,2.09-1.35,3.78-3.92,3.78-3.92,1.01.56,1.68,2.1,1.28,4.49-.43,2.63-1.85,4.11-2.63,4.74l.56.62s.43,2.47.54,3.72l.84-.24s1.51.61,1.61,1.42c.56,4.43.81,8.2.06,11.9-.59,2.91-2.24,5.88-3.51,8.06-.41.71-.5,1.56-.23,2.33.15.44.92,1.07.54,1.41-3.25,2.96-8.44,2.63-8.44,2.63,0,0-5.4-7.57-2.54-14.62-.86,1.16-2.07,2.17-3.34,2.99-1.11.72-2.55.72-3.66,0-1.27-.83-2.48-1.83-3.34-2.99,0,0,1.12,4.1.28,7.57-.83,3.47-3.18,7.05-3.18,7.05,0,0-4.44.25-8.08-2.63.2-.47.39-.97.54-1.41.27-.78.18-1.62-.23-2.33-1.27-2.18-2.92-5.14-3.51-8.06-.75-3.69-.5-7.47.06-11.9.1-.81.8-1.42,1.61-1.42h0s.84.24.84.24c.12-1.24.54-3.71.54-3.72l.56-.62c-.78-.63-2.19-2.11-2.63-4.74-.61-3.7,1.32-5.37,3.15-4.5,0,0,.36,1.63,1.84,3.49.05-4.53-.29-12.02,5.31-18.38,6.68-4.11,17.57-.07,20.86,8.81Z"/>
        <path class="cls-1" d="m69.31,37.02c2.44,0,4.46-6.01,4.46-6.01-.9.43-3.08.56-4.46.56-1.38,0-3.57-.13-4.46-.56,0,0,2.02,6.01,4.46,6.01Z"/>
        <path class="cls-8" d="m82.6,26.26c2.22-1.88,4.67-3.61,4.69-8.53.02-7.85-11.22-23.25-23.63-13.99l-2.43.89c-6.5,1.03-11.76,11.57-5.31,21.2l.02-.93c-.33-10.9,2.94-14.58,5.29-17.45-.06,2.5.72,7.36,3.81,9.56.53.38,1.22-.27.88-.83-1.03-1.74-1.92-3.94-2-6.31-.03-.76.91-1.14,1.38-.54,2.56,3.23,8.62,7.93,16.03,6.93l.76.54s.57,4.4.51,9.47Z"/>
        <path class="cls-5" d="m72.69,56.77s-.71,4.36-1.39,7.33c0,0,3.65,36.33,3.65,46.65l-5.64,5.37-5.64-5.37c0-10.32,3.65-46.65,3.65-46.65-.68-2.96-1.39-7.33-1.39-7.33,0,0,2.18-2.23,3.39-2.23s3.39,2.23,3.39,2.23Z"/>
        <path class="cls-4" d="m100.61,180.94c0,11.42-4.85-44.42-5.75-50.53-.9-6.11-.82-5.68-1.07-8.32s-1.33-3.73-1.33-3.73c0,0-12.27,1.24-23.02,1.24s-23.27-1.24-23.27-1.24c0,0-1.08,1.09-1.33,3.73-.25,2.64-.17,2.21-1.07,8.32-.9,6.11-4.99,39.14-5.75,50.53h27.95c1.01-9.54,3.35-28.2,3.35-28.2,0,0,2.34,18.66,3.35,28.2,0,0,27.95-.33,27.95,0Z"/>
        <path class="cls-4" d="m69.31,42.38c.23,2.71,2.33,7.03,5.67,4.32l.17-6.03s-1.94,2.07-5.85,1.71Z"/>
        <path class="cls-4" d="m65.99,33.7c1.54.59,5.54.34,6.63,0,0,0-1.16,3.32-3.31,3.32s-3.31-3.32-3.31-3.32Z"/>
      </g>
      <g>
        <circle class="cls-4" cx="79.68" cy="108.42" r=".64"/>
        <path class="cls-4" d="m56.28,30.43c-.43,0-.8-.32-.84-.76-1.54-14.6,2.21-19.18,4.95-22.52l.2-.24c.23-.28.62-.39.95-.26.34.13.56.45.56.82-.07,3,.91,6.95,2.89,8.69.35.31.39.85.08,1.2-.31.35-.85.39-1.2.08-1.94-1.7-3.01-4.84-3.35-7.7-2.29,3.1-4.62,7.95-3.38,19.76.05.47-.29.89-.76.93-.03,0-.06,0-.09,0Z"/>
        <path class="cls-4" d="m55.93,26.67c-.27,0-.54-.13-.71-.38-3.31-4.94-4-10.84-1.83-15.8,1.59-3.64,4.55-6.22,7.71-6.72.46-.08.9.24.97.71.07.46-.24.9-.71.97-2.6.41-5.06,2.6-6.42,5.72-1.93,4.42-1.3,9.72,1.68,14.17.26.39.16.92-.23,1.18-.15.1-.31.14-.47.14Z"/>
        <path class="cls-4" d="m53.56,32.43c-.19,0-.38-.06-.54-.19-.89-.72-2.45-2.37-2.93-5.27-.38-2.33.12-4.21,1.37-5.15.86-.65,1.95-.74,2.98-.26.42.2.61.71.41,1.13-.2.42-.71.61-1.13.41-.32-.15-.78-.26-1.23.08-.56.42-1.04,1.57-.72,3.52.38,2.34,1.62,3.65,2.32,4.22.36.3.42.83.12,1.2-.17.21-.41.31-.66.31Z"/>
        <path class="cls-4" d="m53.15,61.64c-.11,0-.23-.02-.34-.07-.43-.19-.63-.69-.44-1.12.19-.45.37-.93.51-1.35.18-.54.12-1.14-.16-1.63-1.54-2.64-3.04-5.47-3.61-8.32-.76-3.75-.53-7.58.05-12.17.16-1.23,1.21-2.16,2.46-2.16.66,0,1.29.26,1.75.73.47.47.72,1.09.72,1.75,0,1.47,0,4.23.04,6.18.02,1.06.34,2.08.93,2.96.43.65.88,1.25,1.32,1.83,1.27,1.68,2.47,3.27,3.02,5.73.1.46-.19.91-.65,1.01-.46.1-.91-.19-1.01-.65-.47-2.1-1.51-3.48-2.71-5.07-.46-.6-.93-1.22-1.38-1.91-.77-1.15-1.19-2.49-1.22-3.87-.04-1.97-.04-4.74-.04-6.22,0-.21-.08-.4-.23-.55-.15-.15-.34-.23-.55-.23-.39,0-.72.29-.77.67-.56,4.42-.78,8.09-.07,11.62.6,2.96,2.43,6.11,3.42,7.8.54.92.65,2.03.3,3.04-.16.46-.35.99-.56,1.48-.14.32-.45.51-.78.51Z"/>
        <path class="cls-4" d="m56.31,45.27c-.44,0-.81-.33-.85-.78-.35-4-.55-7.71-.65-11.65-.01-.44-.41-.54-.49-.56-.15-.03-.41-.04-.55.26-.25.57-.33,1.65-.4,2.6-.02.29-.04.58-.07.85-.04.47-.45.81-.93.77-.47-.04-.81-.46-.77-.93.02-.26.04-.53.07-.81.09-1.14.17-2.32.53-3.13.44-.98,1.42-1.48,2.45-1.27,1.06.22,1.83,1.11,1.85,2.18.1,3.91.3,7.58.65,11.55.04.47-.31.88-.77.92-.02,0-.05,0-.07,0Z"/>
        <path class="cls-4" d="m59.23,44.89c-.17,0-.34-.05-.49-.15-.2-.14-.33-.35-.36-.59-.37-2.78-.66-8.46-.66-11.3,0-2.3-.5-2.39-.77-2.44-.27-.05-.89-.16-1.23,1.2-.11.46-.57.73-1.03.62-.46-.11-.73-.57-.62-1.03.67-2.71,2.61-2.57,3.18-2.47.98.18,1.52.77,1.82,1.55.14,0,.29.02.42.07,1.32.46,1.3,2.67,1.3,3.4-.02,2.87.18,6.86.49,9.92.04.43-.24.82-.66.92l-1.22.28c-.06.01-.12.02-.19.02Z"/>
        <path class="cls-4" d="m61.57,64.27c-.23,0-.46-.09-.62-.27-.44-.47-.22-.86.25-1.72.65-1.18,2.01-3.64,2.46-5.65.54-2.39.41-5.21-.34-7.56-.54-1.7-.56-2.13-.63-3.96-.02-.54-.05-1.2-.09-2.07-.14-2.61-.31-3.56-.63-3.66-.16-.05-.22-.01-.27.02-.21.14-.49.63-.6,1.56-.06.47-.48.8-.95.74-.47-.06-.8-.48-.74-.95.16-1.34.63-2.3,1.36-2.77.5-.33,1.09-.41,1.69-.23,1.52.46,1.67,2.01,1.84,5.2.05.88.07,1.55.09,2.09.07,1.76.08,2.03.55,3.5.84,2.62.98,5.79.38,8.46-.51,2.25-1.94,4.85-2.63,6.1-.13.25-.24.43-.29.54-.04.15-.12.29-.24.4-.16.15-.37.23-.58.23Z"/>
        <path class="cls-4" d="m48.97,60.83c-.22,0-.44-.12-.55-.32-2.73-4.77-7.14-6.3-10.29-5.7-.34.07-.68-.16-.75-.51-.07-.35.16-.68.51-.75,3.61-.68,8.6,1,11.64,6.32.17.31.07.7-.24.87-.1.06-.21.08-.32.08Z"/>
        <path class="cls-4" d="m38,69.37c-.31,0-.58-.23-.63-.55-.05-.35.19-.67.54-.72,3.41-.5,6.99-.83,7.03-.84.34-.02.66.23.69.58.03.35-.22.66-.58.69-.04,0-3.59.34-6.96.83-.03,0-.06,0-.09,0Z"/>
        <path class="cls-4" d="m47.56,112.1c-.2,0-.4-.07-.56-.21-3.49-3.05-4.73-6.12-3.81-9.38.89-3.11.88-5.28.88-9.23v-.6c0-.47.38-.85.85-.85h0c.47,0,.85.38.85.85v.6c0,3.96,0,6.35-.94,9.7-.73,2.56.35,5.06,3.29,7.63.35.31.39.85.08,1.2-.17.19-.4.29-.64.29Z"/>
        <path class="cls-4" d="m38.01,181.79s-.04,0-.06,0c-.47-.03-.82-.44-.79-.91.78-11.6,4.91-44.81,5.76-50.6.81-5.49.83-5.69,1-7.58l.06-.7c.21-2.25.98-3.51,1.37-4.01l.89-6.85c.06-.47.5-.79.95-.73,4.49.57,12.79,1.06,18.32,1.23.47.01.84.41.82.88-.01.47-.43.82-.88.82-5.24-.16-12.96-.61-17.64-1.14l-.81,6.27c-.02.19-.11.36-.24.49,0,0-.88.96-1.09,3.21l-.06.7c-.18,1.93-.2,2.14-1.01,7.67-.85,5.78-4.97,38.91-5.74,50.46-.03.45-.4.79-.85.79Z"/>
        <path class="cls-4" d="m63.14,120.04s-.02,0-.03,0c-2.98-.11-13.02-.53-17.06-1.49-.46-.11-.74-.57-.63-1.02.11-.46.57-.74,1.02-.63,3.89.92,13.79,1.34,16.73,1.45.47.02.84.41.82.88-.02.46-.39.82-.85.82Z"/>
        <path class="cls-4" d="m53.93,119.37s-.06,0-.1,0c-.47-.05-.8-.47-.75-.94l.75-6.58c.05-.47.48-.8.94-.75.47.05.8.47.75.94l-.75,6.58c-.05.43-.42.75-.84.75Z"/>
        <path class="cls-4" d="m65.96,181.79s-.06,0-.09,0c-.47-.05-.81-.47-.76-.93,1-9.44,3.33-28.03,3.35-28.21.06-.47.49-.8.95-.74.47.06.8.48.74.95-.02.19-2.35,18.76-3.35,28.18-.05.44-.42.76-.84.76Z"/>
        <path class="cls-4" d="m82.33,30.43s-.06,0-.09,0c-.47-.05-.81-.47-.76-.93,1.46-13.9-2.02-18.15-4.57-21.26l-.2-.25c-.3-.36-.24-.9.12-1.2.36-.3.9-.24,1.2.12l.2.25c2.73,3.34,6.48,7.92,4.94,22.52-.05.44-.42.76-.84.76Z"/>
        <path class="cls-4" d="m82.6,27.11c-.24,0-.48-.1-.65-.3-.3-.36-.26-.9.1-1.2l.41-.34c2.04-1.7,3.96-3.31,3.97-7.54.01-4.62-4.2-11.92-9.84-14.76-4.1-2.06-8.4-1.56-12.43,1.45-.38.28-.91.2-1.19-.17-.28-.38-.2-.91.17-1.19,5.79-4.32,10.92-3.26,14.21-1.6,6.37,3.2,10.79,11.15,10.78,16.28,0,5.02-2.44,7.05-4.58,8.84l-.4.34c-.16.14-.35.2-.55.2Z"/>
        <path class="cls-4" d="m85.05,32.43c-.25,0-.49-.11-.66-.31-.3-.36-.24-.9.12-1.2.7-.57,1.94-1.88,2.32-4.22.35-2.12-.24-3.27-.86-3.61-.41-.23-.56-.74-.33-1.16.23-.41.75-.56,1.16-.33,1.49.82,2.13,2.83,1.71,5.37-.48,2.9-2.04,4.54-2.93,5.27-.16.13-.35.19-.54.19Z"/>
        <path class="cls-4" d="m85.46,61.64c-.33,0-.64-.19-.78-.51-.21-.49-.41-1.02-.56-1.48-.34-1.01-.23-2.11.3-3.04.98-1.69,2.81-4.84,3.41-7.8.71-3.53.49-7.2-.07-11.62-.05-.38-.38-.67-.77-.67-.21,0-.4.08-.55.23-.15.15-.23.34-.22.55,0,2.69,0,4.78-.04,6.22-.03,1.38-.45,2.72-1.22,3.87-.46.69-.93,1.31-1.38,1.91-1.21,1.59-2.25,2.97-2.71,5.07-.1.46-.56.75-1.01.65-.46-.1-.75-.56-.65-1.01.55-2.46,1.75-4.05,3.02-5.73.44-.58.89-1.18,1.32-1.83.59-.88.91-1.91.93-2.96.03-1.42.04-3.5.04-6.18,0-.66.25-1.28.72-1.75.47-.47,1.09-.73,1.75-.73,1.25,0,2.3.93,2.46,2.16.58,4.59.81,8.42.05,12.17-.58,2.84-2.08,5.68-3.61,8.32-.29.5-.35,1.09-.16,1.63.14.42.32.9.51,1.35.19.43-.01.93-.44,1.12-.11.05-.23.07-.34.07Z"/>
        <path class="cls-4" d="m82.3,45.27s-.05,0-.07,0c-.47-.04-.81-.45-.77-.92.34-3.96.55-7.64.65-11.55.03-1.07.79-1.97,1.85-2.18,1.03-.21,2.01.29,2.43,1.23.37.86.46,2.04.55,3.18.02.28.04.55.07.81.04.47-.3.88-.77.93-.49.04-.88-.3-.93-.77-.03-.27-.05-.55-.07-.84-.07-.95-.15-2.03-.39-2.58-.14-.32-.41-.31-.56-.28-.08.02-.48.12-.49.56-.1,3.95-.31,7.65-.65,11.65-.04.44-.41.78-.85.78Z"/>
        <path class="cls-4" d="m79.38,44.89c-.06,0-.12,0-.19-.02l-1.22-.28c-.42-.09-.7-.49-.66-.92.31-3.06.51-7.05.49-9.92,0-.73-.02-2.94,1.3-3.4.14-.05.28-.07.42-.07.3-.78.84-1.37,1.82-1.55.58-.1,2.52-.23,3.18,2.47.11.46-.17.92-.62,1.03-.46.11-.92-.17-1.03-.62-.34-1.37-.96-1.25-1.23-1.2-.2.04-.54.1-.69,1.12,0,.05,0,.09-.02.14-.04.31-.06.7-.06,1.18,0,2.84-.29,8.52-.66,11.3-.03.24-.16.45-.36.59-.14.1-.31.15-.49.15Z"/>
        <path class="cls-4" d="m77.04,64.27c-.21,0-.41-.07-.57-.22-.12-.11-.21-.25-.25-.41-.05-.11-.16-.29-.29-.54-.69-1.25-2.12-3.85-2.63-6.1-.6-2.67-.46-5.83.38-8.46.47-1.48.48-1.75.55-3.5.02-.54.05-1.21.09-2.09.17-3.19.32-4.75,1.84-5.2.6-.18,1.19-.1,1.69.23.73.48,1.2,1.44,1.36,2.77.06.47-.28.89-.74.95-.45.06-.89-.28-.95-.74-.11-.93-.39-1.42-.6-1.56-.05-.03-.12-.07-.27-.02-.33.1-.49,1.06-.63,3.66-.05.87-.07,1.53-.09,2.07-.07,1.82-.09,2.26-.63,3.96-.75,2.35-.88,5.18-.34,7.56.46,2.02,1.81,4.48,2.47,5.66.47.85.68,1.24.25,1.71-.17.18-.4.28-.63.28Z"/>
        <path class="cls-4" d="m89.64,60.83c-.11,0-.22-.03-.32-.08-.31-.17-.41-.56-.24-.87,3.04-5.32,8.03-7.01,11.64-6.32.35.07.57.4.51.75-.07.35-.41.57-.75.51-3.17-.6-7.57.93-10.29,5.7-.12.21-.33.32-.55.32Z"/>
        <path class="cls-4" d="m100.61,69.37s-.06,0-.09,0c-3.38-.49-6.93-.83-6.96-.83-.35-.03-.61-.34-.58-.69.03-.35.34-.6.69-.58.04,0,3.62.34,7.03.84.35.05.59.37.54.72-.05.32-.32.55-.63.55Z"/>
        <path class="cls-4" d="m92.85,93.53c-3.03,0-5.77-1.18-7.85-3.48-2.53-2.79-4.29-6.59-5.98-10.26l-.65-1.39c-1.8-3.85-2.02-6.08-.85-8.55.18-.37.19-.81.03-1.2-.47-1.18-.91-2.29-1.24-3.15-.24-.64-.17-1.33.19-1.91.37-.58.97-.93,1.66-.98,3.1-.22,5.59-1.79,6.28-2.27.48-.34,1.06-.46,1.64-.36.56.1,1.05.42,1.37.89.67.96,1.95,2.81,3.05,4.31.12.17.31.27.52.27,2.07.06,2.49.63,4.14,3.3,1.25,2.03,2.17,2.53,3.33,3.17.45.25.92.51,1.45.87.38.27.48.8.21,1.18-.27.39-.8.48-1.18.21-.45-.31-.88-.55-1.29-.78-1.21-.67-2.46-1.36-3.95-3.77q-1.52-2.46-2.74-2.5c-.74-.02-1.41-.37-1.85-.97-1.11-1.52-2.4-3.38-3.07-4.35-.08-.12-.2-.17-.28-.18-.12-.02-.25,0-.36.08-.78.54-3.6,2.32-7.13,2.57-.19.01-.3.13-.34.2-.04.07-.11.21-.04.38.33.86.76,1.95,1.23,3.12.33.83.31,1.76-.07,2.56-.94,1.98-.73,3.71.85,7.1l.65,1.4c1.65,3.56,3.35,7.24,5.7,9.83,2.67,2.94,6.47,3.7,10.71,2.14,4.53-1.67,7.53-6.42,8.24-13.02.77-7.18.23-19.94-2.4-24.43-2.06-3.52-5.62-4.63-13.39-7.07l-.53-.17c-.45-.14-.7-.62-.56-1.07.14-.45.62-.7,1.07-.56l.53.17c7.96,2.49,11.96,3.75,14.35,7.83,2.95,5.04,3.42,18.03,2.62,25.47-.78,7.27-4.19,12.54-9.34,14.44-1.61.59-3.2.89-4.7.89Z"/>
        <path class="cls-4" d="m82.45,72.46c-.71,0-1.43-.09-2.13-.3-.38-.11-.59-.5-.48-.88.11-.38.51-.59.88-.48,3.05.88,6.6-.83,8-2.98.21-.33.65-.42.98-.21s.42.65.21.98c-1.36,2.09-4.35,3.87-7.45,3.87Z"/>
        <path class="cls-4" d="m45.76,93.53c-1.51,0-3.09-.29-4.7-.89-5.16-1.9-8.56-7.16-9.34-14.44-.8-7.44-.33-20.43,2.62-25.47,2.4-4.09,6.39-5.34,14.35-7.83l.53-.17c.45-.14.92.11,1.07.56.14.45-.11.93-.56,1.07l-.53.17c-7.78,2.44-11.33,3.55-13.39,7.07-2.63,4.48-3.17,17.25-2.4,24.43.71,6.61,3.71,11.35,8.24,13.02,4.24,1.56,8.04.8,10.71-2.14,2.35-2.59,4.05-6.27,5.7-9.83l.65-1.4c1.59-3.39,1.8-5.12.85-7.1-.38-.8-.41-1.73-.07-2.56.47-1.17.9-2.27,1.23-3.12.07-.18,0-.32-.04-.38-.04-.07-.15-.19-.34-.2-3.53-.25-6.35-2.03-7.13-2.57-.11-.08-.24-.11-.36-.08-.08.01-.19.06-.28.18-.82,1.19-2.02,2.91-3.07,4.35-.43.59-1.11.95-1.85.97q-1.22.03-2.74,2.5c-1.49,2.41-2.74,3.1-3.95,3.77-.42.23-.85.47-1.29.78-.39.27-.92.17-1.18-.21-.27-.39-.17-.92.21-1.18.52-.36.99-.62,1.45-.87,1.16-.64,2.07-1.14,3.33-3.17,1.66-2.68,2.08-3.25,4.14-3.3.21,0,.4-.1.52-.27,1.04-1.43,2.23-3.13,3.05-4.31.32-.47.81-.79,1.37-.89.58-.11,1.15.02,1.64.36.69.48,3.18,2.05,6.28,2.27.68.05,1.29.41,1.66.98.37.57.44,1.27.19,1.91-.33.86-.76,1.97-1.24,3.15-.16.39-.15.83.03,1.2,1.17,2.47.95,4.71-.85,8.55l-.65,1.39c-1.7,3.68-3.46,7.48-5.98,10.26-2.08,2.3-4.82,3.48-7.85,3.48Z"/>
        <path class="cls-4" d="m56.16,72.46c-3.1,0-6.09-1.78-7.45-3.87-.21-.33-.12-.77.21-.98.33-.21.77-.12.98.21,1.4,2.15,4.95,3.87,8,2.98.37-.11.77.11.88.48.11.38-.11.77-.48.88-.7.2-1.42.3-2.13.3Z"/>
        <path class="cls-4" d="m69.3,43.23c-2.83,0-5.8-1.01-6.75-2.3-.28-.38-.2-.91.18-1.19.38-.28.91-.2,1.19.18.5.67,2.79,1.61,5.39,1.61s4.89-.94,5.39-1.61c.28-.38.81-.46,1.19-.18.38.28.46.81.18,1.19-.96,1.29-3.92,2.3-6.75,2.3Z"/>
        <path class="cls-4" d="m69.31,53.19c-.8,0-1.6-.23-2.29-.68-1.52-.99-2.72-2.06-3.56-3.2-.28-.38-.2-.91.18-1.19.38-.28.91-.2,1.19.18.72.97,1.77,1.91,3.12,2.79.83.54,1.9.54,2.74,0,1.35-.88,2.4-1.81,3.12-2.79.28-.38.81-.46,1.19-.18.38.28.46.81.18,1.19-.84,1.14-2.04,2.21-3.56,3.2-.7.45-1.5.68-2.29.68Z"/>
        <path class="cls-4" d="m74.53,59.04c-.19,0-.38-.06-.54-.19l-.41-.34c-1.24-1.01-2.41-1.97-3.58-2.88-.41-.31-.97-.31-1.38,0-1.17.9-2.33,1.85-3.56,2.86l-.44.36c-.36.3-.9.24-1.2-.12s-.24-.9.12-1.2l.44-.36c1.24-1.01,2.41-1.97,3.6-2.89,1.02-.78,2.44-.78,3.45,0,1.2.92,2.38,1.89,3.62,2.91l.41.34c.36.3.42.83.12,1.2-.17.21-.41.31-.66.31Z"/>
        <path class="cls-4" d="m69.31,116.56c-.48,0-.96-.18-1.34-.54l-4.17-3.97c-.63-.6-.98-1.44-.97-2.31.2-11,3.39-43.19,3.63-45.59-.67-2.95-1.37-7.2-1.37-7.24-.08-.46.24-.9.7-.98.48-.07.9.24.98.7,0,.04.71,4.37,1.38,7.27.02.09.03.18.02.28-.03.34-3.43,34.29-3.63,45.59,0,.4.15.77.44,1.04l4.18,3.97c.09.09.24.09.33,0l4.18-3.97c.29-.28.45-.65.44-1.04-.2-11.3-3.6-45.25-3.63-45.59,0-.09,0-.19.02-.28.67-2.9,1.38-7.23,1.38-7.27.08-.46.51-.77.98-.7.46.08.78.51.7.98,0,.04-.7,4.29-1.37,7.24.24,2.4,3.43,34.59,3.63,45.59.02.86-.34,1.71-.97,2.31l-4.18,3.97c-.38.36-.86.54-1.34.54Z"/>
        <path class="cls-4" d="m91.05,112.1c-.24,0-.47-.1-.64-.29-.31-.35-.27-.89.08-1.2,2.94-2.57,4.02-5.07,3.29-7.63-.95-3.34-.95-5.73-.94-9.7v-.6c0-.47.38-.85.85-.85h0c.47,0,.85.38.85.85v.6c0,3.94,0,6.12.88,9.23.92,3.26-.32,6.32-3.81,9.38-.16.14-.36.21-.56.21Z"/>
        <path class="cls-4" d="m100.6,181.79c-.44,0-.82-.34-.85-.79-.77-11.56-4.89-44.69-5.74-50.46-.81-5.53-.83-5.74-1.01-7.67l-.06-.7c-.21-2.25-1.09-3.21-1.1-3.22-.12-.13-.21-.3-.23-.48l-.81-6.27c-4.68.53-12.4.98-17.64,1.14-.52,0-.86-.36-.88-.82-.01-.47.35-.86.82-.88,5.53-.17,13.83-.66,18.32-1.23.46-.05.89.27.95.73l.89,6.85c.38.5,1.16,1.76,1.37,4.01l.06.7c.17,1.89.19,2.09,1,7.58.85,5.79,4.98,39,5.76,50.6.03.47-.32.87-.79.91-.02,0-.04,0-.06,0Z"/>
        <path class="cls-4" d="m75.47,120.04c-.46,0-.83-.36-.85-.82-.02-.47.35-.86.82-.88,2.94-.11,12.84-.52,16.73-1.45.45-.11.92.17,1.02.63.11.46-.17.92-.63,1.02-4.05.96-14.08,1.38-17.06,1.49,0,0-.02,0-.03,0Z"/>
        <path class="cls-4" d="m84.68,119.37c-.43,0-.79-.32-.84-.75l-.75-6.58c-.05-.47.28-.89.75-.94.46-.05.89.28.94.75l.75,6.58c.05.47-.28.89-.75.94-.03,0-.06,0-.1,0Z"/>
        <path class="cls-4" d="m69.3,120.78c-1.66,0-3.27-.04-4.81-.12-1.65-.09-2.93-1.5-2.87-3.15l.2-5.15c.02-.47.44-.82.88-.82.47.02.83.41.82.88l-.2,5.15c-.03.74.52,1.35,1.26,1.39,3.01.16,6.43.16,9.44,0,.73-.04,1.29-.65,1.26-1.39l-.2-5.15c-.02-.47.35-.86.82-.88.47-.02.86.35.88.82l.2,5.15c.06,1.65-1.22,3.07-2.87,3.15-1.53.08-3.15.12-4.81.12Z"/>
        <path class="cls-4" d="m69.3,118.35c-1.59,0-2.82-.04-3.56-.08-.74-.04-1.31-.67-1.27-1.41l.08-1.71c.02-.39.19-.74.47-1,.29-.26.65-.38,1.04-.36.42.03.99.06,1.63.08.39.01.7.34.68.73-.01.39-.34.67-.73.69-.65-.02-1.24-.05-1.67-.08l-.09,1.65c.62.03,1.83.08,3.41.08s2.79-.05,3.41-.08l-.08-1.64c-.44,0-1.03.04-1.68.06-.39-.02-.72-.29-.73-.69-.01-.39.29-.72.68-.73.64-.02,1.21-.05,1.63-.08.38-.02.75.11,1.04.36.29.26.46.61.47,1l.08,1.71c.04.74-.54,1.37-1.27,1.41-.74.04-1.97.08-3.56.08Z"/>
        <path class="cls-4" d="m71.3,64.95h-3.99c-.47,0-.85-.38-.85-.85s.38-.85.85-.85h3.99c.47,0,.85.38.85.85s-.38.85-.85.85Z"/>
        <path class="cls-4" d="m72.65,181.79c-.43,0-.8-.32-.84-.76-.99-9.42-3.32-27.99-3.35-28.18-.06-.47.27-.89.74-.95.45-.06.89.27.95.74.02.19,2.35,18.77,3.35,28.21.05.47-.29.89-.76.93-.03,0-.06,0-.09,0Z"/>
        <path class="cls-4" d="m74.95,107.73c-.11,0-.22-.03-.33-.09-.3-.18-.4-.57-.22-.87,2.97-4.99,8.58-11.12,10.8-11.12.04,0,.07,0,.1,0,.43.04.77.3.92.71.74,2.03-3.46,8.4-4.77,10.3-.2.29-.6.37-.89.17-.29-.2-.37-.6-.17-.89,2.39-3.49,4.77-7.8,4.65-9.01-1.31.27-6.31,5.03-9.56,10.49-.12.2-.33.31-.55.31Z"/>
        <path class="cls-4" d="m77.38,17.1s-.04,0-.06,0c-7.73-.53-11.88-6.17-12.79-9.83-.11-.46.16-.92.62-1.03.46-.11.92.16,1.03.62.79,3.18,4.44,8.07,11.26,8.54.47.03.82.44.79.91-.03.45-.4.79-.85.79Z"/>
        <path class="cls-4" d="m82.1,17.64c-.31,0-.61-.17-.76-.47-.48-.97-1.85-1.68-3.44-2.5-2.42-1.25-5.43-2.81-7.28-6.23-.22-.41-.07-.93.35-1.15.41-.22.93-.07,1.15.34,1.6,2.96,4.23,4.32,6.56,5.53,1.86.96,3.46,1.79,4.19,3.26.21.42.04.93-.38,1.14-.12.06-.25.09-.38.09Z"/>
        <path class="cls-4" d="m69.3,37.73c-2.81,0-4.77-5.41-5.14-6.49-.09-.27-.01-.57.2-.76.21-.19.52-.23.78-.11.7.34,2.64.49,4.16.49s3.46-.15,4.16-.49c.26-.12.56-.08.78.11.21.19.29.49.2.76-.37,1.08-2.33,6.49-5.14,6.49Zm-3.31-5.68c.87,2.06,2.21,4.26,3.31,4.26s2.44-2.2,3.31-4.26c-1.26.21-2.75.23-3.31.23s-2.05-.02-3.31-.23Z"/>
        <path class="cls-4" d="m69.3,34.73c-1.64,0-2.73-.11-3.52-.35-.38-.11-.59-.51-.47-.88.11-.37.51-.59.88-.47.41.12,1.17.29,3.11.29s2.7-.16,3.11-.29c.38-.11.77.1.88.47.11.38-.1.77-.47.88-.79.24-1.88.35-3.52.35Z"/>
        <path class="cls-4" d="m73.11,48.45c-.62,0-1.14-.18-1.55-.39-2-1.04-3.08-3.96-3.1-5.68,0-.47.37-.85.84-.86,0,0,0,0,0,0,.47,0,.84.37.85.84.01,1.25.87,3.5,2.19,4.19.65.34,1.34.23,2.12-.31.39-.27.92-.17,1.18.22.27.39.17.92-.22,1.18-.86.59-1.65.8-2.32.8Z"/>
        <path class="cls-4" d="m60.24,18.59c-.18,0-.37-.08-.49-.23-.22-.27-.18-.67.09-.9,1.19-.97,2.85-1.27,5.24-.95.35.05.59.37.55.72s-.36.59-.72.55c-2.64-.36-3.7.22-4.26.68-.12.1-.26.14-.4.14Z"/>
        <path class="cls-4" d="m62.75,23.6c-.19,0-.38-.09-.5-.25-.18-.24-.18-.57,0-.8.52-.63,1.73-.88,2.29-.61.27.13.41.42.35.71s-.31.5-.6.51h0s-.2.01-.62.13c-.35.1-.64.23-.65.24-.09.04-.18.06-.27.06Z"/>
        <path class="cls-4" d="m78.37,18.59c-.14,0-.29-.05-.4-.14-.56-.46-1.62-1.03-4.26-.68-.35.05-.67-.2-.72-.55s.2-.67.55-.72c2.38-.32,4.05-.02,5.24.95.27.22.31.62.09.9-.13.15-.31.23-.49.23Z"/>
        <path class="cls-4" d="m75.86,23.6c-.09,0-.18-.02-.27-.06-.01,0-.3-.14-.65-.24-.42-.12-.62-.14-.63-.14-.29-.02-.54-.23-.59-.52s.08-.57.35-.7c.56-.27,1.77-.02,2.29.61.19.23.19.56,0,.8-.12.16-.31.25-.5.25Z"/>
        <path class="cls-4" d="m69.3,28.94c-.33,0-.61,0-.85-.02-.35-.03-.61-.33-.59-.69s.35-.61.69-.59c.42.03,1.08.03,1.5,0,.36-.02.66.23.69.59s-.23.66-.59.69c-.24.02-.52.02-.85.02Z"/>
        <path class="cls-1" d="m69.3,143.4c-.28,0-.5-.22-.5-.5v-18.73c0-.28.22-.5.5-.5s.5.22.5.5v18.73c0,.28-.22.5-.5.5Z"/>
      </g>
    </g>
  </g>
  <g id="_アイコン" data-name="アイコン">
    <g>
      <path class="cls-2" d="m17.32,39.32c-1.63-.77-2.22-1.09-2.5-1.39-.47-.52-.52-1.29-.22-1.92l5.16-10.98c.53-1.12,1.87-1.61,2.99-1.08l3.75,1.76c2.49,1.17,3.75,4.13,2.61,6.63-.5,1.11-1.36,1.94-2.38,2.42.28,1.07.19,2.24-.31,3.32-1.16,2.48-4.1,3.55-6.56,2.42-1.05-.48-1.88-.87-2.54-1.18Zm-1.08-2.55h.02s-.02,0-.02,0Zm2.74-1.59c-.2.42-.02.92.4,1.12.53.25,1.18.55,1.99.92.66.31,1.46.02,1.77-.65.33-.7.04-1.5-.63-1.81l-1.97-.93c-.42-.2-.93-.02-1.13.41l-.44.93Zm2.69-5.73c-.2.42-.02.93.41,1.13l1.97.93c.67.31,1.47.03,1.78-.64s.02-1.47-.64-1.78l-1.97-.93c-.42-.2-.93-.02-1.13.41l-.42.89Z"/>
      <path class="cls-3" d="m21.8,23.74c.32,0,.65.07.95.21l3.75,1.76c2.49,1.17,3.75,4.13,2.61,6.63-.5,1.11-1.36,1.94-2.38,2.42.28,1.07.19,2.24-.31,3.32-.85,1.81-2.64,2.87-4.51,2.87-.69,0-1.39-.14-2.05-.45-1.05-.48-1.88-.87-2.54-1.18-1.63-.77-2.22-1.09-2.5-1.39-.47-.52-.52-1.29-.22-1.92l5.16-10.98c.38-.81,1.19-1.29,2.04-1.29m2.81,7.89c.5,0,.99-.28,1.21-.77.31-.67.02-1.47-.64-1.78l-1.97-.93c-.12-.05-.24-.08-.36-.08-.32,0-.62.18-.77.49l-.42.89c-.2.42-.02.93.41,1.13l1.97.93c.18.09.38.13.57.13m-2.69,5.72c.5,0,.99-.29,1.21-.77.33-.7.04-1.5-.63-1.81l-1.97-.93c-.12-.05-.24-.08-.36-.08-.32,0-.62.18-.77.49l-.44.93c-.2.42-.02.92.4,1.12.53.25,1.18.55,1.99.92.18.08.37.12.55.12m-5.66-.56h-.03s.03,0,.03,0m5.54-14.75h0c-1.52,0-2.93.89-3.57,2.27l-5.16,10.98c-.61,1.29-.41,2.77.5,3.78.49.55,1.19.93,3.04,1.79.62.29,1.39.65,2.35,1.09l.2.09c.87.4,1.8.61,2.76.61,2.57,0,4.95-1.51,6.05-3.85.47-1,.68-2.09.62-3.18.9-.66,1.62-1.55,2.09-2.58,1.5-3.3-.04-7.28-3.44-8.87l-3.75-1.76c-.53-.25-1.09-.38-1.68-.38h0Z"/>
    </g>
    <g>
      <path class="cls-5" d="m115.24,164.62c-.56.29-1.24.07-1.53-.49l-3.43-6.64c-.29-.56-.07-1.24.49-1.53s1.24-.07,1.53.49l3.43,6.64c.29.56.07,1.24-.49,1.53Z"/>
      <path class="cls-3" d="m111.29,155.84c.41,0,.81.22,1.01.61l3.43,6.64c.29.56.07,1.24-.49,1.53-.17.09-.34.13-.52.13-.41,0-.81-.22-1.01-.61l-3.43-6.64c-.29-.56-.07-1.24.49-1.53.17-.09.34-.13.52-.13m0-1.28h0c-.38,0-.76.09-1.1.27-1.18.61-1.64,2.07-1.03,3.24l3.43,6.64c.42.8,1.24,1.3,2.14,1.3.38,0,.76-.09,1.1-.27.57-.3.99-.8,1.19-1.41.19-.61.14-1.26-.16-1.84l-3.43-6.64c-.42-.8-1.24-1.3-2.14-1.3h0Z"/>
    </g>
    <g>
      <path class="cls-1" d="m112.83,118.23l-4.91-3.24c-1-.66-1.28-2-.62-3l6.1-9.24c.53-.8,1.61-1.02,2.41-.49s1.02,1.61.49,2.41l-5.38,8.15,3.81,2.52c.8.53,1.02,1.61.49,2.41s-1.61,1.02-2.41.49Z"/>
      <path class="cls-3" d="m114.85,101.96c.33,0,.66.09.96.29.8.53,1.02,1.61.49,2.41l-5.38,8.15,3.81,2.52c.8.53,1.02,1.61.49,2.41-.33.51-.89.78-1.45.78-.33,0-.66-.09-.96-.29l-4.91-3.24c-1-.66-1.28-2-.62-3l6.1-9.24c.33-.51.89-.78,1.45-.78m0-1.56h0c-1.11,0-2.14.55-2.76,1.48l-6.1,9.24c-.55.83-.74,1.83-.54,2.8.2.98.77,1.81,1.6,2.36l4.91,3.24c.54.36,1.17.55,1.82.55,1.11,0,2.14-.55,2.76-1.48,1-1.52.58-3.57-.94-4.57l-2.51-1.66,4.52-6.85c.49-.74.66-1.62.48-2.48-.18-.86-.68-1.61-1.42-2.09-.54-.36-1.17-.55-1.82-.55h0Z"/>
    </g>
    <g>
      <path class="cls-8" d="m29.99,109.98c-.64.25-1.39.14-1.94-.3l-4.14-3.39-.74,5.3c-.11.82-.73,1.48-1.54,1.63-.81.16-1.63-.2-2.05-.92l-5.83-9.89c-.54-.92-.24-2.11.68-2.65.94-.54,2.11-.24,2.65.69l3,5.1.45-3.21c.1-.69.56-1.28,1.21-1.54h0c.65-.26,1.39-.14,1.94.3l2.51,2.05-1.26-5.78c-.23-1.05.44-2.07,1.48-2.31,1.05-.23,2.08.44,2.3,1.48l2.44,11.21c.18.81-.18,1.63-.88,2.06-.1.06-.2.11-.3.15Z"/>
      <path class="cls-3" d="m26.85,95.02c.89,0,1.69.62,1.89,1.53l2.44,11.21c.18.81-.18,1.63-.88,2.06-.1.06-.2.11-.3.15-.23.09-.47.13-.71.13-.44,0-.87-.15-1.23-.44l-4.14-3.39-.74,5.3c-.11.82-.73,1.48-1.54,1.63-.13.03-.26.04-.38.04-.68,0-1.32-.36-1.67-.95l-5.83-9.89c-.54-.92-.24-2.11.68-2.65.32-.18.66-.27.99-.27.66,0,1.3.34,1.66.95l3,5.1.45-3.21c.1-.69.56-1.28,1.21-1.54.23-.09.47-.13.71-.13.44,0,.88.15,1.23.44l2.51,2.05-1.26-5.78c-.23-1.05.44-2.07,1.48-2.31.14-.03.28-.04.41-.04m0-1.7c-.26,0-.52.03-.77.08-1.96.44-3.2,2.38-2.79,4.33l.31,1.4c-.36-.12-.74-.18-1.12-.18-.46,0-.9.08-1.33.25-.8.31-1.44.89-1.85,1.61l-.73-1.24c-.66-1.12-1.83-1.79-3.13-1.79-.64,0-1.28.17-1.84.49-1.74,1.03-2.32,3.26-1.3,4.99l5.83,9.89c.65,1.1,1.85,1.79,3.13,1.79.24,0,.48-.02.72-.07,1.51-.28,2.67-1.52,2.89-3.07l.32-2.3,1.79,1.47c.65.53,1.47.82,2.31.82.46,0,.9-.08,1.33-.25.21-.08.4-.18.58-.29,1.31-.8,1.98-2.36,1.65-3.87l-2.44-11.21c-.36-1.66-1.86-2.87-3.55-2.87h0Z"/>
    </g>
    <g>
      <path class="cls-9" d="m126.79,52.02l-.71-.14c0-.95-.17-1.93-.55-2.89-1.48-3.76-5.49-5.71-8.95-4.35s-5.06,5.52-3.58,9.28c1.48,3.76,5.5,5.71,8.95,4.35,1.56-.61,2.71-1.81,3.4-3.27l.82.16c.31.06.62.03.89-.08.49-.19.88-.63.99-1.18.17-.87-.4-1.71-1.27-1.88Zm-6.01,3.28c-1.81.71-3.97-.43-4.8-2.54s-.04-4.42,1.78-5.13,3.96.43,4.8,2.54c.14.36.22.72.27,1.08l-1.31-.26c-.87-.17-1.71.4-1.88,1.26-.17.87.4,1.71,1.27,1.88l1.14.22c-.33.41-.75.74-1.26.94Z"/>
      <path class="cls-3" d="m118.86,44.21c2.78,0,5.5,1.84,6.66,4.78.38.95.55,1.94.55,2.89l.71.14c.87.17,1.44,1.01,1.27,1.88-.11.56-.5.99-.99,1.18-.18.07-.38.11-.58.11-.1,0-.2,0-.31-.03l-.82-.16c-.69,1.46-1.85,2.66-3.4,3.27-.75.29-1.52.43-2.29.43-2.78,0-5.5-1.83-6.66-4.78-1.48-3.76.13-7.92,3.58-9.28.75-.29,1.52-.43,2.29-.43m.78,11.3c.38,0,.76-.07,1.13-.21.51-.2.93-.53,1.26-.94l-1.14-.22c-.87-.17-1.44-1.01-1.27-1.88.15-.76.82-1.29,1.57-1.29.1,0,.2,0,.31.03l1.31.26c-.05-.36-.13-.72-.27-1.08-.67-1.69-2.17-2.76-3.67-2.76-.38,0-.76.07-1.13.21-1.81.71-2.61,3.02-1.78,5.13.67,1.69,2.17,2.76,3.67,2.76m-.78-12.86c-.98,0-1.94.18-2.86.54-4.25,1.68-6.25,6.75-4.46,11.3,1.36,3.45,4.62,5.77,8.11,5.77.98,0,1.94-.18,2.86-.54,1.48-.58,2.74-1.62,3.64-2.99.11.01.21.02.32.02.4,0,.78-.07,1.15-.22,1.01-.4,1.74-1.27,1.95-2.33.16-.83,0-1.67-.48-2.37-.38-.56-.92-.98-1.55-1.21-.1-.75-.29-1.48-.57-2.2-1.36-3.45-4.62-5.77-8.11-5.77h0Zm-.75,10.59c-.28-.29-.52-.65-.68-1.06-.26-.67-.29-1.4-.08-2.01.11-.31.38-.86.98-1.1.18-.07.36-.1.55-.1.49,0,.98.21,1.39.57-1.08.34-1.94,1.25-2.17,2.41-.08.43-.08.87.01,1.29h0Z"/>
    </g>
    <g>
      <path class="cls-2" d="m24.83,149.41l-4.48-1.01.05-4.44c0-.74-.59-1.35-1.33-1.36s-1.35.58-1.36,1.33l-.04,3.87-3.92-.88c-.72-.16-1.44.3-1.6,1.02-.16.72.29,1.44,1.01,1.6l4.48,1.01-.05,4.74c0,.74.59,1.35,1.33,1.36.32,0,.61-.1.85-.29.31-.24.51-.62.51-1.04l.04-4.17,3.92.88c.41.09.82-.02,1.13-.26.23-.18.41-.45.48-.76.16-.72-.29-1.44-1.01-1.6Z"/>
      <path class="cls-3" d="m19.05,142.61s0,0,.01,0c.74,0,1.34.61,1.33,1.36l-.05,4.44,4.48,1.01c.72.16,1.18.88,1.01,1.6-.07.31-.24.57-.48.76-.23.18-.52.29-.83.29-.1,0-.2-.01-.29-.03l-3.92-.88-.04,4.17c0,.42-.2.8-.51,1.04-.23.18-.52.29-.83.29,0,0-.01,0-.02,0-.74,0-1.34-.61-1.33-1.36l.05-4.74-4.48-1.01c-.72-.16-1.18-.88-1.01-1.6.14-.62.69-1.05,1.31-1.05.1,0,.2.01.3.03l3.92.88.04-3.87c0-.74.61-1.33,1.34-1.33m0-1.56c-1.58,0-2.88,1.29-2.9,2.87l-.02,1.94-2.04-.46c-.21-.05-.42-.07-.64-.07-1.35,0-2.54.95-2.83,2.27-.17.75-.03,1.53.38,2.18.41.66,1.06,1.11,1.82,1.28l3.25.73-.04,3.48c0,.78.29,1.51.83,2.06.54.55,1.27.86,2.04.87h0c.68,0,1.32-.22,1.83-.63.69-.55,1.09-1.36,1.1-2.24l.02-2.24,2.04.46c.21.05.42.07.64.07.65,0,1.29-.22,1.8-.63.52-.41.89-.99,1.03-1.64.17-.75.03-1.53-.38-2.19-.41-.66-1.06-1.11-1.82-1.28l-3.25-.73.03-3.18c0-.77-.29-1.51-.83-2.06-.54-.55-1.27-.86-2.04-.87,0,0-.03,0-.03,0h0Z"/>
    </g>
  </g>
</svg>