<?xml version="1.0" encoding="UTF-8"?>
<svg id="Layer_2" data-name="Layer 2" xmlns="http://www.w3.org/2000/svg" viewBox="0 0 26.22 20.97">
  <defs>
    <style>
      .cls-1 {
        fill: #565656;
      }

      .cls-2 {
        fill: #8dc05f;
      }
    </style>
  </defs>
  <g id="_アイコン" data-name="アイコン">
    <g>
      <path class="cls-2" d="m18.27.9l-9.18.73c-1.35.11-2.57.87-3.26,2.04L1.18,11.61c-.84,1.43.28,3.2,1.92,3.07l4.75-.38-.11.07,2.75,4.39c.64,1.02,1.86,1.52,3.03,1.24.95-.23,2.21-.71,3.76-1.68s2.53-1.89,3.16-2.64c.77-.93.85-2.24.21-3.27l-2.75-4.39-.11.07,2.41-4.11c.84-1.43-.28-3.2-1.92-3.07Z"/>
      <path class="cls-1" d="m2.93,15.58c-1.01,0-1.94-.51-2.49-1.38-.58-.93-.6-2.1-.04-3.05L5.07,3.22c.83-1.42,2.31-2.35,3.96-2.48L18.2.01c1.1-.09,2.14.44,2.72,1.37s.6,2.1.04,3.04l-4.66,7.94c-.83,1.42-2.31,2.35-3.96,2.48l-9.18.73c-.08,0-.16,0-.23,0ZM18.44,1.79s-.06,0-.1,0l-9.18.73c-1.06.08-2.02.68-2.56,1.6L1.95,12.06c-.22.38-.21.82.02,1.19s.64.57,1.07.54h0l9.18-.73c1.06-.08,2.02-.68,2.56-1.6l4.66-7.94c.22-.38.22-.82-.02-1.19-.21-.34-.57-.54-.97-.54Z"/>
      <path class="cls-1" d="m12.86,20.97c-1.25,0-2.44-.64-3.13-1.73l-2.75-4.39c-.26-.42-.13-.97.28-1.23.42-.26.97-.14,1.23.28l2.75,4.39c.44.7,1.27,1.04,2.06.84,1.06-.26,2.23-.79,3.49-1.57,1.26-.79,2.25-1.61,2.94-2.45.52-.63.58-1.53.14-2.22l-2.75-4.39c-.26-.42-.13-.97.28-1.23.42-.26.97-.13,1.23.28l2.75,4.39c.84,1.35.73,3.08-.28,4.31-.82.99-1.95,1.94-3.37,2.83-1.42.89-2.77,1.49-4.02,1.79-.29.07-.58.1-.87.1Z"/>
      <path class="cls-1" d="m23.1,9.28c-.22,0-.43-.11-.56-.31l-2.91-4.65c-.19-.31-.1-.71.21-.91.31-.19.72-.1.91.21l2.91,4.65c.19.31.1.71-.21.91-.11.07-.23.1-.35.1Z"/>
      <path class="cls-1" d="m24.41,12.64c-.08,0-.15-.01-.23-.04-.19-.07-.34-.22-.4-.42l-.83-2.61c-.09-.29.02-.6.28-.76.25-.16.58-.13.8.08l1.98,1.88c.15.14.22.34.2.54-.02.2-.13.38-.31.49l-.58.36h0l-.58.36c-.11.07-.23.1-.35.1Zm.58-1.02h0,0Z"/>
      <path class="cls-1" d="m23.11,10.17c-.52,0-1.03-.26-1.32-.73-.22-.35-.29-.77-.2-1.18.09-.4.34-.75.69-.97.35-.22.77-.29,1.18-.2.4.09.75.34.97.69h0c.46.73.23,1.69-.49,2.15-.26.16-.54.24-.82.24Zm0-1.8s-.08,0-.13.04c-.07.05-.1.11-.11.15,0,.04-.01.11.03.18.07.11.22.15.33.08.11-.07.15-.22.08-.33h0c-.04-.07-.11-.1-.15-.11-.01,0-.03,0-.05,0Z"/>
    </g>
  </g>
</svg>