<?xml version="1.0" encoding="UTF-8"?>
<svg id="Layer_2" data-name="Layer 2" xmlns="http://www.w3.org/2000/svg" viewBox="0 0 138.42 174.98">
  <defs>
    <style>
      .cls-1 {
        fill: #fff;
      }

      .cls-2 {
        fill: #565656;
      }

      .cls-3 {
        fill: #363636;
      }

      .cls-4 {
        fill: #33b0da;
      }

      .cls-5 {
        fill: #8dc05f;
      }

      .cls-6 {
        fill: #ffdfbc;
      }

      .cls-7 {
        fill: #d5d5d5;
      }
    </style>
  </defs>
  <g id="_背景ドット" data-name="背景ドット">
    <g>
      <path class="cls-1" d="m38.49,74.11c-.33,0-.59.27-.59.59s.27.59.59.59.59-.27.59-.59-.27-.59-.59-.59Z"/>
      <path class="cls-1" d="m39.9,71.23c0,.33.27.59.59.59.02,0,.03,0,.05,0-.09-.38-.18-.76-.29-1.12-.21.09-.35.3-.35.54Z"/>
      <path class="cls-1" d="m38.49,81.06c-.33,0-.59.27-.59.59s.27.59.59.59.59-.27.59-.59-.27-.59-.59-.59Z"/>
      <path class="cls-1" d="m40.5,77.59c-.33,0-.59.27-.59.59s.27.59.59.59c.13,0,.25-.05.35-.13.04-.27.09-.54.11-.81-.11-.14-.27-.24-.47-.24Z"/>
      <path class="cls-1" d="m37.9,67.75c0,.33.27.59.59.59s.57-.25.59-.56c-.09-.17-.16-.35-.25-.51-.1-.07-.21-.12-.34-.12-.33,0-.59.27-.59.59Z"/>
      <path class="cls-1" d="m34.48,67.16c-.33,0-.59.27-.59.59s.27.59.59.59.59-.27.59-.59-.27-.59-.59-.59Z"/>
      <path class="cls-1" d="m35.89,64.28c0,.33.27.59.59.59.23,0,.42-.13.52-.32-.23-.29-.48-.56-.72-.83-.23.08-.39.3-.39.55Z"/>
      <path class="cls-1" d="m34.48,74.11c-.33,0-.59.27-.59.59s.27.59.59.59.59-.27.59-.59-.27-.59-.59-.59Z"/>
      <circle class="cls-1" cx="36.48" cy="71.23" r=".59"/>
      <path class="cls-1" d="m34.48,81.06c-.33,0-.59.27-.59.59s.27.59.59.59.59-.27.59-.59-.27-.59-.59-.59Z"/>
      <circle class="cls-1" cx="36.48" cy="78.18" r=".59"/>
      <path class="cls-1" d="m34.48,88.01c-.33,0-.59.27-.59.59s.27.59.59.59.59-.27.59-.59-.27-.59-.59-.59Z"/>
      <circle class="cls-1" cx="36.48" cy="85.13" r=".59"/>
      <circle class="cls-1" cx="30.46" cy="60.8" r=".59"/>
      <path class="cls-1" d="m30.46,67.16c-.33,0-.59.27-.59.59s.27.59.59.59.59-.27.59-.59-.27-.59-.59-.59Z"/>
      <path class="cls-1" d="m32.47,63.68c-.33,0-.59.27-.59.59s.27.59.59.59.59-.27.59-.59-.27-.59-.59-.59Z"/>
      <circle class="cls-1" cx="30.46" cy="74.7" r=".59"/>
      <path class="cls-1" d="m33.06,71.23c0-.33-.27-.59-.59-.59s-.59.27-.59.59.27.59.59.59.59-.27.59-.59Z"/>
      <circle class="cls-1" cx="30.46" cy="81.66" r=".59"/>
      <path class="cls-1" d="m31.88,78.18c0,.33.27.59.59.59s.59-.27.59-.59-.27-.59-.59-.59-.59.27-.59.59Z"/>
      <circle class="cls-1" cx="30.46" cy="88.61" r=".59"/>
      <path class="cls-1" d="m31.88,85.13c0,.33.27.59.59.59s.59-.27.59-.59-.27-.59-.59-.59-.59.27-.59.59Z"/>
      <path class="cls-1" d="m31.91,91.92c.23-.13.45-.27.67-.41-.04,0-.07-.02-.11-.02-.27,0-.49.18-.56.43Z"/>
      <path class="cls-1" d="m26.45,60.21c-.33,0-.59.27-.59.59s.27.59.59.59.59-.27.59-.59-.27-.59-.59-.59Z"/>
      <path class="cls-1" d="m26.45,67.16c-.33,0-.59.27-.59.59s.27.59.59.59.59-.27.59-.59-.27-.59-.59-.59Z"/>
      <path class="cls-1" d="m29.05,64.28c0-.33-.27-.59-.59-.59s-.59.27-.59.59.27.59.59.59.59-.27.59-.59Z"/>
      <path class="cls-1" d="m26.45,74.11c-.33,0-.59.27-.59.59s.27.59.59.59.59-.27.59-.59-.27-.59-.59-.59Z"/>
      <circle class="cls-1" cx="28.46" cy="71.23" r=".59"/>
      <path class="cls-1" d="m26.45,81.06c-.33,0-.59.27-.59.59s.27.59.59.59.59-.27.59-.59-.27-.59-.59-.59Z"/>
      <circle class="cls-1" cx="28.46" cy="78.18" r=".59"/>
      <path class="cls-1" d="m26.45,88.01c-.33,0-.59.27-.59.59s.27.59.59.59.59-.27.59-.59-.27-.59-.59-.59Z"/>
      <circle class="cls-1" cx="28.46" cy="85.13" r=".59"/>
      <path class="cls-1" d="m27.86,92.08c0,.33.27.59.59.59s.59-.27.59-.59-.27-.59-.59-.59-.59.27-.59.59Z"/>
      <circle class="cls-1" cx="22.44" cy="60.8" r=".59"/>
      <path class="cls-1" d="m24.44,57.92c.13,0,.24-.05.33-.12-.25-.03-.5-.04-.75-.06.11.11.26.18.42.18Z"/>
      <path class="cls-1" d="m22.44,67.16c-.33,0-.59.27-.59.59s.27.59.59.59.59-.27.59-.59-.27-.59-.59-.59Z"/>
      <path class="cls-1" d="m25.04,64.28c0-.33-.27-.59-.59-.59s-.59.27-.59.59.27.59.59.59.59-.27.59-.59Z"/>
      <circle class="cls-1" cx="22.44" cy="74.7" r=".59"/>
      <path class="cls-1" d="m25.04,71.23c0-.33-.27-.59-.59-.59s-.59.27-.59.59.27.59.59.59.59-.27.59-.59Z"/>
      <circle class="cls-1" cx="22.44" cy="81.66" r=".59"/>
      <path class="cls-1" d="m23.85,78.18c0,.33.27.59.59.59s.59-.27.59-.59-.27-.59-.59-.59-.59.27-.59.59Z"/>
      <circle class="cls-1" cx="22.44" cy="88.61" r=".59"/>
      <path class="cls-1" d="m23.85,85.13c0,.33.27.59.59.59s.59-.27.59-.59-.27-.59-.59-.59-.59.27-.59.59Z"/>
      <path class="cls-1" d="m23.85,92.08c0,.33.27.59.59.59s.59-.27.59-.59-.27-.59-.59-.59-.59.27-.59.59Z"/>
      <path class="cls-1" d="m18.42,60.21c-.33,0-.59.27-.59.59s.27.59.59.59.59-.27.59-.59-.27-.59-.59-.59Z"/>
      <path class="cls-1" d="m20.81,57.77c-.21.02-.42.07-.63.09.07.03.16.06.24.06.15,0,.28-.06.38-.15Z"/>
      <path class="cls-1" d="m18.42,67.16c-.33,0-.59.27-.59.59s.27.59.59.59.59-.27.59-.59-.27-.59-.59-.59Z"/>
      <path class="cls-1" d="m21.02,64.28c0-.33-.27-.59-.59-.59s-.59.27-.59.59.27.59.59.59.59-.27.59-.59Z"/>
      <path class="cls-1" d="m18.42,74.11c-.33,0-.59.27-.59.59s.27.59.59.59.59-.27.59-.59-.27-.59-.59-.59Z"/>
      <path class="cls-1" d="m21.02,71.23c0-.33-.27-.59-.59-.59s-.59.27-.59.59.27.59.59.59.59-.27.59-.59Z"/>
      <path class="cls-1" d="m18.42,81.06c-.33,0-.59.27-.59.59s.27.59.59.59.59-.27.59-.59-.27-.59-.59-.59Z"/>
      <path class="cls-1" d="m19.84,78.18c0,.33.27.59.59.59s.59-.27.59-.59-.27-.59-.59-.59-.59.27-.59.59Z"/>
      <path class="cls-1" d="m18.42,88.01c-.33,0-.59.27-.59.59s.27.59.59.59.59-.27.59-.59-.27-.59-.59-.59Z"/>
      <path class="cls-1" d="m19.84,85.13c0,.33.27.59.59.59s.59-.27.59-.59-.27-.59-.59-.59-.59.27-.59.59Z"/>
      <path class="cls-1" d="m19.84,92.08c0,.33.27.59.59.59s.59-.27.59-.59-.27-.59-.59-.59-.59.27-.59.59Z"/>
      <circle class="cls-1" cx="14.41" cy="60.8" r=".59"/>
      <path class="cls-1" d="m14.41,67.16c-.33,0-.59.27-.59.59s.27.59.59.59.59-.27.59-.59-.27-.59-.59-.59Z"/>
      <path class="cls-1" d="m17.01,64.28c0-.33-.27-.59-.59-.59s-.59.27-.59.59.27.59.59.59.59-.27.59-.59Z"/>
      <circle class="cls-1" cx="14.41" cy="74.7" r=".59"/>
      <circle class="cls-1" cx="16.42" cy="71.23" r=".59"/>
      <circle class="cls-1" cx="14.41" cy="81.66" r=".59"/>
      <circle class="cls-1" cx="16.42" cy="78.18" r=".59"/>
      <circle class="cls-1" cx="14.41" cy="88.61" r=".59"/>
      <circle class="cls-1" cx="16.42" cy="85.13" r=".59"/>
      <path class="cls-1" d="m15.82,92.08c0,.33.27.59.59.59s.59-.27.59-.59-.27-.59-.59-.59-.59.27-.59.59Z"/>
      <path class="cls-1" d="m10.4,67.16c-.33,0-.59.27-.59.59s.27.59.59.59.59-.27.59-.59-.27-.59-.59-.59Z"/>
      <path class="cls-1" d="m11.81,64.28c0,.33.27.59.59.59s.59-.27.59-.59-.27-.59-.59-.59-.59.27-.59.59Z"/>
      <path class="cls-1" d="m13,71.23c0-.33-.27-.59-.59-.59s-.59.27-.59.59.27.59.59.59.59-.27.59-.59Z"/>
      <path class="cls-1" d="m11.81,78.18c0,.33.27.59.59.59s.59-.27.59-.59-.27-.59-.59-.59-.59.27-.59.59Z"/>
      <path class="cls-1" d="m10.4,88.01c-.33,0-.59.27-.59.59s.27.59.59.59.59-.27.59-.59-.27-.59-.59-.59Z"/>
      <path class="cls-1" d="m11.81,85.13c0,.33.27.59.59.59s.59-.27.59-.59-.27-.59-.59-.59-.59.27-.59.59Z"/>
      <path class="cls-1" d="m8.98,64.28c0-.12-.05-.23-.11-.32-.25.28-.49.57-.72.87.07.03.15.05.23.05.33,0,.59-.27.59-.59Z"/>
      <path class="cls-1" d="m6.38,74.11c-.33,0-.59.27-.59.59s.27.59.59.59.59-.27.59-.59-.27-.59-.59-.59Z"/>
      <circle class="cls-1" cx="8.39" cy="71.23" r=".59"/>
      <path class="cls-1" d="m6.38,81.06c-.33,0-.59.27-.59.59s.27.59.59.59.59-.27.59-.59-.27-.59-.59-.59Z"/>
      <circle class="cls-1" cx="8.39" cy="78.18" r=".59"/>
      <path class="cls-1" d="m10.4,75.3c.33,0,.59-.27.59-.59s-.27-.59-.59-.59-.59.27-.59.59.27.59.59.59Z"/>
      <circle class="cls-1" cx="8.39" cy="85.13" r=".59"/>
      <path class="cls-1" d="m10.4,82.25c.33,0,.59-.27.59-.59s-.27-.59-.59-.59-.59.27-.59.59.27.59.59.59Z"/>
      <path class="cls-1" d="m6.06,68.24c.09.06.2.1.32.1.33,0,.59-.27.59-.59,0-.26-.17-.47-.4-.55-.19.34-.35.69-.51,1.04Z"/>
      <path class="cls-1" d="m4.97,71.23s0,0,0,0c-.02.09-.05.18-.07.28.04-.08.07-.17.07-.27Z"/>
      <path class="cls-1" d="m4.38,77.59c.03.39.09.77.14,1.16.25-.07.44-.29.44-.56,0-.33-.26-.59-.59-.59Z"/>
    </g>
  </g>
  <g id="_人物" data-name="人物">
    <g>
      <g>
        <path class="cls-1" d="m40.38,113.31c-3.03,8.37-13.05,48.01-14.75,57.81,0,0,4.73-2.49,14.75.93s20.63,4.69,29.61-.93c2-10.92,7.46-35.7,9.32-50.34l.83-3.87s1.96-13.84,1.57-26.37c0,0-27.95.59-29.34,0,0,0-7.51,9.19-11.99,22.77Z"/>
        <path class="cls-5" d="m62.88,45.63c2.56,3.23,8.7,3.41,12.25,1.36,0,0,1.08,25.27.18,43.95,0,0-6.19.24-8.66,0,2.17-24.03-.67-30.79-3.77-45.3Z"/>
        <path class="cls-6" d="m77.41,19.12c-.76.06-1.45.14-1.87.22h0c-.59-3.84-2.08-8.78-9.3-13.59-2.45-1.26-4.07.29-4.07.29-2.93,3-6.08,5.59-7.79,7.87-1.71,2.28-2.5,4.71-1.57,9.42.93,4.71,1.75,7.92,4.34,10.56,2.59,2.64,6.24,4.72,9.34,4.34,3.55-.43,7.51-3.58,9.15-7.19.27-.58.43-1.36.51-2.25h0c.8-.07,1.58-.16,2.3-.25,2.24-.28,4.06-2.08,4.19-4.34,0-.06,0-.11,0-.17.13-2.87-2.38-5.16-5.24-4.92Z"/>
        <path class="cls-6" d="m137.28,45.97c-.46-.67-1.35-.89-2.08-.52-3.12,1.59-9.54,5.75-12.35,8.43.06-1.77-.02-3.45-.06-4.91-.04-1.08-1.01-1.89-2.08-1.73-.91.13-1.57.92-1.55,1.83.02.89.01,2.1-.06,3.46-.12,2.31-.84,4.59-2.28,6.4-1.37,1.73-1.22,3.43-1.72,5.02-.26.84-.18,1.76.18,2.56.71,1.58,1.69,3.17,3,4.6.92,1.01,2.48,1.06,3.46.11l.15-.15c.48-.46,1.05-.74,1.66-.79,3.2-.27,5.38-1.78,6.74-3.22,1.49-1.57,2.96-3.31,4.53-4.83.54-.49.66-1.28.35-1.91-.31-.63-.81-.94-2.03-.99v-.02c.38-2.36-.3-3.7-2.07-3.39.38-1.27.05-2.57-.83-3.06h0c1.71-1.35,4.82-3.45,6.61-4.65.76-.5.95-1.53.43-2.27Z"/>
        <path class="cls-6" d="m30.43,113.31c-5.01-.4-7.62-2.56-7.62-2.56,0,0-.46,1.41-4.68,2.79-4.21,1.37-7.38,2.29-10.9,3.16-3.53.87-4.9,1.05-4.76,2.2.14,1.15,4.9.41,4.9.41-1.55.95-3.51,2.01-5.73,3.99-1.96,1.74.09,3.25,2.17,2.04-1.51.98-2.04,2.22-1.3,2.95.78.78,2.4.32,4.68-.95h.01c-.38.55-.32,1.15-.05,1.59.37.61,1.22.95,2.35.52.97-.37,9.99-4.85,13.39-6.55.35-.17.71.22.5.55-.76,1.21-1.52,2.58-2.09,3.65-.52.98-.05,2.19,1,2.56.81.29,1.69-.03,2.15-.76,2.23-3.51,6.14-6.69,6.68-8.84.6-2.41-.68-4.45-.7-6.75Z"/>
        <path class="cls-6" d="m72.1,35.11s.37,4.99.81,6.61,2.06,2.22,2.06,2.22l.16,3.04c-2.68,2.47-10.11,1.88-12.25-1.36l-.94-3.29.06-6.11,10.09-1.12Z"/>
        <path class="cls-3" d="m123.55,70.3s.7,1.45,1.37,3.02c.32.76.09,1.63-.56,2.13-3.68,2.78-14.01,10.5-17.14,12.57-3.55,2.35-8.86,2.64-11.93.62s-8.1-7.09-9.73-9.58c0,0-.86,5.4-1.08,16.81-.19,9.68-.21,15.89-.08,19.29.04.96-.6,1.8-1.53,2.02-1.1.27-2.76.59-4.98.81-1.56.15-2.91-1.09-2.91-2.66.04-6.55.18-23.03.64-34.97.59-15.21-.37-30.84-.66-36.41l2.4.7c2.73.62,9.3,1.63,11.21,4.17,1.65,2.18,6.46,16.89,7.79,20.98.19.59.77.94,1.39.89,1.24-.1,2.42.16,3.26,1.12.38.43,1.02.51,1.53.25,3.63-1.87,10.5-6.73,12.58-8.76,0,0-1.18,1.88.98,4.86s2.98,5.47,7.45,2.15Z"/>
        <path class="cls-3" d="m61.93,42.57s-11.11,1.71-15.26,2.7-6.26,2.13-8.22,11.33-6.94,26.08-9.51,33.94c-2.29,7.03-5.25,14.41-6.77,18.16-.3.75-.05,1.62.64,2.05,2.92,1.83,8.94,3.15,12.63,2.95.71-.04,1.32-.49,1.54-1.16.03-.09.06-.19.1-.29h0c2.8,1.09,13.3,3.46,20.33,4.61,1.57.26,3.09-.69,3.59-2.2,4.91-14.75,6.66-27.05,6.66-38.68s-3.97-28.67-5.72-33.43Zm-12.24,41.5s-4.34,5.4-6.45,9.57h0c2.33-7.08,4.63-14.18,5.7-17.72,0,0,.91,4.45.75,8.15Z"/>
        <path class="cls-4" d="m76.15,28.8c-.09.89-.25,1.67-.51,2.25-.4.88-.95,1.74-1.59,2.54h0c9.96.52,11.07-6.18,10.45-9.63-.73-4.06-2.44-5.85-4.65-12.32-2.2-6.47-5.99-10.69-13.7-10.78-8.39-.1-14.18,4.6-15.96,11.21s-4.23,14.34-1.63,18.69c2.06,3.45,6.86,3.44,8.58,3.13-2.59-2.64-3.41-5.85-4.34-10.56-.93-4.71-.14-7.14,1.57-9.42s5.11-4.42,8.03-7.42c0,0,1.45-1.46,3.62-.29,7.61,4.11,8.96,9.19,9.51,13.11v.03c.41-.08,1.1-.16,1.87-.22,2.86-.24,5.37,2.05,5.24,4.92,0,.06,0,.11,0,.17-.13,2.26-1.95,4.06-4.19,4.34-.72.09-1.51.18-2.3.26h0Z"/>
        <path class="cls-3" d="m62,37.33s.02,1.87,0,2.97c1.11,1.27,5.43,3.21,6.82-2.72-2.14,1.16-4.64.67-6.82-.25Z"/>
      </g>
      <g>
        <circle class="cls-3" cx="65.33" cy="27.77" r=".71"/>
        <path class="cls-3" d="m65.73,39.13c-3.4,0-6.92-2.33-9.19-4.64-2.79-2.84-3.65-6.35-4.56-11-1.01-5.13-.04-7.74,1.72-10.1,1.12-1.5,2.83-3.11,4.63-4.81,1.06-1.01,2.16-2.05,3.23-3.14.33-.34.87-.34,1.2-.01.34.33.34.87.01,1.2-1.1,1.12-2.21,2.17-3.28,3.19-1.75,1.65-3.4,3.22-4.44,4.6-1.54,2.05-2.31,4.22-1.42,8.75.88,4.49,1.65,7.62,4.11,10.13,2.74,2.79,6.13,4.4,8.63,4.09,3.22-.39,6.95-3.33,8.48-6.7,1.05-2.29.21-8.55-.07-10.6-.58-4.35-2.08-9.01-9.02-13.64-.39-.26-.5-.79-.24-1.18.26-.39.79-.5,1.18-.24,7.52,5.02,9.16,10.31,9.76,14.83.82,6.08.79,9.64-.07,11.54-1.79,3.91-6.01,7.21-9.82,7.68-.29.03-.57.05-.86.05Z"/>
        <path class="cls-3" d="m76.15,29.65c-.43,0-.8-.33-.85-.77-.04-.47.3-.88.77-.93.79-.08,1.57-.16,2.28-.25,1.89-.24,3.34-1.73,3.45-3.55v-.15c.06-1.11-.36-2.15-1.17-2.93-.84-.8-1.97-1.21-3.14-1.11-1.04.09-1.54.16-1.78.21-.46.09-.91-.21-1-.67-.09-.46.21-.91.67-1,.41-.08,1.07-.16,1.96-.23,1.63-.14,3.27.44,4.46,1.58,1.15,1.11,1.77,2.65,1.7,4.22v.19c-.16,2.63-2.24,4.79-4.94,5.12-.73.09-1.52.18-2.33.26-.03,0-.05,0-.08,0Z"/>
        <path class="cls-3" d="m64.32,5.23c-.08,0-.16-.01-.23-.04-.33-.13-.49-.5-.36-.83l.73-1.87c.13-.33.5-.49.83-.36.33.13.49.5.36.83l-.73,1.87c-.1.25-.34.41-.59.41Z"/>
        <path class="cls-3" d="m55.47,34.88c-2.5,0-5.9-.77-7.64-3.68-2.57-4.3-.63-11.39,1.08-17.66l.46-1.69C51.36,4.44,57.8-.15,66.16,0c7.28.09,11.89,3.7,14.5,11.36.97,2.86,1.83,4.75,2.59,6.43.93,2.05,1.66,3.67,2.09,6.01.19,1.06.62,4.72-1.9,7.58-1.98,2.24-5.13,3.27-9.43,3.04-.47-.02-.83-.42-.8-.89.03-.47.42-.83.89-.8,3.72.19,6.45-.64,8.06-2.47,1.6-1.82,1.83-4.37,1.51-6.16-.39-2.14-1.05-3.6-1.96-5.61-.74-1.62-1.65-3.64-2.65-6.58-2.38-6.98-6.36-10.12-12.91-10.21-.08,0-.17,0-.26,0-7.43,0-13.11,4.04-14.87,10.58l-.46,1.7c-1.62,5.93-3.46,12.66-1.26,16.34,1.82,3.04,6.18,3,7.71,2.73.46-.08.9.23.99.69.08.46-.23.9-.69.99-.5.09-1.13.15-1.82.15Z"/>
        <path class="cls-3" d="m101.93,73.06c-.59,0-1.16-.24-1.55-.69-.57-.66-1.41-.93-2.55-.83-1.03.09-1.96-.52-2.27-1.47-2.76-8.54-6.42-19.09-7.66-20.73-1.45-1.93-6.59-2.99-9.34-3.56-.52-.11-.99-.21-1.38-.29-2.53-.58-4.51-1.2-5.09-3.55-.44-1.77-.82-6.12-.83-6.3-.04-.47.31-.88.78-.92.46-.04.88.31.92.77,0,.04.38,4.39.79,6.03.3,1.2,1.09,1.68,3.82,2.3.38.09.84.18,1.35.29,3.39.7,8.52,1.76,10.36,4.2,1.67,2.21,6.09,15.58,7.92,21.23.07.23.31.31.51.3,1.67-.14,3.04.35,3.97,1.41.11.12.32.15.5.06,3.63-1.87,10.37-6.65,12.37-8.61.33-.33.88-.32,1.2.01.33.34.32.87-.01,1.2-2.08,2.04-9.04,6.99-12.78,8.91-.32.17-.67.25-1.01.25Z"/>
        <path class="cls-3" d="m120.06,72.77s-.07,0-.1,0c-.89-.03-1.71-.41-2.32-1.07-1.27-1.38-2.32-3.01-3.14-4.83-.46-1.02-.53-2.14-.21-3.17.14-.44.22-.9.31-1.39.22-1.19.47-2.54,1.56-3.91,1.25-1.58,1.97-3.62,2.09-5.92.06-1.11.08-2.26.06-3.4-.02-1.34.96-2.49,2.28-2.69.75-.11,1.52.11,2.1.59.58.49.93,1.2.95,1.95l.02.63c.03.75.06,1.57.06,2.42,3.27-2.68,8.47-5.96,11.09-7.3,1.1-.56,2.46-.22,3.16.79.38.55.52,1.22.4,1.87-.12.65-.5,1.22-1.05,1.59-1.72,1.14-4.85,3.26-6.56,4.61-.37.29-.9.23-1.19-.14-.29-.37-.23-.9.14-1.19,1.75-1.38,4.93-3.53,6.67-4.69.17-.12.29-.29.33-.49.04-.21,0-.41-.12-.59-.22-.32-.64-.42-.99-.25-2.97,1.51-9.33,5.59-12.14,8.29-.25.24-.62.3-.94.16-.32-.14-.51-.46-.5-.81.05-1.49,0-2.94-.04-4.22l-.02-.63c0-.28-.13-.53-.34-.7-.21-.18-.48-.25-.76-.21-.48.07-.83.49-.82.98.02,1.19,0,2.37-.06,3.52-.14,2.65-.99,5.03-2.46,6.89-.82,1.03-1.01,2.07-1.21,3.16-.1.52-.2,1.05-.36,1.59-.2.63-.15,1.32.14,1.96.75,1.65,1.7,3.13,2.85,4.38.29.32.69.5,1.11.52.42,0,.82-.14,1.13-.44l.15-.15c.62-.6,1.38-.96,2.18-1.03,3.05-.26,5.05-1.75,6.19-2.96.53-.56,1.06-1.14,1.59-1.73.96-1.05,1.95-2.14,2.97-3.13.34-.33.88-.32,1.2.02.33.34.32.88-.02,1.2-.99.95-1.96,2.02-2.89,3.05-.54.59-1.08,1.18-1.61,1.75-1.35,1.42-3.7,3.18-7.28,3.49-.41.04-.81.23-1.14.56l-.15.15c-.62.6-1.42.92-2.27.92Z"/>
        <path class="cls-3" d="m124.69,59.85c-.37,0-.71-.07-1-.22-.37-.19-.86-.58-1.05-1.41-.47-1.99,2.83-4.56,4.85-5.77,1.85-1.1,3.05-.43,3.49-.09,1,.78,1.37,2.33.91,3.84-.14.45-.61.71-1.06.57-.45-.14-.7-.61-.57-1.06.28-.93.05-1.71-.33-2.01-.46-.36-1.18-.02-1.57.21-2.77,1.65-4.14,3.45-4.06,3.91.05.23.13.27.16.28.17.08.63.07,1.37-.26.43-.19.93,0,1.12.44.19.43,0,.93-.44,1.12-.68.3-1.28.45-1.81.45Z"/>
        <path class="cls-3" d="m125.79,63.62c-.61,0-1.18-.22-1.64-.65-.99-.92-.82-2.49-.1-3.42.94-1.2,1.95-1.92,2.85-2.54l.09-.06c1.75-1.23,3.64-1.96,4.79-1.88.74.05,1.33.38,1.72.93.75,1.08.44,2.55.27,3.13-.13.45-.6.71-1.05.58-.45-.13-.71-.6-.58-1.05.2-.68.19-1.38-.03-1.69-.06-.09-.17-.19-.45-.21-.53-.04-1.94.35-3.69,1.58l-.09.06c-.84.59-1.71,1.2-2.49,2.2-.25.32-.34.89-.08,1.13.38.35.93.15,1.33-.09.43-.26.84-.59,1.21-.89.17-.14.34-.27.49-.38.38-.28.91-.2,1.19.17.28.38.21.91-.17,1.19-.13.1-.28.22-.44.35-.39.32-.88.71-1.41,1.02-.58.35-1.17.52-1.72.52Z"/>
        <path class="cls-3" d="m131.22,63.62s-.06,0-.08,0c-2.1-.21-3.16-1.05-3.14-2.52.02-1.58,1.38-2.45,4.05-2.59,1.96-.1,3.22.11,3.89,1.45.49.97.27,2.17-.52,2.91-.34.32-.88.3-1.2-.04-.32-.34-.3-.88.04-1.2.24-.22.31-.6.16-.9-.14-.29-.3-.61-2.28-.51-.73.04-2.42.19-2.43.91,0,.21,0,.65,1.61.8.47.05.81.46.76.93-.04.44-.41.77-.85.77Z"/>
        <path class="cls-3" d="m77.63,118.84c-.87,0-1.72-.33-2.37-.92-.73-.67-1.15-1.62-1.14-2.6.04-6.55.19-23.08.64-34.99.54-14.11-.25-28.76-.59-35.02l-.07-1.32c-.02-.47.34-.87.8-.89.47-.02.87.33.89.8l.07,1.31c.34,6.28,1.13,20.99.59,35.17-.46,11.89-.6,28.4-.64,34.94,0,.51.21.99.59,1.34.38.35.88.52,1.39.47,2.23-.21,3.87-.54,4.86-.78.54-.13.9-.61.88-1.16-.13-3.43-.1-9.58.08-19.34.22-11.34,1.06-16.7,1.09-16.92.06-.35.32-.62.66-.7.35-.08.7.07.89.37,1.53,2.33,6.49,7.38,9.48,9.34,2.79,1.83,7.72,1.55,11-.62,3.11-2.06,13.62-9.91,17.1-12.54.34-.26.46-.72.29-1.12-.65-1.53-1.34-2.97-1.35-2.98-.2-.42-.03-.93.4-1.14.42-.21.93-.03,1.14.4.03.06.72,1.49,1.38,3.06.47,1.12.13,2.41-.83,3.14-4.09,3.09-14.1,10.56-17.18,12.6-3.86,2.55-9.51,2.83-12.87.62-2.58-1.69-6.43-5.42-8.67-8.12-.27,2.51-.68,7.36-.82,14.65-.19,9.73-.21,15.84-.08,19.24.05,1.37-.84,2.56-2.17,2.88-1.04.25-2.77.6-5.1.83-.11.01-.22.02-.33.02Z"/>
        <path class="cls-3" d="m69.99,171.97c-.05,0-.1,0-.15-.01-.46-.08-.77-.53-.68-.99.6-3.31,1.51-7.81,2.57-13.04,2.43-12.06,5.46-27.07,6.75-37.26.06-.47.49-.79.95-.74.47.06.8.49.74.95-1.31,10.25-4.34,25.3-6.77,37.38-1.05,5.21-1.96,9.72-2.56,13-.08.41-.43.7-.84.7Z"/>
        <path class="cls-3" d="m51.74,172.76s-.09,0-.14-.01c-.38-.08-.63-.45-.56-.83,1.53-7.67,9.26-40.85,11.88-49.09.12-.37.51-.58.89-.46.37.12.58.52.46.89-2.6,8.21-10.31,41.3-11.84,48.95-.07.34-.36.57-.69.57Z"/>
        <path class="cls-3" d="m25.63,171.97s-.1,0-.15-.01c-.46-.08-.77-.52-.69-.98,1.65-9.52,11.65-49.29,14.79-57.96.16-.44.65-.67,1.09-.51.44.16.67.65.51,1.09-3.11,8.62-13.07,48.19-14.71,57.67-.07.41-.43.71-.84.71Z"/>
        <path class="cls-3" d="m34.67,114.58c-4,0-9.53-1.37-12.3-3.1-1.03-.64-1.44-1.94-.97-3.09,1.86-4.6,4.59-11.49,6.75-18.1,2.67-8.2,7.59-24.97,9.48-33.85,2-9.41,4.24-10.87,8.86-11.98,3.59-.86,12.14-2.22,14.64-2.61.1-2.36-.03-4.42-.03-4.45-.03-.47.33-.87.79-.9.45-.03.87.32.9.79,0,.1.17,2.6,0,5.34-.02.4-.32.73-.72.79-.11.02-11.12,1.71-15.19,2.69-3.78.91-5.69,1.74-7.59,10.68-1.91,8.94-6.85,25.79-9.53,34.03-2.18,6.67-4.92,13.59-6.79,18.21-.15.38-.03.81.3,1.01,2.67,1.67,8.46,3.02,12.13,2.83.36-.02.67-.25.78-.58,1.59-4.78,9.66-28.98,11.95-36.6.11-.37.44-.62.85-.6.39.02.72.3.79.68.04.19.92,4.6.77,8.35,0,.18-.07.36-.19.5-.04.05-4.27,5.33-6.33,9.37-2.68,8.17-5.39,16.29-6.24,18.85-.33,1-1.24,1.68-2.3,1.74-.27.01-.54.02-.82.02Zm13.99-34.85c-.68,2.16-1.52,4.77-2.43,7.57,1.19-1.67,2.23-3.01,2.64-3.53.04-1.34-.07-2.78-.2-4.04Zm13.28-37.15h0,0Z"/>
        <path class="cls-3" d="m57.93,117.76c-.22,0-.44-.02-.66-.05-7.14-1.17-17.68-3.56-20.5-4.66-.44-.17-.66-.66-.49-1.1.17-.44.67-.66,1.1-.48,2.74,1.07,13.1,3.41,20.16,4.56,1.16.19,2.27-.49,2.64-1.62,4.51-13.57,6.61-25.78,6.61-38.41,0-11.03-3.94-28.43-5.67-33.13-.16-.44.06-.93.5-1.09.44-.16.93.06,1.09.5,1.76,4.79,5.77,22.5,5.77,33.72,0,12.82-2.13,25.19-6.7,38.94-.57,1.71-2.13,2.82-3.87,2.82Z"/>
        <path class="cls-3" d="m70.4,92.05c-1.33,0-2.72-.07-3.9-.28-.46-.08-.77-.53-.68-.99.08-.46.53-.77.99-.69,3.18.58,8.36,0,8.41,0,.47-.06.89.28.94.75.05.47-.28.89-.75.94-.15.02-2.47.28-5.01.28Z"/>
        <path class="cls-3" d="m67.13,114.8c-.06,0-.11,0-.17-.02-.38-.09-.61-.47-.52-.85l.46-1.93c.92-3.81,2.45-10.19,3.39-13.83.1-.38.48-.6.86-.51.38.1.61.49.51.86-.95,3.63-2.47,10-3.39,13.81l-.47,1.93c-.08.32-.37.54-.69.54Z"/>
        <path class="cls-3" d="m3.56,129.53c-.63,0-1.2-.18-1.65-.63-.43-.43-.63-.99-.56-1.6.03-.25.1-.51.21-.76-.5-.13-.92-.4-1.21-.8-.51-.71-.59-1.89.73-3.07,1.04-.93,2.04-1.67,2.95-2.28-.77-.04-1.47-.19-1.88-.5-.38-.29-.49-.64-.52-.88-.21-1.77,1.39-2.15,4.3-2.86l1.1-.27c3.51-.87,6.65-1.78,10.84-3.14,3.56-1.16,4.15-2.29,4.15-2.3.15-.45.62-.66,1.06-.52.45.15.68.65.53,1.1-.1.3-.82,1.9-5.22,3.33-4.24,1.38-7.41,2.3-10.96,3.18l-1.11.27c-1.18.29-2.4.58-2.86.83.7.13,2.28.08,3.77-.15.4-.06.79.17.93.55.14.38,0,.81-.36,1.02l-.7.42c-1.43.86-3.06,1.83-4.9,3.47-.44.39-.55.71-.49.8.15.21.86.34,1.67-.13.4-.23.91-.1,1.15.29.24.39.13.91-.26,1.16-.87.56-1.21,1.12-1.24,1.42,0,.09,0,.15.08.22.14.15.84.49,3.66-1.09.41-.23.93-.08,1.16.32.23.41.08.93-.32,1.16-1.29.73-2.79,1.45-4.04,1.45Z"/>
        <path class="cls-3" d="m3.82,126.19c-.28,0-.55-.14-.71-.39-.26-.39-.14-.92.25-1.18,2.89-1.88,7.81-4.91,10.22-6.37.4-.24.93-.11,1.17.29.24.4.11.92-.29,1.17-2.4,1.45-7.3,4.47-10.17,6.34-.14.09-.3.14-.46.14Z"/>
        <path class="cls-3" d="m22.91,130.62c-.3,0-.6-.05-.89-.15-.73-.26-1.31-.83-1.6-1.55-.28-.72-.23-1.53.13-2.21.45-.85.89-1.63,1.29-2.33-4.66,2.32-11.18,5.54-12.04,5.87-1.71.65-2.89-.06-3.38-.87-.59-.97-.52-2.45,1.03-3.4.98-.6,7.18-3.99,9.49-5.24.41-.22.93-.07,1.15.34.22.41.07.93-.34,1.15-2.14,1.17-8.47,4.62-9.41,5.2-.37.23-.76.6-.47,1.07.21.34.71.4,1.32.17.64-.24,5.62-2.68,13.32-6.51.5-.25,1.09-.14,1.47.28.38.42.43,1.01.13,1.49-.62.98-1.31,2.19-2.06,3.6-.13.25-.15.53-.05.8.1.27.31.47.58.56.43.15.9-.02,1.15-.41,1.03-1.62,2.4-3.16,3.6-4.53,1.4-1.58,2.72-3.07,2.97-4.07.31-1.24.03-2.42-.27-3.66-.22-.91-.45-1.85-.46-2.87,0-.47.37-.85.84-.86h0c.47,0,.85.38.85.84,0,.83.2,1.64.41,2.49.33,1.39.68,2.83.27,4.47-.35,1.4-1.74,2.97-3.34,4.78-1.17,1.32-2.49,2.81-3.44,4.31-.51.8-1.37,1.26-2.26,1.26Z"/>
        <path class="cls-3" d="m69.48,49.18c-2.99,0-5.88-.96-7.3-3.08-.26-.39-.16-.92.23-1.18.39-.26.92-.16,1.18.23,1.92,2.85,7.67,2.94,11.15,1.12.42-.22.93-.06,1.15.36s.06.93-.36,1.15c-1.74.91-3.92,1.4-6.05,1.4Z"/>
        <path class="cls-3" d="m72.1,62.11c-.33,0-.6-.25-.63-.58-.37-4.01-1.16-9.13-2.01-13.05-.08-.34.14-.68.49-.76.34-.07.68.14.76.49.86,3.96,1.66,9.15,2.03,13.2.03.35-.22.66-.58.69-.02,0-.04,0-.06,0Z"/>
        <path class="cls-3" d="m68.14,58.24c-.34,0-.62-.27-.64-.62-.03-.81-.05-1.58-.07-2.33-.06-2.36-.11-4.4-.42-6.87-.04-.35.2-.67.55-.71.35-.05.67.2.71.55.32,2.54.37,4.7.43,7,.02.74.04,1.51.07,2.32.01.35-.26.65-.62.66,0,0-.02,0-.02,0Z"/>
        <path class="cls-3" d="m66.83,18.28c-.22,0-.43-.11-.55-.31-.18-.3-.08-.69.22-.87,1.41-.84,3.7-1.39,5.52-.19.29.19.38.59.18.88-.19.29-.59.38-.88.18-1.33-.87-3.07-.42-4.17.23-.1.06-.21.09-.32.09Z"/>
        <path class="cls-3" d="m55.97,20.42c-.15,0-.3-.05-.43-.16-.26-.24-.28-.64-.05-.9.77-.85,2.55-1.67,5.05-1.19.35.07.57.4.5.75-.07.35-.4.57-.75.51-1.85-.36-3.28.14-3.87.79-.13.14-.3.21-.47.21Z"/>
        <path class="cls-3" d="m65.45,32.18c-.56,0-1.13-.08-1.69-.24-.34-.1-.54-.45-.44-.79.1-.34.45-.53.79-.44,1.72.49,3.23-.07,4.07-.76.27-.22.67-.18.9.09.22.27.18.67-.09.9-.99.81-2.24,1.24-3.54,1.24Z"/>
        <ellipse class="cls-3" cx="59.52" cy="23.01" rx="1.1" ry="1.28" transform="translate(-1.55 4.5) rotate(-4.28)"/>
        <ellipse class="cls-3" cx="69.35" cy="21.34" rx="1.1" ry="1.28" transform="translate(-1.4 5.23) rotate(-4.28)"/>
      </g>
    </g>
  </g>
  <g id="_アイコン" data-name="アイコン">
    <g>
      <rect class="cls-1" x="23.78" y="28.52" width="8.32" height="8.32" rx="1.79" ry="1.79" transform="translate(-14.38 25.1) rotate(-39.32)"/>
      <path class="cls-2" d="m27.61,38.51c-.08,0-.17,0-.25-.01-.67-.07-1.26-.39-1.69-.9l-3-3.66c-.87-1.07-.72-2.65.35-3.52l3.67-3c.52-.42,1.18-.62,1.83-.55.67.07,1.26.39,1.69.9l3,3.67c.87,1.07.72,2.65-.35,3.52h0l-3.67,3c-.45.37-1,.57-1.58.57Zm.66-10.25c-.25,0-.49.08-.68.25l-3.67,3c-.46.38-.53,1.06-.15,1.52l3,3.67c.18.22.44.36.73.39.29.03.57-.06.79-.24l3.67-3c.46-.38.53-1.06.15-1.52l-3-3.67c-.18-.22-.44-.36-.73-.39-.04,0-.07,0-.11,0Zm4.14,6.13h0,0Z"/>
    </g>
    <g>
      <path class="cls-7" d="m106.8,114.5l-7.34,2.38c-1.11.36-1.42,1.79-.55,2.57l5.73,5.17c.87.78,2.26.33,2.5-.81l1.61-7.54c.24-1.14-.84-2.12-1.95-1.76Z"/>
      <path class="cls-2" d="m105.65,125.71c-.54,0-1.06-.2-1.48-.58l-5.73-5.17c-.6-.54-.85-1.33-.69-2.12.17-.79.73-1.4,1.49-1.65l7.34-2.38c.76-.25,1.58-.07,2.18.46.6.54.85,1.33.69,2.12l-1.61,7.54c-.17.79-.73,1.41-1.49,1.65-.23.07-.46.11-.7.11Zm1.63-10.58c-.08,0-.16.01-.26.04h0l-7.34,2.38c-.4.13-.51.46-.54.6-.03.14-.06.49.25.77l5.73,5.17c.31.28.66.21.79.17.13-.04.45-.19.54-.6l1.61-7.54c.09-.41-.14-.68-.25-.77-.08-.07-.27-.21-.54-.21Zm-.47-.63h0,0Z"/>
    </g>
  </g>
</svg>