<?xml version="1.0" encoding="UTF-8"?>
<svg id="Layer_2" data-name="Layer 2" xmlns="http://www.w3.org/2000/svg" viewBox="0 0 23.83 27.26">
  <defs>
    <style>
      .cls-1 {
        fill: #fff;
      }

      .cls-2 {
        fill: #565656;
      }

      .cls-3 {
        fill: #ffd964;
      }
    </style>
  </defs>
  <g id="_アイコン" data-name="アイコン">
    <g>
      <g>
        <path class="cls-3" d="m8.64,6.87c3.14-2.25,7.1-2.38,9.78.56,2.05,2.24,2.3,4.85,2.1,7.14-.12,1.31-.2,2.22.07,3.15.19.67-.1,1.38-.66,1.78l-2.96,2.12c-.56.4-1.33.45-1.9.05-.79-.56-1.68-.78-2.96-1.09-2.23-.54-4.62-1.62-6.09-4.28-1.92-3.49-.51-7.2,2.62-9.44Z"/>
        <path class="cls-2" d="m15.96,22.76c-.48,0-.95-.14-1.36-.42-.68-.47-1.48-.67-2.69-.96-3.13-.76-5.29-2.29-6.61-4.68-1.99-3.62-.84-7.84,2.86-10.49,3.7-2.65,8.06-2.38,10.85.67,1.84,2.01,2.59,4.55,2.31,7.76-.12,1.31-.17,2.09.04,2.85.28.98-.11,2.05-.97,2.67l-2.96,2.12c-.45.32-.97.48-1.48.48Zm-2.49-16.77c-1.43,0-2.93.51-4.36,1.53-3.05,2.19-3.99,5.48-2.38,8.4,1.1,2,2.87,3.23,5.57,3.89,1.29.31,2.31.56,3.23,1.21.27.19.67.17.97-.05l2.96-2.12c.3-.22.45-.59.36-.9-.32-1.09-.22-2.13-.1-3.45.25-2.77-.35-4.84-1.89-6.53-1.2-1.31-2.73-1.97-4.36-1.97Z"/>
      </g>
      <path class="cls-1" d="m17.75,24.23c-.14,0-.28-.06-.37-.19-.14-.2-.1-.48.1-.63l3.97-2.84c.2-.14.48-.1.63.1.14.2.1.48-.1.63l-3.97,2.84c-.08.06-.17.08-.26.08Z"/>
      <path class="cls-1" d="m19.24,25.77c-.14,0-.28-.06-.37-.19-.14-.2-.1-.48.1-.63l3.47-2.48c.2-.14.48-.1.63.1.14.2.1.48-.1.63l-3.47,2.48c-.08.06-.17.08-.26.08Z"/>
      <path class="cls-1" d="m21.68,27.26c-.39,0-.71-.15-.91-.42-.07-.1-.1-.22-.08-.33s.08-.22.18-.29l2.15-1.54c.1-.07.22-.1.33-.08.12.02.22.09.29.18.41.57.1,1.45-.72,2.03-.35.25-.75.41-1.12.44-.04,0-.09,0-.13,0Z"/>
      <path class="cls-2" d="m4.38,6.69c-.19,0-.37-.06-.53-.19l-1.06-.91c-.34-.29-.38-.8-.09-1.14.29-.34.8-.38,1.14-.09l1.06.91c.34.29.38.8.09,1.14-.16.19-.39.28-.62.28Z"/>
      <path class="cls-2" d="m2.13,12.16c-.05,0-.11,0-.17-.02l-1.32-.27c-.44-.09-.72-.52-.63-.96.09-.44.52-.72.96-.63l1.32.27c.44.09.72.52.63.96-.08.38-.42.65-.79.65Z"/>
      <path class="cls-2" d="m9.08,3.33c-.32,0-.62-.19-.75-.51l-.52-1.3c-.17-.42.04-.89.45-1.05.42-.17.89.04,1.05.45l.52,1.3c.17.42-.04.89-.45,1.05-.1.04-.2.06-.3.06Z"/>
      <path class="cls-2" d="m14.98,2.96s-.07,0-.1,0c-.44-.06-.76-.46-.7-.9l.17-1.34c.05-.44.45-.76.9-.7.44.06.76.46.7.9l-.17,1.34c-.05.41-.4.71-.8.71Z"/>
      <path class="cls-2" d="m10.65,15.85s-.06,0-.09,0c-.34-.05-.58-.36-.54-.71.19-1.4,1.01-2.35,1.98-2.84.34-1.4,1.48-2.43,2.63-2.87.32-.12.69.04.81.36.12.32-.04.69-.36.81-.61.23-1.22.7-1.58,1.33.07,0,.14,0,.21,0,1.22.07,2.06.84,2.09,1.92.03.99-.71,1.8-1.71,1.89-.9.08-1.89-.48-2.14-1.89-.34.33-.6.81-.69,1.45-.04.31-.31.54-.62.54Zm2.51-2.62c0,.11.01.23.03.35.09.61.41.95.8.92.23-.02.57-.2.56-.6-.02-.59-.64-.69-.9-.7-.15,0-.31,0-.49.04Z"/>
    </g>
  </g>
</svg>