<?xml version="1.0" encoding="UTF-8"?>
<svg id="Layer_2" data-name="Layer 2" xmlns="http://www.w3.org/2000/svg" viewBox="0 0 172.25 218.57">
  <defs>
    <style>
      .cls-1 {
        fill: #fff;
      }

      .cls-2 {
        fill: #95e0e6;
      }

      .cls-3 {
        fill: #363636;
      }

      .cls-4 {
        fill: #33b0da;
      }

      .cls-5 {
        fill: #ffdfbc;
      }

      .cls-6 {
        fill: #ffd964;
      }

      .cls-7 {
        fill: #ea7271;
      }

      .cls-8 {
        fill: none;
      }
    </style>
  </defs>
  <g id="_人物" data-name="人物">
    <g>
      <g>
        <g>
          <circle class="cls-1" cx="129.77" cy="33.98" r="14.86"/>
          <path class="cls-3" d="m129.77,50.05c-8.86,0-16.06-7.21-16.06-16.06s7.21-16.06,16.06-16.06,16.06,7.21,16.06,16.06-7.21,16.06-16.06,16.06Zm0-29.72c-7.53,0-13.65,6.12-13.65,13.65s6.12,13.65,13.65,13.65,13.65-6.12,13.65-13.65-6.12-13.65-13.65-13.65Z"/>
        </g>
        <g>
          <path class="cls-6" d="m129.77,40.6c5.11-2.82,7.62-7.37,6.35-9.83-1.2-2.33-4.81-1.74-6.35,1.28-1.54-3.02-5.15-3.6-6.35-1.28-1.27,2.46,1.24,7.01,6.35,9.83Z"/>
          <path class="cls-3" d="m129.77,41.6c-.17,0-.33-.04-.48-.12-5.37-2.96-8.4-7.97-6.75-11.16.64-1.25,1.84-1.96,3.29-1.96h0c1.45,0,2.89.73,3.94,1.94,1.05-1.21,2.49-1.93,3.94-1.94h0c1.45,0,2.65.72,3.29,1.96,1.64,3.19-1.39,8.19-6.75,11.16-.15.08-.31.12-.48.12Zm-3.95-11.26c-.49,0-1.15.15-1.52.89-.85,1.64.85,5.49,5.47,8.24,4.62-2.74,6.32-6.59,5.47-8.24-.38-.73-1.04-.89-1.53-.89h0c-.97,0-2.29.67-3.06,2.16-.17.33-.51.54-.88.54h0c-.37,0-.71-.21-.88-.54-.76-1.49-2.09-2.16-3.06-2.16h0Z"/>
        </g>
        <path class="cls-3" d="m112.25,45.37c-.41,0-.81-.21-1.04-.59-.34-.57-.16-1.31.42-1.65l4.64-2.78c.57-.34,1.31-.16,1.65.42.34.57.16,1.31-.42,1.65l-4.64,2.78c-.19.12-.41.17-.62.17Z"/>
      </g>
      <g>
        <g>
          <path class="cls-5" d="m94.16,34.06l-.4-.07c.49-2.38.73-4.82.6-7.19-.25-4.74-1.76-9.32-4.12-10.86-12.92-8.45-22.34,3.27-23.11,14.37l-1.59-.26c-3.27-.53-6.31,1.8-6.67,5.09,0,.05-.01.09-.02.14-.3,2.92,1.6,5.58,4.45,6.26.99.24,2.11.46,3.33.64h0c.6,2.09,1.72,3.99,3.22,5.52h0s-.75,3.87-.75,3.87c0,0,1.14.28,3.49.89,4.4,1.13,2.49,5.47,2.49,5.47l5.96-6.68h0c3.81-.71,7.18-3.2,9.01-6.78l-.29.53,2.34.45c2.94.56,5.89-1.15,6.73-4.01.01-.04.02-.08.04-.12.92-3.29-1.34-6.64-4.71-7.23Z"/>
          <path class="cls-6" d="m146.21,146.93c3.46,3.17,10.48,8.67,18.27,8.1s8.08-8.8,3.9-14.93-15.26-17.1-24.38-17.46-10.75,9.81-9.27,14.57l1.7,1.07,1.54-.84c2.62-1.43,5.94-1.19,8.12.86.15.14.32.28.44.45,2.44,3.43,1.56,5.59-.31,8.19Z"/>
          <path class="cls-6" d="m132.67,196.72c.01,4.5-.06,15.64,4.73,19.05,6.18,4.41,12.86-.96,14.46-7.88s2.5-20.32-3.17-26.97c-3.82-4.49-8.98-4.16-12.66-2.2l.6,2.72c5.17-.17,5.77,9.11-.59,10.09,0,0-1.25,3.92-3.37,5.19Z"/>
          <path class="cls-1" d="m138.07,139.63c-7.16-6.61-13.21-2.86-22.68-2.09-9.47.77-12.44-7.05-12.77-13.32-.33-6.28-.77-9.58-2.84-13.93-4.66-.79-16.83,4.2-25.3,10.83-8.47,6.63-8.96,5.95-8.96,5.95.44,18.07,3.41,39.09,24.44,57.81,22.77,20.27,46.02,19.05,46.9,2.42.88-16.62-9.31-17.35-18.14-17.26h0c4.9-.89,9.29-2.55,12.64-4.32,11.67-6.17,13.95-19.42,6.72-26.09Z"/>
          <path class="cls-4" d="m50.98,99.23c-2.15.92-4.35,1.17-7.71.44-9.58-2.09-9.81-14.13-6.56-20.94v-.02c1.74,4.49,7.39,5.67,12.07,3.85,2.75-1.07,4.56-3.83,5.27-6.12l1.13.36s-1.77,14.9-4.2,22.43Z"/>
          <path class="cls-4" d="m112.07,83.72c-2.66-6.95-8.81-21.39-13-24.84-2.77-2.39-7.54-3.88-12.25-4.38l-5.77-3.27-6.27,6.16-3.52,7.43-5.61,12.43c-.69,1.52-2.42,2.26-4,1.71l-2.83-1c-.8,6.86-2.05,21.3-2.3,28.75-.25,7.49.19,11.01,7.13,12.11,0,0-.1,2.89.04,6.27.07,1.69,2.03,2.6,3.37,1.56,7.38-5.76,21.95-16.61,31.49-16.07,1.37.08,2.48-1.09,2.26-2.45l-.67-4.12h0c2.07.83,4.5.96,7.34-.05,8.04-2.86,9.44-12.03,4.61-20.24Z"/>
          <path class="cls-8" d="m106.73,84.53c.68,6.18-3.58,11.7-9.47,11.8-5.33.09-8.92-3.07-12.92-6.68-.7-.63-.76-1.7-.14-2.41h0c.61-.69,1.66-.77,2.37-.19l3.41,2.81s-2.5-2.07-4.55-5.57c-.51-.88-.24-2.01.61-2.58h0c.9-.61,2.13-.36,2.72.55,1.28,1.98,3.38,5.17,4.36,6.34,0,0-3.16-4.25-5.07-7.49-.57-.96-.24-2.21.71-2.79h0c.93-.57,2.13-.32,2.76.56,1.45,2.05,4.01,5.62,5.72,7.77.21.26.63.07.57-.26l-1.58-8.54c-.18-.97.4-1.92,1.34-2.21l.07-.02c1.09-.34,2.24.34,2.48,1.46l2.07,9.69"/>
          <path class="cls-7" d="m54.06,76.43l7.86,2.51c1.48.47,3.07-.24,3.71-1.65l9.19-20.35c.75-1.66-.11-3.6-1.85-4.16l-11.9-3.81c-1.44-.46-3,.2-3.67,1.56l-5.67,11.52h0c1.05.03,2.23.33,3.53.99,1.1.56,1.43,1.98.66,2.95h0c-.51.64-1.35.89-2.13.64-.71-.23-1.67-.46-2.67-.46-.22,0-.26.32-.05.38,2.63.84,4.43,3.85,3.49,8.29-.1.49-.39.91-.78,1.2l.28.38Z"/>
          <path class="cls-6" d="m101.92,85.56c4.98-1.23,9.48-1.79,11.89-2.03,1.04-.1,1.82-.98,1.8-2.03l-.34-20.43c-.02-1.2-1.09-2.12-2.28-1.96-10.27,1.41-16.2,6.45-16.2,6.45l-4.68.17c-4.61-3.22-13.16-3.13-19.06-2.48-1.16.13-1.97,1.21-1.75,2.36l3.74,20.24c.19,1.01,1.1,1.72,2.13,1.63,1.64-.13,4.22-.31,7.03-.36v.12c.61-.69,1.66-.77,2.37-.19l3.41,2.81s-2.5-2.07-4.55-5.57c-.51-.88-.24-2.01.61-2.58h0c.9-.61,2.13-.36,2.72.55,1.28,1.98,3.38,5.17,4.36,6.34,0,0-3.16-4.25-5.07-7.49-.57-.96-.24-2.21.71-2.79h0c.93-.57,2.13-.32,2.76.56,1.45,2.05,4.01,5.62,5.72,7.77.21.26.63.07.57-.26l-1.58-8.54c-.18-.97.4-1.92,1.34-2.21l.07-.02c1.09-.34,2.24.34,2.48,1.46l1.81,8.47Z"/>
          <path class="cls-6" d="m58.82,77.96c-.8,6.86-2.05,21.3-2.3,28.75s.19,11.01,7.13,12.11c0,0-.1,2.88.04,6.27.03.81.25,1.98,1.83,1.98l.38,7.82c-2.15,10.45-22.51,8.15-26.75-2.2-3.92-9.59,3.53-21.44,10.69-31.36,1.14-1.58,1.9-3.4,2.23-5.33,1.07-6.27,2.12-13.89,3.12-19.2l3.63,1.16Z"/>
          <path class="cls-6" d="m48.89,102.65c-3.11,0-6.82,1.14-8.98,1.92-1.06.38-2.24-.09-2.74-1.1l-.57-1.15c-.63-1.26.07-2.77,1.43-3.14.76-.2,1.56-.38,2.4-.54,0,0,5.51,3.43,12.66,0l-.29,3.89-3.91.13Z"/>
          <path class="cls-2" d="m93.78,27.77l.59-.76c-.44-9.98-6.49-14.73-13.88-16.21-7.81-1.56-15.39.47-20.94,6.82-1.32,1.5-3.2,2.38-5.2,2.31-3.71-.14-8.04,1.49-10.44,5.42-1.22,1.99-3.31,3.3-5.65,3.28-4.36-.02-7.13,2.22-8.79,6.15-1.78,4.2-4.44,4.84-6.77,3.81l-.27,4.95c-.32,3.35,2.12,7.82,7.62,8.62,1.33.19,2.38,1.1,2.83,2.37.97,2.76,4.1,4.97,9.49,4.22.63-.09,1.27.04,1.85.32,2.52,1.22,5.79,1.78,8.87.23l4.3-8.74c.67-1.36,2.23-2.02,3.67-1.56l8.04,2.57.75-3.87c-1.5-1.53-2.61-3.42-3.21-5.51h0c-1.21-.17-2.34-.4-3.33-.64-2.85-.68-4.75-3.34-4.45-6.26,0-.05.01-.1.02-.14.37-3.33,3.37-5.62,6.67-5.09l1.59.26s.18-1.55.5-3.3,2.09-3.03,3.91-2.69c1.56.3,3.43.45,4.89-.03,3.08-1.02,4.01-2.98,4.01-2.98,0,0-.34,7.45,7.63,4.94,0,0,2.31,2.13,5.71,1.53Z"/>
          <path class="cls-2" d="m90.24,55.04c4.83-2.24,4.17-6.26,2.96-9.5l-3.44-.55s-2.36,5.29-8.71,6.25c0,0,3.49,1.11,6.07,3.03l3.13.78Z"/>
          <path class="cls-1" d="m77.77,82l-2.15-13.29c-.15-.9.52-1.73,1.43-1.78,3.3-.2,6.82-.15,10.26.62.67.15,1.15.75,1.17,1.44.11,2.73.38,9.58.53,12.71.04.88-.66,1.61-1.54,1.61h-8.19c-.75,0-1.4-.55-1.52-1.29Z"/>
          <path class="cls-1" d="m158.55,129.62c-1.28,1.44-3.43,4.07-4.84,5.82-.79.98-2.22,1.13-3.2.35l-.53-.42c-.99-.79-1.16-2.24-.36-3.22,1.4-1.73,3.48-4.29,4.66-5.66l4.26,3.13Z"/>
          <path class="cls-1" d="m165.02,135.86c-1.23,1.45-2.78,3.35-3.89,4.72-.79.98-2.22,1.13-3.2.35l-.53-.42c-.99-.79-1.16-2.24-.36-3.22,1.26-1.56,3.07-3.78,4.28-5.21l3.69,3.79Z"/>
          <path class="cls-1" d="m152.86,194.17c-1.85.04-5.09.23-7.24.37-1.2.08-2.23-.83-2.32-2.03l-.05-.64c-.09-1.21.82-2.26,2.04-2.34,2.13-.14,5.28-.33,7.01-.39l.56,5.03Z"/>
          <path class="cls-1" d="m152.67,202.78c-1.82.07-4.17.22-5.84.33-1.2.08-2.23-.83-2.32-2.03l-.05-.64c-.09-1.21.82-2.26,2.04-2.34,1.91-.12,4.66-.29,6.45-.37l-.27,5.05Z"/>
          <path class="cls-2" d="m142.2,149.4l2.39-1.25c3.48-1.82,4.54-6.48,1.93-9.41-.14-.15-.28-.3-.44-.45-2.18-2.04-5.5-2.29-8.12-.86l-1.54.84c3.54,1.33,6.42,6.7,5.77,11.12Z"/>
          <path class="cls-2" d="m136.05,191.53c6.36-.98,5.76-10.27.59-10.09,0,0,1.03,4.8-.59,10.09Z"/>
          <path class="cls-1" d="m67.86,26.79c-.26,1.06-.51,2.25-.73,3.51"/>
          <path class="cls-5" d="m55.25,63.05c-3.95-2.01-6.76-.69-8.28,1.31-.63.82-1.56,1.35-2.57,1.58-5.04,1.15-8.75,5.05-8.19,10.63.62,6.23,7.23,8.05,12.58,5.98,3.22-1.25,5.03-4.43,5.45-6.99h-.01c.15-.22.27-.45.33-.71.94-4.43-.85-7.45-3.49-8.29-.21-.07-.18-.38.05-.38,1.01,0,1.96.22,2.67.46.78.25,1.62,0,2.13-.64h0c.76-.97.44-2.39-.66-2.95Z"/>
          <path class="cls-5" d="m106.73,84.53c.68,6.18-3.58,11.7-9.47,11.8-5.33.09-8.92-3.07-12.92-6.68-.7-.63-.76-1.7-.14-2.41h0c.61-.69,1.66-.77,2.37-.19l3.41,2.81s-2.5-2.07-4.55-5.57c-.51-.88-.24-2.01.61-2.58h0c.9-.61,2.13-.36,2.72.55,1.28,1.98,3.38,5.17,4.36,6.34,0,0-3.16-4.25-5.07-7.49-.57-.96-.24-2.21.71-2.79h0c.93-.57,2.13-.32,2.76.56,1.45,2.05,4.01,5.62,5.72,7.77.21.26.63.07.57-.26l-1.58-8.54c-.18-.97.4-1.92,1.34-2.21l.07-.02c1.09-.34,2.24.34,2.48,1.46l1.81,8.47,4.81-1.03Z"/>
          <path class="cls-1" d="m112.98,59.12l-2.36-1.88c-1.14-.91-2.63-1.29-4.06-.98-4.38.93-8.54,2.61-12.49,5.81-4.84-3.08-12.76-3.35-16.55-3.28-1.33.02-2.57.68-3.34,1.77l-1.97,2.79c8.01-1.83,14.94-.83,19.24,2.39l5.64-.15s4.57-4.24,15.9-6.46Z"/>
          <path class="cls-6" d="m63.64,118.82c10.35-8.26,25.76-17.35,33.14-17.02,0,0,1.08,1.61,3.35,2.2l.67,4.12c.22,1.36-.88,2.53-2.26,2.45-9.54-.54-24.11,10.31-31.49,16.07-1.34,1.04-3.3.14-3.37-1.56-.14-3.38-.04-6.27-.04-6.27Z"/>
        </g>
        <g>
          <ellipse class="cls-3" cx="74.77" cy="35.39" rx="1.6" ry="1.28" transform="translate(21.41 98.61) rotate(-75.16)"/>
          <ellipse class="cls-3" cx="85.51" cy="37.51" rx="1.6" ry="1.28" transform="translate(27.35 110.56) rotate(-75.16)"/>
          <circle class="cls-3" cx="79.06" cy="41.39" r=".78"/>
          <circle class="cls-3" cx="62.98" cy="38.13" r=".9"/>
          <circle class="cls-3" cx="93.85" cy="42.62" r=".9"/>
          <path class="cls-3" d="m78.81,52.64c-.55,0-1.11-.03-1.66-.1l-.24-.03c-7.44-1.01-12.67-7.76-11.91-15.36.41-4.06,1.01-7.84,1.7-10.65.16-.65.81-1.04,1.46-.88.65.16,1.04.81.88,1.46-.67,2.7-1.25,6.36-1.64,10.31-.63,6.3,3.69,11.9,9.84,12.73l.21.03c4.69.59,9.33-1.92,11.53-6.24,1.38-2.71,4.56-9.81,4.18-17.05-.54-10.27-7.31-13.76-12.9-14.88-7.78-1.55-14.81.73-19.8,6.43-1.59,1.81-3.82,2.8-6.14,2.72-3.01-.12-7.08,1.1-9.37,4.84-1.48,2.42-3.96,3.86-6.64,3.86h-.11c-3.63,0-6.05,1.72-7.61,5.41-1.48,3.5-3.51,4.58-4.94,4.88-1.95.39-4.12-.4-5.96-2.18-.48-.46-.49-1.23-.02-1.7.46-.48,1.23-.49,1.7-.02,1.25,1.22,2.64,1.78,3.8,1.55,1.57-.32,2.61-2.05,3.2-3.45,1.93-4.57,5.24-6.88,9.83-6.88.04,0,.07,0,.11,0,1.84,0,3.55-1.01,4.58-2.71,2.83-4.63,7.81-6.13,11.51-6,1.62.06,3.13-.63,4.24-1.9,5.58-6.38,13.43-8.94,22.09-7.21,9.09,1.82,14.36,7.9,14.84,17.12.41,7.83-2.97,15.39-4.44,18.27-2.4,4.72-7.21,7.64-12.31,7.64Z"/>
          <path class="cls-3" d="m49.09,61.44c-2.25,0-4.19-.71-5.4-1.3-.39-.19-.78-.26-1.15-.21-6.34.88-9.74-2.01-10.79-5.01-.3-.86-1-1.45-1.87-1.58-5.92-.87-9.05-5.73-8.64-9.93.06-.66.64-1.15,1.31-1.08.66.06,1.15.65,1.08,1.31-.25,2.6,1.63,6.59,6.59,7.32,1.74.26,3.19,1.47,3.79,3.16.74,2.1,3.27,4.11,8.19,3.42.84-.12,1.72.03,2.53.42,1.58.76,4.69,1.81,7.8.24.59-.3,1.32-.06,1.62.53.3.59.06,1.32-.53,1.62-1.57.79-3.12,1.08-4.54,1.08Z"/>
          <path class="cls-3" d="m66.64,43.37c-.06,0-.11,0-.17-.01-1.13-.16-2.29-.38-3.44-.66-3.42-.82-5.73-4.06-5.37-7.55v-.14c.23-1.94,1.2-3.64,2.74-4.82,1.54-1.17,3.43-1.65,5.34-1.34l1.59.26c.66.11,1.1.72,1,1.38-.11.66-.73,1.1-1.38,1l-1.59-.26c-1.25-.2-2.49.11-3.5.88-1.01.77-1.65,1.89-1.79,3.16v.13c-.25,2.29,1.27,4.42,3.52,4.96,1.08.26,2.16.46,3.22.61.66.09,1.12.7,1.02,1.36-.09.6-.6,1.04-1.19,1.04Z"/>
          <path class="cls-3" d="m93.25,46.74c-.45,0-.91-.04-1.38-.13l-2.34-.45c-.65-.12-1.08-.76-.96-1.41.12-.65.75-1.08,1.41-.96l2.34.45c2.35.45,4.7-.94,5.35-3.17l.03-.11c.34-1.21.15-2.47-.54-3.56-.72-1.14-1.89-1.93-3.22-2.16l-.4-.07c-.66-.12-1.09-.74-.98-1.4.12-.66.74-1.09,1.4-.98l.4.07c1.99.35,3.76,1.54,4.84,3.25,1.05,1.67,1.34,3.62.82,5.5l-.04.15c-.88,3-3.65,4.98-6.74,4.98Z"/>
          <path class="cls-3" d="m88.07,27.09c-.07,0-.14,0-.21-.03-4.13-1.03-4.32-6.9-3.78-9.41.1-.46.55-.75,1.01-.65.46.1.75.55.65,1.01-.47,2.17-.21,6.72,2.53,7.4.46.11.73.58.62,1.03-.1.39-.44.64-.82.64Z"/>
          <path class="cls-3" d="m82.42,27.09c-.13,0-.26-.03-.39-.09-1.67-.85-2.34-2.21-2.5-3.69-1.21,1.24-2.85,2.11-4.98,2.14,0,0,0,0-.01,0-.46,0-.84-.37-.85-.84,0-.47.37-.86.84-.86,2.86-.05,4.59-2.03,5.41-4.25.14-.54.29-1.06.42-1.51.13-.44.58-.7,1.02-.59.44.11.72.54.63.99-.1.49-.23.99-.41,1.49-.61,2.46-.73,4.61,1.21,5.6.42.21.58.73.37,1.14-.15.29-.45.46-.76.46Z"/>
          <path class="cls-3" d="m68.5,23.85c-.6,0-1.16-.1-1.67-.29-.44-.17-.66-.66-.49-1.1.17-.44.66-.66,1.1-.49,1.06.41,2.62.11,4.17-.81,1.96-1.16,3.37-3,3.6-4.69.06-.47.49-.79.96-.73.47.06.79.49.73.96-.3,2.22-1.99,4.49-4.42,5.92-1.36.81-2.74,1.22-3.98,1.22Z"/>
          <path class="cls-3" d="m90.24,56.24c-.45,0-.89-.26-1.09-.7-.28-.6-.02-1.32.58-1.6,3.18-1.48,3.88-3.87,2.34-7.99-.23-.62.08-1.32.7-1.55.62-.23,1.32.08,1.55.7,1.99,5.29.78,8.99-3.58,11.02-.16.08-.34.11-.51.11Z"/>
          <path class="cls-3" d="m69.14,52.65c-.07,0-.13,0-.2-.02-.66-.11-1.1-.73-.99-1.39.32-1.87.72-3.78.72-3.8.14-.65.78-1.07,1.42-.93.65.14,1.07.77.93,1.43,0,.02-.39,1.89-.7,3.72-.1.59-.61,1-1.19,1Z"/>
          <path class="cls-3" d="m44.47,84.57c-2.03,0-3.97-.49-5.55-1.47-2.28-1.4-3.63-3.62-3.91-6.42-.57-5.76,3.1-10.55,9.12-11.92.79-.18,1.46-.58,1.88-1.13,2.28-2.99,5.94-3.61,9.78-1.65.85.43,1.46,1.22,1.66,2.15.2.92-.02,1.88-.6,2.62-.53.68-1.31,1.09-2.14,1.18,1.13,1.68,1.66,4.1,1.01,7.18-.07.33-.19.63-.35.91-.52,2.69-2.42,6.21-6.16,7.66-1.55.6-3.18.9-4.75.9Zm7.06-21.32c-1.84,0-2.99,1.04-3.6,1.84-.76,1-1.92,1.72-3.26,2.02-4.86,1.11-7.71,4.77-7.26,9.33.2,2.02,1.16,3.61,2.77,4.6,2.18,1.34,5.31,1.48,8.17.37,1.83-.71,3.15-2.18,3.93-3.75-.48-.03-.94-.17-1.36-.4-.43.61-1.08,1.06-1.86,1.25-.97.24-1.97.01-2.74-.61-.38-.3-.67-.67-.88-1.08-.18.09-.38.17-.58.23-.81.23-1.65.12-2.38-.29-.74-.42-1.28-1.14-1.5-1.97-.25-.94-.68-1.68-1.3-2.19-.51-.43-.58-1.19-.16-1.7.43-.51,1.19-.58,1.7-.15,1.01.84,1.71,1.99,2.09,3.43.06.21.19.39.37.49.11.06.3.13.53.06.34-.1.56-.42.52-.75-.11-.77-.4-1.88-1.18-2.82-.39-.46-.37-1.14.04-1.59s1.09-.52,1.58-.17c2.11,1.48,2.39,4.39,2.37,6,0,.34.18.54.29.63.11.09.35.23.67.15.32-.08.55-.33.59-.65.05-.35.09-.78.11-1.25,0-.02,0-.04,0-.06.04-1.23-.08-2.92-.92-4.04,0,0,0,0,0,0,0,0,0,0,0,0h0c-.4-.53-.3-1.29.23-1.69.53-.4,1.29-.3,1.69.23.04.05.08.1.11.16,0,0,0,0,0,0,.49.7.85,1.53,1.06,2.5.22,1,.27,2.03.23,2.99,0,.27.12.52.33.69.12.1.38.26.75.18.21-.05.39-.16.52-.32.02-.04.05-.07.07-.11.04-.07.07-.15.09-.23.83-3.91-.74-6.28-2.67-6.89-.67-.21-1.07-.87-.97-1.56.11-.68.68-1.18,1.37-1.18h.02c.96,0,1.98.17,3.03.52.29.1.61,0,.81-.24.19-.23.17-.48.14-.61-.05-.22-.2-.41-.4-.52-1.23-.63-2.29-.87-3.18-.87Z"/>
          <path class="cls-3" d="m46.79,101.29c-1.16,0-2.39-.15-3.77-.45-3.54-.77-6.25-2.89-7.83-6.11-2.59-5.29-1.59-12.27.44-16.53.29-.6,1.01-.86,1.61-.57.6.29.86,1.01.57,1.61-1.79,3.75-2.69,9.86-.45,14.43,1.26,2.58,3.34,4.2,6.18,4.82,2.88.63,4.9.52,6.98-.37.62-.26,1.32.02,1.58.63.26.61-.02,1.32-.63,1.58-1.5.64-3,.96-4.67.96Z"/>
          <path class="cls-3" d="m65.78,128.29c-.47,0-.94-.1-1.39-.31-1.12-.52-1.86-1.61-1.91-2.85-.09-2.2-.08-4.17-.06-5.32-6.96-1.5-7.34-6.03-7.1-13.15.25-7.67,1.54-22.21,2.31-28.85.08-.66.69-1.13,1.33-1.06.66.08,1.13.67,1.06,1.34-.77,6.6-2.04,21.04-2.29,28.65-.25,7.45.17,9.94,6.11,10.88.6.09,1.04.62,1.02,1.23,0,.03-.1,2.88.04,6.17.02.48.36.7.51.76.15.07.54.19.92-.1,5.37-4.18,21.64-16.92,32.3-16.32.3.01.59-.1.79-.32.11-.12.28-.37.21-.74l-.67-4.12c-.11-.66.34-1.28.99-1.38.66-.11,1.28.34,1.38.99l.67,4.12c.16,1-.13,1.99-.8,2.74-.69.76-1.69,1.15-2.71,1.11-9.69-.56-25.49,11.77-30.68,15.81-.59.46-1.3.7-2.02.7Z"/>
          <path class="cls-3" d="m63.65,120.03c-.35,0-.71-.16-.94-.45-.42-.52-.33-1.28.19-1.69,8.96-7.15,25.4-17.64,33.94-17.28.67.03,1.18.59,1.15,1.26-.03.67-.6,1.17-1.26,1.15-6.72-.3-21.71,8.28-32.33,16.75-.22.18-.49.26-.75.26Z"/>
          <path class="cls-3" d="m103.58,105.88c-5.02,0-9.3-3.43-12.08-9.89-.26-.61.02-1.32.63-1.58.62-.26,1.32.02,1.58.63,1.75,4.06,5.81,10.48,13.35,7.79,3.34-1.19,4.86-3.8,5.54-5.78,1.37-3.93.74-9.03-1.55-12.68-.35-.56-.18-1.31.38-1.66.56-.35,1.31-.18,1.66.38,2.7,4.31,3.4,10.1,1.79,14.76-1.23,3.55-3.66,6.06-7.01,7.26-1.48.53-2.91.78-4.29.78Z"/>
          <path class="cls-3" d="m111.4,171.92c-.49,0-.98,0-1.48-.03-10.08-.38-18.62-4.52-25.39-12.32-10.79-12.43-9.91-28.59-9.87-29.27.04-.66.61-1.18,1.28-1.13.66.04,1.17.61,1.13,1.28-.04.64-.86,15.85,9.29,27.54,6.31,7.27,14.27,11.14,23.66,11.49,9.82.38,17.8-3.25,20.78-4.83,5.6-2.96,9.37-7.99,10.08-13.45.54-4.17-.78-8.06-3.62-10.69-4.9-4.53-9.15-3.77-15.04-2.73-2,.35-4.27.76-6.72.96-3.72.31-6.82-.6-9.21-2.69-3.87-3.38-4.71-8.83-4.86-11.77-.34-6.43-.8-9.43-2.72-13.48-.29-.6-.03-1.32.57-1.6.6-.29,1.32-.03,1.6.57,2.13,4.48,2.61,7.91,2.95,14.38.13,2.56.84,7.28,4.04,10.08,1.88,1.64,4.38,2.35,7.43,2.1,2.34-.19,4.46-.56,6.5-.93,6.07-1.07,11.31-2,17.09,3.33,3.43,3.17,5.02,7.82,4.38,12.77-.81,6.24-5.06,11.95-11.35,15.27-3,1.58-10.81,5.13-20.52,5.13Z"/>
          <path class="cls-3" d="m121.94,201.17c-9.65,0-21.69-5.51-32.79-15.4-21.09-18.77-24.39-40.2-24.84-58.68-.02-.67.51-1.22,1.17-1.23,0,0,.02,0,.03,0,.65,0,1.19.52,1.2,1.18.46,18.87,3.69,38.83,24.04,56.94,15.53,13.82,30.29,16.76,38.02,13.53,4.24-1.77,6.62-5.32,6.88-10.27.31-5.82-.73-9.88-3.17-12.42-3.24-3.39-8.58-3.63-13.76-3.57h-.01c-.66,0-1.2-.53-1.21-1.19,0-.67.53-1.21,1.19-1.22,5.45-.05,11.61.23,15.52,4.31,2.92,3.05,4.18,7.7,3.83,14.22-.31,5.86-3.28,10.25-8.36,12.37-2.33.97-4.94,1.44-7.76,1.44Z"/>
          <path class="cls-3" d="m55.19,142.89c-6.75,0-14.57-3.41-17.16-9.74-4.02-9.82,2.83-21.44,10.82-32.52,1.04-1.44,1.72-3.07,2.02-4.83.46-2.7.92-5.68,1.37-8.56.61-3.92,1.18-7.62,1.75-10.66.12-.65.75-1.08,1.41-.96.65.12,1.08.75.96,1.41-.56,3-1.13,6.69-1.74,10.59-.45,2.89-.91,5.88-1.38,8.6-.36,2.09-1.2,4.11-2.44,5.83-7.59,10.52-14.12,21.46-10.55,30.2,2.36,5.77,10.38,8.73,16.46,8.17,2.09-.2,7.04-1.15,7.99-5.76.13-.65.77-1.08,1.42-.94.65.13,1.07.77.94,1.42-.88,4.3-4.67,7.17-10.13,7.67-.58.05-1.16.08-1.76.08Z"/>
          <path class="cls-3" d="m51.31,135.67c-.07,0-.14,0-.21-.02-.54-.11-.88-.64-.76-1.18l.36-1.68c.68-3.21,1.7-8.07,2.64-11.17.16-.52.71-.82,1.24-.66.52.16.82.71.66,1.24-.91,3.01-1.92,7.82-2.59,11l-.36,1.69c-.1.47-.51.78-.97.78Z"/>
          <path class="cls-3" d="m39.16,105.9c-1.27,0-2.48-.71-3.07-1.9l-.57-1.15c-.46-.92-.48-1.99-.05-2.93.43-.94,1.25-1.64,2.25-1.91.78-.21,1.61-.4,2.49-.56.65-.13,1.28.31,1.41.96s-.31,1.28-.96,1.41c-.82.16-1.6.33-2.32.52-.3.08-.55.29-.68.57-.07.16-.17.49.02.87l.57,1.15c.23.46.77.68,1.25.5,2.53-.9,6.2-1.98,9.39-1.99h0c.66,0,1.2.54,1.21,1.2,0,.67-.54,1.21-1.2,1.21-2.99,0-6.66,1.16-8.58,1.85-.38.14-.77.2-1.15.2Z"/>
          <path class="cls-3" d="m62.84,80.3c-.43,0-.87-.07-1.3-.2l-7.86-2.51c-.63-.2-.98-.88-.78-1.51.2-.63.88-.98,1.51-.78l7.86,2.51c.89.28,1.86-.14,2.25-1l9.19-20.35c.22-.49.22-1.02,0-1.51-.22-.49-.62-.85-1.12-1.01l-11.9-3.81c-.86-.27-1.82.13-2.22.94l-5.67,11.52c-.29.6-1.02.84-1.61.55-.6-.29-.84-1.02-.55-1.61l5.67-11.52c.92-1.88,3.12-2.81,5.11-2.17l11.9,3.81c1.15.37,2.1,1.22,2.59,2.32.49,1.11.49,2.38,0,3.48l-9.19,20.35c-.7,1.56-2.24,2.51-3.88,2.51Z"/>
          <path class="cls-3" d="m76.99,88.69c-1.54,0-2.86-1.09-3.15-2.63l-3.74-20.24c-.16-.88.05-1.79.58-2.5s1.34-1.18,2.23-1.28c4.74-.52,13.49-.94,18.9,2.08.44.25.98.37,1.49.35l2.12-.07c.58-.02,1.12-.2,1.57-.52,2.01-1.42,7.59-4.84,15.81-5.96.91-.12,1.83.15,2.52.75.7.6,1.11,1.47,1.12,2.39l.34,20.43c.03,1.69-1.21,3.08-2.89,3.25-2.25.22-6.76.78-11.72,2-.64.16-1.3-.24-1.46-.88-.16-.65.24-1.3.88-1.46,5.11-1.26,9.75-1.83,12.06-2.05.41-.04.72-.39.71-.81l-.34-20.43c0-.31-.18-.51-.28-.6-.1-.09-.32-.23-.63-.19-7.7,1.05-12.88,4.23-14.75,5.55-.84.59-1.83.92-2.88.96l-2.12.07c-.95.03-1.92-.19-2.75-.65-5.01-2.8-13.88-2.19-17.46-1.79-.22.02-.42.14-.56.32-.13.18-.19.4-.14.62l3.74,20.24c.08.41.45.69.85.65,1.68-.14,4.27-.31,7.11-.36.63.01,1.21.52,1.22,1.18.01.67-.52,1.21-1.18,1.22-2.77.05-5.31.22-6.95.35-.09,0-.18.01-.27.01Z"/>
          <path class="cls-3" d="m97.04,97.54c-5.77,0-9.71-3.55-13.52-6.99-1.18-1.07-1.29-2.91-.23-4.1.41-.46.92-.76,1.48-.9-.13-.21-.26-.42-.38-.63-.83-1.42-.4-3.26.98-4.19.37-.25.78-.41,1.2-.49-.04-1.15.52-2.29,1.56-2.93,1.46-.89,3.38-.5,4.37.9.85,1.2,2.16,3.03,3.44,4.77l-.9-4.88c-.29-1.57.64-3.12,2.17-3.59.92-.28,1.84-.17,2.6.27.76.45,1.3,1.2,1.49,2.06l2.07,9.69c.14.65-.28,1.29-.93,1.43-.65.14-1.29-.28-1.43-.93l-2.07-9.69c-.06-.28-.24-.42-.35-.49-.11-.06-.33-.15-.59-.07-.43.13-.65.5-.58.87l1.58,8.54c.13.69-.23,1.38-.87,1.67-.64.29-1.39.11-1.83-.44-1.75-2.22-4.36-5.85-5.76-7.83-.26-.37-.77-.47-1.15-.23-.4.24-.54.76-.3,1.15.18.31.38.63.58.96.04.05.07.1.1.15.64.99,1.23,1.89,1.76,2.68,1.34,1.96,2.53,3.56,2.55,3.59.39.52.29,1.26-.22,1.66-.51.41-1.25.33-1.67-.17-.6-.72-1.58-2.12-2.59-3.63-.63-.92-1.31-1.93-1.92-2.91-.11-.12-.25-.21-.41-.24-.2-.04-.4,0-.57.11-.32.22-.43.65-.24.97,1.9,3.26,4.25,5.23,4.28,5.25h0c.51.42.58,1.18.16,1.7-.42.51-1.18.59-1.7.16h0s-3.4-2.81-3.4-2.81c-.21-.17-.52-.15-.7.06-.18.21-.16.53.04.71,3.68,3.32,7.11,6.47,12.1,6.37,2.29-.04,4.41-1.03,5.97-2.8,1.79-2.03,2.63-4.82,2.32-7.66-.07-.66.41-1.26,1.07-1.33.65-.07,1.26.41,1.33,1.07.38,3.51-.68,6.98-2.91,9.52-2.01,2.28-4.76,3.57-7.74,3.62-.08,0-.16,0-.23,0Z"/>
          <path class="cls-3" d="m92.45,76.76c-.38,0-.7-.3-.71-.68l-.26-7.66c-.01-.39.29-.72.68-.73.44,0,.72.29.73.68l.26,7.66c.01.39-.29.72-.68.73h-.02Z"/>
          <path class="cls-3" d="m96.98,72.89c-.38,0-.7-.3-.71-.69l-.11-3.79c-.01-.39.3-.72.69-.73.39.01.72.3.73.69l.11,3.79c.01.39-.3.72-.69.73h-.02Z"/>
          <path class="cls-3" d="m72.21,64.55c-.24,0-.48-.07-.69-.22-.54-.38-.67-1.14-.29-1.68l1.97-2.79c.98-1.39,2.59-2.24,4.3-2.28,3.81-.07,10.95.19,16,2.77.3.15.65.13.91-.06,3.48-2.56,7.26-4.22,11.91-5.21,1.77-.38,3.62.07,5.07,1.22l2.36,1.88c.52.42.6,1.17.19,1.69-.42.52-1.17.6-1.69.19l-2.36-1.89c-.88-.7-2-.98-3.06-.75-4.3.92-7.79,2.44-10.98,4.8-1,.74-2.31.84-3.43.27-4.58-2.33-11.27-2.57-14.86-2.5-.94.02-1.83.49-2.37,1.26l-1.97,2.79c-.24.33-.61.51-.99.51Z"/>
          <path class="cls-3" d="m87.11,60.68c-.63,0-1.17-.5-1.2-1.14-.09-1.56-.2-3.51-.26-4.44-1.36-1.03-3.18-1.93-4.22-2.4-2.42,3.09-4.48,5.29-6.27,6.72-.52.41-1.28.33-1.69-.19-.41-.52-.33-1.28.19-1.69,1.75-1.4,3.92-3.77,6.44-7.04.33-.43.9-.58,1.4-.39.16.06,3.83,1.55,6.1,3.47.25.21.4.52.42.85,0,0,.17,2.85.29,4.98.04.66-.47,1.23-1.14,1.27-.02,0-.05,0-.07,0Z"/>
          <path class="cls-3" d="m99.03,60.04c-.28,0-.55-.09-.78-.29-2.38-2.03-6.7-3.55-11.55-4.06-.66-.07-1.14-.66-1.07-1.32s.66-1.14,1.32-1.07c5.4.57,10.09,2.25,12.87,4.62.51.43.57,1.19.13,1.7-.24.28-.58.42-.92.42Z"/>
          <path class="cls-3" d="m77.34,31.36c-.26,0-.51-.14-.64-.39-.38-.76-.93-1.17-1.65-1.24-.9-.08-1.89.42-2.28.94-.23.31-.68.38-.99.14-.31-.23-.38-.68-.14-.99.64-.85,2.05-1.64,3.54-1.5,1.21.11,2.2.83,2.8,2.02.17.35.03.78-.32.95-.1.05-.21.07-.31.07Z"/>
          <path class="cls-3" d="m89.34,33.34c-.29,0-.55-.17-.66-.46-.26-.67-.69-1.11-1.25-1.25-.63-.16-1.39.05-1.99.55-.3.25-.74.22-1-.08-.25-.3-.22-.75.08-1,.95-.81,2.17-1.12,3.25-.85,1.01.26,1.8,1.01,2.22,2.12.14.37-.04.78-.41.91-.08.03-.17.05-.25.05Z"/>
          <path class="cls-3" d="m78.54,46.42c-1.79,0-2.87-.99-3.27-1.92-.18-.43.02-.93.45-1.12.43-.18.93.01,1.12.45.21.49.89,1.01,2.12.86.46-.05.89.28.94.75.05.47-.28.89-.75.94-.21.02-.42.04-.62.04Z"/>
          <path class="cls-3" d="m163.33,156.27c-7.16,0-13.65-4.53-17.93-8.46-.49-.45-.52-1.21-.07-1.7.45-.49,1.21-.52,1.7-.07,4.18,3.83,10.57,8.29,17.36,7.78,2.39-.18,4.02-1.14,4.86-2.87,1.26-2.61.5-6.7-1.87-10.18-3.92-5.74-14.81-16.59-23.43-16.93-2.74-.11-4.87.83-6.36,2.77-2.18,2.84-2.58,7.43-1.71,10.23.2.64-.16,1.31-.79,1.51-.64.2-1.31-.16-1.51-.79-1.04-3.34-.65-8.83,2.1-12.42,1.97-2.57,4.88-3.85,8.37-3.71,10.04.39,21.6,12.51,25.33,17.98,2.89,4.23,3.69,9.17,2.05,12.58-.85,1.76-2.73,3.92-6.85,4.23-.41.03-.83.05-1.23.05Z"/>
          <path class="cls-3" d="m142.2,150.61c-.43,0-.85-.24-1.07-.65-.31-.59-.08-1.32.51-1.63l2.39-1.25c1.38-.72,2.38-2.08,2.66-3.62.26-1.44-.13-2.86-1.07-3.92-.12-.13-.24-.25-.36-.37-1.72-1.62-4.48-1.89-6.71-.67l-1.54.84c-.58.32-1.32.11-1.63-.48s-.11-1.32.48-1.63l1.54-.84c3.18-1.74,7.01-1.33,9.52,1.03.18.17.35.34.51.53,1.44,1.61,2.03,3.78,1.64,5.95-.41,2.27-1.87,4.26-3.91,5.33l-2.39,1.25c-.18.09-.37.14-.56.14Z"/>
          <path class="cls-3" d="m151.93,137.28c-.72,0-1.44-.23-2.04-.71l-.53-.42c-.69-.55-1.12-1.33-1.22-2.21-.09-.87.16-1.73.71-2.41,1.5-1.85,3.53-4.34,4.68-5.68.36-.42.99-.46,1.4-.1.42.36.46.98.1,1.4-1.14,1.32-3.15,3.79-4.64,5.63-.22.27-.32.61-.28.95.04.35.21.66.48.87l.53.42c.55.44,1.37.35,1.81-.19,1.24-1.54,3.52-4.34,4.87-5.86.36-.41.99-.45,1.4-.08.41.36.45.99.08,1.4-1.32,1.49-3.58,4.27-4.81,5.79-.64.8-1.59,1.21-2.55,1.21Z"/>
          <path class="cls-3" d="m159.35,142.42c-.72,0-1.44-.23-2.04-.71l-.53-.42c-.69-.55-1.12-1.33-1.22-2.21-.1-.87.16-1.73.71-2.41,1.29-1.6,3.09-3.81,4.3-5.23.35-.42.98-.47,1.4-.12.42.36.47.98.12,1.4-1.19,1.41-2.98,3.6-4.27,5.19-.22.27-.32.61-.28.95.04.35.21.66.48.87l.53.42c.55.44,1.37.36,1.81-.19,1.09-1.35,2.65-3.26,3.9-4.74.36-.42.98-.47,1.4-.12.42.36.47.98.12,1.4-1.24,1.46-2.79,3.36-3.87,4.7-.64.8-1.59,1.21-2.55,1.21Z"/>
          <path class="cls-3" d="m149.62,157.89c-1.19,0-2.22-.58-2.89-1.63-1.4-2.2-1.02-5.96.16-8.33.3-.6,1.02-.84,1.62-.54.6.3.84,1.02.54,1.62-.94,1.88-1.07,4.73-.28,5.97.3.46.61.51.89.51.5-.01.69-.2.8-.36.44-.65.36-2.18-.2-3.71-.23-.62.09-1.32.72-1.55.62-.23,1.32.09,1.55.72.86,2.36.84,4.56-.07,5.9-.42.62-1.24,1.38-2.74,1.41-.03,0-.06,0-.09,0Z"/>
          <path class="cls-3" d="m153.38,150.26c-1.49,0-3.16-.4-4.87-1.37-.54-.31-.76-.99-.49-1.56,1.37-2.94,4.78-4.65,7.3-4.55,1.67.05,2.93.83,3.46,2.13.55,1.38.15,2.84-1.07,3.91-.98.85-2.51,1.44-4.32,1.44Zm-2.54-2.91c2.44.96,4.44.39,5.28-.34.44-.38.58-.78.42-1.19-.2-.49-.81-.61-1.29-.62-1.37-.04-3.26.76-4.41,2.15Z"/>
          <path class="cls-3" d="m153.72,153.38c-.22,0-.45-.07-.63-.23-.42-.35-.48-.97-.13-1.4l2.46-2.98c.35-.42.97-.48,1.4-.13.42.35.48.97.13,1.4l-2.46,2.98c-.2.24-.48.36-.77.36Z"/>
          <path class="cls-3" d="m156.95,154.84c-.22,0-.45-.07-.63-.23-.42-.35-.48-.97-.13-1.4l2.1-2.55c.35-.42.97-.48,1.4-.13.42.35.48.97.13,1.4l-2.1,2.55c-.2.24-.48.36-.77.36Z"/>
          <path class="cls-3" d="m142.1,218.57c-1.86,0-3.71-.61-5.4-1.82-5.2-3.71-5.22-14.54-5.23-19.74v-.29c0-.67.54-1.21,1.2-1.21h0c.66,0,1.2.54,1.21,1.2v.29c0,4.05.04,14.8,4.22,17.79,1.99,1.42,4.15,1.75,6.24.95,2.98-1.13,5.47-4.32,6.35-8.13,1.65-7.11,2.23-19.88-2.91-25.92-4.28-5.02-9.64-2.74-11.18-1.91-.59.31-1.32.09-1.63-.5-.31-.59-.09-1.32.5-1.63,4-2.13,9.82-2.6,14.14,2.48,6.16,7.24,4.93,21.5,3.42,28.03-1.06,4.57-4.14,8.43-7.84,9.84-1.02.38-2.06.58-3.09.58Z"/>
          <path class="cls-3" d="m145.48,195.54c-1.65,0-3.05-1.28-3.17-2.95l-.05-.64c-.06-.85.21-1.68.77-2.32.56-.64,1.34-1.03,2.19-1.08,2.26-.15,5.32-.33,7.04-.39.01,0,.02,0,.03,0,.53,0,.97.42.99.96.02.55-.41,1.01-.96,1.02-1.69.06-4.73.24-6.98.39-.32.02-.61.16-.82.4-.21.24-.32.55-.29.88l.05.64c.05.65.59,1.15,1.27,1.11,2.31-.15,5.45-.34,7.29-.37.59-.03,1,.43,1.01.97.01.55-.42,1-.97,1.01-1.89.04-5.32.25-7.2.37-.07,0-.14,0-.21,0Z"/>
          <path class="cls-3" d="m146.68,204.1c-1.65,0-3.05-1.28-3.17-2.95l-.05-.64c-.06-.85.21-1.68.77-2.32.56-.64,1.34-1.03,2.19-1.08,1.59-.1,4.54-.29,6.47-.37.55-.04,1.01.4,1.03.95.02.55-.4,1.01-.95,1.03-1.91.08-4.84.26-6.42.37-.32.02-.61.16-.82.4-.21.24-.32.55-.29.88l.05.64c.05.65.59,1.16,1.27,1.11,2.44-.16,4.41-.27,5.87-.33.55-.03,1.01.4,1.03.95.02.55-.4,1.01-.95,1.03-1.44.06-3.4.17-5.82.32-.07,0-.14,0-.21,0Z"/>
          <path class="cls-3" d="m129.54,207.39c-.68,0-1.53-.22-2.34-1.06-.83-.86-1.12-2-.8-3.2.64-2.43,3.56-4.62,6-5.33.63-.19,1.31.18,1.49.82.19.64-.18,1.31-.82,1.49-1.92.56-3.99,2.29-4.35,3.64-.13.48.02.72.2.91.32.33.55.35.73.32.6-.09,1.62-.92,2.44-2.52.31-.59,1.03-.82,1.62-.52.59.3.83,1.03.52,1.62-1.1,2.15-2.69,3.57-4.23,3.8-.14.02-.3.04-.47.04Z"/>
          <path class="cls-3" d="m139.27,206.12c-.16,0-.32,0-.48-.03-2.26-.25-5.12-2.38-6.05-6.47-.14-.61.21-1.23.81-1.42,3.09-.99,6.42.4,7.99,2.2,1.07,1.22,1.34,2.64.75,3.88-.56,1.17-1.67,1.83-3.02,1.83Zm-3.81-5.81c.9,2.27,2.56,3.28,3.59,3.39.53.06.89-.09,1.06-.45.21-.43-.1-.92-.39-1.25-.85-.98-2.6-1.77-4.26-1.69Z"/>
          <path class="cls-3" d="m133.71,206.54c-.52,0-.96-.41-.99-.94-.03-.55.39-1.02.93-1.05l3.7-.21c.58-.03,1.02.39,1.05.93.03.55-.39,1.02-.93,1.05l-3.7.21s-.04,0-.06,0Z"/>
          <path class="cls-3" d="m134.77,209.76c-.52,0-.96-.41-.99-.94-.03-.55.39-1.02.93-1.05l3.15-.18c.57-.03,1.02.39,1.05.93.03.55-.39,1.02-.93,1.05l-3.15.18s-.04,0-.06,0Z"/>
          <path class="cls-3" d="m84.53,71.46s-.04,0-.07,0c-1.88-.22-3.77-.25-4.67-.17-.31.04-.59-.2-.62-.51s.2-.59.51-.62c1.13-.1,3.14-.03,4.9.17.31.04.53.32.5.63-.03.29-.28.5-.56.5Z"/>
          <circle class="cls-3" cx="79.86" cy="73.85" r=".63"/>
          <circle class="cls-3" cx="82.56" cy="73.85" r=".63"/>
          <circle class="cls-3" cx="85.27" cy="74.03" r=".63"/>
          <circle class="cls-3" cx="80.05" cy="77.28" r=".63"/>
          <circle class="cls-3" cx="82.75" cy="77.28" r=".63"/>
          <circle class="cls-3" cx="85.46" cy="77.46" r=".63"/>
          <path class="cls-3" d="m136.04,192.73c-.58,0-1.1-.43-1.19-1.02-.1-.66.35-1.27,1.01-1.37,2.73-.42,3.77-2.75,3.58-4.74-.13-1.4-.92-3.01-2.76-2.96-.67,0-1.22-.5-1.24-1.16-.02-.67.5-1.22,1.16-1.24,2.78-.09,4.95,2.02,5.24,5.14.3,3.17-1.54,6.71-5.61,7.34-.06,0-.12.01-.19.01Z"/>
        </g>
      </g>
      <g>
        <g>
          <path class="cls-2" d="m112.1,150.22l.94,11.81c.14,1.74,2.1,2.67,3.54,1.69l9.76-6.72c1.43-.99,1.26-3.16-.31-3.91l-10.7-5.1c-1.57-.75-3.37.49-3.23,2.22Z"/>
          <path class="cls-4" d="m115.3,165.12c-.48,0-.95-.11-1.41-.32-1.06-.51-1.75-1.51-1.84-2.68l-.94-11.81c-.09-1.17.43-2.27,1.4-2.94.97-.67,2.18-.76,3.25-.26l10.7,5.1c1.06.51,1.75,1.51,1.84,2.68s-.43,2.27-1.4,2.94l-9.76,6.72c-.56.38-1.2.58-1.84.58Zm-.94-16.35c-.34,0-.6.14-.72.23-.18.12-.6.49-.55,1.15h0l.94,11.81c.05.66.52.95.72,1.05.2.09.72.28,1.27-.1l9.76-6.72c.54-.38.56-.93.55-1.15-.02-.22-.12-.76-.72-1.05l-10.7-5.1c-.2-.09-.38-.13-.55-.13Z"/>
        </g>
        <g>
          <circle class="cls-6" cx="8.6" cy="89.79" r="7.61"/>
          <path class="cls-4" d="m8.6,98.39c-4.74,0-8.6-3.86-8.6-8.6s3.86-8.6,8.6-8.6,8.6,3.86,8.6,8.6-3.86,8.6-8.6,8.6Zm0-15.22c-3.65,0-6.62,2.97-6.62,6.62s2.97,6.62,6.62,6.62,6.62-2.97,6.62-6.62-2.97-6.62-6.62-6.62Z"/>
        </g>
        <g>
          <circle class="cls-2" cx="149.45" cy="61.85" r="4.38"/>
          <path class="cls-4" d="m149.45,67.23c-2.96,0-5.38-2.41-5.38-5.38s2.41-5.38,5.38-5.38,5.38,2.41,5.38,5.38-2.41,5.38-5.38,5.38Zm0-8.77c-1.87,0-3.39,1.52-3.39,3.39s1.52,3.39,3.39,3.39,3.39-1.52,3.39-3.39-1.52-3.39-3.39-3.39Z"/>
        </g>
        <g>
          <rect class="cls-1" x="105.9" y="2" width="9.58" height="9.58" rx="1.92" ry="1.92" transform="translate(15.72 -50.48) rotate(27.58)"/>
          <path class="cls-4" d="m111.9,13.57c-.46,0-.92-.11-1.34-.33h0l-5.09-2.66c-1.42-.74-1.98-2.5-1.23-3.93l2.66-5.09c.36-.69.97-1.2,1.71-1.43.74-.23,1.53-.16,2.22.2l5.09,2.66c1.42.74,1.98,2.5,1.23,3.93l-2.66,5.09c-.36.69-.97,1.2-1.71,1.43-.29.09-.58.13-.88.13Zm-.43-2.09c.22.11.47.14.71.06.24-.07.43-.24.54-.45l2.66-5.09c.24-.45.06-1.01-.39-1.25l-5.09-2.66c-.22-.12-.47-.14-.71-.06-.24.07-.43.24-.54.45l-2.66,5.09c-.24.45-.06,1.01.39,1.25l5.09,2.66Z"/>
        </g>
        <g>
          <path class="cls-1" d="m60.61,179.46c-1.08.53-2.42.26-3.2-.72-.75-.95-2.42-2.64-5.14-3.33-2.95-.75-5.43.15-6.36.57-1.32.6-2.87.02-3.47-1.3-.6-1.32,0-2.86,1.3-3.47,1.78-.81,5.42-2,9.82-.87,4.2,1.07,6.78,3.68,7.95,5.14.9,1.13.71,2.78-.42,3.68-.15.12-.31.22-.48.3Z"/>
          <path class="cls-4" d="m59.47,180.72c-1.08,0-2.14-.48-2.84-1.36-.68-.85-2.17-2.37-4.61-2.99-2.65-.67-4.87.13-5.7.51-1.81.82-3.96.02-4.78-1.79-.82-1.8-.01-3.94,1.79-4.78,1.91-.87,5.79-2.14,10.48-.94,4.48,1.14,7.23,3.93,8.48,5.49,1.24,1.56.98,3.83-.58,5.08-.21.16-.43.3-.66.42h0c-.5.25-1.04.36-1.58.36Zm1.14-1.25h0,0Zm-10.66-5.34c.8,0,1.66.09,2.57.32,3,.77,4.84,2.63,5.67,3.67.47.59,1.31.78,1.99.45h0c.11-.05.21-.12.3-.19.34-.27.55-.66.6-1.09.05-.43-.07-.86-.34-1.2-1.09-1.36-3.49-3.8-7.41-4.8-4.11-1.05-7.5.06-9.17.82-.81.38-1.18,1.35-.81,2.16.37.82,1.34,1.18,2.16.81.74-.34,2.37-.95,4.45-.95Z"/>
        </g>
        <g>
          <path class="cls-1" d="m127.38,94.34c.64-.58,1.58-.8,2.45-.49,1.25.45,1.9,1.84,1.44,3.09l-3.37,9.27c-.45,1.25-1.84,1.9-3.09,1.44-1.25-.45-1.9-1.84-1.44-3.09l3.37-9.27c.14-.38.36-.7.64-.96Z"/>
          <path class="cls-4" d="m125.64,108.78c-.39,0-.79-.07-1.17-.21-.85-.31-1.54-.93-1.92-1.76-.38-.82-.42-1.75-.11-2.6l3.37-9.27c.19-.51.5-.98.9-1.35h0c.94-.86,2.26-1.12,3.46-.68,1.76.64,2.67,2.59,2.04,4.36l-3.37,9.27c-.31.85-.93,1.53-1.75,1.92-.46.21-.95.32-1.44.32Zm2.41-13.71h0c-.17.15-.29.34-.37.56l-3.37,9.27c-.13.36-.11.74.05,1.08s.44.6.8.73c.36.13.74.11,1.09-.05.34-.16.6-.44.73-.8l3.37-9.27c.13-.36.11-.74-.05-1.08s-.44-.6-.8-.73c-.5-.18-1.05-.07-1.44.29Z"/>
        </g>
      </g>
    </g>
  </g>
</svg>