<?xml version="1.0" encoding="UTF-8"?>
<svg id="Layer_2" data-name="Layer 2" xmlns="http://www.w3.org/2000/svg" viewBox="0 0 103.89 196.46">
  <defs>
    <style>
      .cls-1 {
        fill: #fff;
      }

      .cls-2 {
        fill: #95e0e6;
      }

      .cls-3 {
        fill: #565656;
      }

      .cls-4 {
        fill: #363636;
      }

      .cls-5 {
        fill: #33b0da;
      }

      .cls-6 {
        fill: #ffdfbc;
      }
    </style>
  </defs>
  <g id="_背景ドット" data-name="背景ドット">
    <g>
      <circle class="cls-1" cx="102.05" cy="159.03" r=".59"/>
      <path class="cls-1" d="m102.05,165.39c-.33,0-.59.27-.59.59s.27.59.59.59.59-.27.59-.59-.27-.59-.59-.59Z"/>
      <path class="cls-1" d="m103.46,162.5c0,.23.13.42.32.52.05-.36.08-.72.11-1.08-.25.07-.43.29-.43.56Z"/>
      <path class="cls-1" d="m101.46,152.08c0,.33.27.59.59.59.14,0,.25-.05.35-.13-.15-.35-.32-.69-.48-1.03-.26.06-.47.29-.47.57Z"/>
      <path class="cls-1" d="m99.45,148.6c0,.33.27.59.59.59.18,0,.34-.09.45-.22-.21-.32-.45-.62-.68-.92-.21.09-.36.3-.36.55Z"/>
      <path class="cls-1" d="m98.04,158.44c-.33,0-.59.27-.59.59s.27.59.59.59.59-.27.59-.59-.27-.59-.59-.59Z"/>
      <path class="cls-1" d="m100.04,156.15c.33,0,.59-.27.59-.59s-.27-.59-.59-.59-.59.27-.59.59.27.59.59.59Z"/>
      <path class="cls-1" d="m98.04,165.39c-.33,0-.59.27-.59.59s.27.59.59.59.59-.27.59-.59-.27-.59-.59-.59Z"/>
      <path class="cls-1" d="m100.64,162.5c0-.33-.27-.59-.59-.59s-.59.27-.59.59.27.59.59.59.59-.27.59-.59Z"/>
      <path class="cls-1" d="m98.04,172.34c-.33,0-.59.27-.59.59s.27.59.59.59.59-.27.59-.59-.27-.59-.59-.59Z"/>
      <path class="cls-1" d="m100.64,169.46c0-.33-.27-.59-.59-.59s-.59.27-.59.59.27.59.59.59.59-.27.59-.59Z"/>
      <path class="cls-1" d="m94.02,144.53c-.33,0-.59.27-.59.59s.27.59.59.59.59-.27.59-.59-.27-.59-.59-.59Z"/>
      <path class="cls-1" d="m94.02,151.48c-.33,0-.59.27-.59.59s.27.59.59.59.59-.27.59-.59-.27-.59-.59-.59Z"/>
      <circle class="cls-1" cx="96.03" cy="148.6" r=".59"/>
      <path class="cls-1" d="m94.02,158.44c-.33,0-.59.27-.59.59s.27.59.59.59.59-.27.59-.59-.27-.59-.59-.59Z"/>
      <circle class="cls-1" cx="96.03" cy="155.55" r=".59"/>
      <path class="cls-1" d="m97.44,152.08c0,.33.27.59.59.59s.59-.27.59-.59-.27-.59-.59-.59-.59.27-.59.59Z"/>
      <path class="cls-1" d="m94.02,165.39c-.33,0-.59.27-.59.59s.27.59.59.59.59-.27.59-.59-.27-.59-.59-.59Z"/>
      <circle class="cls-1" cx="96.03" cy="162.5" r=".59"/>
      <path class="cls-1" d="m94.02,172.34c-.33,0-.59.27-.59.59s.27.59.59.59.59-.27.59-.59-.27-.59-.59-.59Z"/>
      <path class="cls-1" d="m95.44,169.46c0,.33.27.59.59.59s.59-.27.59-.59-.27-.59-.59-.59-.59.27-.59.59Z"/>
      <path class="cls-1" d="m96.03,175.81c-.33,0-.59.27-.59.59,0,.19.1.35.24.46.3-.23.61-.45.91-.69-.09-.21-.3-.36-.55-.36Z"/>
      <path class="cls-1" d="m90.01,144.53c-.33,0-.59.27-.59.59s.27.59.59.59.59-.27.59-.59-.27-.59-.59-.59Z"/>
      <path class="cls-1" d="m92.02,142.24c.2,0,.36-.1.47-.25-.34-.17-.68-.35-1.03-.5-.01.05-.03.1-.03.16,0,.33.27.59.59.59Z"/>
      <circle class="cls-1" cx="90.01" cy="152.08" r=".59"/>
      <path class="cls-1" d="m92.61,148.6c0-.33-.27-.59-.59-.59s-.59.27-.59.59.27.59.59.59.59-.27.59-.59Z"/>
      <circle class="cls-1" cx="90.01" cy="159.03" r=".59"/>
      <path class="cls-1" d="m92.02,154.96c-.33,0-.59.27-.59.59s.27.59.59.59.59-.27.59-.59-.27-.59-.59-.59Z"/>
      <path class="cls-1" d="m92.61,162.5c0-.33-.27-.59-.59-.59s-.59.27-.59.59.27.59.59.59.59-.27.59-.59Z"/>
      <path class="cls-1" d="m91.42,169.46c0,.33.27.59.59.59s.59-.27.59-.59-.27-.59-.59-.59-.59.27-.59.59Z"/>
      <path class="cls-1" d="m91.42,176.41c0,.33.27.59.59.59s.59-.27.59-.59-.27-.59-.59-.59-.59.27-.59.59Z"/>
      <path class="cls-1" d="m85.99,144.53c-.33,0-.59.27-.59.59s.27.59.59.59.59-.27.59-.59-.27-.59-.59-.59Z"/>
      <path class="cls-1" d="m88.6,141.65c0-.33-.27-.59-.59-.59s-.59.27-.59.59.27.59.59.59.59-.27.59-.59Z"/>
      <path class="cls-1" d="m85.99,151.48c-.33,0-.59.27-.59.59s.27.59.59.59.59-.27.59-.59-.27-.59-.59-.59Z"/>
      <circle class="cls-1" cx="88" cy="148.6" r=".59"/>
      <path class="cls-1" d="m85.99,158.44c-.33,0-.59.27-.59.59s.27.59.59.59.59-.27.59-.59-.27-.59-.59-.59Z"/>
      <circle class="cls-1" cx="88" cy="155.55" r=".59"/>
      <path class="cls-1" d="m85.99,165.39c-.33,0-.59.27-.59.59s.27.59.59.59.59-.27.59-.59-.27-.59-.59-.59Z"/>
      <circle class="cls-1" cx="88" cy="162.5" r=".59"/>
      <path class="cls-1" d="m85.99,172.34c-.33,0-.59.27-.59.59s.27.59.59.59.59-.27.59-.59-.27-.59-.59-.59Z"/>
      <path class="cls-1" d="m87.41,169.46c0,.33.27.59.59.59s.59-.27.59-.59-.27-.59-.59-.59-.59.27-.59.59Z"/>
      <path class="cls-1" d="m90.01,166.57c.33,0,.59-.27.59-.59s-.27-.59-.59-.59-.59.27-.59.59.27.59.59.59Z"/>
      <path class="cls-1" d="m90.55,179.65c-.09-.21-.3-.36-.54-.36-.33,0-.59.27-.59.59,0,.06.02.11.03.16.38-.12.74-.26,1.11-.39Z"/>
      <path class="cls-1" d="m85.99,179.29c-.33,0-.59.27-.59.59s.27.59.59.59.59-.27.59-.59-.27-.59-.59-.59Z"/>
      <circle class="cls-1" cx="88" cy="176.41" r=".59"/>
      <circle class="cls-1" cx="90.01" cy="172.93" r=".59"/>
      <path class="cls-1" d="m81.98,144.53c-.33,0-.59.27-.59.59s.27.59.59.59.59-.27.59-.59-.27-.59-.59-.59Z"/>
      <path class="cls-1" d="m84.58,141.65c0-.33-.27-.59-.59-.59s-.59.27-.59.59.27.59.59.59.59-.27.59-.59Z"/>
      <circle class="cls-1" cx="81.98" cy="152.08" r=".59"/>
      <path class="cls-1" d="m84.58,148.6c0-.33-.27-.59-.59-.59s-.59.27-.59.59.27.59.59.59.59-.27.59-.59Z"/>
      <circle class="cls-1" cx="81.98" cy="159.03" r=".59"/>
      <path class="cls-1" d="m84.58,155.55c0-.33-.27-.59-.59-.59s-.59.27-.59.59.27.59.59.59.59-.27.59-.59Z"/>
      <path class="cls-1" d="m81.98,165.39c-.33,0-.59.27-.59.59s.27.59.59.59.59-.27.59-.59-.27-.59-.59-.59Z"/>
      <path class="cls-1" d="m83.39,162.5c0,.33.27.59.59.59s.59-.27.59-.59-.27-.59-.59-.59-.59.27-.59.59Z"/>
      <circle class="cls-1" cx="81.98" cy="172.93" r=".59"/>
      <path class="cls-1" d="m83.39,169.46c0,.33.27.59.59.59s.59-.27.59-.59-.27-.59-.59-.59-.59.27-.59.59Z"/>
      <circle class="cls-1" cx="81.98" cy="179.88" r=".59"/>
      <path class="cls-1" d="m83.39,176.41c0,.33.27.59.59.59s.59-.27.59-.59-.27-.59-.59-.59-.59.27-.59.59Z"/>
      <path class="cls-1" d="m77.97,144.53c-.33,0-.59.27-.59.59s.27.59.59.59.59-.27.59-.59-.27-.59-.59-.59Z"/>
      <path class="cls-1" d="m80.57,141.65c0-.33-.27-.59-.59-.59s-.59.27-.59.59.27.59.59.59.59-.27.59-.59Z"/>
      <path class="cls-1" d="m77.97,151.48c-.33,0-.59.27-.59.59s.27.59.59.59.59-.27.59-.59-.27-.59-.59-.59Z"/>
      <circle class="cls-1" cx="79.97" cy="148.6" r=".59"/>
      <circle class="cls-1" cx="79.97" cy="155.55" r=".59"/>
      <circle class="cls-1" cx="79.97" cy="162.5" r=".59"/>
      <path class="cls-1" d="m79.38,169.46c0,.33.27.59.59.59s.59-.27.59-.59-.27-.59-.59-.59-.59.27-.59.59Z"/>
      <circle class="cls-1" cx="79.97" cy="176.41" r=".59"/>
      <path class="cls-1" d="m77.97,179.29c-.33,0-.59.27-.59.59,0,.06.02.11.03.16.32.1.66.17.99.25.1-.11.17-.25.17-.41,0-.33-.27-.59-.59-.59Z"/>
      <path class="cls-1" d="m73.95,144.53c-.33,0-.59.27-.59.59s.27.59.59.59.59-.27.59-.59-.27-.59-.59-.59Z"/>
      <path class="cls-1" d="m75.96,142.24c.33,0,.59-.27.59-.59,0-.21-.11-.38-.27-.48-.3.11-.6.21-.89.33-.01.05-.03.1-.03.15,0,.33.27.59.59.59Z"/>
      <path class="cls-1" d="m76.55,148.6c0-.33-.27-.59-.59-.59s-.59.27-.59.59.27.59.59.59.59-.27.59-.59Z"/>
      <circle class="cls-1" cx="73.95" cy="159.03" r=".59"/>
      <path class="cls-1" d="m75.96,156.15c.33,0,.59-.27.59-.59s-.27-.59-.59-.59-.59.27-.59.59.27.59.59.59Z"/>
      <path class="cls-1" d="m73.95,165.39c-.33,0-.59.27-.59.59s.27.59.59.59.59-.27.59-.59-.27-.59-.59-.59Z"/>
      <path class="cls-1" d="m75.37,162.5c0,.33.27.59.59.59s.59-.27.59-.59-.27-.59-.59-.59-.59.27-.59.59Z"/>
      <path class="cls-1" d="m77.97,159.62c.33,0,.59-.27.59-.59s-.27-.59-.59-.59-.59.27-.59.59.27.59.59.59Z"/>
      <circle class="cls-1" cx="73.95" cy="172.93" r=".59"/>
      <path class="cls-1" d="m75.37,169.46c0,.33.27.59.59.59s.59-.27.59-.59-.27-.59-.59-.59-.59.27-.59.59Z"/>
      <path class="cls-1" d="m77.97,166.57c.33,0,.59-.27.59-.59s-.27-.59-.59-.59-.59.27-.59.59.27.59.59.59Z"/>
      <path class="cls-1" d="m75.96,175.81c-.33,0-.59.27-.59.59s.27.59.59.59.59-.27.59-.59-.27-.59-.59-.59Z"/>
      <path class="cls-1" d="m77.97,173.53c.33,0,.59-.27.59-.59s-.27-.59-.59-.59-.59.27-.59.59.27.59.59.59Z"/>
      <path class="cls-1" d="m69.94,151.48c-.33,0-.59.27-.59.59s.27.59.59.59.59-.27.59-.59-.27-.59-.59-.59Z"/>
      <path class="cls-1" d="m71.95,149.2c.33,0,.59-.27.59-.59s-.27-.59-.59-.59-.59.27-.59.59.27.59.59.59Z"/>
      <path class="cls-1" d="m69.94,158.44c-.33,0-.59.27-.59.59s.27.59.59.59.59-.27.59-.59-.27-.59-.59-.59Z"/>
      <path class="cls-1" d="m72.54,155.55c0-.33-.27-.59-.59-.59s-.59.27-.59.59.27.59.59.59.59-.27.59-.59Z"/>
      <circle class="cls-1" cx="73.95" cy="152.08" r=".59"/>
      <path class="cls-1" d="m72.54,162.5c0-.33-.27-.59-.59-.59s-.59.27-.59.59.27.59.59.59.59-.27.59-.59Z"/>
      <path class="cls-1" d="m69.94,172.34c-.33,0-.59.27-.59.59s.27.59.59.59.59-.27.59-.59-.27-.59-.59-.59Z"/>
      <path class="cls-1" d="m71.35,169.46c0,.33.27.59.59.59s.59-.27.59-.59-.27-.59-.59-.59-.59.27-.59.59Z"/>
      <path class="cls-1" d="m71.35,176.41c0,.33.27.59.59.59s.59-.27.59-.59-.27-.59-.59-.59-.59.27-.59.59Z"/>
      <path class="cls-1" d="m69.43,145.41c.1.18.29.31.51.31.33,0,.59-.27.59-.59,0-.2-.11-.38-.27-.48-.29.24-.56.5-.84.76Z"/>
      <circle class="cls-1" cx="65.93" cy="152.08" r=".59"/>
      <circle class="cls-1" cx="67.93" cy="148.6" r=".59"/>
      <circle class="cls-1" cx="65.93" cy="159.03" r=".59"/>
      <circle class="cls-1" cx="67.93" cy="155.55" r=".59"/>
      <path class="cls-1" d="m65.93,165.39c-.33,0-.59.27-.59.59s.27.59.59.59.59-.27.59-.59-.27-.59-.59-.59Z"/>
      <circle class="cls-1" cx="67.93" cy="162.5" r=".59"/>
      <path class="cls-1" d="m67.93,170.05c.33,0,.59-.27.59-.59s-.27-.59-.59-.59-.59.27-.59.59.27.59.59.59Z"/>
      <path class="cls-1" d="m69.94,166.57c.33,0,.59-.27.59-.59s-.27-.59-.59-.59-.59.27-.59.59.27.59.59.59Z"/>
      <path class="cls-1" d="m63.92,156.15c.33,0,.59-.27.59-.59s-.27-.59-.59-.59c-.11,0-.21.04-.3.1-.07.26-.14.52-.2.79.1.18.29.3.51.3Z"/>
      <path class="cls-1" d="m64.51,162.5c0-.33-.27-.59-.59-.59s-.59.27-.59.59.27.59.59.59.59-.27.59-.59Z"/>
    </g>
  </g>
  <g id="_人物" data-name="人物">
    <g>
      <g>
        <path class="cls-5" d="m55.67,44.17c-.8,1.45-1.93,3.01-2.68,4-.5.66-.69,1.51-.51,2.32l.9,4-3.52.44c-.69-.82-1.83-2.91-2.65-4.48-.6-1.15-1.49-2.12-2.56-2.87s-2.2-1.76-3.09-2.71c-.69-.74-1.83-.84-2.64-.24-.62.46-1.44.98-2.44,1.45-2.51,1.16-6.35,2.86-6.35,2.86,0,0-10.58,2.54-13.32,11.28-.63,2.01-1.22,9.49-1.04,20.32-3.39,3.99-3.18,13.49,2.04,17.09,4.12,2.84,8.57,2.28,12.3.04l-.25,1.89s18.88,2.28,30.21,2.24c0,0,1.09,3.04,4.84,2.69s4.55-.62,7.05-.26c12.77,4.23,15.23-7.76,14.54-13.28l-1.02-5.48c-.33-1.86-2.14-5.39-4.27-8.5-2.14-3.11-1.76-4.46-2.46-8.45-.7-3.99-1.76-9.89-4.23-13.24s-10.22-4.23-14.26-5.53c-.83-.82-2.53-3.49-3.46-4.97-.4-.64-1.05-1.06-1.8-1.15-.53-.07-1.09-.15-1.36-.24"/>
        <g>
          <path class="cls-6" d="m30.32,31.46s0,.08,0,.13c0-.05,0-.08,0-.13Z"/>
          <path class="cls-6" d="m30.33,31.34s0,.07,0,.11c0-.07,0-.11,0-.11Z"/>
          <path class="cls-6" d="m30.31,31.9c0,.18-.01.37-.02.54,0-.14.01-.32.02-.54Z"/>
          <path class="cls-6" d="m30.32,31.59c0,.11,0,.22-.01.31,0-.12,0-.22.01-.31Z"/>
          <path class="cls-6" d="m63.43,20.06c-.49-3.33-4.04-4.04-6.42-2.87-.46-4.43-3.76-8.93-7.98-10.59-3.47-3.37-14.12-3.7-16.72,16.01.07.27.15.52.22.78l-.76.19s-1.3,4.13-1.44,7.75c0,0,1.47,3.14,5.77,1.17,0,0,0,0,0,0h0s0,0,0,0c1.42,2.43,3.09,4.18,5.21,5.6.11,3.31-.25,5.76-.44,6.27,0,0,4.47,3.29,5.41,4.67.94,1.38,3.59,5.86,3.59,5.86l3.52-.44s-.71-3.12-.96-4.39c-.25-1.27.73-2.07,1.51-3.2-.55-4.49-.55-9.7-.55-9.7h-.01c.44-.42.88-.88,1.3-1.41,1.75-2.2,2.49-5.26,2.73-8.45l.1-.02c4.52-.98,6.49-3.48,5.93-7.25Z"/>
          <path class="cls-6" d="m30.27,32.87c0,.12,0,.1,0,0h0Z"/>
          <path class="cls-6" d="m30.28,32.44c0,.17-.01.28-.01.36,0-.09,0-.22.01-.36Z"/>
          <path class="cls-6" d="m30.27,32.8s0,.05,0,.07c0-.02,0-.05,0-.07Z"/>
        </g>
        <path class="cls-6" d="m33.4,58.67c.52-.09,1.01-.4,1.3-.89.48-.8.32-1.83-.39-2.44-1.14-.97-2.6-1.99-4.31-2.82l1.09.1c-.75-2.05-1.11-4.36-1.27-5.99-.12-1.15-1.18-1.97-2.33-1.77-.93.16-1.61.96-1.65,1.91-.1,2.4.21,4.08.21,4.08-1.53-4.39-3.93-8.5-5.26-10.61-.54-.85-1.62-1.14-2.51-.68-.92.48-1.3,1.6-.86,2.54,1.4,2.93,3.38,7.46,4.17,9.62l.23.02c-.44.34-.81.79-1.1,1.37-.26.51-.68.89-1.19,1.16-1.22.64-1.74,1.89-1.82,3.1-.03.52-.2,1.01-.44,1.46-1,1.83-.6,4.6,2.82,7.12,3.14,2.31,4.05,2.61,4.66,3.73.65,1.2,1.99,1.88,3.36,1.78,2.4-.17,5.24-1.72,6.17-3.95,1.24-3.09.27-6.72-.82-8.84h-.04Z"/>
        <path class="cls-1" d="m66.95,146.93c1.18-18.82-.49-33.6-.59-36.46-.1-2.86,0-5.99,0-5.99-4.61.38-6.28-2.69-6.28-2.69-8.54-.02-29.23-2.1-29.23-2.1l-.98-.14s-1.09,3.96-1.64,7.08c-5.03,9.85-6.75,17.44-4.9,34.49,1.78,16.41,3.91,25.03,5.19,54.49h32.81s4.43-29.86,5.62-48.67Z"/>
        <path class="cls-2" d="m61.64,17.28c-.09-.45-.2-.9-.31-1.35-2.51-10.36-8.36-13.75-12.12-13.75-5.2-2.51-11.01-1.58-16.07,3.58s-7.86,14.69-8.45,22.29c-.52,6.71.82,13.63,8.83,13.75-7.15-3.99-1.09-21.03,1.99-27.17,2.47-4.92,5.63-9.24,10.46-8.87,0,0,8.74.08,11.05,11.44,0,0,1.7-1.44,4.63.09Z"/>
        <path class="cls-4" d="m39.83,37.01c-2.42.93-3.44,2.37-3.44,2.37-3.07-1.9-5.62-4.69-6.07-8.04,0,0,1.49,2.02,5.77,1.17,0,0,.85,2.03,3.74,4.5Z"/>
        <path class="cls-4" d="m60.15,26.42c.21,3.02-.02,7.11-1.83,9.8,0,0-3.16.09-4.94.96,0,0,3.75-2.51,4.11-10.77h2.66Z"/>
        <path class="cls-4" d="m46.28,98.09c-4.16,2.42-6.17.96-8.52-.92,0,0-.3-2.88.89-4.58,0,0,4.26,5.58,7.62,5.5Z"/>
        <path class="cls-6" d="m43.84,97.29c2.09.68,3.86.98,5.33.47,1.19-.41,1.97-1.54,2.02-2.8.03-.69.02-1.52-.07-2.39-.13-1.21-.81-2.29-1.87-2.91-3.92-2.27-8.14-5.6-10.16-8.07.2,5.09-1.85,10.41-8.2,15.56-.08,1.89-.02,3.43.11,4.68.11,1.07,1.28,1.67,2.2,1.12h0c.44-.26.71-.72.72-1.23.03-1.6.13-5.13.47-6.44l.07-1.3c-.1,1.29-.11,2.73-.09,3.91s1.23,1.82,2.22,1.29h0c.46-.25.75-.7.79-1.22.11-1.7.3-4.01,1.28-5.7,0,0,2.75,4.24,5.19,5.03Z"/>
      </g>
      <g>
        <circle class="cls-4" cx="46.48" cy="26.92" r=".71"/>
        <ellipse class="cls-4" cx="40.13" cy="23.17" rx=".97" ry="1.04" transform="translate(-3.42 7.34) rotate(-10.03)"/>
        <ellipse class="cls-4" cx="50.39" cy="21.03" rx=".97" ry="1.04" transform="translate(-2.89 9.1) rotate(-10.03)"/>
        <path class="cls-4" d="m46.92,40.8c-2.02,0-4.09-.65-6.09-1.98-4.46-2.98-6.99-7.31-9.34-15.98-.12-.45.15-.92.6-1.04.45-.12.92.14,1.04.6,2.22,8.22,4.57,12.29,8.64,15.01,4.3,2.87,8.87,2.06,12.22-2.15,3.57-4.49,2.66-13.26,2.17-17.97-.44-4.21-3.57-8.36-7.45-9.88-.44-.17-.65-.67-.48-1.1.17-.44.66-.65,1.1-.48,4.44,1.74,8.02,6.49,8.52,11.29.51,4.95,1.47,14.17-2.53,19.2-2.36,2.97-5.32,4.49-8.41,4.49Z"/>
        <path class="cls-4" d="m62.13,36.21c-.05,0-.1,0-.15-.01-.46-.08-.77-.53-.68-.99.08-.47.82-4.75.45-10.74-.03-.47.33-.87.8-.9.47-.04.87.33.9.8.38,6.18-.39,10.65-.48,11.14-.08.41-.43.7-.84.7Z"/>
        <path class="cls-4" d="m33.52,42.65s0,0-.01,0c-2.97-.04-5.31-.98-6.95-2.78-2.22-2.44-3.13-6.43-2.71-11.88.54-7,3.14-17.17,8.69-22.83C37.55.05,43.7-1.34,49.41,1.33c4.67.12,10.38,4.59,12.75,14.4.11.46.22.92.31,1.38.1.46-.2.91-.66,1.01-.46.09-.91-.2-1.01-.66-.09-.44-.19-.88-.3-1.33-2.5-10.34-8.28-13.1-11.3-13.1-.13,0-.25-.03-.37-.08-5.14-2.48-10.5-1.27-15.1,3.41-5.23,5.33-7.69,15.05-8.21,21.77-.38,4.96.38,8.53,2.27,10.6.82.9,1.87,1.53,3.15,1.88-4.43-6.34,1.14-21.09,3.78-26.36,2.29-4.58,5.66-9.77,11.28-9.34.47.04.82.44.78.91s-.45.82-.91.78c-3.61-.28-6.58,2.32-9.63,8.41-3.36,6.69-8.61,22.55-2.33,26.05.34.19.51.59.41.96-.1.37-.44.63-.82.63Z"/>
        <path class="cls-4" d="m36.39,40.23c-.15,0-.31-.04-.45-.13-3.73-2.32-6.03-5.39-6.46-8.65-.06-.47.26-.89.73-.96.48-.06.89.27.96.73.45,3.34,3.15,5.74,5.08,7.04.58-.57,1.64-1.42,3.28-2.05.44-.17.93.05,1.1.49.17.44-.05.93-.49,1.1-2.12.81-3.04,2.06-3.05,2.07-.17.23-.43.35-.69.35Z"/>
        <path class="cls-4" d="m57.49,28.16c-.39,0-.74-.27-.83-.67-.1-.46.19-.91.65-1.01,4.05-.87,5.77-2.93,5.27-6.29-.15-1.04-.69-1.82-1.54-2.26-1.06-.56-2.5-.54-3.66.03-.42.21-.93.04-1.14-.39-.21-.42-.04-.93.39-1.14,1.64-.81,3.68-.81,5.2-.02,1.33.7,2.2,1.95,2.43,3.52.63,4.23-1.71,7.15-6.6,8.2-.06.01-.12.02-.18.02Z"/>
        <path class="cls-4" d="m53.38,38.04c-.31,0-.62-.17-.76-.48-.21-.42-.03-.93.39-1.14,1.52-.74,3.84-.97,4.83-1.03,1.68-2.86,1.59-7.15,1.47-8.92-.03-.47.32-.88.79-.91.46-.04.87.32.91.79.17,2.5.15,7.17-1.97,10.34-.15.23-.41.37-.68.38-.03,0-3,.1-4.59.88-.12.06-.25.09-.37.09Zm4.94-1.82h0,0Z"/>
        <path class="cls-4" d="m53.93,47.74c-.42,0-.79-.32-.84-.75-.55-4.49-.55-9.75-.55-9.8,0-.47.38-.85.85-.85s.85.38.85.85c0,.05,0,5.21.54,9.6.06.47-.27.89-.74.95-.03,0-.07,0-.1,0Z"/>
        <path class="cls-4" d="m40.86,45.24c-.1,0-.19-.02-.29-.05-.44-.16-.67-.65-.51-1.09.11-.31.5-2.59.39-5.96-.02-.47.35-.86.82-.88.45.01.86.35.88.82.1,3.14-.22,5.85-.49,6.59-.12.35-.45.56-.8.56Z"/>
        <path class="cls-4" d="m49.87,55.77c-.24,0-.49-.1-.65-.31-.59-.71-1.51-2.26-2.75-4.63-.52-1-1.29-1.86-2.29-2.57-1.11-.78-2.25-1.78-3.23-2.83-.39-.42-1.04-.48-1.51-.14-.8.6-1.67,1.11-2.59,1.54-2.51,1.16-6.37,2.87-6.37,2.87l-.69-1.55s3.84-1.7,6.34-2.86c.81-.38,1.58-.83,2.29-1.36,1.16-.86,2.78-.71,3.77.34.88.95,1.96,1.89,2.96,2.6,1.23.86,2.17,1.93,2.82,3.17,1.15,2.19,2.05,3.73,2.55,4.32.3.36.25.9-.11,1.2-.16.13-.35.2-.54.2Z"/>
        <path class="cls-4" d="m53.38,79.84h-.01c-.35,0-.63-.3-.63-.65.13-7.75,0-24.54,0-24.71,0-.35.28-.64.63-.64h0c.35,0,.63.28.64.63,0,.17.14,16.98,0,24.74,0,.35-.29.63-.64.63Z"/>
        <path class="cls-4" d="m53.38,55.33c-.39,0-.74-.27-.83-.66l-.9-4c-.24-1.06,0-2.16.67-3.02.77-1.01,1.85-2.5,2.61-3.89.22-.41.74-.56,1.15-.34.41.23.56.74.34,1.15-.81,1.48-1.94,3.05-2.75,4.1-.35.46-.48,1.05-.36,1.61l.9,4c.1.46-.18.91-.64,1.02-.06.01-.12.02-.19.02Z"/>
        <path class="cls-4" d="m85.49,86.31c-.41,0-.76-.29-.84-.7-.29-1.66-2.03-5.1-4.14-8.16-1.74-2.53-1.94-4.05-2.24-6.34-.09-.71-.2-1.5-.36-2.45-.63-3.6-1.68-9.62-4.07-12.88-1.64-2.23-6.3-3.34-10.04-4.23-1.4-.33-2.72-.65-3.8-.99-.13-.04-.25-.11-.34-.21-.84-.84-2.41-3.25-3.58-5.12-.26-.42-.69-.69-1.18-.76-.99-.13-1.33-.22-1.51-.27-.45-.14-.69-.62-.55-1.07.14-.45.62-.69,1.07-.55.06.02.33.09,1.21.21,1,.13,1.88.69,2.41,1.54,1.45,2.32,2.6,4,3.2,4.68.98.3,2.19.59,3.46.89,4.22,1.01,9.01,2.15,11.02,4.87,2.63,3.58,3.73,9.85,4.38,13.6.17.98.28,1.8.37,2.52.29,2.19.45,3.4,1.95,5.6,1.91,2.79,4.02,6.6,4.41,8.83.08.46-.23.9-.69.98-.05,0-.1.01-.15.01Z"/>
        <path class="cls-4" d="m76.93,105.96c-1.59,0-3.33-.31-5.22-.94-.45-.15-.69-.63-.54-1.07.15-.45.63-.69,1.08-.54,4.11,1.36,7.39,1.07,9.74-.86,3.42-2.81,4.08-8.43,3.69-11.51-.06-.47.27-.89.74-.95.47-.06.89.27.95.74.38,2.98-.04,9.54-4.3,13.04-1.7,1.39-3.75,2.09-6.13,2.09Z"/>
        <path class="cls-4" d="m49.59,90.72c-.47,0-.85-.38-.85-.84,0-.47.37-.85.84-.86,3.42-.03,7.68-.51,9.06-.68.1-.22.21-.47.32-.73.8-1.9,2.02-4.77,4.96-5.17,1.56-.22,3.17.56,4.72,1.31,1.44.7,2.92,1.42,4.19,1.24.47-.06.9.26.96.72.07.46-.26.9-.72.96-1.79.25-3.5-.59-5.17-1.39-1.38-.67-2.69-1.31-3.75-1.16-1.98.27-2.89,2.42-3.62,4.15-.2.48-.39.91-.57,1.26-.13.24-.37.41-.64.45-.22.03-5.49.71-9.71.75h0Z"/>
        <path class="cls-4" d="m59.71,101.36c-.18,0-.35-.06-.49-.2-.28-.27-.29-.72-.02-1,2.75-2.88.95-8.43-.58-10.62-.22-.32-.15-.76.18-.99.32-.22.76-.14.99.18,1.81,2.6,3.79,8.9.44,12.41-.14.15-.33.22-.51.22Z"/>
        <path class="cls-4" d="m65.15,105.39c-4.04,0-5.46-1.97-6.07-3.85-1.28.08-4.11.22-6.31.23-1.33,0-2.51-.86-2.92-2.13-.17-.51-.37-1.19-.63-2.07-.13-.45.13-.92.58-1.05.45-.13.92.13,1.05.58.25.86.45,1.51.61,2.01.19.57.71.95,1.31.96.06,0,.12,0,.18,0,2.84,0,6.66-.27,6.7-.28.41-.03.79.24.89.65.34,1.39,1.05,4.3,7.96,2.85.46-.1.91.2,1.01.66.1.46-.2.91-.66,1.01-1.43.3-2.65.43-3.7.43Z"/>
        <path class="cls-4" d="m31.09,53.48c-.35,0-.67-.21-.8-.56-.79-2.15-1.16-4.55-1.32-6.2-.03-.32-.19-.61-.45-.8-.25-.19-.57-.27-.89-.21-.54.09-.93.55-.95,1.11-.09,2.26.19,3.87.19,3.89.08.44-.19.86-.62.97-.43.11-.87-.12-1.02-.54-1.5-4.33-3.89-8.39-5.17-10.43-.3-.48-.9-.64-1.41-.38-.52.27-.73.89-.48,1.41,1.48,3.09,3.44,7.62,4.2,9.69.16.44-.06.93-.5,1.09-.44.16-.93-.06-1.09-.5-.75-2.03-2.68-6.49-4.14-9.54-.65-1.36-.11-2.97,1.23-3.66,1.29-.67,2.85-.24,3.62.99.88,1.4,2.26,3.72,3.55,6.44.25-1.11,1.15-2,2.29-2.2.78-.13,1.58.06,2.2.53.63.48,1.03,1.2,1.11,1.99.16,1.54.5,3.8,1.23,5.78.16.44-.06.93-.5,1.09-.1.04-.2.05-.29.05Z"/>
        <path class="cls-4" d="m27.83,72.32c-1.61,0-3.1-.85-3.84-2.24-.3-.56-.69-.84-2-1.74-.62-.42-1.4-.96-2.41-1.71-3.96-2.92-4.18-6.16-3.06-8.21.2-.38.32-.75.34-1.11.1-1.71.93-3.1,2.27-3.8.38-.2.66-.47.83-.79,1.72-3.38,5.3-2.75,7.84-1.98,3.11.94,5.56,2.67,7.07,3.95,1.03.88,1.27,2.36.57,3.52-.22.36-.51.67-.85.89,1.05,2.45,1.64,5.81.47,8.72-1.12,2.68-4.39,4.3-6.9,4.48-.11,0-.22.01-.33.01Zm-3.53-20.5c-1.69,0-2.38.77-2.83,1.66-.32.64-.86,1.16-1.55,1.53-1.1.57-1.33,1.75-1.37,2.4-.04.61-.22,1.22-.54,1.82-.78,1.43-.51,3.76,2.58,6.03.99.73,1.76,1.26,2.37,1.67,1.35.93,2.02,1.39,2.53,2.34.48.89,1.5,1.42,2.55,1.34,2.03-.15,4.62-1.47,5.45-3.43,1.01-2.5.37-5.56-.55-7.62-.15,0-.31-.03-.46-.06.12.66,0,1.36-.39,1.98-.81,1.27-2.45,1.67-3.75.91-1.4-.82-3.58-2.01-6.08-2.99-.44-.17-.65-.67-.48-1.1.17-.44.67-.65,1.1-.48,2.6,1.03,4.87,2.26,6.32,3.11.5.29,1.14.14,1.45-.35.31-.49.18-1.14-.3-1.47-1.13-.78-2.99-1.95-5.45-3.07-.41-.19-.6-.65-.44-1.07.16-.42.6-.65,1.03-.52,2.75.79,5.34,2.22,7.02,3.27.23.14.5.2.76.15.01,0,.03,0,.04,0,0,0,.01,0,.02,0,.28-.07.51-.24.66-.49.27-.45.18-1.02-.21-1.35-1.38-1.18-3.63-2.76-6.46-3.62-1.25-.38-2.23-.54-3-.54Z"/>
        <path class="cls-4" d="m25.26,64.83c-.27,0-.55-.04-.83-.13-1.43-.45-2.5-.73-3.09-.81-.46-.07-.79-.5-.72-.97.07-.46.49-.78.96-.72.68.1,1.81.39,3.35.87.53.17,1.09-.09,1.33-.59.26-.54.03-1.2-.51-1.47-1.79-.9-2.45-1.19-3.54-1.65-.43-.18-.64-.68-.46-1.11.18-.43.68-.64,1.11-.46,1.1.46,1.82.78,3.65,1.7,1.36.68,1.93,2.35,1.28,3.72-.47,1-1.49,1.61-2.55,1.61Z"/>
        <path class="cls-4" d="m20.85,80.06c-.15,0-.3-.04-.44-.12-.4-.24-.53-.77-.29-1.17.9-1.48,1.96-2.74,2.39-3.23.12-1.14.19-2.05.25-2.78.2-2.44.28-3.36,1.67-3.88.44-.17.93.06,1.09.5.16.44-.06.93-.5,1.09-.35.13-.38.14-.57,2.42-.07.79-.15,1.8-.29,3.09-.02.18-.1.35-.22.49-.01.01-1.33,1.45-2.37,3.17-.16.26-.44.41-.73.41Z"/>
        <path class="cls-4" d="m29.38,80.06c-.52,0-1.06-.05-1.59-.16-2.47-.48-4.58-2.04-5.13-3.79-.12-.37.09-.77.46-.89.38-.12.77.09.89.46.34,1.08,1.84,2.4,4.05,2.82,1.45.28,4.23.34,6.49-2.42.25-.3.69-.35,1-.1.3.25.35.7.1,1-1.64,2-3.86,3.07-6.26,3.07Z"/>
        <path class="cls-4" d="m24.73,88.32c-.08,0-.17-.02-.25-.05-.32-.14-.47-.52-.33-.84,1.38-3.19,2.94-6.68,4.09-8.45.19-.3.58-.38.88-.19.3.19.38.59.19.88-1.1,1.7-2.71,5.31-3.99,8.27-.1.24-.34.38-.58.38Z"/>
        <path class="cls-4" d="m31.09,84.85s-.04,0-.05,0c-.35-.03-.61-.34-.58-.69l.02-.27c.11-1.32.24-2.95.19-4.67,0-.35.27-.65.62-.66.35-.01.65.27.66.62.05,1.79-.09,3.46-.2,4.81l-.02.27c-.03.33-.31.59-.63.59Z"/>
        <path class="cls-4" d="m23.82,100.42c-2.26,0-4.46-.69-6.49-2.09-2.44-1.68-4.05-4.62-4.53-8.27-.49-3.71.34-7.52,2.12-9.82-.15-9.87.29-18.01,1.09-20.31.16-.44.64-.67,1.08-.52.44.16.68.64.52,1.08-.61,1.73-1.18,8.73-.99,20.03,0,.21-.07.41-.2.56-1.63,1.92-2.38,5.35-1.93,8.75.41,3.12,1.8,5.71,3.81,7.09,5.57,3.84,10.96.49,13.02-1.13,3.43-2.7,5.66-6.24,6.62-10.52.89-3.97-.03-6.21-3.25-7.99-.27-.15-.43-.43-.44-.73,0-.12-.04-3.01-.01-4.36.05-2.35-.18-3.6-.36-3.93-.35-.18-.54-.6-.42-1,.13-.45.61-.71,1.06-.57.76.23,1.52,1.06,1.43,5.54-.02.99,0,2.92,0,3.81,3.53,2.12,4.66,5.11,3.66,9.6-1.04,4.68-3.47,8.54-7.22,11.49-2.77,2.18-5.71,3.28-8.55,3.28Zm10.2-32.09s0,0,0,0t0,0Z"/>
        <path class="cls-4" d="m50.13,55.63c-5.24,0-11.01-3.12-13.48-7.4-.2-.34-.08-.77.26-.97s.77-.08.97.26c2.33,4.04,8.19,7.02,13.09,6.66,4.94-.37,6.68-3.41,6.75-3.54.19-.34.62-.47.96-.28.34.19.47.61.28.96-.08.16-2.15,3.85-7.89,4.27-.31.02-.63.04-.95.04Z"/>
        <path class="cls-4" d="m69.02,85.48s-.07,0-.1,0c-.47-.06-.8-.48-.75-.94.23-1.92.5-3.39.74-4.68.35-1.89.63-3.39.58-5.38-.04-1.69-.32-3.64-.63-5.71-.3-2.06-.61-4.18-.69-6.2-.02-.47.34-.87.81-.88.45-.01.87.34.88.81.08,1.93.38,4.01.68,6.02.31,2.12.6,4.11.64,5.91.05,2.17-.24,3.74-.61,5.73-.23,1.27-.5,2.71-.72,4.57-.05.43-.42.75-.84.75Z"/>
        <path class="cls-4" d="m47.46,75.88s-.05,0-.08,0c-.35-.04-.6-.36-.55-.71.21-1.67.45-3.51.69-5.4.75-5.85,1.61-12.48,1.72-14.88.01-.35.28-.63.67-.61.35.02.62.31.61.67-.11,2.45-.93,8.82-1.72,14.98-.24,1.88-.48,3.73-.69,5.39-.04.32-.32.56-.63.56Z"/>
        <path class="cls-4" d="m46.99,98.98c-1.06,0-2.29-.23-3.56-.95-1.93-1.08-3.45-2.89-4.79-4.48-.8-.94-1.55-1.84-2.26-2.42-.36-.3-.41-.83-.12-1.2.3-.36.84-.41,1.2-.11.83.68,1.63,1.63,2.48,2.64,1.25,1.48,2.66,3.16,4.32,4.09,1.92,1.08,3.73.72,4.63.41.83-.28,1.41-1.1,1.45-2.03.03-.79.01-1.55-.06-2.26-.1-.95-.64-1.79-1.45-2.26-4.08-2.37-8.35-5.77-10.4-8.27-.3-.36-.24-.9.12-1.2.37-.3.9-.24,1.2.12,1.93,2.36,6.01,5.6,9.93,7.88,1.27.74,2.13,2.07,2.29,3.55.08.79.11,1.64.07,2.51-.07,1.62-1.11,3.05-2.59,3.56-.58.2-1.44.41-2.46.41Z"/>
        <path class="cls-4" d="m42.37,100.19c-2.18,0-3.72-1.23-5.14-2.36-.37-.29-.43-.83-.13-1.2.29-.37.83-.43,1.19-.13,2.21,1.76,3.8,3.03,7.56.85.41-.24.93-.1,1.16.31.24.41.1.93-.31,1.16-1.7.99-3.12,1.37-4.33,1.37Z"/>
        <path class="cls-4" d="m35.87,100.23c-.41,0-.82-.11-1.19-.32-.71-.42-1.15-1.16-1.16-1.98-.03-1.53,0-2.87.09-3.99.04-.47.45-.81.92-.78.47.04.82.45.78.92-.08,1.06-.11,2.35-.08,3.82,0,.33.23.49.32.55.09.06.35.17.64.01.2-.11.33-.31.34-.53.13-2.13.39-4.34,1.39-6.07.23-.41.75-.55,1.16-.32.41.23.55.75.32,1.16-.93,1.63-1.08,4.04-1.17,5.34-.05.81-.51,1.53-1.23,1.92-.35.19-.74.29-1.12.29Z"/>
        <path class="cls-4" d="m32.45,104.03c-.36,0-.71-.08-1.04-.25-.71-.36-1.18-1.05-1.26-1.84-.15-1.52-.19-3.09-.11-4.81.02-.47.4-.84.89-.81.47.02.83.42.81.89-.07,1.63-.04,3.13.11,4.56.03.31.25.45.34.5.09.04.33.13.59-.02.18-.11.3-.3.3-.51.04-1.89.15-5.27.5-6.64.12-.46.59-.73,1.04-.61.46.12.73.58.61,1.03-.22.86-.39,3.2-.45,6.25-.02.81-.44,1.53-1.14,1.95-.36.21-.77.32-1.18.32Z"/>
        <path class="cls-4" d="m61.33,195.97s-.07,0-.1,0c-.47-.05-.8-.48-.75-.94.3-2.56.77-5.96,1.32-9.89,1.45-10.4,3.44-24.65,4.29-38.25.97-15.44,0-28.28-.42-33.76-.09-1.22-.16-2.1-.18-2.62-.1-2.85,0-6.02,0-6.05.01-.46.39-.82.85-.82,0,0,.02,0,.03,0,.47.01.84.41.82.88,0,.03-.09,3.14,0,5.94.02.5.08,1.36.17,2.54.42,5.52,1.39,18.43.42,33.99-.86,13.67-2.85,27.95-4.3,38.38-.55,3.92-1.02,7.31-1.32,9.85-.05.43-.42.75-.84.75Z"/>
        <path class="cls-4" d="m63.3,111.28s-.02,0-.03,0c-7.29-.27-19.48-.72-29.64-2.27-.39-.06-.65-.42-.59-.81.06-.39.41-.65.81-.59,10.08,1.54,22.22,1.99,29.48,2.26.39.01.7.34.68.73-.01.38-.33.68-.71.68Z"/>
        <path class="cls-4" d="m60.08,102.65h0c-5.19-.01-19-.77-26.22-1.68-.47-.06-.8-.48-.74-.95.06-.47.48-.8.95-.74,7.16.9,20.87,1.65,26.01,1.66.47,0,.85.38.85.85s-.38.85-.85.85Z"/>
        <path class="cls-4" d="m28.52,196.46c-.45,0-.83-.36-.85-.81-.93-21.28-2.31-31.8-3.65-41.98-.51-3.88-1.04-7.9-1.54-12.45-1.86-17.1-.03-24.69,4.25-33.49.43-.89.76-1.86.97-2.87.57-2.72,1.33-5.49,1.34-5.52.11-.41.51-.68.94-.62l.98.14c.46.06.79.49.73.96-.06.46-.49.79-.96.73l-.24-.03c-.26.99-.74,2.86-1.12,4.7-.24,1.15-.61,2.25-1.11,3.27-4.13,8.5-5.9,15.88-4.09,32.56.49,4.53,1.02,8.53,1.53,12.41,1.35,10.22,2.74,20.78,3.67,42.13.02.47-.34.87-.81.89-.01,0-.03,0-.04,0Z"/>
        <path class="cls-4" d="m50.03,129.48h-.02c-.39-.01-.7-.34-.69-.73l.1-3.08c.14-4.33.3-9.71.43-15.7,0-.39.37-.67.72-.69.39,0,.7.33.69.72-.12,6-.29,11.39-.43,15.71l-.1,3.08c-.01.38-.33.69-.71.69Z"/>
        <path class="cls-4" d="m50.03,191.58h0c-.47,0-.85-.39-.84-.86.02-2.57.09-7.13.18-12.64.23-14.2.55-33.66.34-42.93,0-.47.36-.86.83-.87,0,0,.01,0,.02,0,.46,0,.84.37.85.83.21,9.31-.11,28.78-.34,43-.09,5.5-.16,10.06-.18,12.62,0,.47-.38.84-.85.84Z"/>
        <circle class="cls-4" cx="46.97" cy="79.32" r=".64"/>
        <circle class="cls-4" cx="30.85" cy="87.68" r=".64"/>
        <path class="cls-4" d="m33.48,33.97c-1.7,0-3.07-.71-3.81-1.63-.3-.37-.24-.9.13-1.2.37-.3.9-.24,1.2.13.43.53,2.13,1.66,4.75.47.43-.2.93,0,1.13.42.19.43,0,.93-.42,1.13-1.05.48-2.06.68-2.96.68Z"/>
        <path class="cls-4" d="m47.87,18.06c-.19,0-.37-.08-.5-.24-.22-.27-.18-.68.1-.9,1.52-1.21,3.52-1.43,5.23-.56.31.16.44.54.28.86-.16.31-.54.44-.86.28-1.28-.65-2.72-.49-3.86.42-.12.09-.26.14-.4.14Z"/>
        <path class="cls-4" d="m36.09,21.67c-.1,0-.2-.02-.29-.07-.31-.16-.43-.55-.27-.86.9-1.72,3.18-2.59,5.67-2.16.35.06.58.39.52.74-.06.35-.39.58-.74.52-1.92-.33-3.69.29-4.33,1.5-.11.22-.34.34-.57.34Z"/>
        <g>
          <path class="cls-1" d="m43.1,31.99c2.76-1.83,5.21-2.23,8.02-2.32,0,0-1.73,4.01-3.23,4.4s-3.99-1.54-4.79-2.08Z"/>
          <path class="cls-4" d="m47.47,34.83c-1.54,0-3.38-1.28-4.42-2.01l-.34-.24c-.2-.13-.32-.35-.32-.59,0-.24.12-.46.32-.59,2.86-1.89,5.42-2.34,8.39-2.43.24.01.47.11.61.31.14.2.16.46.06.68-.31.72-1.95,4.35-3.71,4.8-.19.05-.39.07-.6.07Zm-3.07-2.8c.96.64,2.48,1.57,3.31,1.36.58-.15,1.52-1.5,2.26-2.94-1.97.15-3.71.54-5.57,1.58Z"/>
        </g>
        <g>
          <circle class="cls-1" cx="33.64" cy="33.12" r="1.87"/>
          <path class="cls-4" d="m33.64,35.84c-1.5,0-2.72-1.22-2.72-2.72s1.22-2.72,2.72-2.72,2.72,1.22,2.72,2.72-1.22,2.72-2.72,2.72Zm0-3.74c-.56,0-1.02.46-1.02,1.02s.46,1.02,1.02,1.02,1.02-.46,1.02-1.02-.46-1.02-1.02-1.02Z"/>
        </g>
        <g>
          <circle class="cls-1" cx="60.21" cy="26.92" r="1.87"/>
          <path class="cls-4" d="m60.21,29.64c-1.5,0-2.72-1.22-2.72-2.72s1.22-2.72,2.72-2.72,2.72,1.22,2.72,2.72-1.22,2.72-2.72,2.72Zm0-3.74c-.56,0-1.02.46-1.02,1.02s.46,1.02,1.02,1.02,1.02-.46,1.02-1.02-.46-1.02-1.02-1.02Z"/>
        </g>
      </g>
    </g>
  </g>
  <g id="_アイコン" data-name="アイコン">
    <g>
      <path class="cls-1" d="m12.68,161.72c.93-.42,1.34-1.51.92-2.43s-1.51-1.34-2.43-.92l-3.66,1.66c-.38.17-.82,0-1-.38l-.37-.81c-.17-.38,0-.82.38-1l3.66-1.66c.93-.42,1.34-1.51.92-2.43s-1.51-1.34-2.43-.92l-5.61,2.54c-1.15.52-1.67,1.88-1.14,3.03l4.63,10.24c.52,1.15,1.88,1.67,3.03,1.14l5.61-2.54c.93-.42,1.34-1.51.92-2.43s-1.51-1.34-2.43-.92l-3.66,1.66c-.38.17-.82,0-1-.38l-.37-.81c-.17-.38,0-.82.38-1l3.66-1.66Z"/>
      <path class="cls-3" d="m9.42,152.68c.7,0,1.37.4,1.68,1.08.42.92,0,2.01-.92,2.43l-3.66,1.66c-.38.17-.55.62-.38,1l.37.81c.13.28.4.44.69.44.1,0,.21-.02.31-.07l3.66-1.66c.25-.11.5-.16.76-.16.7,0,1.37.4,1.68,1.08.42.92,0,2.01-.92,2.43l-3.66,1.66c-.38.17-.55.62-.38,1l.37.81c.13.28.4.44.69.44.1,0,.21-.02.31-.07l3.66-1.66c.25-.11.5-.16.76-.16.7,0,1.37.4,1.68,1.08.42.92,0,2.01-.92,2.43l-5.61,2.54c-.31.14-.63.2-.94.2-.87,0-1.71-.5-2.09-1.35l-4.63-10.24c-.52-1.15,0-2.51,1.14-3.03l5.61-2.54c.25-.11.5-.16.76-.16m0-1.71h0c-.51,0-1,.11-1.46.32l-5.61,2.54c-.97.44-1.72,1.23-2.09,2.23-.38,1-.34,2.09.1,3.06l4.63,10.24c.65,1.43,2.08,2.35,3.64,2.35.57,0,1.12-.12,1.65-.36l5.61-2.54c1.78-.81,2.58-2.91,1.77-4.69-.51-1.14-1.59-1.91-2.81-2.06.16-.23.29-.49.4-.76.33-.89.3-1.85-.09-2.71-.51-1.14-1.59-1.91-2.81-2.06.68-.99.84-2.3.31-3.47-.57-1.27-1.84-2.09-3.23-2.09h0Z"/>
    </g>
    <g>
      <path class="cls-1" d="m98.84,77.19l-4.72,2.76c-.41.24-.92.24-1.33,0-.41-.24-.65-.69-.64-1.17l.22-6.78c.02-.48-.5-.78-.91-.54l-1.72,1.01c-.62.37-1.42.16-1.79-.47s-.16-1.42.47-1.79l4.72-2.76c.41-.24.92-.24,1.33,0,.41.24.65.69.64,1.17l-.22,6.78c-.02.48.5.78.91.54l1.72-1.01c.62-.37,1.42-.16,1.79.47s.16,1.42-.47,1.79Z"/>
      <path class="cls-3" d="m93.8,67.27c.23,0,.46.06.67.18.41.24.65.69.64,1.17l-.22,6.78c-.01.36.28.63.61.63.1,0,.21-.03.31-.08l1.72-1.01c.21-.12.44-.18.66-.18.45,0,.89.23,1.13.65.36.62.16,1.42-.47,1.79l-4.72,2.76c-.2.12-.43.18-.66.18s-.46-.06-.67-.18c-.41-.24-.65-.69-.64-1.17l.22-6.78c.01-.36-.28-.63-.61-.63-.1,0-.21.03-.31.08l-1.72,1.01c-.21.12-.44.18-.66.18-.45,0-.89-.23-1.13-.65-.36-.62-.16-1.42.47-1.79l4.72-2.76c.2-.12.43-.18.66-.18m0-1.28c-.46,0-.91.12-1.31.35l-4.72,2.76c-.6.35-1.02.91-1.19,1.58-.17.67-.08,1.36.27,1.96.46.79,1.32,1.28,2.23,1.28.46,0,.91-.12,1.3-.35l.68-.4-.18,5.57c-.03.94.46,1.82,1.26,2.3.4.24.86.36,1.32.36s.91-.12,1.31-.35l4.72-2.76c1.23-.72,1.64-2.31.92-3.54-.46-.79-1.32-1.28-2.23-1.28-.46,0-.91.12-1.3.35l-.68.4.18-5.57c.03-.94-.46-1.82-1.26-2.3-.4-.24-.86-.36-1.32-.36h0Z"/>
    </g>
  </g>
</svg>