<?xml version="1.0" encoding="UTF-8"?>
<svg id="Layer_2" data-name="Layer 2" xmlns="http://www.w3.org/2000/svg" viewBox="0 0 11.79 12">
  <defs>
    <style>
      .cls-1 {
        fill: #fff;
      }

      .cls-2 {
        fill: #565656;
      }
    </style>
  </defs>
  <g id="_アイコン" data-name="アイコン">
    <g>
      <path class="cls-1" d="m9.1.78L1.76,3.16c-1.11.36-1.42,1.79-.55,2.57l5.73,5.17c.87.78,2.26.33,2.5-.81l1.61-7.54c.24-1.14-.84-2.12-1.95-1.76Z"/>
      <path class="cls-2" d="m7.95,12c-.54,0-1.06-.2-1.48-.58L.74,6.26C.14,5.72-.12,4.93.05,4.14c.17-.79.73-1.4,1.49-1.65L8.88.11c.76-.25,1.58-.07,2.18.46.6.54.85,1.33.69,2.12l-1.61,7.54c-.17.79-.73,1.41-1.49,1.65-.23.07-.46.11-.7.11Zm1.63-10.58c-.08,0-.16.01-.26.04h0L1.98,3.84c-.4.13-.51.46-.54.6-.03.14-.06.49.25.77l5.73,5.17c.32.28.66.21.79.17.13-.04.45-.19.54-.6l1.61-7.54c.09-.41-.14-.68-.25-.77-.08-.07-.27-.21-.54-.21Zm-.47-.63h0,0Z"/>
    </g>
  </g>
</svg>