<?xml version="1.0" encoding="UTF-8"?>
<svg id="Layer_2" data-name="Layer 2" xmlns="http://www.w3.org/2000/svg" viewBox="0 0 129.14 207.24">
  <defs>
    <style>
      .cls-1 {
        fill: #fff;
      }

      .cls-2 {
        fill: #95e0e6;
      }

      .cls-3 {
        fill: #565656;
      }

      .cls-4 {
        fill: #363636;
      }

      .cls-5 {
        fill: #33b0da;
      }

      .cls-6 {
        fill: #ffdfbc;
      }

      .cls-7 {
        fill: #ffd964;
      }

      .cls-8 {
        fill: #d5d5d5;
      }

      .cls-9 {
        fill: none;
      }
    </style>
  </defs>
  <g id="_背景ドット" data-name="背景ドット">
    <g>
      <circle class="cls-1" cx="54.28" cy="95.26" r=".59"/>
      <path class="cls-1" d="m54.28,101.62c-.33,0-.59.27-.59.59s.27.59.59.59.59-.27.59-.59-.27-.59-.59-.59Z"/>
      <path class="cls-1" d="m56.28,99.33c.28,0,.5-.2.57-.46-.04-.17-.08-.35-.12-.52-.11-.13-.27-.21-.45-.21-.33,0-.59.27-.59.59s.27.59.59.59Z"/>
      <circle class="cls-1" cx="54.28" cy="109.16" r=".59"/>
      <path class="cls-1" d="m56.28,105.09c-.33,0-.59.27-.59.59s.27.59.59.59.59-.27.59-.59-.27-.59-.59-.59Z"/>
      <path class="cls-1" d="m56.28,112.05c-.33,0-.59.27-.59.59s.27.59.59.59c.06,0,.11-.02.16-.03.09-.32.18-.64.26-.97-.11-.11-.26-.18-.43-.18Z"/>
      <path class="cls-1" d="m50.26,87.72c-.33,0-.59.27-.59.59s.27.59.59.59.59-.27.59-.59-.27-.59-.59-.59Z"/>
      <path class="cls-1" d="m50.26,94.67c-.33,0-.59.27-.59.59s.27.59.59.59.59-.27.59-.59-.27-.59-.59-.59Z"/>
      <path class="cls-1" d="m51.67,91.78c0,.33.27.59.59.59s.59-.27.59-.59-.27-.59-.59-.59-.59.27-.59.59Z"/>
      <path class="cls-1" d="m50.26,101.62c-.33,0-.59.27-.59.59s.27.59.59.59.59-.27.59-.59-.27-.59-.59-.59Z"/>
      <path class="cls-1" d="m52.27,98.14c-.33,0-.59.27-.59.59s.27.59.59.59.59-.27.59-.59-.27-.59-.59-.59Z"/>
      <path class="cls-1" d="m50.26,108.57c-.33,0-.59.27-.59.59s.27.59.59.59.59-.27.59-.59-.27-.59-.59-.59Z"/>
      <path class="cls-1" d="m51.67,105.69c0,.33.27.59.59.59s.59-.27.59-.59-.27-.59-.59-.59-.59.27-.59.59Z"/>
      <path class="cls-1" d="m50.26,115.52c-.33,0-.59.27-.59.59s.27.59.59.59.59-.27.59-.59-.27-.59-.59-.59Z"/>
      <path class="cls-1" d="m51.67,112.64c0,.33.27.59.59.59s.59-.27.59-.59-.27-.59-.59-.59-.59.27-.59.59Z"/>
      <path class="cls-1" d="m50.26,122.47c-.33,0-.59.27-.59.59s.27.59.59.59.59-.27.59-.59-.27-.59-.59-.59Z"/>
      <path class="cls-1" d="m52.27,120.19c.33,0,.59-.27.59-.59s-.27-.59-.59-.59-.59.27-.59.59.27.59.59.59Z"/>
      <circle class="cls-1" cx="54.28" cy="116.12" r=".59"/>
      <circle class="cls-1" cx="46.25" cy="88.31" r=".59"/>
      <path class="cls-1" d="m47.66,84.83c0,.33.27.59.59.59s.59-.27.59-.59c0-.11-.04-.2-.09-.29-.08-.08-.17-.16-.25-.24-.08-.04-.16-.06-.26-.06-.33,0-.59.27-.59.59Z"/>
      <circle class="cls-1" cx="46.25" cy="95.26" r=".59"/>
      <circle class="cls-1" cx="48.26" cy="91.78" r=".59"/>
      <circle class="cls-1" cx="48.26" cy="98.74" r=".59"/>
      <path class="cls-1" d="m47.66,105.69c0,.33.27.59.59.59s.59-.27.59-.59-.27-.59-.59-.59-.59.27-.59.59Z"/>
      <circle class="cls-1" cx="48.26" cy="112.64" r=".59"/>
      <circle class="cls-1" cx="48.26" cy="119.59" r=".59"/>
      <path class="cls-1" d="m47.66,126.54c0,.12.05.23.11.33.29-.25.57-.51.85-.78-.1-.08-.23-.14-.37-.14-.33,0-.59.27-.59.59Z"/>
      <path class="cls-1" d="m42.23,80.76c-.33,0-.59.27-.59.59s.27.59.59.59.59-.27.59-.59-.27-.59-.59-.59Z"/>
      <path class="cls-1" d="m42.23,87.72c-.33,0-.59.27-.59.59s.27.59.59.59.59-.27.59-.59-.27-.59-.59-.59Z"/>
      <path class="cls-1" d="m44.24,84.24c-.33,0-.59.27-.59.59s.27.59.59.59.59-.27.59-.59-.27-.59-.59-.59Z"/>
      <path class="cls-1" d="m42.23,94.67c-.33,0-.59.27-.59.59s.27.59.59.59.59-.27.59-.59-.27-.59-.59-.59Z"/>
      <path class="cls-1" d="m44.84,91.78c0-.33-.27-.59-.59-.59s-.59.27-.59.59.27.59.59.59.59-.27.59-.59Z"/>
      <path class="cls-1" d="m42.23,101.62c-.33,0-.59.27-.59.59s.27.59.59.59.59-.27.59-.59-.27-.59-.59-.59Z"/>
      <path class="cls-1" d="m44.84,98.74c0-.33-.27-.59-.59-.59s-.59.27-.59.59.27.59.59.59.59-.27.59-.59Z"/>
      <path class="cls-1" d="m42.23,108.57c-.33,0-.59.27-.59.59s.27.59.59.59.59-.27.59-.59-.27-.59-.59-.59Z"/>
      <path class="cls-1" d="m43.65,105.69c0,.33.27.59.59.59s.59-.27.59-.59-.27-.59-.59-.59-.59.27-.59.59Z"/>
      <path class="cls-1" d="m46.25,102.81c.33,0,.59-.27.59-.59s-.27-.59-.59-.59-.59.27-.59.59.27.59.59.59Z"/>
      <path class="cls-1" d="m42.23,115.52c-.33,0-.59.27-.59.59s.27.59.59.59.59-.27.59-.59-.27-.59-.59-.59Z"/>
      <path class="cls-1" d="m43.65,112.64c0,.33.27.59.59.59s.59-.27.59-.59-.27-.59-.59-.59-.59.27-.59.59Z"/>
      <circle class="cls-1" cx="46.25" cy="109.16" r=".59"/>
      <path class="cls-1" d="m42.23,122.47c-.33,0-.59.27-.59.59s.27.59.59.59.59-.27.59-.59-.27-.59-.59-.59Z"/>
      <path class="cls-1" d="m43.65,119.59c0,.33.27.59.59.59s.59-.27.59-.59-.27-.59-.59-.59-.59.27-.59.59Z"/>
      <circle class="cls-1" cx="46.25" cy="116.12" r=".59"/>
      <path class="cls-1" d="m42.23,129.43c-.33,0-.59.27-.59.59s.27.59.59.59.59-.27.59-.59-.27-.59-.59-.59Z"/>
      <path class="cls-1" d="m44.24,127.14c.33,0,.59-.27.59-.59s-.27-.59-.59-.59-.59.27-.59.59.27.59.59.59Z"/>
      <circle class="cls-1" cx="46.25" cy="123.07" r=".59"/>
      <path class="cls-1" d="m38.22,80.76c-.33,0-.59.27-.59.59s.27.59.59.59.59-.27.59-.59-.27-.59-.59-.59Z"/>
      <path class="cls-1" d="m38.22,87.72c-.33,0-.59.27-.59.59s.27.59.59.59.59-.27.59-.59-.27-.59-.59-.59Z"/>
      <circle class="cls-1" cx="40.23" cy="84.83" r=".59"/>
      <path class="cls-1" d="m38.22,94.67c-.33,0-.59.27-.59.59s.27.59.59.59.59-.27.59-.59-.27-.59-.59-.59Z"/>
      <circle class="cls-1" cx="40.23" cy="91.78" r=".59"/>
      <path class="cls-1" d="m38.22,101.62c-.33,0-.59.27-.59.59s.27.59.59.59.59-.27.59-.59-.27-.59-.59-.59Z"/>
      <circle class="cls-1" cx="40.23" cy="98.74" r=".59"/>
      <path class="cls-1" d="m38.22,108.57c-.33,0-.59.27-.59.59s.27.59.59.59.59-.27.59-.59-.27-.59-.59-.59Z"/>
      <path class="cls-1" d="m39.63,105.69c0,.33.27.59.59.59s.59-.27.59-.59-.27-.59-.59-.59-.59.27-.59.59Z"/>
      <path class="cls-1" d="m38.22,115.52c-.33,0-.59.27-.59.59s.27.59.59.59.59-.27.59-.59-.27-.59-.59-.59Z"/>
      <circle class="cls-1" cx="40.23" cy="112.64" r=".59"/>
      <path class="cls-1" d="m38.22,122.47c-.33,0-.59.27-.59.59s.27.59.59.59.59-.27.59-.59-.27-.59-.59-.59Z"/>
      <circle class="cls-1" cx="40.23" cy="119.59" r=".59"/>
      <path class="cls-1" d="m38.22,129.43c-.33,0-.59.27-.59.59s.27.59.59.59.59-.27.59-.59-.27-.59-.59-.59Z"/>
      <path class="cls-1" d="m39.63,126.54c0,.33.27.59.59.59s.59-.27.59-.59-.27-.59-.59-.59-.59.27-.59.59Z"/>
      <path class="cls-1" d="m34.21,80.76c-.33,0-.59.27-.59.59s.27.59.59.59.59-.27.59-.59-.27-.59-.59-.59Z"/>
      <path class="cls-1" d="m35.62,77.88c0,.33.27.59.59.59s.59-.27.59-.59c0-.11-.04-.21-.09-.3-.26-.07-.52-.15-.78-.22-.19.1-.32.29-.32.52Z"/>
      <circle class="cls-1" cx="34.21" cy="88.31" r=".59"/>
      <path class="cls-1" d="m36.81,84.83c0-.33-.27-.59-.59-.59s-.59.27-.59.59.27.59.59.59.59-.27.59-.59Z"/>
      <circle class="cls-1" cx="34.21" cy="95.26" r=".59"/>
      <path class="cls-1" d="m36.81,91.78c0-.33-.27-.59-.59-.59s-.59.27-.59.59.27.59.59.59.59-.27.59-.59Z"/>
      <path class="cls-1" d="m34.21,101.62c-.33,0-.59.27-.59.59s.27.59.59.59.59-.27.59-.59-.27-.59-.59-.59Z"/>
      <path class="cls-1" d="m36.81,98.74c0-.33-.27-.59-.59-.59s-.59.27-.59.59.27.59.59.59.59-.27.59-.59Z"/>
      <circle class="cls-1" cx="34.21" cy="109.16" r=".59"/>
      <path class="cls-1" d="m35.62,105.69c0,.33.27.59.59.59s.59-.27.59-.59-.27-.59-.59-.59-.59.27-.59.59Z"/>
      <circle class="cls-1" cx="34.21" cy="116.12" r=".59"/>
      <path class="cls-1" d="m35.62,112.64c0,.33.27.59.59.59s.59-.27.59-.59-.27-.59-.59-.59-.59.27-.59.59Z"/>
      <circle class="cls-1" cx="34.21" cy="123.07" r=".59"/>
      <path class="cls-1" d="m35.62,119.59c0,.33.27.59.59.59s.59-.27.59-.59-.27-.59-.59-.59-.59.27-.59.59Z"/>
      <path class="cls-1" d="m34.21,129.43c-.33,0-.59.27-.59.59s.27.59.59.59.59-.27.59-.59-.27-.59-.59-.59Z"/>
      <path class="cls-1" d="m35.62,126.54c0,.33.27.59.59.59s.59-.27.59-.59-.27-.59-.59-.59-.59.27-.59.59Z"/>
      <path class="cls-1" d="m35.72,133.19c.26-.06.52-.13.77-.21-.08-.05-.18-.08-.28-.08-.21,0-.39.12-.49.28Z"/>
      <path class="cls-1" d="m30.19,80.76c-.33,0-.59.27-.59.59s.27.59.59.59.59-.27.59-.59-.27-.59-.59-.59Z"/>
      <path class="cls-1" d="m32.79,77.88c0-.33-.27-.59-.59-.59s-.59.27-.59.59.27.59.59.59.59-.27.59-.59Z"/>
      <path class="cls-1" d="m30.19,87.72c-.33,0-.59.27-.59.59s.27.59.59.59.59-.27.59-.59-.27-.59-.59-.59Z"/>
      <circle class="cls-1" cx="32.2" cy="84.83" r=".59"/>
      <path class="cls-1" d="m30.19,94.67c-.33,0-.59.27-.59.59s.27.59.59.59.59-.27.59-.59-.27-.59-.59-.59Z"/>
      <circle class="cls-1" cx="32.2" cy="91.78" r=".59"/>
      <path class="cls-1" d="m30.19,101.62c-.33,0-.59.27-.59.59s.27.59.59.59.59-.27.59-.59-.27-.59-.59-.59Z"/>
      <circle class="cls-1" cx="32.2" cy="98.74" r=".59"/>
      <path class="cls-1" d="m30.19,108.57c-.33,0-.59.27-.59.59s.27.59.59.59.59-.27.59-.59-.27-.59-.59-.59Z"/>
      <path class="cls-1" d="m31.61,105.69c0,.33.27.59.59.59s.59-.27.59-.59-.27-.59-.59-.59-.59.27-.59.59Z"/>
      <path class="cls-1" d="m30.19,115.52c-.33,0-.59.27-.59.59s.27.59.59.59.59-.27.59-.59-.27-.59-.59-.59Z"/>
      <circle class="cls-1" cx="32.2" cy="112.64" r=".59"/>
      <path class="cls-1" d="m30.19,122.47c-.33,0-.59.27-.59.59s.27.59.59.59.59-.27.59-.59-.27-.59-.59-.59Z"/>
      <circle class="cls-1" cx="32.2" cy="119.59" r=".59"/>
      <path class="cls-1" d="m30.19,129.43c-.33,0-.59.27-.59.59s.27.59.59.59.59-.27.59-.59-.27-.59-.59-.59Z"/>
      <path class="cls-1" d="m31.61,126.54c0,.33.27.59.59.59s.59-.27.59-.59-.27-.59-.59-.59-.59.27-.59.59Z"/>
      <path class="cls-1" d="m32.2,132.9c-.33,0-.59.27-.59.59,0,.15.06.28.15.38.33-.03.65-.08.97-.12.04-.08.07-.17.07-.26,0-.33-.27-.59-.59-.59Z"/>
      <path class="cls-1" d="m26.18,80.76c-.33,0-.59.27-.59.59s.27.59.59.59.59-.27.59-.59-.27-.59-.59-.59Z"/>
      <path class="cls-1" d="m28.78,77.88c0-.33-.27-.59-.59-.59s-.59.27-.59.59.27.59.59.59.59-.27.59-.59Z"/>
      <circle class="cls-1" cx="26.18" cy="88.31" r=".59"/>
      <path class="cls-1" d="m28.78,84.83c0-.33-.27-.59-.59-.59s-.59.27-.59.59.27.59.59.59.59-.27.59-.59Z"/>
      <circle class="cls-1" cx="26.18" cy="95.26" r=".59"/>
      <path class="cls-1" d="m28.78,91.78c0-.33-.27-.59-.59-.59s-.59.27-.59.59.27.59.59.59.59-.27.59-.59Z"/>
      <path class="cls-1" d="m26.18,101.62c-.33,0-.59.27-.59.59s.27.59.59.59.59-.27.59-.59-.27-.59-.59-.59Z"/>
      <path class="cls-1" d="m28.78,98.74c0-.33-.27-.59-.59-.59s-.59.27-.59.59.27.59.59.59.59-.27.59-.59Z"/>
      <circle class="cls-1" cx="26.18" cy="109.16" r=".59"/>
      <path class="cls-1" d="m27.59,105.69c0,.33.27.59.59.59s.59-.27.59-.59-.27-.59-.59-.59-.59.27-.59.59Z"/>
      <circle class="cls-1" cx="26.18" cy="116.12" r=".59"/>
      <path class="cls-1" d="m27.59,112.64c0,.33.27.59.59.59s.59-.27.59-.59-.27-.59-.59-.59-.59.27-.59.59Z"/>
      <circle class="cls-1" cx="26.18" cy="123.07" r=".59"/>
      <path class="cls-1" d="m27.59,119.59c0,.33.27.59.59.59s.59-.27.59-.59-.27-.59-.59-.59-.59.27-.59.59Z"/>
      <path class="cls-1" d="m26.18,129.43c-.33,0-.59.27-.59.59s.27.59.59.59.59-.27.59-.59-.27-.59-.59-.59Z"/>
      <path class="cls-1" d="m27.59,126.54c0,.33.27.59.59.59s.59-.27.59-.59-.27-.59-.59-.59-.59.27-.59.59Z"/>
      <path class="cls-1" d="m28.78,133.5c0-.33-.27-.59-.59-.59s-.59.27-.59.59c0,.23.13.41.31.51.18,0,.36.01.54.01.2-.1.34-.29.34-.53Z"/>
      <path class="cls-1" d="m22.17,80.76c-.33,0-.59.27-.59.59s.27.59.59.59.59-.27.59-.59-.27-.59-.59-.59Z"/>
      <path class="cls-1" d="m24.77,77.88c0-.33-.27-.59-.59-.59s-.59.27-.59.59.27.59.59.59.59-.27.59-.59Z"/>
      <path class="cls-1" d="m22.17,87.72c-.33,0-.59.27-.59.59s.27.59.59.59.59-.27.59-.59-.27-.59-.59-.59Z"/>
      <path class="cls-1" d="m24.77,84.83c0-.33-.27-.59-.59-.59s-.59.27-.59.59.27.59.59.59.59-.27.59-.59Z"/>
      <path class="cls-1" d="m22.17,94.67c-.33,0-.59.27-.59.59s.27.59.59.59.59-.27.59-.59-.27-.59-.59-.59Z"/>
      <path class="cls-1" d="m24.77,91.78c0-.33-.27-.59-.59-.59s-.59.27-.59.59.27.59.59.59.59-.27.59-.59Z"/>
      <path class="cls-1" d="m24.77,98.74c0-.33-.27-.59-.59-.59s-.59.27-.59.59.27.59.59.59.59-.27.59-.59Z"/>
      <path class="cls-1" d="m22.17,108.57c-.33,0-.59.27-.59.59s.27.59.59.59.59-.27.59-.59-.27-.59-.59-.59Z"/>
      <path class="cls-1" d="m24.17,106.28c.33,0,.59-.27.59-.59s-.27-.59-.59-.59-.59.27-.59.59.27.59.59.59Z"/>
      <path class="cls-1" d="m22.17,115.52c-.33,0-.59.27-.59.59s.27.59.59.59.59-.27.59-.59-.27-.59-.59-.59Z"/>
      <path class="cls-1" d="m23.58,112.64c0,.33.27.59.59.59s.59-.27.59-.59-.27-.59-.59-.59-.59.27-.59.59Z"/>
      <path class="cls-1" d="m22.17,122.47c-.33,0-.59.27-.59.59s.27.59.59.59.59-.27.59-.59-.27-.59-.59-.59Z"/>
      <path class="cls-1" d="m23.58,119.59c0,.33.27.59.59.59s.59-.27.59-.59-.27-.59-.59-.59-.59.27-.59.59Z"/>
      <path class="cls-1" d="m22.17,129.43c-.33,0-.59.27-.59.59s.27.59.59.59.59-.27.59-.59-.27-.59-.59-.59Z"/>
      <path class="cls-1" d="m23.58,126.54c0,.33.27.59.59.59s.59-.27.59-.59-.27-.59-.59-.59-.59.27-.59.59Z"/>
      <path class="cls-1" d="m24.17,132.9c-.33,0-.59.27-.59.59,0,.02.01.04.01.06.37.07.74.13,1.12.18.03-.08.06-.16.06-.24,0-.33-.27-.59-.59-.59Z"/>
      <path class="cls-1" d="m18.15,80.76c-.33,0-.59.27-.59.59s.27.59.59.59.59-.27.59-.59-.27-.59-.59-.59Z"/>
      <path class="cls-1" d="m20.16,78.48c.33,0,.59-.27.59-.59,0-.09-.02-.18-.06-.25-.37.11-.74.23-1.11.35.05.28.28.5.57.5Z"/>
      <circle class="cls-1" cx="18.15" cy="88.31" r=".59"/>
      <circle class="cls-1" cx="20.16" cy="84.83" r=".59"/>
      <circle class="cls-1" cx="20.16" cy="91.78" r=".59"/>
      <path class="cls-1" d="m18.15,101.62c-.33,0-.59.27-.59.59s.27.59.59.59.59-.27.59-.59-.27-.59-.59-.59Z"/>
      <circle class="cls-1" cx="20.16" cy="98.74" r=".59"/>
      <circle class="cls-1" cx="18.15" cy="109.16" r=".59"/>
      <path class="cls-1" d="m20.75,105.69c0-.33-.27-.59-.59-.59s-.59.27-.59.59.27.59.59.59.59-.27.59-.59Z"/>
      <path class="cls-1" d="m22.17,102.81c.33,0,.59-.27.59-.59s-.27-.59-.59-.59-.59.27-.59.59.27.59.59.59Z"/>
      <circle class="cls-1" cx="18.15" cy="116.12" r=".59"/>
      <circle class="cls-1" cx="20.16" cy="112.64" r=".59"/>
      <circle class="cls-1" cx="18.15" cy="123.07" r=".59"/>
      <circle class="cls-1" cx="20.16" cy="119.59" r=".59"/>
      <path class="cls-1" d="m18.15,129.43c-.33,0-.59.27-.59.59s.27.59.59.59.59-.27.59-.59-.27-.59-.59-.59Z"/>
      <path class="cls-1" d="m19.57,126.54c0,.33.27.59.59.59s.59-.27.59-.59-.27-.59-.59-.59-.59.27-.59.59Z"/>
      <path class="cls-1" d="m16.74,84.83c0-.33-.27-.59-.59-.59s-.59.27-.59.59.27.59.59.59.59-.27.59-.59Z"/>
      <path class="cls-1" d="m14.14,94.67c-.33,0-.59.27-.59.59s.27.59.59.59.59-.27.59-.59-.27-.59-.59-.59Z"/>
      <path class="cls-1" d="m16.15,92.38c.33,0,.59-.27.59-.59s-.27-.59-.59-.59-.59.27-.59.59.27.59.59.59Z"/>
      <path class="cls-1" d="m14.14,101.62c-.33,0-.59.27-.59.59s.27.59.59.59.59-.27.59-.59-.27-.59-.59-.59Z"/>
      <path class="cls-1" d="m16.74,98.74c0-.33-.27-.59-.59-.59s-.59.27-.59.59.27.59.59.59.59-.27.59-.59Z"/>
      <circle class="cls-1" cx="18.15" cy="95.26" r=".59"/>
      <path class="cls-1" d="m16.74,105.69c0-.33-.27-.59-.59-.59s-.59.27-.59.59.27.59.59.59.59-.27.59-.59Z"/>
      <path class="cls-1" d="m15.55,112.64c0,.33.27.59.59.59s.59-.27.59-.59-.27-.59-.59-.59-.59.27-.59.59Z"/>
      <path class="cls-1" d="m15.55,119.59c0,.33.27.59.59.59s.59-.27.59-.59-.27-.59-.59-.59-.59.27-.59.59Z"/>
      <path class="cls-1" d="m15.55,126.54c0,.33.27.59.59.59s.59-.27.59-.59-.27-.59-.59-.59-.59.27-.59.59Z"/>
      <path class="cls-1" d="m14.14,129.43c-.22,0-.4.12-.5.3.33.2.67.4,1.01.59.05-.09.09-.19.09-.3,0-.33-.27-.59-.59-.59Z"/>
      <path class="cls-1" d="m10.13,87.72c-.33,0-.59.27-.59.59s.27.59.59.59.59-.27.59-.59-.27-.59-.59-.59Z"/>
      <circle class="cls-1" cx="12.13" cy="84.83" r=".59"/>
      <path class="cls-1" d="m14.14,81.95c.33,0,.59-.27.59-.59s-.27-.59-.59-.59-.59.27-.59.59.27.59.59.59Z"/>
      <path class="cls-1" d="m10.13,94.67c-.33,0-.59.27-.59.59s.27.59.59.59.59-.27.59-.59-.27-.59-.59-.59Z"/>
      <circle class="cls-1" cx="12.13" cy="91.78" r=".59"/>
      <path class="cls-1" d="m14.14,88.9c.33,0,.59-.27.59-.59s-.27-.59-.59-.59-.59.27-.59.59.27.59.59.59Z"/>
      <path class="cls-1" d="m10.13,101.62c-.33,0-.59.27-.59.59s.27.59.59.59.59-.27.59-.59-.27-.59-.59-.59Z"/>
      <circle class="cls-1" cx="12.13" cy="98.74" r=".59"/>
      <path class="cls-1" d="m10.13,108.57c-.33,0-.59.27-.59.59s.27.59.59.59.59-.27.59-.59-.27-.59-.59-.59Z"/>
      <path class="cls-1" d="m12.73,105.69c0-.33-.27-.59-.59-.59s-.59.27-.59.59.27.59.59.59.59-.27.59-.59Z"/>
      <path class="cls-1" d="m10.13,115.52c-.33,0-.59.27-.59.59s.27.59.59.59.59-.27.59-.59-.27-.59-.59-.59Z"/>
      <circle class="cls-1" cx="12.13" cy="112.64" r=".59"/>
      <path class="cls-1" d="m14.14,109.76c.33,0,.59-.27.59-.59s-.27-.59-.59-.59-.59.27-.59.59.27.59.59.59Z"/>
      <path class="cls-1" d="m10.13,122.47c-.33,0-.59.27-.59.59s.27.59.59.59.59-.27.59-.59-.27-.59-.59-.59Z"/>
      <circle class="cls-1" cx="12.13" cy="119.59" r=".59"/>
      <path class="cls-1" d="m14.14,116.71c.33,0,.59-.27.59-.59s-.27-.59-.59-.59-.59.27-.59.59.27.59.59.59Z"/>
      <path class="cls-1" d="m11.54,126.54c0,.33.27.59.59.59s.59-.27.59-.59-.27-.59-.59-.59-.59.27-.59.59Z"/>
      <path class="cls-1" d="m14.14,123.66c.33,0,.59-.27.59-.59s-.27-.59-.59-.59-.59.27-.59.59.27.59.59.59Z"/>
      <path class="cls-1" d="m8.71,84.83c0-.06-.02-.12-.03-.17-.25.24-.48.48-.72.73.05.02.1.03.16.03.33,0,.59-.27.59-.59Z"/>
      <circle class="cls-1" cx="6.11" cy="95.26" r=".59"/>
      <path class="cls-1" d="m8.12,91.19c-.33,0-.59.27-.59.59s.27.59.59.59.59-.27.59-.59-.27-.59-.59-.59Z"/>
      <path class="cls-1" d="m6.11,101.62c-.33,0-.59.27-.59.59s.27.59.59.59.59-.27.59-.59-.27-.59-.59-.59Z"/>
      <path class="cls-1" d="m8.71,98.74c0-.33-.27-.59-.59-.59s-.59.27-.59.59.27.59.59.59.59-.27.59-.59Z"/>
      <path class="cls-1" d="m8.71,105.69c0-.33-.27-.59-.59-.59s-.59.27-.59.59.27.59.59.59.59-.27.59-.59Z"/>
      <path class="cls-1" d="m7.53,112.64c0,.33.27.59.59.59s.59-.27.59-.59-.27-.59-.59-.59-.59.27-.59.59Z"/>
      <path class="cls-1" d="m7.53,119.59c0,.33.27.59.59.59s.59-.27.59-.59-.27-.59-.59-.59-.59.27-.59.59Z"/>
      <circle class="cls-1" cx="6.11" cy="116.12" r=".59"/>
      <path class="cls-1" d="m6.71,123.07c0-.33-.27-.59-.59-.59-.12,0-.22.04-.31.1.23.31.48.62.72.92.11-.11.18-.26.18-.43Z"/>
      <circle class="cls-1" cx="4.11" cy="91.78" r=".59"/>
      <path class="cls-1" d="m5.52,88.31c0,.33.27.59.59.59s.59-.27.59-.59-.27-.59-.59-.59c-.06,0-.12.02-.18.04-.14.18-.28.37-.42.56Z"/>
      <circle class="cls-1" cx="4.11" cy="98.74" r=".59"/>
      <path class="cls-1" d="m4.7,105.69c0-.33-.27-.59-.59-.59s-.59.27-.59.59.27.59.59.59.59-.27.59-.59Z"/>
      <circle class="cls-1" cx="4.11" cy="112.64" r=".59"/>
      <circle class="cls-1" cx="6.11" cy="109.16" r=".59"/>
      <path class="cls-1" d="m2.1,109.76c.33,0,.59-.27.59-.59s-.27-.59-.59-.59-.59.27-.59.59.27.59.59.59Z"/>
      <path class="cls-1" d="m4.7,119.59c0-.33-.27-.59-.59-.59-.2,0-.36.1-.47.25.17.31.35.62.53.93.3-.03.53-.28.53-.58Z"/>
      <path class="cls-1" d="m2.69,116.12c0-.33-.27-.59-.59-.59-.07,0-.13.02-.19.04.14.37.29.73.44,1.09.2-.1.34-.3.34-.53Z"/>
      <path class="cls-1" d="m2.1,95.85c.33,0,.59-.27.59-.59s-.27-.59-.59-.59c-.03,0-.06.01-.09.02-.12.32-.25.63-.36.95.11.13.27.22.45.22Z"/>
      <path class="cls-1" d="m.69,105.69c0-.33-.27-.59-.59-.59-.03,0-.06.01-.09.02,0,.05,0,.09,0,.14,0,.34.01.68.03,1.02.02,0,.04.01.07.01.33,0,.59-.27.59-.59Z"/>
      <path class="cls-1" d="m1.5,102.21c0,.33.27.59.59.59s.59-.27.59-.59-.27-.59-.59-.59-.59.27-.59.59Z"/>
    </g>
  </g>
  <g id="_人物" data-name="人物">
    <g>
      <path class="cls-2" d="m61.64,22.37c.43-1.12.21-2.4-.44-3.42-2.99-4.73-10.88-4.7-14.42.67-4.61,7-4.04,18.86,4.59,19.93,5.54.68,8.82-1.6,10.57-4.16,1.23-1.8.4-4.6-2.13-5.1l-.22-.03c-.81-.12-1.61.15-2.24.67-2.22,1.82-4.14,1.24-5.11.47-.98-.77-1.54-2.2-.45-5.42,1.09-3.22,3.36-3.26,4.44-2.33,1.47,1.28,2.77,1.26,4.03.43.57-.38,1.08-.92,1.38-1.71Z"/>
      <path class="cls-3" d="m53.29,40.31c-.63,0-1.29-.04-1.99-.13-3.14-.39-5.5-2.13-6.85-5.04-2.07-4.47-1.31-11.15,1.8-15.87,1.82-2.77,4.9-4.42,8.24-4.42.03,0,.06,0,.09,0,3.02.03,5.7,1.43,7.17,3.75.79,1.24.97,2.73.49,3.98h0c-.32.83-.87,1.51-1.62,2.02-1.59,1.06-3.21.9-4.8-.48-.3-.26-.85-.48-1.47-.31-.82.22-1.51,1.06-1.95,2.36-1.08,3.2-.38,4.22.24,4.71.45.35,2.08,1.36,4.31-.46.8-.66,1.77-.94,2.73-.8l.23.03c1.38.27,2.43,1.12,2.94,2.35.5,1.23.36,2.66-.37,3.73-1.22,1.79-3.95,4.56-9.18,4.56Zm1.2-24.17c-2.91,0-5.58,1.43-7.17,3.84-2.89,4.38-3.61,10.54-1.71,14.64,1.15,2.49,3.17,3.98,5.85,4.31,5.57.68,8.5-1.73,9.97-3.88.49-.72.59-1.69.25-2.53-.34-.84-1.04-1.4-1.97-1.58l-.19-.03c-.6-.09-1.22.1-1.74.53-2.36,1.93-4.6,1.51-5.91.47-1.47-1.16-1.68-3.1-.66-6.12.78-2.31,2.11-2.99,2.83-3.19.94-.26,1.92-.04,2.64.58,1.17,1.01,2.14,1.12,3.26.38.53-.35.92-.83,1.14-1.41h0c.34-.88.19-1.94-.38-2.85-1.24-1.95-3.52-3.14-6.1-3.16h-.08Z"/>
    </g>
    <g>
      <g>
        <path class="cls-4" d="m37.01,51.1c-3.36-4.5-7.06-7.54-8.29-6.91-1.13.57-.58,1.64.78,3.79.53-2.09,3.6-1.25,7.51,3.12Z"/>
        <path class="cls-6" d="m21.56,47.52c-.8-.39-1.36-1.15-1.5-2.03-.24-1.51-.42-3.69-.84-5.8-.22-1.11-.44-2-.74-2.65-.6-1.31-2.59-.76-2.49.68.17,2.33.17,2.37.17,2.37-.51-2.64-1.11-4.89-1.77-6.19-.66-1.3-1.38-1.65-2.03-1.5-.57.14-.84.39-.94.83l-.08-.2c-.3-.47-.64-.78-1-.99-1.03-.58-2.25.43-1.9,1.56.42,1.41.93,3.03,1.47,4.73l-.09-.28c-.42-.37-.84-.53-1.25-.55-.82-.03-1.33.91-.89,1.6,1.59,2.46,3.78,6.6,5.32,8.97.08.24.16.49.23.73.36,1.15,1.02,2.18,1.94,2.96,2.98,2.58,6.6,5.28,7.72,9.14,0,0,3.86-.23,7.03-2.35-1.7-6.66-4.82-9.32-8.37-11.06Z"/>
        <path class="cls-4" d="m29.37,57.27c-.4-3.06-.95-4.69-2.4-6.87s-1.85-3.36-2.5-5.76-1.32-4.26-2.64-3.33c-.92.65.59,6.67.59,6.67,2.22,1.16,4.85,4.33,6.95,9.3Z"/>
        <path class="cls-6" d="m96.69,31.57l-.07-.05c.14-2.36.17-5.05.07-8.24,0,0-1.5-.83-3.25-2.13-2.21-1.64-4.48-3.25-5.15-2.97-.67.28-.11,1.34-.11,1.34-1.27-1.17-2.91-2.63-4.26-2.74-1.34-.11-2.58.84-2.58.84h0c-.96-.45-2.11-.3-2.93.37-3.52,2.85-5.34,6.31-5.76,11.03-.04.5-.08,1.03-.11,1.58v-.04c-2.82,0-4.84,1.76-5.1,4.5-.26,2.74,1.82,5.94,5.25,6.03v-.08c.52,2.74,2.06,5.1,4.2,6.68h0c.24,1.62.65,3.57.97,4.95.23,1.02,1.21,1.7,2.24,1.53,4.55-.76,9.76-3.04,11.96-4.78,0,0-.35-.7-.62-2.77h0c1.48-1.31,2.62-2.93,3.32-4.64h0c4.45.19,7.37-2.13,7.48-5.66.11-3.53-2.3-5.1-5.54-4.76Z"/>
        <path class="cls-1" d="m60.04,69.91l-2.25-3.35c-.5-.75-1.46-1.03-2.29-.67-.12.05-.24.11-.36.16,0,0,.49,1.42-1.99,3.5-2.48,2.08-3.34.44-3.34.44-.48.54-.89,1.09-1.21,1.64s-.27,1.29.08,1.85l3.14,4.98s4.83-3.41,8.21-8.55Z"/>
        <path class="cls-1" d="m32.56,63.78l-1.14-4.55c-.17-.68-.95-.98-1.55-.61-1.8,1.13-4.66,2.24-7.15,2.32-.67.02-1.11.69-.91,1.33.76,2.45,1.51,5.26,1.51,5.26,0,0,5.75-1.13,9.25-3.75Z"/>
        <path class="cls-1" d="m78.19,28.01c-2.32,0-3.73.64-3.92,2.55s.9,4.46,3.41,4.52,3.92-1.82,4.12-3.99c.16-1.76-1.09-3.09-3.6-3.09Z"/>
        <path class="cls-1" d="m88.81,28.01c-2.38,0-3.7.93-3.7,3.09s.97,3.99,3.47,4.15c2.76.18,4.06-2.25,4.28-4.28.22-2.03-2.02-2.96-4.05-2.96Z"/>
        <path class="cls-1" d="m78.87,39.27c2.16-.29,7.46-.39,8.91-.26,0,0-.82,1.89-2.73,3.71-1.23,1.18-3.23,1.14-4.33-.16-.91-1.07-1.56-2.3-1.85-3.3Z"/>
        <path class="cls-1" d="m77.57,51.37s-2.91,5.49-4.22,9.21c1.18-.99,3.04-2.37,4.26-3.26.67-.49,1.62-.32,2.07.38.77,1.19,2,3.14,3.33,5.44l11.32-10.28-1.74-4.32s-3.01,3.4-12.54,5.66c-1.01.24-2.02-.42-2.21-1.44l-.26-1.4Z"/>
        <path class="cls-9" d="m87.94,77.89s2.59-7.54,8.04-10.78c5.45-3.24,11.88-1.74,15.37,4.34,1.66,2.87,1.94,7.21,1.63,9.08"/>
        <path class="cls-8" d="m106.32,122.07c-.72-7.12.21-20.25,1.11-32.23l1.44-1.24c3.8-3.57,4.84-7.44,3.85-14.16-1.1-7.5-6.18-10.18-8.6-11.61-2.42-1.43-3.41-2.2-3.74-3.52-.33-1.32-1.32-1.54-3.02-2.12l-2.85-4.48c-2.57,2.21-19.55,16.52-25.83,27.46,1.92-16.59,7.53-25.87,8.9-28.81,0,0-4.82,3.72-8.9,5.06-2.49.82-6.23-.2-9.36,1.31-1.97.95-3.74,3.53-4.69,6.19l-4.98,11.15c-2.04,1.44-5.54,4-5.54,4-1.09-1.52-2.26-1.81-4.52,0-2.57-3.93-4.26-12.3-4.82-15.44-.14-.79-.73-1.43-1.51-1.62-.36-.09-.77-.18-1.2-.25l.51,2.02c-4.75,3.6-9.22,3.87-9.22,3.87l-1.69-3.37c-1.61.89-2.75,1.79-3.48,2.46-.65.59-.83,1.54-.47,2.34,1.37,3.05,4.92,11.25,7.36,19.53,3.08,10.46,6.06,11.3,13.54,9.56,7.49-1.74,15.15-5.23,15.15-5.23l3.72,4.4c-3.6,16.7-10.53,44.34-12.54,56.89-.17,1.04.52,2.03,1.56,2.22.38.07.83.15,1.3.23h0c-.96,11.13-.75,43.22,0,47.75,5.89,2.43,13.15-.6,17.36-.98,4.22-.39,7.98-.4,15.68,1.92,7.7,2.32,19.27,3.63,25.54-2.97-2.5-7.49-6.77-30.48-7.69-44.16,4.1-.83,8.1-1.82,11.61-2.98,1.08-.36,1.68-1.48,1.4-2.58-2.27-8.85-4.71-23.96-5.38-30.58Z"/>
        <path class="cls-8" d="m73.35,60.1l4.06-2.78c.92-.63,2.19-.33,2.73.65l2.86,5.18s-10.53,11.26-14.34,17.03c0,0,1.5-12.76,4.68-20.08Z"/>
        <path class="cls-8" d="m96.69,23.29c2.29.78,3.41.58,4.59,1.57,0,0,.19,2.7-1.53,7.04,0,0-1.11-.9-3.05,0v-8.6Z"/>
        <path class="cls-4" d="m101.28,24.86c-.13-3.09-1.06-4.76-1.73-5.66s0-2.42,0-2.42c-.56,0-1.74.35-2.79-.44s-1.69-.9-2.81-1.4-.62-1.92-.62-1.92c-1.79.71-3.02,0-3.02,0l.34-1.27c-1.68.67-2.18-.11-4.65-.34-2.3-.21-4.25.75-5.37,2.78-2.47-.18-4.31.95-4.85,3.17-1.57,1.89-2.66,2.67-3.36,6.22-.7,3.55-.37,7.14-.37,7.14l.61-1.7c.42-4.72,2.24-8.17,5.76-11.03.83-.67,1.97-.82,2.93-.37h0s1.23-.95,2.58-.84,2.98,1.58,4.26,2.74c0,0-.56-1.06.11-1.34s2.95,1.33,5.15,2.97c1.75,1.3,3.25,2.13,3.25,2.13,0,0,2.4.16,4.59,1.57Z"/>
        <path class="cls-4" d="m84.19,49.71c1.59,2.91,4.66,1.66,4.66,1.66l3.21-1.97-.62-2.77s-3.12,3.49-7.25,3.08Z"/>
        <path class="cls-4" d="m22.29,63.88l1.06,3.76s-6.42,1.52-5.7-.11c.72-1.63,4.65-3.65,4.65-3.65Z"/>
        <path class="cls-4" d="m49.64,75.5l2.19,2.96s-6.43,6-5.54,3.96,3.35-6.92,3.35-6.92Z"/>
        <path class="cls-6" d="m55.01,67.15c.13-.28.15-.61.1-.92-1-6.14-3.26-6.64-4.09-9.03-.47-1.37-.42-3.41-.28-4.95.25-2.83-2.42-2.69-3.23-1.36-.81,1.32-.62,3.26-.67,4.51-.08,2.01-1.28,2.64-3.34,1.8-2.55-1.04-10.46-12.12-13.52-9.92-1.05.76-.23,1.63.89,2.9,1.36,1.54,3.3,3.58,4.5,5.58,2.19,3.65,1.83,6.76,5.17,8.52,3,1.58,6.94,3.51,9.39,5.83.52.49,1.29.62,1.92.29,1.63-.87,2.6-1.99,3.15-3.24Z"/>
        <path class="cls-1" d="m49.94,69.91c.56.79,3.88,1.44,5.35-3.94,1.35-.53,2.52-.14,4.75,3.94,0,0-3.6,5.2-8.21,8.55,0,0-2.96-4.88-3.44-5.54s-.04-1.52,1.55-3.01Z"/>
        <path class="cls-4" d="m79.98,41.58l6.39-.31s-1.49,2.42-3.27,2.31-2.44-.8-3.12-2Z"/>
      </g>
      <g>
        <ellipse class="cls-4" cx="88.84" cy="31.25" rx="1.01" ry=".94" transform="translate(47.12 115.69) rotate(-83.08)"/>
        <ellipse class="cls-4" cx="78.63" cy="31.3" rx="1.01" ry=".94" transform="translate(38.09 105.6) rotate(-83.08)"/>
        <path class="cls-4" d="m83.1,50.62c-2.73,0-5.35-.98-7.46-2.83-2.42-2.11-3.88-5.17-4-8.38-.15-3.89-.09-7.7.16-10.46.44-4.92,2.37-8.61,6.07-11.61.95-.77,2.22-1.01,3.36-.66.56-.34,1.6-.83,2.75-.74,1.14.09,2.29.84,3.46,1.82.14-.15.31-.28.51-.36.93-.39,2.21.27,5.99,3.07,1.68,1.24,3.14,2.06,3.16,2.07.26.15.43.42.44.72.24,7.63-.22,12.94-1.55,17.73-1.19,4.3-5.37,9.13-11.75,9.57-.38.04-.76.06-1.14.06Zm-2.92-32.4c-.44,0-.88.15-1.24.44-3.37,2.73-5.05,5.95-5.45,10.44-.24,2.68-.3,6.42-.15,10.24.1,2.75,1.35,5.36,3.42,7.16,2.05,1.79,4.66,2.63,7.34,2.36,5.58-.38,9.22-4.58,10.26-8.32,1.25-4.52,1.7-9.55,1.5-16.75-.58-.34-1.69-1.03-2.92-1.95-.78-.58-2.91-2.16-3.99-2.67.17.36.07.8-.25,1.04-.33.25-.79.23-1.09-.05-.99-.91-2.65-2.43-3.75-2.52-.98-.08-1.98.66-1.99.67-.25.19-.59.23-.88.1-.25-.12-.53-.18-.8-.18Z"/>
        <path class="cls-4" d="m99.74,32.75c-.1,0-.21-.02-.3-.06-.44-.17-.66-.66-.49-1.1.75-1.95,1.59-5.12,1.48-7.65-.1-2.41-.7-3.15-1.28-3.86-.1-.12-.2-.24-.29-.37-.47-.62-.52-1.37-.44-2-.65.05-1.43-.12-2.18-.68-.67-.5-1.13-.68-1.77-.94-.27-.11-.56-.22-.88-.37-.78-.35-1.1-.96-1.2-1.57-1.48.2-2.47-.36-2.52-.39-.31-.18-.48-.54-.41-.89-.55,0-1.04-.11-1.57-.24-.53-.13-1.12-.28-1.98-.36-2.01-.18-3.62.65-4.55,2.35-.16.29-.48.46-.81.44-2.09-.16-3.53.77-3.96,2.53-.03.12-.09.24-.17.34-.24.29-.46.55-.68.8-1.17,1.35-1.95,2.25-2.5,5.05-.67,3.38-.36,6.86-.36,6.9.04.47-.3.88-.77.92-.47.05-.88-.3-.92-.77-.01-.15-.33-3.76.38-7.38.64-3.24,1.63-4.39,2.89-5.83.17-.2.35-.4.53-.62.65-2.29,2.62-3.68,5.15-3.64,1.3-1.99,3.42-2.99,5.92-2.76.99.09,1.68.26,2.24.4.84.21,1.22.31,2.01-.01.3-.12.64-.06.88.15.24.21.34.54.26.85l-.13.5c.4.06.98.05,1.68-.23.31-.12.66-.06.9.18.24.23.32.58.21.9-.02.06-.22.69.16.86.3.14.57.24.82.34.67.27,1.3.52,2.15,1.15.57.42,1.21.36,1.77.3.21-.02.4-.04.53-.03.29,0,.55.15.7.39.15.24.18.54.06.8-.14.33-.37,1.2-.1,1.56.08.11.17.21.25.32.68.84,1.53,1.89,1.65,4.86.12,2.79-.79,6.23-1.59,8.33-.13.34-.45.55-.79.55Z"/>
        <path class="cls-4" d="m101.28,25.71c-.22,0-.45-.09-.61-.26-.73-.76-1.62-.86-2.56-.96-.66-.07-1.29-.14-1.84-.46-.41-.24-.55-.76-.31-1.16.24-.41.76-.55,1.16-.31.24.14.69.19,1.18.24,1.03.11,2.44.27,3.6,1.47.33.34.31.88-.02,1.2-.17.16-.38.24-.59.24Z"/>
        <path class="cls-4" d="m72.69,41.95s-.02,0-.02,0c-1.71-.05-3.28-.78-4.43-2.08-1.19-1.35-1.81-3.18-1.65-4.89.3-3.15,2.69-5.27,5.94-5.27.47,0,.85.38.85.85s-.38.85-.85.85c-2.4,0-4.03,1.43-4.25,3.73-.12,1.25.34,2.6,1.23,3.6.59.66,1.62,1.46,3.2,1.5.47.01.84.4.83.87-.01.46-.39.83-.85.83Z"/>
        <path class="cls-4" d="m79.78,55.06c-1.29,0-2.45-.91-2.75-2.22-.31-1.37-.74-3.35-.98-5.02-.07-.46.25-.9.72-.97.47-.07.9.25.97.72.24,1.61.65,3.55.96,4.89.14.59.7.98,1.27.88,4.18-.7,8.81-2.67,11.09-4.25-.14-.48-.31-1.23-.45-2.35-.06-.47.27-.89.73-.95.47-.06.89.27.95.73.24,1.84.54,2.5.54,2.51.16.36.07.79-.24,1.04-2.23,1.76-7.58,4.15-12.35,4.95-.15.03-.31.04-.46.04Z"/>
        <path class="cls-4" d="m94.33,53.72c-.32,0-.63-.18-.77-.49-.3-.66-.61-1.48-.91-2.45-.24-.79-.39-1.17-.48-1.35-.11.01-.22.02-.35.02h0c-.47,0-.85-.38-.85-.84,0-.47.37-.85.84-.86.09,0,.16-.01.23-.02,1.34-.17,1.69.76,2.24,2.54.28.9.56,1.66.83,2.25.2.43.01.93-.42,1.13-.12.05-.24.08-.36.08Z"/>
        <path class="cls-4" d="m77.57,79.93c-.23,0-.46-.09-.63-.28-.32-.35-.29-.88.05-1.2,5.53-5.05,11.33-9.97,13.66-11.93l-1.7-1.17c-.65-.45-1.03-1.19-1.03-1.97.01-2.23,0-5.62,0-5.62h1.7s.02,3.39,0,5.63c0,.22.11.43.29.56l1.8,1.24c.42.29.67.75.7,1.25.02.5-.18.98-.57,1.3-2.26,1.9-8.12,6.87-13.7,11.97-.16.15-.37.22-.57.22Z"/>
        <path class="cls-4" d="m74.69,109.12c-.97,0-2-.09-3.1-.29-7.47-1.33-15.84-11.96-21.96-19.72-1.25-1.58-2.42-3.07-3.41-4.25-.89-1.06-1.05-2.54-.39-3.77.72-1.35,1.86-3.45,3.24-5.74.24-.4.76-.53,1.17-.29.4.24.53.76.29,1.17-1.36,2.26-2.49,4.33-3.19,5.66-.33.61-.25,1.35.19,1.88,1.01,1.2,2.19,2.7,3.45,4.29,5.61,7.12,14.08,17.88,20.92,19.1,5.91,1.05,9.35-1.2,15.06-4.92.92-.6,1.91-1.24,2.96-1.91,2.05-1.3,3.86-2.42,5.51-3.44,4.56-2.82,7.85-4.85,11.46-7.72,4.77-3.79,6.03-7.47,4.98-14.6-1-6.79-5.47-9.41-7.88-10.82l-.31-.18c-2.58-1.53-3.73-2.43-4.14-4.05-.17-.69-.52-.87-2.05-1.38l-.42-.14c-.44-.15-.68-.63-.53-1.08.15-.44.63-.68,1.08-.53l.41.14c1.53.51,2.74.92,3.16,2.58.24.95.93,1.56,3.35,3l.31.18c2.65,1.55,7.58,4.44,8.7,12.04,1.14,7.76-.32,11.99-5.6,16.18-3.7,2.93-7.02,4.99-11.63,7.84-1.64,1.02-3.45,2.13-5.5,3.43-1.05.66-2.02,1.3-2.94,1.9-4.87,3.18-8.37,5.46-13.19,5.46Z"/>
        <path class="cls-4" d="m78.86,85.04c-.16,0-.32-.01-.48-.04-1.36-.25-1.74-1.08-1.99-1.63-.18-.4-.3-.66-.77-.9-.71-.35-2.68.72-3.83,1.64-.34.27-.82.24-1.13-.06-3.03-2.97-8.09-10.84-9.89-13.71-3.45,4.47-9.52,11.01-14.14,13.16-.43.2-.93.01-1.13-.41-.2-.43-.01-.93.41-1.13,4.69-2.18,11.08-9.34,14.24-13.62.17-.23.42-.35.72-.35.28.01.54.16.69.4.06.1,6.17,10.02,9.78,13.92,1.16-.81,3.45-2.16,5.03-1.37,1.01.5,1.34,1.23,1.56,1.72.21.46.26.57.74.65,1.28.23,3.19-2.66,4.11-4.05,1.36-2.06,4.22-2.65,9.88-2.03.47.05.8.47.75.94-.05.47-.47.81-.94.75-6.14-.67-7.65.33-8.27,1.28-1.68,2.55-3.36,4.83-5.36,4.83Z"/>
        <path class="cls-4" d="m60.04,70.76c-.27,0-.54-.13-.71-.38l-2.25-3.35c-.27-.41-.79-.56-1.24-.37-.11.05-.22.1-.34.15-.43.2-.93.01-1.13-.41-.2-.43-.02-.93.41-1.13.13-.06.26-.12.38-.17,1.2-.52,2.6-.11,3.33.98l2.25,3.35c.26.39.16.92-.23,1.18-.15.1-.31.15-.47.15Z"/>
        <path class="cls-4" d="m51.82,79.31c-.28,0-.56-.14-.72-.4l-3.14-4.98c-.54-.85-.57-1.89-.1-2.73.33-.58.77-1.19,1.31-1.79.31-.35.85-.38,1.2-.07.35.31.38.85.07,1.2-.46.51-.83,1.02-1.1,1.5-.16.28-.14.67.06.98l3.14,4.98c.25.4.13.92-.26,1.17-.14.09-.3.13-.45.13Z"/>
        <path class="cls-4" d="m112.98,81.38s-.09,0-.14-.01c-.46-.08-.78-.52-.7-.98.31-1.85-.05-5.95-1.52-8.51-1.59-2.76-3.83-4.58-6.49-5.28-2.51-.66-5.25-.22-7.71,1.25-5.11,3.03-7.64,10.25-7.67,10.32-.15.44-.64.68-1.08.53-.44-.15-.68-.64-.53-1.08.11-.32,2.76-7.87,8.41-11.23,2.85-1.7,6.05-2.2,9.01-1.43,3.11.81,5.71,2.91,7.53,6.07,1.77,3.07,2.08,7.57,1.73,9.65-.07.42-.43.71-.84.71Z"/>
        <path class="cls-4" d="m68.67,81.03c-.09,0-.18-.01-.27-.04-.38-.13-.62-.5-.58-.91,1.49-12.94,5.25-21.55,7.49-26.09-1.78,1.15-4.17,2.53-6.38,3.25-1.18.39-2.52.4-3.93.42-1.81.02-3.68.05-5.32.84-1.63.79-3.3,3.03-4.26,5.71-.16.44-.65.67-1.09.51-.44-.16-.67-.65-.51-1.09.88-2.45,2.69-5.49,5.12-6.67,1.98-.96,4.14-.99,6.04-1.01,1.29-.02,2.5-.03,3.43-.34,3.89-1.28,8.6-4.89,8.65-4.93.31-.24.74-.24,1.05,0,.31.25.4.67.24,1.02-.17.36-.4.81-.68,1.36-1.76,3.47-5.68,11.17-7.63,23.41,3.63-5.12,10.49-12.9,23.48-24.05l.44-.38c.19-.16.43-.24.68-.2.24.04.46.18.59.38l2.85,4.48c.17.26.18.59.03.87l-3.61,6.57c-.19.35-.59.52-.98.41l-4.96-1.4c-.45-.13-.72-.6-.59-1.05.13-.45.59-.71,1.05-.59l4.31,1.21,3.04-5.54-2.05-3.23c-15.72,13.53-22.22,21.93-24.91,26.6-.16.27-.44.43-.74.43Z"/>
        <path class="cls-4" d="m83.01,64c-.29,0-.58-.15-.74-.42-1.31-2.27-2.52-4.19-3.31-5.4-.09-.14-.23-.24-.4-.27-.16-.03-.33,0-.46.11-1.05.77-3,2.21-4.21,3.22-.36.3-.9.26-1.2-.1s-.25-.9.1-1.2c1.18-.99,2.99-2.34,4.3-3.29.51-.37,1.16-.52,1.77-.4.62.11,1.17.48,1.51,1.01.79,1.23,2.02,3.17,3.35,5.47.24.41.1.93-.31,1.16-.13.08-.28.11-.42.11Z"/>
        <path class="cls-4" d="m71.38,162.79c-1.86,0-3.49-1.37-3.8-3.23-2.71-16.45-3.77-36.36-2.91-54.61.02-.47.44-.82.89-.81.47.02.83.42.81.89-.85,18.14.2,37.92,2.89,54.26.18,1.12,1.17,1.89,2.3,1.8,7.43-.63,26.05-2.54,38.48-6.66.65-.22,1.02-.89.84-1.56-2.32-9.04-4.75-24.23-5.4-30.71-.7-6.88.09-18.73,1.1-32.38.04-.47.46-.82.91-.79.47.04.82.44.78.91-.82,11.04-1.85,24.79-1.11,32.08.65,6.43,3.06,21.49,5.36,30.46.39,1.52-.47,3.1-1.96,3.6-12.6,4.17-31.38,6.1-38.87,6.74-.11,0-.21.01-.32.01Z"/>
        <path class="cls-4" d="m55.12,158.53c-.1,0-.21,0-.31-.02-3.2-.34-6.37-.86-8.46-1.24-1.5-.27-2.49-1.67-2.25-3.19,1.29-8.08,4.59-22.27,7.78-35.98,1.79-7.7,3.48-14.98,4.77-20.95.1-.46.56-.75,1.01-.65.46.1.75.55.65,1.01-1.29,5.99-2.98,13.27-4.77,20.98-3.18,13.69-6.47,27.84-7.76,35.87-.09.59.29,1.14.87,1.25,2.07.37,5.19.89,8.34,1.22.68.07,1.3-.4,1.42-1.07,1.35-7.27,5.93-31.69,7.95-40.59.1-.46.56-.75,1.02-.64.46.1.75.56.64,1.02-2.01,8.87-6.58,33.26-7.94,40.52-.27,1.43-1.53,2.46-2.96,2.46Z"/>
        <path class="cls-4" d="m86.88,131.94c-.79,0-1.55-.24-2.21-.71-.83-.59-1.38-1.47-1.53-2.48-.18-1.19-.19-2.31-.16-3.03.03-.87.65-1.59,1.5-1.76,5.93-1.18,15.84-2.68,15.94-2.69.38-.06.75.21.81.59.06.39-.21.75-.6.81-.1.02-9.97,1.51-15.87,2.68-.2.04-.35.22-.36.43-.03.67-.02,1.69.15,2.76.1.62.44,1.17.96,1.54.53.38,1.18.53,1.82.41l14.59-2.61c.38-.07.75.19.82.57.07.39-.19.75-.57.82l-14.59,2.61c-.23.04-.46.06-.68.06Z"/>
        <path class="cls-4" d="m51.11,71.43c-.63,0-1.26-.24-1.75-.7-2.09-1.98-5.33-3.67-8.18-5.16l-1.02-.53c-2.43-1.28-3.15-3.23-3.91-5.3-.42-1.13-.85-2.3-1.59-3.54-.98-1.63-2.51-3.33-3.74-4.71l-.76-.85c-.89-1.01-1.59-1.8-1.49-2.75.06-.5.34-.94.83-1.3,2.58-1.86,6.53,2.23,10.36,6.19,1.59,1.64,3.24,3.34,3.97,3.64.78.32,1.41.38,1.73.18.35-.22.42-.87.44-1.23,0-.23,0-.48.01-.75,0-1.29,0-2.89.78-4.17.64-1.05,2.03-1.57,3.18-1.2.43.14,1.83.79,1.63,3.08-.18,2.04-.1,3.63.24,4.6.24.69.63,1.21,1.12,1.86,1.03,1.37,2.31,3.07,3.01,7.32.08.49.02.98-.16,1.4-.69,1.56-1.84,2.75-3.53,3.65-.36.19-.75.29-1.15.29Zm-20.15-23.6c-.18,0-.34.04-.48.14-.12.08-.14.13-.14.13.02.21.66.93,1.08,1.41l.75.85c1.28,1.43,2.87,3.2,3.93,4.97.83,1.38,1.31,2.68,1.73,3.83.73,1.97,1.25,3.4,3.11,4.38l1.01.53c2.81,1.46,6.3,3.29,8.56,5.43.26.25.64.31.94.15,1.34-.71,2.24-1.64,2.77-2.83t0,0c.05-.12.07-.28.04-.44-.63-3.83-1.72-5.29-2.69-6.57-.54-.71-1.04-1.38-1.37-2.32-.42-1.22-.53-3-.32-5.31.04-.42.03-1.15-.46-1.31-.39-.13-.96.09-1.19.47-.53.87-.53,2.21-.54,3.29,0,.29,0,.57-.01.81-.06,1.53-.7,2.26-1.22,2.59-.83.53-1.93.52-3.29-.03-1.02-.41-2.39-1.8-4.55-4.03-2.14-2.21-5.94-6.13-7.67-6.13Z"/>
        <path class="cls-4" d="m37.01,51.95c-.26,0-.52-.12-.68-.34-3.44-4.61-6.57-6.8-7.25-6.65-.09.05-.12.09-.12.09-.09.35.89,1.9,1.25,2.48.25.4.13.92-.26,1.17-.4.25-.92.13-1.17-.26-1.09-1.72-1.73-2.83-1.45-3.85.14-.49.47-.88,1.01-1.15,2.29-1.16,6.96,3.95,9.35,7.16.28.38.2.91-.17,1.19-.15.11-.33.17-.51.17Z"/>
        <path class="cls-4" d="m33.8,99.7c-4.59,0-7.13-2.68-9.54-10.85-2.42-8.21-5.92-16.32-7.32-19.43-.51-1.14-.25-2.47.67-3.31.7-.65,1.9-1.62,3.64-2.58.41-.23.93-.08,1.16.33.23.41.08.93-.33,1.16-1.59.88-2.68,1.76-3.31,2.34-.37.34-.48.89-.27,1.36,1.41,3.14,4.95,11.33,7.4,19.64,3.01,10.21,5.68,10.56,12.53,8.97,7.31-1.7,14.92-5.14,14.99-5.18.43-.2.93,0,1.13.42.19.43,0,.93-.42,1.13-.08.04-7.83,3.55-15.31,5.29-1.91.44-3.56.71-5.01.71Z"/>
        <path class="cls-4" d="m19.18,69c-.68,0-1.28-.06-1.74-.17-.46-.11-.73-.57-.62-1.03.11-.46.57-.73,1.03-.62,2.5.62,11-1.09,16.01-5.07.37-.29.9-.23,1.19.14.29.37.23.9-.14,1.19-4.55,3.61-11.74,5.56-15.74,5.56Z"/>
        <path class="cls-4" d="m23.31,68.38c-.38,0-.72-.25-.82-.63,0-.03-.76-2.82-1.5-5.23-.17-.56-.07-1.18.27-1.66.34-.47.86-.75,1.43-.77,2.34-.07,5.07-1.15,6.73-2.19.52-.32,1.16-.38,1.72-.16.56.23.96.69,1.11,1.28l1.14,4.55c.11.46-.16.92-.62,1.03-.46.12-.92-.16-1.03-.62l-1.14-4.55s-.02-.08-.1-.11c-.03-.01-.1-.03-.18.02-1.72,1.08-4.74,2.36-7.58,2.45-.02,0-.06,0-.1.06-.02.02-.05.09-.03.17.75,2.44,1.51,5.27,1.52,5.29.12.45-.15.92-.6,1.04-.07.02-.15.03-.22.03Z"/>
        <path class="cls-4" d="m22.9,61.78c-.37,0-.71-.24-.82-.61-.92-3.19-3.73-5.57-6.44-7.87-.34-.29-.68-.58-1.02-.87-1.02-.88-1.78-2.04-2.19-3.35-.6-1.9-1.24-3.93-1.88-5.93-1.09-3.43-2.13-6.67-2.92-9.29-.26-.86.03-1.79.74-2.35.7-.56,1.62-.64,2.4-.2.51.29.95.72,1.3,1.27.25.4.13.92-.27,1.17-.4.25-.92.13-1.17-.27-.2-.31-.43-.55-.7-.7-.23-.13-.41-.03-.5.05-.06.05-.26.24-.17.53.79,2.61,1.82,5.84,2.91,9.27.64,2.01,1.29,4.04,1.88,5.94.32,1.01.9,1.9,1.68,2.57.33.28.67.57,1.01.86,2.77,2.35,5.91,5.01,6.97,8.69.13.45-.13.92-.58,1.05-.08.02-.16.03-.24.03Z"/>
        <path class="cls-4" d="m14.15,47.84c-.38,0-.73-.26-.82-.64-.56-2.2-1.24-5.52-1.79-8.19-.24-1.15-.45-2.17-.61-2.91-.5-2.33-.87-4,1.24-4.52.67-.17,1.94-.13,2.99,1.94.65,1.28,1.27,3.43,1.85,6.42.09.46-.21.91-.67,1-.46.09-.91-.21-1-.67-.54-2.79-1.13-4.85-1.7-5.97-.14-.27-.63-1.16-1.06-1.05-.25.06-.3.12-.3.12-.14.24.15,1.59.32,2.39.16.74.37,1.77.61,2.93.55,2.65,1.23,5.95,1.77,8.12.12.46-.16.92-.62,1.03-.07.02-.14.03-.21.03Z"/>
        <path class="cls-4" d="m29.93,59.43c-.38,0-.72-.26-.82-.64-1.7-6.65-4.81-8.98-7.92-10.51-1.05-.52-1.78-1.51-1.96-2.67-.08-.54-.16-1.17-.25-1.84-.15-1.21-.32-2.59-.59-3.92-.17-.86-.38-1.82-.68-2.46-.13-.28-.37-.26-.5-.23-.09.02-.39.13-.37.49.15,2.18.45,6.24.72,8.89.05.47-.29.88-.76.93-.47.05-.88-.29-.93-.76-.27-2.68-.57-6.75-.73-8.95-.08-1.06.6-1.99,1.64-2.26,1.03-.26,2.04.22,2.47,1.17.3.65.53,1.47.8,2.84.28,1.39.45,2.8.61,4.04.08.66.16,1.27.24,1.79.09.61.48,1.13,1.03,1.4,3.31,1.63,6.94,4.28,8.82,11.61.12.46-.16.92-.61,1.03-.07.02-.14.03-.21.03Z"/>
        <path class="cls-4" d="m13.02,48.94c-.28,0-.55-.14-.71-.39-.79-1.21-1.74-2.88-2.67-4.5-.92-1.61-1.87-3.27-2.66-4.48-.38-.59-.41-1.34-.06-1.96.35-.61.98-.96,1.68-.95.65.02,1.25.28,1.79.76.35.31.38.85.07,1.2s-.85.38-1.2.07c-.32-.29-.56-.33-.72-.33-.02,0-.09,0-.14.09-.02.04-.05.12,0,.2.81,1.25,1.77,2.93,2.7,4.56.92,1.6,1.86,3.25,2.62,4.42.26.39.14.92-.25,1.18-.14.09-.3.14-.46.14Z"/>
        <path class="cls-4" d="m29.6,58.24c-.42,0-.78-.31-.84-.73-.46-3.2-.91-4.48-2.27-6.52-1.5-2.25-1.93-3.5-2.62-6.01-.61-2.22-.98-2.83-1.19-2.95,0,0-.01.01-.04.02-.18.67.18,3.27.82,5.83.11.46-.16.92-.62,1.03-.46.12-.92-.16-1.03-.62-1.65-6.59-.6-7.33-.25-7.57.7-.49,1.3-.44,1.68-.3,1.17.42,1.72,2.11,2.26,4.1.65,2.37,1.03,3.46,2.39,5.52,1.51,2.27,2.03,3.75,2.53,7.22.07.46-.25.9-.72.96-.04,0-.08,0-.12,0Z"/>
        <path class="cls-4" d="m39.58,79.93s-.09,0-.13-.01c-.24-.04-.45-.17-.58-.37-2.64-4.03-4.34-12.36-4.95-15.76-.08-.46-.43-.84-.88-.95-.34-.09-.72-.17-1.12-.23-.46-.07-.78-.51-.71-.97.07-.46.51-.78.97-.71.45.07.89.17,1.27.26,1.1.28,1.93,1.18,2.13,2.3.43,2.41,1.95,10.2,4.23,14.36,1.03-.68,1.9-.95,2.71-.84.73.1,1.28.49,1.7.92,1.11-.81,3.4-2.48,4.91-3.53.38-.27.92-.18,1.18.21.27.38.18.91-.21,1.18-2.04,1.43-5.53,3.99-5.53,3.99-.18.13-.41.19-.63.15-.22-.04-.42-.16-.56-.34-.53-.73-.88-.86-1.1-.89-.5-.07-1.24.29-2.2,1.05-.15.12-.34.19-.53.19Z"/>
        <path class="cls-4" d="m60.04,70.62s-.08,0-.13-.01c-.38-.07-.64-.44-.57-.82,1.07-5.97,2.09-9.13,3.72-13.21.15-.36.56-.54.92-.39.36.15.54.56.39.92-1.59,3.98-2.59,7.08-3.64,12.93-.06.34-.36.58-.7.58Z"/>
        <path class="cls-4" d="m67.07,61.78c-.17,0-.34-.05-.49-.16-.38-.27-.47-.8-.2-1.19.21-.3.42-.58.64-.87.81-1.1,1.65-2.23,2.64-4.2.21-.42.72-.59,1.14-.38.42.21.59.72.38,1.14-1.05,2.1-1.94,3.3-2.79,4.46-.21.28-.41.56-.62.84-.17.23-.43.36-.69.36Z"/>
        <path class="cls-4" d="m65.86,77.37c-.4,0-.75-.28-.83-.68-1.1-5.39-.65-12.6-.41-15.45.05-.61.44-1.13,1.01-1.36.58-.23,1.22-.11,1.68.31l1.18,1.07c.22.2.54.23.8.09l3.95-2.29c.41-.24.93-.1,1.16.31.24.41.1.93-.31,1.16l-3.95,2.29c-.9.52-2.02.4-2.79-.3l-1.05-.95c-.24,2.89-.63,9.72.4,14.78.09.46-.2.91-.66,1-.06.01-.11.02-.17.02Z"/>
        <path class="cls-4" d="m106.38,203.23c-.36,0-.69-.23-.81-.58-2.6-7.8-6.82-30.72-7.73-44.38-.03-.47.32-.87.79-.91.44-.03.87.32.91.79.89,13.3,5.14,36.41,7.65,43.95.15.45-.09.93-.54,1.08-.09.03-.18.04-.27.04Z"/>
        <path class="cls-4" d="m75.51,205.66c-.36,0-.7-.23-.81-.59-3.8-11.99-8.56-34.84-10.35-43.44-.32-1.52-.55-2.64-.68-3.23-.62-2.85-.73-2.96-1.44-3.68-.27-.28-.61-.63-1.06-1.16-.3-.36-.25-.9.11-1.2.36-.3.9-.25,1.2.11.41.49.72.81.97,1.06.99,1.02,1.2,1.4,1.88,4.5.13.6.37,1.72.68,3.25,1.79,8.58,6.53,31.36,10.31,43.28.14.45-.11.93-.55,1.07-.08.03-.17.04-.26.04Z"/>
        <path class="cls-4" d="m47.8,205.26c-.41,0-.77-.3-.84-.71-.79-4.82-.94-37.17,0-47.96.04-.47.46-.82.92-.77.47.04.81.45.77.92-1,11.5-.72,43.24,0,47.53.08.46-.24.9-.7.98-.05,0-.09.01-.14.01Z"/>
        <path class="cls-4" d="m84.86,203.01c-.26,0-.51-.17-.6-.43-2.18-6.25-6.4-24.1-8.07-33.38-.06-.35.17-.68.51-.74.34-.06.68.17.74.51,1.67,9.23,5.86,26.98,8.02,33.18.12.33-.06.7-.39.81-.07.02-.14.04-.21.04Z"/>
        <path class="cls-4" d="m58.56,113.85c-.13,0-.26-.02-.39-.05-.42-.11-.79-.39-1.02-.79-.29-.48-.36-1.1-.21-1.69.13-.51.42-.96.81-1.26.44-.33.97-.45,1.46-.32.97.25,1.52,1.36,1.24,2.48h0c-.25.97-1.05,1.63-1.88,1.63Zm.25-2.74c-.08,0-.16.05-.21.08-.14.1-.25.28-.3.48-.06.23-.04.46.06.62.03.05.08.12.16.14.16.04.46-.19.55-.56.1-.4-.06-.71-.21-.75-.01,0-.03,0-.04,0Zm.95.94h0,0Z"/>
        <path class="cls-4" d="m79.72,115.23c-.5,0-1-.22-1.36-.6-.36-.38-.56-.89-.58-1.43-.04-1.15.8-2.12,1.86-2.16.51,0,1.04.2,1.41.6.36.38.56.89.58,1.43h0c.04,1.15-.8,2.12-1.86,2.16-.02,0-.04,0-.06,0Zm-.02-2.77s0,0-.01,0c-.28,0-.5.33-.49.69,0,.2.08.38.2.51.06.06.17.16.33.15.28,0,.5-.33.49-.69h0c0-.2-.08-.38-.2-.51-.07-.07-.17-.15-.32-.15Z"/>
        <path class="cls-4" d="m77.8,35.94s-.1,0-.14,0c-1.18-.03-2.21-.51-2.98-1.39-.92-1.04-1.4-2.6-1.25-4.07.33-3.32,3.67-3.32,4.77-3.32,1.56,0,2.8.46,3.59,1.32.65.71.95,1.64.86,2.69-.25,2.87-2.19,4.77-4.84,4.77Zm.39-7.08c-2.67,0-2.99.92-3.08,1.79-.1,1,.23,2.09.83,2.78.46.52,1.05.79,1.75.81,2.2.06,3.11-1.7,3.25-3.21.05-.57-.09-1.03-.42-1.39-.46-.5-1.27-.77-2.34-.77Z"/>
        <path class="cls-4" d="m81.81,31.15c-.3,0-.6-.16-.75-.45-.22-.41-.06-.93.35-1.15,1.56-.83,3.36-.35,4.06-.1.44.16.68.64.52,1.08-.16.44-.64.67-1.08.52-.38-.13-1.71-.53-2.7,0-.13.07-.26.1-.4.1Z"/>
        <path class="cls-4" d="m88.86,36.11c-.11,0-.22,0-.33-.01-2.67-.17-4.27-2.04-4.27-5,0-1.47.59-3.94,4.55-3.94,1.73,0,3.28.57,4.14,1.53.59.66.85,1.48.75,2.37-.27,2.48-1.89,5.05-4.84,5.05Zm-.05-7.25c-2.5,0-2.85,1.08-2.85,2.24,0,1.43.46,3.16,2.68,3.3,2.34.15,3.23-2.14,3.38-3.52.04-.41-.06-.76-.33-1.05-.53-.59-1.66-.96-2.88-.96Z"/>
        <path class="cls-4" d="m95.22,42.86c-.16,0-.33,0-.5-.01-.47-.02-.83-.41-.82-.88.02-.47.41-.83.88-.82,2.16.09,3.99-.47,5.16-1.56.9-.84,1.39-1.97,1.43-3.28.04-1.31-.3-2.32-1.03-2.99-.79-.74-2.06-1.06-3.58-.9-.2.02-.4-.03-.57-.15l-.94-.65c-.63-.44-1.38-.67-2.15-.67h-.25c-.47,0-.85-.38-.85-.85s.38-.85.85-.85h.25c1.12,0,2.19.33,3.11.97l.69.47c1.87-.13,3.5.35,4.59,1.37,1.08,1.01,1.62,2.49,1.57,4.29-.06,1.77-.74,3.32-1.97,4.47-1.41,1.31-3.49,2.03-5.89,2.03Z"/>
        <path class="cls-4" d="m82.93,44.29c-.06,0-.13,0-.19,0-1.01-.05-1.92-.5-2.56-1.25-.91-1.07-1.65-2.4-1.99-3.56-.06-.2-.03-.41.09-.58.11-.17.29-.29.5-.31,2.25-.3,7.58-.39,9.07-.26.23.02.43.15.55.34.12.2.13.44.04.65-.04.08-.9,2.04-2.89,3.94-.7.67-1.64,1.05-2.61,1.05Zm-3.08-4.41c.33.76.83,1.55,1.41,2.23.39.46.94.73,1.55.76.63.03,1.28-.2,1.75-.65.96-.92,1.64-1.87,2.05-2.54-1.79-.03-4.83.04-6.77.21Z"/>
        <path class="cls-4" d="m80.18,42.59c-.38,0-.7-.3-.71-.69-.01-.39.3-.72.69-.73l5.83-.17c.38,0,.72.3.73.69.01.39-.3.72-.69.73l-5.83.17h-.02Z"/>
        <path class="cls-4" d="m86.83,29.17c-.15,0-.3-.04-.44-.12-.4-.24-.53-.76-.29-1.17.44-.73,1.14-1.19,2.04-1.33,1.26-.2,2.63.28,3.1.69.35.31.39.85.08,1.2-.31.35-.85.39-1.2.08-.15-.11-1.05-.43-1.8-.28-.36.07-.6.24-.76.51-.16.27-.44.41-.73.41Z"/>
        <path class="cls-4" d="m79.95,28.86c-.14,0-.29-.04-.43-.11-.75-.44-1.55-.47-2.6-.11-.44.16-.93-.08-1.08-.52-.16-.44.08-.93.52-1.08,1.51-.53,2.82-.45,4.01.24.41.24.54.76.31,1.16-.16.27-.44.42-.74.42Z"/>
        <path class="cls-4" d="m82.65,36.86h-.47c-.35,0-.64-.29-.64-.64s.29-.64.64-.64h.47c.35,0,.64.29.64.64s-.29.64-.64.64Z"/>
        <circle class="cls-4" cx="78.08" cy="60.38" r=".71"/>
        <circle class="cls-4" cx="74.78" cy="69.55" r=".71"/>
        <circle class="cls-4" cx="96.05" cy="78.46" r=".86"/>
      </g>
    </g>
    <g>
      <path class="cls-5" d="m31.26,28.42c.23-5.65.89-12.91,1.84-18.63.39-2.34,2.26-4.17,4.61-4.52,7.53-1.13,13.8,2.35,5.84,10.79,5.75,1.68,4.43,10.77-7.64,15.67-2.28.92-4.76-.85-4.65-3.3Z"/>
      <circle class="cls-3" cx="39.36" cy="11.04" r=".82"/>
      <circle class="cls-3" cx="38.84" cy="23.09" r=".82"/>
      <path class="cls-3" d="m34.65,32.61c-.81,0-1.62-.25-2.31-.74-1.13-.8-1.78-2.1-1.72-3.47h0c.25-6.19.96-13.36,1.85-18.71.43-2.62,2.49-4.64,5.11-5.04,4.74-.72,8.5.31,9.81,2.69.82,1.48,1.02,4.13-2.63,8.34-.01.14.02.19.08.21,1.78.94,2.74,2.69,2.64,4.82-.16,3.3-3.23,8.32-11.32,11.61-.48.2-.99.29-1.5.29Zm5.71-26.9c-.82,0-1.69.07-2.59.2-2.07.31-3.7,1.92-4.04,3.99-.88,5.3-1.58,12.41-1.83,18.55h0c-.04.94.4,1.83,1.18,2.38.77.54,1.74.66,2.6.31,7.54-3.06,10.38-7.56,10.53-10.49.08-1.63-.62-2.92-1.96-3.62-.4-.21-.68-.58-.76-1.02-.08-.42.04-.84.31-1.16,2.51-2.89,3.37-5.27,2.48-6.89-.79-1.43-3.03-2.25-5.91-2.25Zm-9.1,22.72h0,0Z"/>
    </g>
    <g>
      <path class="cls-7" d="m17.9,4.3c-1.12,5.23-1.47,14.32-1.1,20.27.1,1.64,1.72,2.73,3.28,2.21l2.12-.71c1.02-.34,1.71-1.29,1.71-2.37v-1.37c0-.64.4-1.22,1-1.44l1.37-.52c.73-.28,1.56.04,1.92.73l.38.74c.6,1.16,2.01,1.66,3.21,1.14l3.48-1.51c1.31-.57,1.87-2.12,1.24-3.4-2.75-5.6-7.12-12.36-10.17-16.2-.91-1.14-2.46-1.54-3.81-.99l-2.66,1.09c-1,.41-1.74,1.28-1.97,2.34Z"/>
      <path class="cls-9" d="m17.9,4.3c-1.12,5.23-1.47,14.32-1.1,20.27.1,1.64,1.72,2.73,3.28,2.21l2.12-.71c1.02-.34,1.71-1.29,1.71-2.37v-1.37c0-.64.4-1.22,1-1.44l1.37-.52c.73-.28,1.56.04,1.92.73l.38.74c.6,1.16,2.01,1.66,3.21,1.14l3.48-1.51c1.31-.57,1.87-2.12,1.24-3.4-2.75-5.6-7.12-12.36-10.17-16.2-.91-1.14-2.46-1.54-3.81-.99l-2.66,1.09c-1,.41-1.74,1.28-1.97,2.34Z"/>
      <path class="cls-3" d="m19.28,27.56c-.61,0-1.22-.18-1.75-.54-.81-.55-1.31-1.43-1.38-2.41-.36-5.83-.04-15.07,1.11-20.45h0c.27-1.26,1.15-2.3,2.35-2.79l2.66-1.09c1.6-.65,3.47-.17,4.55,1.18,2.92,3.68,7.38,10.47,10.25,16.32.38.78.43,1.66.13,2.47-.3.81-.9,1.45-1.69,1.79l-3.48,1.51c-1.51.65-3.28.03-4.03-1.43l-.38-.74c-.21-.41-.69-.6-1.13-.43l-1.37.52c-.35.13-.58.47-.58.85v1.37c0,1.35-.86,2.55-2.14,2.97l-2.12.71c-.33.11-.66.16-1,.16Zm-.76-23.12h0c-1.13,5.27-1.44,14.36-1.08,20.1.04.58.33,1.1.81,1.43.48.33,1.08.41,1.63.22l2.12-.71c.76-.25,1.27-.96,1.27-1.76v-1.37c0-.9.57-1.72,1.41-2.04l1.37-.52c1.04-.39,2.2.05,2.71,1.03l.38.74c.45.86,1.5,1.24,2.39.85l3.48-1.51c.47-.2.82-.58,1-1.06.18-.48.15-1.01-.08-1.47-2.83-5.77-7.22-12.46-10.1-16.09-.73-.93-1.97-1.25-3.07-.8l-2.66,1.09c-.81.33-1.4,1.03-1.58,1.88Z"/>
      <g>
        <path class="cls-3" d="m23.46,11.33c-.01.65-.01,1.35-.02,1.83,0,.29.3.48.56.37l.79-.35c.21-.09.3-.35.2-.56l-.77-1.48c-.19-.37-.75-.24-.76.18Z"/>
        <path class="cls-3" d="m23.85,14.13c-.19,0-.37-.05-.53-.16-.27-.18-.44-.48-.44-.81,0-.48,0-1.18.02-1.84h0c0-.45.31-.82.75-.93.44-.1.88.09,1.08.49l.77,1.48c.12.24.14.52.06.77-.09.25-.28.46-.53.57l-.79.35c-.13.06-.26.08-.39.08Zm.17-2.14c0,.33,0,.65,0,.92l.4-.17-.39-.75Zm0-.65h0s0,0,0,0h0Z"/>
      </g>
    </g>
  </g>
  <g id="_アイコン" data-name="アイコン">
    <g>
      <path class="cls-2" d="m119.21,123.9c-.62-.21-.95-.89-.74-1.51l2.51-7.36c.26-.78,1.11-1.19,1.88-.93l2.75.94c1.45.49,2.43,1.92,2.24,3.44-.27,2.09-2.34,3.3-4.22,2.66l-1.99-.68-.92,2.69c-.21.62-.89.96-1.51.74Zm3.23-6.18c-.08.25.05.52.3.6l1.66.57c.43.15.9-.09,1.05-.52s-.08-.9-.51-1.05l-1.66-.57c-.25-.08-.52.05-.6.3l-.23.66Z"/>
      <path class="cls-3" d="m122.38,114.03c.16,0,.32.03.48.08l2.75.94c1.45.49,2.43,1.92,2.24,3.44-.22,1.71-1.65,2.83-3.19,2.83-.34,0-.69-.06-1.03-.17l-1.99-.68-.92,2.69c-.17.49-.63.81-1.13.81-.13,0-.26-.02-.38-.06-.62-.21-.95-.89-.74-1.51l2.51-7.36c.21-.62.79-1.01,1.4-1.01m2.28,4.91c.34,0,.67-.22.78-.56.15-.43-.08-.9-.51-1.05l-1.66-.57c-.05-.02-.1-.03-.15-.03-.2,0-.38.12-.45.32l-.23.66c-.08.25.05.52.3.6l1.66.57c.09.03.18.04.26.04m-2.28-6.18c-1.18,0-2.23.75-2.61,1.87l-2.51,7.36c-.44,1.29.25,2.69,1.54,3.13.26.09.53.13.8.13,1.06,0,1.99-.67,2.33-1.67l.51-1.48.78.27c.47.16.95.24,1.44.24,2.25,0,4.17-1.7,4.46-3.95.27-2.08-1.03-4.11-3.09-4.81l-2.75-.94c-.29-.1-.59-.15-.89-.15h0Z"/>
    </g>
    <g>
      <path class="cls-7" d="m32.92,178.98c-1.08.95-2.52,1.51-3.96,1.45-.76-.03-1.36-.66-1.33-1.43.03-.76.67-1.35,1.43-1.33,1.16.04,2.26-.75,2.66-1.54.3-.59.08-.86,0-.96-.18-.22-.33-.26-2.05.43-1.71.68-4.04,1.62-5.55-.28-.92-1.15-1.01-2.66-.25-4.03,1.02-1.82,3.22-2.96,5.22-2.72.76.09,1.29.78,1.2,1.54-.09.75-.78,1.29-1.53,1.2-.98-.12-2.07.59-2.48,1.33-.32.57-.1.85,0,.97.21.26,1.23-.1,2.21-.5,1.9-.76,3.87-1.56,5.39.35.88,1.1.99,2.56.31,3.92-.31.61-.74,1.15-1.25,1.6Z"/>
      <path class="cls-3" d="m28.54,168.54c.18,0,.37.01.55.03.76.09,1.29.78,1.2,1.54-.08.7-.68,1.21-1.37,1.21-.06,0-.11,0-.17-.01-.07,0-.15-.01-.22-.01-.92,0-1.88.66-2.26,1.34-.32.57-.1.85,0,.97.05.06.14.09.27.09.42,0,1.19-.28,1.94-.58,1.03-.41,2.08-.83,3.06-.83.84,0,1.63.31,2.33,1.18.88,1.1.99,2.56.31,3.92-.31.61-.74,1.15-1.25,1.6-1.03.91-2.4,1.46-3.78,1.46-.06,0-.12,0-.18,0-.76-.03-1.36-.66-1.33-1.43.03-.75.64-1.33,1.38-1.33.02,0,.03,0,.05,0,.03,0,.06,0,.09,0,1.13,0,2.18-.77,2.57-1.54.3-.59.08-.86,0-.96-.07-.09-.13-.14-.29-.14-.24,0-.71.15-1.76.57-.95.38-2.1.84-3.2.84-.86,0-1.69-.29-2.35-1.12-.92-1.15-1.01-2.66-.25-4.03.92-1.66,2.83-2.75,4.67-2.75m0-1.42c-2.37,0-4.75,1.4-5.91,3.48-1.04,1.86-.9,4.01.38,5.61.86,1.08,2.06,1.66,3.46,1.66h.01c-.16.33-.25.7-.26,1.09-.03.75.24,1.46.75,2.01.51.55,1.2.86,1.95.89.08,0,.15,0,.23,0,1.69,0,3.4-.66,4.71-1.81.67-.59,1.2-1.27,1.58-2.03.93-1.84.75-3.92-.47-5.44-.9-1.13-2.05-1.71-3.41-1.71.06-.19.11-.38.14-.58.09-.74-.11-1.47-.57-2.06-.46-.59-1.12-.96-1.86-1.06-.24-.03-.48-.04-.72-.04h0Z"/>
    </g>
  </g>
</svg>