<?xml version="1.0" encoding="UTF-8"?>
<svg id="Layer_2" data-name="Layer 2" xmlns="http://www.w3.org/2000/svg" viewBox="0 0 199.03 227.25">
  <defs>
    <style>
      .cls-1 {
        fill: #fff;
      }

      .cls-2 {
        fill: #95e0e6;
      }

      .cls-3 {
        fill: #363636;
      }

      .cls-4 {
        fill: #33b0da;
      }

      .cls-5 {
        fill: #8dc05f;
      }

      .cls-6 {
        fill: #ffdfbc;
      }

      .cls-7 {
        fill: #ffd964;
      }
    </style>
  </defs>
  <g id="_人物" data-name="人物">
    <g>
      <g>
        <g>
          <path class="cls-1" d="m97.19,125.18c-3.46-23.22-28.43-27.4-37.06-25.92-1.54,7.64-13.04,6.26-15.4,2.75l-.22.12c-5.73,3.22-13.4,9.78-15.37,18.96-2.2,10.29-.75,23.65,11.72,27.96.7.24,1.41.44,2.14.6h0c-.5,4.41.42,7.86,6.26,7.64,5.84-.22,15.51-6.86,23.35-10.94,6.72-3.5,10.22-5.3,11.37-8.2h0l9.98-3.53c3.55-2.8,4.17-5.7,3.21-9.45Z"/>
          <path class="cls-1" d="m141.86,205.05c1.82,3.25,4.81,6.77,7.68,8.97,1.42,1.09,3.44.96,4.73-.28,4.97-4.78,13.05-13.81,18.39-21.32,3.37-4.74,5.78-8.13,5.35-10.93s-2.83-3.56-5.64-2.94-6.29,2.35-8.48,3.1c-3.88,1.34-6.95,2.35-12.18,2.23-3.75-.09-5.62,4.8-2.57,6.98.15.1.3.2.47.29,3.3,1.82,2.48,6.26-.25,8.74-1.66,1.51-3.78,1.89-5.68,1.95-1.62.05-2.6,1.8-1.81,3.22Z"/>
          <path class="cls-1" d="m141.71,203.27c-.26-.58-.65-1.38-1.04-2.17-.57-1.17-1.36-2.2-2.34-3.04-1.95-1.68-4.48-3.74-7.31-5.96.15-4.56,4.84-12.37,9.09-14.29l9.05,6.94s8.95,1.7,7.69,9-6.23,19.16-15.13,9.53Z"/>
          <path class="cls-1" d="m176.85,172.94c2.13.81,4.53.09,5.84-1.78,2.85-4.06,6.75-9.86,10.24-15.66,3.61-5.99,7.18-13.86,3.04-16.12-6.04-3.3-14.25,7.69-22.26,11.94-2.36,1.25-2.74,4.6-.64,6.25.42.33.9.63,1.4.88,2.31,1.16,1.15,3.33-2.15,5.18-.89.49-1.63.93-2.26,1.35-1.84,1.22-1.71,3.95.24,4.97,1.78.93,4.17,2.09,6.55,3Z"/>
          <path class="cls-1" d="m156.84,163.62s7.56,1.69,12.9,4.25,7.95-1.15,9.26-8.23-7.14-6.04-7.14-6.04l-8.68-3.19s-5.4,4.32-6.34,13.2Z"/>
          <path class="cls-6" d="m60.13,99.26c-1.54,7.64-13.04,6.26-15.4,2.75,1.17-1.38,2.49-2.5,0-8.75l10.87,1.62s1.15,5.07,4.53,4.37Z"/>
          <path class="cls-6" d="m60.93,71.32l-.38-.95-5.86.43c-2.21-6.44-6.34-8.76-10.67-8.61.26,2.67.08,5.59-.61,8.26-.47,1.82-1.44,4.64-5.97,6.7-1.02.46-1.63,1.48-1.59,2.55l-.07-.21-2.09.54c-3.07.79-4.94,4.09-3.78,7.04.04.09.07.18.11.27,1.07,2.51,3.88,3.81,6.5,3.05l2.75-.79-.02-.07c2.83,5.05,8.81,7.65,14.5,6.01.1-.03.19-.06.29-.09,5.42-1.63,8.72-5.95,8.68-12.08-.02-3.94-.39-8.24-1.79-12.05Z"/>
          <path class="cls-6" d="m71.06,123.39c2.27-1.08,5.04-1.62,6.84-1.88,1.07-.15,1.83-1.12,1.72-2.19v-.09c-.12-1.1-1.09-1.9-2.19-1.8-1.97.18-4.98.6-6.96,1.54,2.51-1.28,6.36-1.6,8.81-1.66,1.22-.03,2.12-1.13,1.92-2.33h0c-.15-.92-.91-1.61-1.83-1.68-3.6-.28-7.51.26-10.3,1.26-.24.08-.42-.22-.24-.39,1.77-1.66,4.51-3.01,6.41-3.96,1.18-.59,1.51-2.12.69-3.15h0c-.55-.69-1.47-.97-2.31-.68-4.49,1.57-10.42,4.75-13.5,9.8-2.76,4.52-1.93,10.53,1.25,13.1,2.88,2.32,7.36,2.41,10.57-.98.57-.61,1.26-1.11,2.03-1.43,1.07-.45,2.15-.81,3-1.06.94-.28,1.53-1.19,1.42-2.16v-.08c-.15-1.17-1.25-1.98-2.4-1.74-1.8.37-3.77,1.09-4.94,1.58"/>
          <path class="cls-6" d="m89.56,112.23c.86-.96,2.13-2.03,4.11-2.99.62-.3,1.02-.93,1.02-1.63v-.95c0-.58-.53-1.02-1.1-.9l-.51.1c-1.4.27-2.69-.82-2.65-2.25h0c.03-.98.7-1.82,1.65-2.08,2.91-.81,5.84-.96,6.96.82.59.94.7,2.18.67,3.14-.03.78.21,1.57.79,2.09.42.39.61.86.69,1.29.12.62.38,1.21.87,1.61.7.56,1.16,1.39,1.38,2.33.12.54.36,1.05.75,1.44.96.96,1.68,2.89.74,5.23-1.13,2.83-7.54,7.37-12.26,5.56-5.44-2.08-6.92-7.11-5.92-12.09l2.81-.73Z"/>
          <path class="cls-6" d="m129.06,160.71c7.13.22,16.82.78,27.78,2.92,0,0,1.5-9.15,6.36-13.2,0,0-7.09-2.31-12.27-2.64,0,0-2.24,6.38-7.52,6.99s-5.34-1.76-9.23.54-5.11,5.38-5.11,5.38Z"/>
          <path class="cls-6" d="m126.05,167.33l13.8,10.76s-7.9,5.07-8.84,14l-19.93-14.3s2.63-4.01,6.29-3.1.76,6.58,3.84,6.75,9.5-6.49,9.59-8.19-.96-2.36-2.75-3.09-2.59-1.08-2-2.84Z"/>
          <path class="cls-5" d="m119.85,196.14c-3.39,2.9-6.27,4.6-8.38,5.53-1.82.8-3.94.45-5.41-.89-6.89-6.26-11.57-15.8-16.75-22.37-5.72-7.27-10.79.44-22.57,0s-17.5-12.33-18.58-21.09c7.6-.28,9.47-3.41,16.41-6.88s16.29-7.63,19.31-11.96c11.52-5.05,53.98-19.44,77.72-9.92,2.92,1.17,4.15,4.64,2.71,7.43-1.53,2.96-3.99,7.23-7.83,12.7l-5.24-.73c-.03.35-.15.69-.38,1.01-.74,1.01-1.55,1.9-2.22,2.61-1.69,1.77-3.66,3.23-5.71,3.53-3.49.52-3.96-1.26-7.26-.38s-6.06,4.29-8.48,9.58-.66,5.94,1.43,6.61,3.52,1.21.88,4.4-9.8,9.47-9.36,3.96-4.73-5.94-8.37-2.2c-.19.2-.38.4-.57.61l2.64,1.74,10.69,7.72c-6.88,3.37-7.14,6.14-5.07,6.9.9.33,1.13,1.48.4,2.09-.42.35-.87.71-1.33,1.06"/>
          <path class="cls-3" d="m62.72,82.51c.01,4.35,1.55,7.39,4.09,8.95,0,0-3.04,2.88-11.21,3.42,3.66-2.06,7.13-4.2,7.12-12.37Z"/>
          <path class="cls-3" d="m151.23,147.95c.09-1.04-.64-2.07-1.8-2.26-.87-.15-1.55-.4-1.98-.9-1.09-1.26-.37-3.8,3-6.92,4.76-4.4,15.74-11.37,14.1-2.44l-.24.54c-1.53,2.96-3.99,7.23-7.83,12.7l-5.24-.73Z"/>
          <path class="cls-3" d="m124.29,187.43c-6.88,3.37-6.9,5.85-4.83,6.62.9.33,1.13,1.48.4,2.09-2.05,1.71-4.67,3.51-6.87,4.72-7.02,3.86-2.86-6.06-1.21-10.9s-3.41.33-5.28-1.54,1.35-7.1,4.8-10.83l13.24,9.56-.24.28Z"/>
          <path class="cls-3" d="m145.35,161.78c-3.59,1.66-5.28,2.64-4.29,5.61s-2.7,3.94-6.59,6.58l-8.41-6.25c.11-.85.46-1.96,1.13-3.42.61-1.32,1.23-2.53,1.88-3.6,0,0,7.87-.2,16.28,1.07Z"/>
          <path class="cls-7" d="m147.35,212.06c10.35-11.35,16.02-18.22,18.37-21.15.74-.93,1.05-2.14.78-3.3-.95-4.21,1.4-7.59,4.33-8.67v.02c-2.5.78-5.13,2.06-6.94,2.69-3.88,1.34-6.95,2.35-12.18,2.23-3.75-.09-5.62,4.8-2.57,6.98.15.1.3.2.47.29,3.3,1.82,2.48,6.26-.25,8.74-1.66,1.51-3.78,1.89-5.68,1.95-1.62.05-2.6,1.8-1.81,3.22,1.35,2.42,3.35,4.98,5.47,7.04l.02-.02Z"/>
          <path class="cls-7" d="m175.52,172.41c5.04-8.91,10.56-17.72,12.83-21.3.59-.94.77-2.1.38-3.14-1.4-3.74-.13-6.9,1.94-8.56l.4-.16c-5.23,1.9-11.35,8.88-17.36,12.07-2.36,1.25-2.74,4.6-.64,6.25.42.33.9.63,1.4.88,2.31,1.16,1.15,3.33-2.15,5.18-.89.49-1.63.93-2.26,1.35-1.84,1.22-1.71,3.95.24,4.97,1.45.76,3.3,1.67,5.22,2.47h0Z"/>
          <path class="cls-3" d="m89.56,112.23c.86-.96,2.13-2.03,4.11-2.99.62-.3,1.02-.93,1.02-1.63v-.95c0-.58-.53-1.02-1.1-.9l-.51.1c-1.4.27-2.69-.82-2.65-2.25h0c.03-.98.7-1.82,1.65-2.08,1.08-.3,2.15-.51,3.14-.56v-.03s.1-.73.1-.73c.26-1.81-1.35-3.34-3.15-3l-21.07,4.01c-1.45.28-2.56,1.44-2.77,2.9l-.71,5.03h0c2.04-1.22,4.14-2.14,6-2.79.83-.29,1.76-.01,2.31.68h0c.82,1.03.49,2.56-.69,3.15-1.89.95-4.64,2.3-6.41,3.96-.18.17,0,.47.24.39,2.79-1,6.7-1.54,10.3-1.26.69.05,1.29.46,1.61,1.05l8.57-2.11Z"/>
          <path class="cls-2" d="m29.93,87.06c-1.16-2.96.7-6.25,3.78-7.04l2.09-.54.07-.1c.08-.95.68-1.81,1.6-2.23,4.52-2.06,5.5-4.88,5.97-6.7.69-2.67.86-5.59.61-8.26,4.33-.15,8.46,2.17,10.67,8.61l5.86-.43h0c-1.1-2.57-2.73-4.86-5.12-6.61-8.59-6.27-19.04-2.84-23.6,3.06s-3.36,11.8-2.76,16.8l.84,3.43Z"/>
          <path class="cls-3" d="m29.93,87.06c.04.09.07.18.11.27,1.07,2.51,3.88,3.81,6.5,3.05l2.75-.79h0c1.49,2.63,3.83,4.58,6.53,5.61l-.11,1.09c-4.89.98-7.71,1.62-7.71,1.62-1.5-1.03-2.75-3.29-3.35-5.88-.29-1.24-2.07-1.21-2.31.04-.4,2.13-.11,4.36.64,5.76l-1.29-.11s-1.69-3.09-.3-8.1c0,0-1.62,5.41-4.55,6.71h-.98c4.11-3.21,3.81-7.69,3.21-12.69l.84,3.43Z"/>
        </g>
        <g>
          <path class="cls-3" d="m49.19,73.9s-.09,0-.14,0c-.66-.07-1.14-.67-1.06-1.33.54-4.76-.84-7.62-4.45-9.28-.61-.28-.87-.99-.59-1.6.28-.6.99-.87,1.6-.59,4.59,2.1,6.5,5.94,5.85,11.74-.07.62-.59,1.07-1.2,1.07Z"/>
          <path class="cls-3" d="m73.54,101.87c-.1,0-.21-.01-.32-.04-3.94-1.06-8.41-1.53-13.29-1.36-1.7.04-3.29-.85-4.12-2.37-.77-1.4-1.31-2.71-1.33-2.76-.15-.36-.11-.77.1-1.09.21-.33.56-.54.94-.56,4.81-.32,7.74-1.49,9.23-2.29-2.09-1.99-3.22-5.08-3.24-8.87,0-.67.54-1.21,1.2-1.21h0c.66,0,1.2.54,1.21,1.2,0,3.78,1.23,6.52,3.51,7.93.32.2.53.53.57.9.04.37-.1.74-.37,1-.13.12-3,2.77-10.24,3.6.16.31.33.66.52,1,.4.72,1.14,1.15,1.93,1.13,5.12-.17,9.82.31,14,1.44.64.17,1.02.83.85,1.48-.15.54-.63.89-1.16.89Z"/>
          <path class="cls-3" d="m47.62,151.35c-2.47,0-4.9-.37-7.15-1.15-12.9-4.46-14.92-18.09-12.51-29.35,2.44-11.39,12.83-18.01,15.95-19.76.79-.44,1.21-1.3,1.07-2.19-.14-.88-.38-2.21-.75-3.56-.17-.64.21-1.3.85-1.48.64-.17,1.3.21,1.48.85.39,1.45.65,2.86.8,3.8.3,1.87-.61,3.74-2.27,4.67-2.9,1.63-12.55,7.76-14.78,18.17-2.19,10.26-.47,22.63,10.94,26.57,6.48,2.24,14.72.74,20.03-3.65,2.9-2.4,6.15-6.66,5.18-13.33-.1-.66.36-1.27,1.02-1.37.65-.1,1.27.36,1.37,1.02.88,6.07-1.26,11.59-6.03,15.54-4.09,3.38-9.72,5.22-15.2,5.22Z"/>
          <path class="cls-3" d="m41.36,128.8c-.39,0-.78-.19-1.01-.55-.36-.56-.21-1.3.35-1.67,3.7-2.41,5.91-4.85,7.12-6.48,1.8-2.42,6.3-5.03,11.34-2.26.58.32.8,1.05.48,1.64-.32.58-1.05.8-1.64.48-4.12-2.26-7.35.38-8.25,1.59-1.33,1.78-3.75,4.46-7.74,7.06-.2.13-.43.2-.66.2Z"/>
          <path class="cls-3" d="m52.09,106.04c-3.5,0-7-1.32-8.36-3.35-.37-.55-.22-1.3.33-1.67.55-.37,1.3-.22,1.67.33,1.03,1.54,4.94,2.78,8.4,2.09,1.87-.37,4.22-1.44,4.82-4.41.13-.65.75-1.08,1.42-.94.65.13,1.07.77.94,1.42-.67,3.33-3.05,5.57-6.71,6.3-.82.16-1.66.24-2.51.24Z"/>
          <path class="cls-3" d="m48.75,158.51c-2.45,0-4.23-.63-5.43-1.93-1.83-1.97-1.73-4.97-1.5-7.05.07-.66.67-1.13,1.33-1.06.66.07,1.14.67,1.06,1.33-.29,2.52,0,4.2.87,5.14.78.84,2.17,1.23,4.15,1.15,4.01-.15,10.28-3.73,16.34-7.2,2.17-1.24,4.42-2.52,6.5-3.61l.24-.13c8.1-4.22,10.67-5.71,10.91-8.98.24-3.38-4.04-6.22-4.08-6.25-.56-.36-.71-1.11-.35-1.67.36-.56,1.11-.71,1.67-.35.23.15,5.52,3.64,5.17,8.44-.34,4.78-4.06,6.71-12.2,10.95l-.24.13c-2.04,1.06-4.17,2.28-6.42,3.56-6.32,3.61-12.85,7.34-17.45,7.51-.2,0-.39.01-.58.01Z"/>
          <path class="cls-3" d="m109.46,203.29c-1.53,0-3.04-.56-4.21-1.63-4.54-4.12-8.05-9.48-11.44-14.67-1.86-2.84-3.62-5.53-5.44-7.84-2.9-3.68-5.35-2.92-9.81-1.52-3.08.96-6.91,2.16-11.86,1.98-11.74-.44-18.46-11.79-19.73-22.15-.08-.66.39-1.26,1.05-1.34.65-.08,1.26.39,1.34,1.05.83,6.74,5.54,19.59,17.43,20.03,4.54.17,8-.91,11.05-1.87,4.55-1.43,8.49-2.66,12.42,2.33,1.89,2.4,3.68,5.13,5.57,8.02,3.31,5.06,6.74,10.3,11.05,14.21,1.12,1.02,2.74,1.29,4.12.68,1.74-.77,4.55-2.31,8.08-5.34.51-.43,1.27-.37,1.7.13.43.5.38,1.27-.13,1.7-3.75,3.22-6.79,4.88-8.68,5.71-.8.35-1.65.52-2.5.52Z"/>
          <path class="cls-3" d="m156.47,149.89c-.24,0-.48-.07-.69-.22-.54-.38-.68-1.13-.29-1.68,3.18-4.53,5.79-8.76,7.75-12.56.54-1.05.62-2.29.2-3.4-.41-1.09-1.22-1.93-2.29-2.36-23.52-9.43-66.55,5.41-76.78,9.9-.61.27-1.32,0-1.59-.62s0-1.32.62-1.59c12.81-5.62,54.76-19.51,78.65-9.93,1.68.67,3.01,2.04,3.65,3.75.65,1.74.53,3.69-.32,5.35-2.01,3.9-4.67,8.22-7.92,12.84-.23.33-.61.51-.99.51Z"/>
          <path class="cls-3" d="m110.44,202.93c-.58,0-1.16-.15-1.65-.57-1.93-1.64-.69-5.68,1.28-11.21.2-.56.39-1.1.55-1.58.04-.12.07-.22.1-.32-.13.05-.25.09-.36.13-1.34.5-3.37,1.25-4.73-.12-2.75-2.75,1.65-9.3,5.27-13.03,2.39-2.46,5.53-3.42,7.81-2.39,1.88.85,2.83,2.87,2.62,5.53-.04.51,0,.77.04.89h0c1.08,0,4.69-2.7,7.18-5.71,1.18-1.43,1.16-1.9,1.16-1.92-.14-.15-1.07-.44-1.47-.57-1.06-.33-2.51-.79-3.14-2.22-.61-1.37-.3-3.23.98-6.03,2.73-5.96,5.76-9.31,9.26-10.24,2.05-.55,3.26-.21,4.33.1.89.25,1.65.46,3.06.25,1.51-.22,3.25-1.32,5.01-3.17.55-.58,1.37-1.46,2.12-2.49.23-.32.16-.63.1-.79-.12-.31-.4-.52-.74-.58-.79-.14-1.93-.42-2.69-1.3-.65-.75-2.33-3.58,3.09-8.59.1-.09,10.08-9.14,14.58-6.66,1.5.83,2.01,2.62,1.52,5.32-.12.65-.74,1.09-1.4.97-.65-.12-1.09-.75-.97-1.4.27-1.48.16-2.52-.31-2.77-1.57-.87-7.41,2.27-11.79,6.31-3.01,2.78-3.38,4.69-2.9,5.24.19.22.61.38,1.27.5,1.17.2,2.13.97,2.57,2.05.42,1.04.28,2.21-.38,3.12-.63.87-1.37,1.74-2.32,2.73-2.17,2.28-4.32,3.59-6.4,3.89-1.91.29-3.11-.05-4.07-.32-.96-.27-1.65-.46-3.06-.09-2.76.74-5.28,3.65-7.69,8.92-1.22,2.67-1.13,3.68-.97,4.05.18.41.8.63,1.67.9,1.18.37,2.66.84,3.06,2.21.33,1.12-.15,2.35-1.62,4.11-.06.08-6.65,7.78-10.02,6.41-.76-.31-1.64-1.14-1.47-3.31.08-.93.02-2.58-1.21-3.14-1.13-.51-3.24-.03-5.09,1.88-4.2,4.33-6.11,8.84-5.3,9.65.27.27,1.57-.21,2.19-.44,1.17-.43,2.37-.88,3.24-.03.83.8.54,2.09.14,3.25-.17.49-.36,1.03-.57,1.61-.74,2.09-2.72,7.65-1.98,8.58,0,0,.01,0,.04,0,.15,0,.72-.03,1.99-.73,2.13-1.17,4.69-2.93,6.68-4.59-1.19-.46-1.9-1.36-1.96-2.44-.11-2.13,2.27-4.45,6.88-6.71.59-.29,1.32-.05,1.61.55.29.6.05,1.32-.55,1.61-4.61,2.26-5.55,3.96-5.53,4.42,0,.13.27.23.34.26.83.31,1.44,1.03,1.59,1.89.15.85-.17,1.7-.84,2.26-2.1,1.75-4.81,3.61-7.07,4.85-.54.3-1.85,1.02-3.12,1.02Z"/>
          <path class="cls-3" d="m134.46,175.18c-.39,0-.76-.19-1-.53-.37-.55-.23-1.3.32-1.67,1-.68,1.99-1.25,2.86-1.76,2.95-1.71,3.64-2.3,3.26-3.45-1.39-4.17,1.68-5.59,4.93-7.09.6-.28,1.32-.02,1.6.59.28.6.02,1.32-.59,1.6-3.79,1.75-4.27,2.3-3.66,4.14,1.06,3.17-1.69,4.76-4.34,6.29-.88.51-1.79,1.04-2.72,1.67-.21.14-.44.21-.68.21Z"/>
          <path class="cls-3" d="m151.73,215.96c-1.03,0-2.06-.32-2.92-.98-2.96-2.27-6.1-5.94-8-9.34h0c-.58-1.04-.58-2.28,0-3.31.58-1.03,1.64-1.66,2.82-1.69,2.19-.06,3.75-.58,4.91-1.64,1.37-1.24,2.17-3.08,1.99-4.58-.11-.98-.62-1.72-1.51-2.21-.21-.11-.4-.24-.58-.37-1.77-1.26-2.47-3.44-1.77-5.55.73-2.21,2.79-3.67,5.06-3.61,5.17.12,8.23-.94,11.76-2.16.71-.25,1.59-.61,2.52-1,1.91-.8,4.07-1.7,6.09-2.14,2.08-.46,3.86-.23,5.15.65,1.05.72,1.72,1.85,1.94,3.28.51,3.28-2.03,6.85-5.55,11.8-5.36,7.54-13.55,16.71-18.54,21.5-.93.9-2.16,1.35-3.38,1.35Zm-8.82-11.5c1.75,3.14,4.64,6.51,7.37,8.6.94.72,2.3.64,3.17-.2,4.91-4.72,12.97-13.74,18.24-21.15,3.08-4.33,5.5-7.74,5.14-10.05-.12-.77-.42-1.32-.92-1.66-.72-.49-1.88-.59-3.27-.29-1.81.4-3.87,1.26-5.68,2.01-.97.4-1.88.78-2.66,1.05-3.6,1.25-6.99,2.42-12.61,2.29-1.52-.07-2.41,1.03-2.72,1.96-.14.42-.49,1.86.88,2.83.11.08.22.15.35.22,1.56.86,2.54,2.29,2.74,4.04.27,2.28-.82,4.89-2.76,6.65-1.59,1.44-3.7,2.18-6.46,2.26-.48.01-.72.34-.79.48-.08.14-.24.52,0,.95h0Z"/>
          <path class="cls-3" d="m141.71,204.48c-.46,0-.9-.27-1.1-.72-.19-.44-.47-1.01-.77-1.61l-.25-.52c-.49-1.02-1.18-1.91-2.04-2.65-6.52-5.61-18.44-14.68-27.1-20.15-.56-.36-.73-1.1-.38-1.66.36-.56,1.1-.73,1.66-.37,8.75,5.53,20.79,14.7,27.38,20.36,1.11.96,2,2.11,2.64,3.43l.25.52c.31.63.6,1.23.8,1.69.27.61,0,1.32-.61,1.59-.16.07-.32.1-.49.1Z"/>
          <path class="cls-3" d="m147.35,213.06c-.24,0-.48-.09-.67-.26-.4-.37-.43-1-.06-1.4,10.24-11.23,15.88-18.04,18.33-21.1.56-.7.78-1.62.59-2.46-1.1-4.85,1.66-8.61,4.95-9.82.52-.19,1.08.07,1.27.59.19.51-.07,1.08-.59,1.27-2.48.91-4.55,3.79-3.7,7.52.33,1.44-.03,2.95-.98,4.14-2.46,3.08-8.13,9.93-18.41,21.2-.2.21-.46.32-.73.32Z"/>
          <path class="cls-3" d="m156.64,190.14s-.05,0-.07,0c-.66-.04-1.17-.61-1.13-1.28.02-.33.04-.71.06-1.11.06-1.3.14-2.91.35-4.38.1-.66.71-1.11,1.37-1.02.66.1,1.11.71,1.02,1.37-.2,1.35-.27,2.9-.33,4.14-.02.42-.04.8-.06,1.14-.04.64-.57,1.13-1.2,1.13Z"/>
          <path class="cls-3" d="m160.76,188.96s-.02,0-.04,0c-.67-.02-1.19-.58-1.17-1.24.04-1.2.11-2.13.2-3.1.05-.63.11-1.3.16-2.12.04-.66.61-1.17,1.28-1.12.66.04,1.17.62,1.12,1.28-.05.84-.11,1.53-.17,2.17-.08.98-.16,1.83-.19,2.97-.02.65-.55,1.17-1.2,1.17Z"/>
          <path class="cls-3" d="m157.84,184.61c-.25,0-.51-.08-.72-.24-2.47-1.85-3.73-6.54-3.16-9.34.42-2.09,1.68-2.71,2.39-2.89.94-.24,1.83,0,2.5.7.58.6.96,1.53,1.17,2.6.55-.74,1.14-1.32,1.74-1.68,1.02-.62,1.87-.51,2.4-.32.79.29,1.31.93,1.48,1.79.46,2.4-2.06,6.42-4.07,8.24-.49.44-1.26.41-1.7-.09-.09-.1-.17-.22-.22-.35-.12.29-.35.52-.62.64-.04.16-.11.31-.21.45-.24.31-.6.48-.96.48Zm2.24-3.64c-.03.24-.07.47-.11.69,2.1-1.92,3.56-5.25,3.3-5.99,0,.04-.11.06-.26.15-.99.6-2.26,2.69-2.92,5.15Zm-3.06-6.5s-.05,0-.09.02c-.38.1-.55.68-.62,1.02-.33,1.64.26,4.12,1.22,5.72.06-.28.12-.55.2-.82.3-2.42.07-5.17-.62-5.88-.04-.04-.06-.06-.09-.06Z"/>
          <path class="cls-3" d="m149.15,185.95c-.22,0-.45-.06-.65-.19-3.91-2.5-8.67-6.15-13.7-10.01-3.16-2.43-6.44-4.94-9.45-7.11-.54-.39-.66-1.14-.27-1.68.39-.54,1.14-.66,1.68-.27,3.04,2.19,6.32,4.71,9.5,7.15,4.99,3.83,9.71,7.45,13.54,9.89.56.36.72,1.1.37,1.66-.23.36-.62.56-1.02.56Z"/>
          <path class="cls-3" d="m131.02,193.3c-.06,0-.12,0-.18-.01-.66-.1-1.11-.71-1.02-1.37.85-5.79,4.81-12.04,9.4-14.86.57-.35,1.31-.17,1.66.4.35.57.17,1.31-.4,1.66-3.97,2.43-7.53,8.09-8.27,13.15-.09.6-.6,1.03-1.19,1.03Z"/>
          <path class="cls-3" d="m168.76,168.93c-.27,0-.53-.09-.76-.27-1.14-.92-2.41-1.58-3.76-1.96-9.69-2.72-24.35-5.18-35.25-4.54-.66.03-1.23-.47-1.27-1.13-.04-.66.47-1.23,1.13-1.27,11.18-.66,26.16,1.85,36.04,4.63,1.67.47,3.22,1.28,4.62,2.41.52.42.6,1.18.18,1.69-.24.29-.59.45-.94.45Z"/>
          <path class="cls-3" d="m171.85,154.82c-.16,0-.32-.03-.47-.1-4.76-2.02-10.85-4.28-19.83-5.74-.66-.11-1.1-.73-1-1.38.11-.66.73-1.1,1.38-1,9.24,1.5,15.49,3.83,20.38,5.9.61.26.9.97.64,1.58-.19.46-.64.73-1.11.73Z"/>
          <path class="cls-3" d="m156.84,164.83s-.06,0-.1,0c-.66-.05-1.16-.63-1.11-1.3.34-4.32,3.04-10.91,6.79-14.03.51-.43,1.27-.35,1.7.16.42.51.35,1.27-.16,1.7-3.12,2.59-5.63,8.6-5.92,12.36-.05.63-.58,1.11-1.2,1.11Z"/>
          <path class="cls-3" d="m178.63,174.47c-.74,0-1.49-.13-2.21-.41h0c-2.51-.95-5.02-2.19-6.68-3.06-1.3-.68-2.11-1.95-2.19-3.41-.08-1.46.61-2.82,1.84-3.64.6-.4,1.34-.84,2.33-1.39,2.27-1.27,2.75-2.28,2.74-2.56,0-.16-.28-.36-.54-.49-.59-.3-1.13-.64-1.6-1.01-1.28-1.01-1.96-2.61-1.81-4.27.15-1.71,1.14-3.2,2.63-3.99,2.66-1.41,5.4-3.64,8.06-5.8,5.49-4.47,10.68-8.68,15.35-6.13,1.15.63,1.92,1.61,2.27,2.92.85,3.13-.79,8.14-4.85,14.88-3.92,6.51-8.13,12.65-10.29,15.73-1.18,1.68-3.08,2.62-5.05,2.62Zm-1.35-2.66c1.62.62,3.44.06,4.43-1.34,2.14-3.05,6.31-9.14,10.2-15.59,3.61-5.99,5.24-10.61,4.59-13.01-.18-.67-.53-1.12-1.1-1.43-3.25-1.78-7.82,1.94-12.67,5.89-2.75,2.23-5.58,4.54-8.45,6.06-.77.41-1.28,1.19-1.36,2.08-.08.86.25,1.65.9,2.16.34.27.74.52,1.19.74,1.6.8,1.86,1.96,1.87,2.59.04,1.59-1.38,3.27-3.98,4.72-.94.53-1.63.94-2.18,1.3-.51.34-.79.9-.76,1.5s.36,1.11.9,1.4c1.61.84,4.02,2.03,6.42,2.94h0Z"/>
          <path class="cls-3" d="m175.52,173.4c-.17,0-.33-.04-.49-.13-.48-.27-.65-.88-.38-1.35,5.08-8.98,10.68-17.91,12.85-21.34.45-.7.55-1.55.29-2.26-1.68-4.47.16-8.01,2.25-9.68.43-.34,1.05-.27,1.39.15.34.43.27,1.05-.15,1.39-1.64,1.32-2.93,3.96-1.63,7.43.49,1.29.31,2.79-.47,4.02-2.16,3.41-7.74,12.32-12.8,21.26-.18.32-.52.5-.86.5Z"/>
          <path class="cls-3" d="m176.09,151.09c-.2,0-.41-.05-.6-.16-3.32-1.9-4.94-6.1-4.52-8.91.25-1.72,1.25-2.9,2.73-3.25,1.06-.25,2.05.03,2.88.79,2.31,2.13,2.65,7.5,2.39,9.28-.09.66-.7,1.12-1.37,1.02-.11-.02-.21-.05-.31-.09.02.23-.03.48-.16.7-.22.39-.63.61-1.05.61Zm-1.66-9.99c-.06,0-.12,0-.18.02-.18.04-.73.17-.89,1.25-.29,1.95,1.03,5.06,3.22,6.4,0-.09,0-.17,0-.26.24-1.67-.3-5.94-1.64-7.17-.2-.18-.36-.24-.52-.24Z"/>
          <path class="cls-3" d="m180.49,147.79c-.22,0-.44-.06-.63-.18-.57-.35-.74-1.09-.39-1.66.58-.94,1.29-4.71.83-5.6-.11-.01-.21.02-.35.12-.58.44-1.16,1.86-1.15,4.04,0,.67-.54,1.21-1.2,1.21h0c-.66,0-1.2-.54-1.21-1.2,0-2.77.76-4.94,2.11-5.96.75-.57,1.67-.75,2.57-.5.47.13,1.12.49,1.49,1.44.84,2.16-.29,6.54-1.03,7.73-.23.37-.62.57-1.02.57Z"/>
          <path class="cls-3" d="m177.77,154.24c-.51,0-.99-.33-1.15-.85-.46-1.48-.63-2.53-.68-4.16-.02-.67.51-1.22,1.17-1.24.62-.05,1.22.51,1.24,1.17.04,1.42.17,2.24.57,3.51.2.64-.16,1.31-.79,1.51-.12.04-.24.05-.36.05Z"/>
          <path class="cls-3" d="m180.96,151.27c-.51,0-.99-.33-1.15-.85-.48-1.55-.51-1.89-.52-3.83,0-.67.53-1.21,1.2-1.21h0c.66,0,1.2.54,1.21,1.2,0,1.78.02,1.86.41,3.13.2.64-.16,1.31-.79,1.51-.12.04-.24.05-.36.05Z"/>
          <path class="cls-3" d="m85.67,150.69c-.42,0-.82-.27-.95-.7-.16-.52.13-1.08.66-1.24,11.68-3.58,21.41-3.58,30.62,0,.51.2.76.77.57,1.28-.2.51-.78.76-1.28.57-8.89-3.46-17.93-3.44-29.32.05-.1.03-.2.04-.29.04Z"/>
          <path class="cls-3" d="m114.2,171.16c-.24,0-.48-.09-.67-.26-2.83-2.59-9.97-7.84-12.86-9.58-.47-.28-.62-.89-.34-1.36.28-.47.89-.62,1.36-.34,2.99,1.81,10.19,7.09,13.17,9.82.4.37.43,1,.06,1.4-.2.21-.46.32-.73.32Z"/>
          <path class="cls-3" d="m93.98,135.83c-.36,0-.71-.16-.95-.46-.41-.52-.32-1.28.2-1.69,2.93-2.32,3.71-4.62,2.79-8.2-.17-.64.22-1.3.87-1.47.64-.16,1.3.22,1.47.87,1.16,4.5.04,7.79-3.63,10.69-.22.17-.48.26-.75.26Z"/>
          <path class="cls-3" d="m38.01,99.11c-.24,0-.48-.07-.68-.21-1.71-1.17-3.15-3.64-3.85-6.6-.28,1.75-.07,3.75.57,4.96.21.39.18.86-.06,1.23s-.67.57-1.11.53l-1.29-.11c-.4-.04-.76-.27-.95-.62-.04-.08-.59-1.1-.85-2.88-.69.85-1.5,1.58-2.45,2-.15.07-.32.1-.49.1h-.98c-.51,0-.97-.33-1.14-.81-.17-.49,0-1.02.4-1.34,3.52-2.75,3.36-6.54,2.76-11.6l-.15-1.17c-.6-4.76-1.36-10.67,3.15-16.51,5.16-6.69,16.29-9.85,25.26-3.3,6.89,5.03,7.74,14.15,7.78,20.57.04,6.49-3.52,11.44-9.54,13.24l-.3.09c-2.47.71-4.97.71-7.29.11-.16.34-.46.59-.86.67-4.81.96-7.65,1.61-7.67,1.61-.09.02-.18.03-.27.03Zm-4.51-9.2c1.12,0,2.07.75,2.33,1.84.5,2.1,1.42,3.9,2.48,4.85.86-.19,2.67-.59,5.26-1.11-2.71-1.51-4.92-3.94-6.15-7.05-1.08-2.73-2.1-6.04-2.6-7.77-.55-1.87.36-3.82,2.16-4.63,3.76-1.71,4.77-3.85,5.3-5.9.62-2.42.83-5.2.58-7.84-.01-.15,0-.3.04-.45-3.68.45-7.34,2.16-10.08,5.71-3.9,5.05-3.27,9.97-2.67,14.73l.15,1.19c.2,1.63.41,3.41.36,5.2.3-.24.71-.34,1.1-.23.63.18,1,.84.83,1.48-.02.06-.03.12-.05.18.29-.13.6-.2.93-.21.02,0,.04,0,.05,0Zm11.83-26.48c.1,2.5-.15,5.05-.73,7.32-.61,2.36-1.91,5.34-6.63,7.49-.69.32-1.05,1.06-.84,1.76.5,1.69,1.48,4.92,2.53,7.56,2.19,5.52,8.12,8.45,13.78,6.82l.27-.08c5.01-1.5,7.86-5.48,7.82-10.92-.02-3.5-.29-7.85-1.76-11.74l-4.97.36c-.56.04-1.05-.29-1.23-.81-1.63-4.74-4.46-7.4-8.24-7.76Zm4.65-.97c2.06,1.21,4.09,3.36,5.54,7.07l3.17-.23c-.96-1.74-2.25-3.31-3.96-4.56-1.31-.96-2.95-1.75-4.76-2.28Z"/>
          <path class="cls-3" d="m35.02,91.8c-2.6,0-5.03-1.52-6.09-4l-.12-.31c-.66-1.69-.57-3.53.28-5.19.88-1.72,2.45-2.98,4.32-3.46l2.09-.54c.65-.17,1.3.22,1.47.86s-.22,1.3-.86,1.47l-2.09.54c-1.2.31-2.21,1.12-2.78,2.23-.53,1.03-.59,2.17-.18,3.21l.1.25c.83,1.94,3,2.95,5.06,2.36l2.75-.79c.64-.18,1.31.18,1.49.82.18.64-.18,1.31-.82,1.49l-2.75.79c-.62.18-1.24.26-1.85.26Z"/>
          <path class="cls-3" d="m21.67,92.4c-.56,0-1.06-.39-1.18-.97-1.6-7.87,2.37-13.63,6.97-20.31.96-1.39,1.95-2.84,2.92-4.34.36-.56,1.11-.72,1.67-.36.56.36.72,1.11.36,1.67-.99,1.54-1.99,2.99-2.96,4.4-4.46,6.48-7.98,11.6-6.59,18.46.13.65-.29,1.29-.94,1.42-.08.02-.16.02-.24.02Z"/>
          <path class="cls-3" d="m44.3,61.62c-.12,0-.25-.02-.37-.06-.63-.2-.98-.88-.78-1.52,1.04-3.22-.2-6.5-2.81-7.45-.62-.23-.95-.92-.72-1.54s.92-.94,1.55-.72c3.83,1.4,5.71,6,4.27,10.46-.16.51-.64.84-1.15.84Z"/>
          <path class="cls-3" d="m41.84,80.18c-.39,0-.7-.31-.71-.7-.02-1.24.52-2.32,1.46-2.97.99-.67,2.29-.76,3.56-.24.36.15.54.56.39.92-.15.36-.56.54-.92.39-.84-.34-1.63-.31-2.23.1-.55.37-.85,1.02-.84,1.78,0,.39-.31.71-.7.72h0Z"/>
          <path class="cls-3" d="m53.02,76.77s-.06,0-.09,0c-.39-.05-.66-.4-.62-.79.13-1.07.85-2,1.86-2.43,1.18-.49,2.53-.25,3.71.65.31.24.37.68.13.99-.24.31-.68.37-.99.13-.77-.59-1.61-.76-2.3-.47-.55.23-.93.73-1,1.3-.04.36-.35.62-.7.62Z"/>
          <ellipse class="cls-3" cx="46.46" cy="81.98" rx="1.38" ry="1.62" transform="translate(-18.18 13.42) rotate(-13.77)"/>
          <ellipse class="cls-3" cx="56.74" cy="80.38" rx="1.38" ry="1.62" transform="translate(-17.5 15.82) rotate(-13.77)"/>
          <ellipse class="cls-3" cx="52.43" cy="89.6" rx="1.22" ry="1.08" transform="translate(-44.63 126.42) rotate(-80.44)"/>
          <circle class="cls-3" cx="54.32" cy="85.85" r=".88"/>
          <circle class="cls-3" cx="120.17" cy="151.49" r=".84"/>
          <path class="cls-3" d="m66.14,132.14c-2.06,0-4.02-.73-5.51-1.94-3.8-3.06-4.5-9.78-1.52-14.66,3.76-6.16,11.13-9.26,14.13-10.31,1.31-.46,2.78-.03,3.65,1.07.62.78.85,1.78.64,2.75-.21.97-.84,1.78-1.73,2.23l-.23.11c-.51.25-1.07.54-1.64.84,1.85-.23,3.77-.28,5.55-.14,1.48.12,2.68,1.22,2.92,2.69.15.92-.1,1.86-.7,2.58-.3.37-.68.66-1.11.86.11.28.19.58.22.89.14,1.36-.51,2.57-1.57,3.19.18.35.3.72.35,1.12.19,1.64-.77,3.09-2.27,3.54-1.04.31-2.01.65-2.87,1.01-.59.25-1.15.65-1.63,1.15-2.02,2.14-4.41,3.03-6.69,3.03Zm8.17-24.68c-.09,0-.19.02-.28.05-2.75.96-9.52,3.79-12.87,9.29-2.59,4.25-1.56,9.48.98,11.53,2.29,1.84,6.09,2.14,8.94-.87.71-.75,1.53-1.33,2.44-1.71.94-.4,2-.77,3.12-1.1.37-.11.61-.48.56-.87-.05-.39-.23-.56-.34-.64-.08-.06-.23-.14-.43-.15-.45.09-.91.19-1.38.31-1.6.44-3.04,1.02-3.52,1.22-.6.25-1.3-.02-1.56-.62s0-1.3.58-1.58c1.23-.58,2.58-1.02,3.87-1.34.44-.12.89-.23,1.34-.32.13-.03.26-.05.39-.06.57-.11,1.1-.19,1.58-.26.43-.06.73-.45.69-.88-.05-.53-.45-.85-.88-.81-2.84.26-5.17.77-6.56,1.43-.59.28-1.3.03-1.59-.56-.29-.59-.05-1.3.53-1.6,2.65-1.35,6.54-1.72,9.33-1.79.31,0,.5-.18.59-.29.09-.11.23-.33.17-.65-.06-.37-.36-.65-.74-.68-3.27-.26-7.03.2-9.8,1.19-.64.23-1.35-.02-1.71-.6s-.26-1.33.24-1.8c1.83-1.72,4.51-3.07,6.47-4.05l.23-.11c.32-.16.43-.44.46-.59.03-.15.06-.45-.17-.73-.17-.22-.43-.34-.69-.34Z"/>
          <path class="cls-3" d="m67.64,110.36c-.06,0-.11,0-.17-.01-.66-.09-1.12-.7-1.02-1.36l.71-5.03c.28-1.97,1.78-3.55,3.74-3.92l21.07-4.01c1.24-.24,2.48.13,3.4,1s1.34,2.09,1.17,3.35l-.1.73c-.09.66-.7,1.12-1.36,1.02-.66-.09-1.12-.7-1.02-1.36l.1-.73c.07-.47-.09-.94-.44-1.27-.35-.33-.82-.47-1.29-.38l-21.07,4.01c-.94.18-1.67.94-1.8,1.89l-.71,5.03c-.09.6-.6,1.04-1.19,1.04Z"/>
          <path class="cls-3" d="m94.09,110.16c-.06,0-.11,0-.17-.01-.66-.09-1.12-.7-1.02-1.36l.4-2.86c.09-.66.7-1.12,1.36-1.02.66.09,1.12.7,1.02,1.36l-.4,2.86c-.09.6-.6,1.04-1.19,1.04Z"/>
          <path class="cls-3" d="m80.82,115.29c-.57,0-1.07-.4-1.18-.98-.12-.65.3-1.28.96-1.41l8.57-1.63c.66-.12,1.28.31,1.41.96.12.65-.3,1.28-.96,1.41l-8.57,1.63c-.08.01-.15.02-.23.02Z"/>
          <g>
            <path class="cls-1" d="m76.4,104.54l.14-.97c.2-1.39-1.03-2.55-2.4-2.29l-2.47.47c-.86.16-1.52.86-1.64,1.72l-.14.97c-.2,1.39,1.03,2.55,2.4,2.29l2.47-.47c.86-.16,1.52-.86,1.64-1.72Z"/>
            <path class="cls-3" d="m71.9,107.97c-.83,0-1.64-.32-2.25-.9-.76-.72-1.12-1.77-.97-2.8l.14-.98c.19-1.38,1.25-2.48,2.61-2.74l2.47-.47c1.02-.2,2.09.12,2.85.84s1.12,1.77.97,2.8l-.14.98s0,0,0,0c-.2,1.38-1.25,2.48-2.61,2.74l-2.47.47c-.2.04-.4.06-.6.06Zm2.61-5.53c-.05,0-.11,0-.16.02l-2.47.47c-.35.07-.62.35-.67.71l-.14.98c-.04.27.05.54.25.72.2.19.46.27.73.22l2.47-.47c.35-.07.62-.35.67-.71l.14-.97c.04-.27-.05-.54-.25-.72-.16-.15-.36-.23-.58-.23Zm1.88,2.1h0,0Z"/>
          </g>
          <path class="cls-3" d="m94.98,126.66c-.94,0-1.86-.15-2.74-.49-5.45-2.08-7.94-7.11-6.67-13.46.13-.65.76-1.08,1.42-.94.52.1.89.53.96,1.03.12-.5.35-.97.72-1.37,1.17-1.3,2.63-2.37,4.48-3.27.21-.1.34-.31.34-.54v-.61l-.17.03c-1.03.2-2.08-.07-2.88-.75-.8-.68-1.24-1.67-1.21-2.72.05-1.51,1.07-2.79,2.53-3.2,5.25-1.46,7.41-.07,8.3,1.34.62.98.9,2.27.85,3.82-.02.49.13.92.4,1.17.55.51.91,1.16,1.06,1.95.06.29.18.69.44.9.89.71,1.51,1.75,1.8,3,.09.37.23.66.43.86,1.19,1.19,2.17,3.62,1.01,6.53-1.13,2.82-6.27,6.72-11.07,6.72Zm-7.12-13.12c-.45,2.62-.62,8.14,5.23,10.38,3.92,1.5,9.74-2.45,10.71-4.88.73-1.82.2-3.26-.47-3.93-.52-.52-.88-1.2-1.07-2.02-.16-.71-.5-1.29-.96-1.66-.66-.53-1.11-1.33-1.3-2.32-.05-.27-.16-.47-.32-.63-.79-.72-1.22-1.83-1.18-3.02.04-1.05-.13-1.9-.48-2.46-.63-.99-2.73-1.11-5.62-.31-.45.12-.75.51-.77.96,0,.31.12.6.36.8.24.2.55.28.85.22l.51-.1c.63-.12,1.27.04,1.76.44.49.41.78,1,.78,1.64v.95c0,1.15-.67,2.21-1.7,2.71-1.56.76-2.78,1.64-3.74,2.71-.23.26-.24.65-.01.92.12.15.29.24.49.26.2.01.39-.05.54-.18.6-.52,1.36-1.13,2.25-1.72,1-.68,2.01-1.23,3.03-1.64.61-.25,1.32.05,1.57.66.25.61-.04,1.32-.66,1.57-.71.29-1.39.65-2.01,1.04-1.32.82-2.63,1.92-3.89,3.26-.14.14-.21.33-.2.53,0,.2.09.39.24.53.29.27.73.27,1.02,0,1.1-1.02,2.67-2.34,4.42-3.4.49-.3.99-.58,1.49-.81.61-.28,1.32-.02,1.6.58.28.6.03,1.31-.57,1.6-.44.21-.88.45-1.31.72-1.01.62-1.99,1.37-2.72,1.97-.16.13-.19.3-.19.39,0,.09.01.27.17.42.18.17.45.2.65.07,1.18-.71,2.86-1.68,4.22-2.3.6-.28,1.32-.02,1.6.59.28.6.01,1.32-.59,1.6-1.26.58-2.86,1.51-3.99,2.18-1.13.68-2.59.52-3.55-.39-.25-.24-.46-.52-.61-.82-1.09.42-2.38.21-3.29-.63-.63-.58-.99-1.37-1.01-2.22-.02-.55.11-1.09.36-1.57-.35-.19-.66-.45-.92-.76-.47-.57-.7-1.25-.71-1.94Z"/>
        </g>
      </g>
      <g>
        <circle class="cls-1" cx="108.21" cy="53.6" r="34.31"/>
        <g>
          <g>
            <path class="cls-1" d="m117.07,61.89l-9.49-21.96c-.69-1.59-2.51-2.35-4.12-1.72l-17.94,7.03s.26,2.11,0,3.45l10.89,25.19,19.2-7.52c.47-.18,1.25-.67,1.56-1.49,0,0,.29-1.31,0-.03.03-.08.06-.15.08-.23.29-1.22-.05-2.43-.19-2.73Z"/>
            <path class="cls-1" d="m117.19,64.88s0-.02,0-.03c0,0,0,.02,0,.03h0Z"/>
          </g>
          <path class="cls-7" d="m117.27,64.62c.29-1.22-.05-2.43-.19-2.73l-9.49-21.96c-.69-1.59-2.51-2.35-4.12-1.72l-17.94,7.03,10.89,25.19,18.77-7.35c.55-.22,1.12-.1,1.52.23,0,0,.33.35.56,1.31Z"/>
          <circle class="cls-1" cx="100.13" cy="50.06" r="5.33"/>
          <g>
            <path class="cls-3" d="m96.42,71.14c-.27,0-.54-.16-.65-.43l-10.89-25.19c-.16-.36,0-.78.37-.93.36-.15.78.01.93.37l10.62,24.56,18.13-7.1c.78-.31,1.65-.16,2.26.38.63.55.89,1.39.69,2.25-.09.38-.47.62-.85.53-.38-.09-.62-.47-.53-.85.08-.34,0-.65-.24-.85-.22-.19-.53-.24-.82-.13l-18.77,7.35c-.08.03-.17.05-.26.05Z"/>
            <path class="cls-3" d="m96.42,74.88c-.38,0-.75-.23-.91-.6l-10.89-25.19c-.08-.18-.1-.39-.06-.58.19-.97.06-2.6-.01-3.14-.06-.45.2-.88.62-1.05l17.94-7.03c2.12-.83,4.49.16,5.39,2.25l9.49,21.96c.17.36.61,1.81.25,3.35-.29,1.26-1.36,2.09-2.25,2.44l-19.2,7.52c-.12.05-.24.07-.36.07Zm-9.86-26.31l10.39,24.04,18.31-7.17c.33-.13.92-.49,1.04-1.04.23-.97-.06-1.95-.13-2.09l-9.5-21.99c-.48-1.1-1.73-1.62-2.84-1.18l-17.24,6.75c.05.71.09,1.78-.03,2.68Z"/>
            <path class="cls-3" d="m100.13,56.1c-3.33,0-6.04-2.71-6.04-6.04s2.71-6.04,6.04-6.04,6.04,2.71,6.04,6.04-2.71,6.04-6.04,6.04Zm0-10.66c-2.55,0-4.62,2.07-4.62,4.62s2.07,4.62,4.62,4.62,4.62-2.07,4.62-4.62-2.07-4.62-4.62-4.62Z"/>
            <path class="cls-3" d="m95.17,56.33c-.11,0-.22-.03-.32-.08-.35-.18-.49-.61-.31-.95l1.66-3.24c.12-.24.37-.39.63-.39h2.6l1.04-3.22c.12-.37.51-.58.89-.46.37.12.58.52.46.89l-1.19,3.72c-.09.29-.37.49-.67.49h-2.68l-1.46,2.86c-.12.25-.37.39-.63.39Z"/>
            <path class="cls-3" d="m102.56,63.45c-.28,0-.55-.17-.66-.45-.14-.36.04-.78.4-.92l4.89-1.92c.36-.14.78.04.92.4.14.36-.04.78-.4.92l-4.89,1.92c-.08.03-.17.05-.26.05Z"/>
          </g>
        </g>
        <path class="cls-3" d="m108.21,89.04c-19.54,0-35.44-15.9-35.44-35.44,0-3.04.38-6.05,1.14-8.96.16-.61.78-.97,1.38-.81.61.16.97.78.81,1.38-.71,2.72-1.07,5.54-1.07,8.39,0,18.29,14.88,33.18,33.18,33.18,16.07,0,29.8-11.46,32.65-27.25.11-.62.7-1.02,1.32-.91.62.11,1.03.7.92,1.32-3.04,16.87-17.71,29.12-34.88,29.12Z"/>
        <path class="cls-3" d="m142.44,57.06s-.05,0-.08,0c-.62-.04-1.1-.58-1.05-1.21.05-.74.07-1.49.07-2.25,0-15.51-10.53-28.79-25.61-32.31-.61-.14-.99-.75-.85-1.36.14-.61.75-.99,1.36-.85,16.11,3.76,27.36,17.95,27.36,34.52,0,.81-.03,1.62-.08,2.4-.04.6-.54,1.06-1.13,1.06Z"/>
        <path class="cls-3" d="m92.25,92.72c-.16,0-.32-.03-.48-.11-.57-.27-.81-.94-.55-1.51l2.92-6.25c.26-.57.94-.81,1.51-.55.57.27.81.94.55,1.51l-2.92,6.25c-.19.41-.6.65-1.03.65Z"/>
        <g>
          <polygon class="cls-1" points="145.33 57.25 156.73 24.77 130.56 16.92 119.16 49.4 145.33 57.25"/>
          <path class="cls-4" d="m129.78,52.59c2.43-8.45,14.12-9.69,19.3-6.01l-3.75,10.67-15.55-4.67Z"/>
          <polygon class="cls-7" points="145.85 21.51 144.31 25.9 155.19 29.16 156.52 24.71 145.85 21.51"/>
          <g>
            <path class="cls-3" d="m145.33,58.25c-.09,0-.19-.01-.29-.04l-26.17-7.86c-.26-.08-.48-.26-.6-.5-.12-.24-.14-.52-.05-.78l11.4-32.48c.17-.5.71-.77,1.22-.62l26.17,7.86c.26.08.48.26.6.5.12.24.14.52.05.78l-11.4,32.48c-.14.41-.53.66-.94.66Zm-24.89-9.5l24.27,7.28,10.74-30.61-24.27-7.28-10.74,30.61Z"/>
            <path class="cls-3" d="m155.19,29.87c-.07,0-.14,0-.2-.03l-10.88-3.26c-.19-.06-.34-.18-.43-.36-.09-.17-.1-.37-.04-.56l1.54-4.39c.13-.37.54-.56.9-.43.37.13.56.53.43.9l-1.3,3.69,10.17,3.05c.37.11.59.51.47.88-.09.31-.37.51-.68.51Z"/>
            <path class="cls-3" d="m143.42,41.04c-.07,0-.14,0-.21-.03l-11.89-3.59c-.38-.11-.59-.51-.47-.88.11-.37.51-.59.88-.47l11.89,3.59c.38.11.59.51.47.88-.09.31-.37.5-.68.5Z"/>
            <path class="cls-3" d="m129.78,53.3c-.06,0-.12,0-.18-.02-.38-.1-.61-.48-.51-.86.75-2.93,3.42-5.79,6.78-7.29,4.14-1.85,8.94-1.55,13.53.84.35.18.48.61.3.96-.18.35-.61.48-.96.3-5.38-2.8-9.65-1.98-12.29-.8-2.99,1.33-5.34,3.83-5.99,6.35-.08.32-.37.53-.69.53Z"/>
            <path class="cls-3" d="m131.53,32.62c-.2,0-.39-.08-.53-.24-.26-.29-.23-.74.06-1l3.1-2.75c.29-.26.74-.23,1,.06.26.29.23.74-.06,1l-3.1,2.75c-.14.12-.3.18-.47.18Z"/>
            <path class="cls-3" d="m135.59,33.9c-.2,0-.39-.08-.53-.24-.26-.29-.23-.74.06-1l3.1-2.75c.29-.26.74-.24,1,.06.26.29.23.74-.06,1l-3.1,2.75c-.13.12-.3.18-.47.18Z"/>
            <path class="cls-3" d="m139.65,35.19c-.2,0-.39-.08-.53-.24-.26-.29-.23-.74.06-1l3.1-2.75c.29-.26.74-.24,1,.06.26.29.23.74-.06,1l-3.1,2.75c-.13.12-.3.18-.47.18Z"/>
            <path class="cls-3" d="m143.71,36.48c-.2,0-.39-.08-.53-.24-.26-.29-.23-.74.06-1l3.1-2.75c.29-.26.74-.24,1,.06.26.29.23.74-.06,1l-3.1,2.75c-.13.12-.3.18-.47.18Z"/>
            <circle class="cls-3" cx="123.68" cy="47.35" r=".86"/>
            <circle class="cls-3" cx="126" cy="48.01" r=".86"/>
          </g>
        </g>
        <g>
          <path class="cls-1" d="m76.72,42.02l-10.49-22.93c4.09-4.55,11.25-8.87,18.88-9.11,2.49-3.62,5.76-8.41,19.07-8.99l11.09,25.22c-6.89,1.05-13.31,3.27-19.92,7.36-8.39,3.35-11.48,4.59-18.64,8.45"/>
          <path class="cls-2" d="m114.11,23.58l1.16,2.63s-10.2,1.24-19.92,7.36c3.43-7.83,14.47-10.16,18.76-9.99Z"/>
          <g>
            <path class="cls-3" d="m76.72,43.01c-.11,0-.21-.02-.32-.05-.26-.09-.47-.28-.59-.53l-10.49-22.93c-.16-.36-.1-.78.16-1.08,3.69-4.11,10.85-8.98,19.08-9.42C87.12,5.33,90.85.58,104.13,0c.41,0,.79.22.95.59l11.09,25.22c.12.28.11.61-.04.88-.15.27-.41.46-.72.5-7.13,1.09-13.34,3.38-19.54,7.22-.05.03-.1.06-.15.08-8.27,3.3-11.37,4.54-18.53,8.4-.15.08-.31.12-.47.12Zm-9.31-23.73l9.78,21.37c6.59-3.52,9.8-4.8,17.73-7.97,6.04-3.73,12.09-6.04,18.94-7.24l-10.3-23.43c-12.23.69-15.21,5.02-17.61,8.51-.18.26-.49.44-.8.45-7.5.23-14.12,4.51-17.73,8.31Z"/>
            <path class="cls-3" d="m95.35,34.56c-.39,0-.75-.23-.91-.6l-10.25-23.59c-.22-.5.01-1.09.51-1.31.5-.22,1.09.01,1.31.51l9.41,21.65c3.2-4.76,11.46-8.06,18.61-8.64.56-.05,1.03.36,1.07.91.04.55-.36,1.02-.91,1.07-9.4.76-16.61,5.43-17.9,9.31-.13.39-.49.66-.9.68-.01,0-.03,0-.04,0Z"/>
            <path class="cls-3" d="m72,21.65c-.18,0-.36-.07-.5-.21-.28-.28-.28-.73,0-1,2.94-2.94,7.48-5.29,11.58-5.98.39-.06.75.2.82.58.06.39-.2.75-.58.82-4.64.78-8.73,3.5-10.81,5.58-.14.14-.32.21-.5.21Z"/>
            <path class="cls-3" d="m73.83,25.55c-.19,0-.37-.07-.51-.22-.27-.28-.26-.73.02-1,2.34-2.25,6.55-4.93,11.34-5.74.39-.06.75.2.82.58.06.39-.2.75-.58.82-3.68.62-7.84,2.73-10.59,5.37-.14.13-.31.2-.49.2Z"/>
            <path class="cls-3" d="m75.67,29.61c-.19,0-.37-.07-.51-.22-.27-.28-.26-.73.02-1,2.25-2.16,6.31-4.79,10.96-5.68.38-.07.76.18.83.56.07.38-.18.76-.56.83-3.58.69-7.6,2.77-10.24,5.31-.14.13-.31.2-.49.2Z"/>
          </g>
        </g>
        <g>
          <path class="cls-1" d="m108.21,81.98c.74,1.13.87,2.61,0,3.9l13.74,9.83c1.14.82,2.72.63,3.63-.44l16.17-18.93c.87-1.29.74-2.78,0-3.9l-15.76-11.28-17.79,20.82"/>
          <path class="cls-2" d="m114.19,74.99l15.76,11.28s.34.6.44,1.58c.08.78.05,1.76.05,1.76l-4.8,5.62c-.79.92-2.06,1.26-3.19.85h0s1.95.22,1.97-1.05h0c0-.9-.42-1.76-1.16-2.28l-15.04-10.76,5.98-7Z"/>
          <polygon class="cls-3" points="128.09 62.73 131.19 64.92 127.77 69.29 126.71 67.25 124.35 67.11 128.09 62.73"/>
          <g>
            <circle class="cls-3" cx="124.66" cy="71.22" r=".86"/>
            <circle class="cls-3" cx="127.73" cy="73.42" r=".86"/>
            <circle class="cls-3" cx="130.81" cy="75.62" r=".86"/>
            <circle class="cls-3" cx="122.44" cy="74.07" r=".86"/>
            <circle class="cls-3" cx="125.51" cy="76.27" r=".86"/>
            <circle class="cls-3" cx="128.59" cy="78.47" r=".86"/>
            <path class="cls-3" d="m126,90.5c-.16,0-.33-.06-.46-.17-.3-.25-.33-.7-.08-1l12.61-14.76c.26-.3.7-.33,1-.08.3.25.33.7.08,1l-12.61,14.76c-.14.16-.34.25-.54.25Z"/>
            <path class="cls-3" d="m130.44,90.3s-.04,0-.06,0c-.39-.03-.68-.37-.65-.76.04-.48.03-.94-.01-1.38-.08-.82-.54-1.58-1.24-2.08l-14.71-10.52c-.32-.23-.39-.67-.16-.99.23-.32.67-.39.99-.16l14.71,10.52c1.03.74,1.7,1.86,1.82,3.09.05.52.06,1.07.02,1.64-.03.37-.34.65-.71.65Z"/>
            <path class="cls-3" d="m123.04,87.64c-.14,0-.29-.04-.41-.13l-8.25-5.9c-.32-.23-.39-.67-.16-.99.23-.32.67-.39.99-.16l8.25,5.9c.32.23.39.67.16.99-.14.19-.36.3-.58.3Z"/>
            <path class="cls-3" d="m122.8,96.62c-.34,0-.7-.08-1.05-.25-.35-.17-.5-.59-.34-.94s.59-.5.94-.34c.2.09.48.18.71.05.18-.1.31-.32.35-.61.06-.44-.18-.92-.62-1.23l-15-10.73c-.32-.23-.39-.67-.16-.99.23-.32.67-.39.99-.16l15,10.73c.87.62,1.33,1.61,1.2,2.58-.1.74-.49,1.34-1.08,1.66-.29.16-.61.24-.94.24Z"/>
            <path class="cls-3" d="m123.52,97.18c-.77,0-1.55-.24-2.22-.72l-13.66-9.77c-.44-.31-.55-.92-.25-1.36.58-.86.58-1.91,0-2.81-.24-.37-.21-.85.08-1.19l17.79-20.82c.33-.39.91-.46,1.33-.16l14.98,10.71c1.86,1.33,2.33,3.88,1.06,5.78-.02.03-.07.1-.1.13l-16.11,18.85c-.75.88-1.82,1.34-2.89,1.34Zm-14.03-11.6l12.96,9.27c.78.56,1.83.43,2.46-.3l16.06-18.8c.66-1.05.41-2.37-.57-3.07l-14.24-10.18-16.75,19.61c.5,1.12.53,2.35.08,3.47Z"/>
            <path class="cls-3" d="m127.45,70s-.08,0-.13-.01c-.25-.04-.45-.22-.54-.45l-.59-1.61-1.89-.11c-.27-.02-.5-.18-.61-.43s-.06-.53.11-.74l3.74-4.37c.25-.3.7-.33,1-.08.3.25.33.7.08,1l-2.81,3.29.93.06c.28.02.53.2.62.46l.33.91,2.95-3.45c.26-.3.7-.33,1-.08.3.25.33.7.08,1l-3.74,4.37c-.14.16-.33.25-.54.25Z"/>
          </g>
        </g>
      </g>
      <g>
        <g>
          <path class="cls-7" d="m6.21,56.08l-.61,8.27c-.1,1.34,1.29,2.29,2.51,1.71l7.47-3.6c1.21-.59,1.34-2.27.22-3.03l-6.85-4.66c-1.11-.76-2.63-.03-2.73,1.32Z"/>
          <path class="cls-4" d="m7.34,67.23c-.54,0-1.07-.16-1.54-.48-.82-.56-1.27-1.48-1.19-2.47l.61-8.27h0c.07-.99.65-1.84,1.54-2.27.89-.43,1.92-.36,2.74.2l6.85,4.66c.82.56,1.27,1.48,1.19,2.47-.07.99-.65,1.84-1.54,2.27l-7.47,3.6c-.38.19-.79.28-1.2.28Zm-.14-11.07l-.61,8.27c-.03.4.22.61.33.68.11.07.4.23.76.06l7.47-3.6c.36-.17.42-.5.43-.63,0-.13,0-.46-.33-.68l-6.85-4.66c-.33-.22-.64-.11-.76-.06-.12.06-.4.23-.43.63Z"/>
        </g>
        <g>
          <circle class="cls-7" cx="75.27" cy="191.93" r="3.93"/>
          <path class="cls-4" d="m75.27,196.85c-2.72,0-4.92-2.21-4.92-4.93s2.21-4.92,4.92-4.92,4.92,2.21,4.92,4.92-2.21,4.93-4.92,4.93Zm0-7.87c-1.62,0-2.94,1.32-2.94,2.94s1.32,2.94,2.94,2.94,2.94-1.32,2.94-2.94-1.32-2.94-2.94-2.94Z"/>
        </g>
        <g>
          <rect class="cls-1" x="103.82" y="212.45" width="12.38" height="12.38" rx="2.75" ry="2.75" transform="translate(186.82 -13.75) rotate(45)"/>
          <path class="cls-4" d="m110.01,227.25c-.96,0-1.92-.37-2.65-1.1h0l-4.86-4.86c-.71-.71-1.1-1.65-1.1-2.65s.39-1.94,1.1-2.65l4.86-4.86c1.46-1.46,3.84-1.46,5.3,0l4.86,4.86c.71.71,1.1,1.65,1.1,2.65s-.39,1.94-1.1,2.65l-4.86,4.86c-.73.73-1.69,1.1-2.65,1.1Zm-1.25-2.5c.67.67,1.83.66,2.49,0l4.86-4.86c.33-.33.52-.77.52-1.24s-.18-.91-.52-1.24l-4.86-4.86c-.69-.69-1.8-.69-2.49,0l-4.86,4.86c-.33.33-.52.77-.52,1.24s.18.91.52,1.24l4.86,4.86Z"/>
        </g>
        <g>
          <path class="cls-2" d="m18.5,113.7c-1.08.45-2.37.1-3.06-.91-.67-.97-2.19-2.72-4.78-3.57-2.82-.92-5.28-.21-6.21.14-1.32.5-2.79-.17-3.29-1.49-.5-1.32.19-2.78,1.49-3.29,1.78-.67,5.4-1.59,9.6-.22,4.02,1.31,6.35,4.02,7.39,5.51.8,1.16.52,2.75-.64,3.55-.16.11-.32.2-.49.26Z"/>
          <path class="cls-4" d="m17.55,114.88c-1.14,0-2.25-.55-2.93-1.52-.6-.87-1.95-2.43-4.28-3.19-2.52-.82-4.72-.18-5.56.13-1.83.69-3.88-.24-4.57-2.07-.68-1.81.24-3.86,2.06-4.56,1.91-.72,5.77-1.71,10.27-.24,4.29,1.4,6.79,4.29,7.9,5.89,1.11,1.61.71,3.82-.89,4.93-.21.15-.44.27-.67.37,0,0,0,0,0,0-.43.18-.88.26-1.33.26Zm.95-1.18h0,0Zm-10.71-5.92c.96,0,2.04.13,3.17.5,2.88.94,4.55,2.88,5.29,3.95.41.6,1.2.83,1.87.55.1-.04.21-.1.3-.16.71-.49.88-1.46.39-2.17-.97-1.39-3.15-3.91-6.88-5.13-3.92-1.28-7.28-.42-8.94.2-.8.31-1.21,1.21-.91,2.01.3.81,1.21,1.21,2.01.91.66-.25,2-.66,3.71-.66Z"/>
        </g>
        <g>
          <path class="cls-7" d="m161.4,52.82c-.47-.67-.56-1.58-.15-2.35.58-1.11,1.95-1.55,3.07-.97l8.26,4.3c1.11.58,1.55,1.95.97,3.07-.58,1.11-1.95,1.55-3.07.97l-8.26-4.3c-.34-.18-.61-.42-.82-.72Z"/>
          <path class="cls-4" d="m171.52,59.09c-.52,0-1.03-.12-1.51-.37l-8.26-4.3c-.47-.24-.87-.6-1.17-1.03-.7-1-.78-2.3-.22-3.38.4-.77,1.08-1.34,1.92-1.61.83-.26,1.72-.19,2.49.22l8.26,4.3c.77.4,1.34,1.08,1.61,1.91.26.83.19,1.72-.22,2.5-.4.77-1.08,1.34-1.92,1.61-.32.1-.66.15-.99.15Zm-8.25-8.85c-.13,0-.26.02-.39.06-.33.1-.59.33-.75.63-.22.42-.19.93.09,1.33h0c.12.17.27.31.46.4l8.26,4.3c.3.16.65.19.98.09.33-.1.59-.33.75-.63.16-.31.19-.65.09-.98-.1-.33-.33-.59-.63-.75l-8.26-4.3c-.19-.1-.39-.15-.59-.15Z"/>
        </g>
        <g>
          <path class="cls-2" d="m144.26,130.84c-1.17.49-2.57.32-3.61-.55-1.49-1.25-1.69-3.47-.45-4.96l9.23-11.06c1.24-1.49,3.47-1.69,4.96-.45,1.49,1.25,1.69,3.47.45,4.96l-9.23,11.06c-.38.45-.84.79-1.35,1Z"/>
          <path class="cls-4" d="m142.91,132.1c-1.04,0-2.06-.36-2.89-1.05-.93-.77-1.5-1.86-1.6-3.06-.11-1.2.26-2.37,1.03-3.3l9.23-11.06c.77-.92,1.85-1.49,3.06-1.6,1.2-.11,2.37.26,3.3,1.03.93.77,1.5,1.86,1.6,3.06.11,1.2-.26,2.37-1.03,3.3l-9.23,11.06c-.46.56-1.06,1-1.73,1.28h0c-.56.23-1.15.35-1.73.35Zm1.35-1.26h0,0Zm7.89-16.85c-.08,0-.16,0-.23.01-.67.06-1.28.38-1.71.9l-9.23,11.06c-.43.52-.64,1.17-.58,1.85s.38,1.28.9,1.71c.72.6,1.72.76,2.59.4.37-.16.71-.4.97-.72l9.23-11.06c.43-.52.64-1.17.58-1.85-.06-.67-.38-1.28-.9-1.71-.46-.38-1.03-.59-1.62-.59Z"/>
        </g>
        <g>
          <circle class="cls-1" cx="155.67" cy="85.26" r="4.8"/>
          <path class="cls-4" d="m155.67,91.06c-3.2,0-5.79-2.6-5.79-5.79s2.6-5.8,5.79-5.8,5.8,2.6,5.8,5.8-2.6,5.79-5.8,5.79Zm0-9.61c-2.1,0-3.81,1.71-3.81,3.81s1.71,3.81,3.81,3.81,3.81-1.71,3.81-3.81-1.71-3.81-3.81-3.81Z"/>
        </g>
      </g>
    </g>
  </g>
</svg>