<?xml version="1.0" encoding="UTF-8"?>
<svg id="Layer_2" data-name="Layer 2" xmlns="http://www.w3.org/2000/svg" viewBox="0 0 98.64 182.48">
  <defs>
    <style>
      .cls-1 {
        fill: #fff;
      }

      .cls-2 {
        fill: #565656;
      }

      .cls-3 {
        fill: #363636;
      }

      .cls-4 {
        fill: #8dc05f;
      }

      .cls-5 {
        fill: #8f8f8f;
      }

      .cls-6 {
        fill: #ffdfbc;
      }

      .cls-7 {
        fill: #ffd964;
      }
    </style>
  </defs>
  <g id="_人物" data-name="人物">
    <g>
      <g>
        <path class="cls-7" d="m35.41,111.25s7.64,1.13,22.1,1.13,22.35-1.13,22.35-1.13l.92,6.47s-10.8,1.87-23.02,1.87-23.27-1.87-23.27-1.87l.92-6.47Z"/>
        <path class="cls-1" d="m64.25,112.38l.2,5.15c.05,1.2-.87,2.21-2.06,2.27s-2.81.12-4.76.12c-1.95,0-3.58-.06-4.76-.12s-2.11-1.07-2.06-2.27l.2-5.15h2.5s2.49,2.19,2.49,2.19c-.64-.02-1.22-.05-1.65-.08-.4-.02-.74.29-.76.69l-.08,1.71c-.02.35.25.65.6.67.69.04,1.92.08,3.52.08,1.6,0,2.83-.05,3.52-.08.35-.02.62-.32.6-.67l-.08-1.71c-.02-.4-.36-.71-.76-.69-.43.03-1,.06-1.65.08l2.19-2.08,2.8-.1Z"/>
        <path class="cls-5" d="m79.37,111.25c2.64-2.31,4.51-5.12,3.55-8.5-.96-3.39-.91-5.69-.91-10.06l.12-.04c1.1-.1,2.25-.36,3.44-.8,4.77-1.76,8.04-6.7,8.79-13.73s.33-20.09-2.51-24.95c-2.28-3.89-6.15-5.03-14.41-7.62l-10.76-2.13s-4.53,8.93-9.06,8.93-8.33-9.16-8.33-9.16l-11.49,2.37c-8.26,2.59-12.13,3.73-14.41,7.62-2.85,4.86-3.27,17.92-2.51,24.95.75,7.03,4.02,11.97,8.79,13.73,1.24.46,2.43.72,3.57.81v.03c0,4.37.05,6.68-.91,10.06-.96,3.39.91,6.19,3.55,8.5,0,0,9.63,1.13,21.62,1.13s21.87-1.13,21.87-1.13Z"/>
        <path class="cls-6" d="m70.42,16.25c1.33,3.6.51,10,.51,10,2.09-1.35,3.78-3.92,3.78-3.92,1.01.56,1.68,2.1,1.28,4.49-.43,2.63-1.85,4.11-2.63,4.74l.56.62s.43,2.47.54,3.72l.84-.24s1.51.61,1.61,1.42c.56,4.43.81,8.2.06,11.9-.59,2.91-2.24,5.88-3.51,8.06-.41.71-.5,1.56-.23,2.33.15.44.92,1.07.54,1.41-3.25,2.96-8.44,2.63-8.44,2.63,0,0-5.4-7.57-2.54-14.62-.86,1.16-2.07,2.17-3.34,2.99-1.11.72-2.55.72-3.66,0-1.27-.83-2.48-1.83-3.34-2.99,0,0,1.12,4.1.28,7.57-.83,3.47-3.18,7.05-3.18,7.05,0,0-4.44.25-8.08-2.63.2-.47.39-.97.54-1.41.27-.78.18-1.62-.23-2.33-1.27-2.18-2.92-5.14-3.51-8.06-.75-3.69-.5-7.47.06-11.9.1-.81.8-1.42,1.61-1.42h0s.84.24.84.24c.12-1.24.54-3.71.54-3.72l.56-.62c-.78-.63-2.19-2.11-2.63-4.74-.61-3.7,1.32-5.37,3.15-4.5,0,0,.36,1.63,1.84,3.49.05-4.53-.29-12.02,5.31-18.38,6.68-4.11,17.57-.07,20.86,8.81Z"/>
        <path class="cls-1" d="m57.63,37.02c2.44,0,4.46-6.01,4.46-6.01-.9.43-3.08.56-4.46.56-1.38,0-3.57-.13-4.46-.56,0,0,2.02,6.01,4.46,6.01Z"/>
        <path class="cls-7" d="m70.93,26.26c2.22-1.88,4.67-3.61,4.69-8.53.02-7.85-11.22-23.25-23.63-13.99l-2.43.89c-6.5,1.03-11.76,11.57-5.31,21.2l.02-.93c-.33-10.9,2.94-14.58,5.29-17.45-.06,2.5.72,7.36,3.81,9.56.53.38,1.22-.27.88-.83-1.03-1.74-1.92-3.94-2-6.31-.03-.76.91-1.14,1.38-.54,2.56,3.23,8.62,7.93,16.03,6.93l.76.54s.57,4.4.51,9.47Z"/>
        <path class="cls-4" d="m61.02,56.77s-.71,4.36-1.39,7.33c0,0,3.65,36.33,3.65,46.65l-5.64,5.37-5.64-5.37c0-10.32,3.65-46.65,3.65-46.65-.68-2.96-1.39-7.33-1.39-7.33,0,0,2.18-2.23,3.39-2.23s3.39,2.23,3.39,2.23Z"/>
        <path class="cls-3" d="m88.93,180.94c0,11.42-4.85-44.42-5.75-50.53-.9-6.11-.82-5.68-1.07-8.32s-1.33-3.73-1.33-3.73c0,0-12.27,1.24-23.02,1.24s-23.27-1.24-23.27-1.24c0,0-1.08,1.09-1.33,3.73-.25,2.64-.17,2.21-1.07,8.32-.9,6.11-4.99,39.14-5.75,50.53h27.95c1.01-9.54,3.35-28.2,3.35-28.2,0,0,2.34,18.66,3.35,28.2,0,0,27.95-.33,27.95,0Z"/>
        <path class="cls-3" d="m57.63,42.38c.23,2.71,2.33,7.03,5.67,4.32l.17-6.03s-1.94,2.07-5.85,1.71Z"/>
        <path class="cls-3" d="m54.32,33.7c1.54.59,5.54.34,6.63,0,0,0-1.16,3.32-3.31,3.32s-3.31-3.32-3.31-3.32Z"/>
      </g>
      <g>
        <circle class="cls-3" cx="68.01" cy="108.42" r=".64"/>
        <path class="cls-3" d="m44.6,30.43c-.43,0-.8-.32-.84-.76-1.54-14.6,2.21-19.18,4.95-22.52l.2-.24c.23-.28.62-.39.95-.26.34.13.56.45.56.82-.07,3,.91,6.95,2.89,8.69.35.31.39.85.08,1.2-.31.35-.85.39-1.2.08-1.94-1.7-3.01-4.84-3.35-7.7-2.29,3.1-4.62,7.95-3.38,19.76.05.47-.29.89-.76.93-.03,0-.06,0-.09,0Z"/>
        <path class="cls-3" d="m44.25,26.67c-.27,0-.54-.13-.71-.38-3.31-4.94-4-10.84-1.83-15.8,1.59-3.64,4.55-6.22,7.71-6.72.46-.08.9.24.97.71.07.46-.24.9-.71.97-2.6.41-5.06,2.6-6.42,5.72-1.93,4.42-1.3,9.72,1.68,14.17.26.39.16.92-.23,1.18-.15.1-.31.14-.47.14Z"/>
        <path class="cls-3" d="m41.89,32.43c-.19,0-.38-.06-.54-.19-.89-.72-2.45-2.37-2.93-5.27-.38-2.33.12-4.21,1.37-5.15.86-.65,1.95-.74,2.98-.26.42.2.61.71.41,1.13-.2.42-.71.61-1.13.41-.32-.15-.78-.26-1.23.08-.56.42-1.04,1.57-.72,3.52.38,2.34,1.62,3.65,2.32,4.22.36.3.42.83.12,1.2-.17.21-.41.31-.66.31Z"/>
        <path class="cls-3" d="m41.48,61.64c-.11,0-.23-.02-.34-.07-.43-.19-.63-.69-.44-1.12.19-.45.37-.93.51-1.35.18-.54.12-1.14-.16-1.63-1.54-2.64-3.04-5.47-3.61-8.32-.76-3.75-.53-7.58.05-12.17.16-1.23,1.21-2.16,2.46-2.16.66,0,1.29.26,1.75.73.47.47.72,1.09.72,1.75,0,1.47,0,4.23.04,6.18.02,1.06.34,2.08.93,2.96.43.65.88,1.25,1.32,1.83,1.27,1.68,2.47,3.27,3.02,5.73.1.46-.19.91-.65,1.01-.46.1-.91-.19-1.01-.65-.47-2.1-1.51-3.48-2.71-5.07-.46-.6-.93-1.22-1.38-1.91-.77-1.15-1.19-2.49-1.22-3.87-.04-1.97-.04-4.74-.04-6.22,0-.21-.08-.4-.23-.55-.15-.15-.34-.23-.55-.23-.39,0-.72.29-.77.67-.56,4.42-.78,8.09-.07,11.62.6,2.96,2.43,6.11,3.42,7.8.54.92.65,2.03.3,3.04-.16.46-.35.99-.56,1.48-.14.32-.45.51-.78.51Z"/>
        <path class="cls-3" d="m44.63,45.27c-.44,0-.81-.33-.85-.78-.35-4-.55-7.71-.65-11.65-.01-.44-.41-.54-.49-.56-.15-.03-.41-.04-.55.26-.25.57-.33,1.65-.4,2.6-.02.29-.04.58-.07.85-.04.47-.45.81-.93.77-.47-.04-.81-.46-.77-.93.02-.26.04-.53.07-.81.09-1.14.17-2.32.53-3.13.44-.98,1.42-1.48,2.45-1.27,1.06.22,1.83,1.11,1.85,2.18.1,3.91.3,7.58.65,11.55.04.47-.31.88-.77.92-.02,0-.05,0-.07,0Z"/>
        <path class="cls-3" d="m47.56,44.89c-.17,0-.34-.05-.49-.15-.2-.14-.33-.35-.36-.59-.37-2.78-.66-8.46-.66-11.3,0-2.3-.5-2.39-.77-2.44-.27-.05-.89-.16-1.23,1.2-.11.46-.57.73-1.03.62-.46-.11-.73-.57-.62-1.03.67-2.71,2.61-2.57,3.18-2.47.98.18,1.52.77,1.82,1.55.14,0,.29.02.42.07,1.32.46,1.3,2.67,1.3,3.4-.02,2.87.18,6.86.49,9.92.04.43-.24.82-.66.92l-1.22.28c-.06.01-.12.02-.19.02Z"/>
        <path class="cls-3" d="m49.9,64.27c-.23,0-.46-.09-.62-.27-.44-.47-.22-.86.25-1.72.65-1.18,2.01-3.64,2.46-5.65.54-2.39.41-5.21-.34-7.56-.54-1.7-.56-2.13-.63-3.96-.02-.54-.05-1.2-.09-2.07-.14-2.61-.31-3.56-.63-3.66-.16-.05-.22-.01-.27.02-.21.14-.49.63-.6,1.56-.06.47-.48.8-.95.74-.47-.06-.8-.48-.74-.95.16-1.34.63-2.3,1.36-2.77.5-.33,1.09-.41,1.69-.23,1.52.46,1.67,2.01,1.84,5.2.05.88.07,1.55.09,2.09.07,1.76.08,2.03.55,3.5.84,2.62.98,5.79.38,8.46-.51,2.25-1.94,4.85-2.63,6.1-.13.25-.24.43-.29.54-.04.15-.12.29-.24.4-.16.15-.37.23-.58.23Z"/>
        <path class="cls-3" d="m37.3,60.83c-.22,0-.44-.12-.55-.32-2.73-4.77-7.14-6.3-10.29-5.7-.34.07-.68-.16-.75-.51-.07-.35.16-.68.51-.75,3.61-.68,8.6,1,11.64,6.32.17.31.07.7-.24.87-.1.06-.21.08-.32.08Z"/>
        <path class="cls-3" d="m26.33,69.37c-.31,0-.58-.23-.63-.55-.05-.35.19-.67.54-.72,3.41-.5,6.99-.83,7.03-.84.34-.02.66.23.69.58.03.35-.22.66-.58.69-.04,0-3.59.34-6.96.83-.03,0-.06,0-.09,0Z"/>
        <path class="cls-3" d="m35.89,112.1c-.2,0-.4-.07-.56-.21-3.49-3.05-4.73-6.12-3.81-9.38.89-3.11.88-5.28.88-9.23v-.6c0-.47.38-.85.85-.85h0c.47,0,.85.38.85.85v.6c0,3.96,0,6.35-.94,9.7-.73,2.56.35,5.06,3.29,7.63.35.31.39.85.08,1.2-.17.19-.4.29-.64.29Z"/>
        <path class="cls-3" d="m26.33,181.79s-.04,0-.06,0c-.47-.03-.82-.44-.79-.91.78-11.6,4.91-44.81,5.76-50.6.81-5.49.83-5.69,1-7.58l.06-.7c.21-2.25.98-3.51,1.37-4.01l.89-6.85c.06-.47.5-.79.95-.73,4.49.57,12.79,1.06,18.32,1.23.47.01.84.41.82.88-.01.47-.43.82-.88.82-5.24-.16-12.96-.61-17.64-1.14l-.81,6.27c-.02.19-.11.36-.24.49,0,0-.88.96-1.09,3.21l-.06.7c-.18,1.93-.2,2.14-1.01,7.67-.85,5.78-4.97,38.91-5.74,50.46-.03.45-.4.79-.85.79Z"/>
        <path class="cls-3" d="m51.46,120.04s-.02,0-.03,0c-2.98-.11-13.02-.53-17.06-1.49-.46-.11-.74-.57-.63-1.02.11-.46.57-.74,1.02-.63,3.89.92,13.79,1.34,16.73,1.45.47.02.84.41.82.88-.02.46-.39.82-.85.82Z"/>
        <path class="cls-3" d="m42.26,119.37s-.06,0-.1,0c-.47-.05-.8-.47-.75-.94l.75-6.58c.05-.47.48-.8.94-.75.47.05.8.47.75.94l-.75,6.58c-.05.43-.42.75-.84.75Z"/>
        <path class="cls-3" d="m54.28,181.79s-.06,0-.09,0c-.47-.05-.81-.47-.76-.93,1-9.44,3.33-28.03,3.35-28.21.06-.47.49-.8.95-.74.47.06.8.48.74.95-.02.19-2.35,18.76-3.35,28.18-.05.44-.42.76-.84.76Z"/>
        <path class="cls-3" d="m70.66,30.43s-.06,0-.09,0c-.47-.05-.81-.47-.76-.93,1.46-13.9-2.02-18.15-4.57-21.26l-.2-.25c-.3-.36-.24-.9.12-1.2.36-.3.9-.24,1.2.12l.2.25c2.73,3.34,6.48,7.92,4.94,22.52-.05.44-.42.76-.84.76Z"/>
        <path class="cls-3" d="m70.93,27.11c-.24,0-.48-.1-.65-.3-.3-.36-.26-.9.1-1.2l.41-.34c2.04-1.7,3.96-3.31,3.97-7.54.01-4.62-4.2-11.92-9.84-14.76-4.1-2.06-8.4-1.56-12.43,1.45-.38.28-.91.2-1.19-.17-.28-.38-.2-.91.17-1.19,5.79-4.32,10.92-3.26,14.21-1.6,6.37,3.2,10.79,11.15,10.78,16.28,0,5.02-2.44,7.05-4.58,8.84l-.4.34c-.16.14-.35.2-.55.2Z"/>
        <path class="cls-3" d="m73.37,32.43c-.25,0-.49-.11-.66-.31-.3-.36-.24-.9.12-1.2.7-.57,1.94-1.88,2.32-4.22.35-2.12-.24-3.27-.86-3.61-.41-.23-.56-.74-.33-1.16.23-.41.75-.56,1.16-.33,1.49.82,2.13,2.83,1.71,5.37-.48,2.9-2.04,4.54-2.93,5.27-.16.13-.35.19-.54.19Z"/>
        <path class="cls-3" d="m73.78,61.64c-.33,0-.64-.19-.78-.51-.21-.49-.41-1.02-.56-1.48-.34-1.01-.23-2.11.3-3.04.98-1.69,2.81-4.84,3.41-7.8.71-3.53.49-7.2-.07-11.62-.05-.38-.38-.67-.77-.67-.21,0-.4.08-.55.23-.15.15-.23.34-.22.55,0,2.69,0,4.78-.04,6.22-.03,1.38-.45,2.72-1.22,3.87-.46.69-.93,1.31-1.38,1.91-1.21,1.59-2.25,2.97-2.71,5.07-.1.46-.56.75-1.01.65-.46-.1-.75-.56-.65-1.01.55-2.46,1.75-4.05,3.02-5.73.44-.58.89-1.18,1.32-1.83.59-.88.91-1.91.93-2.96.03-1.42.04-3.5.04-6.18,0-.66.25-1.28.72-1.75.47-.47,1.09-.73,1.75-.73,1.25,0,2.3.93,2.46,2.16.58,4.59.81,8.42.05,12.17-.58,2.84-2.08,5.68-3.61,8.32-.29.5-.35,1.09-.16,1.63.14.42.32.9.51,1.35.19.43-.01.93-.44,1.12-.11.05-.23.07-.34.07Z"/>
        <path class="cls-3" d="m70.62,45.27s-.05,0-.07,0c-.47-.04-.81-.45-.77-.92.34-3.96.55-7.64.65-11.55.03-1.07.79-1.97,1.85-2.18,1.03-.21,2.01.29,2.43,1.23.37.86.46,2.04.55,3.18.02.28.04.55.07.81.04.47-.3.88-.77.93-.49.04-.88-.3-.93-.77-.03-.27-.05-.55-.07-.84-.07-.95-.15-2.03-.39-2.58-.14-.32-.41-.31-.56-.28-.08.02-.48.12-.49.56-.1,3.95-.31,7.65-.65,11.65-.04.44-.41.78-.85.78Z"/>
        <path class="cls-3" d="m67.7,44.89c-.06,0-.12,0-.19-.02l-1.22-.28c-.42-.09-.7-.49-.66-.92.31-3.06.51-7.05.49-9.92,0-.73-.02-2.94,1.3-3.4.14-.05.28-.07.42-.07.3-.78.84-1.37,1.82-1.55.58-.1,2.52-.23,3.18,2.47.11.46-.17.92-.62,1.03-.46.11-.92-.17-1.03-.62-.34-1.37-.96-1.25-1.23-1.2-.2.04-.54.1-.69,1.12,0,.05,0,.09-.02.14-.04.31-.06.7-.06,1.18,0,2.84-.29,8.52-.66,11.3-.03.24-.16.45-.36.59-.14.1-.31.15-.49.15Z"/>
        <path class="cls-3" d="m65.36,64.27c-.21,0-.41-.07-.57-.22-.12-.11-.21-.25-.25-.41-.05-.11-.16-.29-.29-.54-.69-1.25-2.12-3.85-2.63-6.1-.6-2.67-.46-5.83.38-8.46.47-1.48.48-1.75.55-3.5.02-.54.05-1.21.09-2.09.17-3.19.32-4.75,1.84-5.2.6-.18,1.19-.1,1.69.23.73.48,1.2,1.44,1.36,2.77.06.47-.28.89-.74.95-.45.06-.89-.28-.95-.74-.11-.93-.39-1.42-.6-1.56-.05-.03-.12-.07-.27-.02-.33.1-.49,1.06-.63,3.66-.05.87-.07,1.53-.09,2.07-.07,1.82-.09,2.26-.63,3.96-.75,2.35-.88,5.18-.34,7.56.46,2.02,1.81,4.48,2.47,5.66.47.85.68,1.24.25,1.71-.17.18-.4.28-.63.28Z"/>
        <path class="cls-3" d="m77.96,60.83c-.11,0-.22-.03-.32-.08-.31-.17-.41-.56-.24-.87,3.04-5.32,8.03-7.01,11.64-6.32.35.07.57.4.51.75-.07.35-.41.57-.75.51-3.17-.6-7.57.93-10.29,5.7-.12.21-.33.32-.55.32Z"/>
        <path class="cls-3" d="m88.93,69.37s-.06,0-.09,0c-3.38-.49-6.93-.83-6.96-.83-.35-.03-.61-.34-.58-.69.03-.35.34-.6.69-.58.04,0,3.62.34,7.03.84.35.05.59.37.54.72-.05.32-.32.55-.63.55Z"/>
        <path class="cls-3" d="m81.17,93.53c-3.03,0-5.77-1.18-7.85-3.48-2.53-2.79-4.29-6.59-5.98-10.26l-.65-1.39c-1.8-3.85-2.02-6.08-.85-8.55.18-.37.19-.81.03-1.2-.47-1.18-.91-2.29-1.24-3.15-.24-.64-.17-1.33.19-1.91.37-.58.97-.93,1.66-.98,3.1-.22,5.59-1.79,6.28-2.27.48-.34,1.06-.46,1.64-.36.56.1,1.05.42,1.37.89.67.96,1.95,2.81,3.05,4.31.12.17.31.27.52.27,2.07.06,2.49.63,4.14,3.3,1.25,2.03,2.17,2.53,3.33,3.17.45.25.92.51,1.45.87.38.27.48.8.21,1.18-.27.39-.8.48-1.18.21-.45-.31-.88-.55-1.29-.78-1.21-.67-2.46-1.36-3.95-3.77q-1.52-2.46-2.74-2.5c-.74-.02-1.41-.37-1.85-.97-1.11-1.52-2.4-3.38-3.07-4.35-.08-.12-.2-.17-.28-.18-.12-.02-.25,0-.36.08-.78.54-3.6,2.32-7.13,2.57-.19.01-.3.13-.34.2-.04.07-.11.21-.04.38.33.86.76,1.95,1.23,3.12.33.83.31,1.76-.07,2.56-.94,1.98-.73,3.71.85,7.1l.65,1.4c1.65,3.56,3.35,7.24,5.7,9.83,2.67,2.94,6.47,3.7,10.71,2.14,4.53-1.67,7.53-6.42,8.24-13.02.77-7.18.23-19.94-2.4-24.43-2.06-3.52-5.62-4.63-13.39-7.07l-.53-.17c-.45-.14-.7-.62-.56-1.07.14-.45.62-.7,1.07-.56l.53.17c7.96,2.49,11.96,3.75,14.35,7.83,2.95,5.04,3.42,18.03,2.62,25.47-.78,7.27-4.19,12.54-9.34,14.44-1.61.59-3.2.89-4.7.89Z"/>
        <path class="cls-3" d="m70.77,72.46c-.71,0-1.43-.09-2.13-.3-.38-.11-.59-.5-.48-.88.11-.38.51-.59.88-.48,3.05.88,6.6-.83,8-2.98.21-.33.65-.42.98-.21s.42.65.21.98c-1.36,2.09-4.35,3.87-7.45,3.87Z"/>
        <path class="cls-3" d="m34.09,93.53c-1.51,0-3.09-.29-4.7-.89-5.16-1.9-8.56-7.16-9.34-14.44-.8-7.44-.33-20.43,2.62-25.47,2.4-4.09,6.39-5.34,14.35-7.83l.53-.17c.45-.14.92.11,1.07.56.14.45-.11.93-.56,1.07l-.53.17c-7.78,2.44-11.33,3.55-13.39,7.07-2.63,4.48-3.17,17.25-2.4,24.43.71,6.61,3.71,11.35,8.24,13.02,4.24,1.56,8.04.8,10.71-2.14,2.35-2.59,4.05-6.27,5.7-9.83l.65-1.4c1.59-3.39,1.8-5.12.85-7.1-.38-.8-.41-1.73-.07-2.56.47-1.17.9-2.27,1.23-3.12.07-.18,0-.32-.04-.38-.04-.07-.15-.19-.34-.2-3.53-.25-6.35-2.03-7.13-2.57-.11-.08-.24-.11-.36-.08-.08.01-.19.06-.28.18-.82,1.19-2.02,2.91-3.07,4.35-.43.59-1.11.95-1.85.97q-1.22.03-2.74,2.5c-1.49,2.41-2.74,3.1-3.95,3.77-.42.23-.85.47-1.29.78-.39.27-.92.17-1.18-.21-.27-.39-.17-.92.21-1.18.52-.36.99-.62,1.45-.87,1.16-.64,2.07-1.14,3.33-3.17,1.66-2.68,2.08-3.25,4.14-3.3.21,0,.4-.1.52-.27,1.04-1.43,2.23-3.13,3.05-4.31.32-.47.81-.79,1.37-.89.58-.11,1.15.02,1.64.36.69.48,3.18,2.05,6.28,2.27.68.05,1.29.41,1.66.98.37.57.44,1.27.19,1.91-.33.86-.76,1.97-1.24,3.15-.16.39-.15.83.03,1.2,1.17,2.47.95,4.71-.85,8.55l-.65,1.39c-1.7,3.68-3.46,7.48-5.98,10.26-2.08,2.3-4.82,3.48-7.85,3.48Z"/>
        <path class="cls-3" d="m44.49,72.46c-3.1,0-6.09-1.78-7.45-3.87-.21-.33-.12-.77.21-.98.33-.21.77-.12.98.21,1.4,2.15,4.95,3.87,8,2.98.37-.11.77.11.88.48.11.38-.11.77-.48.88-.7.2-1.42.3-2.13.3Z"/>
        <path class="cls-3" d="m57.63,43.23c-2.83,0-5.8-1.01-6.75-2.3-.28-.38-.2-.91.18-1.19.38-.28.91-.2,1.19.18.5.67,2.79,1.61,5.39,1.61s4.89-.94,5.39-1.61c.28-.38.81-.46,1.19-.18.38.28.46.81.18,1.19-.96,1.29-3.92,2.3-6.75,2.3Z"/>
        <path class="cls-3" d="m57.63,53.19c-.8,0-1.6-.23-2.29-.68-1.52-.99-2.72-2.06-3.56-3.2-.28-.38-.2-.91.18-1.19.38-.28.91-.2,1.19.18.72.97,1.77,1.91,3.12,2.79.83.54,1.9.54,2.74,0,1.35-.88,2.4-1.81,3.12-2.79.28-.38.81-.46,1.19-.18.38.28.46.81.18,1.19-.84,1.14-2.04,2.21-3.56,3.2-.7.45-1.5.68-2.29.68Z"/>
        <path class="cls-3" d="m62.86,59.04c-.19,0-.38-.06-.54-.19l-.41-.34c-1.24-1.01-2.41-1.97-3.58-2.88-.41-.31-.97-.31-1.38,0-1.17.9-2.33,1.85-3.56,2.86l-.44.36c-.36.3-.9.24-1.2-.12s-.24-.9.12-1.2l.44-.36c1.24-1.01,2.41-1.97,3.6-2.89,1.02-.78,2.44-.78,3.45,0,1.2.92,2.38,1.89,3.62,2.91l.41.34c.36.3.42.83.12,1.2-.17.21-.41.31-.66.31Z"/>
        <path class="cls-3" d="m57.63,116.56c-.48,0-.96-.18-1.34-.54l-4.17-3.97c-.63-.6-.98-1.44-.97-2.31.2-11,3.39-43.19,3.63-45.59-.67-2.95-1.37-7.2-1.37-7.24-.08-.46.24-.9.7-.98.48-.07.9.24.98.7,0,.04.71,4.37,1.38,7.27.02.09.03.18.02.28-.03.34-3.43,34.29-3.63,45.59,0,.4.15.77.44,1.04l4.18,3.97c.09.09.24.09.33,0l4.18-3.97c.29-.28.45-.65.44-1.04-.2-11.3-3.6-45.25-3.63-45.59,0-.09,0-.19.02-.28.67-2.9,1.38-7.23,1.38-7.27.08-.46.51-.77.98-.7.46.08.78.51.7.98,0,.04-.7,4.29-1.37,7.24.24,2.4,3.43,34.59,3.63,45.59.02.86-.34,1.71-.97,2.31l-4.18,3.97c-.38.36-.86.54-1.34.54Z"/>
        <path class="cls-3" d="m79.37,112.1c-.24,0-.47-.1-.64-.29-.31-.35-.27-.89.08-1.2,2.94-2.57,4.02-5.07,3.29-7.63-.95-3.34-.95-5.73-.94-9.7v-.6c0-.47.38-.85.85-.85h0c.47,0,.85.38.85.85v.6c0,3.94,0,6.12.88,9.23.92,3.26-.32,6.32-3.81,9.38-.16.14-.36.21-.56.21Z"/>
        <path class="cls-3" d="m88.93,181.79c-.44,0-.82-.34-.85-.79-.77-11.56-4.89-44.69-5.74-50.46-.81-5.53-.83-5.74-1.01-7.67l-.06-.7c-.21-2.25-1.09-3.21-1.1-3.22-.12-.13-.21-.3-.23-.48l-.81-6.27c-4.68.53-12.4.98-17.64,1.14-.52,0-.86-.36-.88-.82-.01-.47.35-.86.82-.88,5.53-.17,13.83-.66,18.32-1.23.46-.05.89.27.95.73l.89,6.85c.38.5,1.16,1.76,1.37,4.01l.06.7c.17,1.89.19,2.09,1,7.58.85,5.79,4.98,39,5.76,50.6.03.47-.32.87-.79.91-.02,0-.04,0-.06,0Z"/>
        <path class="cls-3" d="m63.8,120.04c-.46,0-.83-.36-.85-.82-.02-.47.35-.86.82-.88,2.94-.11,12.84-.52,16.73-1.45.45-.11.92.17,1.02.63.11.46-.17.92-.63,1.02-4.05.96-14.08,1.38-17.06,1.49,0,0-.02,0-.03,0Z"/>
        <path class="cls-3" d="m73,119.37c-.43,0-.79-.32-.84-.75l-.75-6.58c-.05-.47.28-.89.75-.94.46-.05.89.28.94.75l.75,6.58c.05.47-.28.89-.75.94-.03,0-.06,0-.1,0Z"/>
        <path class="cls-3" d="m57.63,120.78c-1.66,0-3.27-.04-4.81-.12-1.65-.09-2.93-1.5-2.87-3.15l.2-5.15c.02-.47.44-.82.88-.82.47.02.83.41.82.88l-.2,5.15c-.03.74.52,1.35,1.26,1.39,3.01.16,6.43.16,9.44,0,.73-.04,1.29-.65,1.26-1.39l-.2-5.15c-.02-.47.35-.86.82-.88.47-.02.86.35.88.82l.2,5.15c.06,1.65-1.22,3.07-2.87,3.15-1.53.08-3.15.12-4.81.12Z"/>
        <path class="cls-3" d="m57.63,118.35c-1.59,0-2.82-.04-3.56-.08-.74-.04-1.31-.67-1.27-1.41l.08-1.71c.02-.39.19-.74.47-1,.29-.26.65-.38,1.04-.36.42.03.99.06,1.63.08.39.01.7.34.68.73-.01.39-.34.67-.73.69-.65-.02-1.24-.05-1.67-.08l-.09,1.65c.62.03,1.83.08,3.41.08s2.79-.05,3.41-.08l-.08-1.64c-.44,0-1.03.04-1.68.06-.39-.02-.72-.29-.73-.69-.01-.39.29-.72.68-.73.64-.02,1.21-.05,1.63-.08.38-.02.75.11,1.04.36.29.26.46.61.47,1l.08,1.71c.04.74-.54,1.37-1.27,1.41-.74.04-1.97.08-3.56.08Z"/>
        <path class="cls-3" d="m59.62,64.95h-3.99c-.47,0-.85-.38-.85-.85s.38-.85.85-.85h3.99c.47,0,.85.38.85.85s-.38.85-.85.85Z"/>
        <path class="cls-3" d="m60.98,181.79c-.43,0-.8-.32-.84-.76-.99-9.42-3.32-27.99-3.35-28.18-.06-.47.27-.89.74-.95.45-.06.89.27.95.74.02.19,2.35,18.77,3.35,28.21.05.47-.29.89-.76.93-.03,0-.06,0-.09,0Z"/>
        <path class="cls-3" d="m63.27,107.73c-.11,0-.22-.03-.33-.09-.3-.18-.4-.57-.22-.87,2.97-4.99,8.58-11.12,10.8-11.12.04,0,.07,0,.1,0,.43.04.77.3.92.71.74,2.03-3.46,8.4-4.77,10.3-.2.29-.6.37-.89.17-.29-.2-.37-.6-.17-.89,2.39-3.49,4.77-7.8,4.65-9.01-1.31.27-6.31,5.03-9.56,10.49-.12.2-.33.31-.55.31Z"/>
        <path class="cls-3" d="m65.7,17.1s-.04,0-.06,0c-7.73-.53-11.88-6.17-12.79-9.83-.11-.46.16-.92.62-1.03.46-.11.92.16,1.03.62.79,3.18,4.44,8.07,11.26,8.54.47.03.82.44.79.91-.03.45-.4.79-.85.79Z"/>
        <path class="cls-3" d="m70.42,17.64c-.31,0-.61-.17-.76-.47-.48-.97-1.85-1.68-3.44-2.5-2.42-1.25-5.43-2.81-7.28-6.23-.22-.41-.07-.93.35-1.15.41-.22.93-.07,1.15.34,1.6,2.96,4.23,4.32,6.56,5.53,1.86.96,3.46,1.79,4.19,3.26.21.42.04.93-.38,1.14-.12.06-.25.09-.38.09Z"/>
        <path class="cls-3" d="m57.63,37.73c-2.81,0-4.77-5.41-5.14-6.49-.09-.27-.01-.57.2-.76.21-.19.52-.23.78-.11.7.34,2.64.49,4.16.49s3.46-.15,4.16-.49c.26-.12.56-.08.78.11.21.19.29.49.2.76-.37,1.08-2.33,6.49-5.14,6.49Zm-3.31-5.68c.87,2.06,2.21,4.26,3.31,4.26s2.44-2.2,3.31-4.26c-1.26.21-2.75.23-3.31.23s-2.05-.02-3.31-.23Z"/>
        <path class="cls-3" d="m57.63,34.73c-1.64,0-2.73-.11-3.52-.35-.38-.11-.59-.51-.47-.88.11-.37.51-.59.88-.47.41.12,1.17.29,3.11.29s2.7-.16,3.11-.29c.38-.11.77.1.88.47.11.38-.1.77-.47.88-.79.24-1.88.35-3.52.35Z"/>
        <path class="cls-3" d="m61.43,48.45c-.62,0-1.14-.18-1.55-.39-2-1.04-3.08-3.96-3.1-5.68,0-.47.37-.85.84-.86,0,0,0,0,0,0,.47,0,.84.37.85.84.01,1.25.87,3.5,2.19,4.19.65.34,1.34.23,2.12-.31.39-.27.92-.17,1.18.22.27.39.17.92-.22,1.18-.86.59-1.65.8-2.32.8Z"/>
        <path class="cls-3" d="m48.57,18.59c-.18,0-.37-.08-.49-.23-.22-.27-.18-.67.09-.9,1.19-.97,2.85-1.27,5.24-.95.35.05.59.37.55.72s-.36.59-.72.55c-2.64-.36-3.7.22-4.26.68-.12.1-.26.14-.4.14Z"/>
        <path class="cls-3" d="m51.07,23.6c-.19,0-.38-.09-.5-.25-.18-.24-.18-.57,0-.8.52-.63,1.73-.88,2.29-.61.27.13.41.42.35.71s-.31.5-.6.51h0s-.2.01-.62.13c-.35.1-.64.23-.65.24-.09.04-.18.06-.27.06Z"/>
        <path class="cls-3" d="m66.69,18.59c-.14,0-.29-.05-.4-.14-.56-.46-1.62-1.03-4.26-.68-.35.05-.67-.2-.72-.55s.2-.67.55-.72c2.38-.32,4.05-.02,5.24.95.27.22.31.62.09.9-.13.15-.31.23-.49.23Z"/>
        <path class="cls-3" d="m64.19,23.6c-.09,0-.18-.02-.27-.06-.01,0-.3-.14-.65-.24-.42-.12-.62-.14-.63-.14-.29-.02-.54-.23-.59-.52s.08-.57.35-.7c.56-.27,1.77-.02,2.29.61.19.23.19.56,0,.8-.12.16-.31.25-.5.25Z"/>
        <path class="cls-3" d="m57.63,28.94c-.33,0-.61,0-.85-.02-.35-.03-.61-.33-.59-.69s.35-.61.69-.59c.42.03,1.08.03,1.5,0,.36-.02.66.23.69.59s-.23.66-.59.69c-.24.02-.52.02-.85.02Z"/>
        <path class="cls-1" d="m57.63,143.4c-.28,0-.5-.22-.5-.5v-18.73c0-.28.22-.5.5-.5s.5.22.5.5v18.73c0,.28-.22.5-.5.5Z"/>
      </g>
    </g>
  </g>
  <g id="_アイコン" data-name="アイコン">
    <g>
      <path class="cls-4" d="m96.75,123.56c-.56.29-1.24.07-1.53-.49l-3.43-6.64c-.29-.56-.07-1.24.49-1.53s1.24-.07,1.53.49l3.43,6.64c.29.56.07,1.24-.49,1.53Z"/>
      <path class="cls-2" d="m92.8,114.78c.41,0,.81.22,1.01.61l3.43,6.64c.29.56.07,1.24-.49,1.53-.17.09-.34.13-.52.13-.41,0-.81-.22-1.01-.61l-3.43-6.64c-.29-.56-.07-1.24.49-1.53.17-.09.34-.13.52-.13m0-1.28h0c-.38,0-.76.09-1.1.27-1.18.61-1.64,2.07-1.03,3.24l3.43,6.64c.42.8,1.24,1.3,2.14,1.3.38,0,.76-.09,1.1-.27.57-.3.99-.8,1.19-1.41.19-.61.14-1.26-.16-1.84l-3.43-6.64c-.42-.8-1.24-1.3-2.14-1.3h0Z"/>
    </g>
    <g>
      <path class="cls-1" d="m7.44,158.4l-4.91-3.24c-1-.66-1.28-2-.62-3l6.1-9.24c.53-.8,1.61-1.02,2.41-.49s1.02,1.61.49,2.41l-5.38,8.15,3.81,2.52c.8.53,1.02,1.61.49,2.41s-1.61,1.02-2.41.49Z"/>
      <path class="cls-2" d="m9.47,142.14c.33,0,.66.09.96.29.8.53,1.02,1.61.49,2.41l-5.38,8.15,3.81,2.52c.8.53,1.02,1.61.49,2.41-.33.51-.89.78-1.45.78-.33,0-.66-.09-.96-.29l-4.91-3.24c-1-.66-1.28-2-.62-3l6.1-9.24c.33-.51.89-.78,1.45-.78m0-1.56h0c-1.11,0-2.14.55-2.76,1.48l-6.1,9.24c-.55.83-.74,1.83-.54,2.8.2.98.77,1.81,1.6,2.36l4.91,3.24c.54.36,1.17.55,1.82.55,1.11,0,2.14-.55,2.76-1.48,1-1.52.58-3.57-.94-4.57l-2.51-1.66,4.52-6.85c.49-.74.66-1.62.48-2.48-.18-.86-.68-1.61-1.42-2.09-.54-.36-1.17-.55-1.82-.55h0Z"/>
    </g>
  </g>
</svg>