<?xml version="1.0" encoding="UTF-8"?>
<svg id="Layer_2" data-name="Layer 2" xmlns="http://www.w3.org/2000/svg" xmlns:xlink="http://www.w3.org/1999/xlink" viewBox="0 0 111.79 205.64">
  <defs>
    <style>
      .cls-1 {
        fill: #fff;
      }

      .cls-2 {
        fill: #95e0e6;
      }

      .cls-3 {
        fill: #565656;
      }

      .cls-4 {
        fill: #363636;
      }

      .cls-5 {
        clip-path: url(#clippath-1);
      }

      .cls-6 {
        fill: #8dc05f;
      }

      .cls-7 {
        fill: #ffc0c0;
      }

      .cls-8 {
        fill: #ffdfbc;
      }

      .cls-9 {
        clip-path: url(#clippath);
        fill: none;
      }

      .cls-10 {
        fill: #b9b9b9;
      }
    </style>
    <clipPath id="clippath">
      <path class="cls-1" d="m21.42,87.2s-3.19-2.4-6.99-7.43-4.35-13.86-2.57-19.41c0,0,.32,1.93,2.85,2.23,0,0,1.27,9.32,6.71,7.32s2.76-10.79,2.76-10.79c0,0,3.63-1.55,1.92-5.51,0,0,5.39,4.08,5.5,13.37.11,9.28,1.67,19.64-10.18,20.21Zm47.6-6.43c2,1.96,4.51,4.43,5.96,5.84.63.62.87,1.54.58,2.39-.31.91-.5,2.21.12,3.56,1.13,2.46,2.53,2.46,2.26,3.73s-.71,2.69.62,4.48c3.32-.82,8.52.29,11.03,6.57,1.8-1.27,2.33-1.73,2.46-4.6.13-2.86-.33-3.46,1.67-7.59s2.8-6.46,2.19-9.39c-.94-4.5-3.59-8.6-9.18-12.86-4.72-3.6-5.46-3.73-5.93-6.06-.47-2.33-.6-3.06-2.73-3.86s-1.93.2-3.26-3.6-6.39-5.86-10.86-7.33c0,0,3.9,17.44,5.06,28.71Zm-15.17-9.27c-.12-15.41-3-21.65-3-21.65l-.86,1.86s-2.67-6.04-6.11-5.2c-1.35.33-3.14,3.59-4.25,7.98,5.08,5.88,14.22,17.02,14.22,17.02Z"/>
    </clipPath>
    <clipPath id="clippath-1">
      <path class="cls-9" d="m21.42,87.2s-3.19-2.4-6.99-7.43-4.35-13.86-2.57-19.41c0,0,.32,1.93,2.85,2.23,0,0,1.27,9.32,6.71,7.32s2.76-10.79,2.76-10.79c0,0,3.63-1.55,1.92-5.51,0,0,5.39,4.08,5.5,13.37.11,9.28,1.67,19.64-10.18,20.21Zm47.6-6.43c2,1.96,4.51,4.43,5.96,5.84.63.62.87,1.54.58,2.39-.31.91-.5,2.21.12,3.56,1.13,2.46,2.53,2.46,2.26,3.73s-.71,2.69.62,4.48c3.32-.82,8.52.29,11.03,6.57,1.8-1.27,2.33-1.73,2.46-4.6.13-2.86-.33-3.46,1.67-7.59s2.8-6.46,2.19-9.39c-.94-4.5-3.59-8.6-9.18-12.86-4.72-3.6-5.46-3.73-5.93-6.06-.47-2.33-.6-3.06-2.73-3.86s-1.93.2-3.26-3.6-6.39-5.86-10.86-7.33c0,0,3.9,17.44,5.06,28.71Zm-15.17-9.27c-.12-15.41-3-21.65-3-21.65l-.86,1.86s-2.67-6.04-6.11-5.2c-1.35.33-3.14,3.59-4.25,7.98,5.08,5.88,14.22,17.02,14.22,17.02Z"/>
    </clipPath>
  </defs>
  <g id="_背景ドット" data-name="背景ドット">
    <g>
      <circle class="cls-1" cx="109.58" cy="164.71" r=".59"/>
      <path class="cls-1" d="m111.59,161.82s.02,0,.02,0c-.06-.38-.13-.77-.22-1.14-.23.08-.4.3-.4.55,0,.33.27.59.59.59Z"/>
      <path class="cls-1" d="m109.58,171.06c-.33,0-.59.27-.59.59s.27.59.59.59.59-.27.59-.59-.27-.59-.59-.59Z"/>
      <path class="cls-1" d="m111,168.18c0,.33.27.59.59.59.02,0,.04-.01.06-.01.06-.37.1-.75.14-1.13-.06-.02-.13-.04-.2-.04-.33,0-.59.27-.59.59Z"/>
      <path class="cls-1" d="m105.57,150.21c-.33,0-.59.27-.59.59s.27.59.59.59.59-.27.59-.59-.27-.59-.59-.59Z"/>
      <path class="cls-1" d="m105.57,157.16c-.33,0-.59.27-.59.59s.27.59.59.59.59-.27.59-.59-.27-.59-.59-.59Z"/>
      <circle class="cls-1" cx="107.58" cy="154.28" r=".59"/>
      <path class="cls-1" d="m105.57,164.11c-.33,0-.59.27-.59.59s.27.59.59.59.59-.27.59-.59-.27-.59-.59-.59Z"/>
      <circle class="cls-1" cx="107.58" cy="161.23" r=".59"/>
      <circle class="cls-1" cx="109.58" cy="157.75" r=".59"/>
      <path class="cls-1" d="m105.57,171.06c-.33,0-.59.27-.59.59s.27.59.59.59.59-.27.59-.59-.27-.59-.59-.59Z"/>
      <path class="cls-1" d="m106.98,168.18c0,.33.27.59.59.59s.59-.27.59-.59-.27-.59-.59-.59-.59.27-.59.59Z"/>
      <path class="cls-1" d="m105.57,178.02c-.33,0-.59.27-.59.59s.27.59.59.59.59-.27.59-.59-.27-.59-.59-.59Z"/>
      <circle class="cls-1" cx="107.58" cy="175.13" r=".59"/>
      <circle class="cls-1" cx="101.56" cy="150.8" r=".59"/>
      <path class="cls-1" d="m103.4,147.89c-.12-.09-.23-.19-.35-.27.08.13.2.23.35.27Z"/>
      <path class="cls-1" d="m104.16,154.28c0-.33-.27-.59-.59-.59s-.59.27-.59.59.27.59.59.59.59-.27.59-.59Z"/>
      <circle class="cls-1" cx="101.56" cy="164.71" r=".59"/>
      <path class="cls-1" d="m103.56,161.82c.33,0,.59-.27.59-.59s-.27-.59-.59-.59-.59.27-.59.59.27.59.59.59Z"/>
      <path class="cls-1" d="m101.56,171.06c-.33,0-.59.27-.59.59s.27.59.59.59.59-.27.59-.59-.27-.59-.59-.59Z"/>
      <path class="cls-1" d="m102.97,168.18c0,.33.27.59.59.59s.59-.27.59-.59-.27-.59-.59-.59-.59.27-.59.59Z"/>
      <path class="cls-1" d="m101.56,178.02c-.33,0-.59.27-.59.59s.27.59.59.59.59-.27.59-.59-.27-.59-.59-.59Z"/>
      <path class="cls-1" d="m102.97,175.13c0,.33.27.59.59.59s.59-.27.59-.59-.27-.59-.59-.59-.59.27-.59.59Z"/>
      <path class="cls-1" d="m103.56,181.49c-.33,0-.59.27-.59.59s.27.59.59.59c.07,0,.13-.02.19-.04.11-.09.22-.19.32-.28.05-.08.08-.17.08-.28,0-.33-.27-.59-.59-.59Z"/>
      <path class="cls-1" d="m100.14,147.33c0-.33-.27-.59-.59-.59s-.59.27-.59.59.27.59.59.59.59-.27.59-.59Z"/>
      <path class="cls-1" d="m97.54,157.16c-.33,0-.59.27-.59.59s.27.59.59.59.59-.27.59-.59-.27-.59-.59-.59Z"/>
      <path class="cls-1" d="m99.55,154.87c.33,0,.59-.27.59-.59s-.27-.59-.59-.59-.59.27-.59.59.27.59.59.59Z"/>
      <path class="cls-1" d="m97.54,164.11c-.33,0-.59.27-.59.59s.27.59.59.59.59-.27.59-.59-.27-.59-.59-.59Z"/>
      <path class="cls-1" d="m100.14,161.23c0-.33-.27-.59-.59-.59s-.59.27-.59.59.27.59.59.59.59-.27.59-.59Z"/>
      <circle class="cls-1" cx="101.56" cy="157.75" r=".59"/>
      <path class="cls-1" d="m97.54,171.06c-.33,0-.59.27-.59.59s.27.59.59.59.59-.27.59-.59-.27-.59-.59-.59Z"/>
      <path class="cls-1" d="m98.96,168.18c0,.33.27.59.59.59s.59-.27.59-.59-.27-.59-.59-.59-.59.27-.59.59Z"/>
      <path class="cls-1" d="m97.54,178.02c-.33,0-.59.27-.59.59s.27.59.59.59.59-.27.59-.59-.27-.59-.59-.59Z"/>
      <path class="cls-1" d="m98.96,175.13c0,.33.27.59.59.59s.59-.27.59-.59-.27-.59-.59-.59-.59.27-.59.59Z"/>
      <path class="cls-1" d="m97.54,184.97c-.33,0-.59.27-.59.59s.27.59.59.59.59-.27.59-.59-.27-.59-.59-.59Z"/>
      <path class="cls-1" d="m100.14,182.08c0-.33-.27-.59-.59-.59s-.59.27-.59.59.27.59.59.59.59-.27.59-.59Z"/>
      <circle class="cls-1" cx="93.53" cy="150.8" r=".59"/>
      <path class="cls-1" d="m95.54,147.92c.33,0,.59-.27.59-.59s-.27-.59-.59-.59-.59.27-.59.59.27.59.59.59Z"/>
      <circle class="cls-1" cx="93.53" cy="157.75" r=".59"/>
      <path class="cls-1" d="m96.13,154.28c0-.33-.27-.59-.59-.59s-.59.27-.59.59.27.59.59.59.59-.27.59-.59Z"/>
      <path class="cls-1" d="m97.54,151.4c.33,0,.59-.27.59-.59s-.27-.59-.59-.59-.59.27-.59.59.27.59.59.59Z"/>
      <circle class="cls-1" cx="93.53" cy="164.71" r=".59"/>
      <path class="cls-1" d="m96.13,161.23c0-.33-.27-.59-.59-.59s-.59.27-.59.59.27.59.59.59.59-.27.59-.59Z"/>
      <path class="cls-1" d="m93.53,171.06c-.33,0-.59.27-.59.59s.27.59.59.59.59-.27.59-.59-.27-.59-.59-.59Z"/>
      <path class="cls-1" d="m94.94,168.18c0,.33.27.59.59.59s.59-.27.59-.59-.27-.59-.59-.59-.59.27-.59.59Z"/>
      <path class="cls-1" d="m93.53,178.02c-.33,0-.59.27-.59.59s.27.59.59.59.59-.27.59-.59-.27-.59-.59-.59Z"/>
      <path class="cls-1" d="m94.94,175.13c0,.33.27.59.59.59s.59-.27.59-.59-.27-.59-.59-.59-.59.27-.59.59Z"/>
      <path class="cls-1" d="m93.53,184.97c-.33,0-.59.27-.59.59s.27.59.59.59.59-.27.59-.59-.27-.59-.59-.59Z"/>
      <path class="cls-1" d="m94.94,182.08c0,.33.27.59.59.59s.59-.27.59-.59-.27-.59-.59-.59-.59.27-.59.59Z"/>
      <path class="cls-1" d="m92.94,143.85c0,.33.27.59.59.59s.59-.27.59-.59c0-.12-.04-.22-.1-.31-.28-.06-.56-.11-.84-.15-.14.11-.24.27-.24.46Z"/>
      <path class="cls-1" d="m89.52,143.26c-.33,0-.59.27-.59.59s.27.59.59.59.59-.27.59-.59-.27-.59-.59-.59Z"/>
      <path class="cls-1" d="m91.52,146.73c-.33,0-.59.27-.59.59s.27.59.59.59.59-.27.59-.59-.27-.59-.59-.59Z"/>
      <path class="cls-1" d="m89.52,157.16c-.33,0-.59.27-.59.59s.27.59.59.59.59-.27.59-.59-.27-.59-.59-.59Z"/>
      <path class="cls-1" d="m92.12,154.28c0-.33-.27-.59-.59-.59s-.59.27-.59.59.27.59.59.59.59-.27.59-.59Z"/>
      <path class="cls-1" d="m89.52,164.11c-.33,0-.59.27-.59.59s.27.59.59.59.59-.27.59-.59-.27-.59-.59-.59Z"/>
      <path class="cls-1" d="m92.12,161.23c0-.33-.27-.59-.59-.59s-.59.27-.59.59.27.59.59.59.59-.27.59-.59Z"/>
      <path class="cls-1" d="m89.52,171.06c-.33,0-.59.27-.59.59s.27.59.59.59.59-.27.59-.59-.27-.59-.59-.59Z"/>
      <path class="cls-1" d="m90.93,168.18c0,.33.27.59.59.59s.59-.27.59-.59-.27-.59-.59-.59-.59.27-.59.59Z"/>
      <path class="cls-1" d="m89.52,178.02c-.33,0-.59.27-.59.59s.27.59.59.59.59-.27.59-.59-.27-.59-.59-.59Z"/>
      <path class="cls-1" d="m90.93,175.13c0,.33.27.59.59.59s.59-.27.59-.59-.27-.59-.59-.59-.59.27-.59.59Z"/>
      <path class="cls-1" d="m89.52,184.97c-.33,0-.59.27-.59.59s.27.59.59.59.59-.27.59-.59-.27-.59-.59-.59Z"/>
      <path class="cls-1" d="m90.93,182.08c0,.33.27.59.59.59s.59-.27.59-.59-.27-.59-.59-.59-.59.27-.59.59Z"/>
      <circle class="cls-1" cx="85.5" cy="150.8" r=".59"/>
      <circle class="cls-1" cx="87.51" cy="147.33" r=".59"/>
      <circle class="cls-1" cx="85.5" cy="157.75" r=".59"/>
      <circle class="cls-1" cx="87.51" cy="154.28" r=".59"/>
      <path class="cls-1" d="m89.52,151.4c.33,0,.59-.27.59-.59s-.27-.59-.59-.59-.59.27-.59.59.27.59.59.59Z"/>
      <circle class="cls-1" cx="85.5" cy="164.71" r=".59"/>
      <circle class="cls-1" cx="87.51" cy="161.23" r=".59"/>
      <path class="cls-1" d="m85.5,171.06c-.33,0-.59.27-.59.59s.27.59.59.59.59-.27.59-.59-.27-.59-.59-.59Z"/>
      <path class="cls-1" d="m86.92,168.18c0,.33.27.59.59.59s.59-.27.59-.59-.27-.59-.59-.59-.59.27-.59.59Z"/>
      <path class="cls-1" d="m85.5,178.02c-.33,0-.59.27-.59.59s.27.59.59.59.59-.27.59-.59-.27-.59-.59-.59Z"/>
      <circle class="cls-1" cx="87.51" cy="175.13" r=".59"/>
      <path class="cls-1" d="m85.5,184.97c-.33,0-.59.27-.59.59s.27.59.59.59.59-.27.59-.59-.27-.59-.59-.59Z"/>
      <circle class="cls-1" cx="87.51" cy="182.08" r=".59"/>
      <path class="cls-1" d="m81.49,150.21c-.33,0-.59.27-.59.59s.27.59.59.59.59-.27.59-.59-.27-.59-.59-.59Z"/>
      <path class="cls-1" d="m82.9,147.33c0,.33.27.59.59.59s.59-.27.59-.59-.27-.59-.59-.59-.59.27-.59.59Z"/>
      <path class="cls-1" d="m84.91,143.85c0,.33.27.59.59.59s.59-.27.59-.59c0-.18-.08-.33-.21-.44-.3.05-.61.11-.91.17-.04.08-.07.17-.07.27Z"/>
      <path class="cls-1" d="m81.49,157.16c-.33,0-.59.27-.59.59s.27.59.59.59.59-.27.59-.59-.27-.59-.59-.59Z"/>
      <path class="cls-1" d="m84.09,154.28c0-.33-.27-.59-.59-.59s-.59.27-.59.59.27.59.59.59.59-.27.59-.59Z"/>
      <path class="cls-1" d="m84.09,161.23c0-.33-.27-.59-.59-.59s-.59.27-.59.59.27.59.59.59.59-.27.59-.59Z"/>
      <path class="cls-1" d="m82.9,168.18c0,.33.27.59.59.59s.59-.27.59-.59-.27-.59-.59-.59-.59.27-.59.59Z"/>
      <path class="cls-1" d="m82.9,175.13c0,.33.27.59.59.59s.59-.27.59-.59-.27-.59-.59-.59-.59.27-.59.59Z"/>
      <path class="cls-1" d="m82.9,182.08c0,.33.27.59.59.59s.59-.27.59-.59-.27-.59-.59-.59-.59.27-.59.59Z"/>
      <path class="cls-1" d="m77.48,150.21c-.33,0-.59.27-.59.59s.27.59.59.59.59-.27.59-.59-.27-.59-.59-.59Z"/>
      <circle class="cls-1" cx="79.48" cy="147.33" r=".59"/>
      <circle class="cls-1" cx="79.48" cy="154.28" r=".59"/>
      <path class="cls-1" d="m77.48,164.11c-.33,0-.59.27-.59.59s.27.59.59.59.59-.27.59-.59-.27-.59-.59-.59Z"/>
      <circle class="cls-1" cx="79.48" cy="161.23" r=".59"/>
      <path class="cls-1" d="m77.48,171.06c-.33,0-.59.27-.59.59s.27.59.59.59.59-.27.59-.59-.27-.59-.59-.59Z"/>
      <path class="cls-1" d="m78.89,168.18c0,.33.27.59.59.59s.59-.27.59-.59-.27-.59-.59-.59-.59.27-.59.59Z"/>
      <path class="cls-1" d="m81.49,165.3c.33,0,.59-.27.59-.59s-.27-.59-.59-.59-.59.27-.59.59.27.59.59.59Z"/>
      <path class="cls-1" d="m77.48,178.02c-.33,0-.59.27-.59.59s.27.59.59.59.59-.27.59-.59-.27-.59-.59-.59Z"/>
      <circle class="cls-1" cx="79.48" cy="175.13" r=".59"/>
      <path class="cls-1" d="m81.49,172.25c.33,0,.59-.27.59-.59s-.27-.59-.59-.59-.59.27-.59.59.27.59.59.59Z"/>
      <circle class="cls-1" cx="79.48" cy="182.08" r=".59"/>
      <path class="cls-1" d="m81.49,179.2c.33,0,.59-.27.59-.59s-.27-.59-.59-.59-.59.27-.59.59.27.59.59.59Z"/>
      <path class="cls-1" d="m81.49,186.15c.33,0,.59-.27.59-.59s-.27-.59-.59-.59-.59.27-.59.59c0,.22.12.4.3.5.05.02.11.04.16.06.04.01.09.03.13.03Z"/>
      <circle class="cls-1" cx="73.46" cy="157.75" r=".59"/>
      <path class="cls-1" d="m75.47,154.87c.33,0,.59-.27.59-.59s-.27-.59-.59-.59-.59.27-.59.59.27.59.59.59Z"/>
      <circle class="cls-1" cx="73.46" cy="164.71" r=".59"/>
      <path class="cls-1" d="m76.06,161.23c0-.33-.27-.59-.59-.59s-.59.27-.59.59.27.59.59.59.59-.27.59-.59Z"/>
      <path class="cls-1" d="m77.48,158.35c.33,0,.59-.27.59-.59s-.27-.59-.59-.59-.59.27-.59.59.27.59.59.59Z"/>
      <path class="cls-1" d="m73.46,171.06c-.33,0-.59.27-.59.59s.27.59.59.59.59-.27.59-.59-.27-.59-.59-.59Z"/>
      <path class="cls-1" d="m74.87,168.18c0,.33.27.59.59.59s.59-.27.59-.59-.27-.59-.59-.59-.59.27-.59.59Z"/>
      <path class="cls-1" d="m73.46,178.02c-.33,0-.59.27-.59.59s.27.59.59.59.59-.27.59-.59-.27-.59-.59-.59Z"/>
      <path class="cls-1" d="m74.87,175.13c0,.33.27.59.59.59s.59-.27.59-.59-.27-.59-.59-.59-.59.27-.59.59Z"/>
      <path class="cls-1" d="m76.06,182.08c0-.33-.27-.59-.59-.59s-.59.27-.59.59c0,.03.01.05.02.08.2.17.39.35.6.51.32-.01.57-.27.57-.59Z"/>
      <path class="cls-1" d="m69.45,157.16c-.33,0-.59.27-.59.59s.27.59.59.59.59-.27.59-.59-.27-.59-.59-.59Z"/>
      <circle class="cls-1" cx="71.45" cy="154.28" r=".59"/>
      <path class="cls-1" d="m72.87,150.8c0,.33.27.59.59.59s.59-.27.59-.59-.27-.59-.59-.59c-.08,0-.16.02-.23.05-.11.12-.22.24-.32.36-.02.06-.04.12-.04.19Z"/>
      <circle class="cls-1" cx="71.45" cy="161.23" r=".59"/>
      <path class="cls-1" d="m69.45,171.06c-.33,0-.59.27-.59.59s.27.59.59.59.59-.27.59-.59-.27-.59-.59-.59Z"/>
      <path class="cls-1" d="m70.86,168.18c0,.33.27.59.59.59s.59-.27.59-.59-.27-.59-.59-.59-.59.27-.59.59Z"/>
      <circle class="cls-1" cx="71.45" cy="175.13" r=".59"/>
      <path class="cls-1" d="m68.04,161.23c0-.2-.1-.37-.25-.47-.07.34-.14.69-.19,1.04.25-.07.45-.29.45-.56Z"/>
      <path class="cls-1" d="m67.44,167.59s-.03,0-.04,0c.04.39.09.78.14,1.16.28-.05.49-.28.49-.57,0-.33-.27-.59-.59-.59Z"/>
      <path class="cls-1" d="m69.45,165.3c.33,0,.59-.27.59-.59s-.27-.59-.59-.59-.59.27-.59.59.27.59.59.59Z"/>
    </g>
  </g>
  <g id="_人物" data-name="人物">
    <g>
      <g>
        <path class="cls-1" d="m68.82,129.97c-.66.17-1.35-.15-1.65-.77-2.8-5.84-8.65-14.9-8.65-14.9-.75,5.9-2.43,13.05-3.22,16.2-.24.95-1.12,1.59-2.1,1.52-9.97-.7-24.73-2.49-30.9-3.27h0c-.23,3.93-.51,9.36.54,13.4.81,3.11,1.55,5.29,1.87,12.99.39,9.46,2.86,40.73,3.3,46.79,0,0,7.93,2.6,22.07,2.86s12.43-4.22,26.04-1.98c3.55-16.58.79-40.44-2.84-53.73-.15-.56-.18-1.13-.08-1.7.34-1.88.43-3.71-.88-4.7-.83-.62-1.28-1.61-1.42-2.64-.33-2.49-.88-6.74-1.25-10.24l-.85.17Z"/>
        <path class="cls-1" d="m21.42,87.2s-3.19-2.4-6.99-7.43-4.35-13.86-2.57-19.41c1.24,1.66,1.3,3.15,6.9,1.59,5.6-1.56,8.55-4.21,7.92-7.52,2.7,2.05,5.83,11.62,5.19,19.35-.65,7.73-3,14-10.45,13.42Z"/>
        <path class="cls-1" d="m68.56,80.77c2,1.96,4.97,4.43,6.42,5.84.63.62.87,1.54.58,2.39-.31.91-.5,2.21.12,3.56,1.13,2.46,2.53,2.46,2.26,3.73s-.71,2.69.62,4.48l-1.91,2.62s1.53,1.48,4.63,3.87c3.1,2.39,3.25,6.22,3.25,6.22l5.06-6.13c1.8-1.27,2.33-1.73,2.46-4.6.13-2.86-.33-3.46,1.67-7.59s2.8-6.46,2.19-9.39c-.94-4.5-3.59-8.6-9.18-12.86-4.72-3.6-5.46-3.73-5.93-6.06-.47-2.33-.6-3.06-2.73-3.86s-1.93.2-3.26-3.6-6.39-5.86-10.86-7.33c0,0,3.01,15.66,4.6,28.71Z"/>
        <path class="cls-1" d="m30.41,46.51c5.86,5.28,15.35,13.43,23.44,24.99-.91-20.64-3.69-23.91-3.69-23.91,0,0,.54-.44-1.11-2.29s-2.56-3.06-2.56-3.06c0,0-.03,3.97-3.21,3.7s-10.35-4.73-10.35-4.73l-2.53,5.29Z"/>
        <g>
          <path class="cls-1" d="m21.42,87.2s-3.19-2.4-6.99-7.43-4.35-13.86-2.57-19.41c0,0,.32,1.93,2.85,2.23,0,0,1.27,9.32,6.71,7.32s2.76-10.79,2.76-10.79c0,0,3.63-1.55,1.92-5.51,0,0,5.39,4.08,5.5,13.37.11,9.28,1.67,19.64-10.18,20.21Zm47.6-6.43c2,1.96,4.51,4.43,5.96,5.84.63.62.87,1.54.58,2.39-.31.91-.5,2.21.12,3.56,1.13,2.46,2.53,2.46,2.26,3.73s-.71,2.69.62,4.48c3.32-.82,8.52.29,11.03,6.57,1.8-1.27,2.33-1.73,2.46-4.6.13-2.86-.33-3.46,1.67-7.59s2.8-6.46,2.19-9.39c-.94-4.5-3.59-8.6-9.18-12.86-4.72-3.6-5.46-3.73-5.93-6.06-.47-2.33-.6-3.06-2.73-3.86s-1.93.2-3.26-3.6-6.39-5.86-10.86-7.33c0,0,3.9,17.44,5.06,28.71Zm-15.17-9.27c-.12-15.41-3-21.65-3-21.65l-.86,1.86s-2.67-6.04-6.11-5.2c-1.35.33-3.14,3.59-4.25,7.98,5.08,5.88,14.22,17.02,14.22,17.02Z"/>
          <g class="cls-5">
            <g>
              <path class="cls-2" d="m74.33,121.78c-.31,0-.57-.25-.57-.57V43.84c0-.31.25-.57.57-.57s.57.25.57.57v77.38c0,.31-.25.57-.57.57Z"/>
              <path class="cls-2" d="m78.47,121.78c-.31,0-.57-.25-.57-.57V43.84c0-.31.25-.57.57-.57s.57.25.57.57v77.38c0,.31-.25.57-.57.57Z"/>
              <path class="cls-2" d="m82.62,121.78c-.31,0-.57-.25-.57-.57V43.84c0-.31.25-.57.57-.57s.57.25.57.57v77.38c0,.31-.25.57-.57.57Z"/>
              <path class="cls-2" d="m86.76,121.78c-.31,0-.57-.25-.57-.57V43.84c0-.31.25-.57.57-.57s.57.25.57.57v77.38c0,.31-.25.57-.57.57Z"/>
              <path class="cls-2" d="m90.91,121.78c-.31,0-.57-.25-.57-.57V43.84c0-.31.25-.57.57-.57s.57.25.57.57v77.38c0,.31-.25.57-.57.57Z"/>
              <path class="cls-2" d="m95.06,121.78c-.31,0-.57-.25-.57-.57V43.84c0-.31.25-.57.57-.57s.57.25.57.57v77.38c0,.31-.25.57-.57.57Z"/>
              <path class="cls-2" d="m70.18,121.78c-.31,0-.57-.25-.57-.57V43.84c0-.31.25-.57.57-.57s.57.25.57.57v77.38c0,.31-.25.57-.57.57Z"/>
              <path class="cls-2" d="m66.03,121.78c-.31,0-.57-.25-.57-.57V43.84c0-.31.25-.57.57-.57s.57.25.57.57v77.38c0,.31-.25.57-.57.57Z"/>
              <path class="cls-2" d="m61.89,121.78c-.31,0-.57-.25-.57-.57V43.84c0-.31.25-.57.57-.57s.57.25.57.57v77.38c0,.31-.25.57-.57.57Z"/>
              <path class="cls-2" d="m57.74,121.78c-.31,0-.57-.25-.57-.57V43.84c0-.31.25-.57.57-.57s.57.25.57.57v77.38c0,.31-.25.57-.57.57Z"/>
              <path class="cls-2" d="m53.6,121.78c-.31,0-.57-.25-.57-.57V43.84c0-.31.25-.57.57-.57s.57.25.57.57v77.38c0,.31-.25.57-.57.57Z"/>
              <path class="cls-2" d="m24.57,121.78c-.31,0-.57-.25-.57-.57V43.84c0-.31.25-.57.57-.57s.57.25.57.57v77.38c0,.31-.25.57-.57.57Z"/>
              <path class="cls-2" d="m28.72,121.78c-.31,0-.57-.25-.57-.57V43.84c0-.31.25-.57.57-.57s.57.25.57.57v77.38c0,.31-.25.57-.57.57Z"/>
              <path class="cls-2" d="m32.87,121.78c-.31,0-.57-.25-.57-.57V43.84c0-.31.25-.57.57-.57s.57.25.57.57v77.38c0,.31-.25.57-.57.57Z"/>
              <path class="cls-2" d="m37.01,121.78c-.31,0-.57-.25-.57-.57V43.84c0-.31.25-.57.57-.57s.57.25.57.57v77.38c0,.31-.25.57-.57.57Z"/>
              <path class="cls-2" d="m41.16,121.78c-.31,0-.57-.25-.57-.57V43.84c0-.31.25-.57.57-.57s.57.25.57.57v77.38c0,.31-.25.57-.57.57Z"/>
              <path class="cls-2" d="m45.3,121.78c-.31,0-.57-.25-.57-.57V43.84c0-.31.25-.57.57-.57s.57.25.57.57v77.38c0,.31-.25.57-.57.57Z"/>
              <path class="cls-2" d="m20.43,121.78c-.31,0-.57-.25-.57-.57V43.84c0-.31.25-.57.57-.57s.57.25.57.57v77.38c0,.31-.25.57-.57.57Z"/>
              <path class="cls-2" d="m16.28,121.78c-.31,0-.57-.25-.57-.57V43.84c0-.31.25-.57.57-.57s.57.25.57.57v77.38c0,.31-.25.57-.57.57Z"/>
              <path class="cls-2" d="m12.14,121.78c-.31,0-.57-.25-.57-.57V43.84c0-.31.25-.57.57-.57s.57.25.57.57v77.38c0,.31-.25.57-.57.57Z"/>
              <path class="cls-2" d="m7.99,121.78c-.31,0-.57-.25-.57-.57V43.84c0-.31.25-.57.57-.57s.57.25.57.57v77.38c0,.31-.25.57-.57.57Z"/>
              <path class="cls-2" d="m3.84,121.78c-.31,0-.57-.25-.57-.57V43.84c0-.31.25-.57.57-.57s.57.25.57.57v77.38c0,.31-.25.57-.57.57Z"/>
              <path class="cls-2" d="m49.45,121.78c-.31,0-.57-.25-.57-.57V43.84c0-.31.25-.57.57-.57s.57.25.57.57v77.38c0,.31-.25.57-.57.57Z"/>
            </g>
          </g>
        </g>
        <path class="cls-6" d="m41.48,49.65c.65-2.36,3.89-5.68,7.18.2l.39,4.23s2.14,2.97,3.75,5.85c0,0,.83,7.27.76,11.17l-6.65-8.5-1.32-7.49s-2.3-2.33-4.11-5.46Z"/>
        <path class="cls-4" d="m23.09,26.99c-1.5-3.22-2.47-7.16-2.13-10.45.32-3.1,1.82-5.48,4.27-7.09.3-.2.5-.51.56-.86.53-3.07,2.63-5.97,2.63-5.97-.81,1.2-1.59,2.96-1.71,4.4,2.09-1.32,4.57-3.96,5.01-6.17,0,0,.66,1.98.55,2.7s1.1-1.82,1.1-1.82c0,0,.23,1.47.14,1.82,0,0,1.03-.59,1.52-2.55,0,0,.19,1.77.19,1.93s.99-.44,1.77-1.52c0,0-.09.99,0,1.58s1.4.5,2.58-.06c0,0-.59,1.08.25,1.01s1.93-.23,2.83-.88c0,0-.09.93-.28,1.43s1.71.81,2.98.03c0,0-.5,1.31.5,1.65s.75.09,1.46,1.15,1.27.44,1.4.44c0,0-.28.9.12,1.21s1.65.16,1.65.16l-1.06.84c1.09.78,1.65,3.01,1.49,8.46l-1.92.37c-.21-1.19-.46-2.36-.72-3.51-1.82-7.8-10.52-9.31-16.76-6.49-.46.21-.9.42-1.31.62-5.28,2.58-8.07,8.43-6.8,14.17.24,1.07.51,2.13.8,3.17l-1.1.26Z"/>
        <path class="cls-10" d="m26.16,53.58c4.07,4.68,5.83,10.67,5.72,19.61s-2.86,14.65-10.46,14.01c.96,8.1,1.81,21.2-1.6,39.23-.2,1.06.52,2.08,1.59,2.21,5.51.7,21.3,2.64,31.79,3.38.98.07,1.86-.57,2.1-1.52.78-3.16,2.47-10.31,3.22-16.2,0,0,5.85,9.06,8.65,14.9.3.62.98.94,1.65.77l5.7-1.44c.83-.21,1.3-1.09,1-1.89-.75-1.96-1.42-4.12-2.03-6.39-2.88-8.94-3.43-20.21-3.43-20.21-.1-1.15-.19-2.29-.27-3.4-1.9-29.14-3.97-36.17-5.84-44.57-4.46-1.47-11.52-2.95-13.8-4.48,0,0,2.78,3.27,3.69,23.91-8.09-11.56-17.01-19.49-22.87-24.77h-.57s.24,2.42.12,3.87-2.11,2.54-4.49,1.1c0,0-.38,1.41.12,1.88Z"/>
        <path class="cls-8" d="m24.18,47.3c.26-1.13.02-2.44-.84-3.12-.4-.31-.53-.85-.47-1.35.2-1.7-.19-3.35-2.28-3.79-2.34-.49-8.34,1.58-11.23,3.38-2.47,1.53-2.01,3.42-1.04,4.9.3.45.29,1.02.11,1.53-.41,1.16-.22,2.54.62,3.36.41.4.54.98.47,1.55-.19,1.49.35,2.97,1.39,3.71.42.3.64.81.66,1.33.04,1.62.88,3.59,3.15,3.81,2.75.26,5.67-1.11,9.47-3.47,2.86-1.78,2.9-4.21,1.92-5.51-.3-.4-.33-.92-.18-1.4.42-1.34-.16-2.64-1.22-3.45-.45-.35-.66-.92-.53-1.47Z"/>
        <path class="cls-8" d="m22.83,41.22c3.34.2,7.27-.08,7.41,2.72.14,2.8.23,4.4.31,6.19.11,2.48-2.78,2.81-4.39,1.43"/>
        <path class="cls-8" d="m83.88,115.23c-.69,1.64-1.59,2.85-3.94,3.05s-4.05.78-5.41,1.7c-.7.47-1.65.3-2.15-.38h0c-.48-.65-.4-1.55.2-2.1.76-.71,1.99-1.65,3.72-2.36-1.36-1.88-2.49-1.95-6.18-.24-.79.37-1.73.08-2.17-.67h0c-.49-.84-.18-1.91.68-2.35,1.39-.72,3.63-1.56,6.27-1.4,0,0-1.65-1.08-5.23.37-.9.37-1.93-.03-2.35-.9h0c-.43-.89-.08-1.95.78-2.43,2.11-1.17,3.76-1.83,6.43-1.09-1-1.39-2.32-2.39-3.94-2.27-1,.07-2.37.3-3.43.5-.95.18-1.88-.39-2.16-1.31h0c-.29-.97.23-2.01,1.19-2.34,3.85-1.32,6.64-1.56,8.34.27,1.94,2.09,2.28,2.49,4.49,4.23,2.9,2.29,5.38,3.48,5.51,7.96l-.66,1.76Z"/>
        <path class="cls-8" d="m55.9,22.92c-.59-4.95-4.52-5.14-6.85-3.79h0c-.23-1.3-.49-2.6-.79-3.86-1.82-7.8-10.52-9.31-16.76-6.49-.46.21-.9.42-1.31.62-5.28,2.58-8.07,8.43-6.8,14.17.24,1.08.51,2.14.8,3.18-3.41.46-5.12,3.17-4.32,6.74.81,3.57,4.81,5.81,8.81,4.26v-.02c1.43,1.9,3.41,3.31,5.62,4.06,2.45,2.27,7.55,4.88,9.57,4.72,1.91-.16,2.43-5.16,2.57-7.23,2.29-2.07,3.63-5.08,3.65-8.28,1.9-.48,6.33-3.66,5.8-8.08Z"/>
        <path class="cls-1" d="m44.17,18.49c-1.41.12-3.35.64-4.72,1.32-1.06.52-1.53,1.84-.93,2.85.68,1.15,1.83,1.9,3.9,1.43,2.5-.56,3.41-1.81,3.46-4,.02-.93-.55-1.7-1.72-1.6Z"/>
        <path class="cls-1" d="m29.99,22.39c-1.02.43-1.63.68-2.29,1.16-.77.56-1.09,1.56-.58,2.36.32.5.73,1.01,1.2,1.34,1.17.81,2.7.54,4.31-.26s2.21-1.41,2.33-3.01c.11-1.4-.24-2.1-1.53-2.17-1.13-.06-2.42.16-3.43.59Z"/>
      </g>
      <g>
        <circle class="cls-4" cx="37.87" cy="28.52" r=".71"/>
        <circle class="cls-4" cx="90.64" cy="85.03" r=".71"/>
        <path class="cls-4" d="m38.02,43.27c-4.9,0-9.5-2.93-11.55-7.64-1.7-3.9-3.05-8.02-3.91-11.89-1.36-6.15,1.62-12.36,7.25-15.12.42-.21.86-.41,1.33-.63,4.04-1.83,8.77-1.86,12.35-.09,2.9,1.43,4.84,3.91,5.59,7.17,1.23,5.3,1.89,10.96,1.86,15.94-.03,4.71-2.73,8.96-6.87,10.84-1.07.48-2.14.84-3.28,1.11h0c-.92.21-1.85.32-2.77.32Zm2.58-1.14h0,0Zm-2.99-33.83c-1.93,0-3.92.42-5.76,1.25-.46.21-.88.41-1.29.61-4.92,2.41-7.53,7.84-6.34,13.22.83,3.77,2.15,7.78,3.81,11.58,2.11,4.84,7.32,7.51,12.38,6.34h0c1.03-.24,2-.56,2.96-1,3.54-1.6,5.84-5.26,5.87-9.3.04-4.85-.61-10.37-1.81-15.54-.64-2.74-2.26-4.83-4.69-6.03-1.53-.75-3.3-1.13-5.13-1.13Z"/>
        <path class="cls-4" d="m50.09,31.85c-.38,0-.73-.26-.82-.64-.12-.46.16-.92.62-1.03,1.61-.41,5.63-3.23,5.17-7.16-.2-1.72-.87-2.9-1.93-3.43-1.26-.63-2.75-.24-3.65.28-.41.23-.93.1-1.16-.31-.24-.41-.1-.93.31-1.16,1.33-.77,3.41-1.26,5.27-.33,1.11.56,2.51,1.83,2.86,4.75.59,5.03-4.37,8.48-6.44,9.01-.07.02-.14.03-.21.03Z"/>
        <path class="cls-4" d="m26.08,39.09c-1.23,0-2.44-.29-3.52-.87-1.8-.96-3.08-2.62-3.52-4.55-.46-2.04-.18-3.94.8-5.36.92-1.33,2.39-2.17,4.23-2.41.47-.06.89.27.96.73.06.47-.26.89-.73.96-1.35.18-2.41.77-3.06,1.7-.72,1.03-.9,2.42-.54,4.01.33,1.45,1.3,2.7,2.66,3.43,1.52.81,3.3.89,5.02.23.44-.17.93.05,1.1.49.17.44-.05.93-.49,1.1-.95.37-1.94.55-2.91.55Z"/>
        <path class="cls-4" d="m23.09,27.84c-.32,0-.63-.18-.77-.49-1.71-3.66-2.54-7.73-2.21-10.9.34-3.26,1.95-5.93,4.65-7.72.1-.07.17-.17.19-.3.55-3.22,2.69-6.2,2.78-6.32.27-.38.79-.47,1.18-.2.38.27.48.79.22,1.17-.31.46-.63,1.03-.9,1.64,1.29-1.24,2.41-2.77,2.66-4.04.08-.38.4-.66.78-.68.38,0,.74.21.86.58.04.13.11.35.19.61.19-.22.48-.34.78-.3.24.04.45.17.58.36.05-.14.09-.29.14-.46.1-.4.46-.66.89-.64.41.03.74.35.78.76.02.17.03.32.05.46.12-.14.25-.29.37-.46.23-.31.63-.44.99-.3.36.13.59.49.55.88-.02.26-.05.7-.03,1.06.29,0,.81-.1,1.4-.38.33-.16.73-.08.98.18.17.18.25.42.23.66.6-.1,1.22-.27,1.73-.64.27-.2.63-.21.92-.05.29.17.46.49.42.82,0,.07-.05.52-.15.99.41.03,1.05-.03,1.57-.34.31-.19.71-.16.99.07.28.23.38.62.25.96-.07.18-.09.46-.05.53.19.06.31.1.41.13.73.22.86.4,1.32,1.09l.18.27c.08.11.13.18.17.21.35-.18.92-.19,1.2.19.16.22.21.5.13.76-.03.09-.05.21-.05.3.2.01.59,0,.91-.03.38-.05.74.16.89.52s.04.76-.26.99l-.34.27c.9,1.38,1.23,3.97,1.1,8.39-.01.46-.39.83-.85.83,0,0-.02,0-.02,0-.47-.01-.84-.4-.83-.87.13-4.51-.25-7.12-1.14-7.75-.22-.16-.35-.4-.36-.67,0-.06,0-.12.01-.18-.1-.04-.19-.1-.27-.16-.31-.24-.46-.57-.52-.9-.44-.11-.84-.43-1.19-.94l-.19-.28c-.13-.19-.2-.31-.27-.38,0,.02-.05,0-.14-.02-.12-.04-.26-.08-.44-.14-.47-.16-.82-.47-1.02-.89-.05-.11-.09-.21-.11-.32-1.02.2-2.04.04-2.53-.37-.28-.23-.42-.55-.41-.87-.55.15-1.1.22-1.61.27-.72.07-1.07-.34-1.18-.51-.03-.04-.05-.08-.07-.13-.65.14-1.33.15-1.82-.1-.28-.15-.49-.38-.6-.65-.42.3-.87.5-1.25.37-.1-.03-.2-.09-.28-.15-.38.45-.7.64-.76.68-.3.17-.67.14-.94-.06,0,0-.01-.01-.02-.02-.28.31-.56.4-.94.28-.31-.1-.63-.39-.61-.92-1.1,1.66-2.76,3.22-4.25,4.16-.11.07-.22.11-.34.12-.08.29-.14.58-.19.87-.1.59-.43,1.1-.93,1.43-2.3,1.52-3.61,3.69-3.9,6.47-.3,2.87.47,6.61,2.06,10,.2.43.01.93-.41,1.13-.12.05-.24.08-.36.08Z"/>
        <path class="cls-4" d="m24,11.23c-.37,0-.7-.24-.81-.61-.03-.1-.74-2.54.22-4.66.19-.43.69-.62,1.12-.43.43.19.62.7.43,1.12-.69,1.54-.14,3.46-.14,3.48.13.45-.12.92-.57,1.06-.08.02-.16.04-.24.04Z"/>
        <path class="cls-4" d="m30.41,47.36c-.12,0-.23-.02-.34-.07-.43-.19-.62-.69-.44-1.12l2.36-5.36c.1-.23.31-.41.56-.48.25-.07.51-.02.72.13,4.99,3.62,9.63,5.38,10.81,4.75.58-.31.75-.44,1-1.83.29-1.58.57-4.2.57-4.23.05-.47.47-.8.94-.76.47.05.81.47.76.94-.01.11-.29,2.72-.59,4.36-.29,1.59-.62,2.36-1.88,3.03-2.47,1.3-8.18-1.84-11.74-4.28l-1.94,4.41c-.14.32-.45.51-.78.51Z"/>
        <path class="cls-4" d="m39.63,55.33c-.07,0-.14,0-.21-.03-.46-.12-.73-.58-.62-1.03.83-3.27,2.18-5.65,3.17-7.06.52-.75,1.35-1.26,2.25-1.4.91-.14,1.82.09,2.55.65.84.65,1.84,1.92,2.89,3.3-.09-.52-.17-.96-.2-1.22-.09-.91-.46-1.79-1.05-2.53-1.2-1.49-2.9-3.43-2.91-3.45-.31-.35-.27-.89.08-1.2s.89-.27,1.2.08c.02.02,1.74,1.99,2.96,3.5.8,1,1.29,2.18,1.42,3.42.03.26.11.7.2,1.21l.13.76c.12.69-.23,1.33-.87,1.61-.64.28-1.35.09-1.77-.46l-.28-.37c-.98-1.29-2.1-2.75-2.83-3.32-.36-.28-.8-.39-1.25-.32-.46.07-.85.32-1.12.7-.91,1.3-2.15,3.48-2.92,6.51-.1.39-.44.64-.82.64Zm10.2-4.7h0,0Z"/>
        <path class="cls-4" d="m76.66,104.24c-.17,0-.35-.05-.5-.16-.38-.28-.46-.81-.19-1.19l1.56-2.14c-1.05-1.75-.72-3.25-.47-4.37l.06-.27c.04-.18.04-.21-.44-.7-.46-.47-1.16-1.18-1.77-2.5-.74-1.62-.49-3.17-.15-4.18.18-.53.03-1.11-.37-1.51-1.44-1.42-3.95-3.88-5.96-5.84-.34-.33-.34-.87-.01-1.2.33-.33.87-.34,1.2-.01,2,1.96,4.52,4.43,5.96,5.85.88.86,1.18,2.11.8,3.26-.35,1.05-.33,2.04.08,2.93.48,1.05,1.01,1.58,1.44,2.02.53.53,1.12,1.14.89,2.24l-.06.28c-.25,1.16-.47,2.16.53,3.52.22.3.22.71,0,1.01l-1.91,2.62c-.17.23-.42.35-.69.35Z"/>
        <path class="cls-4" d="m79.94,90c-.16,0-.32-.06-.44-.18-.25-.25-.26-.65-.01-.9,2.01-2.07,5.2-3.7,8.53-4.35.34-.07.68.16.75.5.07.35-.16.68-.5.75-3.08.6-6.02,2.09-7.85,3.98-.12.13-.29.19-.46.19Z"/>
        <path class="cls-4" d="m53.35,132.88c-.07,0-.13,0-.2,0-10.71-.76-27.08-2.78-31.84-3.38-.75-.09-1.4-.48-1.85-1.09-.44-.61-.62-1.38-.48-2.12,3.81-20.17,2.14-34.32,1.59-38.97-.03-.25.06-.51.23-.69s.43-.28.68-.26c2.51.21,4.53-.37,6.03-1.72,2.26-2.05,3.44-5.9,3.51-11.45.11-8.66-1.59-14.53-5.52-19.04-.31-.35-.27-.89.08-1.2.35-.31.89-.27,1.2.08,4.22,4.84,6.05,11.07,5.93,20.18-.08,6.03-1.44,10.3-4.07,12.68-1.64,1.49-3.73,2.22-6.28,2.21.63,5.54,1.9,19.34-1.72,38.49-.05.29,0,.57.18.81.17.23.41.37.69.4,4.75.6,21.08,2.62,31.74,3.38.57.04,1.07-.33,1.21-.88.71-2.87,2.45-10.18,3.2-16.11.04-.35.31-.64.66-.72.35-.08.71.07.9.37.06.09,5.91,9.17,8.7,15,.12.25.39.38.67.31l5.7-1.43c.23-.06.34-.21.38-.3.04-.08.11-.26.03-.47-.73-1.93-1.42-4.11-2.06-6.47-.12-.45.15-.92.6-1.04.45-.12.92.15,1.04.6.62,2.31,1.29,4.43,2,6.31.23.6.19,1.28-.11,1.86-.3.58-.84,1-1.48,1.17l-5.7,1.43c-1.05.27-2.16-.25-2.62-1.23-1.97-4.1-5.5-9.88-7.37-12.87-.81,5.23-2.13,10.87-2.91,14-.32,1.29-1.47,2.17-2.78,2.17Z"/>
        <path class="cls-4" d="m72.76,118.18c-.39,0-.74-.27-.83-.66-.25-1.07-.48-2.17-.7-3.27-.09-.46.21-.91.67-1,.45-.09.91.21,1,.67.22,1.09.45,2.16.69,3.22.11.46-.18.92-.64,1.02-.06.02-.13.02-.19.02Z"/>
        <path class="cls-4" d="m70.78,107.19c-.42,0-.78-.31-.84-.74-.1-.73-.19-1.46-.28-2.18-.06-.47.28-.89.74-.95.46-.06.89.28.95.74.09.72.18,1.44.28,2.16.06.46-.26.89-.73.96-.04,0-.08,0-.12,0Z"/>
        <path class="cls-4" d="m70.06,100.89c-.43,0-.81-.33-.85-.77-.11-1.16-.2-2.31-.27-3.43-1.73-26.49-3.55-34.49-5.32-42.22-.17-.74-.34-1.48-.5-2.22-.1-.46.19-.91.65-1.01.45-.1.91.19,1.01.65.17.74.33,1.47.5,2.21,1.78,7.8,3.62,15.86,5.36,42.49.07,1.11.16,2.24.26,3.38.04.47-.3.88-.77.92-.03,0-.05,0-.08,0Z"/>
        <path class="cls-4" d="m67.66,70.87c-.09,0-.19-.02-.28-.07-.32-.16-.45-.54-.29-.85,1.15-2.33,4.22-5.96,4.35-6.11.23-.27.63-.3.9-.07.27.23.3.63.07.9-.03.04-3.1,3.67-4.18,5.85-.11.22-.34.36-.57.36Z"/>
        <path class="cls-4" d="m53.04,61.21c-.31,0-.6-.17-.75-.46-2.3-4.39-3.75-5.59-3.76-5.61-.18-.15-.3-.37-.32-.6-.17-2.23-.38-4.62-.38-4.62-.04-.47.3-.88.77-.92.46-.05.88.3.92.77,0,0,.19,2.16.36,4.3.59.58,1.98,2.18,3.92,5.89.22.42.06.93-.36,1.15-.13.07-.26.1-.39.1Z"/>
        <path class="cls-4" d="m46.91,63.44c-.38,0-.73-.26-.83-.65-1.06-4.37-1.29-6.22-1.34-6.92-.64-.83-2.84-3.73-3.73-5.66-.2-.43,0-.93.42-1.13.43-.19.93,0,1.13.42.94,2.04,3.66,5.5,3.69,5.54.13.16.19.37.18.58,0,.04-.01,1.37,1.3,6.78.11.46-.17.92-.63,1.03-.07.02-.13.02-.2.02Z"/>
        <path class="cls-4" d="m45.59,56.27c-.16,0-.32-.05-.45-.16-.3-.25-.35-.69-.11-.99.06-.07,1.43-1.74,4.12-1.34.39.06.66.42.6.8-.06.39-.43.65-.8.6-1.86-.27-2.77.79-2.81.83-.14.17-.34.25-.55.25Z"/>
        <path class="cls-4" d="m76.14,203.66c-.06,0-.12,0-.18-.02-.46-.1-.75-.55-.65-1.01,3.35-15.63,1.04-39.14-2.83-53.33-.19-.69-.22-1.39-.1-2.08.39-2.16.23-3.28-.55-3.87-.95-.72-1.57-1.86-1.75-3.21-.37-2.81-.89-6.88-1.25-10.26-.05-.47.29-.89.76-.93.47-.05.89.29.93.76.35,3.37.87,7.41,1.25,10.21.12.9.51,1.63,1.09,2.07,1.71,1.29,1.57,3.52,1.2,5.53-.08.43-.06.88.07,1.33,3.92,14.38,6.25,38.24,2.85,54.13-.08.4-.44.67-.83.67Z"/>
        <path class="cls-4" d="m52.36,205.64c-.05,0-.1,0-.15-.01-.46-.08-.77-.53-.68-.99.75-4.1,1.51-13.86,2.4-25.17.76-9.73,1.62-20.75,2.66-30.54.08-.75.22-1.48.42-2.23l.35-1.28c.97-3.53,2.3-8.36,2.65-12.26.04-.47.46-.83.92-.77.47.04.81.45.77.92-.36,4.05-1.71,8.97-2.7,12.56l-.35,1.28c-.18.65-.3,1.29-.37,1.96-1.04,9.77-1.9,20.78-2.65,30.5-.89,11.35-1.65,21.15-2.42,25.34-.08.41-.43.7-.84.7Z"/>
        <path class="cls-4" d="m28.03,202.78c-.44,0-.81-.34-.85-.79-.09-1.23-.26-3.51-.49-6.43-.88-11.48-2.5-32.83-2.82-40.39-.29-6.91-.91-9.26-1.63-11.98l-.22-.83c-1.11-4.3-.77-10.16-.57-13.66.03-.47.42-.82.9-.8.47.03.83.43.8.9-.2,3.4-.53,9.09.52,13.13l.22.82c.71,2.7,1.39,5.25,1.68,12.35.31,7.52,1.94,28.86,2.81,40.33.22,2.92.4,5.2.49,6.43.03.47-.32.88-.79.91-.02,0-.04,0-.06,0Z"/>
        <path class="cls-4" d="m57.02,123.85c-.45,0-.83-.36-.85-.81-.02-.47.34-.87.81-.89,2.54-.11,5.71-1.32,5.74-1.33.44-.17.93.05,1.1.49.17.44-.05.93-.49,1.1-.14.05-3.46,1.32-6.28,1.44-.01,0-.02,0-.04,0Z"/>
        <path class="cls-4" d="m35.91,34.36c-.36,0-.7-.23-.81-.6-.14-.45.11-.92.56-1.06,2.32-.72,4.77-1.87,5.69-2.42.4-.24.93-.11,1.17.29.24.4.11.93-.29,1.17-1.21.72-3.81,1.89-6.07,2.58-.08.03-.17.04-.25.04Z"/>
        <path class="cls-4" d="m43.87,30.37c-.18,0-.35-.07-.48-.22,0,0-.65-.74-1.27-1.07-.31-.17-.43-.55-.26-.86.16-.31.55-.43.86-.26.83.44,1.6,1.32,1.63,1.36.23.27.2.67-.06.9-.12.11-.27.16-.42.16Z"/>
        <path class="cls-4" d="m15.39,63.48c-.25,0-.5-.01-.75-.04-2.81-.27-3.87-2.66-3.92-4.63,0-.28-.12-.53-.3-.65-1.29-.91-1.98-2.68-1.75-4.51.02-.17.04-.58-.22-.83-1.04-1.02-1.38-2.73-.83-4.25.05-.15.16-.51-.02-.78-.79-1.2-1.07-2.34-.84-3.4.23-1.04.95-1.95,2.14-2.69,2.9-1.8,9.15-4.06,11.86-3.49,1.27.27,3.35,1.24,2.94,4.73-.03.26.03.49.15.58,1.21.95,1.44,2.68,1.15,3.98h0c-.05.22.04.46.23.61,1.43,1.1,2.01,2.78,1.51,4.38-.04.12-.11.42.05.63.63.84.88,1.95.68,3.04-.19,1-.83,2.45-2.83,3.7-3.49,2.17-6.44,3.63-9.25,3.63Zm4.36-23.67c-2.42,0-7.38,1.74-9.94,3.33-.79.49-1.25,1.03-1.38,1.61-.13.59.07,1.29.6,2.1.42.64.49,1.47.2,2.28-.32.9-.15,1.91.42,2.46.57.55.83,1.38.72,2.26-.15,1.2.27,2.36,1.04,2.91.62.43,1,1.18,1.02,2,.01.46.18,2.77,2.38,2.98,2.57.25,5.43-1.16,8.94-3.34,1.48-.92,1.93-1.9,2.06-2.56.12-.62-.02-1.25-.36-1.71-.44-.59-.56-1.38-.31-2.16.29-.91-.06-1.86-.92-2.53-.71-.55-1.04-1.47-.84-2.34.21-.91-.01-1.84-.54-2.26-.59-.47-.89-1.26-.79-2.12.25-2.18-.72-2.68-1.61-2.86-.19-.04-.42-.06-.67-.06Zm4.43,7.49h0,0Z"/>
        <path class="cls-4" d="m28.33,53.22c-.96,0-1.95-.35-2.72-1.01-.36-.31-.4-.84-.09-1.2.31-.36.84-.4,1.2-.09.67.57,1.71.77,2.38.44.43-.21.63-.6.6-1.19-.05-1.19-.11-2.3-.18-3.74l-.12-2.44c-.08-1.53-2.02-1.72-5.21-1.84-.47-.02-.94-.04-1.41-.07-.47-.03-.83-.43-.8-.9s.42-.83.9-.8c.45.03.91.05,1.37.06,2.98.12,6.68.27,6.84,3.46l.12,2.44c.07,1.44.13,2.55.18,3.75.06,1.27-.51,2.29-1.56,2.8-.46.22-.98.33-1.51.33Z"/>
        <path class="cls-4" d="m12.39,47.47c-.26,0-.51-.14-.64-.39-.17-.35-.03-.78.32-.95,3.35-1.66,6.7-2.58,8.4-2.98.38-.09.76.15.85.53.09.38-.15.76-.53.85-2.79.66-5.75,1.71-8.1,2.87-.1.05-.21.07-.31.07Z"/>
        <path class="cls-4" d="m13.2,52.42c-.27,0-.53-.15-.64-.41-.16-.36,0-.78.35-.94,3.42-1.56,6.77-2.5,8.77-3.07.38-.1.77.12.87.49.11.38-.11.77-.49.87-1.96.55-5.24,1.47-8.56,2.99-.1.04-.2.06-.29.06Z"/>
        <path class="cls-4" d="m14.44,57.46c-.26,0-.52-.15-.64-.4-.17-.35-.02-.78.33-.95,3.17-1.54,6.38-2.71,8.81-3.22.39-.08.76.16.84.55.08.38-.16.76-.55.84-2.29.48-5.46,1.65-8.49,3.11-.1.05-.2.07-.31.07Z"/>
        <path class="cls-4" d="m19.81,71.13c-2.86,0-5-3-5.93-8.39-.08-.46.23-.9.69-.98.46-.08.9.23.98.69.3,1.76,1.54,7.43,4.69,6.94,2.85-.47,4.04-4.35,3.1-10.13-.08-.46.24-.9.7-.98.47-.07.9.24.98.7,1.12,6.92-.56,11.44-4.51,12.08-.24.04-.47.06-.7.06Z"/>
        <path class="cls-4" d="m15.15,73.43c-.22,0-.44-.11-.55-.32-1.89-3.28-2.52-7.49-1.64-10.98.09-.34.43-.55.78-.46.34.09.55.43.46.78-.79,3.13-.2,7.07,1.5,10.03.18.3.07.69-.23.87-.1.06-.21.08-.32.08Z"/>
        <path class="cls-4" d="m21.42,88.05c-.18,0-.36-.06-.51-.17-.13-.1-3.33-2.53-7.15-7.6-4.03-5.34-4.54-14.45-2.71-20.18.14-.45.62-.7,1.07-.55.45.14.69.62.55,1.07-1.67,5.2-1.21,13.8,2.44,18.64,3.67,4.86,6.79,7.24,6.82,7.26.38.28.45.82.17,1.19-.17.22-.42.34-.68.34Z"/>
        <path class="cls-4" d="m89.6,108.2c-.34,0-.66-.2-.79-.54-2.45-6.13-7.46-6.7-10.04-6.06-.46.11-.92-.17-1.03-.62-.11-.46.17-.92.62-1.03,4.17-1.02,9.5.77,12.03,7.08.17.44-.04.93-.47,1.11-.1.04-.21.06-.32.06Z"/>
        <path class="cls-4" d="m73.66,121.1c-.75,0-1.48-.34-1.96-.99-.73-1-.61-2.39.3-3.23.62-.58,1.59-1.35,2.92-2.03-.71-.56-1.69-.44-4.43.83-1.2.55-2.6.12-3.26-1.01-.35-.6-.44-1.32-.25-1.99.13-.45.38-.85.72-1.16-.48-.26-.88-.67-1.14-1.19-.62-1.29-.13-2.85,1.13-3.55,1.38-.76,2.71-1.41,4.35-1.49-.45-.22-.91-.31-1.38-.27-.99.07-2.36.31-3.33.49-1.37.26-2.73-.55-3.14-1.9-.43-1.42.33-2.91,1.73-3.39,3.29-1.13,6.97-1.95,9.24.5l.25.27c1.73,1.86,2.08,2.25,4.14,3.88.38.3.76.59,1.13.86,2.03,1.53,3.83,2.88,4.47,5.72,1.79-2.16,3.77-4.59,3.79-4.62.05-.06.11-.11.17-.16,1.64-1.16,1.99-1.4,2.1-3.94.03-.54.03-1,.03-1.41.01-1.87.02-3.01,1.72-6.51,1.95-4.04,2.68-6.16,2.12-8.84-.95-4.55-3.76-8.47-8.86-12.36-.82-.62-1.52-1.14-2.11-1.59-2.9-2.16-3.68-2.74-4.13-4.98-.45-2.26-.52-2.61-2.2-3.23-.42-.16-.74-.24-1-.3-1.53-.39-1.74-.88-2.77-3.81-1.19-3.4-5.88-5.34-10.32-6.8-1.49-.49-3.32-.99-5.1-1.48-2.51-.69-4.92-1.36-6.73-2.05.95,2.88,2.26,9.09,2.83,22.12.02.38-.22.72-.58.84-.36.12-.75,0-.97-.32-7.85-11.21-16.56-19.05-22.33-24.25l-.42-.38c-.35-.31-.38-.85-.06-1.2.32-.35.85-.38,1.2-.06l.42.38c5.41,4.88,13.4,12.07,20.89,22.19-.97-17.17-3.26-20.41-3.36-20.55-.25-.33-.23-.8.06-1.1s.74-.36,1.08-.13c1.4.94,4.97,1.92,8.42,2.87,1.79.49,3.65,1,5.18,1.51,4.83,1.59,9.96,3.76,11.39,7.85.89,2.55.91,2.55,1.58,2.72.29.07.68.17,1.18.36,2.56.96,2.79,2.12,3.26,4.44.32,1.61.6,1.85,3.49,4,.6.45,1.3.97,2.13,1.6,5.44,4.15,8.46,8.39,9.5,13.36.66,3.15-.16,5.61-2.25,9.93-1.53,3.16-1.54,4.09-1.55,5.78,0,.44,0,.91-.03,1.48-.14,3.06-.79,3.81-2.73,5.18-.47.58-3.1,3.81-4.9,5.93l-.09.26c-.82,2.29-1.67,4.66-5.18,4.97-2.15.19-3.69.67-5.01,1.55-.42.28-.88.42-1.35.42Zm.32-8.28c1.17,0,2.09.54,3.02,1.82.15.21.2.48.13.73-.07.25-.25.46-.5.55-1.64.67-2.79,1.56-3.47,2.19-.27.26-.31.68-.09.98.23.32.67.39.99.18,1.55-1.05,3.39-1.63,5.81-1.84,2.42-.21,2.91-1.58,3.72-3.85l.09-.25c-.15-3.35-1.7-4.51-4.03-6.27-.38-.28-.76-.57-1.16-.89-2.16-1.71-2.58-2.16-4.34-4.05l-.25-.27c-1.28-1.38-3.5-1.39-7.44-.04-.52.18-.82.76-.65,1.29.16.51.66.83,1.19.72,1.02-.19,2.46-.44,3.53-.52,1.72-.12,3.37.78,4.69,2.62.21.29.21.69,0,.98-.21.29-.58.43-.92.33-2.26-.63-3.61-.2-5.79,1.01-.47.26-.66.84-.43,1.32.23.47.79.69,1.27.49,3.88-1.58,5.81-.43,6.02-.29.32.21.46.61.34.98-.12.37-.46.6-.86.58-2.44-.15-4.51.63-5.83,1.3-.21.11-.36.29-.42.51-.06.22-.03.45.08.65.22.37.68.51,1.08.33,1.76-.82,3.1-1.31,4.21-1.31Z"/>
        <path class="cls-4" d="m79.53,112.6s-.07,0-.1,0c-.35-.06-.58-.38-.53-.73.09-.55-.06-.88-.24-1.25-.13-.28-.28-.6-.28-.97,0-.64-.09-1.29-.24-1.74-.11-.33.07-.7.4-.81.33-.11.7.07.81.4.19.58.3,1.36.3,2.14,0,.1.08.26.16.44.21.45.49,1.06.34,1.99-.05.31-.32.54-.63.54Z"/>
        <path class="cls-4" d="m25.39,83.49c-.18,0-.37-.08-.49-.23-1.96-2.37-2.17-4.88-2.34-6.89-.03-.38-.06-.75-.1-1.09-.25-2.08-.7-3.19-1.61-5.08-.15-.32-.02-.7.3-.85.31-.15.7-.02.85.3,1,2.09,1.46,3.32,1.72,5.48.04.36.08.74.11,1.14.16,1.93.35,4.13,2.05,6.18.22.27.19.67-.08.9-.12.1-.26.15-.41.15Z"/>
        <path class="cls-4" d="m21.74,82.43c-.52,0-1.03-.05-1.55-.16-.34-.07-.57-.41-.49-.75.07-.34.41-.57.75-.49,1.87.39,3.79-.08,5.27-1.3,1.38-1.13,3.01-3.44,2.97-7.99,0-.35.28-.64.63-.64.33-.01.64.28.64.63.05,5.05-1.84,7.68-3.44,8.99-1.37,1.13-3.06,1.72-4.79,1.72Z"/>
        <path class="cls-4" d="m35.25,203.45c-.35,0-.63-.28-.64-.62-.03-1.24-.03-2.41-.03-3.7,0-3.85,0-8.65-.72-18.99-1.02-14.73-2.37-31.64-3.08-36.21-.77-4.94-1.07-7.61-.94-14.19,0-.35.33-.6.65-.62.35,0,.63.3.62.65-.13,6.48.16,9.1.92,13.97.72,4.6,2.07,21.56,3.09,36.32.72,10.39.72,15.21.72,19.08,0,1.28,0,2.44.03,3.67,0,.35-.27.64-.62.65h-.01Z"/>
        <path class="cls-4" d="m62.58,149.46c-.19,0-.38-.09-.51-.25-.21-.28-.16-.68.12-.89,3.2-2.45,6.15-3.94,6.27-4,.32-.16.7-.03.86.29.16.31.03.7-.29.86-.03.01-2.96,1.49-6.07,3.87-.12.09-.25.13-.39.13Z"/>
        <ellipse class="cls-4" cx="56.01" cy="83.76" rx="1.09" ry="1.27" transform="translate(-13.24 10.57) rotate(-9.65)"/>
        <ellipse class="cls-4" cx="57.11" cy="93.93" rx="1.09" ry="1.27" transform="translate(-14.93 10.9) rotate(-9.65)"/>
        <ellipse class="cls-4" cx="58.48" cy="104.65" rx="1.09" ry="1.27" transform="translate(-16.71 11.28) rotate(-9.65)"/>
        <path class="cls-4" d="m28.52,21.68c-.32,0-.6-.24-.63-.57-.04-.35.21-.67.56-.7,1.78-.2,2.46-.27,3.68-.27.35,0,.64.29.64.64s-.29.64-.64.64c-1.16,0-1.81.07-3.54.26-.02,0-.05,0-.07,0Z"/>
        <path class="cls-4" d="m39.03,19.4c-.18,0-.36-.08-.48-.22-.23-.27-.2-.67.07-.9.87-.75,1.88-1.49,2.83-2.09.3-.19.69-.1.88.2.19.3.1.69-.2.88-.91.57-1.86,1.27-2.68,1.98-.12.1-.27.15-.42.15Z"/>
        <path class="cls-4" d="m41.27,24.94c-1.81,0-2.81-.99-3.36-1.92-.38-.64-.46-1.38-.24-2.11.23-.76.76-1.39,1.47-1.74,1.4-.69,3.45-1.26,4.97-1.39h0c.91-.08,1.49.26,1.81.56.45.43.69,1.06.67,1.76-.07,2.62-1.31,4.07-4.02,4.67-.48.11-.91.15-1.31.15Zm2.96-5.74c-1.37.12-3.21.63-4.47,1.25-.36.17-.62.49-.74.87-.1.34-.06.69.11.98.4.68,1.17,1.54,3.14,1.1,2.07-.46,2.86-1.36,2.91-3.33,0-.3-.07-.55-.23-.7-.16-.15-.4-.21-.72-.18h0Z"/>
        <path class="cls-4" d="m34.83,23.29c-.17,0-.34-.06-.48-.18-.29-.26-.31-.71-.05-1,.85-.93,2.66-1.33,4-1.24.39.03.69.36.66.75s-.38.69-.75.66c-1.1-.07-2.41.29-2.86.78-.14.15-.33.23-.52.23Z"/>
        <path class="cls-4" d="m29.96,28.44c-.77,0-1.45-.21-2.04-.61-.48-.33-.95-.85-1.39-1.54-.69-1.08-.37-2.5.76-3.31.71-.51,1.35-.78,2.33-1.19l.11-.04h0c1.12-.47,2.51-.71,3.74-.64.76.04,1.31.27,1.69.71.55.63.56,1.53.51,2.23-.15,1.96-1.03,2.75-2.72,3.59-1.1.54-2.1.82-2.98.82Zm.31-5.39l-.11.04c-.95.4-1.47.62-2.05,1.03-.44.32-.72.9-.4,1.4.33.52.68.91,1,1.14.82.57,2.03.46,3.59-.31,1.5-.74,1.85-1.17,1.94-2.42.05-.61,0-1.01-.16-1.19-.11-.13-.35-.2-.7-.22-1.01-.06-2.2.15-3.11.53Z"/>
        <path class="cls-4" d="m40.88,22c-.3,0-.57-.21-.63-.52-.06-.35.16-.68.51-.74,1.04-.2,1.77-.17,2.35-.11.35.03.61.34.58.69-.03.35-.35.61-.69.58-.49-.04-1.11-.07-2,.1-.04,0-.08.01-.12.01Z"/>
        <path class="cls-4" d="m30.17,26.07c-.17,0-.33-.06-.46-.19-.25-.25-.24-.66,0-.9.73-.71,1.51-1.18,2.62-1.56.33-.12.7.06.81.4s-.06.7-.4.81c-.91.31-1.55.69-2.14,1.26-.12.12-.29.18-.45.18Z"/>
      </g>
    </g>
  </g>
  <g id="_アイコン" data-name="アイコン">
    <g>
      <path class="cls-7" d="m11.62,119.93c1.54-6.63-3.37-11.44-7.31-11.37-.36,0-.64.3-.63.65l.06,1.43c.02.41-.37.73-.77.63l-1.39-.34c-.35-.08-.69.14-.76.49-.84,3.84,2.91,9.6,9.71,9.4.52-.02.97-.39,1.09-.89Z"/>
      <path class="cls-3" d="m10.18,121.53c-4.39,0-6.95-2.29-8.11-3.68-1.65-1.99-2.39-4.51-1.94-6.59.08-.35.3-.67.6-.86.31-.19.67-.25,1.02-.17l1.28.31-.05-1.32c-.01-.36.11-.7.36-.96s.6-.42.96-.42h.09c2.1,0,4.39,1.22,5.99,3.2,1.17,1.45,2.97,4.54,1.93,9.04h0c-.19.81-.93,1.42-1.76,1.44-.13,0-.25,0-.38,0Zm-8.68-9.9c-.33,1.65.3,3.68,1.66,5.31.99,1.2,3.21,3.17,7.02,3.17.11,0,.22,0,.33,0,.19,0,.38-.15.42-.34.91-3.91-.64-6.58-1.65-7.83-1.34-1.65-3.2-2.67-4.88-2.67l.05,1.35c.02.42-.16.81-.48,1.08-.33.27-.75.36-1.16.26l-1.31-.32Zm10.12,8.29h0,0Z"/>
    </g>
    <g>
      <path class="cls-7" d="m86.83,51.52c4.07,1.71,7.69-.9,8.08-3.42.04-.23-.12-.44-.35-.47l-.92-.12c-.27-.04-.42-.31-.32-.56l.37-.85c.09-.21-.01-.45-.23-.54-2.37-.96-6.47.8-7.09,5.17-.05.33.14.67.45.8Z"/>
      <path class="cls-3" d="m89.46,52.7c-.96,0-1.94-.2-2.88-.59h0c-.58-.24-.92-.85-.83-1.47.32-2.22,1.55-4.1,3.37-5.15,1.5-.86,3.25-1.06,4.58-.52.26.11.47.32.58.58.11.26.1.55,0,.81l-.25.57.61.08c.28.04.53.18.7.41.17.23.24.51.2.79-.22,1.42-1.3,2.82-2.81,3.67-1,.56-2.12.84-3.27.84Zm2.61-6.77c-.75,0-1.57.22-2.32.66-.87.5-2.39,1.72-2.75,4.23,0,.04.02.1.07.12h0c2.33.99,4.16.31,5.04-.18,1.09-.61,1.89-1.56,2.12-2.52l-.68-.09c-.33-.04-.61-.23-.77-.52-.16-.29-.18-.62-.05-.93l.27-.63c-.29-.09-.61-.13-.94-.13Z"/>
    </g>
  </g>
</svg>