<?xml version="1.0" encoding="UTF-8"?>
<svg id="Layer_2" data-name="Layer 2" xmlns="http://www.w3.org/2000/svg" viewBox="0 0 140.52 194.72">
  <defs>
    <style>
      .cls-1 {
        fill: #fff;
      }

      .cls-2 {
        fill: #565656;
      }

      .cls-3 {
        fill: #363636;
      }

      .cls-4 {
        fill: #8f8f8f;
      }

      .cls-5 {
        fill: #ffc0c0;
      }

      .cls-6 {
        fill: #ffdfbc;
      }

      .cls-7 {
        fill: #ffd964;
      }
    </style>
  </defs>
  <g id="_背景ドット" data-name="背景ドット">
    <g>
      <circle class="cls-1" cx="57.83" cy="103.76" r=".59"/>
      <path class="cls-1" d="m59.84,100.88c.06,0,.11-.02.16-.03-.04-.39-.09-.77-.14-1.15,0,0-.01,0-.02,0-.33,0-.59.27-.59.59s.27.59.59.59Z"/>
      <path class="cls-1" d="m59.24,107.24c0,.33.27.59.59.59.01,0,.02,0,.04,0,.05-.38.1-.76.13-1.15-.06-.02-.11-.03-.17-.03-.33,0-.59.27-.59.59Z"/>
      <circle class="cls-1" cx="53.82" cy="89.86" r=".59"/>
      <path class="cls-1" d="m55.82,92.74c-.33,0-.59.27-.59.59s.27.59.59.59.59-.27.59-.59-.27-.59-.59-.59Z"/>
      <circle class="cls-1" cx="53.82" cy="103.76" r=".59"/>
      <path class="cls-1" d="m56.42,100.28c0-.33-.27-.59-.59-.59s-.59.27-.59.59.27.59.59.59.59-.27.59-.59Z"/>
      <path class="cls-1" d="m57.24,96.81c0,.33.27.59.59.59s.59-.27.59-.59-.27-.59-.59-.59-.59.27-.59.59Z"/>
      <circle class="cls-1" cx="53.82" cy="110.71" r=".59"/>
      <path class="cls-1" d="m55.23,107.24c0,.33.27.59.59.59s.59-.27.59-.59-.27-.59-.59-.59-.59.27-.59.59Z"/>
      <circle class="cls-1" cx="53.82" cy="117.66" r=".59"/>
      <path class="cls-1" d="m55.82,113.59c-.33,0-.59.27-.59.59s.27.59.59.59.59-.27.59-.59-.27-.59-.59-.59Z"/>
      <circle class="cls-1" cx="57.83" cy="110.71" r=".59"/>
      <circle class="cls-1" cx="49.8" cy="82.9" r=".59"/>
      <path class="cls-1" d="m51.22,86.38c0,.33.27.59.59.59s.59-.27.59-.59-.27-.59-.59-.59-.59.27-.59.59Z"/>
      <path class="cls-1" d="m49.8,96.21c-.33,0-.59.27-.59.59s.27.59.59.59.59-.27.59-.59-.27-.59-.59-.59Z"/>
      <path class="cls-1" d="m51.81,93.93c.33,0,.59-.27.59-.59s-.27-.59-.59-.59-.59.27-.59.59.27.59.59.59Z"/>
      <circle class="cls-1" cx="49.8" cy="103.76" r=".59"/>
      <path class="cls-1" d="m52.4,100.28c0-.33-.27-.59-.59-.59s-.59.27-.59.59.27.59.59.59.59-.27.59-.59Z"/>
      <path class="cls-1" d="m53.82,97.4c.33,0,.59-.27.59-.59s-.27-.59-.59-.59-.59.27-.59.59.27.59.59.59Z"/>
      <circle class="cls-1" cx="49.8" cy="110.71" r=".59"/>
      <path class="cls-1" d="m51.22,107.24c0,.33.27.59.59.59s.59-.27.59-.59-.27-.59-.59-.59-.59.27-.59.59Z"/>
      <circle class="cls-1" cx="49.8" cy="117.66" r=".59"/>
      <path class="cls-1" d="m51.22,114.19c0,.33.27.59.59.59s.59-.27.59-.59-.27-.59-.59-.59-.59.27-.59.59Z"/>
      <path class="cls-1" d="m49.8,124.02c-.33,0-.59.27-.59.59s.27.59.59.59.59-.27.59-.59-.27-.59-.59-.59Z"/>
      <path class="cls-1" d="m52.4,121.14c0-.33-.27-.59-.59-.59s-.59.27-.59.59.27.59.59.59.59-.27.59-.59Z"/>
      <path class="cls-1" d="m47.8,80.02c.16,0,.3-.06.41-.17-.31-.23-.62-.46-.94-.68-.04.08-.06.16-.06.25,0,.33.27.59.59.59Z"/>
      <circle class="cls-1" cx="45.79" cy="89.86" r=".59"/>
      <path class="cls-1" d="m47.8,86.97c.33,0,.59-.27.59-.59s-.27-.59-.59-.59-.59.27-.59.59.27.59.59.59Z"/>
      <path class="cls-1" d="m45.79,96.21c-.33,0-.59.27-.59.59s.27.59.59.59.59-.27.59-.59-.27-.59-.59-.59Z"/>
      <path class="cls-1" d="m48.39,93.33c0-.33-.27-.59-.59-.59s-.59.27-.59.59.27.59.59.59.59-.27.59-.59Z"/>
      <circle class="cls-1" cx="49.8" cy="89.86" r=".59"/>
      <circle class="cls-1" cx="45.79" cy="103.76" r=".59"/>
      <path class="cls-1" d="m48.39,100.28c0-.33-.27-.59-.59-.59s-.59.27-.59.59.27.59.59.59.59-.27.59-.59Z"/>
      <circle class="cls-1" cx="45.79" cy="110.71" r=".59"/>
      <path class="cls-1" d="m47.2,107.24c0,.33.27.59.59.59s.59-.27.59-.59-.27-.59-.59-.59-.59.27-.59.59Z"/>
      <circle class="cls-1" cx="45.79" cy="117.66" r=".59"/>
      <path class="cls-1" d="m47.2,114.19c0,.33.27.59.59.59s.59-.27.59-.59-.27-.59-.59-.59-.59.27-.59.59Z"/>
      <path class="cls-1" d="m45.79,124.02c-.33,0-.59.27-.59.59s.27.59.59.59.59-.27.59-.59-.27-.59-.59-.59Z"/>
      <path class="cls-1" d="m47.2,121.14c0,.33.27.59.59.59s.59-.27.59-.59-.27-.59-.59-.59-.59.27-.59.59Z"/>
      <path class="cls-1" d="m47.8,127.5c-.33,0-.59.27-.59.59,0,.13.05.25.12.35.32-.22.63-.45.94-.69-.11-.15-.28-.25-.47-.25Z"/>
      <circle class="cls-1" cx="41.78" cy="82.9" r=".59"/>
      <circle class="cls-1" cx="43.78" cy="79.43" r=".59"/>
      <circle class="cls-1" cx="41.78" cy="89.86" r=".59"/>
      <circle class="cls-1" cx="43.78" cy="86.38" r=".59"/>
      <circle class="cls-1" cx="45.79" cy="82.9" r=".59"/>
      <path class="cls-1" d="m41.78,96.21c-.33,0-.59.27-.59.59s.27.59.59.59.59-.27.59-.59-.27-.59-.59-.59Z"/>
      <circle class="cls-1" cx="43.78" cy="93.33" r=".59"/>
      <path class="cls-1" d="m44.38,100.28c0-.33-.27-.59-.59-.59s-.59.27-.59.59.27.59.59.59.59-.27.59-.59Z"/>
      <circle class="cls-1" cx="43.78" cy="107.24" r=".59"/>
      <circle class="cls-1" cx="43.78" cy="114.19" r=".59"/>
      <path class="cls-1" d="m43.19,121.14c0,.33.27.59.59.59s.59-.27.59-.59-.27-.59-.59-.59-.59.27-.59.59Z"/>
      <circle class="cls-1" cx="43.78" cy="128.09" r=".59"/>
      <path class="cls-1" d="m37.76,75.36c-.33,0-.59.27-.59.59s.27.59.59.59.59-.27.59-.59-.27-.59-.59-.59Z"/>
      <circle class="cls-1" cx="37.76" cy="82.9" r=".59"/>
      <circle class="cls-1" cx="39.77" cy="79.43" r=".59"/>
      <path class="cls-1" d="m41.18,75.95c0,.33.27.59.59.59.18,0,.33-.08.44-.21-.34-.15-.68-.29-1.03-.43,0,.01,0,.03,0,.04Z"/>
      <circle class="cls-1" cx="37.76" cy="89.86" r=".59"/>
      <circle class="cls-1" cx="39.77" cy="86.38" r=".59"/>
      <path class="cls-1" d="m37.76,96.21c-.33,0-.59.27-.59.59s.27.59.59.59.59-.27.59-.59-.27-.59-.59-.59Z"/>
      <circle class="cls-1" cx="39.77" cy="93.33" r=".59"/>
      <circle class="cls-1" cx="37.76" cy="103.76" r=".59"/>
      <path class="cls-1" d="m40.36,100.28c0-.33-.27-.59-.59-.59s-.59.27-.59.59.27.59.59.59.59-.27.59-.59Z"/>
      <circle class="cls-1" cx="37.76" cy="110.71" r=".59"/>
      <circle class="cls-1" cx="39.77" cy="107.24" r=".59"/>
      <circle class="cls-1" cx="41.78" cy="103.76" r=".59"/>
      <circle class="cls-1" cx="37.76" cy="117.66" r=".59"/>
      <circle class="cls-1" cx="39.77" cy="114.19" r=".59"/>
      <circle class="cls-1" cx="41.78" cy="110.71" r=".59"/>
      <path class="cls-1" d="m37.76,124.02c-.33,0-.59.27-.59.59s.27.59.59.59.59-.27.59-.59-.27-.59-.59-.59Z"/>
      <path class="cls-1" d="m39.17,121.14c0,.33.27.59.59.59s.59-.27.59-.59-.27-.59-.59-.59-.59.27-.59.59Z"/>
      <circle class="cls-1" cx="41.78" cy="117.66" r=".59"/>
      <path class="cls-1" d="m42.29,131.29c-.1-.18-.29-.31-.51-.31-.33,0-.59.27-.59.59,0,.06.02.12.03.17.36-.14.72-.29,1.07-.45Z"/>
      <circle class="cls-1" cx="37.76" cy="131.57" r=".59"/>
      <circle class="cls-1" cx="39.77" cy="128.09" r=".59"/>
      <path class="cls-1" d="m41.78,125.21c.33,0,.59-.27.59-.59s-.27-.59-.59-.59-.59.27-.59.59.27.59.59.59Z"/>
      <path class="cls-1" d="m33.75,75.36c-.33,0-.59.27-.59.59s.27.59.59.59.59-.27.59-.59-.27-.59-.59-.59Z"/>
      <path class="cls-1" d="m33.75,82.31c-.33,0-.59.27-.59.59s.27.59.59.59.59-.27.59-.59-.27-.59-.59-.59Z"/>
      <circle class="cls-1" cx="35.75" cy="79.43" r=".59"/>
      <path class="cls-1" d="m33.75,89.26c-.33,0-.59.27-.59.59s.27.59.59.59.59-.27.59-.59-.27-.59-.59-.59Z"/>
      <circle class="cls-1" cx="35.75" cy="86.38" r=".59"/>
      <path class="cls-1" d="m33.75,96.21c-.33,0-.59.27-.59.59s.27.59.59.59.59-.27.59-.59-.27-.59-.59-.59Z"/>
      <circle class="cls-1" cx="35.75" cy="93.33" r=".59"/>
      <path class="cls-1" d="m33.75,103.17c-.33,0-.59.27-.59.59s.27.59.59.59.59-.27.59-.59-.27-.59-.59-.59Z"/>
      <path class="cls-1" d="m36.35,100.28c0-.33-.27-.59-.59-.59s-.59.27-.59.59.27.59.59.59.59-.27.59-.59Z"/>
      <path class="cls-1" d="m33.75,110.12c-.33,0-.59.27-.59.59s.27.59.59.59.59-.27.59-.59-.27-.59-.59-.59Z"/>
      <circle class="cls-1" cx="35.75" cy="107.24" r=".59"/>
      <path class="cls-1" d="m33.75,117.07c-.33,0-.59.27-.59.59s.27.59.59.59.59-.27.59-.59-.27-.59-.59-.59Z"/>
      <circle class="cls-1" cx="35.75" cy="114.19" r=".59"/>
      <path class="cls-1" d="m33.75,124.02c-.33,0-.59.27-.59.59s.27.59.59.59.59-.27.59-.59-.27-.59-.59-.59Z"/>
      <path class="cls-1" d="m35.16,121.14c0,.33.27.59.59.59s.59-.27.59-.59-.27-.59-.59-.59-.59.27-.59.59Z"/>
      <path class="cls-1" d="m33.75,130.97c-.33,0-.59.27-.59.59s.27.59.59.59.59-.27.59-.59-.27-.59-.59-.59Z"/>
      <circle class="cls-1" cx="35.75" cy="128.09" r=".59"/>
      <path class="cls-1" d="m29.73,75.36c-.33,0-.59.27-.59.59s.27.59.59.59.59-.27.59-.59-.27-.59-.59-.59Z"/>
      <path class="cls-1" d="m29.73,82.31c-.33,0-.59.27-.59.59s.27.59.59.59.59-.27.59-.59-.27-.59-.59-.59Z"/>
      <circle class="cls-1" cx="31.74" cy="79.43" r=".59"/>
      <path class="cls-1" d="m29.73,89.26c-.33,0-.59.27-.59.59s.27.59.59.59.59-.27.59-.59-.27-.59-.59-.59Z"/>
      <circle class="cls-1" cx="31.74" cy="86.38" r=".59"/>
      <circle class="cls-1" cx="31.74" cy="93.33" r=".59"/>
      <path class="cls-1" d="m29.73,103.17c-.33,0-.59.27-.59.59s.27.59.59.59.59-.27.59-.59-.27-.59-.59-.59Z"/>
      <path class="cls-1" d="m32.33,100.28c0-.33-.27-.59-.59-.59s-.59.27-.59.59.27.59.59.59.59-.27.59-.59Z"/>
      <path class="cls-1" d="m29.73,110.12c-.33,0-.59.27-.59.59s.27.59.59.59.59-.27.59-.59-.27-.59-.59-.59Z"/>
      <circle class="cls-1" cx="31.74" cy="107.24" r=".59"/>
      <path class="cls-1" d="m29.73,117.07c-.33,0-.59.27-.59.59s.27.59.59.59.59-.27.59-.59-.27-.59-.59-.59Z"/>
      <circle class="cls-1" cx="31.74" cy="114.19" r=".59"/>
      <path class="cls-1" d="m29.73,124.02c-.33,0-.59.27-.59.59s.27.59.59.59.59-.27.59-.59-.27-.59-.59-.59Z"/>
      <path class="cls-1" d="m31.15,121.14c0,.33.27.59.59.59s.59-.27.59-.59-.27-.59-.59-.59-.59.27-.59.59Z"/>
      <path class="cls-1" d="m29.73,130.97c-.33,0-.59.27-.59.59s.27.59.59.59.59-.27.59-.59-.27-.59-.59-.59Z"/>
      <circle class="cls-1" cx="31.74" cy="128.09" r=".59"/>
      <path class="cls-1" d="m25.72,75.36c-.33,0-.59.27-.59.59s.27.59.59.59.59-.27.59-.59-.27-.59-.59-.59Z"/>
      <circle class="cls-1" cx="25.72" cy="82.9" r=".59"/>
      <circle class="cls-1" cx="27.73" cy="79.43" r=".59"/>
      <circle class="cls-1" cx="27.73" cy="86.38" r=".59"/>
      <path class="cls-1" d="m25.72,96.21c-.33,0-.59.27-.59.59s.27.59.59.59.59-.27.59-.59-.27-.59-.59-.59Z"/>
      <circle class="cls-1" cx="27.73" cy="93.33" r=".59"/>
      <circle class="cls-1" cx="25.72" cy="103.76" r=".59"/>
      <path class="cls-1" d="m28.32,100.28c0-.33-.27-.59-.59-.59s-.59.27-.59.59.27.59.59.59.59-.27.59-.59Z"/>
      <path class="cls-1" d="m29.73,97.4c.33,0,.59-.27.59-.59s-.27-.59-.59-.59-.59.27-.59.59.27.59.59.59Z"/>
      <circle class="cls-1" cx="25.72" cy="110.71" r=".59"/>
      <circle class="cls-1" cx="27.73" cy="107.24" r=".59"/>
      <circle class="cls-1" cx="25.72" cy="117.66" r=".59"/>
      <circle class="cls-1" cx="27.73" cy="114.19" r=".59"/>
      <path class="cls-1" d="m25.72,124.02c-.33,0-.59.27-.59.59s.27.59.59.59.59-.27.59-.59-.27-.59-.59-.59Z"/>
      <path class="cls-1" d="m27.13,121.14c0,.33.27.59.59.59s.59-.27.59-.59-.27-.59-.59-.59-.59.27-.59.59Z"/>
      <circle class="cls-1" cx="25.72" cy="131.57" r=".59"/>
      <circle class="cls-1" cx="27.73" cy="128.09" r=".59"/>
      <path class="cls-1" d="m21.71,75.36c-.33,0-.59.27-.59.59s.27.59.59.59.59-.27.59-.59-.27-.59-.59-.59Z"/>
      <circle class="cls-1" cx="23.71" cy="79.43" r=".59"/>
      <circle class="cls-1" cx="21.71" cy="89.86" r=".59"/>
      <circle class="cls-1" cx="23.71" cy="86.38" r=".59"/>
      <path class="cls-1" d="m21.71,96.21c-.33,0-.59.27-.59.59s.27.59.59.59.59-.27.59-.59-.27-.59-.59-.59Z"/>
      <circle class="cls-1" cx="23.71" cy="93.33" r=".59"/>
      <circle class="cls-1" cx="25.72" cy="89.86" r=".59"/>
      <path class="cls-1" d="m24.31,100.28c0-.33-.27-.59-.59-.59s-.59.27-.59.59.27.59.59.59.59-.27.59-.59Z"/>
      <circle class="cls-1" cx="23.71" cy="107.24" r=".59"/>
      <circle class="cls-1" cx="23.71" cy="114.19" r=".59"/>
      <path class="cls-1" d="m23.12,121.14c0,.33.27.59.59.59s.59-.27.59-.59-.27-.59-.59-.59-.59.27-.59.59Z"/>
      <circle class="cls-1" cx="21.71" cy="131.57" r=".59"/>
      <circle class="cls-1" cx="23.71" cy="128.09" r=".59"/>
      <circle class="cls-1" cx="17.69" cy="82.9" r=".59"/>
      <path class="cls-1" d="m19.7,80.02c.33,0,.59-.27.59-.59s-.27-.59-.59-.59-.59.27-.59.59.27.59.59.59Z"/>
      <path class="cls-1" d="m17.69,76.55c.22,0,.4-.12.5-.3-.2.09-.41.18-.61.27.04,0,.07.02.11.02Z"/>
      <circle class="cls-1" cx="17.69" cy="89.86" r=".59"/>
      <path class="cls-1" d="m20.29,86.38c0-.33-.27-.59-.59-.59s-.59.27-.59.59.27.59.59.59.59-.27.59-.59Z"/>
      <circle class="cls-1" cx="21.71" cy="82.9" r=".59"/>
      <path class="cls-1" d="m17.69,96.21c-.33,0-.59.27-.59.59s.27.59.59.59.59-.27.59-.59-.27-.59-.59-.59Z"/>
      <path class="cls-1" d="m20.29,93.33c0-.33-.27-.59-.59-.59s-.59.27-.59.59.27.59.59.59.59-.27.59-.59Z"/>
      <circle class="cls-1" cx="17.69" cy="103.76" r=".59"/>
      <path class="cls-1" d="m20.29,100.28c0-.33-.27-.59-.59-.59s-.59.27-.59.59.27.59.59.59.59-.27.59-.59Z"/>
      <circle class="cls-1" cx="17.69" cy="110.71" r=".59"/>
      <path class="cls-1" d="m19.11,107.24c0,.33.27.59.59.59s.59-.27.59-.59-.27-.59-.59-.59-.59.27-.59.59Z"/>
      <circle class="cls-1" cx="21.71" cy="103.76" r=".59"/>
      <circle class="cls-1" cx="17.69" cy="117.66" r=".59"/>
      <path class="cls-1" d="m19.11,114.19c0,.33.27.59.59.59s.59-.27.59-.59-.27-.59-.59-.59-.59.27-.59.59Z"/>
      <circle class="cls-1" cx="21.71" cy="110.71" r=".59"/>
      <path class="cls-1" d="m17.69,124.02c-.33,0-.59.27-.59.59s.27.59.59.59.59-.27.59-.59-.27-.59-.59-.59Z"/>
      <path class="cls-1" d="m19.11,121.14c0,.33.27.59.59.59s.59-.27.59-.59-.27-.59-.59-.59-.59.27-.59.59Z"/>
      <circle class="cls-1" cx="21.71" cy="117.66" r=".59"/>
      <path class="cls-1" d="m17.69,130.97c-.1,0-.2.03-.28.08.28.13.56.26.85.38-.06-.26-.29-.47-.57-.47Z"/>
      <path class="cls-1" d="m19.7,128.68c.33,0,.59-.27.59-.59s-.27-.59-.59-.59-.59.27-.59.59.27.59.59.59Z"/>
      <path class="cls-1" d="m21.71,125.21c.33,0,.59-.27.59-.59s-.27-.59-.59-.59-.59.27-.59.59.27.59.59.59Z"/>
      <circle class="cls-1" cx="13.68" cy="82.9" r=".59"/>
      <path class="cls-1" d="m16.28,79.43c0-.33-.27-.59-.59-.59s-.59.27-.59.59.27.59.59.59.59-.27.59-.59Z"/>
      <circle class="cls-1" cx="13.68" cy="89.86" r=".59"/>
      <path class="cls-1" d="m15.69,85.79c-.33,0-.59.27-.59.59s.27.59.59.59.59-.27.59-.59-.27-.59-.59-.59Z"/>
      <path class="cls-1" d="m13.68,96.21c-.33,0-.59.27-.59.59s.27.59.59.59.59-.27.59-.59-.27-.59-.59-.59Z"/>
      <path class="cls-1" d="m16.28,93.33c0-.33-.27-.59-.59-.59s-.59.27-.59.59.27.59.59.59.59-.27.59-.59Z"/>
      <circle class="cls-1" cx="13.68" cy="103.76" r=".59"/>
      <path class="cls-1" d="m16.28,100.28c0-.33-.27-.59-.59-.59s-.59.27-.59.59.27.59.59.59.59-.27.59-.59Z"/>
      <circle class="cls-1" cx="13.68" cy="110.71" r=".59"/>
      <path class="cls-1" d="m15.09,107.24c0,.33.27.59.59.59s.59-.27.59-.59-.27-.59-.59-.59-.59.27-.59.59Z"/>
      <circle class="cls-1" cx="13.68" cy="117.66" r=".59"/>
      <path class="cls-1" d="m15.09,114.19c0,.33.27.59.59.59s.59-.27.59-.59-.27-.59-.59-.59-.59.27-.59.59Z"/>
      <path class="cls-1" d="m13.68,124.02c-.33,0-.59.27-.59.59s.27.59.59.59.59-.27.59-.59-.27-.59-.59-.59Z"/>
      <path class="cls-1" d="m15.09,121.14c0,.33.27.59.59.59s.59-.27.59-.59-.27-.59-.59-.59-.59.27-.59.59Z"/>
      <path class="cls-1" d="m15.09,128.09c0,.33.27.59.59.59s.59-.27.59-.59-.27-.59-.59-.59-.59.27-.59.59Z"/>
      <path class="cls-1" d="m12.17,79.73c-.11.08-.22.17-.33.26.14-.04.25-.13.33-.26Z"/>
      <path class="cls-1" d="m12.27,86.38c0-.33-.27-.59-.59-.59s-.59.27-.59.59.27.59.59.59.59-.27.59-.59Z"/>
      <path class="cls-1" d="m9.67,96.21c-.33,0-.59.27-.59.59s.27.59.59.59.59-.27.59-.59-.27-.59-.59-.59Z"/>
      <path class="cls-1" d="m11.67,93.93c.33,0,.59-.27.59-.59s-.27-.59-.59-.59-.59.27-.59.59.27.59.59.59Z"/>
      <path class="cls-1" d="m12.27,100.28c0-.33-.27-.59-.59-.59s-.59.27-.59.59.27.59.59.59.59-.27.59-.59Z"/>
      <path class="cls-1" d="m11.08,107.24c0,.33.27.59.59.59s.59-.27.59-.59-.27-.59-.59-.59-.59.27-.59.59Z"/>
      <path class="cls-1" d="m11.08,114.19c0,.33.27.59.59.59s.59-.27.59-.59-.27-.59-.59-.59-.59.27-.59.59Z"/>
      <path class="cls-1" d="m9.67,124.02c-.33,0-.59.27-.59.59s.27.59.59.59.59-.27.59-.59-.27-.59-.59-.59Z"/>
      <path class="cls-1" d="m11.08,121.14c0,.33.27.59.59.59s.59-.27.59-.59-.27-.59-.59-.59-.59.27-.59.59Z"/>
      <path class="cls-1" d="m11.67,127.5s-.03,0-.04,0c.2.16.41.32.61.47-.05-.27-.28-.48-.57-.48Z"/>
      <circle class="cls-1" cx="5.65" cy="89.86" r=".59"/>
      <circle class="cls-1" cx="7.66" cy="86.38" r=".59"/>
      <circle class="cls-1" cx="9.67" cy="82.9" r=".59"/>
      <path class="cls-1" d="m5.65,96.21c-.33,0-.59.27-.59.59s.27.59.59.59.59-.27.59-.59-.27-.59-.59-.59Z"/>
      <circle class="cls-1" cx="7.66" cy="93.33" r=".59"/>
      <circle class="cls-1" cx="9.67" cy="89.86" r=".59"/>
      <circle class="cls-1" cx="5.65" cy="103.76" r=".59"/>
      <path class="cls-1" d="m8.25,100.28c0-.33-.27-.59-.59-.59s-.59.27-.59.59.27.59.59.59.59-.27.59-.59Z"/>
      <circle class="cls-1" cx="5.65" cy="110.71" r=".59"/>
      <circle class="cls-1" cx="7.66" cy="107.24" r=".59"/>
      <circle class="cls-1" cx="9.67" cy="103.76" r=".59"/>
      <circle class="cls-1" cx="5.65" cy="117.66" r=".59"/>
      <circle class="cls-1" cx="7.66" cy="114.19" r=".59"/>
      <circle class="cls-1" cx="9.67" cy="110.71" r=".59"/>
      <path class="cls-1" d="m7.66,120.55c-.33,0-.59.27-.59.59s.27.59.59.59.59-.27.59-.59-.27-.59-.59-.59Z"/>
      <circle class="cls-1" cx="9.67" cy="117.66" r=".59"/>
      <circle class="cls-1" cx="3.65" cy="93.33" r=".59"/>
      <path class="cls-1" d="m4.24,100.28c0-.33-.27-.59-.59-.59s-.59.27-.59.59.27.59.59.59.59-.27.59-.59Z"/>
      <circle class="cls-1" cx="3.65" cy="107.24" r=".59"/>
      <circle class="cls-1" cx="3.65" cy="114.19" r=".59"/>
      <path class="cls-1" d="m1.64,97.4c.33,0,.59-.27.59-.59s-.27-.59-.59-.59-.59.27-.59.59.27.59.59.59Z"/>
      <path class="cls-1" d="m1.64,104.35c.33,0,.59-.27.59-.59s-.27-.59-.59-.59-.59.27-.59.59.27.59.59.59Z"/>
      <path class="cls-1" d="m1.64,111.31c.33,0,.59-.27.59-.59s-.27-.59-.59-.59-.59.27-.59.59.27.59.59.59Z"/>
    </g>
    <g>
      <path class="cls-1" d="m138.1,158.78c-.33,0-.59.27-.59.59s.27.59.59.59.59-.27.59-.59-.27-.59-.59-.59Z"/>
      <path class="cls-1" d="m138.1,165.73c-.33,0-.59.27-.59.59s.27.59.59.59.59-.27.59-.59-.27-.59-.59-.59Z"/>
      <path class="cls-1" d="m139.51,162.85c0,.33.27.59.59.59.16,0,.31-.07.41-.17-.02-.29-.02-.59-.04-.88-.1-.08-.23-.14-.37-.14-.33,0-.59.27-.59.59Z"/>
      <path class="cls-1" d="m138.6,172.97c-.11-.17-.28-.28-.49-.28-.33,0-.59.27-.59.59s.27.59.59.59c.02,0,.04-.01.06-.01.16-.29.29-.59.43-.89Z"/>
      <path class="cls-1" d="m139.51,169.8c0,.17.07.31.18.42.1-.32.17-.65.25-.98-.25.07-.43.29-.43.56Z"/>
      <path class="cls-1" d="m134.09,151.83c-.33,0-.59.27-.59.59s.27.59.59.59.59-.27.59-.59-.27-.59-.59-.59Z"/>
      <circle class="cls-1" cx="136.09" cy="155.9" r=".59"/>
      <circle class="cls-1" cx="136.09" cy="162.85" r=".59"/>
      <circle class="cls-1" cx="136.09" cy="169.8" r=".59"/>
      <path class="cls-1" d="m136.09,176.16c-.33,0-.59.27-.59.59,0,.23.13.41.31.51.25-.29.48-.6.72-.91-.11-.12-.26-.2-.44-.2Z"/>
      <path class="cls-1" d="m132.67,148.95c0-.33-.27-.59-.59-.59s-.59.27-.59.59.27.59.59.59.59-.27.59-.59Z"/>
      <path class="cls-1" d="m130.07,158.78c-.33,0-.59.27-.59.59s.27.59.59.59.59-.27.59-.59-.27-.59-.59-.59Z"/>
      <path class="cls-1" d="m132.08,156.49c.33,0,.59-.27.59-.59s-.27-.59-.59-.59-.59.27-.59.59.27.59.59.59Z"/>
      <path class="cls-1" d="m130.07,165.73c-.33,0-.59.27-.59.59s.27.59.59.59.59-.27.59-.59-.27-.59-.59-.59Z"/>
      <path class="cls-1" d="m131.49,162.85c0,.33.27.59.59.59s.59-.27.59-.59-.27-.59-.59-.59-.59.27-.59.59Z"/>
      <path class="cls-1" d="m134.09,159.97c.33,0,.59-.27.59-.59s-.27-.59-.59-.59-.59.27-.59.59.27.59.59.59Z"/>
      <path class="cls-1" d="m130.07,172.68c-.33,0-.59.27-.59.59s.27.59.59.59.59-.27.59-.59-.27-.59-.59-.59Z"/>
      <path class="cls-1" d="m131.49,169.8c0,.33.27.59.59.59s.59-.27.59-.59-.27-.59-.59-.59-.59.27-.59.59Z"/>
      <path class="cls-1" d="m134.09,166.92c.33,0,.59-.27.59-.59s-.27-.59-.59-.59-.59.27-.59.59.27.59.59.59Z"/>
      <path class="cls-1" d="m130.07,179.64c-.33,0-.59.27-.59.59s.27.59.59.59.59-.27.59-.59-.27-.59-.59-.59Z"/>
      <path class="cls-1" d="m132.08,176.16c-.33,0-.59.27-.59.59s.27.59.59.59.59-.27.59-.59-.27-.59-.59-.59Z"/>
      <path class="cls-1" d="m134.09,173.87c.33,0,.59-.27.59-.59s-.27-.59-.59-.59-.59.27-.59.59.27.59.59.59Z"/>
      <path class="cls-1" d="m126.06,151.83c-.33,0-.59.27-.59.59s.27.59.59.59.59-.27.59-.59-.27-.59-.59-.59Z"/>
      <path class="cls-1" d="m128.07,149.54c.33,0,.59-.27.59-.59s-.27-.59-.59-.59-.59.27-.59.59.27.59.59.59Z"/>
      <path class="cls-1" d="m126.06,158.78c-.33,0-.59.27-.59.59s.27.59.59.59.59-.27.59-.59-.27-.59-.59-.59Z"/>
      <circle class="cls-1" cx="128.07" cy="155.9" r=".59"/>
      <path class="cls-1" d="m130.07,153.02c.33,0,.59-.27.59-.59s-.27-.59-.59-.59-.59.27-.59.59.27.59.59.59Z"/>
      <path class="cls-1" d="m126.06,165.73c-.33,0-.59.27-.59.59s.27.59.59.59.59-.27.59-.59-.27-.59-.59-.59Z"/>
      <circle class="cls-1" cx="128.07" cy="162.85" r=".59"/>
      <path class="cls-1" d="m126.06,172.68c-.33,0-.59.27-.59.59s.27.59.59.59.59-.27.59-.59-.27-.59-.59-.59Z"/>
      <circle class="cls-1" cx="128.07" cy="169.8" r=".59"/>
      <path class="cls-1" d="m126.06,179.64c-.33,0-.59.27-.59.59s.27.59.59.59.59-.27.59-.59-.27-.59-.59-.59Z"/>
      <path class="cls-1" d="m127.47,176.75c0,.33.27.59.59.59s.59-.27.59-.59-.27-.59-.59-.59-.59.27-.59.59Z"/>
      <path class="cls-1" d="m125.47,145.47c0,.33.27.59.59.59s.59-.27.59-.59c0-.07-.02-.14-.04-.21-.3-.1-.61-.17-.92-.25-.13.11-.22.27-.22.45Z"/>
      <circle class="cls-1" cx="122.05" cy="145.47" r=".59"/>
      <path class="cls-1" d="m122.05,151.83c-.33,0-.59.27-.59.59s.27.59.59.59.59-.27.59-.59-.27-.59-.59-.59Z"/>
      <path class="cls-1" d="m124.05,148.35c-.33,0-.59.27-.59.59s.27.59.59.59.59-.27.59-.59-.27-.59-.59-.59Z"/>
      <path class="cls-1" d="m122.05,158.78c-.33,0-.59.27-.59.59s.27.59.59.59.59-.27.59-.59-.27-.59-.59-.59Z"/>
      <path class="cls-1" d="m124.65,155.9c0-.33-.27-.59-.59-.59s-.59.27-.59.59.27.59.59.59.59-.27.59-.59Z"/>
      <path class="cls-1" d="m122.05,165.73c-.33,0-.59.27-.59.59s.27.59.59.59.59-.27.59-.59-.27-.59-.59-.59Z"/>
      <path class="cls-1" d="m124.65,162.85c0-.33-.27-.59-.59-.59s-.59.27-.59.59.27.59.59.59.59-.27.59-.59Z"/>
      <path class="cls-1" d="m122.05,172.68c-.33,0-.59.27-.59.59s.27.59.59.59.59-.27.59-.59-.27-.59-.59-.59Z"/>
      <path class="cls-1" d="m123.46,169.8c0,.33.27.59.59.59s.59-.27.59-.59-.27-.59-.59-.59-.59.27-.59.59Z"/>
      <circle class="cls-1" cx="122.05" cy="180.23" r=".59"/>
      <path class="cls-1" d="m123.46,176.75c0,.33.27.59.59.59s.59-.27.59-.59-.27-.59-.59-.59-.59.27-.59.59Z"/>
      <path class="cls-1" d="m124.05,183.11c-.33,0-.59.27-.59.59,0,.14.06.27.14.38.33-.05.67-.09,1-.15.03-.07.04-.14.04-.22,0-.33-.27-.59-.59-.59Z"/>
      <path class="cls-1" d="m118.03,144.88c-.33,0-.59.27-.59.59s.27.59.59.59.59-.27.59-.59-.27-.59-.59-.59Z"/>
      <path class="cls-1" d="m120.63,148.95c0-.33-.27-.59-.59-.59s-.59.27-.59.59.27.59.59.59.59-.27.59-.59Z"/>
      <path class="cls-1" d="m118.03,158.78c-.33,0-.59.27-.59.59s.27.59.59.59.59-.27.59-.59-.27-.59-.59-.59Z"/>
      <circle class="cls-1" cx="120.04" cy="155.9" r=".59"/>
      <path class="cls-1" d="m118.03,165.73c-.33,0-.59.27-.59.59s.27.59.59.59.59-.27.59-.59-.27-.59-.59-.59Z"/>
      <circle class="cls-1" cx="120.04" cy="162.85" r=".59"/>
      <path class="cls-1" d="m118.03,172.68c-.33,0-.59.27-.59.59s.27.59.59.59.59-.27.59-.59-.27-.59-.59-.59Z"/>
      <circle class="cls-1" cx="120.04" cy="169.8" r=".59"/>
      <path class="cls-1" d="m118.03,179.64c-.33,0-.59.27-.59.59s.27.59.59.59.59-.27.59-.59-.27-.59-.59-.59Z"/>
      <path class="cls-1" d="m119.45,176.75c0,.33.27.59.59.59s.59-.27.59-.59-.27-.59-.59-.59-.59.27-.59.59Z"/>
      <path class="cls-1" d="m119.45,183.7c0,.33.27.59.59.59s.59-.27.59-.59-.27-.59-.59-.59-.59.27-.59.59Z"/>
      <path class="cls-1" d="m114.02,151.83c-.33,0-.59.27-.59.59s.27.59.59.59.59-.27.59-.59-.27-.59-.59-.59Z"/>
      <path class="cls-1" d="m116.03,149.54c.33,0,.59-.27.59-.59s-.27-.59-.59-.59-.59.27-.59.59.27.59.59.59Z"/>
      <path class="cls-1" d="m114.02,158.78c-.33,0-.59.27-.59.59s.27.59.59.59.59-.27.59-.59-.27-.59-.59-.59Z"/>
      <path class="cls-1" d="m116.62,155.9c0-.33-.27-.59-.59-.59s-.59.27-.59.59.27.59.59.59.59-.27.59-.59Z"/>
      <path class="cls-1" d="m118.03,153.02c.33,0,.59-.27.59-.59s-.27-.59-.59-.59-.59.27-.59.59.27.59.59.59Z"/>
      <path class="cls-1" d="m114.02,165.73c-.33,0-.59.27-.59.59s.27.59.59.59.59-.27.59-.59-.27-.59-.59-.59Z"/>
      <path class="cls-1" d="m116.62,162.85c0-.33-.27-.59-.59-.59s-.59.27-.59.59.27.59.59.59.59-.27.59-.59Z"/>
      <path class="cls-1" d="m114.02,172.68c-.33,0-.59.27-.59.59s.27.59.59.59.59-.27.59-.59-.27-.59-.59-.59Z"/>
      <path class="cls-1" d="m115.43,169.8c0,.33.27.59.59.59s.59-.27.59-.59-.27-.59-.59-.59-.59.27-.59.59Z"/>
      <circle class="cls-1" cx="114.02" cy="180.23" r=".59"/>
      <path class="cls-1" d="m115.43,176.75c0,.33.27.59.59.59s.59-.27.59-.59-.27-.59-.59-.59-.59.27-.59.59Z"/>
      <path class="cls-1" d="m116.03,183.11c-.31,0-.55.24-.58.53.38.1.75.21,1.13.29.03-.07.05-.15.05-.23,0-.33-.27-.59-.59-.59Z"/>
      <path class="cls-1" d="m113.46,145.66c.08.23.29.41.56.41.33,0,.59-.27.59-.59,0-.08-.02-.15-.04-.22-.38.12-.74.27-1.11.4Z"/>
      <path class="cls-1" d="m110.01,151.83c-.33,0-.59.27-.59.59s.27.59.59.59.59-.27.59-.59-.27-.59-.59-.59Z"/>
      <path class="cls-1" d="m112.01,148.35c-.33,0-.59.27-.59.59s.27.59.59.59.59-.27.59-.59-.27-.59-.59-.59Z"/>
      <path class="cls-1" d="m110.01,158.78c-.33,0-.59.27-.59.59s.27.59.59.59.59-.27.59-.59-.27-.59-.59-.59Z"/>
      <path class="cls-1" d="m112.61,155.9c0-.33-.27-.59-.59-.59s-.59.27-.59.59.27.59.59.59.59-.27.59-.59Z"/>
      <path class="cls-1" d="m110.01,165.73c-.33,0-.59.27-.59.59s.27.59.59.59.59-.27.59-.59-.27-.59-.59-.59Z"/>
      <path class="cls-1" d="m112.61,162.85c0-.33-.27-.59-.59-.59s-.59.27-.59.59.27.59.59.59.59-.27.59-.59Z"/>
      <path class="cls-1" d="m110.01,172.68c-.33,0-.59.27-.59.59s.27.59.59.59.59-.27.59-.59-.27-.59-.59-.59Z"/>
      <path class="cls-1" d="m111.42,169.8c0,.33.27.59.59.59s.59-.27.59-.59-.27-.59-.59-.59-.59.27-.59.59Z"/>
      <path class="cls-1" d="m110.01,179.64c-.33,0-.59.27-.59.59s.27.59.59.59.59-.27.59-.59-.27-.59-.59-.59Z"/>
      <path class="cls-1" d="m111.42,176.75c0,.33.27.59.59.59s.59-.27.59-.59-.27-.59-.59-.59-.59.27-.59.59Z"/>
      <path class="cls-1" d="m105.99,151.83c-.33,0-.59.27-.59.59s.27.59.59.59.59-.27.59-.59-.27-.59-.59-.59Z"/>
      <path class="cls-1" d="m108,149.54c.33,0,.59-.27.59-.59,0-.18-.08-.33-.21-.44-.31.24-.6.48-.9.73.1.18.29.31.51.31Z"/>
      <path class="cls-1" d="m105.99,158.78c-.33,0-.59.27-.59.59s.27.59.59.59.59-.27.59-.59-.27-.59-.59-.59Z"/>
      <circle class="cls-1" cx="108" cy="155.9" r=".59"/>
      <circle class="cls-1" cx="108" cy="162.85" r=".59"/>
      <path class="cls-1" d="m105.99,172.68c-.33,0-.59.27-.59.59s.27.59.59.59.59-.27.59-.59-.27-.59-.59-.59Z"/>
      <circle class="cls-1" cx="108" cy="169.8" r=".59"/>
      <path class="cls-1" d="m108,176.16c-.33,0-.59.27-.59.59s.27.59.59.59.59-.27.59-.59-.27-.59-.59-.59Z"/>
      <path class="cls-1" d="m101.98,158.78c-.33,0-.59.27-.59.59s.27.59.59.59.59-.27.59-.59-.27-.59-.59-.59Z"/>
      <path class="cls-1" d="m103.99,155.3c-.33,0-.59.27-.59.59s.27.59.59.59.59-.27.59-.59-.27-.59-.59-.59Z"/>
      <path class="cls-1" d="m101.98,165.73c-.33,0-.59.27-.59.59s.27.59.59.59.59-.27.59-.59-.27-.59-.59-.59Z"/>
      <path class="cls-1" d="m103.39,162.85c0,.33.27.59.59.59s.59-.27.59-.59-.27-.59-.59-.59-.59.27-.59.59Z"/>
      <path class="cls-1" d="m103.99,170.4c.33,0,.59-.27.59-.59s-.27-.59-.59-.59-.59.27-.59.59.27.59.59.59Z"/>
      <path class="cls-1" d="m105.99,166.92c.33,0,.59-.27.59-.59s-.27-.59-.59-.59-.59.27-.59.59.27.59.59.59Z"/>
    </g>
  </g>
  <g id="_人物" data-name="人物">
    <g>
      <g>
        <path class="cls-6" d="m53.31,26.57c-1.45-.95-2.71.4-3.96,2.26h0c-.12-.54-.25-1.08-.38-1.6-.4-1.6-1.52-2.62-3.09-3.02h0c1.37-4.35,2.28-8.33,2.74-10.51.2-.95-.42-1.88-1.37-2.07-.88-.18-1.75.34-2.02,1.19-2.03,6.39-3.99,11.71-3.99,11.71h0c-.26.08-.52.18-.79.28-1.95.76-3.51,1.81-4.63,2.72-1.29,1.05-2.04,2.61-2.08,4.27-.08,3.36-.17,7.82-.74,10.46-.27,1.26.28,2.55,1.37,3.23,1.37.85,3.22,1.38,5.26,1.4.95.01,1.84-.48,2.43-1.23,3.03-3.84,6.31-4.41,7.74-7.36.88-1.81,1.38-4.23,2.57-6.84s2.38-3.95.93-4.89Z"/>
        <path class="cls-6" d="m97.75,22.45l-.06.27c.06-2.29-.57-4.57-1.83-6.49-3.9-5.94-10.98-10.27-15.08-9.79-2.84.33-7.96,3.36-8.36,11.44-.04.82-.08,1.61-.11,2.37h0c-2.92-.54-6.04,1.82-6,5.06.04,3.23,2.5,5.69,6.49,6.07v-.03c.32,1.44.8,2.77,1.5,4.07.48.89.97,1.68,1.52,2.39l-.61,9.43c1.21,2.23,7.09,4.91,14.23,3.48,1.43-4.91,1.85-10.37,1.94-11.77,1-.95,1.9-2.13,2.82-3.53.5-.76.92-1.57,1.29-2.4v.04c4.26-.39,6.87-2.15,7.35-5.77.48-3.62-2.23-5.56-5.09-4.84Z"/>
        <path class="cls-6" d="m132.59,152.35c1.33.98,2.16.75,2.59.16.47-.65.21-1.59-.44-2.07-1.46-1.05-2.2-1.72-3.3-2.66,1.31.35,3.25-.62,2.21-.9-1.87-.5-4.06-1.47-6.57-2.86-4.09-2.26-7.83-5.61-9.19-8.14,0,0-6.34.5-9.59-.59l1.09,7.02c.14.9-.56,1.72-1.47,1.72h0c.5,2.73,4.63,7.75,6.43,9.84.49.57,1.29.78,2,.51h0c.98-.37,1.45-1.49,1.01-2.44-.76-1.64-1.86-4.09-2.51-5.76,0,0,8.23,7.5,12.16,9.21.65.28,1.26.37,1.8.35,0,0,.98-.31,1.19-1.13,0,0,2.17,1.97,3.79,1.23s.32-2.82-1.17-3.47Z"/>
        <path class="cls-1" d="m80.05,31.96l8.83.53s-1.98,3.23-4.73,2.97-4.1-3.5-4.1-3.5Z"/>
        <circle class="cls-1" cx="79.13" cy="22.3" r="4"/>
        <circle class="cls-1" cx="90.53" cy="23.45" r="4"/>
        <path class="cls-3" d="m82.55,41.53c-.4,3.59,4.51,7.12,6.88-.66,0,0-2.33.89-6.88.66Z"/>
        <path class="cls-4" d="m101.44,193.87c.17-9.41,2.48-37.82,2.84-48.98,3.64-.06,5.21-1.5,4.81-3.61-.41-2.11-.8-5.99-.8-5.99l.69.02c3.79.69,7.06.86,9.55.49,1.19-.18,2.06-1.23,2.05-2.44-.04-4.57-.22-16.59-1.04-29.86-1.05-16.92-2.31-30.34-2.24-37.75.07-7.41-2.24-8.81-5.73-10.14-3.5-1.33-10.28-3.99-14.99-6.33,0,0-.38-1.65-1.59-2.9-1.21-1.25-3.95-4.47-3.95-4.47-.78,5.65-1.46,8.48-4.05,17.33-2.6,8.85-6.78,22.7-6.78,22.7,0,0-7.17-21.54-4.73-39.42l-6.88,3.07s-12.9.57-16.12.74-5.12,3.39-5.78,6.94c0,0-2.56.08-4.87.5,0,0-.2-.61.25-3.01s-.5-3.72-.5-3.72l-.34,1.54s-8.56,3.6-12.84,3.01l2.2-6.65s-6.05,2.48-6.72,4.87c-.46,5.53-.62,8.01-2.6,15.27s-3.96,18.41,5.7,19.98,18.07-3.78,26.62-7.26c-2.04,15.7-6.88,36.41-12.35,54.95-.58,1.97.32,4.08,2.15,5.01,2.4,1.23,5.5,2.56,8.79,3.54h0c.59,14.45,1.26,46.48,1.59,51.27,0,0,10.93,2.25,23.38,1.32,0,0,14.44,1.82,24.29,0Z"/>
        <path class="cls-3" d="m30.59,44.92l-2.2,6.65s-4.94-.41-4.52-1.78,2.54-3.34,6.72-4.87Z"/>
        <path class="cls-3" d="m101.31,23.06c3.16-5.96,1.29-12.48-3.62-16-2.15-1.55-3.46-3.57-6.66-5.11-4.82-2.32-9.75-.51-12.99,1.49-.5.31-1.05.5-1.61.65-3.4.87-9,5.03-7.6,16.83,0,0,1.29-.9,3.48-.75.03-.73.07-1.49.11-2.29.39-8.08,5.52-11.11,8.36-11.44,4.1-.48,11.19,3.85,15.08,9.79,1.24,1.89,1.86,4.11,1.84,6.35,0,0,1.56-.38,3.62.49Z"/>
        <path class="cls-7" d="m89.43,50.71c-7.14,1.43-13.02-1.25-14.23-3.48,0,0,.88,23.86,5,35.24l9.23-31.76Z"/>
        <path class="cls-7" d="m28.39,51.57c.85-2.44,1.85-5.54,2.2-6.65.13-.42.37-.79.7-1.08s.82-.62,1.53-.88c0,0,.68,4.26,8.42,3.85v1.74s-5.92,3.79-12.86,3.02Z"/>
      </g>
      <g>
        <circle class="cls-3" cx="84.63" cy="28.92" r=".71"/>
        <circle class="cls-3" cx="90.11" cy="93.34" r=".71"/>
        <path class="cls-3" d="m84.47,42.38c-.21,0-.43,0-.65-.01-5.72-.22-8.25-2.78-10.27-6.56-2.49-4.64-2.38-9.6-1.97-17.98.4-8.25,5.67-11.84,9.11-12.25,4.63-.55,11.92,4.11,15.89,10.17,1.52,2.32,2.2,5.14,1.91,7.94-.4,3.95-1.14,8.49-3.58,12.18-2.7,4.1-5.31,6.5-10.43,6.5Zm-3.06-35.14c-.19,0-.37,0-.54.03-2.87.34-7.25,3.45-7.61,10.64-.39,8.08-.5,12.85,1.77,17.1,1.85,3.44,3.89,5.47,8.84,5.66,4.8.18,7.01-1.79,9.6-5.73,2.23-3.38,2.92-7.67,3.3-11.42.25-2.41-.34-4.84-1.64-6.83h0c-3.68-5.61-10.06-9.45-13.73-9.45Z"/>
        <path class="cls-3" d="m80.21,83.32c-.35,0-.67-.21-.8-.56-3.64-9.92-5.32-32.12-5.01-36.66.3-4.38.52-8.42.52-8.42.03-.47.44-.8.9-.8.47.03.83.43.8.9,0,0-.22,4.06-.52,8.45-.3,4.45,1.35,26.23,4.91,35.96.16.44-.07.93-.51,1.09-.1.04-.2.05-.29.05Z"/>
        <path class="cls-3" d="m92.63,55.98c-.39,0-.74-.27-.83-.67-.1-.46.19-.91.65-1.01.86-.19,3.26-.76,4.68-1.13-.46-1.2-1-2.58-1.55-4.15-.32-.9-.82-1.7-1.5-2.37-1.05-1.04-2.55-2.63-3.73-4.24-.28-.38-.19-.91.19-1.19.38-.28.91-.19,1.19.19,1.11,1.52,2.54,3.04,3.55,4.04.86.85,1.5,1.86,1.91,3.01.54,1.51,1.07,2.9,1.54,4,.2.46.19.99-.04,1.44-.22.46-.63.79-1.13.92-1.43.37-3.86.95-4.74,1.15-.06.01-.12.02-.19.02Z"/>
        <path class="cls-3" d="m82.55,86.46c-.17,0-.35-.05-.5-.16-.38-.28-.47-.81-.19-1.19,7.8-10.83,13.6-23.93,15.2-27.69l-2.38-.05c-1.06,0-2.04-.56-2.58-1.47-.79-1.34-2.25-3.87-3.18-5.73-.21-.42-.04-.93.38-1.14.42-.21.93-.04,1.14.38.9,1.82,2.34,4.3,3.12,5.62.24.4.65.64,1.12.64h2.34c.59,0,1.13.29,1.46.78.32.49.38,1.1.15,1.63-1.61,3.8-7.48,17.04-15.38,28.02-.17.23-.43.35-.69.35Z"/>
        <path class="cls-3" d="m115.7,136.84c-2.02,0-4.35-.23-6.87-.69-.46-.08-.77-.53-.68-.99.08-.46.53-.76.99-.68,3.68.67,6.89.84,9.27.49.76-.11,1.33-.8,1.32-1.59-.04-4.55-.21-16.57-1.04-29.82-.35-5.7-.74-11.08-1.07-15.82-.68-9.53-1.21-17.05-1.17-22,.07-6.98-1.93-8.1-5.18-9.33-3.6-1.37-10.33-4.01-15.07-6.36-.42-.21-.59-.72-.38-1.14.21-.42.72-.59,1.14-.38,4.67,2.32,11.35,4.94,14.92,6.3,3.73,1.42,6.36,3.03,6.28,10.94-.05,4.88.49,12.37,1.16,21.86.34,4.75.72,10.12,1.07,15.83.82,13.28,1,25.34,1.04,29.91.01,1.64-1.18,3.05-2.77,3.29-.89.13-1.88.2-2.95.2Z"/>
        <path class="cls-3" d="m87.89,147.02c-.69,0-1.37,0-2.03-.02-6.38-.16-11.68-5.03-12.34-11.32-1.7-16.28,1.7-33.52,3.73-43.82l.4-2.02c1.3-6.69,4.21-16.42,7.03-25.83,1.79-5.98,3.47-11.62,4.61-16.04.39-1.51.65-3.11.78-4.74.19-2.41.48-4.36.5-4.44.07-.46.51-.78.97-.71.46.07.78.5.71.97,0,.02-.3,1.97-.48,4.32-.13,1.73-.41,3.42-.83,5.03-1.14,4.45-2.84,10.11-4.63,16.1-2.8,9.37-5.7,19.06-6.98,25.67l-.4,2.02c-2.01,10.21-5.37,27.29-3.7,43.31.57,5.45,5.16,9.66,10.69,9.8,6.47.16,14.64-.5,20.83-1.68.98-.19,1.64-1.07,1.52-2.06-.92-8.04-2.39-26.25-2.61-36.46-.14-6.64.99-16.87,2.08-26.77.83-7.5,1.61-14.59,1.72-19.21.01-.47.37-.82.87-.83.47.01.84.4.83.87-.11,4.69-.9,11.81-1.73,19.35-1.09,9.84-2.21,20.02-2.07,26.54.22,10.16,1.69,28.29,2.6,36.3.21,1.85-1.06,3.57-2.89,3.92-5.66,1.09-12.96,1.74-19.16,1.74Z"/>
        <path class="cls-3" d="m92.11,118.34c-.39,0-.71-.31-.71-.7,0-.39.31-.71.7-.71,5.64-.05,11.18-.43,14.81-1.02.39-.07.75.2.81.58.06.39-.2.75-.58.81-3.7.6-9.32.99-15.03,1.04h0Z"/>
        <path class="cls-3" d="m94.01,72.21c-.38,0-.69-.3-.71-.68-.02-.39.29-.72.68-.74,3.72-.16,8.51-.32,11.08-.4h.32s.02-.01.02-.01c.38,0,.7.3.71.69.01.39-.29.72-.68.73h-.32c-2.57.1-7.35.25-11.07.41-.01,0-.02,0-.03,0Z"/>
        <path class="cls-3" d="m85.41,51.96c-5.58,0-9.83-2.26-10.95-4.33-.22-.41-.07-.93.34-1.15.41-.22.93-.07,1.15.34.98,1.8,6.41,4.44,13.31,3.05.46-.09.91.21,1,.67.09.46-.21.91-.67,1-1.46.29-2.86.42-4.19.42Z"/>
        <path class="cls-3" d="m72.19,51.96s-.03,0-.05,0l-5.04-.26c-.57-.03-1.09-.34-1.39-.83-.3-.49-.34-1.1-.1-1.62l1.27-2.8c.42-.93,1.16-1.66,2.08-2.06,2.38-1.05,6.19-2.64,6.19-2.64l.66,1.57s-3.79,1.59-6.16,2.63c-.54.24-.97.67-1.22,1.21l-1.27,2.8,5.08.32c.47.03.83.42.8.89-.02.45-.4.81-.85.81Z"/>
        <path class="cls-3" d="m77,86.46c-.27,0-.54-.13-.7-.37-3.92-5.66-9.63-21.75-11.93-31.82-.12-.54.01-1.09.37-1.51.36-.42.9-.63,1.42-.62l2.74.15c.34.03.65-.09.9-.3l4.86-4.08c.36-.3.9-.26,1.2.1.3.36.26.9-.1,1.2l-4.86,4.08c-.58.49-1.32.74-2.09.7l-2.74-.15c2.23,9.97,7.82,25.78,11.63,31.28.27.39.17.92-.21,1.18-.15.1-.32.15-.48.15Z"/>
        <path class="cls-3" d="m41.82,54.6c-.4,0-.76-.29-.84-.7-.08-.46.22-.9.69-.99,1.65-.29,3.39-.42,4.32-.48.96-4.22,3.34-6.81,6.44-6.97,3.22-.17,16.13-.74,16.13-.74l.08,1.7s-12.9.57-16.12.74c-3.58.18-4.72,4.82-4.99,6.24-.07.39-.41.68-.81.69-.03,0-2.53.09-4.75.48-.05,0-.1.01-.15.01Z"/>
        <path class="cls-3" d="m54.62,73.1s-.05,0-.07,0c-.47-.04-.82-.45-.78-.92.13-1.61.26-3.06.39-4.46.33-3.65.65-7.09.77-12.17.08-3.35-.73-5.82-2.23-6.76-1.19-.75-2.47-.37-3.35.07-.42.22-.93.05-1.14-.37-.21-.42-.05-.93.37-1.14,1.79-.91,3.57-.91,5.02,0,2.04,1.29,3.12,4.21,3.02,8.24-.12,5.13-.44,8.61-.77,12.29-.13,1.4-.26,2.84-.39,4.44-.04.45-.41.78-.85.78Z"/>
        <path class="cls-3" d="m60.8,143.52c-7.24,0-15.03-3.61-17.81-5.02-2.19-1.12-3.27-3.64-2.58-6.01,5.63-19.09,10.12-38.88,12.13-53.35-1.3.56-2.61,1.15-3.88,1.73-6.84,3.1-13.91,6.3-21.84,5.02-2.86-.47-5-1.76-6.34-3.86-2.97-4.62-1.45-12.02-.04-17.19,1.91-6.99,2.1-9.39,2.54-14.66l.04-.46c.04-.47.45-.81.92-.78.47.04.82.45.78.92l-.04.46c-.43,5.21-.65,7.83-2.59,14.97-.76,2.8-3.08,11.3-.17,15.82,1.09,1.7,2.79,2.71,5.19,3.1,7.42,1.21,14.25-1.89,20.86-4.89,1.73-.79,3.53-1.6,5.3-2.32.28-.11.6-.07.84.11.24.19.36.48.32.78-1.9,14.67-6.53,35.26-12.38,55.08-.47,1.58.26,3.27,1.72,4.01,3.56,1.81,15.76,7.43,23.39,3.47,3.29-1.71,5.31-5.07,6.01-10,.07-.46.49-.79.96-.72.46.07.79.5.72.96-.78,5.5-3.11,9.29-6.92,11.27-2.16,1.12-4.61,1.56-7.13,1.56Z"/>
        <path class="cls-3" d="m41.18,73.84s-.02,0-.03,0c-.47-.02-.84-.41-.82-.88.03-.87.01-1.54,0-2.13-.04-1.47-.06-2.53.69-4.73.83-2.42.54-2.64-1.69-4.33-.21-.16-.34-.41-.34-.68,0-1.89.63-5.77,2.03-9.8,1.03-2.97.74-3.16-.04-3.65l-.2-.12c-.39-.25-.51-.78-.25-1.18.26-.39.78-.51,1.18-.25l.18.12c1.63,1.03,1.98,2.03.74,5.64-1.18,3.42-1.84,6.9-1.92,8.83,2.23,1.72,3.05,2.69,1.93,5.97-.65,1.9-.63,2.69-.6,4.13.02.61.03,1.32,0,2.23-.02.46-.39.82-.85.82Z"/>
        <path class="cls-3" d="m48.97,70.16c-.21,0-.41-.1-.53-.28-.02-.02-1.57-2.33-3.79-3.48-.31-.16-.43-.55-.27-.86.16-.31.54-.43.86-.27,2.52,1.31,4.19,3.8,4.26,3.91.19.29.12.69-.18.88-.11.07-.23.11-.35.11Z"/>
        <path class="cls-3" d="m101.44,194.72h-.01c-.47,0-.84-.4-.84-.87.09-4.96.78-15.32,1.45-25.34.6-9.03,1.22-18.37,1.4-23.65.01-.47.44-.85.88-.82.47.01.84.41.82.88-.17,5.31-.8,14.66-1.4,23.71-.67,10-1.36,20.33-1.44,25.26,0,.46-.39.84-.85.84Z"/>
        <path class="cls-3" d="m77.24,194.72c-.45,0-.82-.35-.85-.8-.33-5.29.31-25.8,1-36.25.03-.47.46-.81.91-.79.47.03.82.44.79.91-.69,10.4-1.33,30.79-1,36.03.03.47-.33.87-.8.9-.02,0-.04,0-.05,0Z"/>
        <path class="cls-3" d="m53.76,193.4c-.44,0-.82-.34-.85-.79-.17-2.42-.42-11.58-.71-22.18-.28-10.28-.59-21.92-.89-29.11-.02-.47.35-.87.81-.88.46-.03.87.35.88.81.29,7.2.61,18.85.89,29.13.29,10.58.54,19.73.7,22.11.03.47-.32.88-.79.91-.02,0-.04,0-.06,0Z"/>
        <path class="cls-3" d="m39.68,47.74h-.05c-2.14-.03-4.17-.57-5.7-1.53-1.39-.87-2.09-2.53-1.75-4.13.53-2.49.64-6.84.71-10.02v-.29c.05-1.91.93-3.7,2.4-4.9,1.5-1.23,3.14-2.19,4.86-2.85,2.76-1.08,5.3-1.14,7.15-.18,1.23.63,2.07,1.68,2.45,3.04.99-1.11,2.39-2.07,4.02-1.01,1.77,1.16.92,2.85.09,4.48-.22.44-.47.93-.72,1.48-.59,1.31-1,2.55-1.4,3.75-.37,1.13-.73,2.19-1.18,3.12-.83,1.72-2.22,2.71-3.69,3.77-1.29.93-2.76,1.99-4.15,3.75-.77.97-1.91,1.55-3.06,1.55Zm4.61-22.88c-1.06,0-2.27.25-3.53.74-1.55.6-3.03,1.47-4.4,2.59-1.09.89-1.73,2.21-1.77,3.63v.29c-.09,3.43-.19,7.69-.76,10.33-.19.9.2,1.84.99,2.33,1.28.8,2.99,1.25,4.83,1.28.67.01,1.3-.33,1.75-.9,1.54-1.95,3.11-3.08,4.5-4.07,1.4-1,2.5-1.8,3.15-3.13.32-.66.6-1.43.87-2.26-.59.53-1.37.71-2.14.49-.89-.26-1.64-1.03-1.9-1.97-.13-.45.14-.92.59-1.05.45-.13.92.14,1.05.59.1.37.41.7.74.79.21.06.38.02.54-.12.21-.19.79-1.25-.65-6.97-.24-.96-.79-1.66-1.62-2.09-.62-.32-1.38-.48-2.23-.48Zm5.96,4.14c.37,1.74.54,3.1.53,4.15.24-.66.51-1.34.82-2.04.26-.57.52-1.08.75-1.55.95-1.88.89-2.03.49-2.29-.34-.22-.95-.62-2.59,1.72Z"/>
        <path class="cls-3" d="m43.37,39.44c-.73,0-1.38-.35-1.77-.96-.48-.74-.52-1.74-.1-2.6.2-.42.71-.6,1.14-.4.42.21.6.71.4,1.14-.18.38-.13.74,0,.94.09.13.2.18.37.18.55-.02,1.42-.86,2.13-2.71.62-1.6.58-3.54.45-6.54-.02-.47.34-.87.81-.89.47-.04.87.34.89.81.12,2.78.23,5.18-.56,7.23-.92,2.4-2.23,3.75-3.67,3.79-.02,0-.05,0-.07,0Z"/>
        <path class="cls-3" d="m40.54,38.09c-.33,0-.63-.09-.88-.21-.53-.25-.9-.69-1.08-1.27-.23-.74-.12-1.67.3-2.59-.23.04-.47.1-.71.17-.45.13-.92-.12-1.06-.57-.13-.45.12-.92.57-1.06.48-.14.96-.24,1.42-.3.55-.07,1.08.18,1.39.64.31.46.34,1.06.07,1.54-.42.76-.46,1.36-.37,1.65.05.16.13.22.2.25.31.15,1.04-.37,1.89-1.89.68-1.2.82-2.12.56-3.79-.08-.51-.27-.68-.41-.76-.32-.2-1.21-.41-3.58.39-.45.15-.93-.09-1.08-.53-.15-.45.09-.93.53-1.08,2.37-.8,3.96-.87,5.01-.23.66.41,1.07,1.07,1.2,1.96.31,2.03.1,3.35-.76,4.88-1.22,2.17-2.35,2.79-3.23,2.79Z"/>
        <path class="cls-3" d="m41.24,25.38c-.1,0-.2-.02-.29-.05-.44-.16-.67-.65-.5-1.09.02-.05,1.98-5.38,3.97-11.68.4-1.27,1.69-2.04,3-1.76.69.14,1.28.54,1.66,1.12.38.58.51,1.28.37,1.96-.43,2.04-1.36,6.13-2.76,10.59-.14.45-.61.7-1.07.56-.45-.14-.7-.62-.56-1.07,1.38-4.39,2.29-8.42,2.72-10.43.05-.23,0-.47-.13-.67-.13-.2-.34-.34-.58-.39-.45-.09-.9.17-1.04.61-2.01,6.33-3.98,11.7-4,11.75-.13.34-.45.56-.8.56Z"/>
        <path class="cls-3" d="m28.39,52.42c-.09,0-.19-.02-.28-.05-.44-.15-.68-.64-.52-1.08.91-2.61,1.99-5.98,2.19-6.63.18-.58.5-1.07.95-1.46.49-.44,1.1-.79,1.81-1.04.44-.16.93.07,1.09.51.16.44-.07.93-.51,1.09-.5.18-.92.42-1.26.71-.21.19-.37.43-.46.71-.21.65-1.29,4.04-2.21,6.67-.12.35-.45.57-.8.57Z"/>
        <path class="cls-3" d="m28.76,52.43c-1.45,0-2.75-.17-3.86-.51-1.47-.46-1.83-1.27-1.87-1.87-.15-2.29,4.46-4.78,7.23-6.06.42-.2.93-.01,1.13.41s.01.93-.41,1.13c-4.93,2.29-6.32,4.06-6.25,4.41.01.04.17.2.68.36,3.44,1.06,9.35.13,15.14-2.37l.71-2.5c.13-.45.6-.71,1.05-.58.45.13.71.6.58,1.05l-.83,2.88c-.07.24-.24.44-.47.54-4.57,2.02-9.15,3.11-12.83,3.11Z"/>
        <path class="cls-3" d="m95.47,33.91c-.43,0-.81-.33-.85-.77-.04-.47.3-.88.77-.92,4.09-.38,6.19-1.98,6.6-5.04.18-1.38-.16-2.54-.98-3.27-.78-.69-1.89-.92-3.06-.63-.45.12-.92-.16-1.03-.62-.12-.46.16-.92.62-1.03,1.69-.43,3.42-.05,4.6,1.01,1.25,1.12,1.8,2.81,1.53,4.77-.52,3.87-3.25,6.05-8.13,6.5-.03,0-.05,0-.08,0Z"/>
        <path class="cls-3" d="m72.8,32.22s-.05,0-.08,0c-4.36-.42-7.21-3.13-7.26-6.91-.02-1.73.75-3.39,2.12-4.54,1.38-1.17,3.21-1.68,4.89-1.37.46.08.77.53.68.99-.08.46-.52.76-.99.68-1.18-.22-2.49.16-3.49,1-.98.83-1.53,2-1.51,3.22.04,2.85,2.28,4.91,5.72,5.24.47.04.81.46.77.93-.04.44-.41.77-.85.77Z"/>
        <path class="cls-3" d="m101.31,23.91c-.13,0-.27-.03-.4-.1-.42-.22-.57-.74-.35-1.15,2.83-5.33,1.45-11.46-3.36-14.92-.82-.59-1.53-1.25-2.21-1.88-1.17-1.09-2.39-2.22-4.32-3.16-4.81-2.32-9.69-.09-12.17,1.45-.51.32-1.1.55-1.85.75-3.96,1.02-8.17,5.79-6.97,15.91.05.47-.28.89-.75.94-.47.05-.89-.28-.94-.75-1.32-11.21,3.61-16.57,8.24-17.76.58-.15,1.02-.32,1.38-.54,2.78-1.72,8.26-4.21,13.8-1.53,2.16,1.04,3.53,2.32,4.74,3.44.67.63,1.31,1.22,2.04,1.75,5.52,3.96,7.11,10.99,3.87,17.09-.15.29-.45.45-.75.45Z"/>
        <path class="cls-3" d="m84.48,36.18c-.13,0-.26,0-.39-.02-3.14-.3-4.63-3.78-4.69-3.93-.09-.23-.07-.48.08-.68.14-.2.38-.31.62-.3l8.83.53c.25.01.47.16.58.38.12.22.11.49-.02.7-.09.14-2.07,3.32-5.01,3.32Zm-3.17-3.44c.58.83,1.55,1.88,2.91,2.01,1.36.12,2.55-.84,3.28-1.64l-6.19-.37Z"/>
        <path class="cls-3" d="m86.33,35.67s-.04,0-.05,0l-4.18-.3c-.39-.03-.68-.37-.66-.76s.37-.67.76-.66l4.18.3c.39.03.68.37.66.76-.03.37-.34.66-.71.66Z"/>
        <path class="cls-3" d="m128.62,156.58c-.67,0-1.33-.14-1.98-.42-2.57-1.12-6.79-4.51-9.58-6.89.36.82.73,1.62,1.05,2.31.31.67.33,1.44.05,2.12-.28.68-.83,1.22-1.53,1.48-1.04.39-2.22.09-2.94-.75-2.25-2.61-6.1-7.4-6.62-10.24-.09-.46.22-.91.68-.99.46-.09.91.22.99.68.33,1.76,2.66,5.29,6.24,9.43.27.31.68.41,1.06.27.25-.09.45-.28.55-.53.1-.25.1-.52-.02-.76-.8-1.73-1.88-4.14-2.54-5.81-.14-.37-.01-.79.31-1.01.32-.22.76-.19,1.05.07.08.07,8.18,7.42,11.92,9.06.47.21.95.3,1.42.28.24,0,.33-.18.36-.29.02-.07.07-.32-.16-.48-3.02-2.17-6.18-5.02-8.67-7.83-.31-.35-.28-.89.07-1.2.35-.31.89-.28,1.2.07,2.41,2.72,5.47,5.48,8.39,7.58.75.54,1.06,1.46.79,2.35-.26.87-1.01,1.46-1.92,1.5-.06,0-.13,0-.19,0Z"/>
        <path class="cls-3" d="m134.2,153.87c-.65,0-1.35-.28-2.11-.83-.38-.28-.46-.81-.18-1.19.28-.38.81-.46,1.19-.18.71.52,1.07.51,1.17.5.06-.01.14-.04.23-.16.19-.27.01-.68-.26-.88-1.24-.89-1.97-1.52-2.82-2.24l-.53-.45c-.3-.26-.39-.69-.21-1.04.11-.22.31-.37.53-.43-1.36-.54-2.86-1.26-4.55-2.2-4.16-2.3-8.08-5.79-9.53-8.48-.22-.41-.07-.93.34-1.15.42-.22.93-.07,1.15.34,1.32,2.43,4.96,5.64,8.86,7.8,2.54,1.41,4.63,2.32,6.38,2.79.8.21,1.02.83.89,1.31-.12.47-.61.84-1.23,1.07.48.4,1.01.81,1.7,1.3,1.08.78,1.37,2.23.66,3.24-.33.47-.8.77-1.35.86-.11.02-.23.03-.34.03Zm-.76-6.16h0,0Z"/>
        <path class="cls-3" d="m79.13,27.15c-2.67,0-4.85-2.17-4.85-4.85s2.18-4.85,4.85-4.85,4.85,2.18,4.85,4.85-2.17,4.85-4.85,4.85Zm0-8c-1.74,0-3.15,1.41-3.15,3.15s1.41,3.15,3.15,3.15,3.15-1.41,3.15-3.15-1.41-3.15-3.15-3.15Z"/>
        <path class="cls-3" d="m86.56,23.8c-.17,0-.35-.05-.5-.17-.64-.47-1.88-.48-2.72-.26-.46.12-.92-.15-1.04-.6-.12-.45.15-.92.6-1.04,1.26-.33,3.04-.3,4.17.54.38.28.46.81.18,1.19-.17.23-.42.35-.69.35Z"/>
        <path class="cls-3" d="m75.21,22.16s-.05,0-.08,0l-2.93-.26c-.47-.04-.81-.45-.77-.92.04-.47.46-.82.92-.77l2.93.26c.47.04.81.45.77.92-.04.44-.41.78-.85.78Z"/>
        <path class="cls-3" d="m76.52,18.94c-.15,0-.3-.05-.42-.16-.26-.23-.29-.64-.05-.9,1.41-1.58,4.17-1.72,5.79-.3.26.23.29.64.06.9-.23.26-.64.29-.9.06-1.1-.97-3.04-.88-3.99.19-.13.14-.3.21-.48.21Z"/>
        <path class="cls-3" d="m77.71,22.7c-.23,0-.45-.12-.56-.34-.17-.31-.05-.7.27-.86,1.36-.72,2.5-.48,3.34-.18.33.12.51.48.39.81s-.48.51-.81.39c-.76-.27-1.45-.35-2.32.11-.09.05-.2.07-.3.07Z"/>
        <path class="cls-3" d="m90.53,28.3c-.28,0-.56-.02-.84-.07-2.63-.46-4.4-2.98-3.94-5.61h0c.46-2.63,2.99-4.4,5.61-3.94,1.28.22,2.39.93,3.13,1.99.74,1.06,1.03,2.35.81,3.62-.41,2.35-2.46,4.01-4.77,4.01Zm-3.1-5.39c-.3,1.71.85,3.35,2.56,3.64.83.15,1.66-.04,2.35-.52.69-.48,1.15-1.21,1.29-2.03.15-.83-.04-1.66-.52-2.35-.48-.69-1.21-1.15-2.03-1.29-1.71-.3-3.34.85-3.64,2.56h0Z"/>
        <path class="cls-3" d="m97.53,24.05s-.05,0-.07,0l-3-.26c-.47-.04-.81-.45-.77-.92.04-.47.44-.81.92-.77l3,.26c.47.04.81.45.77.92-.04.44-.41.78-.85.78Z"/>
        <path class="cls-3" d="m93.78,20.6c-.21,0-.42-.11-.54-.3-.75-1.21-2.64-1.64-3.9-.87-.3.18-.69.09-.88-.21-.18-.3-.09-.69.21-.88,1.84-1.13,4.54-.51,5.65,1.29.18.3.09.69-.21.88-.1.06-.22.09-.33.09Z"/>
        <path class="cls-3" d="m91.96,24.11c-.14,0-.28-.04-.39-.13-.78-.61-1.47-.64-2.26-.51-.34.06-.68-.18-.73-.52-.06-.35.18-.68.52-.73.87-.14,2.03-.19,3.26.76.28.22.33.62.11.9-.13.16-.31.25-.5.25Z"/>
        <path class="cls-3" d="m61.17,112.89c-.06,0-.12,0-.17-.02l-13.54-3.42c-.38-.1-.61-.48-.51-.86.1-.38.49-.61.86-.51l13.54,3.42c.38.1.61.48.51.86-.08.32-.37.54-.69.54Z"/>
        <path class="cls-3" d="m80.87,98.25c-.24,0-.46-.13-.57-.36-.15-.32-.02-.7.3-.85.04-.02,3.5-1.69,6.12-2.82.32-.14.7,0,.84.33.14.32-.01.7-.33.84-2.6,1.11-6.03,2.78-6.07,2.79-.09.04-.18.06-.28.06Z"/>
        <path class="cls-3" d="m80.87,117.07h-2.91c-.47,0-.85-.38-.85-.85s.38-.85.85-.85h2.91c.47,0,.85.38.85.85s-.38.85-.85.85Z"/>
        <g>
          <circle class="cls-3" cx="80.87" cy="97.62" r="1.27"/>
          <path class="cls-3" d="m80.87,99.74c-1.17,0-2.12-.95-2.12-2.12s.95-2.12,2.12-2.12,2.12.95,2.12,2.12-.95,2.12-2.12,2.12Zm0-2.54c-.23,0-.42.19-.42.42s.19.42.42.42.42-.19.42-.42-.19-.42-.42-.42Z"/>
        </g>
        <path class="cls-3" d="m74.4,116.72s-.05,0-.08,0c-1.1-.1-1.93-1.01-1.93-2.11,0-1.25,1.13-2.25,2.35-2.11.47.05.8.48.75.94-.05.47-.46.8-.94.75h0c-.26,0-.45.19-.45.42s.16.4.38.42c.47.04.81.46.77.92-.04.44-.41.77-.85.77Z"/>
      </g>
      <path class="cls-3" d="m133,156.67c-.83,0-1.98-.33-3.53-1.38-.39-.26-.49-.79-.23-1.18.26-.39.79-.49,1.18-.23,1.82,1.23,2.84,1.23,3.05.93.15-.21.06-.68-.29-.95-.24-.18-.51-.38-.83-.62-1.75-1.29-4.68-3.44-8.62-7.77-.32-.35-.29-.89.06-1.2.35-.32.89-.29,1.2.06,3.82,4.21,6.67,6.3,8.37,7.55.33.24.62.45.86.64,1.07.82,1.35,2.3.63,3.3-.2.28-.76.86-1.86.86Z"/>
    </g>
  </g>
  <g id="_アイコン" data-name="アイコン">
    <g>
      <path class="cls-5" d="m113.56,42.22c6.26,2.51,11.73-1.57,12.26-5.43.05-.35-.19-.68-.54-.72l-1.41-.16c-.41-.05-.66-.47-.5-.85l.54-1.31c.13-.33-.03-.69-.36-.82-3.64-1.41-9.86,1.39-10.7,8.09-.06.51.23,1.01.71,1.2Z"/>
      <path class="cls-2" d="m117.44,43.94c-1.41,0-2.85-.28-4.24-.83,0,0,0,0,0,0-.89-.36-1.42-1.27-1.3-2.22.42-3.4,2.25-6.3,5.01-7.95,2.27-1.36,4.94-1.71,6.99-.92.4.16.73.47.9.86.17.39.17.83,0,1.22l-.37.89.96.11c.43.05.8.26,1.07.6.26.34.38.78.32,1.2-.3,2.17-1.91,4.34-4.19,5.67-1.57.91-3.33,1.37-5.15,1.37Zm-3.52-2.62c3.6,1.45,6.37.36,7.7-.41,1.66-.96,2.85-2.45,3.19-3.93l-1.05-.12c-.5-.06-.93-.34-1.18-.77-.25-.43-.29-.94-.1-1.4l.4-.98c-1.46-.43-3.34-.1-4.99.88-1.32.79-3.61,2.69-4.09,6.54,0,.07.04.16.11.19Z"/>
    </g>
    <g>
      <path class="cls-5" d="m40.78,168.35c1.38-5.95-3.03-10.27-6.56-10.21-.32,0-.58.26-.56.58l.05,1.28c.01.37-.33.65-.69.56l-1.25-.3c-.31-.08-.62.13-.68.44-.75,3.45,2.62,8.62,8.72,8.44.46-.01.87-.35.98-.8Z"/>
      <path class="cls-2" d="m39.51,170.04c-2.98,0-5.69-1.22-7.49-3.39-1.53-1.84-2.21-4.19-1.79-6.13.08-.38.32-.72.65-.93.33-.21.72-.27,1.1-.18l.83.2-.03-.86c-.02-.39.12-.76.39-1.04.27-.28.65-.45,1.04-.46,1.97-.04,4.15,1.1,5.65,2.96,1.83,2.27,2.48,5.3,1.78,8.33h0c-.2.85-.94,1.46-1.81,1.48-.11,0-.22,0-.32,0Zm1.27-1.69h0,0Zm-8.89-7.14c-.17,1.36.38,2.98,1.48,4.31.89,1.07,2.95,2.85,6.4,2.75.06,0,.13-.06.14-.12.79-3.41-.56-5.74-1.43-6.82-1.09-1.34-2.57-2.2-3.94-2.3l.04.94c.02.45-.17.88-.53,1.17s-.81.39-1.25.29l-.92-.22Zm.05-.31h0s0,0,0,0Z"/>
    </g>
    <g>
      <path class="cls-5" d="m17.01,138.76c5.32,2.48,10.25-.8,10.9-4.13.06-.3-.13-.59-.44-.65l-1.22-.21c-.35-.06-.55-.44-.39-.76l.53-1.11c.13-.28,0-.6-.28-.73-3.09-1.39-8.62.74-9.67,6.51-.08.44.16.89.56,1.08Z"/>
      <path class="cls-2" d="m20.81,140.39c-1.37,0-2.76-.31-4.11-.95h0c-.72-.34-1.12-1.12-.98-1.89.53-2.95,2.2-5.29,4.69-6.6,2.01-1.06,4.32-1.24,6.03-.46.32.14.57.42.69.74.12.33.1.68-.05,1l-.41.85.93.16c.34.06.64.25.84.54.2.29.27.65.21,1-.36,1.84-1.84,3.63-3.86,4.66-1.26.64-2.61.96-3.99.96Zm-3.47-2.31c3.09,1.44,5.57.62,6.78,0,1.54-.79,2.68-2.07,3.02-3.4l-1-.17c-.4-.07-.74-.31-.93-.68s-.19-.78-.02-1.15l.44-.91c-1.28-.49-2.99-.3-4.52.5-1.2.63-3.3,2.19-3.91,5.54-.02.1.04.22.14.26h0Z"/>
    </g>
    <g>
      <g>
        <path class="cls-5" d="m30.98,86.49l-.11.02c-.9.13-1.67-.63-1.55-1.53v-.11c.12-.81-.51-1.55-1.33-1.55-2.67-.01-5.93,1.44-7.83,4.18-.19.27-.58.22-.69-.08-1.14-2.99-3.79-5.14-6.28-5.83-.8-.22-1.63.29-1.74,1.12l-.02.11c-.13.9-1.08,1.42-1.91,1.05l-.1-.05c-.76-.34-1.64.08-1.88.88-.74,2.47-.33,5.86,1.59,8.42.2.26.03.62-.3.63-3.33.14-6.3,2.13-7.71,4.39-.43.7-.15,1.62.6,1.96l.1.05c.82.38,1.05,1.44.47,2.13l-.07.08c-.54.63-.4,1.59.3,2.05,2.09,1.37,5.32,1.96,8.26.98.3-.1.57.15.51.46-.66,3.02.25,6.17,1.83,8.1.53.64,1.5.69,2.07.08l.08-.08c.62-.66,1.7-.54,2.17.24l.06.1c.43.72,1.39.88,2.04.36,2.02-1.59,3.64-4.59,3.55-7.78,0-.33.34-.52.62-.34,2.65,1.77,6.05,2,8.47,1.14.79-.28,1.16-1.18.78-1.92l-.05-.1c-.41-.81.06-1.78.95-1.96l.11-.02c.82-.16,1.3-1,1.03-1.79-.83-2.47-3.15-5.03-6.24-5.99-.2-.06-.24-.21-.07-.35,2.33-1.89,3.93-5.17,3.89-7.71-.02-.83-.75-1.46-1.57-1.34Z"/>
        <path class="cls-2" d="m18.65,115.87c-.14,0-.28-.01-.42-.04-.65-.12-1.21-.51-1.55-1.08l-.06-.09c-.1-.17-.25-.21-.33-.22-.08,0-.24,0-.37.14l-.07.08c-.45.48-1.08.74-1.75.72-.66-.02-1.28-.33-1.7-.85-1.73-2.11-2.54-5.19-2.17-8.03-2.79.67-5.93.18-8.22-1.32-.55-.36-.93-.95-1.02-1.6-.09-.65.1-1.31.53-1.81l.07-.08c.12-.15.11-.3.1-.38-.02-.08-.07-.23-.25-.31l-.1-.04c-.6-.28-1.05-.8-1.24-1.43-.19-.63-.1-1.3.25-1.86,1.31-2.1,4.09-4.28,7.54-4.75-1.54-2.52-2.03-5.75-1.21-8.47.19-.64.65-1.17,1.25-1.45.6-.27,1.28-.28,1.88-.01l.11.05c.17.08.32.02.39-.02.07-.04.2-.14.22-.33l.02-.11c.09-.65.46-1.23,1.01-1.59.56-.36,1.24-.47,1.89-.29,2.74.77,5.21,2.89,6.52,5.54,2.21-2.65,5.52-3.85,8-3.85h.04c.65,0,1.27.29,1.71.78.43.5.63,1.16.55,1.81v.11c-.04.19.06.31.12.37.06.06.19.14.38.12l.1-.02h0c.65-.1,1.31.09,1.81.52.5.43.8,1.05.81,1.72.05,2.51-1.32,5.55-3.34,7.62,2.65,1.19,4.83,3.51,5.71,6.15.21.63.14,1.32-.19,1.89-.33.57-.89.97-1.54,1.1l-.11.02c-.19.04-.28.17-.32.24s-.08.22,0,.4l.05.1c.3.58.33,1.27.09,1.88-.25.62-.75,1.1-1.38,1.33-2.67.95-5.91.64-8.5-.76-.2,2.94-1.66,5.84-3.88,7.59-.41.33-.92.5-1.44.5Zm-2.41-3.27c.08,0,.17,0,.26.01.72.08,1.34.48,1.71,1.1l.06.09c.09.15.23.2.3.21.08.01.23.02.38-.1,1.65-1.3,3.28-3.98,3.2-7.03-.01-.5.24-.96.67-1.19.43-.24.96-.22,1.37.06,2.54,1.69,5.67,1.74,7.66,1.04.18-.06.25-.2.29-.27.03-.07.06-.21-.02-.36l-.05-.1c-.33-.64-.34-1.39-.02-2.04.32-.65.91-1.1,1.62-1.24l.11-.02c.17-.03.26-.15.3-.21.04-.07.1-.21.04-.38-.68-2.02-2.69-4.48-5.65-5.41-.43-.13-.73-.45-.8-.85-.08-.4.08-.81.43-1.09,2.06-1.68,3.59-4.68,3.55-6.98,0-.18-.1-.29-.16-.35-.06-.05-.18-.12-.35-.1l-.11.02c-.72.11-1.43-.12-1.94-.63-.52-.51-.76-1.21-.66-1.93v-.11c.04-.18-.04-.3-.09-.36-.05-.06-.19-.16-.36-.15-2.21,0-5.23,1.17-7.03,3.78-.28.41-.76.63-1.24.57-.48-.06-.89-.38-1.07-.84-1.09-2.85-3.63-4.7-5.67-5.27-.18-.05-.32.01-.39.06-.06.04-.17.14-.2.31l-.02.11c-.1.72-.53,1.33-1.16,1.68-.63.35-1.38.38-2.04.09l-.11-.05c-.16-.07-.29-.03-.36,0-.07.03-.2.12-.26.3-.6,2.02-.39,5.16,1.44,7.6.3.39.35.91.14,1.35-.21.44-.65.73-1.14.75-3.19.13-5.8,2.08-6.96,3.96-.09.14-.07.28-.05.35.02.07.08.21.25.29l.1.04c.66.3,1.12.88,1.28,1.59.15.71-.03,1.43-.5,1.98l-.07.08c-.11.13-.11.28-.1.35.01.08.05.22.21.32,1.69,1.11,4.65,1.81,7.46.88.45-.15.95-.05,1.3.27.35.31.5.8.4,1.26-.56,2.54.09,5.42,1.65,7.32.12.14.26.17.34.17.06,0,.22-.01.34-.14l.07-.08c.44-.46,1.03-.72,1.66-.72Zm7.75-5.76h0s0,0,0,0Z"/>
      </g>
      <circle class="cls-2" cx="17.38" cy="95.84" r="1.19"/>
      <circle class="cls-2" cx="17" cy="99.6" r="1.19"/>
      <circle class="cls-2" cx="20.76" cy="97.53" r="1.19"/>
    </g>
    <g>
      <g>
        <path class="cls-5" d="m133.83,123l-.05-.04c-.39-.29-.39-.87,0-1.16l.05-.04c.35-.27.39-.78.08-1.09-1-1.01-2.77-1.7-4.52-1.39-.17.03-.3-.13-.23-.29.7-1.55.52-3.36-.15-4.56-.22-.39-.72-.5-1.08-.24l-.05.04c-.39.29-.94.13-1.11-.33l-.02-.06c-.16-.42-.64-.59-1.04-.38-1.21.65-2.34,2.07-2.59,3.76-.03.17-.22.24-.35.12-1.3-1.21-3.17-1.58-4.55-1.27-.43.1-.67.55-.52.96l.02.06c.17.45-.15.94-.63.97h-.06c-.44.04-.75.45-.66.88.27,1.31,1.26,2.75,2.73,3.49.15.08.16.27.02.36-1.39.88-2.24,2.41-2.38,3.74-.05.44.3.82.75.81h.06c.48-.01.84.44.72.91v.06c-.13.43.17.85.61.91,1.36.17,3.1-.35,4.27-1.58.12-.13.33-.07.36.11.33,1.67,1.51,3.04,2.75,3.63.4.19.88,0,1.02-.43l.02-.06c.15-.46.7-.65,1.1-.37l.05.03c.37.25.87.11,1.07-.28.62-1.24.72-3.08-.08-4.61-.05-.1,0-.17.11-.16,1.59.17,3.43-.45,4.37-1.42.31-.32.27-.83-.08-1.1Z"/>
        <path class="cls-2" d="m126.59,132.18c-.22,0-.43-.05-.63-.14-1.32-.63-2.4-1.89-2.92-3.32-1.21.93-2.8,1.41-4.25,1.23-.42-.05-.79-.28-1.02-.62-.23-.34-.31-.77-.21-1.17,0,0-.07-.08-.07-.08-.39,0-.81-.16-1.09-.46-.28-.31-.42-.72-.38-1.13.15-1.41.93-2.83,2.07-3.79-1.22-.85-2.15-2.19-2.43-3.58-.08-.41.01-.83.26-1.16.25-.33.63-.54,1.04-.57l.74-.27-.69.19c-.14-.39-.11-.82.09-1.18.2-.36.54-.62.94-.71,1.49-.34,3.22.03,4.54.92.44-1.47,1.47-2.78,2.77-3.47.37-.2.81-.23,1.2-.08.39.14.69.45.84.83h0s.09.03.1.03h0c.33-.25.76-.34,1.16-.25.41.09.76.35.96.71.72,1.29.88,2.94.46,4.42,1.62-.05,3.25.58,4.32,1.67.29.29.44.7.41,1.11-.03.41-.24.79-.56,1.04v.1c.33.25.54.63.57,1.04.03.41-.11.82-.4,1.12-.91.93-2.48,1.57-3.99,1.66.46,1.44.36,3.07-.29,4.36-.19.37-.52.65-.93.75-.4.1-.82.03-1.17-.2l-.75-.25.66.28c-.13.39-.42.71-.8.87-.18.08-.38.12-.57.12Zm-3.28-5.3c.08,0,.17.01.26.04.33.1.58.37.64.71.3,1.52,1.4,2.67,2.36,3.13.2-.5.53-.83.96-.98.43-.15.89-.08,1.27.17.57-.95.74-2.55.01-3.95-.15-.28-.13-.6.03-.85.17-.25.46-.37.77-.34,1.35.15,2.98-.38,3.79-1.21,0,0,0-.04,0-.04l-.05-.04c-.36-.27-.57-.69-.58-1.14s.2-.87.57-1.15c-.73-.86-2.24-1.54-3.83-1.25-.34.07-.68-.07-.89-.34-.21-.27-.25-.63-.11-.95.64-1.41.4-2.99-.13-3.92-.45.29-.91.37-1.34.25-.44-.13-.78-.44-.94-.87-1,.44-2.06,1.64-2.28,3.18-.05.34-.28.62-.6.74-.33.11-.68.04-.93-.2-1.19-1.1-2.82-1.35-3.92-1.1.17.51.11.97-.13,1.36-.25.38-.65.62-1.1.65.13,1.04.93,2.36,2.27,3.04.3.15.49.45.51.78s-.15.64-.43.82c-1.27.81-1.94,2.19-2.05,3.21.53.02.96.21,1.24.57s.38.81.27,1.25c1.08.22,2.62-.15,3.69-1.27.18-.19.42-.29.67-.29Zm6.76-1.53h0,0Zm-11.33-3.14h0s0,0,0,0Zm11.08-2.93s0,0,0,0c0,0,0,0,0,0Zm-.54-.69h0,0Z"/>
      </g>
      <circle class="cls-2" cx="125.19" cy="121.37" r=".63"/>
      <circle class="cls-2" cx="123.63" cy="122.64" r=".63"/>
      <circle class="cls-2" cx="125.82" cy="123.28" r=".63"/>
    </g>
  </g>
</svg>