<?xml version="1.0" encoding="UTF-8"?>
<svg id="Layer_2" data-name="Layer 2" xmlns="http://www.w3.org/2000/svg" viewBox="0 0 13.98 14.87">
  <defs>
    <style>
      .cls-1 {
        fill: #fff;
      }

      .cls-2 {
        fill: #565656;
      }
    </style>
  </defs>
  <g id="_アイコン" data-name="アイコン">
    <g>
      <path class="cls-1" d="m5.7,13.33c-2.99-.65-4.84-3.83-4.13-7.08S5.28.88,8.27,1.53c2.99.65,4.84,3.83,4.13,7.08s-3.72,5.37-6.7,4.72Zm2.01-9.22c-1.57-.34-3.17.87-3.57,2.7s.55,3.6,2.12,3.94,3.17-.87,3.57-2.7-.55-3.6-2.12-3.94Z"/>
      <path class="cls-2" d="m7.18,1.42c.36,0,.73.04,1.09.12,2.99.65,4.84,3.83,4.13,7.08-.62,2.86-3.02,4.84-5.61,4.84-.36,0-.73-.04-1.09-.12-2.99-.65-4.84-3.83-4.13-7.08C2.19,3.4,4.58,1.42,7.18,1.42m-.38,9.4c1.38,0,2.68-1.14,3.03-2.76.4-1.83-.55-3.6-2.12-3.94-.18-.04-.36-.06-.53-.06-1.38,0-2.68,1.14-3.03,2.76-.4,1.83.55,3.6,2.12,3.94.18.04.36.06.53.06m.38-10.81h0C3.88,0,.93,2.5.18,5.95c-.87,4.02,1.47,7.95,5.22,8.77.46.1.93.15,1.39.15,3.3,0,6.25-2.5,7-5.95.42-1.92.12-3.89-.84-5.53S10.41.55,8.57.15c-.46-.1-.93-.15-1.39-.15h0Zm-.38,9.4c-.08,0-.16,0-.23-.03-.47-.1-.73-.48-.85-.7-.24-.44-.3-1.01-.19-1.56.2-.94.91-1.64,1.65-1.64.08,0,.16,0,.23.03.47.1.73.48.85.7.24.44.3,1.01.19,1.56-.2.94-.91,1.65-1.65,1.65h0Z"/>
    </g>
  </g>
</svg>