<?xml version="1.0" encoding="UTF-8"?>
<svg id="Layer_2" data-name="Layer 2" xmlns="http://www.w3.org/2000/svg" viewBox="0 0 119.51 182.87">
  <defs>
    <style>
      .cls-1 {
        fill: #fff;
      }

      .cls-2 {
        fill: #565656;
      }

      .cls-3 {
        fill: #363636;
      }

      .cls-4 {
        fill: #33b0da;
      }

      .cls-5 {
        fill: #8dc05f;
      }

      .cls-6 {
        fill: #ffdfbc;
      }

      .cls-7 {
        fill: #ffd964;
      }
    </style>
  </defs>
  <g id="_背景ドット" data-name="背景ドット">
    <g>
      <path class="cls-1" d="m46.75,141.8c-.33,0-.59.27-.59.59s.27.59.59.59.59-.27.59-.59-.27-.59-.59-.59Z"/>
      <path class="cls-1" d="m48.16,138.92c0,.33.27.59.59.59s.59-.27.59-.59-.27-.59-.59-.59-.59.27-.59.59Z"/>
      <path class="cls-1" d="m46.75,148.75c-.33,0-.59.27-.59.59s.27.59.59.59.59-.27.59-.59-.27-.59-.59-.59Z"/>
      <path class="cls-1" d="m48.76,145.28c-.33,0-.59.27-.59.59s.27.59.59.59c.18,0,.33-.08.44-.21.04-.19.08-.38.11-.58-.08-.23-.3-.4-.55-.4Z"/>
      <circle class="cls-1" cx="42.74" cy="128.49" r=".59"/>
      <path class="cls-1" d="m46.16,135.44c0,.33.27.59.59.59s.59-.27.59-.59-.27-.59-.59-.59-.59.27-.59.59Z"/>
      <circle class="cls-1" cx="42.74" cy="135.44" r=".59"/>
      <circle class="cls-1" cx="44.74" cy="131.97" r=".59"/>
      <path class="cls-1" d="m46.16,128.49c0,.3.23.54.52.58-.15-.27-.31-.55-.47-.81-.03.07-.05.15-.05.24Z"/>
      <path class="cls-1" d="m42.74,141.8c-.33,0-.59.27-.59.59s.27.59.59.59.59-.27.59-.59-.27-.59-.59-.59Z"/>
      <path class="cls-1" d="m45.34,138.92c0-.33-.27-.59-.59-.59s-.59.27-.59.59.27.59.59.59.59-.27.59-.59Z"/>
      <circle class="cls-1" cx="42.74" cy="149.35" r=".59"/>
      <circle class="cls-1" cx="44.74" cy="145.87" r=".59"/>
      <circle class="cls-1" cx="42.74" cy="156.3" r=".59"/>
      <circle class="cls-1" cx="44.74" cy="152.82" r=".59"/>
      <path class="cls-1" d="m38.72,120.95c-.33,0-.59.27-.59.59s.27.59.59.59.59-.27.59-.59-.27-.59-.59-.59Z"/>
      <path class="cls-1" d="m38.72,127.9c-.33,0-.59.27-.59.59s.27.59.59.59.59-.27.59-.59-.27-.59-.59-.59Z"/>
      <path class="cls-1" d="m40.14,125.02c0,.33.27.59.59.59s.59-.27.59-.59-.27-.59-.59-.59-.59.27-.59.59Z"/>
      <path class="cls-1" d="m38.72,134.85c-.33,0-.59.27-.59.59s.27.59.59.59.59-.27.59-.59-.27-.59-.59-.59Z"/>
      <path class="cls-1" d="m41.32,131.97c0-.33-.27-.59-.59-.59s-.59.27-.59.59.27.59.59.59.59-.27.59-.59Z"/>
      <path class="cls-1" d="m38.72,141.8c-.33,0-.59.27-.59.59s.27.59.59.59.59-.27.59-.59-.27-.59-.59-.59Z"/>
      <path class="cls-1" d="m40.73,138.33c-.33,0-.59.27-.59.59s.27.59.59.59.59-.27.59-.59-.27-.59-.59-.59Z"/>
      <path class="cls-1" d="m38.72,148.75c-.33,0-.59.27-.59.59s.27.59.59.59.59-.27.59-.59-.27-.59-.59-.59Z"/>
      <path class="cls-1" d="m40.14,145.87c0,.33.27.59.59.59s.59-.27.59-.59-.27-.59-.59-.59-.59.27-.59.59Z"/>
      <path class="cls-1" d="m38.72,155.71c-.33,0-.59.27-.59.59s.27.59.59.59.59-.27.59-.59-.27-.59-.59-.59Z"/>
      <path class="cls-1" d="m40.14,152.82c0,.33.27.59.59.59s.59-.27.59-.59-.27-.59-.59-.59-.59.27-.59.59Z"/>
      <path class="cls-1" d="m40.73,159.18c-.33,0-.59.27-.59.59,0,.29.21.52.48.57.24-.2.47-.4.7-.6-.02-.31-.27-.56-.59-.56Z"/>
      <path class="cls-1" d="m34.71,120.95c-.33,0-.59.27-.59.59s.27.59.59.59.59-.27.59-.59-.27-.59-.59-.59Z"/>
      <path class="cls-1" d="m34.71,127.9c-.33,0-.59.27-.59.59s.27.59.59.59.59-.27.59-.59-.27-.59-.59-.59Z"/>
      <circle class="cls-1" cx="36.72" cy="125.02" r=".59"/>
      <path class="cls-1" d="m34.71,134.85c-.33,0-.59.27-.59.59s.27.59.59.59.59-.27.59-.59-.27-.59-.59-.59Z"/>
      <circle class="cls-1" cx="36.72" cy="131.97" r=".59"/>
      <path class="cls-1" d="m34.71,141.8c-.33,0-.59.27-.59.59s.27.59.59.59.59-.27.59-.59-.27-.59-.59-.59Z"/>
      <path class="cls-1" d="m37.31,138.92c0-.33-.27-.59-.59-.59s-.59.27-.59.59.27.59.59.59.59-.27.59-.59Z"/>
      <path class="cls-1" d="m34.71,148.75c-.33,0-.59.27-.59.59s.27.59.59.59.59-.27.59-.59-.27-.59-.59-.59Z"/>
      <circle class="cls-1" cx="36.72" cy="145.87" r=".59"/>
      <path class="cls-1" d="m34.71,155.71c-.33,0-.59.27-.59.59s.27.59.59.59.59-.27.59-.59-.27-.59-.59-.59Z"/>
      <circle class="cls-1" cx="36.72" cy="152.82" r=".59"/>
      <path class="cls-1" d="m34.71,162.66c-.33,0-.59.27-.59.59s.27.59.59.59.59-.27.59-.59-.27-.59-.59-.59Z"/>
      <circle class="cls-1" cx="36.72" cy="159.78" r=".59"/>
      <circle class="cls-1" cx="30.7" cy="121.54" r=".59"/>
      <path class="cls-1" d="m33.3,118.06c0-.33-.27-.59-.59-.59s-.59.27-.59.59.27.59.59.59.59-.27.59-.59Z"/>
      <circle class="cls-1" cx="30.7" cy="128.49" r=".59"/>
      <path class="cls-1" d="m33.3,125.02c0-.33-.27-.59-.59-.59s-.59.27-.59.59.27.59.59.59.59-.27.59-.59Z"/>
      <circle class="cls-1" cx="30.7" cy="135.44" r=".59"/>
      <path class="cls-1" d="m33.3,131.97c0-.33-.27-.59-.59-.59s-.59.27-.59.59.27.59.59.59.59-.27.59-.59Z"/>
      <path class="cls-1" d="m30.7,141.8c-.33,0-.59.27-.59.59s.27.59.59.59.59-.27.59-.59-.27-.59-.59-.59Z"/>
      <path class="cls-1" d="m33.3,138.92c0-.33-.27-.59-.59-.59s-.59.27-.59.59.27.59.59.59.59-.27.59-.59Z"/>
      <circle class="cls-1" cx="30.7" cy="149.35" r=".59"/>
      <path class="cls-1" d="m32.11,145.87c0,.33.27.59.59.59s.59-.27.59-.59-.27-.59-.59-.59-.59.27-.59.59Z"/>
      <circle class="cls-1" cx="30.7" cy="156.3" r=".59"/>
      <path class="cls-1" d="m32.11,152.82c0,.33.27.59.59.59s.59-.27.59-.59-.27-.59-.59-.59-.59.27-.59.59Z"/>
      <path class="cls-1" d="m30.7,162.66c-.33,0-.59.27-.59.59s.27.59.59.59.59-.27.59-.59-.27-.59-.59-.59Z"/>
      <path class="cls-1" d="m32.11,159.78c0,.33.27.59.59.59s.59-.27.59-.59-.27-.59-.59-.59-.59.27-.59.59Z"/>
      <path class="cls-1" d="m26.68,120.95c-.33,0-.59.27-.59.59s.27.59.59.59.59-.27.59-.59-.27-.59-.59-.59Z"/>
      <circle class="cls-1" cx="28.69" cy="118.06" r=".59"/>
      <path class="cls-1" d="m26.68,127.9c-.33,0-.59.27-.59.59s.27.59.59.59.59-.27.59-.59-.27-.59-.59-.59Z"/>
      <circle class="cls-1" cx="28.69" cy="125.02" r=".59"/>
      <path class="cls-1" d="m26.68,134.85c-.33,0-.59.27-.59.59s.27.59.59.59.59-.27.59-.59-.27-.59-.59-.59Z"/>
      <circle class="cls-1" cx="28.69" cy="131.97" r=".59"/>
      <path class="cls-1" d="m26.68,141.8c-.33,0-.59.27-.59.59s.27.59.59.59.59-.27.59-.59-.27-.59-.59-.59Z"/>
      <path class="cls-1" d="m29.28,138.92c0-.33-.27-.59-.59-.59s-.59.27-.59.59.27.59.59.59.59-.27.59-.59Z"/>
      <path class="cls-1" d="m26.68,148.75c-.33,0-.59.27-.59.59s.27.59.59.59.59-.27.59-.59-.27-.59-.59-.59Z"/>
      <circle class="cls-1" cx="28.69" cy="145.87" r=".59"/>
      <path class="cls-1" d="m26.68,155.71c-.33,0-.59.27-.59.59s.27.59.59.59.59-.27.59-.59-.27-.59-.59-.59Z"/>
      <circle class="cls-1" cx="28.69" cy="152.82" r=".59"/>
      <path class="cls-1" d="m26.68,162.66c-.33,0-.59.27-.59.59s.27.59.59.59.59-.27.59-.59-.27-.59-.59-.59Z"/>
      <circle class="cls-1" cx="28.69" cy="159.78" r=".59"/>
      <circle class="cls-1" cx="22.67" cy="121.54" r=".59"/>
      <path class="cls-1" d="m25.27,118.06c0-.33-.27-.59-.59-.59s-.59.27-.59.59.27.59.59.59.59-.27.59-.59Z"/>
      <circle class="cls-1" cx="22.67" cy="128.49" r=".59"/>
      <path class="cls-1" d="m25.27,125.02c0-.33-.27-.59-.59-.59s-.59.27-.59.59.27.59.59.59.59-.27.59-.59Z"/>
      <circle class="cls-1" cx="22.67" cy="135.44" r=".59"/>
      <path class="cls-1" d="m25.27,131.97c0-.33-.27-.59-.59-.59s-.59.27-.59.59.27.59.59.59.59-.27.59-.59Z"/>
      <path class="cls-1" d="m22.67,141.8c-.33,0-.59.27-.59.59s.27.59.59.59.59-.27.59-.59-.27-.59-.59-.59Z"/>
      <path class="cls-1" d="m25.27,138.92c0-.33-.27-.59-.59-.59s-.59.27-.59.59.27.59.59.59.59-.27.59-.59Z"/>
      <circle class="cls-1" cx="22.67" cy="149.35" r=".59"/>
      <path class="cls-1" d="m24.08,145.87c0,.33.27.59.59.59s.59-.27.59-.59-.27-.59-.59-.59-.59.27-.59.59Z"/>
      <circle class="cls-1" cx="22.67" cy="156.3" r=".59"/>
      <path class="cls-1" d="m24.08,152.82c0,.33.27.59.59.59s.59-.27.59-.59-.27-.59-.59-.59-.59.27-.59.59Z"/>
      <path class="cls-1" d="m22.67,162.66c-.33,0-.59.27-.59.59s.27.59.59.59.59-.27.59-.59-.27-.59-.59-.59Z"/>
      <path class="cls-1" d="m24.08,159.78c0,.33.27.59.59.59s.59-.27.59-.59-.27-.59-.59-.59-.59.27-.59.59Z"/>
      <path class="cls-1" d="m18.65,120.95c-.33,0-.59.27-.59.59s.27.59.59.59.59-.27.59-.59-.27-.59-.59-.59Z"/>
      <circle class="cls-1" cx="20.66" cy="118.06" r=".59"/>
      <path class="cls-1" d="m18.65,127.9c-.33,0-.59.27-.59.59s.27.59.59.59.59-.27.59-.59-.27-.59-.59-.59Z"/>
      <circle class="cls-1" cx="20.66" cy="125.02" r=".59"/>
      <path class="cls-1" d="m18.65,134.85c-.33,0-.59.27-.59.59s.27.59.59.59.59-.27.59-.59-.27-.59-.59-.59Z"/>
      <circle class="cls-1" cx="20.66" cy="131.97" r=".59"/>
      <path class="cls-1" d="m21.26,138.92c0-.33-.27-.59-.59-.59s-.59.27-.59.59.27.59.59.59.59-.27.59-.59Z"/>
      <path class="cls-1" d="m18.65,148.75c-.33,0-.59.27-.59.59s.27.59.59.59.59-.27.59-.59-.27-.59-.59-.59Z"/>
      <circle class="cls-1" cx="20.66" cy="145.87" r=".59"/>
      <path class="cls-1" d="m18.65,155.71c-.33,0-.59.27-.59.59s.27.59.59.59.59-.27.59-.59-.27-.59-.59-.59Z"/>
      <circle class="cls-1" cx="20.66" cy="152.82" r=".59"/>
      <path class="cls-1" d="m18.65,162.66c-.33,0-.59.27-.59.59s.27.59.59.59.59-.27.59-.59-.27-.59-.59-.59Z"/>
      <circle class="cls-1" cx="20.66" cy="159.78" r=".59"/>
      <circle class="cls-1" cx="14.64" cy="121.54" r=".59"/>
      <path class="cls-1" d="m16.05,118.06c0,.33.27.59.59.59s.59-.27.59-.59c0-.31-.24-.56-.54-.58-.15.05-.31.1-.46.16-.11.11-.18.26-.18.43Z"/>
      <circle class="cls-1" cx="14.64" cy="128.49" r=".59"/>
      <path class="cls-1" d="m17.24,125.02c0-.33-.27-.59-.59-.59s-.59.27-.59.59.27.59.59.59.59-.27.59-.59Z"/>
      <path class="cls-1" d="m17.24,131.97c0-.33-.27-.59-.59-.59s-.59.27-.59.59.27.59.59.59.59-.27.59-.59Z"/>
      <path class="cls-1" d="m16.65,139.51c.33,0,.59-.27.59-.59s-.27-.59-.59-.59-.59.27-.59.59.27.59.59.59Z"/>
      <path class="cls-1" d="m16.05,145.87c0,.33.27.59.59.59s.59-.27.59-.59-.27-.59-.59-.59-.59.27-.59.59Z"/>
      <path class="cls-1" d="m18.65,142.99c.33,0,.59-.27.59-.59s-.27-.59-.59-.59-.59.27-.59.59.27.59.59.59Z"/>
      <path class="cls-1" d="m16.05,152.82c0,.33.27.59.59.59s.59-.27.59-.59-.27-.59-.59-.59-.59.27-.59.59Z"/>
      <path class="cls-1" d="m16.05,159.78c0,.33.27.59.59.59s.59-.27.59-.59-.27-.59-.59-.59-.59.27-.59.59Z"/>
      <path class="cls-1" d="m15.23,163.25c0-.33-.27-.59-.59-.59s-.59.27-.59.59c0,.15.06.28.15.38.15.07.31.14.47.21.32-.01.57-.27.57-.59Z"/>
      <path class="cls-1" d="m13.23,125.02c0-.33-.27-.59-.59-.59s-.59.27-.59.59.27.59.59.59.59-.27.59-.59Z"/>
      <path class="cls-1" d="m10.63,134.85c-.33,0-.59.27-.59.59s.27.59.59.59.59-.27.59-.59-.27-.59-.59-.59Z"/>
      <path class="cls-1" d="m12.63,132.56c.33,0,.59-.27.59-.59s-.27-.59-.59-.59-.59.27-.59.59.27.59.59.59Z"/>
      <path class="cls-1" d="m10.63,141.8c-.33,0-.59.27-.59.59s.27.59.59.59.59-.27.59-.59-.27-.59-.59-.59Z"/>
      <path class="cls-1" d="m13.23,138.92c0-.33-.27-.59-.59-.59s-.59.27-.59.59.27.59.59.59.59-.27.59-.59Z"/>
      <circle class="cls-1" cx="14.64" cy="135.44" r=".59"/>
      <path class="cls-1" d="m10.63,148.75c-.33,0-.59.27-.59.59s.27.59.59.59.59-.27.59-.59-.27-.59-.59-.59Z"/>
      <path class="cls-1" d="m12.04,145.87c0,.33.27.59.59.59s.59-.27.59-.59-.27-.59-.59-.59-.59.27-.59.59Z"/>
      <path class="cls-1" d="m14.64,142.99c.33,0,.59-.27.59-.59s-.27-.59-.59-.59-.59.27-.59.59.27.59.59.59Z"/>
      <path class="cls-1" d="m10.63,155.71c-.33,0-.59.27-.59.59s.27.59.59.59.59-.27.59-.59-.27-.59-.59-.59Z"/>
      <path class="cls-1" d="m12.04,152.82c0,.33.27.59.59.59s.59-.27.59-.59-.27-.59-.59-.59-.59.27-.59.59Z"/>
      <circle class="cls-1" cx="14.64" cy="149.35" r=".59"/>
      <path class="cls-1" d="m12.63,159.18c-.33,0-.59.27-.59.59s.27.59.59.59.59-.27.59-.59-.27-.59-.59-.59Z"/>
      <circle class="cls-1" cx="14.64" cy="156.3" r=".59"/>
      <circle class="cls-1" cx="6.61" cy="128.49" r=".59"/>
      <circle class="cls-1" cx="8.62" cy="125.02" r=".59"/>
      <path class="cls-1" d="m10.63,122.13c.33,0,.59-.27.59-.59s-.27-.59-.59-.59-.59.27-.59.59.27.59.59.59Z"/>
      <circle class="cls-1" cx="6.61" cy="135.44" r=".59"/>
      <circle class="cls-1" cx="8.62" cy="131.97" r=".59"/>
      <path class="cls-1" d="m10.63,129.09c.33,0,.59-.27.59-.59s-.27-.59-.59-.59-.59.27-.59.59.27.59.59.59Z"/>
      <path class="cls-1" d="m6.61,141.8c-.33,0-.59.27-.59.59s.27.59.59.59.59-.27.59-.59-.27-.59-.59-.59Z"/>
      <path class="cls-1" d="m9.21,138.92c0-.33-.27-.59-.59-.59s-.59.27-.59.59.27.59.59.59.59-.27.59-.59Z"/>
      <circle class="cls-1" cx="6.61" cy="149.35" r=".59"/>
      <circle class="cls-1" cx="8.62" cy="145.87" r=".59"/>
      <circle class="cls-1" cx="6.61" cy="156.3" r=".59"/>
      <circle class="cls-1" cx="8.62" cy="152.82" r=".59"/>
      <path class="cls-1" d="m9.21,159.78c0-.33-.27-.59-.59-.59-.25,0-.46.15-.55.37.28.25.56.49.84.73.18-.1.3-.29.3-.5Z"/>
      <path class="cls-1" d="m2.6,134.85c-.33,0-.59.27-.59.59s.27.59.59.59.59-.27.59-.59-.27-.59-.59-.59Z"/>
      <path class="cls-1" d="m4.61,132.56c.33,0,.59-.27.59-.59s-.27-.59-.59-.59-.59.27-.59.59.27.59.59.59Z"/>
      <path class="cls-1" d="m3.15,128.71s-.03.05-.04.07c.01-.02.03-.05.04-.07Z"/>
      <path class="cls-1" d="m5.2,138.92c0-.33-.27-.59-.59-.59s-.59.27-.59.59.27.59.59.59.59-.27.59-.59Z"/>
      <path class="cls-1" d="m2.6,148.75c-.33,0-.59.27-.59.59s.27.59.59.59.59-.27.59-.59-.27-.59-.59-.59Z"/>
      <path class="cls-1" d="m4.01,145.87c0,.33.27.59.59.59s.59-.27.59-.59-.27-.59-.59-.59-.59.27-.59.59Z"/>
      <path class="cls-1" d="m4.61,152.23c-.33,0-.59.27-.59.59s.27.59.59.59.59-.27.59-.59-.27-.59-.59-.59Z"/>
      <path class="cls-1" d="m.59,139.51c.33,0,.59-.27.59-.59s-.27-.59-.59-.59-.59.27-.59.59.27.59.59.59Z"/>
      <path class="cls-1" d="m.59,145.28c-.13,0-.24.05-.34.12.06.35.13.7.2,1.04.04.01.09.03.13.03.33,0,.59-.27.59-.59s-.27-.59-.59-.59Z"/>
      <path class="cls-1" d="m2.6,142.99c.33,0,.59-.27.59-.59s-.27-.59-.59-.59-.59.27-.59.59.27.59.59.59Z"/>
    </g>
  </g>
  <g id="_人物" data-name="人物">
    <g>
      <g>
        <path class="cls-1" d="m57.69,77.39c-1.03,5.03,1.49,8.83,0,12.97-1.49,4.15-2.18,9.1-3.56,13.59-1.38,4.49-1.84,8.16-2.53,11.27,0,0,9.67,3.58,26.26,4.39-.06-28.43,3.45-69.29,3.45-69.29-2.33,1.87-9.82,3.04-10.63-1.74l-12.98,28.81Z"/>
        <path class="cls-6" d="m95.79,21.5h0c.54-3.02,1.06-6.26,1.25-8.13,0,0,.17-5.53-5.95-7.79-6.12-2.26-14.55,2.48-14.55,2.48-2.72,2.98-3.94,6.28-4.73,10.02h0c-2.23-.97-5.12-.22-5.64,3.29-.52,3.51,1.56,6.69,4.5,7.3l.05-.44c.14,2.59.73,4.88,1.82,7.16.63,1.32,1.39,2.26,2.24,2.94h0s-.37,4.26-4.1,10.24c.81,4.78,8.3,3.61,10.63,1.74,0,0,.53-2.08,3.88-4.57,3.35-2.49,3.52-3.61,3.52-3.61,0,0-1.25.58-.88-4.35.91-.65,1.83-1.44,2.78-2.4,1.1-1.11,1.92-2.44,2.57-3.86v.03c3.71-.11,8.23-2.27,8.56-6.11s-4.31-4.47-5.94-3.96Z"/>
        <path class="cls-7" d="m101.4,20.52c1.99-2.89.24-3.65-.73-4.79s-.26-2.32-.03-4.17-1.28-3.7-4.32-4.03c.05-2.28-1.52-4.22-4.6-3.84-1.14-3.89-6.07-3.32-8.35-1.04-2.49-1.05-4.62-.22-5.81,1.05-.89.96-2.21,1.46-3.48,1.17-.97-.22-1.78-.79-1.9-1.7,0,0-1.19,3.2.27,5.17,0,0-7.34,3.51,0,7.34,0,0,.77-3.39,2.43-5.5,0,0,2.04,1.47,5.38-.66,3.35-2.13,4.79-1.66,4.98-1.74s1.86-1.62,3.97.29c0,0,.94.46,2.45.28s2.05.38,2.24,2.35.4,3.1,3.13,2.69l-1.18,7.78,4.33.97,1.22-1.6Z"/>
        <path class="cls-7" d="m64.27,41.29c-.94.13-1.75.74-2.1,1.62l-1,2.71c-3.39.95-6.81,2.53-9.32,3.83-2.46,1.28-4.29,3.49-5.1,6.14-1.75,5.73-5.45,17.26-7.97,24.64-.29.86.11,1.79.94,2.16,1.55.68,4.44,1.61,9.06,1.84h0c-.51,3.05-1,6.1-1.5,9.07-2.09,12.55-5.13,19.96-6.67,34.21-.06.51.69.66.82.16.77-2.84,1.85-6.8,3.08-11.35,2.47-9.15,8.82-27.2,13.91-40.82,5.1-13.62,13.06-28.43,14.62-31.33s1.72-4.93,1.72-4.93c-2.06.79-6.57,1.52-10.5,2.04Z"/>
        <path class="cls-7" d="m104.92,98.51c-2.3,7.79.12,11.32,1.04,15.35.84,3.68.72,5.83.7,11.02,0,.9-.66,1.67-1.54,1.81-6.75,1.05-20.16,3.01-25.26,3.74-1.1.16-2.07-.68-2.09-1.79-.11-8.2.68-27.82,1.38-45.26.77-19.16,1.04-26.38,1.61-30.36.57-3.98,1.15-4.76,4.42-7.28,3.27-2.51,4.51-4.41,2.54-4.65v-.99s1.65.02,2.9.23,1.61.92,2.1,1.8,1.73,2.33,1.46,3.22c0,0,2.22.24,5.09,2.03h0c1.69,3.21,3.45,6.04,4.27,7.33.1.15-.09.33-.24.22-1.97-1.46-3.71-3.08-4.85-4.21-.76-.75-2-.64-2.63.21h0c-.44.6-.45,1.42-.02,2.03.89,1.27,2.14,2.97,2.84,3.92.35.48.59,1.03.71,1.61.71,3.35,1.92,5.99,3.53,8.28.46.65.68,1.44.63,2.23-.22,3.62-1.22,9.15-1.75,14.2,0,0-5.09,1.73-7.08,5.08l4.25.86s1.83,5.53,6,9.35Z"/>
        <path class="cls-3" d="m97.5,85.42l1.41,3.74s-4.89.04-4.25-.86,2.83-2.87,2.83-2.87Z"/>
        <path class="cls-3" d="m110.19,42.68l2.88,3.99s.22-2.33.49-5.23-2.93-3.75-3.37,1.24Z"/>
        <path class="cls-6" d="m21.36,125.88c.28,1.23,2.72,2.59,4.66,2.8s2.24-1,3.12-4.48c1.93-1.31,5.24-3.39,6.16-7.73.21-.99.77-1.87,1.63-2.4,1.98-1.22,5.5-3.43,6.88-4.62l4.96-25.23-2.04-.14c-.14,2.15-.63,3.49-2.81,6.09-2.18,2.6-10,11.26-12.04,13.02-2.04,1.76-5.07.99-7.67,1.34s-3.24-.35-4.86,2.11-1.97,2.68-3.52,4.58-1.36,2.72-.84,4.51c0,0,.58,1.86.81,3.41s-.07,4.46,3.04,4.68c0,0,.04,1.45,2.53,2.06Z"/>
        <path class="cls-6" d="m118.46,84.74c-.37-3.33-4.74-9.2-5.57-19.32-.47-5.68-.14-14.31.1-16.94.09-1.03-.2-2.06-.84-2.87-2.93-3.79-5.02-7.41-6.08-9.38-.45-.84-1.5-1.16-2.35-.71l-.04.02c-.8.42-1.13,1.39-.75,2.2.67,1.43,1.57,3.05,1.57,3.05l-2.96-3.94c-.68-.9-1.96-1.08-2.86-.4-.72.55-1,1.51-.67,2.35l.29.76.15.21c-.31.04-.61.15-.87.36h0c-.73.59-.98,1.58-.62,2.44,2.08,4.92,5.35,10.23,6.57,12.14.1.16-.09.33-.24.22-1.97-1.46-3.71-3.08-4.85-4.2-.76-.75-2-.64-2.63.21-.44.6-.45,1.42-.02,2.03.89,1.27,2.14,2.97,2.84,3.92.35.48.59,1.03.71,1.61.71,3.35,1.92,5.99,3.52,8.28.46.65.68,1.44.63,2.24-.22,3.56-1.17,8.94-1.72,13.9-2.91,1.38-4.28,2.5-4.28,2.5,1.97,8.21,6.72,12.02,8.01,12.93,1.78,1.85,3.6,2.81,5.14,2.47,2.51-.56,5.67-1.39,6.69-3.72,1.02-2.32,1.67-7.34,1.11-12.35Z"/>
        <path class="cls-1" d="m77.23,30.45c4.3-.33,8.41.55,9.62.89-1.31,2.86-3.61,5.16-5.55,5.22s-3.91-2.2-4.07-6.11Z"/>
        <path class="cls-1" d="m75.16,134.51l8.38-1.12.22,3.64c.04.6-.4,1.13-.99,1.2l-6.11.78c-.65.08-1.24-.4-1.28-1.06l-.21-3.44Z"/>
        <path class="cls-3" d="m51.6,115.23c.69-3.11,1.15-6.78,2.53-11.27,1.38-4.49,2.07-9.44,3.56-13.59,1.49-4.15-1.03-7.95,0-12.97,0,0-13.04,34.6-16.69,52.57-.09.42.44.68.72.36,1.42-1.62,4.23-4.46,8.01-6.5l1.87-8.59Z"/>
        <path class="cls-3" d="m78.14,39.69c.37,2.5,4.94,6.57,9.59,3.77l.65-6.07s-3.25,3.7-10.24,2.3Z"/>
        <path class="cls-3" d="m77.62,32.95c2.69.14,5.51.44,7.38.94,0,0-1.24,2.99-4.07,2.68s-3.31-3.62-3.31-3.62Z"/>
        <path class="cls-4" d="m74.39,119.4l3.36.26v8.97c0,.98.84,1.74,1.82,1.65l4-.38.23,3.49-8.87,1.12-.53-15.1Z"/>
        <path class="cls-3" d="m100.94,142.39c-.08-.82.05-1.65.38-2.39.2-.43.38-.8.53-1.12.69-1.41,1.11-2.25.53-4.08-.65-2.07-1.27-4.03-1.14-7.35.02-.47-.35-.86-.82-.88-.47-.02-.86.35-.88.82,0,.06,0,.1,0,.16l-15.99,2.36.45,6.78c.06.84-.55,1.59-1.39,1.7l-5.66.76c-.91.12-1.73-.53-1.82-1.44-.55-6.04-.76-18.29-.76-18.29-9.08-.49-19.09-3.13-21.98-3.94h0c.14-.49-.18-.98-.66-1.07-.46-.08-.91.22-.99.68-.35,1.89-.86,4.38-1.33,6.7-.38,1.86-.73,3.61-.97,4.85-.06.32-.22.62-.44.85-.2.21-.42.42-.64.64-1.52,1.48-3.59,3.5-2.02,6.92.24.52.25,1.05.04,1.5-4.47,9.55-12.6,32.87-15.55,42.37-.13.43.11.9.54,1.05,7.36,2.62,23.98,3.38,30.1,2.45.26-.04.47-.2.6-.42l7.41-13.16c-.4-2.24-.78-5.12-1.13-7.77-.28-2.1-.54-4.08-.75-5.31-.54-3.03-.9-4.06-2.27-5.07-.28-.21-.34-.61-.14-.89.21-.28.61-.35.89-.14,1.8,1.32,2.22,2.8,2.77,5.87.22,1.26.49,3.26.76,5.37.15,1.16.31,2.36.47,3.54.34,2.46.89,4.87,1.63,7.24,1.1,3.53,2.42,7.62,3.24,9.65.12.29.38.49.69.52.12.01,9.07,1.03,18.96,1.03,3.81,0,7.76-.15,11.39-.56.23-.03.43-.14.57-.32.14-.18.2-.41.17-.63-.04-.31-4.03-31.27-4.82-38.97Z"/>
      </g>
      <g>
        <circle class="cls-3" cx="82.74" cy="26.8" r=".71"/>
        <ellipse class="cls-3" cx="78.14" cy="21.75" rx=".98" ry=".98" transform="translate(45.46 95.99) rotate(-81.8)"/>
        <ellipse class="cls-3" cx="88.37" cy="22.92" rx=".98" ry=".98" transform="translate(53.09 107.12) rotate(-81.8)"/>
        <path class="cls-3" d="m81.07,40.96c-.25,0-.5,0-.75-.02-3.25-.19-6.53-.94-8.56-5.17-1.94-4.06-2.4-8.18-1.52-13.79.89-5.68,1.87-10.35,5.66-14.5.32-.35.85-.37,1.2-.05.35.32.37.85.05,1.2-3.48,3.8-4.4,8.22-5.24,13.61-.83,5.31-.43,9.01,1.38,12.79,1.72,3.6,4.46,4.05,7.12,4.2,3.44.2,6.31-1.13,9.57-4.45,2.57-2.61,3.62-6.49,4.37-10.29.69-3.51,1.55-8.45,1.81-11.01.05-.47.45-.81.93-.76.47.05.81.46.76.93-.26,2.62-1.13,7.63-1.83,11.17-.8,4.06-1.94,8.22-4.82,11.15-3.36,3.42-6.52,4.97-10.13,4.97Z"/>
        <path class="cls-3" d="m70.67,29.53c-.06,0-.12,0-.17-.02-3.48-.73-5.75-4.36-5.17-8.26.33-2.26,1.5-3.34,2.42-3.85,1.28-.71,2.92-.75,4.41-.11.43.19.63.69.44,1.12-.19.43-.69.63-1.12.44-1-.43-2.08-.42-2.9.03-.83.46-1.37,1.37-1.56,2.61-.44,2.96,1.28,5.81,3.84,6.35.46.1.75.55.66,1.01-.08.4-.44.68-.83.68Z"/>
        <path class="cls-3" d="m93.16,32.41c-.46,0-.84-.37-.85-.83-.01-.47.36-.86.83-.87,3.03-.09,7.44-1.8,7.75-5.33.08-.97-.21-1.72-.9-2.27-1.21-.98-3.18-1.04-3.94-.8-.45.14-.93-.11-1.07-.56-.14-.45.11-.93.56-1.07,1.21-.38,3.79-.29,5.51,1.1,1.13.91,1.66,2.21,1.53,3.74-.36,4.15-5.06,6.76-9.39,6.88,0,0-.02,0-.02,0Z"/>
        <path class="cls-3" d="m101.4,21.37c-.17,0-.33-.05-.48-.15-.39-.27-.48-.8-.22-1.18,1.26-1.83.77-2.3-.1-3.16-.2-.2-.4-.39-.58-.6-.98-1.15-.72-2.37-.46-3.54.08-.39.18-.82.24-1.29.08-.59-.09-1.16-.47-1.65-.61-.77-1.7-1.28-3.09-1.43-.44-.05-.77-.42-.76-.86.02-.95-.3-1.77-.89-2.31-.64-.58-1.59-.81-2.75-.67-.41.05-.8-.2-.92-.61-.33-1.12-1.04-1.83-2.12-2.1-1.54-.39-3.61.22-4.81,1.42-.25.24-.61.32-.93.18-2.15-.91-3.92-.16-4.86.85-1.14,1.22-2.79,1.77-4.3,1.42-1.44-.33-2.4-1.24-2.55-2.42-.06-.47.27-.89.73-.95.46-.06.89.27.95.73.08.65.9.9,1.25.98.92.21,1.94-.14,2.67-.92,1.25-1.34,3.51-2.38,6.25-1.45,1.65-1.38,4.05-2,6.02-1.49,1.43.36,2.5,1.28,3.09,2.62,1.7-.03,2.79.58,3.42,1.15.8.72,1.29,1.71,1.42,2.85,1.52.3,2.75.98,3.52,1.96.67.84.96,1.88.82,2.92-.07.53-.17,1-.27,1.44-.26,1.18-.31,1.61.09,2.08.14.17.31.33.47.49.95.93,2.38,2.33.31,5.34-.17.24-.43.37-.7.37Z"/>
        <path class="cls-3" d="m102.43,16.2c-1.09,0-2.15-.4-2.77-1.06-.27-.29-.25-.73.03-1,.29-.27.73-.25,1,.03.36.38,1.1.63,1.78.61.38,0,1.07-.09,1.52-.6.26-.29.71-.32,1-.06.29.26.32.71.06,1-.6.68-1.51,1.06-2.56,1.08-.02,0-.05,0-.07,0Z"/>
        <path class="cls-3" d="m89.21,8.77c-.22,0-.43-.1-.57-.28-1.12-1.5-2.35-2.45-5.02-2.57-.39-.02-.69-.35-.68-.74.02-.39.4-.7.74-.68,3.41.16,4.94,1.6,6.09,3.14.23.31.17.76-.14.99-.13.1-.28.14-.42.14Z"/>
        <path class="cls-3" d="m96.31,14.18c-.6,0-1.16-.16-1.65-.48-.92-.61-1.47-1.74-1.47-3.01,0-.78-.19-1.35-.54-1.61-.38-.28-.95-.19-1.36-.07-.37.11-.77-.1-.88-.48-.11-.38.1-.77.48-.88,1.31-.39,2.14-.06,2.61.29.73.54,1.12,1.49,1.12,2.75,0,.78.32,1.48.84,1.83.49.33,1.16.33,1.93,0,.36-.15.78.02.93.38.15.36-.02.78-.38.93-.56.23-1.1.35-1.61.35Z"/>
        <path class="cls-3" d="m78.92,11.4c-.31,0-.59-.2-.68-.51-.11-.38.1-.77.48-.88.94-.28,1.59-.87,2.22-1.44.95-.86,2.03-1.84,3.93-1.4.38.09.62.47.53.85-.09.38-.47.61-.85.53-1.13-.26-1.69.19-2.65,1.06-.71.65-1.52,1.38-2.77,1.75-.07.02-.14.03-.2.03Z"/>
        <path class="cls-3" d="m72.46,16.34c-.09,0-.18-.01-.27-.04-2.12-.71-3.4-2.3-3.43-4.25-.03-1.96,1.26-3.81,3.13-4.5.44-.16.93.06,1.09.5.16.44-.06.93-.5,1.09-1.21.45-2.04,1.63-2.02,2.88.02,1.22.85,2.19,2.27,2.66.45.15.69.63.54,1.08-.12.36-.45.58-.81.58Z"/>
        <path class="cls-3" d="m87.51,43.81s-.05,0-.07,0c-.47-.04-.81-.45-.77-.92.19-2.18.43-5.22.43-5.22l1.7.13s-.24,3.05-.43,5.23c-.04.44-.41.78-.85.78Z"/>
        <path class="cls-3" d="m79.59,131.31c-.63,0-1.25-.22-1.74-.64-.59-.5-.93-1.23-.94-2-.11-8.15.67-27.66,1.37-44.87l.11-2.65c.71-17.73.98-24.37,1.53-28.24.61-4.29,1.39-5.25,4.75-7.83,2.2-1.69,2.94-2.7,3.11-3.1-.04,0-.09-.02-.15-.03-.47-.06-.8-.48-.74-.95.06-.47.48-.8.95-.74,1.19.14,1.54.79,1.64,1.17.2.75.04,2.08-3.76,5-3.08,2.37-3.56,2.96-4.1,6.72-.54,3.78-.81,10.4-1.52,28.07l-.11,2.65c-.69,17.19-1.47,36.67-1.36,44.78,0,.29.13.55.34.73.22.18.49.27.77.22,5.38-.78,18.62-2.71,25.25-3.74.47-.07.82-.48.82-.97v-1.55c.04-4.05.06-6.08-.67-9.28-.19-.83-.45-1.64-.72-2.5-1.03-3.24-2.19-6.91-.3-13.28.13-.45.6-.71,1.06-.57.45.13.71.61.57,1.06-1.74,5.87-.7,9.13.29,12.29.28.89.55,1.74.76,2.64.77,3.39.76,5.49.73,9.67v1.55c-.02,1.33-.97,2.44-2.27,2.64-6.64,1.04-19.88,2.96-25.27,3.75-.13.02-.26.03-.38.03Zm8.32-89.28h0,0Z"/>
        <path class="cls-3" d="m88.04,55.53s-.08,0-.12,0c-.71-.04-1.34-.44-1.68-1.06-.27-.5-.51-.97-.78-1.5-.15-.29-.3-.6-.48-.94-.41-.79-.62-.87-.63-.87,0,0-.1,0-.35.18-.38.28-.91.19-1.19-.19-.28-.38-.19-.91.19-1.19.61-.44,1.18-.6,1.74-.46.86.2,1.38,1.04,1.75,1.75.18.34.33.65.48.95.25.5.49.96.75,1.44.09.16.24.18.3.19.08,0,.21,0,.3-.14,2.23-3.1,3.99-6.23,4.84-7.83.28-.52.23-1.17-.13-1.65l-1.79-2.39c-.34-.45-.84-.73-1.38-.77-.67-.05-1.39-.08-2.14-.08-.47,0-.85-.38-.85-.85s.38-.85.85-.85c.8,0,1.57.03,2.28.08,1.03.08,1.98.61,2.61,1.45l1.79,2.39c.75,1,.86,2.37.27,3.47-.87,1.63-2.68,4.84-4.96,8.02-.39.54-1,.85-1.66.85Z"/>
        <path class="cls-3" d="m41.25,130.97s-.06,0-.09,0c-.47-.05-.8-.47-.75-.94,1.45-13.03,14.98-50.08,21.53-65.47,3.24-7.61,6.87-14.32,8.82-17.93.54-1,.96-1.78,1.24-2.31,1.08-2.12,1.71-4.1,1.93-6.08.05-.47.46-.81.94-.75.47.05.8.47.75.94-.25,2.18-.94,4.35-2.11,6.65-.28.54-.71,1.34-1.26,2.35-1.94,3.58-5.54,10.24-8.75,17.78-6.51,15.31-19.97,52.12-21.41,64.99-.05.44-.42.76-.84.76Z"/>
        <path class="cls-3" d="m40.7,132.29c-.17,0-.34-.03-.5-.1-.51-.22-.82-.73-.77-1.28.87-10.36,2.53-17.38,4.14-24.16.99-4.17,2.01-8.48,2.87-13.59.26-1.57.52-3.17.79-4.78,2.1-12.84,4.28-26.11,7.68-34.58.17-.44.67-.65,1.11-.47.44.17.65.67.47,1.11-3.33,8.3-5.49,21.48-7.58,34.22-.26,1.61-.53,3.21-.79,4.78-.86,5.17-1.89,9.51-2.89,13.71-1.6,6.74-3.11,13.12-3.99,22.64,2.02-2.19,5.21-5.36,8.33-7.29.4-.25.92-.12,1.17.28.25.4.12.92-.28,1.17-3.56,2.2-7.35,6.27-8.81,7.92-.24.28-.59.43-.95.43Z"/>
        <path class="cls-3" d="m60.55,51.05c-.37,0-.74-.14-1.02-.41-.41-.39-.56-.97-.4-1.51.37-1.21,1.33-4.28,2.25-6.54.47-1.16,1.53-1.98,2.78-2.15,5.22-.7,8.69-1.37,10.31-1.99.44-.17.93.05,1.1.49s-.05.93-.49,1.1c-1.74.67-5.34,1.37-10.69,2.09-.64.09-1.19.51-1.43,1.1-.8,1.98-1.64,4.61-2.07,5.99,1.1-.4,2.59-.92,4.07-1.39.45-.15.93.1,1.07.55.14.45-.1.93-.55,1.07-1.64.53-3.31,1.12-4.41,1.52-.17.06-.34.09-.51.09Z"/>
        <path class="cls-3" d="m66.09,57.9s-.03,0-.05,0c-.47-.03-.83-.43-.8-.9.46-7.83-.44-11-1.27-12.28-.26-.39-.14-.92.25-1.18.39-.26.92-.14,1.18.25,1.41,2.18,1.93,6.65,1.55,13.31-.03.45-.4.8-.85.8Z"/>
        <path class="cls-3" d="m75.73,52.8c-1.02,0-2.02-.15-2.88-.48-1.68-.64-2.73-1.89-3.02-3.6-.08-.46.23-.9.7-.98.47-.08.9.23.98.7.19,1.12.83,1.87,1.94,2.3,2.35.89,6-.02,7.31-1.08.37-.29.9-.23,1.2.13.29.37.24.9-.13,1.2-1.32,1.06-3.77,1.81-6.1,1.81Z"/>
        <path class="cls-3" d="m48.77,85.08s-.03,0-.04,0c-4.68-.23-7.67-1.17-9.36-1.91-1.23-.55-1.83-1.93-1.4-3.21,2.55-7.48,6.24-18.97,7.96-24.62.87-2.85,2.88-5.28,5.52-6.65,2.37-1.23,5.93-2.91,9.49-3.9.45-.13.92.14,1.05.59.13.45-.14.92-.59,1.05-3.41.95-6.86,2.57-9.16,3.77-2.24,1.16-3.94,3.22-4.68,5.64-1.72,5.65-5.42,17.18-7.97,24.67-.15.44.05.92.48,1.11,1.55.69,4.33,1.55,8.75,1.77.47.02.83.42.81.89-.02.46-.4.81-.85.81Z"/>
        <path class="cls-3" d="m47.81,77.1s-.05,0-.08,0c-2.96-.37-5.6-1.28-7.29-1.98-.33-.14-.48-.51-.34-.83.13-.33.51-.48.83-.35,1.62.67,4.14,1.54,6.96,1.9.35.04.6.36.55.71-.04.32-.31.56-.63.56Z"/>
        <path class="cls-3" d="m21.65,122.38c-.92,0-1.94-.08-3.02-.24-1.49-.22-2.7-1.25-3.16-2.69-.15-.46-.35-.94-.56-1.46-.27-.65-.54-1.32-.75-2.03-.57-1.96-.78-3.09,1-5.28.42-.52.75-.91,1.05-1.26.79-.93,1.26-1.49,2.42-3.25,1.41-2.15,2.33-2.29,3.98-2.37.42-.02.9-.04,1.48-.12.86-.12,1.74-.12,2.6-.12,1.78,0,3.46,0,4.64-1.02,2.01-1.73,9.84-10.42,11.94-12.93,2.1-2.51,2.5-3.71,2.62-5.6.03-.47.43-.81.9-.79.47.03.83.43.79.9-.16,2.51-.83,3.99-3.01,6.58-2.19,2.61-10.03,11.3-12.13,13.12-1.65,1.42-3.73,1.43-5.74,1.43-.84,0-1.63,0-2.37.1-.65.09-1.19.11-1.62.13-1.29.06-1.64.08-2.64,1.6-1.21,1.85-1.74,2.47-2.54,3.42-.29.34-.62.72-1.03,1.23-1.3,1.6-1.16,2.09-.69,3.73.18.62.44,1.25.69,1.85.22.52.44,1.06.61,1.6.26.82.94,1.4,1.78,1.52,1.07.16,2.06.23,2.93.22,1.01-.01,1.95-.5,2.51-1.32.72-1.05,1.69-2.52,2.23-3.59,0-.07-.13-.2-.41-.26-.18-.04-.81-.13-1.39.42-.34.32-.88.31-1.2-.03-.32-.34-.31-.88.03-1.2,1.27-1.21,2.96-1.11,3.92-.41.76.56.99,1.44.59,2.24-.58,1.16-1.6,2.71-2.35,3.8-.87,1.27-2.33,2.03-3.9,2.05-.06,0-.11,0-.17,0Z"/>
        <path class="cls-3" d="m20.18,119.99s-.02,0-.03,0c-.99-.01-1.79-.44-2.19-1.16-.27-.48-.59-1.53.32-3.1.83-1.44,1.24-3.14,1.67-4.94l.24-1.01c.11-.46.58-.74,1.03-.62.46.11.74.57.62,1.03l-.24,1c-.46,1.93-.89,3.75-1.85,5.41-.41.71-.43,1.19-.31,1.41.15.26.57.29.74.3h0c.61,0,1.92-1.17,3.24-3.41.53-.91,1.47-1.47,2.5-1.51,1.55-.05,3.58-.65,4.48-3.21.16-.44.64-.68,1.08-.52.44.16.67.64.52,1.09-1.29,3.64-4.33,4.28-6.03,4.34-.45.02-.85.27-1.09.67-.94,1.59-2.79,4.25-4.71,4.25Z"/>
        <path class="cls-3" d="m19.86,124.67c-.77,0-1.5-.04-2.16-.15-2.06-.34-2.36-2.47-2.67-4.72-.12-.84-.25-1.8-.48-2.75-.11-.46.18-.92.63-1.02.46-.11.92.18,1.02.63.24,1.03.38,2.03.51,2.9.31,2.19.52,3.16,1.26,3.28,1.98.32,5.1-.05,6.78-.25,1.53-.18,2.55-1.87,3.42-3.66.22-.45.06-.77-.16-.91-.29-.19-.67-.08-1,.3-.31.36-.85.39-1.2.09-.36-.31-.4-.84-.09-1.2,1.03-1.2,2.39-1.15,3.22-.61,1,.66,1.31,1.93.75,3.08-.73,1.5-2.09,4.28-4.75,4.6-1.66.2-3.47.39-5.1.39Z"/>
        <path class="cls-3" d="m25.1,127.02c-.68,0-1.49-.03-2.45-.09-3.01-.19-3.94-1.5-4.58-2.71-.22-.42-.06-.93.36-1.15.42-.22.93-.06,1.15.36.41.77.87,1.65,3.18,1.8.88.06,3.57.23,4.39-.13.11-.05.74-.4,1.93-2.39.38-.63.35-1.17.16-1.42-.12-.16-.33-.21-.6-.13-.45.12-.92-.14-1.05-.59-.13-.45.14-.92.59-1.05.95-.27,1.86.01,2.41.74.66.87.64,2.17-.05,3.33-1.03,1.71-1.91,2.71-2.7,3.06-.57.25-1.41.37-2.74.37Z"/>
        <path class="cls-3" d="m26.42,129.55c-.16,0-.32,0-.5-.03-1.97-.21-4.98-1.63-5.4-3.46-.1-.46.18-.91.64-1.02.46-.11.91.18,1.02.64.15.67,2.05,1.94,3.92,2.14,1.07.12,1.26-.09,2.21-3.83l1.65.4c-.82,3.26-1.3,5.15-3.54,5.15Z"/>
        <path class="cls-3" d="m29.14,125.05c-.27,0-.54-.13-.7-.37-.26-.39-.16-.92.22-1.18l.25-.17c1.89-1.28,4.74-3.21,5.55-7.03.27-1.26.98-2.31,2.01-2.94.99-.61,2.35-1.46,3.64-2.31.39-.26.92-.15,1.18.24.26.39.15.92-.24,1.18-1.31.86-2.69,1.72-3.69,2.33-.63.39-1.07,1.04-1.24,1.85-.95,4.5-4.28,6.74-6.26,8.09l-.25.17c-.15.1-.31.15-.48.15Z"/>
        <path class="cls-3" d="m77.86,120.47s-.03,0-.04,0c-16.53-.8-26.11-4.29-26.51-4.44-.4-.15-.63-.57-.54-.98.21-.94.4-1.94.6-2.99.46-2.43.98-5.19,1.95-8.35.61-1.99,1.09-4.1,1.56-6.15.58-2.53,1.17-5.14,2.01-7.48.7-1.96.42-3.84.09-6.01-.3-2.01-.65-4.29-.12-6.85.09-.46.54-.76,1-.66.46.09.76.54.66,1-.46,2.26-.16,4.29.14,6.25.35,2.3.67,4.47-.17,6.84-.8,2.24-1.36,4.69-1.95,7.28-.47,2.08-.96,4.23-1.59,6.27-.95,3.07-1.46,5.78-1.91,8.16-.15.8-.29,1.56-.45,2.3,2.49.8,11.53,3.43,25.31,4.1.47.02.83.42.81.89-.02.45-.4.81-.85.81Z"/>
        <path class="cls-3" d="m96.92,89.67c-.3,0-.58-.01-.85-.04-1.2-.13-2.19-.95-2.53-2.11-.86-2.91-3.1-11.09-4.19-15.73-.11-.46.18-.92.63-1.02.46-.11.92.18,1.02.63,1.09,4.62,3.31,12.75,4.16,15.64.14.49.57.84,1.08.9.64.07,1.44.03,2.36-.11.46-.07.9.25.97.72.07.46-.25.9-.71.97-.7.1-1.35.16-1.94.16Z"/>
        <path class="cls-3" d="m94.82,88.94c-.18,0-.36-.06-.51-.17-.38-.28-.45-.81-.17-1.19,2.11-2.81,5.98-4.78,7.25-5.43.42-.21.93-.05,1.14.37.21.42.05.93-.37,1.14-1.18.6-4.79,2.44-6.66,4.93-.17.22-.42.34-.68.34Z"/>
        <path class="cls-3" d="m92.44,81.02c-.17,0-.33-.06-.46-.19-.24-.25-.24-.66.02-.9,2.45-2.37,5.2-3.98,8.15-4.79.34-.09.69.11.78.45.09.34-.11.69-.45.78-2.75.75-5.3,2.26-7.6,4.48-.12.12-.28.18-.44.18Z"/>
        <path class="cls-3" d="m88.7,64.28s-.02,0-.03,0c-.35-.02-.62-.31-.61-.66.13-3.13,2.13-5.96,3.16-7.01.25-.25.65-.25.9,0,.25.25.25.65,0,.9-.92.93-2.68,3.42-2.8,6.17-.02.34-.3.61-.64.61Z"/>
        <path class="cls-3" d="m76.67,140.01c-.53,0-1.04-.18-1.47-.52-.5-.4-.81-.98-.87-1.62-.42-4.64-.71-11.37-.79-18.46,0-.47.37-.85.84-.86h0c.47,0,.85.38.85.84.08,7.05.36,13.73.78,18.32.02.18.1.33.24.44.14.11.32.16.5.14l5.84-.78c.34-.05.59-.35.57-.69l-.45-6.88c-.03-.47.32-.87.79-.9.47-.03.87.32.9.79l.45,6.88c.08,1.23-.81,2.33-2.04,2.49l-5.84.78c-.11.01-.21.02-.32.02Z"/>
        <path class="cls-3" d="m74.92,135.15c-.33,0-.6-.25-.63-.58-.03-.35.22-.66.58-.69,3.49-.32,8.79-1.11,8.84-1.11.35-.05.67.19.72.54.05.35-.19.67-.54.72-.05,0-5.39.8-8.91,1.12-.02,0-.04,0-.06,0Z"/>
        <path class="cls-3" d="m110.19,49.09c-.25,0-.5-.11-.67-.33-3-3.83-6.72-8.79-8.67-11.4-.19-.25-.47-.42-.78-.46-.31-.05-.63.04-.88.23-.42.32-.58.88-.39,1.37l.29.76c.17.44-.05.93-.49,1.1-.43.17-.93-.05-1.1-.49l-.29-.76c-.46-1.19-.06-2.56.96-3.34.62-.47,1.37-.67,2.15-.56.76.11,1.44.51,1.9,1.13,1.95,2.61,5.66,7.55,8.65,11.37.29.37.22.9-.15,1.19-.16.12-.34.18-.52.18Z"/>
        <path class="cls-3" d="m112.78,51.91s-.04,0-.06,0c-.47-.03-.82-.43-.79-.9l.05-.76c.16-2.46.33-5.24.64-7.78.2-1.64-.02-2.11-.12-2.24-.03-.03-.09-.11-.37-.14-.19-.02-.87.78-1.1,2.7-.06.47-.49.8-.95.74-.47-.06-.8-.48-.74-.95.33-2.73,1.48-4.33,2.96-4.19.66.07,1.17.32,1.52.77.55.69.69,1.74.48,3.51-.3,2.49-.48,5.25-.63,7.68l-.05.76c-.03.45-.4.8-.85.8Z"/>
        <path class="cls-3" d="m110.01,101.73c-2.67,0-5.76-2.68-8.44-7.37-1.86-3.26-.77-11.05.19-17.94.39-2.8.76-5.44.89-7.46.04-.6-.13-1.2-.48-1.7-1.77-2.53-2.97-5.34-3.66-8.59-.1-.48-.29-.91-.57-1.28-.7-.95-1.95-2.66-2.85-3.93-.64-.91-.62-2.12.03-3.02.45-.61,1.14-.99,1.89-1.05.75-.06,1.49.21,2.02.74.46.45,1.02.99,1.66,1.57-1.45-2.48-3.22-5.71-4.52-8.8-.51-1.2-.15-2.62.87-3.44.59-.47,1.35-.67,2.09-.53.74.14,1.39.59,1.77,1.24,1.56,2.65,4.46,7.51,6.45,10.32.27.38.18.91-.2,1.19-.38.27-.92.18-1.19-.2-2.03-2.86-4.96-7.77-6.53-10.44-.13-.23-.35-.38-.61-.43-.25-.05-.52.02-.72.18-.43.35-.58.94-.37,1.45,2.04,4.81,5.23,10.01,6.51,12.02.26.41.19.95-.16,1.29-.36.34-.91.37-1.3.08-2.03-1.5-3.81-3.16-4.94-4.28-.18-.18-.43-.27-.69-.25-.26.02-.5.15-.65.36-.23.31-.23.73-.01,1.04.89,1.26,2.13,2.96,2.83,3.9.42.57.71,1.22.86,1.94.64,3.02,1.75,5.63,3.39,7.96.57.81.84,1.79.78,2.78-.13,2.08-.5,4.75-.9,7.59-.88,6.28-1.97,14.1-.4,16.86,2.46,4.31,5.45,6.9,7.42,6.47,2.69-.6,5.29-1.4,6.09-3.23.92-2.09,1.6-6.97,1.05-11.92-.12-1.06-.73-2.5-1.5-4.34-1.49-3.52-3.52-8.34-4.07-15.01-.49-5.88-.12-14.6.1-17.08.07-.82-.16-1.63-.66-2.28-3.01-3.9-5.15-7.62-6.16-9.5-.23-.43-.76-.59-1.21-.36-.44.23-.6.71-.41,1.11.65,1.39,1.53,2.99,1.54,3,.23.41.08.93-.33,1.16-.41.23-.93.08-1.16-.33-.04-.07-.92-1.66-1.59-3.1-.57-1.23-.08-2.68,1.12-3.32,1.3-.68,2.87-.21,3.54,1.04.98,1.83,3.07,5.46,6,9.26.76.99,1.12,2.22,1.01,3.47-.22,2.44-.58,11.02-.1,16.79.53,6.4,2.5,11.08,3.94,14.49.83,1.96,1.48,3.51,1.63,4.81.59,5.3-.15,10.44-1.18,12.79-1.26,2.86-5.18,3.74-7.28,4.2-.27.06-.55.09-.83.09Zm-7.19-46.56s0,0,0,0c0,0,0,0,0,0Z"/>
        <path class="cls-3" d="m115.38,99.82c-.34,0-.62-.27-.64-.61,0-.03-.11-2.71,0-6.59,0-.35.27-.62.66-.62.35.01.63.3.62.66-.11,3.83,0,6.47,0,6.5.01.35-.26.65-.61.66,0,0-.02,0-.03,0Z"/>
        <path class="cls-3" d="m108.87,101.53c-.11,0-.22-.02-.33-.07-7.12-2.98-9.35-9.06-10.82-13.08-.36-.97-.66-1.81-.98-2.44-.21-.42-.04-.93.38-1.14.42-.21.93-.04,1.14.38.36.72.68,1.6,1.06,2.62,1.46,3.97,3.45,9.4,9.88,12.1.43.18.64.68.46,1.11-.14.33-.45.52-.78.52Z"/>
        <path class="cls-3" d="m108.59,58.58c-.31,0-.58-.23-.63-.55-.07-.48,0-1.43.24-2.99.05-.35.37-.59.73-.54.35.05.59.38.54.73-.27,1.82-.27,2.42-.24,2.62.05.35-.19.67-.54.72-.03,0-.06,0-.09,0Z"/>
        <g>
          <circle class="cls-1" cx="102.69" cy="70.45" r="1.93"/>
          <path class="cls-3" d="m102.68,73.24c-1.53,0-2.78-1.25-2.78-2.78s1.25-2.78,2.78-2.78,2.78,1.25,2.78,2.78-1.25,2.78-2.78,2.78Zm0-3.86c-.6,0-1.08.48-1.08,1.08s.48,1.08,1.08,1.08,1.08-.48,1.08-1.08-.48-1.08-1.08-1.08Z"/>
        </g>
        <g>
          <circle class="cls-1" cx="107.78" cy="70.81" r="1.93"/>
          <path class="cls-3" d="m107.78,73.59c-1.53,0-2.78-1.25-2.78-2.78s1.25-2.78,2.78-2.78,2.78,1.25,2.78,2.78-1.25,2.78-2.78,2.78Zm0-3.86c-.6,0-1.08.48-1.08,1.08s.48,1.08,1.08,1.08,1.08-.48,1.08-1.08-.48-1.08-1.08-1.08Z"/>
        </g>
        <g>
          <circle class="cls-1" cx="112.12" cy="69.11" r="1.93"/>
          <path class="cls-3" d="m112.12,71.89c-1.53,0-2.78-1.25-2.78-2.78s1.25-2.78,2.78-2.78,2.78,1.25,2.78,2.78-1.25,2.78-2.78,2.78Zm0-3.86c-.6,0-1.08.48-1.08,1.08s.48,1.08,1.08,1.08,1.08-.48,1.08-1.08-.48-1.08-1.08-1.08Z"/>
        </g>
        <g>
          <circle class="cls-1" cx="114.44" cy="65.57" r="1.93"/>
          <path class="cls-3" d="m114.44,68.35c-1.53,0-2.78-1.25-2.78-2.78s1.25-2.78,2.78-2.78,2.78,1.25,2.78,2.78-1.25,2.78-2.78,2.78Zm0-3.86c-.6,0-1.08.48-1.08,1.08s.48,1.08,1.08,1.08,1.08-.48,1.08-1.08-.48-1.08-1.08-1.08Z"/>
        </g>
        <path class="cls-3" d="m99.28,48.24c-.11,0-.23-.02-.34-.07-.64-.28-1.17-.52-1.63-.73-1.56-.71-2.15-.98-3.11-.98-.47,0-.85-.38-.85-.85s.38-.85.85-.85c1.33,0,2.16.38,3.82,1.13.45.21.98.44,1.6.72.43.19.63.69.44,1.12-.14.32-.45.51-.78.51Z"/>
        <path class="cls-3" d="m86.85,19.66c-.25,0-.49-.15-.59-.4-.13-.33.03-.7.35-.83.9-.36,3.53-.86,4.43-.93.33-.02.66.24.68.59.03.35-.24.66-.59.68-.89.07-3.33.56-4.05.84-.08.03-.16.05-.24.05Z"/>
        <path class="cls-3" d="m80.05,19.22c-.14,0-.28-.04-.4-.14-1.06-.83-2.62-1.35-3.69-1.49-.35-.05-.6-.37-.55-.72.05-.35.37-.6.71-.55,1.16.15,2.98.7,4.32,1.76.28.22.32.62.11.9-.13.16-.31.24-.5.24Z"/>
        <path class="cls-3" d="m81.22,37.2c-2.13,0-4.45-2.33-4.63-6.72-.01-.34.25-.64.59-.66,5.08-.39,9.65.85,9.84.91.18.05.33.18.41.35.08.17.08.37,0,.54-1.48,3.22-3.99,5.52-6.11,5.59-.03,0-.07,0-.1,0Zm-3.32-6.15c.31,3.12,1.86,4.92,3.37,4.88,1.46-.05,3.38-1.79,4.65-4.16-1.75-.4-4.86-.87-8.02-.72Z"/>
        <path class="cls-3" d="m85.36,34.46c-.07,0-.13-.01-.2-.03-1.35-.44-4.97-.71-7.4-.68h0c-.35,0-.63-.28-.64-.63,0-.35.28-.64.63-.65,2.56-.04,6.32.26,7.81.74.33.11.52.47.41.8-.09.27-.34.44-.61.44Z"/>
        <path class="cls-3" d="m77.77,28.62c-.07,0-.15-.01-.22-.04-.29-.12-.43-.45-.31-.74,0,0,.04-.1.14-.31.13-.28.47-.41.75-.28.28.13.41.47.28.75-.08.18-.12.26-.12.27-.09.22-.3.35-.52.35Z"/>
        <path class="cls-3" d="m80.19,28.67s-.1,0-.15-.02c-.3-.08-.48-.39-.4-.69,0-.03.05-.18.12-.31.15-.27.48-.38.76-.24.28.14.39.49.25.76-.01.03-.02.07-.03.08-.07.25-.3.42-.55.42Z"/>
        <path class="cls-3" d="m85.64,29.27c-.26,0-.5-.18-.55-.44,0-.03-.02-.14-.03-.23-.04-.31.18-.63.49-.67.3-.03.59.14.63.45,0,0,0,.09,0,.09l.02.14c.05.3-.15.6-.46.65-.04,0-.07,0-.11,0Z"/>
        <path class="cls-3" d="m87.59,29.76c-.27,0-.5-.19-.56-.46l-.05-.24c-.06-.31.14-.6.45-.66.3-.06.6.14.66.45l.05.24c.06.31-.14.6-.45.66-.04,0-.07.01-.11.01Z"/>
        <path class="cls-3" d="m72.13,102.16c-.19,0-.38-.09-.5-.25-2.49-3.24-7.66-11.84-10.05-16.73-.15-.32-.02-.7.29-.85.31-.15.7-.02.85.29,2.32,4.74,7.5,13.39,9.91,16.51.21.28.16.68-.12.89-.12.09-.25.13-.39.13Z"/>
        <circle class="cls-3" cx="73.04" cy="104.88" r=".63"/>
        <path class="cls-1" d="m65.38,139.92c-.06,0-.12,0-.17-.03-.3-.1-.46-.42-.37-.71.09-.28.24-.73.42-1.27.43-1.28,1.03-3.04,1.33-4.12.26-.92-.09-1.51-.61-2.4-.19-.32-.38-.65-.56-1.03-.54-1.12-.09-2.47.43-4.03.28-.84.58-1.72.73-2.61.05-.31.35-.51.65-.46.31.05.52.35.46.65-.17.98-.49,1.94-.77,2.78-.44,1.33-.83,2.48-.49,3.18.17.35.35.66.52.95.57.97,1.11,1.89.72,3.27-.31,1.1-.91,2.88-1.34,4.17-.18.53-.33.97-.42,1.25-.08.24-.3.39-.54.39Z"/>
        <path class="cls-1" d="m67.87,155.52c-.54-3.07-.97-4.55-2.77-5.87-.29-.21-.68-.15-.89.14-.21.28-.15.68.14.89,1.37,1.01,1.73,2.04,2.27,5.07.22,1.24.48,3.22.75,5.31.35,2.65.73,5.53,1.13,7.77l.89-1.57.16-.23c-.37-2.16-.58-3.62-.92-6.13-.28-2.11-.54-4.11-.76-5.37Z"/>
      </g>
    </g>
  </g>
  <g id="_アイコン" data-name="アイコン">
    <g>
      <path class="cls-5" d="m45.39,29.91l-7.9-2.38c-1.17-.35-2.43-.11-3.39.65l-6.47,5.12c-1.16.92-.81,2.77.61,3.19l4.09,1.23-.11.02.87,4.57c.2,1.06,1.06,1.87,2.13,2.02.87.12,2.07.12,3.69-.19s2.73-.75,3.5-1.18c.94-.53,1.44-1.6,1.24-2.66l-.87-4.57-.11.02,3.35-2.65c1.16-.92.81-2.77-.61-3.19Z"/>
      <path class="cls-2" d="m37.21,39.87c-.44,0-.89-.06-1.32-.19l-7.9-2.38c-.96-.29-1.67-1.08-1.86-2.07-.19-.99.18-1.98.97-2.61l6.48-5.12c1.17-.93,2.73-1.22,4.16-.79l7.9,2.38c.96.29,1.67,1.08,1.86,2.07.19.99-.18,1.98-.97,2.61l-6.48,5.12c-.82.65-1.82.99-2.84.99Zm-.8-11.65c-.64,0-1.27.21-1.79.62l-6.48,5.12c-.29.23-.43.59-.36.95.07.37.32.65.68.76h0l7.9,2.38c.9.27,1.88.08,2.61-.5l6.48-5.12c.29-.23.43-.59.36-.95-.07-.37-.32-.65-.68-.76l-7.9-2.38c-.27-.08-.55-.12-.83-.12Z"/>
      <path class="cls-2" d="m36.38,45.24c-.45,0-.88-.03-1.28-.08-1.43-.19-2.58-1.28-2.85-2.7l-.87-4.57c-.09-.46.21-.91.68-.99.46-.09.91.21.99.68l.87,4.56c.13.7.7,1.24,1.41,1.34.96.13,2.11.07,3.41-.18,1.3-.25,2.39-.61,3.24-1.09.62-.35.95-1.06.82-1.76l-.87-4.57c-.09-.46.21-.91.68-.99.46-.09.91.21.99.68l.87,4.57c.27,1.42-.39,2.85-1.66,3.56-1.01.56-2.27.99-3.75,1.28-.96.18-1.86.27-2.68.27Z"/>
      <path class="cls-2" d="m46.92,38.64c-.34,0-.64-.24-.7-.58l-.92-4.83c-.07-.39.18-.76.57-.84.38-.07.76.18.84.57l.92,4.83c.07.39-.18.76-.57.84-.04,0-.09.01-.13.01Z"/>
      <path class="cls-2" d="m46.91,41.88c-.17,0-.34-.06-.47-.18-.17-.15-.25-.36-.24-.58l.16-2.45c.02-.33.26-.6.58-.66.32-.06.64.1.78.4l1.04,2.22c.09.2.09.43,0,.63-.1.2-.29.34-.5.38l-1.2.23s-.09.01-.13.01Z"/>
      <path class="cls-2" d="m46.92,39.44c-.72,0-1.36-.51-1.5-1.24-.08-.4,0-.8.24-1.14.23-.34.57-.56.97-.64.4-.08.8,0,1.14.24.34.23.56.57.64.97.16.82-.39,1.62-1.21,1.78-.1.02-.19.03-.29.03Zm.03-1.6c-.1,0-.13.05-.12.09,0,.05.07.08.11.07.05,0,.08-.06.07-.11,0-.02-.02-.04-.04-.06,0,0-.01,0-.02,0Z"/>
    </g>
  </g>
</svg>