<?xml version="1.0" encoding="UTF-8"?>
<svg id="Layer_2" data-name="Layer 2" xmlns="http://www.w3.org/2000/svg" viewBox="0 0 126.71 219.21">
  <defs>
    <style>
      .cls-1 {
        fill: #fff;
      }

      .cls-2 {
        fill: #565656;
      }

      .cls-3 {
        fill: #363636;
      }

      .cls-4 {
        fill: #33b0da;
      }

      .cls-5 {
        fill: #ffc0c0;
      }

      .cls-6 {
        fill: #ffdfbc;
      }

      .cls-7 {
        fill: #ffd964;
      }
    </style>
  </defs>
  <g id="_背景ドット" data-name="背景ドット">
    <g>
      <circle class="cls-1" cx="51.73" cy="70.89" r=".59"/>
      <path class="cls-1" d="m53.14,67.42c0,.33.27.59.59.59.08,0,.15-.02.22-.04-.02-.37-.05-.75-.09-1.12-.04,0-.08-.03-.13-.03-.33,0-.59.27-.59.59Z"/>
      <path class="cls-1" d="m51.73,77.25c-.33,0-.59.27-.59.59s.27.59.59.59.59-.27.59-.59-.27-.59-.59-.59Z"/>
      <path class="cls-1" d="m53.14,74.37c0,.25.16.46.38.55.07-.38.14-.76.2-1.14-.32,0-.58.27-.58.59Z"/>
      <path class="cls-1" d="m47.71,56.39c-.33,0-.59.27-.59.59s.27.59.59.59.59-.27.59-.59-.27-.59-.59-.59Z"/>
      <path class="cls-1" d="m47.71,63.35c-.33,0-.59.27-.59.59s.27.59.59.59.59-.27.59-.59-.27-.59-.59-.59Z"/>
      <circle class="cls-1" cx="49.72" cy="60.46" r=".59"/>
      <path class="cls-1" d="m47.71,70.3c-.33,0-.59.27-.59.59s.27.59.59.59.59-.27.59-.59-.27-.59-.59-.59Z"/>
      <circle class="cls-1" cx="49.72" cy="67.42" r=".59"/>
      <circle class="cls-1" cx="51.73" cy="63.94" r=".59"/>
      <path class="cls-1" d="m47.71,77.25c-.33,0-.59.27-.59.59s.27.59.59.59.59-.27.59-.59-.27-.59-.59-.59Z"/>
      <circle class="cls-1" cx="49.72" cy="74.37" r=".59"/>
      <path class="cls-1" d="m47.71,84.2c-.33,0-.59.27-.59.59s.27.59.59.59.59-.27.59-.59-.27-.59-.59-.59Z"/>
      <path class="cls-1" d="m50.31,81.32c0-.33-.27-.59-.59-.59s-.59.27-.59.59.27.59.59.59.59-.27.59-.59Z"/>
      <path class="cls-1" d="m43.7,49.44c-.33,0-.59.27-.59.59s.27.59.59.59.59-.27.59-.59-.27-.59-.59-.59Z"/>
      <circle class="cls-1" cx="43.7" cy="56.99" r=".59"/>
      <path class="cls-1" d="m45.11,53.51c0,.33.27.59.59.59s.59-.27.59-.59-.27-.59-.59-.59-.59.27-.59.59Z"/>
      <path class="cls-1" d="m46.3,60.46c0-.33-.27-.59-.59-.59s-.59.27-.59.59.27.59.59.59.59-.27.59-.59Z"/>
      <path class="cls-1" d="m45.71,68.01c.33,0,.59-.27.59-.59s-.27-.59-.59-.59-.59.27-.59.59.27.59.59.59Z"/>
      <path class="cls-1" d="m45.11,74.37c0,.33.27.59.59.59s.59-.27.59-.59-.27-.59-.59-.59-.59.27-.59.59Z"/>
      <path class="cls-1" d="m45.11,81.32c0,.33.27.59.59.59s.59-.27.59-.59-.27-.59-.59-.59-.59.27-.59.59Z"/>
      <path class="cls-1" d="m45.11,88.27c0,.33.27.59.59.59s.59-.27.59-.59-.27-.59-.59-.59-.59.27-.59.59Z"/>
      <path class="cls-1" d="m39.69,49.44c-.33,0-.59.27-.59.59s.27.59.59.59.59-.27.59-.59-.27-.59-.59-.59Z"/>
      <path class="cls-1" d="m41.69,47.15s.05-.01.08-.02c-.21-.14-.42-.28-.64-.41.07.24.29.43.56.43Z"/>
      <path class="cls-1" d="m42.29,53.51c0-.33-.27-.59-.59-.59s-.59.27-.59.59.27.59.59.59.59-.27.59-.59Z"/>
      <path class="cls-1" d="m39.69,63.35c-.33,0-.59.27-.59.59s.27.59.59.59.59-.27.59-.59-.27-.59-.59-.59Z"/>
      <path class="cls-1" d="m41.69,61.06c.33,0,.59-.27.59-.59s-.27-.59-.59-.59-.59.27-.59.59.27.59.59.59Z"/>
      <path class="cls-1" d="m39.69,70.3c-.33,0-.59.27-.59.59s.27.59.59.59.59-.27.59-.59-.27-.59-.59-.59Z"/>
      <path class="cls-1" d="m41.1,67.42c0,.33.27.59.59.59s.59-.27.59-.59-.27-.59-.59-.59-.59.27-.59.59Z"/>
      <circle class="cls-1" cx="43.7" cy="63.94" r=".59"/>
      <path class="cls-1" d="m39.69,77.25c-.33,0-.59.27-.59.59s.27.59.59.59.59-.27.59-.59-.27-.59-.59-.59Z"/>
      <path class="cls-1" d="m41.1,74.37c0,.33.27.59.59.59s.59-.27.59-.59-.27-.59-.59-.59-.59.27-.59.59Z"/>
      <circle class="cls-1" cx="43.7" cy="70.89" r=".59"/>
      <path class="cls-1" d="m39.69,84.2c-.33,0-.59.27-.59.59s.27.59.59.59.59-.27.59-.59-.27-.59-.59-.59Z"/>
      <path class="cls-1" d="m41.1,81.32c0,.33.27.59.59.59s.59-.27.59-.59-.27-.59-.59-.59-.59.27-.59.59Z"/>
      <path class="cls-1" d="m43.7,78.44c.33,0,.59-.27.59-.59s-.27-.59-.59-.59-.59.27-.59.59.27.59.59.59Z"/>
      <path class="cls-1" d="m39.69,91.15c-.33,0-.59.27-.59.59s.27.59.59.59.59-.27.59-.59-.27-.59-.59-.59Z"/>
      <path class="cls-1" d="m41.69,87.68c-.33,0-.59.27-.59.59s.27.59.59.59.59-.27.59-.59-.27-.59-.59-.59Z"/>
      <circle class="cls-1" cx="43.7" cy="84.8" r=".59"/>
      <circle class="cls-1" cx="37.68" cy="46.56" r=".59"/>
      <circle class="cls-1" cx="35.67" cy="56.99" r=".59"/>
      <path class="cls-1" d="m37.68,54.11c.33,0,.59-.27.59-.59s-.27-.59-.59-.59-.59.27-.59.59.27.59.59.59Z"/>
      <circle class="cls-1" cx="35.67" cy="63.94" r=".59"/>
      <circle class="cls-1" cx="37.68" cy="60.46" r=".59"/>
      <path class="cls-1" d="m39.69,57.58c.33,0,.59-.27.59-.59s-.27-.59-.59-.59-.59.27-.59.59.27.59.59.59Z"/>
      <circle class="cls-1" cx="35.67" cy="70.89" r=".59"/>
      <circle class="cls-1" cx="37.68" cy="67.42" r=".59"/>
      <path class="cls-1" d="m35.67,77.25c-.33,0-.59.27-.59.59s.27.59.59.59.59-.27.59-.59-.27-.59-.59-.59Z"/>
      <circle class="cls-1" cx="37.68" cy="74.37" r=".59"/>
      <circle class="cls-1" cx="35.67" cy="84.8" r=".59"/>
      <path class="cls-1" d="m37.09,81.32c0,.33.27.59.59.59s.59-.27.59-.59-.27-.59-.59-.59-.59.27-.59.59Z"/>
      <circle class="cls-1" cx="35.67" cy="91.75" r=".59"/>
      <circle class="cls-1" cx="37.68" cy="88.27" r=".59"/>
      <path class="cls-1" d="m37.46,94.67s-.02,0-.02,0c0,0,.02,0,.02,0Z"/>
      <path class="cls-1" d="m31.66,49.44c-.33,0-.59.27-.59.59s.27.59.59.59.59-.27.59-.59-.27-.59-.59-.59Z"/>
      <path class="cls-1" d="m33.67,47.15c.33,0,.59-.27.59-.59s-.27-.59-.59-.59-.59.27-.59.59.27.59.59.59Z"/>
      <path class="cls-1" d="m31.66,56.39c-.33,0-.59.27-.59.59s.27.59.59.59.59-.27.59-.59-.27-.59-.59-.59Z"/>
      <path class="cls-1" d="m34.26,53.51c0-.33-.27-.59-.59-.59s-.59.27-.59.59.27.59.59.59.59-.27.59-.59Z"/>
      <path class="cls-1" d="m35.67,50.63c.33,0,.59-.27.59-.59s-.27-.59-.59-.59-.59.27-.59.59.27.59.59.59Z"/>
      <path class="cls-1" d="m31.66,63.35c-.33,0-.59.27-.59.59s.27.59.59.59.59-.27.59-.59-.27-.59-.59-.59Z"/>
      <path class="cls-1" d="m34.26,60.46c0-.33-.27-.59-.59-.59s-.59.27-.59.59.27.59.59.59.59-.27.59-.59Z"/>
      <path class="cls-1" d="m31.66,70.3c-.33,0-.59.27-.59.59s.27.59.59.59.59-.27.59-.59-.27-.59-.59-.59Z"/>
      <path class="cls-1" d="m34.26,67.42c0-.33-.27-.59-.59-.59s-.59.27-.59.59.27.59.59.59.59-.27.59-.59Z"/>
      <path class="cls-1" d="m31.66,77.25c-.33,0-.59.27-.59.59s.27.59.59.59.59-.27.59-.59-.27-.59-.59-.59Z"/>
      <path class="cls-1" d="m33.07,74.37c0,.33.27.59.59.59s.59-.27.59-.59-.27-.59-.59-.59-.59.27-.59.59Z"/>
      <path class="cls-1" d="m31.66,84.2c-.33,0-.59.27-.59.59s.27.59.59.59.59-.27.59-.59-.27-.59-.59-.59Z"/>
      <path class="cls-1" d="m33.07,81.32c0,.33.27.59.59.59s.59-.27.59-.59-.27-.59-.59-.59-.59.27-.59.59Z"/>
      <path class="cls-1" d="m31.66,91.15c-.33,0-.59.27-.59.59s.27.59.59.59.59-.27.59-.59-.27-.59-.59-.59Z"/>
      <path class="cls-1" d="m33.07,88.27c0,.33.27.59.59.59s.59-.27.59-.59-.27-.59-.59-.59-.59.27-.59.59Z"/>
      <path class="cls-1" d="m33.07,95.22c0,.33.27.59.59.59s.59-.27.59-.59-.27-.59-.59-.59-.59.27-.59.59Z"/>
      <path class="cls-1" d="m27.65,49.44c-.33,0-.59.27-.59.59s.27.59.59.59.59-.27.59-.59-.27-.59-.59-.59Z"/>
      <circle class="cls-1" cx="29.65" cy="46.56" r=".59"/>
      <path class="cls-1" d="m31.07,43.09c0,.33.27.59.59.59.27,0,.49-.18.56-.43-.38-.07-.76-.14-1.15-.2,0,.01,0,.03,0,.04Z"/>
      <path class="cls-1" d="m27.65,56.39c-.33,0-.59.27-.59.59s.27.59.59.59.59-.27.59-.59-.27-.59-.59-.59Z"/>
      <path class="cls-1" d="m30.25,53.51c0-.33-.27-.59-.59-.59s-.59.27-.59.59.27.59.59.59.59-.27.59-.59Z"/>
      <path class="cls-1" d="m27.65,63.35c-.33,0-.59.27-.59.59s.27.59.59.59.59-.27.59-.59-.27-.59-.59-.59Z"/>
      <circle class="cls-1" cx="29.65" cy="60.46" r=".59"/>
      <path class="cls-1" d="m27.65,70.3c-.33,0-.59.27-.59.59s.27.59.59.59.59-.27.59-.59-.27-.59-.59-.59Z"/>
      <circle class="cls-1" cx="29.65" cy="67.42" r=".59"/>
      <path class="cls-1" d="m27.65,77.25c-.33,0-.59.27-.59.59s.27.59.59.59.59-.27.59-.59-.27-.59-.59-.59Z"/>
      <circle class="cls-1" cx="29.65" cy="74.37" r=".59"/>
      <path class="cls-1" d="m27.65,84.2c-.33,0-.59.27-.59.59s.27.59.59.59.59-.27.59-.59-.27-.59-.59-.59Z"/>
      <path class="cls-1" d="m29.06,81.32c0,.33.27.59.59.59s.59-.27.59-.59-.27-.59-.59-.59-.59.27-.59.59Z"/>
      <path class="cls-1" d="m27.65,91.15c-.33,0-.59.27-.59.59s.27.59.59.59.59-.27.59-.59-.27-.59-.59-.59Z"/>
      <circle class="cls-1" cx="29.65" cy="88.27" r=".59"/>
      <circle class="cls-1" cx="29.65" cy="95.22" r=".59"/>
      <path class="cls-1" d="m23.63,49.44c-.33,0-.59.27-.59.59s.27.59.59.59.59-.27.59-.59-.27-.59-.59-.59Z"/>
      <path class="cls-1" d="m25.64,47.15c.33,0,.59-.27.59-.59s-.27-.59-.59-.59-.59.27-.59.59.27.59.59.59Z"/>
      <path class="cls-1" d="m27.05,43.09c0,.33.27.59.59.59s.59-.27.59-.59c0-.12-.04-.23-.11-.32-.32-.01-.64-.02-.96-.02-.07.1-.12.21-.12.34Z"/>
      <circle class="cls-1" cx="23.63" cy="56.99" r=".59"/>
      <path class="cls-1" d="m26.23,53.51c0-.33-.27-.59-.59-.59s-.59.27-.59.59.27.59.59.59.59-.27.59-.59Z"/>
      <circle class="cls-1" cx="23.63" cy="63.94" r=".59"/>
      <path class="cls-1" d="m26.23,60.46c0-.33-.27-.59-.59-.59s-.59.27-.59.59.27.59.59.59.59-.27.59-.59Z"/>
      <circle class="cls-1" cx="23.63" cy="70.89" r=".59"/>
      <path class="cls-1" d="m26.23,67.42c0-.33-.27-.59-.59-.59s-.59.27-.59.59.27.59.59.59.59-.27.59-.59Z"/>
      <path class="cls-1" d="m23.63,77.25c-.33,0-.59.27-.59.59s.27.59.59.59.59-.27.59-.59-.27-.59-.59-.59Z"/>
      <path class="cls-1" d="m25.05,74.37c0,.33.27.59.59.59s.59-.27.59-.59-.27-.59-.59-.59-.59.27-.59.59Z"/>
      <circle class="cls-1" cx="23.63" cy="84.8" r=".59"/>
      <path class="cls-1" d="m25.05,81.32c0,.33.27.59.59.59s.59-.27.59-.59-.27-.59-.59-.59-.59.27-.59.59Z"/>
      <circle class="cls-1" cx="23.63" cy="91.75" r=".59"/>
      <path class="cls-1" d="m25.05,88.27c0,.33.27.59.59.59s.59-.27.59-.59-.27-.59-.59-.59-.59.27-.59.59Z"/>
      <path class="cls-1" d="m25.05,95.22c0,.33.27.59.59.59s.59-.27.59-.59-.27-.59-.59-.59-.59.27-.59.59Z"/>
      <path class="cls-1" d="m19.62,49.44c-.33,0-.59.27-.59.59s.27.59.59.59.59-.27.59-.59-.27-.59-.59-.59Z"/>
      <circle class="cls-1" cx="21.63" cy="46.56" r=".59"/>
      <path class="cls-1" d="m23.04,43.09c0,.33.27.59.59.59s.59-.27.59-.59c0-.07-.02-.14-.04-.2-.38.04-.76.09-1.14.14,0,.02-.01.04-.01.06Z"/>
      <path class="cls-1" d="m19.62,56.39c-.33,0-.59.27-.59.59s.27.59.59.59.59-.27.59-.59-.27-.59-.59-.59Z"/>
      <path class="cls-1" d="m22.22,53.51c0-.33-.27-.59-.59-.59s-.59.27-.59.59.27.59.59.59.59-.27.59-.59Z"/>
      <path class="cls-1" d="m19.62,63.35c-.33,0-.59.27-.59.59s.27.59.59.59.59-.27.59-.59-.27-.59-.59-.59Z"/>
      <circle class="cls-1" cx="21.63" cy="60.46" r=".59"/>
      <path class="cls-1" d="m19.62,70.3c-.33,0-.59.27-.59.59s.27.59.59.59.59-.27.59-.59-.27-.59-.59-.59Z"/>
      <circle class="cls-1" cx="21.63" cy="67.42" r=".59"/>
      <path class="cls-1" d="m19.62,77.25c-.33,0-.59.27-.59.59s.27.59.59.59.59-.27.59-.59-.27-.59-.59-.59Z"/>
      <circle class="cls-1" cx="21.63" cy="74.37" r=".59"/>
      <path class="cls-1" d="m19.62,84.2c-.33,0-.59.27-.59.59s.27.59.59.59.59-.27.59-.59-.27-.59-.59-.59Z"/>
      <path class="cls-1" d="m21.03,81.32c0,.33.27.59.59.59s.59-.27.59-.59-.27-.59-.59-.59-.59.27-.59.59Z"/>
      <path class="cls-1" d="m19.62,91.15c-.33,0-.59.27-.59.59s.27.59.59.59.59-.27.59-.59-.27-.59-.59-.59Z"/>
      <circle class="cls-1" cx="21.63" cy="88.27" r=".59"/>
      <circle class="cls-1" cx="21.63" cy="95.22" r=".59"/>
      <path class="cls-1" d="m15.6,49.44c-.33,0-.59.27-.59.59s.27.59.59.59.59-.27.59-.59-.27-.59-.59-.59Z"/>
      <path class="cls-1" d="m18.21,46.56c0-.33-.27-.59-.59-.59s-.59.27-.59.59.27.59.59.59.59-.27.59-.59Z"/>
      <circle class="cls-1" cx="15.6" cy="56.99" r=".59"/>
      <path class="cls-1" d="m17.61,52.92c-.33,0-.59.27-.59.59s.27.59.59.59.59-.27.59-.59-.27-.59-.59-.59Z"/>
      <circle class="cls-1" cx="15.6" cy="63.94" r=".59"/>
      <path class="cls-1" d="m18.21,60.46c0-.33-.27-.59-.59-.59s-.59.27-.59.59.27.59.59.59.59-.27.59-.59Z"/>
      <circle class="cls-1" cx="15.6" cy="70.89" r=".59"/>
      <path class="cls-1" d="m18.21,67.42c0-.33-.27-.59-.59-.59s-.59.27-.59.59.27.59.59.59.59-.27.59-.59Z"/>
      <path class="cls-1" d="m15.6,77.25c-.33,0-.59.27-.59.59s.27.59.59.59.59-.27.59-.59-.27-.59-.59-.59Z"/>
      <path class="cls-1" d="m17.02,74.37c0,.33.27.59.59.59s.59-.27.59-.59-.27-.59-.59-.59-.59.27-.59.59Z"/>
      <circle class="cls-1" cx="15.6" cy="84.8" r=".59"/>
      <path class="cls-1" d="m17.02,81.32c0,.33.27.59.59.59s.59-.27.59-.59-.27-.59-.59-.59-.59.27-.59.59Z"/>
      <circle class="cls-1" cx="15.6" cy="91.75" r=".59"/>
      <path class="cls-1" d="m17.02,88.27c0,.33.27.59.59.59s.59-.27.59-.59-.27-.59-.59-.59-.59.27-.59.59Z"/>
      <path class="cls-1" d="m17.61,94.63c-.21,0-.38.11-.49.28.35.14.71.27,1.07.39,0-.03.02-.05.02-.08,0-.33-.27-.59-.59-.59Z"/>
      <path class="cls-1" d="m11.59,49.44c-.33,0-.59.27-.59.59s.27.59.59.59.59-.27.59-.59-.27-.59-.59-.59Z"/>
      <path class="cls-1" d="m13.6,47.15c.33,0,.59-.27.59-.59,0-.19-.1-.36-.24-.46-.31.17-.63.35-.93.54.04.29.28.52.58.52Z"/>
      <path class="cls-1" d="m14.19,53.51c0-.33-.27-.59-.59-.59s-.59.27-.59.59.27.59.59.59.59-.27.59-.59Z"/>
      <path class="cls-1" d="m11.59,63.35c-.33,0-.59.27-.59.59s.27.59.59.59.59-.27.59-.59-.27-.59-.59-.59Z"/>
      <path class="cls-1" d="m13.6,61.06c.33,0,.59-.27.59-.59s-.27-.59-.59-.59-.59.27-.59.59.27.59.59.59Z"/>
      <path class="cls-1" d="m14.19,67.42c0-.33-.27-.59-.59-.59s-.59.27-.59.59.27.59.59.59.59-.27.59-.59Z"/>
      <path class="cls-1" d="m13,74.37c0,.33.27.59.59.59s.59-.27.59-.59-.27-.59-.59-.59-.59.27-.59.59Z"/>
      <path class="cls-1" d="m13,81.32c0,.33.27.59.59.59s.59-.27.59-.59-.27-.59-.59-.59-.59.27-.59.59Z"/>
      <path class="cls-1" d="m13,88.27c0,.33.27.59.59.59s.59-.27.59-.59-.27-.59-.59-.59-.59.27-.59.59Z"/>
      <path class="cls-1" d="m12.18,91.75c0-.33-.27-.59-.59-.59-.26,0-.47.17-.55.4.3.22.61.44.92.65.13-.11.23-.27.23-.46Z"/>
      <circle class="cls-1" cx="7.58" cy="56.99" r=".59"/>
      <path class="cls-1" d="m9.58,54.11c.33,0,.59-.27.59-.59s-.27-.59-.59-.59-.59.27-.59.59.27.59.59.59Z"/>
      <circle class="cls-1" cx="7.58" cy="63.94" r=".59"/>
      <circle class="cls-1" cx="9.58" cy="60.46" r=".59"/>
      <path class="cls-1" d="m11.59,57.58c.33,0,.59-.27.59-.59s-.27-.59-.59-.59-.59.27-.59.59.27.59.59.59Z"/>
      <circle class="cls-1" cx="9.58" cy="67.42" r=".59"/>
      <circle class="cls-1" cx="9.58" cy="74.37" r=".59"/>
      <path class="cls-1" d="m11.59,71.49c.33,0,.59-.27.59-.59s-.27-.59-.59-.59-.59.27-.59.59.27.59.59.59Z"/>
      <circle class="cls-1" cx="7.58" cy="84.8" r=".59"/>
      <path class="cls-1" d="m8.99,81.32c0,.33.27.59.59.59s.59-.27.59-.59-.27-.59-.59-.59-.59.27-.59.59Z"/>
      <path class="cls-1" d="m11.59,78.44c.33,0,.59-.27.59-.59s-.27-.59-.59-.59-.59.27-.59.59.27.59.59.59Z"/>
      <circle class="cls-1" cx="9.58" cy="88.27" r=".59"/>
      <path class="cls-1" d="m11.59,85.39c.33,0,.59-.27.59-.59s-.27-.59-.59-.59-.59.27-.59.59.27.59.59.59Z"/>
      <path class="cls-1" d="m5.57,54.11c.33,0,.59-.27.59-.59,0-.24-.14-.43-.34-.53-.24.3-.47.61-.7.92.11.12.26.21.44.21Z"/>
      <path class="cls-1" d="m4.98,60.46c0,.33.27.59.59.59s.59-.27.59-.59-.27-.59-.59-.59-.59.27-.59.59Z"/>
      <path class="cls-1" d="m5.57,68.01c.33,0,.59-.27.59-.59s-.27-.59-.59-.59-.59.27-.59.59.27.59.59.59Z"/>
      <path class="cls-1" d="m3.56,77.25c-.33,0-.59.27-.59.59s.27.59.59.59.59-.27.59-.59-.27-.59-.59-.59Z"/>
      <path class="cls-1" d="m4.98,74.37c0,.33.27.59.59.59s.59-.27.59-.59-.27-.59-.59-.59-.59.27-.59.59Z"/>
      <circle class="cls-1" cx="7.58" cy="70.89" r=".59"/>
      <path class="cls-1" d="m5.57,81.91c.33,0,.59-.27.59-.59s-.27-.59-.59-.59-.59.27-.59.59.27.59.59.59Z"/>
      <path class="cls-1" d="m7.58,78.44c.33,0,.59-.27.59-.59s-.27-.59-.59-.59-.59.27-.59.59.27.59.59.59Z"/>
      <path class="cls-1" d="m1.56,61.06c.33,0,.59-.27.59-.59,0-.23-.13-.42-.32-.52-.14.36-.27.72-.4,1.09.04,0,.08.03.13.03Z"/>
      <path class="cls-1" d="m3.56,57.58c.33,0,.59-.27.59-.59s-.27-.59-.59-.59c-.02,0-.03,0-.05.01-.16.28-.32.57-.47.86.1.19.29.32.52.32Z"/>
      <circle class="cls-1" cx="1.56" cy="67.42" r=".59"/>
      <path class="cls-1" d="m3.56,64.53c.33,0,.59-.27.59-.59s-.27-.59-.59-.59-.59.27-.59.59.27.59.59.59Z"/>
      <circle class="cls-1" cx="1.56" cy="74.37" r=".59"/>
      <path class="cls-1" d="m3.56,71.49c.33,0,.59-.27.59-.59s-.27-.59-.59-.59-.59.27-.59.59.27.59.59.59Z"/>
      <path class="cls-1" d="m.14,70.89c0-.14-.06-.27-.14-.38,0,.24,0,.48.02.72.07-.1.12-.21.12-.34Z"/>
    </g>
  </g>
  <g id="_人物" data-name="人物">
    <g>
      <g>
        <path class="cls-6" d="m69.82,49.97l.04.3c3-2.1,4.43-5,3.88-8.14-.55-3.14-3.08-3.69-5.3-2.48h0c-.11-.6-.21-1.14-.3-1.58-.16-7.66-5.2-13.01-16.75-9.2-11.55,3.81-6.44,13.4-6.44,13.4.3,1.36.65,2.75,1.01,4.14l-.05-.16c-2.89-.09-5.2,1.84-4.48,5.14.72,3.3,4.49,5.38,7.67,4.97l-.02-.06c1.51,2.97,4.22,5.06,7.32,5.84l-.05.04,1.26,8.49c3.53,2.96,11.96,2.99,15.21-3.71,0,0-2.56-6.03-4.17-10.29.93-1.96,1.33-4.27,1.17-6.69Z"/>
        <path class="cls-3" d="m82.97,139.81c.43,5.18,1.34,14.34,1.67,17.61.06.63.68,1.04,1.28.86l5.64-1.66c.46-.14.76-.58.71-1.06-.32-3.02-1.43-13.53-1.93-17.59l3.84-1.26c.91,3.83,1.74,7.56,2.45,11.14.18.9,1.15,1.38,1.97.98.77-.38,1.79-.89,3.03-1.53h0c.96,23.38-1.35,65.99-1.35,65.99-3.41,2.97-19.27,4.62-26.97,1.1.38-5.09,1.52-31.54,1.81-38.21.04-.83-.64-1.5-1.47-1.47h0c-.7.03-1.28.56-1.35,1.26-1.17,10.95-3.63,40.29-3.63,40.29-5.63,1.65-18.48,3.41-28.62.77.88-11.78,5.41-57.36,5.86-62.22h0c.68-.07,1.09-.12,2.24-.09,2.55.07,3.15.76,8.3,1.52,3.51.52,6.86.84,8.63.99.73.06,1.37-.49,1.43-1.22.44-5.24.73-10.14.89-14.72,0,0,8.6.38,15.59-1.48Z"/>
        <path class="cls-7" d="m116.35,137.55c-1.53-5.65-9.48-34.67-17-56.94l.02.05c2.33-2.57,9.1-8.56,14.34-12.65l.02-.35c-3.58,1.13-12.03-20.89-11.92-27.07l1.76-3.06h-.83c-.77,0-1.49.33-2,.9-1.31,1.5-3.98,4.55-5.87,6.75-2.59,3.03-1.82,2.86-1.82,4.35s-1.98,1.2-4.35,1.81c-2.37.61-2.53,2.1-2.53,3.64s-1.98.72-4.46,1.76c-2.48,1.05-3.47,2.04-3.47,2.04l-3.48,1.17s-.74-.76-1.95-1.17-3.56-.4-3.56-.4c.9,2.65,2,5.13,3.1,7.44,1.08,2.27,17.73,49.07,24.27,82.03.18.9,1.15,1.38,1.97.98,2.91-1.42,9.44-4.77,17.16-9.73.51-.33.75-.95.6-1.53Z"/>
        <path class="cls-7" d="m42.32,145.56c-.7,2.79-1.39,6.19-1.72,8.05-.13.72.43,1.38,1.16,1.37,4.77-.05,4.03-.33,6.37-.27,2.55.07,3.15.76,8.3,1.52,3.51.52,6.87.84,8.64.99.73.06,1.36-.48,1.42-1.21,2.87-34.08-.72-53.55-4.12-65.42-3.07-10.71-4.96-19.8-5.72-26.2-1.68.23-1.87.63-2.49,1.4s-1.44,2.91-1.97,3.76-.48,1.75-.48,1.75c-1.91.72-2.42,1.1-4.93,1.77s-7.55.06-11.67,4.09c-3.88,3.79-13.55,22.28-18.45,31.69-.5.97-.22,2.17.68,2.78,5.18,3.57,13.79,7.65,26.28,7.47,0,0,.19,6.99.89,8.75.7,1.76,1.94,3.08,4.47,3.84,0,0-5.33,5.07-6.65,13.88Z"/>
        <path class="cls-7" d="m45.5,30.95c-2.77.43-5.42,2.45-4.92,5.68,0,0,.49,2.21-.24,3.59l.95.25s.16,4.28,2.77,6.45l1.84-.67s-1.75-5-1.49-6.48.61-3,1.08-4.66c0,0,2.92.64,4.93-2.05,0,0,2.35.07,3.6-2.12,0,0,2.92.37,5.43,0,0,0,1.08-.8,2.92-.34,0,0-1.33-2.83,4.79-1.42,0,0-.51-1.16.36-1.88,0,0,1-1.39-1.48-1.22-.45.03.75-.41-.08-1.49,0,0-2.69,1.11-4.35,0,0-1.67-.77-2.53-2.59-1.46-2.13,1.25-2.86,1.54-4.51.77-1.41-.66-3.57-.15-4.01,1.78-2.49,0-4.1.87-4,3.46l-1.01,1.79Z"/>
        <path class="cls-4" d="m82.97,139.81s4.27-.83,7.37-1.85l1.57,14.16-7.57,2.26-1.37-14.58Z"/>
        <path class="cls-6" d="m64.76,133.25c-.76.01-1.59.04-2.45.08.91-.12,1.6-.89,1.6-1.82,0-1.04-.87-1.87-1.91-1.84-6.32.16-11.66,1.42-16.27,3.11-1.13.41-2.39.18-3.31-.61-4.2-3.63-8.52-8.02-10.43-10-.63-.65-.83-1.59-.53-2.44l.61-1.77s-8.81-1.4-15.09-6.58c-.76,1.65-1.94,4.38-2.43,6.19-.41,1.53-.58,3.36.22,4.79,1.54,2.73,16.19,15.97,24.83,20.79.69.38,1.31.88,1.83,1.47,2.08,2.35,4.74,4.76,9.75,2.58.61-.26,1.29-.34,1.94-.21,1.29.24,3.54.71,5.68,1.36.78.23,1.61-.12,1.97-.85.45-.91,0-2.01-.95-2.33-1.43-.48-3.58-1.16-6.03-1.76-.98-.24-.97-1.63.01-1.86,3.99-.93,7.58-1.26,9.36-1.37.71-.05,1.32-.53,1.53-1.21.33-1.09-.46-2.16-1.57-2.2.62-.02,1.19-.03,1.68-.04.9,0,1.63-.7,1.71-1.59.08-1.02-.72-1.89-1.75-1.87Z"/>
        <path class="cls-6" d="m122.62,24.47c-2.45-1.38-7.75-3.37-17.34-2.09-9.91,1.32-13.76,3.25-20.92,4.35-7.16,1.1-11.23.61-14.5.44-.64-.03-1.18,0-1.63.08-1,.18-1.34,1.18-1.05,1.95h0c-2.42-.23-4.04-.45-4.7.55-.2.3-.23.59-.09.86h0c-1.25-.11-2.9-.09-3.04,1.14-.07.57.38,1.22,1.58,1.82h0c-1.58,1.82,2.88,4.37,10.12,4.37s9.36-.59,8.86,2.6c-.5,3.22-.86,6.37,1.18,6.54,1.36.12,2.33-.48,2.82-3.13,1.21-6.44,6.05-2.75,8.99-8.88.22-.47.69-.76,1.21-.78,1.82-.07,6.25-.23,11.04-.31l-3.61,6.49s2.89,13.65,7.76,22.02c1.1-2.12,4.79-9.72,8.04-14.95,3.25-5.23,7.49-11.94,8.31-15.63.83-3.69-.88-6.22-3.03-7.43Z"/>
        <path class="cls-1" d="m67.53,141.23c9.12.5,20.32-2.22,26.64-4.53-5.7-25.14-21.36-69.75-21.36-69.75-3.26,6.7-11.69,6.67-15.21,3.71,0,0,1.27,7.77,3.8,16.54,2.53,8.76,4.75,17.72,5.67,29.18.92,11.46.46,24.85.46,24.85Z"/>
        <polygon class="cls-1" points="84.33 154.38 91.61 152.21 92.01 156.03 84.79 158.32 84.33 154.38"/>
        <path class="cls-3" d="m109.3,62.48l3.79-7.41s2.17,11.03.64,12.58c-1.53,1.54-4.43-5.17-4.43-5.17Z"/>
      </g>
      <g>
        <circle class="cls-3" cx="59.46" cy="50.98" r=".71"/>
        <ellipse class="cls-3" cx="53.01" cy="46.05" rx=".8" ry=".86" transform="translate(-8.21 11.66) rotate(-11.65)"/>
        <ellipse class="cls-3" cx="62.59" cy="43.5" rx=".8" ry=".86" transform="translate(-7.5 13.54) rotate(-11.65)"/>
        <ellipse class="cls-3" cx="60.6" cy="55.16" rx=".8" ry=".86" transform="translate(-9.89 13.38) rotate(-11.65)"/>
        <circle class="cls-3" cx="61.7" cy="122.88" r=".71"/>
        <path class="cls-3" d="m59.16,63.32c-5.1,0-9.9-3.29-11.57-8.36-1.39-4.22-2.59-8.55-3.47-12.5-.1-.46.19-.91.65-1.01.46-.1.91.19,1.01.65.87,3.9,2.05,8.17,3.42,12.34,1.76,5.34,7.54,8.37,12.87,6.76l.39-.12c4.56-1.47,7.04-5.92,6.46-11.63-.42-4.11-1.15-8.84-1.63-11.2-.09-.46.2-.91.66-1,.46-.09.91.2,1,.66.49,2.4,1.23,7.2,1.65,11.37.65,6.45-2.34,11.72-7.63,13.42l-.42.13c-1.13.34-2.28.5-3.41.5Z"/>
        <path class="cls-3" d="m48.33,57.26c-3.24,0-6.97-2.15-7.74-5.69-.47-2.16.23-3.57.9-4.37,1-1.2,2.59-1.88,4.44-1.8.47.01.84.41.82.88-.01.46-.39.82-.85.82-.06,0-.13,0-.19,0-1.23,0-2.29.43-2.92,1.19-.61.73-.8,1.74-.54,2.92.64,2.96,4.06,4.65,6.73,4.31.46-.06.89.27.95.74.06.47-.27.89-.74.95-.28.04-.57.05-.87.05Z"/>
        <path class="cls-3" d="m69.86,51.13c-.27,0-.53-.13-.7-.36-.27-.38-.17-.92.21-1.18,2.76-1.93,4.01-4.52,3.53-7.29-.19-1.08-.66-1.83-1.35-2.16-.74-.35-1.73-.25-2.71.28-.41.22-.93.07-1.15-.34-.22-.41-.07-.93.34-1.15,1.47-.8,3.02-.91,4.26-.32.84.41,1.92,1.33,2.29,3.4.6,3.41-.94,6.69-4.23,8.98-.15.1-.32.15-.49.15Z"/>
        <path class="cls-3" d="m81.37,47.94c-.11,0-.23,0-.35-.01-.67-.06-1.24-.35-1.64-.86-1.04-1.32-.76-3.8-.32-6.66.09-.61.06-1.01-.09-1.19-.45-.52-2.49-.49-5.09-.45-.85.01-1.79.03-2.84.03-5.57,0-10.13-1.48-11.1-3.61-.34-.74-.22-1.54.34-2.17.31-.35.85-.39,1.2-.08.35.31.39.85.08,1.2-.14.16-.12.24-.07.35.5,1.09,4.1,2.61,9.55,2.61,1.04,0,1.98-.01,2.82-.03,3.61-.05,5.43-.08,6.39,1.04.68.78.6,1.84.49,2.57-.24,1.57-.7,4.5-.03,5.35.07.09.18.19.44.21.64.06,1.44.12,1.92-2.44.72-3.83,2.7-4.57,4.61-5.28,1.64-.61,3.19-1.19,4.44-3.81.36-.75,1.1-1.23,1.94-1.27,2.74-.11,9.78-.35,16.11-.35.47,0,.85.38.85.85s-.38.85-.85.85c-6.3,0-13.32.24-16.04.35-.21,0-.39.12-.48.3-1.55,3.24-3.68,4.03-5.38,4.67-1.74.65-2.99,1.12-3.53,4-.31,1.67-1.01,3.84-3.38,3.84Z"/>
        <path class="cls-3" d="m109.29,63.33c-.13,0-.27-.03-.39-.1-.42-.22-.58-.73-.36-1.15.21-.4.51-1.01.89-1.76,1.58-3.14,4.53-8.99,7.17-13.25l.44-.71c3.12-5.02,7-11.27,7.76-14.65.93-4.14-1.77-6.03-2.62-6.51-2.77-1.56-7.93-3.17-16.81-1.99-5.53.74-9.1,1.65-12.55,2.53-2.66.68-5.18,1.33-8.35,1.81-6.27.96-10.17.72-13.3.53-.48-.03-.93-.06-1.37-.08-.56-.03-1.04,0-1.43.07-.42.08-.46.43-.46.57,0,.12.04.54.51.61,1.75.28,4.91.61,10.03.64.47,0,.85.38.85.85,0,.47-.38.85-.85.85h0c-5.22-.03-8.48-.37-10.29-.66-1.13-.18-1.93-1.12-1.94-2.27-.01-1.13.75-2.07,1.86-2.26.52-.09,1.14-.12,1.82-.09.45.02.91.05,1.39.08,3.05.19,6.84.43,12.94-.51,3.08-.47,5.56-1.11,8.18-1.78,3.5-.9,7.12-1.82,12.75-2.57,9.34-1.25,14.88.5,17.87,2.19,2.95,1.67,4.24,4.79,3.44,8.36-.82,3.66-4.79,10.05-7.98,15.18l-.44.71c-2.6,4.2-5.53,10-7.1,13.12-.38.76-.69,1.37-.9,1.78-.15.29-.45.46-.75.46Z"/>
        <path class="cls-3" d="m102.03,40.95c-.15,0-.3-.04-.44-.12-.4-.24-.53-.77-.29-1.17.02-.03,2.1-3.49,3.56-6.1.23-.41.75-.56,1.16-.33.41.23.56.75.33,1.16-1.47,2.64-3.57,6.12-3.59,6.15-.16.26-.44.41-.73.41Z"/>
        <path class="cls-3" d="m78.25,59.61c-.22,0-.44-.08-.6-.25-.33-.33-.33-.87,0-1.2.05-.04,1.14-1.12,3.74-2.22,1.12-.47,2.16-.6,2.92-.7.37-.04.87-.11,1.02-.19,0-.01,0-.04,0-.09,0-1.27,0-3.64,3.17-4.46.72-.19,1.39-.29,1.98-.38,1.49-.23,1.73-.35,1.73-.6s-.03-.46-.05-.64c-.16-1.17-.03-1.79,2.08-4.26,1.88-2.21,4.56-5.26,5.87-6.76.67-.76,1.63-1.19,2.64-1.19h.83c.47,0,.85.38.85.85s-.38.85-.85.85h-.83c-.52,0-1.02.22-1.36.61-1.31,1.49-3.98,4.54-5.86,6.74-1.8,2.1-1.76,2.38-1.68,2.92.03.24.07.52.07.88,0,1.79-1.68,2.05-3.17,2.29-.55.09-1.18.19-1.82.35-1.77.46-1.89,1.37-1.89,2.81,0,1.66-1.45,1.84-2.51,1.97-.73.09-1.56.19-2.46.57-2.26.95-3.19,1.85-3.2,1.86-.17.16-.38.24-.6.24Z"/>
        <path class="cls-3" d="m97.98,149.81c-.34,0-.68-.08-.99-.23-.63-.31-1.06-.88-1.2-1.57-6.49-32.74-23-79.31-24.2-81.83-1.15-2.41-2.86-6.63-3.75-9.24-.15-.44.09-.93.53-1.08.45-.15.93.09,1.08.53.87,2.55,2.55,6.7,3.67,9.05,1.21,2.53,17.82,49.36,24.33,82.23.05.23.2.34.29.38.09.04.26.1.47,0,3.13-1.53,9.52-4.82,17.08-9.68.2-.13.3-.37.24-.6-2.07-7.62-12.81-46.74-21.18-68.67-.17-.44.05-.93.49-1.1.44-.17.93.05,1.1.49,8.39,22,19.16,61.2,21.23,68.83.26.94-.13,1.94-.96,2.47-7.63,4.91-14.08,8.24-17.25,9.78-.31.15-.65.23-.99.23Z"/>
        <path class="cls-3" d="m113.48,68.54c-.38,0-.85-.12-1.39-.53-4.35-3.25-11.5-24.52-11.41-30.11,0-.46.39-.83.85-.83h.02c.47,0,.84.4.83.87-.1,5.38,6.61,24.75,10.42,28.45.32.31.52.41.61.44.6-1.09-.39-6.88-.77-9.1-.17-1.02-.33-1.92-.41-2.54-.06-.47.27-.89.74-.95.47-.06.89.27.95.74.08.61.23,1.48.4,2.47,1.22,7.16,1.46,10.45-.34,11.02-.14.04-.31.08-.5.08Z"/>
        <path class="cls-3" d="m99.37,81.5c-.2,0-.41-.07-.57-.22-.35-.32-.37-.85-.06-1.2,2.41-2.65,9.29-8.73,14.44-12.75h0s.77-.85.25-4.39c-.07-.46.25-.9.72-.97.47-.06.9.25.97.72.67,4.57-.55,5.76-.94,6.02-5.03,3.93-11.82,9.91-14.17,12.51-.17.19-.4.28-.63.28Z"/>
        <path class="cls-3" d="m105.15,72c-.22,0-.43-.1-.57-.28-4.68-6.24-8.38-17.66-9.14-22.31-.06-.39.2-.75.58-.81.38-.06.75.2.81.58.74,4.52,4.34,15.64,8.88,21.69.23.31.17.76-.14.99-.13.09-.28.14-.42.14Z"/>
        <path class="cls-3" d="m79.53,69.68c-.22,0-.45-.05-.66-.14-2.55-1.14-4.57-1.56-5.4-1.13-.42.21-.93.05-1.15-.36s-.05-.93.36-1.15c1.32-.68,3.54-.36,6.59.96-1.49-2.38-3.33-5-5.33-7.61-.33-.43-.82-.7-1.38-.75l-3.38-.29c-.47-.04-.81-.45-.77-.92.04-.47.47-.82.92-.77l3.38.29c1.02.09,1.96.6,2.58,1.41,2.11,2.75,4.05,5.52,5.59,8.01.38.6.31,1.37-.15,1.9-.31.36-.75.55-1.2.55Zm-.09-1.56h0,0Z"/>
        <path class="cls-3" d="m53.49,81.84c-.16,0-.31-.02-.47-.07-.63-.18-1.08-.7-1.18-1.34-.49-3.17-.82-7.04-.98-9.07-.06-.81.15-1.61.63-2.3.75-1.09,1.41-2.5,1.83-3.48.45-1.05,1.43-1.8,2.57-1.96l.65-.09c.46-.06.89.26.96.73s-.26.89-.73.96l-.65.09c-.55.07-1.01.42-1.23.94-.45,1.05-1.16,2.56-1.99,3.77-.25.37-.37.79-.33,1.21.15,2.01.49,5.84.97,8.94,1.69-2.04,3.9-4.57,4.49-5.12.34-.32.88-.31,1.2.03.32.34.31.88-.03,1.2-.41.39-2.03,2.2-4.44,4.98-.32.37-.78.57-1.25.57Z"/>
        <path class="cls-3" d="m63.54,73.42c-2.48,0-4.86-.75-6.48-2.1-.36-.3-.41-.84-.1-1.2.3-.36.84-.41,1.2-.1,1.76,1.47,4.8,2.07,7.59,1.48,2.83-.6,5.07-2.35,6.32-4.91.2-.42.71-.6,1.14-.39.42.21.6.71.39,1.14-1.48,3.04-4.14,5.12-7.49,5.83-.85.18-1.71.27-2.56.27Z"/>
        <path class="cls-3" d="m69.76,142.14c-.77,0-1.53-.02-2.28-.06-.47-.03-.83-.43-.8-.9.02-.47.42-.84.9-.8,8.43.46,19.28-1.92,26.3-4.48.45-.16.93.07,1.09.51.16.44-.07.93-.51,1.09-6.57,2.4-16.44,4.64-24.7,4.64Z"/>
        <path class="cls-3" d="m48.97,132.53c-.11,0-.23-.02-.34-.07-4.43-1.94-5.1-2.62-5.51-8.68-.48-6.95-.86-12.43-3.91-28.84-.09-.46.22-.91.68-.99.45-.08.91.22.99.68,3.07,16.5,3.45,22.03,3.94,29.04.37,5.43.69,5.56,4.5,7.24.43.19.63.69.44,1.12-.14.32-.45.51-.78.51Z"/>
        <path class="cls-3" d="m42.84,119.95c-12.3,0-20.91-4.12-25.99-7.63-1.25-.86-1.65-2.52-.95-3.88,7.19-13.82,15.03-28.41,18.61-31.91,3.31-3.23,7.12-3.66,9.89-3.97.85-.1,1.59-.18,2.15-.33,1.69-.45,2.43-.76,3.37-1.15.43-.18.89-.37,1.48-.59.44-.16.93.06,1.1.5.17.44-.06.93-.5,1.1-.57.22-1.02.4-1.43.57-.96.4-1.78.74-3.59,1.22-.68.18-1.48.27-2.4.37-2.67.3-6,.67-8.9,3.5-3.87,3.78-13.97,23.19-18.29,31.48-.31.59-.13,1.32.41,1.69,4.99,3.44,13.5,7.53,25.79,7.32.46.04.86.37.86.84s-.37.86-.84.86c-.26,0-.52,0-.78,0Z"/>
        <path class="cls-3" d="m40.03,111.71s-.04,0-.07,0c-9.78-.92-17.16-4.76-20.8-8.06-.29-.26-.31-.71-.05-1,.26-.29.71-.31,1-.05,3.32,3,10.54,6.81,19.98,7.69.39.04.68.38.64.77-.04.37-.34.64-.71.64Z"/>
        <path class="cls-3" d="m59.29,149.25c-.24,0-.49-.04-.73-.11-2.03-.61-4.17-1.06-5.6-1.34-.48-.09-.99-.03-1.44.16-5.95,2.59-9.06-.91-10.73-2.79-.45-.51-1-.94-1.61-1.29-8.8-4.92-23.51-18.2-25.16-21.12-.99-1.76-.71-3.92-.31-5.43.58-2.14,2.05-5.38,2.48-6.32.2-.43.7-.61,1.13-.42.43.2.61.7.42,1.13-.42.91-1.84,4.05-2.38,6.06-.32,1.2-.56,2.89.14,4.15,1.36,2.41,15.64,15.52,24.51,20.47.78.44,1.47.99,2.05,1.64,2.08,2.35,4.33,4.3,8.78,2.36.77-.34,1.61-.43,2.44-.27,1.47.28,3.66.75,5.77,1.38.38.11.79-.06.97-.42.11-.22.12-.46.03-.68-.09-.22-.27-.38-.49-.46-1.37-.46-3.52-1.14-5.96-1.74-.83-.2-1.38-.91-1.38-1.76,0-.85.57-1.56,1.4-1.75,4.05-.94,7.69-1.27,9.5-1.39.36-.02.67-.26.77-.61.08-.27.03-.56-.14-.78-.14-.18-.33-.29-.54-.32-.44.01-.88.03-1.31.06-1.76.12-4.26.36-7.41.86-.47.07-.89-.24-.97-.7-.08-.46.23-.9.69-.98,2.51-.45,5.02-.74,7.59-.88.42-.03.81-.05,1.15-.07.11,0,.21,0,.32,0,.51-.02,1.02-.03,1.54-.03.46,0,.83-.35.87-.81.02-.25-.06-.49-.24-.68-.17-.18-.4-.26-.65-.28-.72.01-1.49.03-2.28.07-.08.01-.17.02-.25.03-2.25.14-6.39.44-8.73.98-.45.1-.91-.18-1.02-.64-.11-.46.18-.91.63-1.02,2.46-.58,6.09-.91,9.18-1.05.44-.1.76-.5.76-.96,0-.27-.11-.52-.3-.7-.2-.19-.46-.32-.74-.29-5.53.14-10.76,1.14-16,3.06-1.42.52-3.01.23-4.15-.76-4.31-3.71-8.77-8.27-10.49-10.06-.85-.88-1.13-2.15-.72-3.31l.61-1.77c.15-.44.63-.68,1.08-.53.44.15.68.64.53,1.08l-.61,1.77c-.19.55-.06,1.16.34,1.58,1.7,1.77,6.12,6.28,10.38,9.95.68.58,1.62.76,2.46.45,5.41-1.98,10.82-3.02,16.54-3.16.73,0,1.44.26,1.97.77.52.51.81,1.19.81,1.92,0,.31-.05.61-.15.89.06,0,.11,0,.17,0,.71,0,1.39.3,1.88.81.5.53.75,1.25.69,1.98-.09,1.13-.88,2.03-1.92,2.29.22.54.25,1.15.08,1.72-.31,1.01-1.23,1.74-2.29,1.81-1.76.11-5.29.44-9.22,1.35-.04,0-.08.02-.08.1s.04.09.08.1c2.5.61,4.7,1.3,6.11,1.78.69.23,1.24.75,1.52,1.43.28.68.25,1.44-.08,2.09-.44.87-1.32,1.39-2.25,1.39Z"/>
        <path class="cls-3" d="m65.17,158.07c-.06,0-.12,0-.19,0-1.71-.15-5.11-.47-8.69-1-2.56-.38-4.05-.75-5.13-1.02-1.12-.28-1.85-.46-3.06-.49-1.01-.03-1.4.01-1.98.07-.72.07-1.72.17-4.36.2h-.02c-.6,0-1.16-.26-1.54-.72-.39-.46-.55-1.06-.44-1.65.33-1.82.98-5.31,1.74-8.12.12-.45.59-.72,1.04-.6.45.12.72.59.6,1.04-.74,2.76-1.39,6.18-1.71,7.98-.02.13.03.22.07.26.04.04.14.11.25.11,2.57-.03,3.51-.12,4.21-.19.6-.06,1.07-.11,2.2-.08,1.39.04,2.25.25,3.42.54,1.11.28,2.49.62,4.97.99,3.53.52,6.89.84,8.58.98.17.03.28-.06.34-.11.1-.08.16-.2.17-.33,2.23-26.45.89-47.75-4.09-65.11-3.22-11.21-5.39-21.64-5.97-28.6-.04-.47.31-.88.78-.92.47-.03.88.31.92.78.57,6.86,2.72,17.16,5.91,28.27,5.04,17.57,6.4,39.07,4.15,65.72-.05.58-.32,1.11-.77,1.49-.39.33-.88.51-1.39.51Z"/>
        <path class="cls-3" d="m51.39,131.77s-.06,0-.09,0c-.39-.05-.66-.4-.61-.79.83-6.53,3.14-13.7,5.25-13.96.21-.02.91-.03,1.26.88,1.02,2.63.05,9,.04,9.06-.06.39-.44.65-.81.59-.39-.06-.65-.42-.59-.81.3-1.89.7-6.28.1-8.16-.92.95-2.95,5.52-3.85,12.57-.05.36-.35.62-.7.62Z"/>
        <path class="cls-3" d="m59.85,130.48c-.07,0-.14,0-.21-.03-.37-.11-.59-.51-.47-.88.43-1.42.72-2.55,1.13-4.12l.14-.54c.1-.38.48-.61.86-.51.38.1.61.48.51.86l-.14.54c-.41,1.58-.71,2.73-1.15,4.18-.09.31-.37.5-.68.5Z"/>
        <path class="cls-3" d="m74.77,33.75s-.04,0-.06,0c-2.83-.2-5.29-.44-8.22-.79-2.86-.35-4.42-.98-4.89-2.01-.25-.53-.19-1.12.17-1.67.9-1.38,2.66-1.21,5.1-.98l.39.04c.47.04.81.46.77.93-.04.47-.47.81-.93.77l-.39-.04c-1.77-.17-3.17-.31-3.51.21-.05.02.32.67,3.5,1.06,2.9.35,5.33.58,8.14.78.47.03.82.44.79.91-.03.45-.41.79-.85.79Z"/>
        <path class="cls-3" d="m73.34,36.6s-.04,0-.06,0c-.03,0-3.15-.22-7.2-.79-6.56-.93-7.74-2.77-7.58-4.15.17-1.46,1.5-2.09,3.96-1.89.47.04.82.45.78.92-.04.47-.45.81-.92.78-1.31-.11-2.08.03-2.12.39-.03.27.96,1.54,6.13,2.27,3.98.57,7.04.78,7.08.78.47.03.82.44.79.91-.03.45-.4.79-.85.79Z"/>
        <path class="cls-3" d="m50.45,27.69c-.43,0-.8-.33-.85-.77-.14-1.47.36-2.69,1.42-3.44,1.08-.77,2.64-.9,3.86-.33,1.58.74,2.35.9,3.49-.53.29-.37.83-.43,1.2-.13.37.29.43.83.13,1.2-1.93,2.42-3.79,1.82-5.54,1.01-.68-.32-1.56-.24-2.16.18-.55.39-.79,1.04-.71,1.89.04.47-.3.88-.77.93-.03,0-.05,0-.08,0Z"/>
        <path class="cls-3" d="m63.84,25.81c-.78,0-1.63-.18-2.54-.55-.43-.18-.64-.67-.47-1.11.18-.43.67-.64,1.11-.47,1.97.8,2.95.32,3.51-.11.37-.29.91-.21,1.19.16.28.37.21.91-.16,1.19-.77.59-1.66.88-2.65.88Z"/>
        <path class="cls-3" d="m57.84,28.92c-.64,0-1.27-.12-1.83-.41-.35-.18-.48-.61-.3-.96.18-.35.61-.48.96-.3,1.05.55,2.83.09,3.46-.47.29-.26.74-.23,1,.06.26.29.23.74-.06,1-.65.58-1.94,1.07-3.23,1.07Z"/>
        <path class="cls-3" d="m50.15,33.77c-.19,0-.39-.01-.58-.04-.39-.05-.66-.4-.62-.79.05-.39.42-.66.79-.62,1.57.19,3.07-.76,3.69-1.76.21-.33.64-.43.98-.22.33.21.43.65.22.98-.8,1.27-2.55,2.45-4.48,2.45Z"/>
        <path class="cls-3" d="m48.32,30.31c-1.98,0-3.63-.83-4.92-2.47-.29-.37-.22-.91.15-1.19.37-.29.91-.22,1.19.15,1.27,1.62,2.88,2.14,5.09,1.64.46-.11.91.18,1.02.64.1.46-.18.91-.64,1.02-.66.15-1.29.23-1.89.23Z"/>
        <path class="cls-3" d="m43.7,37.52c-.3,0-.57-.19-.67-.49-.12-.37.08-.77.45-.9.77-.26,1.25-.61,1.43-1.04.17-.41.09-.96-.24-1.62-.41-.83-.42-1.71-.02-2.49.56-1.11,1.9-1.92,3.66-2.22.38-.06.75.19.82.58.07.39-.19.75-.58.82-1.3.22-2.28.77-2.63,1.46-.19.38-.18.79.03,1.22.52,1.05.62,1.99.28,2.8-.34.83-1.11,1.45-2.29,1.84-.07.03-.15.04-.22.04Z"/>
        <path class="cls-3" d="m40.58,37.48c-.41,0-.77-.3-.84-.72-.51-3.27.59-5.21,3.34-5.92.46-.12.92.16,1.04.61s-.16.92-.61,1.04c-1.61.41-2.52,1.23-2.08,4.01.07.46-.25.9-.71.97-.04,0-.09,0-.13,0Z"/>
        <path class="cls-3" d="m41.99,41.18c-.6,0-1.23-.09-1.85-.28-.37-.11-.58-.51-.47-.88.11-.38.51-.59.88-.47,1.61.49,3.26.12,4.09-.92.24-.31.69-.36,1-.11.31.24.36.69.11,1-.86,1.08-2.24,1.67-3.76,1.67Z"/>
        <path class="cls-3" d="m43.7,47.47c-.21,0-.42-.08-.59-.24-1.27-1.21-2.04-2.28-2.2-4.14-.04-.47.31-.88.77-.92.48-.04.88.31.92.77.1,1.21.5,1.93,1.68,3.06.34.32.35.86.03,1.2-.17.17-.39.26-.62.26Z"/>
        <path class="cls-3" d="m85.63,159.17c-.36,0-.72-.11-1.03-.32-.46-.31-.75-.8-.81-1.35-.36-3.59-1.25-12.5-1.67-17.62-.04-.47.31-.88.78-.92.47-.04.88.31.92.78.43,5.11,1.31,14,1.67,17.59,0,.06.04.09.07.11.03.02.07.04.13.02l5.64-1.66c.07-.02.12-.09.11-.16-.53-5-1.48-13.93-1.93-17.58-.06-.47.27-.89.74-.95.47-.06.89.27.95.74.45,3.66,1.4,12.6,1.93,17.6.09.89-.46,1.71-1.32,1.97l-5.64,1.66c-.17.05-.35.08-.53.08Z"/>
        <path class="cls-3" d="m84.33,155.09c-.31,0-.59-.2-.68-.51-.11-.38.1-.77.48-.88l7.57-2.26c.38-.11.77.1.88.48.11.38-.1.77-.48.88l-7.57,2.26c-.07.02-.14.03-.2.03Z"/>
        <path class="cls-3" d="m51.89,219.21c-4.07,0-8.27-.38-12.07-1.37-.4-.1-.66-.48-.63-.89.68-9.07,3.48-37.81,4.99-53.26.44-4.55.77-7.85.87-8.98.04-.47.46-.82.92-.77.47.04.81.46.77.92-.1,1.12-.43,4.43-.87,8.99-1.47,15.05-4.17,42.74-4.93,52.5,9.44,2.25,21.16.79,26.92-.78.35-4.21,2.52-29.75,3.58-39.73.12-1.12,1.03-1.97,2.16-2.02.65-.02,1.25.22,1.7.66.44.45.68,1.06.66,1.69-.22,5.28-1.33,31.17-1.77,37.63,7.36,2.98,21.62,1.6,25.25-.99.23-4.31,2.23-43.62,1.33-65.52-.02-.47.35-.87.81-.88.47-.04.87.35.88.81.95,23.16-1.33,65.64-1.35,66.07-.01.23-.12.44-.29.6-3.66,3.19-19.72,4.97-27.88,1.23-.32-.15-.52-.48-.49-.84.39-5.2,1.57-32.72,1.8-38.18,0-.21-.1-.35-.16-.42-.11-.11-.26-.17-.42-.17-.28.01-.51.22-.54.5-1.15,10.82-3.6,39.98-3.63,40.28-.03.35-.27.65-.61.75-3.66,1.07-10.15,2.15-17,2.15Z"/>
        <path class="cls-3" d="m59.88,40.81c-.22,0-.44-.1-.58-.3-.23-.32-.15-.76.17-.99.95-.67,2.96-1.71,4.34-2.13.38-.12.77.1.88.47.11.38-.1.77-.47.88-1.2.37-3.1,1.34-3.94,1.93-.12.09-.27.13-.41.13Z"/>
        <path class="cls-3" d="m49.53,43.23c-.33,0-.63-.24-.7-.58-.07-.38.18-.76.56-.83,1.35-.26,2.84-.36,4.68-.31.39.01.7.34.69.73,0,.38-.33.69-.71.69,0,0-.01,0-.02,0-1.73-.05-3.12.04-4.37.28-.04,0-.09.01-.13.01Z"/>
        <path class="cls-3" d="m60.69,58.51c-.31,0-.6-.05-.83-.14-.33-.13-.49-.5-.36-.83.13-.33.5-.49.83-.36.34.13,1.29.01,1.54-.44.17-.31.55-.42.87-.25.31.17.42.56.25.87-.44.81-1.45,1.15-2.29,1.15Z"/>
        <path class="cls-3" d="m57.4,54.98c-.35,0-.64-.29-.64-.64v-.39c0-.35.29-.64.64-.64s.64.29.64.64v.39c0,.35-.29.64-.64.64Z"/>
        <path class="cls-3" d="m59.31,54.05c-.32,0-.59-.24-.63-.56l-.04-.31c-.04-.35.21-.67.56-.71.34-.04.67.21.71.56l.04.31c.04.35-.21.67-.56.71-.02,0-.05,0-.07,0Z"/>
        <path class="cls-3" d="m61.12,53.52c-.23,0-.45-.12-.56-.34l-.15-.28c-.17-.31-.05-.7.26-.86.32-.17.7-.04.86.26l.15.28c.17.31.05.7-.26.86-.1.05-.2.07-.3.07Z"/>
        <path class="cls-3" d="m63.1,53.19c-.21,0-.41-.1-.53-.28l-.13-.19c-.2-.29-.12-.69.17-.89.29-.19.69-.12.89.17l.13.19c.2.29.12.69-.17.89-.11.07-.23.11-.35.11Z"/>
        <g>
          <circle class="cls-1" cx="94.66" cy="27.76" r="1.63"/>
          <path class="cls-3" d="m94.66,30.24c-1.37,0-2.48-1.11-2.48-2.48s1.11-2.48,2.48-2.48,2.48,1.11,2.48,2.48-1.11,2.48-2.48,2.48Zm0-3.26c-.43,0-.78.35-.78.78s.35.78.78.78.78-.35.78-.78-.35-.78-.78-.78Z"/>
        </g>
        <g>
          <circle class="cls-1" cx="93.2" cy="24.05" r="1.63"/>
          <path class="cls-3" d="m93.2,26.53c-1.37,0-2.48-1.11-2.48-2.48s1.11-2.48,2.48-2.48,2.48,1.11,2.48,2.48-1.11,2.48-2.48,2.48Zm0-3.26c-.43,0-.78.35-.78.78s.35.78.78.78.78-.35.78-.78-.35-.78-.78-.78Z"/>
        </g>
        <g>
          <circle class="cls-1" cx="95.13" cy="31.53" r="1.63"/>
          <path class="cls-3" d="m95.13,34.01c-1.37,0-2.48-1.11-2.48-2.48s1.11-2.48,2.48-2.48,2.48,1.11,2.48,2.48-1.11,2.48-2.48,2.48Zm0-3.26c-.43,0-.78.35-.78.78s.35.78.78.78.78-.35.78-.78-.35-.78-.78-.78Z"/>
        </g>
        <g>
          <circle class="cls-1" cx="94.83" cy="34.79" r="1.63"/>
          <path class="cls-3" d="m94.83,37.27c-1.37,0-2.48-1.11-2.48-2.48s1.11-2.48,2.48-2.48,2.48,1.11,2.48,2.48-1.11,2.48-2.48,2.48Zm0-3.26c-.43,0-.78.35-.78.78s.35.78.78.78.78-.35.78-.78-.35-.78-.78-.78Z"/>
        </g>
      </g>
    </g>
  </g>
  <g id="_アイコン" data-name="アイコン">
    <g>
      <path class="cls-5" d="m31.64,195.56c-4.65-1.47-8.37,1.77-8.55,4.58-.02.26.17.48.43.49l1.03.04c.3.01.5.3.41.58l-.32.98c-.08.24.06.5.31.57,2.7.82,7.03-1.54,7.27-6.42.02-.37-.22-.72-.58-.83Z"/>
      <path class="cls-2" d="m26.06,203.6c-.45,0-.89-.06-1.3-.18-.28-.09-.52-.28-.66-.54-.14-.26-.16-.56-.07-.84l.24-.74-.77-.03c-.3-.01-.57-.14-.76-.36-.2-.22-.3-.51-.28-.81.1-1.56,1.13-3.2,2.69-4.27,1.93-1.32,4.3-1.64,6.69-.89h0c.63.2,1.05.81,1.02,1.47-.12,2.46-1.27,4.63-3.16,5.96-1.12.79-2.43,1.22-3.63,1.22Zm-.75-1.36c1.1.26,2.48-.08,3.65-.9.92-.65,2.48-2.16,2.62-4.98,0-.08-.06-.17-.13-.19-2.7-.85-4.65.09-5.58.72-1.18.81-1.98,1.99-2.12,3.11l.83.03c.34.01.65.18.85.46.2.28.25.63.14.96l-.26.79Z"/>
    </g>
    <g>
      <g>
        <path class="cls-5" d="m34.74,171.55l-.05-.08c-.41-.62-.12-1.46.58-1.69l.09-.03c.64-.21.96-.93.67-1.54-.93-1.98-3.16-3.88-5.86-4.31-.27-.04-.37-.35-.18-.54,1.81-1.9,2.46-4.62,2.1-6.7-.12-.67-.79-1.1-1.45-.89l-.09.03c-.71.22-1.43-.3-1.45-1.04v-.09c-.02-.68-.64-1.19-1.31-1.08-2.09.33-4.45,1.82-5.67,4.15-.12.24-.45.24-.57,0-1.28-2.42-3.8-3.91-5.97-4.15-.67-.08-1.25.46-1.24,1.13v.09c.01.74-.69,1.29-1.41,1.1l-.09-.02c-.66-.18-1.32.27-1.41.94-.28,2.03.43,4.63,2.19,6.45.18.19.09.48-.16.54-2.47.58-4.47,2.36-5.35,4.22-.29.62.02,1.35.67,1.56l.09.03c.71.23,1,1.07.59,1.69l-.05.08c-.38.57-.16,1.34.45,1.64,1.89.93,4.68,1.07,7.01-.12.24-.12.51.07.47.34-.38,2.59.65,5.18,2.15,6.67.48.48,1.28.44,1.7-.1l.06-.07c.45-.59,1.34-.58,1.79.01l.05.07c.41.55,1.2.61,1.69.13,1.53-1.48,2.6-4.11,2.23-6.74-.02-.17.07-.25.23-.17,2.22,1.05,5.22,1.08,7.08.16.61-.3.82-1.07.44-1.64Z"/>
        <path class="cls-2" d="m23.97,181.18c-.05,0-.11,0-.17,0-.59-.05-1.12-.35-1.47-.82-.1-.14-.2-.14-.21-.15-.04,0-.11.01-.16.08-.41.54-.95.83-1.54.86-.59.04-1.17-.18-1.59-.6-1.62-1.61-2.54-4.05-2.49-6.43-2.24.81-4.84.72-6.89-.29-.54-.26-.93-.74-1.08-1.32-.15-.57-.05-1.17.27-1.66.1-.14.09-.21.07-.25-.02-.04-.05-.1-.13-.12-.65-.21-1.1-.62-1.33-1.16-.23-.54-.22-1.16.03-1.7.94-2,2.86-3.67,5.05-4.45-1.41-1.84-2.11-4.3-1.81-6.49.08-.59.41-1.11.9-1.44.49-.32,1.09-.42,1.66-.27.17.05.23.02.26-.01.04-.03.08-.08.08-.16,0-.68.24-1.24.67-1.64.43-.39,1.01-.58,1.59-.51,2,.22,4.55,1.47,6.15,3.77,1.36-1.96,3.55-3.4,5.81-3.76.59-.09,1.19.07,1.64.45.45.38.72.93.74,1.51,0,.17.05.22.08.25.04.03.1.05.17.03.64-.2,1.25-.13,1.76.18.51.31.85.82.96,1.41.4,2.26-.26,4.79-1.68,6.71,2.69.77,4.69,2.79,5.55,4.61.25.53.26,1.14.03,1.67-.23.54-.69.95-1.25,1.13-.16.05-.2.11-.21.15s-.02.11.02.17c0,0,.05.08.05.08.33.49.43,1.09.28,1.66-.15.57-.54,1.05-1.07,1.32-1.82.91-4.48,1-6.72.3-.01,2.35-.96,4.72-2.59,6.29-.39.37-.9.58-1.43.58Zm-1.85-2.82h.02c.64,0,1.24.31,1.62.82.1.13.16.15.2.15.04,0,.11,0,.17-.06,1.23-1.19,2.31-3.49,1.96-5.94-.06-.43.1-.82.42-1.06.32-.23.74-.26,1.12-.08,1.93.92,4.62.99,6.27.16.08-.04.1-.1.11-.14.01-.04.01-.1-.03-.16,0,0,0,0,0,0l-.05-.08c-.36-.53-.44-1.19-.23-1.8.21-.61.68-1.08,1.3-1.28.16-.05.2-.11.21-.14.02-.04.03-.09,0-.16-.75-1.6-2.64-3.39-5.17-3.79-.46-.08-.84-.39-.99-.83s-.04-.92.28-1.26c1.69-1.78,2.15-4.25,1.86-5.91-.02-.09-.07-.14-.1-.15-.05-.03-.11-.04-.16-.02-.7.22-1.36.11-1.88-.26-.53-.38-.84-.96-.85-1.61,0-.15-.03-.2-.07-.24-.03-.02-.1-.06-.18-.05-1.67.26-3.86,1.5-5,3.66-.22.41-.64.67-1.1.67h0c-.46,0-.88-.26-1.1-.67-1.2-2.26-3.5-3.47-5.26-3.67-.08,0-.12.02-.15.05-.03.02-.07.08-.07.16,0,.74-.28,1.33-.79,1.73-.51.4-1.16.53-1.78.36-.16-.05-.22-.02-.25,0-.03.02-.08.07-.09.15-.22,1.6.3,3.99,1.94,5.69.31.32.43.79.3,1.21-.12.43-.48.75-.91.86-2.31.54-4.04,2.25-4.72,3.71-.03.07-.02.14,0,.18.02.04.05.09.12.11.7.23,1.17.69,1.39,1.3s.13,1.27-.23,1.8c-.08.13-.09.18-.08.24,0,.04.04.1.12.14,1.51.75,4.01,1,6.18-.11.42-.21.91-.18,1.29.09.38.27.57.73.51,1.2-.35,2.42.69,4.7,1.89,5.89.06.06.14.07.17.07.06,0,.11-.03.14-.08.45-.58,1.04-.87,1.67-.87Zm4.71-4.5s0,0,0,0c0,0,0,0,0,0Z"/>
      </g>
      <circle class="cls-2" cx="23.02" cy="164.78" r=".97"/>
      <circle class="cls-2" cx="20.1" cy="165.83" r=".97"/>
      <circle class="cls-2" cx="22.96" cy="167.88" r=".97"/>
    </g>
    <g>
      <g>
        <path class="cls-5" d="m97.34,3.35h-.06c-.48.08-.89-.33-.83-.81v-.06c.06-.43-.27-.82-.71-.83-1.42,0-3.16.77-4.17,2.23-.1.14-.31.12-.37-.04-.61-1.59-2.02-2.74-3.34-3.11-.43-.12-.87.16-.93.6v.06c-.08.48-.58.76-1.02.56l-.05-.02c-.41-.18-.87.04-1,.47-.39,1.32-.18,3.12.85,4.49.1.14.02.33-.16.34-1.77.07-3.35,1.13-4.11,2.34-.23.37-.08.86.32,1.05l.05.02c.44.2.56.77.25,1.13l-.04.04c-.29.34-.21.85.16,1.09,1.12.73,2.84,1.04,4.4.52.16-.05.31.08.27.24-.35,1.61.13,3.29.98,4.32.28.34.8.37,1.1.04l.04-.04c.33-.35.91-.29,1.15.13l.03.05c.23.38.74.47,1.09.19,1.08-.85,1.94-2.44,1.89-4.14,0-.18.18-.28.33-.18,1.41.94,3.22,1.07,4.51.61.42-.15.62-.63.42-1.02l-.03-.05c-.22-.43.03-.95.51-1.04h.06c.43-.1.69-.55.55-.97-.44-1.32-1.68-2.68-3.33-3.19-.11-.03-.13-.11-.04-.18,1.24-1.01,2.1-2.76,2.07-4.11,0-.44-.4-.78-.84-.71Z"/>
        <path class="cls-2" d="m90.77,19.22c-.09,0-.18,0-.26-.02-.41-.08-.76-.32-.97-.68,0,0-.09,0-.1,0h0c-.28.3-.69.45-1.09.45-.42-.01-.81-.21-1.07-.53-.9-1.1-1.35-2.66-1.23-4.14-1.47.27-3.07-.02-4.25-.8-.35-.23-.58-.6-.64-1.01-.06-.41.06-.82.33-1.14,0,0-.03-.1-.03-.1-.37-.17-.65-.5-.77-.89-.12-.39-.06-.82.16-1.17.81-1.3,2.29-2.27,3.86-2.58-.73-1.35-.93-3-.51-4.41.12-.4.41-.73.78-.91.38-.17.81-.17,1.18,0,0,0,.09-.05.09-.05.06-.4.29-.77.63-.99.35-.23.78-.29,1.19-.18,1.42.4,2.71,1.45,3.46,2.79,1.09-1.15,2.69-1.89,4.21-1.89h.02c.41,0,.8.18,1.07.49.27.31.4.73.34,1.14l.12.78-.05-.71h0c.41-.06.82.06,1.14.33s.5.66.51,1.08c.02,1.3-.63,2.86-1.64,4,1.34.69,2.43,1.9,2.89,3.28.13.39.09.83-.12,1.19-.21.36-.56.61-.97.69,0,0-.04.09-.04.09.19.37.21.8.06,1.18-.15.39-.47.69-.86.83-1.38.49-3.03.38-4.41-.27-.19,1.51-.97,2.97-2.12,3.88-.26.2-.58.31-.9.31Zm-1.28-2.18c.05,0,.1,0,.16,0,.45.05.84.3,1.08.69.91-.61,1.73-1.97,1.69-3.51,0-.35.17-.67.47-.83.3-.17.67-.15.96.04,1.29.86,2.88.89,3.88.53-.21-.49-.22-.96-.02-1.37.2-.41.57-.69,1.02-.78-.27-1.07-1.29-2.32-2.79-2.79-.3-.1-.52-.33-.58-.62s.06-.59.3-.79c1.05-.85,1.83-2.38,1.81-3.54l-.13-.73.11.7h-.06c-.45.07-.89-.07-1.22-.39-.32-.32-.48-.76-.42-1.21-1.11-.09-2.67.5-3.59,1.84-.2.29-.54.44-.87.39-.34-.04-.62-.27-.75-.59-.56-1.45-1.84-2.39-2.87-2.67-.11.53-.38.91-.78,1.13-.4.22-.86.24-1.28.05-.39,1.02-.28,2.61.65,3.86.21.27.25.64.1.95s-.45.51-.8.52c-1.62.07-2.94,1.06-3.53,2.01.48.24.77.61.87,1.05.1.44-.02.9-.31,1.24.83.64,2.33,1,3.76.52.32-.1.66-.03.9.19.24.22.35.56.28.88-.32,1.47.19,2.93.83,3.72.34-.33.72-.49,1.12-.49Zm-2.69-2.95s0,0,0,0t0,0Zm-1.66-6.79h0s0,0,0,0Zm.38-.8h0,0Zm6.36-2.92s0,0,0,0t0,0Z"/>
      </g>
      <circle class="cls-2" cx="90.09" cy="8.33" r=".63"/>
      <circle class="cls-2" cx="89.89" cy="10.33" r=".63"/>
      <circle class="cls-2" cx="91.89" cy="9.23" r=".63"/>
    </g>
  </g>
</svg>