<?xml version="1.0" encoding="UTF-8"?>
<svg id="Layer_2" data-name="Layer 2" xmlns="http://www.w3.org/2000/svg" viewBox="0 0 193.93 204.71">
  <defs>
    <style>
      .cls-1 {
        fill: #fff;
      }

      .cls-2 {
        fill: #95e0e6;
      }

      .cls-3 {
        fill: #363636;
      }

      .cls-4 {
        fill: #33b0da;
      }

      .cls-5 {
        fill: #8dc05f;
      }

      .cls-6 {
        fill: #ffdfbc;
      }

      .cls-7 {
        fill: #ffd964;
      }
    </style>
  </defs>
  <g id="_人物" data-name="人物">
    <g>
      <g>
        <g>
          <path class="cls-1" d="m184.31,55.21c-.54-7.07-5.26-9.16-9.88-9.34-1.36-2.99-3.9-4.81-8.64-3.56-5.5-3.78-11.22-.07-11.47,4.49,0,0,0,.01,0,.01-1.85,1.77-3.23,4.47-4.45,7.87-.86,2.4-2.72,4.07-4.72,4.87-.68.27-1.13.91-1.08,1.64.15,2.4.11,4.79-.2,7.79-.34,3.29.42,6.74,7.18,6.84.93.01,1.66.8,1.58,1.72-.31,3.85-2.29,5.13-5.32,7.04-3.45,2.18-14.87,8.98-20.04,10.52-2.88-2.77-5.79-6.14-7.83-8.63-2.26-2.76-6-3.89-9.36-2.72-3.81,1.34-6.55,4.01-7.59,6.52h0c-2.9-2.93-7.18-4.23-11.04-2.79-2.27.85-4.3,2.38-5.68,4.56-1.77,2.78-2.03,6.26-1.01,9.39,2.46,7.5,9.09,16.62,17.08,22.18h0c3.21,9.76,11.85,26.7,26.69,27.35,18.59.82,33.65-15.32,39.44-31.91,3.35-9.61,3.54-15.5,2.72-24.57-.49-5.42-1.43-9.35-1.89-12.54-.5-3.41,1.67-6.61,5.02-7.41.3-.07.62-.16.95-.27,2.81-.91,7.33-2.25,9.88-5.62,1.99-2.63,3.08-8.7-.36-13.42Z"/>
          <path class="cls-1" d="m147.92,84.2c1.76,3.07,12.87,3.28,21.59,1.81"/>
          <path class="cls-1" d="m40.11,115.57c-3.11,0-6.32.16-9.52.47-2.76.27-5.42-1.16-6.61-3.66-2.76-5.75-3.08-13.38-.71-19.02,1.26-3,3.93-5.2,7.08-5.99,4.32-1.07,8.71-1.8,13.09-2.15-6.73,5.02-9.92,18.02-3.32,30.35Z"/>
          <path class="cls-1" d="m25.23,114.15c-2.44,1.13-4.86,1.95-6.97,2.55-4.67,1.32-9.68-.82-11.86-5.15-1.18-2.35-2.33-5.43-3.3-9.49-.58-2.43-2.9-14.13-1.36-21.16s5.58-8.74,8.58-8.74c6.61,0,12.29,11.14,13.59,19.94l1.33,22.06Z"/>
          <path class="cls-1" d="m75.15,134.31c-6.42,2.35-19.53,12.97-26.44,20.12-1.56,1.62-4.06,1.79-5.85.42-4.77-3.66-10.26-9.39-13.07-14.22-.94-1.62-.69-3.69.59-5.07,7.3-7.93,17.58-16.21,22.93-18.86,11.33,1.45,16.68,8.27,21.83,17.59Z"/>
          <path class="cls-1" d="m30.67,139.81c8.62,6.38,12.51,10.37,12,18.19-.07,8.07-7.25,11.16-11.23,10.11-5.67-1.5-12.55-9.55-16.96-17.65s-5.45-14.9-1.27-17.57,13.09,1.36,17.47,6.92Z"/>
          <path class="cls-6" d="m154.31,46.81c.25-4.56,5.97-8.28,11.47-4.49,4.74-1.25,7.28.57,8.64,3.56,4.62.18,9.34,2.27,9.88,9.34,3.45,4.71,2.36,10.79.36,13.42-2.56,3.37-7.07,4.71-9.88,5.62-.33.11-.65.19-.95.27-3.35.8-5.52,4-5.02,7.41.18,1.24.43,2.58.7,4.08-8.72,1.47-19.83,1.26-21.59-1.81l-.61.38c3.03-1.91,5-3.19,5.32-7.04.08-.92-.66-1.71-1.58-1.72-6.75-.1-7.52-3.55-7.18-6.84.31-3.01.34-5.4.2-7.79-.04-.73.41-1.37,1.08-1.64,2.01-.8,4.05-2.42,4.72-4.87,1.16-4.23,2.59-6.1,4.44-7.88Z"/>
          <path class="cls-2" d="m124.76,150.41c-7.48,6.1-20.51,7-29.72,3.27-7.16-2.9-12.18-6.97-17.52-15.55-7.04-11.32-9.36-15.66-16.92-19.18-4.92-2.29-12.36-3.38-20.5-3.39h0c-6.61-12.54-3.63-25.99,3.3-30.35h0c15.5-1.26,30.69,2.08,40.78,10.65-1.06,6.2,5.62,19.55,17.68,27.74,2.66,8.1,9.08,21.15,19.67,25.72"/>
          <path class="cls-6" d="m94.4,86.9c.19-1.88,1.65-5.4-1.33-10.22-1.5-2.43-2.63-4.56-3.37-6.08-.63-1.29-2.2-1.79-3.46-1.1h0c-1.16.64-1.62,2.06-1.06,3.26h-.15c-1.59.02-2.96-1.13-3.22-2.7l-1.3-7.9c-3.68,1.67-4.99,3.04-4.11,6.63.43,1.77.95,3.39,1.36,4.58.36,1.03.06,2.12-.61,2.99-.6.79-.74,1.9-.1,3.29.42.9.43,1.98-.13,2.81-.78,1.15-.86,2.79.7,4.45,2.19,2.32,5.56,5.29,7.29,6.83,2.36-4.45,5.25-6.21,9.47-6.83Z"/>
          <path class="cls-6" d="m113.32,72.14c-.87-2.36-1.26-4.42-1.43-5.8-.13-1.03-1.02-1.8-2.06-1.8-1.15,0-2.08.93-2.08,2.08,0,1.25.09,2.96.46,4.89.01.07,0,.13.02.2-.42.63-1.13,1.06-1.96,1.06l-8.82-.06c-1.09,2.13.76,3.34.76,3.34-1.45,1.6-.3,3.15-.3,3.15-1.25.94-1.46,3.27,1.35,4.1.67,1.75,2.05,4.07,4.48,4.92,7.32-7.36,11.62-4.53,11.62-4.53.45-5.51-.44-7.26-2.02-11.55Z"/>
          <path class="cls-7" d="m85.11,72.59h-.38c-1.46-.02-2.7-1.08-2.93-2.52l-1.66-10.29c-.3-1.84,1.14-3.5,3-3.47l20.8.27c1.43.02,2.65,1.05,2.91,2.46l1.19,6.54s-.75,1.13.18,5.95c-.54.77-1.44,1.28-2.48,1.27l-14.95-.15-1.11-2.02c-.48-.87-1.43-1.37-2.42-1.26h0c-1.3.14-2.27,1.28-2.19,2.59l.04.63Z"/>
          <path class="cls-4" d="m169.88,77.25c.9-1.33,2.28-2.33,3.95-2.73.3-.07.62-.16.95-.27,2.81-.91,7.33-2.25,9.88-5.62,1.99-2.63,3.08-8.7-.36-13.42-.54-7.07-5.26-9.16-9.88-9.34-1.36-2.99-3.9-4.81-8.64-3.56-5.5-3.78-11.22-.07-11.47,4.49h0c.38-.37.78-.69,1.21-.97,1.26-.84,2.97-.16,3.34,1.31.64,2.52.33,5.89-3.75,7.53,0,0,.78,2.67,3.6,1.99.67,2.04,3.2,5.08,3.2,5.08,0,0,5.51-2.36,7.44,2.05s-2.12,6.72-4.07,7.12c0,0,.27,3.6,4.61,6.33Z"/>
          <path class="cls-5" d="m18.91,116.5c-8.81-2.05-9.91-11.79-11.5-22.58-1.07-7.24-1.23-13.41.46-16.96,1.27-2.66,4.67-4.35,7.83-2.13,2.21,1.55,4.36,5.38,5.32,7.62,0,0,2.11,4.86,2.88,9.63l-1.69,4.6c-.74.28-1.61.38-2.4.35-1.51-.05-2.93.8-3.43,2.22-.94,2.69-1.05,6.62.53,9.28,1.39,2.33,4.04,3.6,6.69,3.03h0s-.25,1.62,1.63,2.58l-6.32,2.36Z"/>
          <path class="cls-1" d="m91.36,62.9l.76,3.78c.19.97,1.29,1.46,2.14.95l3.57-2.11c1.03-.61.9-2.14-.21-2.57l-4.32-1.67c-1.05-.41-2.14.51-1.92,1.62Z"/>
          <path class="cls-5" d="m39.3,165.86c1.92-1.69,3.34-4.29,3.37-7.86.01-1.76-1.56-3.17-3.3-2.97-2.8.33-5.4-.68-6.66-2.94-1.47-2.65-.14-4.91-.64-8.08-1.6-1.8-3.16-4.58-2.84-5.81-3.37-4.27-8-6.04-12.51-6.15v-.03c-2.66.42-2.2,8.2,2.5,15.96,4.7,7.76,11.96,16.94,20.07,17.88h0Z"/>
          <path class="cls-3" d="m36.13,129.82c3.69,8.16,15.43,17.6,18.24,19.22,0,0,14.17-12.37,20.79-14.73-6.67-11.27-15.1-17.89-21.83-17.59,0,0-11.47,7.35-17.2,13.1Z"/>
        </g>
        <g>
          <path class="cls-3" d="m122.78,130.83c-5.02,0-9.88-.8-13.94-2.22-11.61-4.07-21.93-16.82-25.2-26.8-1.18-3.62-.77-7.41,1.14-10.41,1.47-2.32,3.64-4.06,6.28-5.04,4.11-1.54,8.95-.33,12.31,3.07,7.68,7.76,18.06,6.16,23.57,4.52,5.19-1.55,16.89-8.58,19.74-10.38,2.9-1.83,4.49-2.84,4.76-6.12.01-.13-.05-.23-.1-.28-.04-.05-.14-.13-.3-.13-3.28-.05-5.55-.83-6.94-2.4-1.21-1.36-1.67-3.25-1.41-5.76.28-2.78.34-5.12.19-7.6-.07-1.23.67-2.36,1.84-2.83,1.89-.75,3.36-2.27,4.03-4.16,1.75-4.89,3.63-7.81,6.12-9.46.91-.6,2.07-.73,3.09-.33,1.03.4,1.81,1.28,2.08,2.35,1.03,4.06-.64,7.4-4.47,8.94-.62.25-1.32-.05-1.57-.67-.25-.62.05-1.32.67-1.57,3.43-1.38,3.54-4.09,3.03-6.12-.08-.32-.3-.57-.61-.69-.3-.12-.63-.08-.89.09-2.02,1.34-3.62,3.89-5.18,8.26-.91,2.54-2.88,4.58-5.41,5.59-.16.06-.34.22-.33.44.16,2.61.1,5.08-.2,7.99-.19,1.83.07,3.08.82,3.92.91,1.02,2.65,1.56,5.18,1.59.78.01,1.53.35,2.05.92.52.57.78,1.33.71,2.1-.37,4.48-2.8,6.02-5.87,7.96-3.57,2.26-14.97,9.05-20.34,10.65-4.85,1.45-17.09,3.84-25.97-5.14-2.7-2.73-6.53-3.72-9.76-2.51-2.14.8-3.9,2.21-5.09,4.08-1.52,2.39-1.84,5.44-.88,8.37,3.02,9.22,12.94,21.51,23.71,25.28,9.2,3.23,26.69,3.48,36.77-6.06.48-.46,1.25-.44,1.7.05.46.48.44,1.25-.05,1.7-6.56,6.2-16.2,8.81-25.28,8.81Z"/>
          <path class="cls-3" d="m127.28,96.31c-.3,0-.6-.11-.83-.34-2.96-2.84-5.94-6.32-7.92-8.74-1.96-2.4-5.19-3.34-8.03-2.34-3.17,1.11-5.86,3.4-6.87,5.84-.25.61-.96.91-1.57.65-.62-.25-.91-.96-.65-1.57,1.27-3.09,4.46-5.85,8.3-7.2,3.79-1.33,8.09-.09,10.69,3.09,1.94,2.37,4.85,5.77,7.73,8.53.48.46.5,1.22.03,1.7-.24.25-.55.37-.87.37Z"/>
          <path class="cls-3" d="m129.89,152.19c-.47,0-.93-.01-1.4-.03-17.89-.79-26.28-23.61-27.78-28.17-.21-.63.14-1.31.77-1.52.63-.21,1.31.14,1.52.77,1.41,4.3,9.29,25.8,25.6,26.52,13.02.57,30.5-8.92,38.25-31.11,3.28-9.4,3.47-15.02,2.66-24.07-.33-3.62-.85-6.53-1.31-9.09-.22-1.22-.42-2.34-.57-3.38-.59-4.05,1.96-7.81,5.94-8.76.27-.07.56-.14.86-.24l.34-.11c2.68-.86,6.72-2.16,8.95-5.09,1.79-2.36,2.65-7.83-.38-11.98-.13-.18-.21-.4-.23-.62-.4-5.25-3.34-8.02-8.73-8.23-.46-.02-.86-.29-1.05-.71-1.33-2.92-3.62-3.84-7.24-2.89-.34.09-.7.03-.99-.17-2.15-1.48-4.54-1.75-6.56-.76-1.74.85-2.93,2.55-3.03,4.33-.04.66-.59,1.19-1.27,1.14-.66-.04-1.17-.6-1.14-1.27.15-2.67,1.82-5.1,4.37-6.36,2.68-1.31,5.75-1.08,8.52.64,5.17-1.16,7.83,1.2,9.19,3.69,6.07.48,9.7,4.03,10.29,10.07,3.64,5.28,2.27,11.78.15,14.58-2.69,3.54-7.17,4.98-10.13,5.93l-.34.11c-.36.12-.71.21-1.04.29-2.75.66-4.52,3.26-4.11,6.07.15,1.02.35,2.11.56,3.3.47,2.62,1.01,5.58,1.34,9.3.83,9.21.62,15.32-2.78,25.08-3.1,8.88-8.52,17.05-15.26,22.99-7.26,6.4-15.52,9.76-23.97,9.76Z"/>
          <path class="cls-3" d="m165.63,58.83c-.31,0-.61-.14-.8-.41-.06-.08-1.11-1.55-1.67-3.78-1.02,1.12-2.34,2.15-4.54,3.18-.5.23-1.09.02-1.32-.48-.23-.5-.02-1.09.48-1.32,2.94-1.38,3.98-2.64,5.24-4.39.25-.35.69-.5,1.1-.37.41.12.69.5.7.92.08,2.89,1.61,5.04,1.62,5.07.32.44.22,1.06-.22,1.38-.18.13-.38.19-.58.19Z"/>
          <path class="cls-3" d="m162.52,72.56c-.1,0-.19,0-.29,0-.67-.02-1.19-.58-1.16-1.25.02-.66.59-1.18,1.25-1.16,1.27.04,3.65-.38,5.05-1.74.71-.69,1.05-1.5,1.05-2.49,0-1.3-.46-2.26-1.37-2.87-1.18-.8-2.98-.87-4.69-.18-.62.25-1.32-.05-1.57-.67s.05-1.32.67-1.57c2.44-.98,5.1-.81,6.93.42,1.56,1.05,2.42,2.78,2.43,4.86,0,1.64-.61,3.1-1.78,4.23-1.74,1.69-4.47,2.42-6.52,2.42Z"/>
          <path class="cls-3" d="m169.86,78.48c-.16,0-.33-.03-.49-.1-2.84-1.26-5.08-4.89-5.3-7.36-.06-.66.43-1.25,1.09-1.31.66-.06,1.25.43,1.31,1.09.16,1.72,1.92,4.5,3.88,5.37.61.27.88.98.61,1.59-.2.45-.64.72-1.1.72Z"/>
          <path class="cls-3" d="m158.95,88.11c-5.52,0-10.65-.83-12.07-3.3-.33-.58-.13-1.31.45-1.64.58-.33,1.31-.13,1.64.45,1.13,1.96,10.26,2.92,20.35,1.22.66-.11,1.28.33,1.39.99.11.66-.33,1.28-.99,1.39-3.07.52-7.01.9-10.77.9Z"/>
          <path class="cls-3" d="m153.1,58.18c-.05,0-.1,0-.16-.02-.38-.09-.62-.46-.54-.85.28-1.26.16-2.21-.34-2.62-.38-.31-1-.3-1.67,0-.35.16-.78.01-.94-.35-.16-.35,0-.78.35-.94,1.17-.54,2.35-.47,3.15.18.55.44,1.39,1.56.84,4.03-.07.33-.37.55-.69.55Z"/>
          <path class="cls-3" d="m144.95,69.05c-.42,0-.88-.06-1.31-.24-.43-.18-.63-.68-.45-1.12.18-.43.68-.63,1.12-.45.35.15,1.02.14,1.61-.04.45-.13.92.13,1.05.58.13.45-.13.92-.58,1.05-.23.07-.79.21-1.44.21Z"/>
          <path class="cls-3" d="m107.06,157.12c-4.28,0-8.6-.76-12.47-2.32-7.81-3.17-12.88-7.66-18.09-16.03l-1.33-2.14c-6.07-9.79-8.34-13.45-15.07-16.58-6.22-2.89-17.49-3.97-29.4-2.81-3.28.32-6.42-1.42-7.82-4.33-2.91-6.07-3.21-14.11-.74-20.01,1.38-3.3,4.34-5.8,7.9-6.69,21.28-5.3,42.32-1.95,54.92,8.75.51.43.57,1.19.14,1.7-.43.51-1.19.57-1.7.14-12.02-10.2-32.24-13.37-52.77-8.25-2.83.71-5.17,2.68-6.26,5.28-2.22,5.3-1.94,12.55.69,18.04.96,2,3.13,3.2,5.41,2.98,12.5-1.22,23.96-.09,30.65,3.02,7.39,3.44,9.94,7.55,16.11,17.5l1.32,2.13c4.91,7.89,9.67,12.12,16.95,15.07,9.26,3.75,21.78,2.4,28.5-3.09.52-.42,1.27-.34,1.69.17.42.52.34,1.27-.17,1.69-4.62,3.77-11.49,5.78-18.46,5.78Z"/>
          <path class="cls-3" d="m40.11,116.56c-.36,0-.7-.19-.88-.53-6.95-13.19-3.72-27.01,3.65-31.65.46-.29,1.08-.15,1.37.31.29.46.15,1.08-.31,1.37-6.48,4.08-9.29,17.01-2.95,29.05.26.48.07,1.08-.42,1.34-.15.08-.31.11-.46.11Z"/>
          <path class="cls-3" d="m15.46,118.29c-4.22,0-8.2-2.33-10.14-6.21-1.35-2.69-2.5-5.97-3.4-9.75-.03-.13-3.15-13.58-1.37-21.7,1.92-8.74,7.46-9.68,9.76-9.68,7.63,0,13.48,12.18,14.78,20.97.1.66-.36,1.27-1.02,1.37-.66.1-1.27-.36-1.37-1.02-1.31-8.93-6.9-18.91-12.4-18.91-2.13,0-5.92,1.01-7.41,7.79-1.4,6.37.56,17.3,1.36,20.62.86,3.6,1.94,6.7,3.21,9.23,1.91,3.8,6.31,5.71,10.46,4.54,2.42-.68,4.7-1.52,6.79-2.48.6-.28,1.32-.02,1.6.59.28.6.02,1.32-.59,1.6-2.2,1.02-4.61,1.9-7.15,2.61-1.04.29-2.09.43-3.12.43Z"/>
          <path class="cls-3" d="m18.91,117.5c-.07,0-.15,0-.23-.03-9.14-2.13-10.57-11.87-12.08-22.18l-.18-1.22c-1.24-8.41-1.07-14.14.55-17.53.83-1.74,2.4-3.06,4.19-3.53,1.72-.45,3.53-.09,5.11,1.02,2.48,1.74,4.73,5.87,5.66,8.04.22.5-.01,1.09-.52,1.3-.5.22-1.09-.01-1.3-.52-1.1-2.56-3.14-5.9-4.98-7.2-1.11-.78-2.3-1.02-3.46-.72-1.24.32-2.32,1.25-2.9,2.47-1.42,2.97-1.54,8.49-.38,16.38l.18,1.22c1.47,10.04,2.75,18.71,10.57,20.53.53.12.87.66.74,1.19-.11.46-.51.77-.97.77Z"/>
          <path class="cls-3" d="m22.34,112.91c-2.59,0-5.06-1.4-6.46-3.75-1.84-3.09-1.64-7.4-.63-10.29.66-1.89,2.51-3.1,4.61-3.03.71.03,1.4-.07,1.93-.27.62-.23,1.32.08,1.55.7.24.62-.08,1.32-.7,1.55-1.06.4-2.14.45-2.87.43-1.03-.05-1.94.53-2.25,1.41-.82,2.37-.94,5.96.42,8.27,1.14,1.92,3.31,2.91,5.4,2.47.65-.14,1.29.27,1.43.92.14.65-.27,1.29-.92,1.43-.5.11-1.01.16-1.51.16Z"/>
          <path class="cls-3" d="m94.4,88.1s-.08,0-.12,0c-.66-.07-1.14-.66-1.08-1.32.04-.35.11-.75.19-1.2.37-1.97.88-4.66-1.35-8.26-1.58-2.55-2.73-4.77-3.43-6.19-.16-.33-.44-.56-.78-.67-.34-.11-.7-.07-1.01.1-.6.33-.84,1.07-.55,1.69l1.84,3.93c.28.6.02,1.32-.58,1.6-.6.28-1.32.02-1.6-.58l-1.84-3.93c-.83-1.76-.14-3.88,1.57-4.82.9-.49,1.93-.6,2.9-.29.98.31,1.77.99,2.22,1.91.67,1.37,1.79,3.51,3.31,5.98,2.72,4.4,2.06,7.89,1.67,9.97-.07.38-.14.71-.17,1-.06.62-.59,1.08-1.2,1.08Z"/>
          <path class="cls-3" d="m84.93,94.93c-.28,0-.57-.1-.8-.3l-.08-.08c-1.78-1.58-5.09-4.51-7.29-6.83-1.76-1.87-2.07-4.09-.83-5.95.29-.43.3-1.05.04-1.63-1.06-2.29-.31-3.82.23-4.53.22-.29.71-1.05.43-1.86-.38-1.1-.93-2.81-1.39-4.69-1.1-4.49.56-6.11,4.44-7.87.61-.27,1.32,0,1.59.6.27.61,0,1.32-.6,1.59-3.33,1.5-3.79,2.27-3.1,5.1.44,1.79.96,3.42,1.33,4.47.47,1.35.18,2.85-.79,4.11-.38.49-.37,1.18.04,2.05.62,1.33.53,2.86-.22,3.99-.6.89-.4,1.91.58,2.95,2.12,2.24,5.38,5.13,7.13,6.68l.08.08c.5.44.54,1.2.1,1.7-.24.27-.57.41-.9.41Z"/>
          <path class="cls-3" d="m85.11,73.79h-.4c-2.05-.02-3.78-1.51-4.11-3.54l-1.66-10.29c-.2-1.23.15-2.47.97-3.42.81-.94,1.99-1.48,3.24-1.46l20.8.27c2,.03,3.72,1.48,4.08,3.45l1.19,6.54c.12.65-.31,1.28-.97,1.4s-1.28-.31-1.4-.97l-1.19-6.54c-.15-.84-.89-1.46-1.74-1.47l-20.8-.27c-.53,0-1.03.22-1.38.62-.35.4-.5.93-.41,1.46l1.66,10.29c.14.87.88,1.5,1.75,1.51h.39c.67.01,1.2.56,1.19,1.22,0,.66-.54,1.19-1.2,1.19Z"/>
          <path class="cls-3" d="m105.76,73.99s-.03,0-.04,0l-14.95-.15c-.67,0-1.2-.55-1.19-1.22,0-.66.54-1.19,1.2-1.19h.01l14.95.15c.64.01,1.14-.27,1.49-.76.38-.54,1.13-.67,1.68-.29.54.38.67,1.13.29,1.68-.79,1.12-2.07,1.79-3.44,1.79Z"/>
          <path class="cls-3" d="m115.34,84.89s-.07,0-.1,0c-.66-.05-1.16-.64-1.1-1.3.39-4.77-.26-6.51-1.55-9.97l-.4-1.07c-.92-2.49-1.32-4.67-1.5-6.06-.05-.43-.43-.75-.87-.75-.48,0-.88.39-.88.88,0,1.07.08,2.75.44,4.67.19,1.01-.05,2.07-.68,2.99-1.22,1.77-1.36,4.44-.29,5.59.45.49.43,1.25-.06,1.7-.49.46-1.25.43-1.7-.06-1.86-2-1.83-5.86.07-8.6.26-.38.37-.79.3-1.17-.32-1.68-.48-3.4-.48-5.12,0-1.81,1.48-3.29,3.29-3.29,1.65,0,3.05,1.23,3.26,2.85.16,1.26.53,3.25,1.37,5.53l.39,1.06c1.37,3.68,2.13,5.71,1.7,11.01-.05.63-.58,1.11-1.2,1.11Z"/>
          <path class="cls-3" d="m101.72,78.18c-1.5,0-3.05-.59-3.61-.82-1.09-.46-1.85-1.31-2.14-2.4-.28-1.04-.07-2.21.52-2.98.41-.53,1.16-.62,1.69-.21.53.41.62,1.16.21,1.69-.09.11-.21.49-.1.89.1.36.34.62.74.79,1.51.63,2.83.75,3.31.54.07-.03.08-.05.08-.06.12-.33.12-.61-.01-.85-.19-.36-.67-.65-1.31-.8-.65-.15-1.05-.8-.9-1.45.15-.65.8-1.05,1.45-.9,1.33.31,2.36,1.03,2.89,2.01.46.85.51,1.86.15,2.83-.24.65-.72,1.15-1.38,1.43-.48.21-1.03.29-1.58.29Z"/>
          <path class="cls-3" d="m102.19,82.1c-1.5,0-3.07-.43-4.03-1.01-.99-.6-1.62-1.53-1.8-2.62-.18-1.13.17-2.33.92-3.2.44-.5,1.2-.56,1.7-.12.5.44.56,1.2.12,1.7-.29.34-.43.82-.37,1.25.06.39.29.71.67.94.88.53,2.81.87,3.91.51.12-.04.4-.15.46-.31.09-.22.08-.39-.03-.57-.21-.37-.71-.64-1.07-.68-.66-.09-1.12-.69-1.04-1.35.09-.66.69-1.13,1.35-1.04,1.16.15,2.27.88,2.84,1.86.48.83.55,1.79.18,2.69-.22.55-.74,1.29-1.94,1.69-.58.19-1.23.28-1.89.28Z"/>
          <path class="cls-3" d="m101.15,84.79c-.71,0-1.47-.11-2.25-.34-1.68-.5-2.79-1.57-3.04-2.94-.22-1.22.29-2.51,1.3-3.28.53-.4,1.29-.3,1.69.23.4.53.3,1.29-.23,1.69-.29.22-.45.6-.39.93.08.45.56.82,1.35,1.06,1.29.38,2.53.31,3.08-.18.11-.1.44-.39.29-1.27-.11-.66.33-1.28.99-1.39.66-.11,1.28.33,1.39.99.24,1.42-.14,2.65-1.07,3.48-.77.68-1.86,1.03-3.11,1.03Z"/>
          <path class="cls-3" d="m103.72,89.42c-.13,0-.27-.02-.4-.07-3.06-1.07-4.58-3.99-5.21-5.63-.24-.62.07-1.32.69-1.56.62-.24,1.32.07,1.56.69.48,1.25,1.61,3.47,3.75,4.22.63.22.96.91.74,1.53-.17.5-.64.81-1.14.81Z"/>
          <path class="cls-3" d="m93.52,68.82c-.34,0-.67-.07-.99-.21-.72-.32-1.24-.97-1.39-1.74l-.76-3.78c-.17-.87.14-1.76.82-2.33.68-.57,1.61-.73,2.44-.41l4.32,1.67c.88.34,1.47,1.13,1.54,2.06.08.93-.38,1.81-1.18,2.29l-3.57,2.11c-.38.22-.81.34-1.24.34Zm-.76-6.64c-.13,0-.23.06-.28.11-.07.06-.19.2-.15.42h0l.76,3.78c.04.19.18.28.25.32.08.04.23.08.4-.02l3.57-2.11c.21-.12.22-.31.21-.42,0-.1-.06-.29-.28-.38l-4.32-1.67c-.06-.02-.11-.03-.16-.03Z"/>
          <path class="cls-3" d="m45.56,156.98c-1.2,0-2.4-.38-3.42-1.16-4.41-3.38-10.26-9.2-13.38-14.57-1.19-2.05-.89-4.72.74-6.49,7.1-7.7,17.55-16.28,23.29-19.12.6-.29,1.32-.05,1.61.55.29.6.05,1.32-.55,1.61-5.52,2.73-15.65,11.07-22.58,18.59-.92,1-1.1,2.5-.43,3.65,2.52,4.33,7.76,10.04,12.76,13.87,1.29.99,3.12.86,4.25-.31,6.6-6.83,20.02-17.9,26.89-20.42.62-.23,1.32.09,1.54.72.23.62-.09,1.32-.72,1.54-5.95,2.18-18.85,12.45-25.98,19.83-1.09,1.13-2.55,1.71-4.02,1.71Z"/>
          <path class="cls-3" d="m54.36,150.25c-.23,0-.46-.07-.67-.2-6.75-4.52-15.7-14.43-18.62-19.63-.33-.58-.12-1.31.46-1.64.58-.33,1.31-.12,1.64.46,2.48,4.42,11.07,14.26,17.86,18.81.55.37.7,1.12.33,1.67-.23.35-.61.53-1,.53Z"/>
          <path class="cls-3" d="m39.29,166.85s-.08,0-.12,0c-8.61-1-16.06-10.53-20.8-18.35-3.59-5.92-5.2-12.73-3.75-15.86.53-1.15,1.35-1.5,1.94-1.59.55-.09,1.05.29,1.13.83.09.54-.28,1.05-.83,1.13-.16.03-.31.18-.45.47-.85,1.82-.27,7.53,3.64,13.99,4.51,7.44,11.52,16.5,19.33,17.41.54.06.93.56.87,1.1-.06.51-.49.88-.98.88Z"/>
          <path class="cls-3" d="m33.07,169.52c-.67,0-1.33-.08-1.94-.24-6.28-1.66-13.42-10.36-17.71-18.24-5.13-9.43-5.44-16.23-.87-19.16,4.41-2.82,12.63.55,17.54,5.47.47.47.47,1.23,0,1.7-.47.47-1.23.47-1.7,0-4.61-4.61-11.53-7.06-14.54-5.14-3.26,2.09-2.63,8.06,1.68,15.98,4.78,8.79,11.45,15.8,16.21,17.06,1.55.41,4.09.07,6.28-1.6,1.55-1.18,3.4-3.42,3.44-7.35,0-.49-.21-.98-.6-1.32-.38-.34-.87-.5-1.36-.45-3.4.39-6.41-.97-7.85-3.56-1.21-2.18-1.04-4.08-.87-5.92.08-.9.16-1.74.08-2.64-.05-.66.44-1.24,1.1-1.3.65-.05,1.24.44,1.3,1.1.09,1.11,0,2.1-.09,3.05-.15,1.68-.27,3.01.58,4.54.97,1.75,3.01,2.62,5.46,2.33,1.17-.13,2.35.24,3.25,1.05.9.8,1.41,1.95,1.4,3.13-.03,3.83-1.59,7.11-4.38,9.25-1.9,1.45-4.26,2.26-6.42,2.26Z"/>
          <g>
            <circle class="cls-1" cx="114.89" cy="23.8" r="22.6"/>
            <g>
              <ellipse class="cls-7" cx="110.5" cy="28.53" rx="4.15" ry="3.17" transform="translate(-1.78 48.97) rotate(-24.8)"/>
              <path class="cls-3" d="m117.33,18.41c1.58,2.5,3.85,3.48,6.83,4.07l1.06-2.21c-3.07-.56-4.4-1.43-6.73-4.56l-1.16,2.7Z"/>
              <path class="cls-3" d="m109.71,33.09c-1.79,0-3.39-.83-4.08-2.32-1.01-2.19.35-4.98,3.03-6.22,1.24-.58,2.6-.74,3.82-.47,1.32.29,2.37,1.1,2.88,2.2.51,1.1.44,2.42-.19,3.61-.58,1.1-1.59,2.03-2.83,2.61h0c-.87.4-1.77.59-2.62.59Zm2.12-1.68h0,0Zm-.52-5.04c-.53,0-1.1.13-1.64.37-1.45.67-2.3,2.05-1.85,3.02.45.97,2.05,1.22,3.5.55h0c.76-.35,1.38-.91,1.71-1.54.16-.31.4-.91.13-1.48s-.87-.78-1.21-.86c-.21-.05-.42-.07-.65-.07Z"/>
              <path class="cls-3" d="m114.26,27.99c-.14,0-.29-.03-.43-.08-.62-.24-.93-.93-.7-1.55l4.22-11.08c.24-.62.94-.94,1.55-.7.62.24.93.93.7,1.55l-4.22,11.08c-.18.48-.64.78-1.13.78Z"/>
              <path class="cls-3" d="m124.16,23.69c-.08,0-.16,0-.24-.02-2.97-.6-5.6-2.2-7.41-4.53-.41-.53-.31-1.28.21-1.69.53-.41,1.28-.31,1.69.21.32.41.66.79,1.04,1.13-.71-.7-1.34-1.5-1.96-2.39-.38-.55-.25-1.3.3-1.68s1.3-.25,1.68.3c1.84,2.64,3.38,3.74,5.89,4.2.37.07.69.3.86.64.17.33.18.73.01,1.07l-.99,2.07c-.2.42-.63.68-1.09.68Z"/>
            </g>
            <path class="cls-3" d="m114.89,47.6c-13.12,0-23.8-10.68-23.8-23.8S101.77,0,114.89,0s23.8,10.68,23.8,23.8-10.68,23.8-23.8,23.8Zm0-45.19c-11.8,0-21.39,9.6-21.39,21.39s9.6,21.39,21.39,21.39,21.39-9.6,21.39-21.39S126.69,2.41,114.89,2.41Z"/>
            <path class="cls-3" d="m131.33,51.81c-.36,0-.71-.16-.95-.46l-5.53-7.01c-.41-.52-.32-1.28.2-1.69.52-.41,1.28-.32,1.69.2l5.53,7.01c.41.52.32,1.28-.2,1.69-.22.17-.48.26-.75.26Z"/>
          </g>
          <g>
            <path class="cls-1" d="m65.86,41.24c-.84,0-1.67-.37-2.23-1.08l-10.03-12.68c-.97-1.23-.76-3.01.47-3.98,1.23-.97,3.01-.76,3.98.47l10.03,12.68c.97,1.23.76,3.01-.47,3.98-.52.41-1.14.61-1.76.61Z"/>
            <path class="cls-3" d="m65.86,42.44c-1.24,0-2.4-.56-3.17-1.53l-10.03-12.68c-1.38-1.75-1.08-4.29.66-5.67,1.75-1.38,4.29-1.08,5.67.66l10.03,12.68c1.38,1.75,1.08,4.29-.66,5.67-.71.56-1.6.87-2.5.87Zm-10.03-18.35c-.35,0-.71.11-1.01.35-.7.56-.82,1.58-.27,2.29l10.03,12.68c.54.68,1.6.81,2.29.27.7-.56.82-1.58.27-2.29l-10.03-12.68c-.32-.41-.8-.62-1.28-.62Z"/>
          </g>
          <g>
            <path class="cls-1" d="m60.02,51.49c-.45,0-.9-.11-1.32-.33l-18.89-9.96c-1.38-.73-1.92-2.45-1.18-3.83.73-1.39,2.44-1.92,3.83-1.18l18.89,9.96c1.38.73,1.92,2.45,1.18,3.83-.51.96-1.49,1.51-2.51,1.51Z"/>
            <path class="cls-3" d="m60.02,52.7c-.65,0-1.3-.16-1.88-.47l-18.89-9.97c-1.97-1.04-2.73-3.49-1.69-5.46.5-.95,1.35-1.66,2.38-1.97,1.03-.32,2.12-.22,3.08.29l18.89,9.96c1.97,1.04,2.73,3.49,1.69,5.46-.7,1.33-2.07,2.16-3.58,2.16Zm-18.89-15.64c-.16,0-.32.02-.48.07-.42.13-.76.41-.96.8-.42.8-.11,1.78.68,2.2l18.89,9.96c.78.41,1.8.09,2.2-.68.42-.79.11-1.78-.68-2.2l-18.89-9.96c-.24-.13-.5-.19-.76-.19Z"/>
          </g>
          <g>
            <path class="cls-1" d="m54.37,62.96c-.16,0-.31-.01-.47-.04l-15.75-2.65c-1.54-.26-2.58-1.72-2.32-3.27s1.72-2.59,3.27-2.32l15.75,2.65c1.54.26,2.58,1.72,2.32,3.27-.23,1.38-1.43,2.36-2.79,2.36Z"/>
            <path class="cls-3" d="m54.37,64.17c-.22,0-.45-.02-.67-.06l-15.75-2.65c-1.06-.18-1.99-.76-2.62-1.64-.63-.88-.87-1.95-.69-3.01.18-1.07.76-2,1.65-2.62.88-.62,1.95-.87,3.01-.69l15.74,2.65c1.06.18,1.99.76,2.62,1.64.63.88.87,1.95.69,3.01-.33,1.95-2,3.37-3.98,3.37Zm-15.75-8.32c-.33,0-.66.1-.94.3-.36.25-.59.63-.66,1.06-.07.43.03.86.28,1.22.25.35.63.59,1.06.66l15.75,2.65c.9.15,1.73-.46,1.88-1.34.07-.43-.03-.86-.28-1.22-.25-.35-.63-.59-1.06-.66l-15.75-2.65c-.09-.02-.18-.02-.28-.02Z"/>
          </g>
          <path class="cls-3" d="m104.92,141.24c-.53,0-.97-.41-.99-.95-.03-.55.4-1.01.94-1.04.44-.02.89-.06,1.34-.11.54-.06,1.04.33,1.1.87.06.54-.33,1.04-.87,1.1-.5.06-1,.1-1.48.12-.02,0-.03,0-.05,0Zm-5.6-.64c-.09,0-.19-.01-.28-.04-.48-.14-.96-.3-1.42-.48-.51-.2-.76-.77-.56-1.29.2-.51.77-.76,1.29-.56.41.16.83.3,1.26.43.53.15.83.71.67,1.23-.13.43-.52.71-.95.71Zm-6.2-3.32c-.22,0-.44-.07-.62-.22-.38-.31-.76-.63-1.12-.96-.41-.37-.44-1-.07-1.4.37-.41.99-.44,1.4-.07.34.31.68.6,1.03.88.43.34.5.97.15,1.4-.2.24-.48.37-.77.37Zm-4.91-5.09c-.29,0-.58-.13-.78-.38-.3-.38-.59-.76-.88-1.15-.33-.44-.24-1.06.2-1.39.44-.33,1.06-.24,1.39.2.28.37.56.74.85,1.1.34.43.27,1.05-.16,1.39-.18.14-.4.21-.62.21Zm-4.07-5.8c-.33,0-.65-.16-.83-.45-.26-.4-.51-.8-.77-1.2-.29-.46-.16-1.08.31-1.37.46-.29,1.08-.16,1.37.31.25.4.51.8.76,1.19.3.46.16,1.07-.3,1.37-.17.11-.35.16-.54.16Zm-3.78-6c-.33,0-.65-.16-.84-.46-.25-.4-.51-.79-.76-1.19-.3-.46-.17-1.07.29-1.37.46-.3,1.07-.17,1.37.29.26.4.51.8.77,1.2.29.46.16,1.08-.31,1.37-.17.1-.35.15-.53.15Zm-4.07-5.79c-.28,0-.56-.12-.76-.35-.3-.35-.6-.69-.91-1.02-.37-.4-.35-1.03.05-1.4.4-.37,1.03-.35,1.4.05.33.35.65.72.97,1.09.35.42.3,1.04-.11,1.4-.19.16-.42.24-.64.24Zm-5.18-4.81c-.2,0-.41-.06-.58-.19-.37-.27-.74-.53-1.12-.78-.46-.3-.58-.92-.28-1.37.3-.46.92-.58,1.37-.28.41.27.81.54,1.2.83.44.32.54.94.22,1.39-.19.27-.5.41-.8.41Zm-6.16-3.46c-.13,0-.26-.02-.38-.08-.42-.18-.85-.35-1.28-.51-.51-.19-.78-.76-.58-1.28.19-.51.76-.77,1.28-.58.46.17.91.35,1.36.54.5.21.74.79.53,1.3-.16.38-.53.61-.92.61Zm-6.77-2.07c-.07,0-.13,0-.2-.02-.45-.09-.9-.18-1.36-.26-.54-.09-.9-.61-.81-1.15s.61-.9,1.15-.81c.48.08.95.17,1.42.27.54.11.88.63.77,1.17-.1.47-.51.79-.97.79Zm-15.52-.71c-.51,0-.94-.39-.99-.91-.05-.55.36-1.03.91-1.07.48-.04.96-.08,1.43-.11.55-.03,1.02.38,1.05.93.04.55-.38,1.02-.93,1.05-.46.03-.93.06-1.4.1-.03,0-.06,0-.08,0Zm8.5-.17s-.03,0-.05,0c-.46-.02-.93-.04-1.39-.05-.55-.01-.98-.47-.97-1.02.01-.55.46-1,1.02-.97.48.01.96.03,1.44.06.55.03.97.49.94,1.04-.03.53-.47.94-.99.94Z"/>
          <ellipse class="cls-3" cx="149.42" cy="58.42" rx="1.8" ry="1.38" transform="translate(48.12 182.83) rotate(-72.2)"/>
          <path class="cls-3" d="m145.06,116.99c-.36,0-.7-.21-.85-.56-2.03-4.75-6.48-13.22-9.61-17.8-.29-.42-.18-.99.24-1.28.42-.29.99-.18,1.28.24,3.2,4.66,7.73,13.29,9.79,18.12.2.47-.02,1.01-.48,1.21-.12.05-.24.07-.36.07Z"/>
        </g>
      </g>
      <g>
        <g>
          <path class="cls-2" d="m76.22,11.29l-5.02,5.02c-.95.95-.52,2.58.79,2.93l6.86,1.84c1.3.35,2.49-.84,2.15-2.15l-1.84-6.86c-.35-1.3-1.98-1.74-2.93-.79Z"/>
          <path class="cls-4" d="m79.3,22.13c-.24,0-.48-.03-.72-.1l-6.86-1.84c-.96-.26-1.68-.98-1.94-1.94-.26-.96,0-1.95.71-2.65l5.02-5.02c.7-.7,1.69-.97,2.65-.71.96.26,1.68.98,1.94,1.94l1.84,6.86c.26.96,0,1.95-.71,2.65-.53.53-1.21.81-1.93.81Zm-1.86-10.37c-.15,0-.35.04-.53.22l-5.02,5.02c-.28.28-.23.61-.2.73.03.13.15.43.54.54l6.86,1.84c.38.1.64-.1.73-.2.09-.09.3-.35.2-.73l-1.84-6.86c-.1-.38-.41-.5-.54-.54-.05-.01-.12-.03-.2-.03Z"/>
        </g>
        <g>
          <path class="cls-7" d="m107.43,167.16l-.52,7.08c-.1,1.34,1.29,2.29,2.51,1.71l6.4-3.09c1.21-.59,1.34-2.27.22-3.03l-5.87-4c-1.11-.76-2.63-.03-2.73,1.32Z"/>
          <path class="cls-4" d="m108.65,177.12c-.54,0-1.07-.16-1.54-.48-.82-.56-1.27-1.48-1.19-2.47l.52-7.08c.07-.99.65-1.84,1.54-2.27.89-.43,1.92-.36,2.74.2l5.87,4c.82.56,1.27,1.48,1.19,2.47-.07.99-.65,1.84-1.54,2.27l-6.4,3.09c-.38.19-.79.28-1.2.28Zm.54-10.59c-.15,0-.27.05-.34.08-.12.06-.4.23-.43.63h0l-.52,7.08c-.03.39.22.61.33.68.11.07.4.23.76.06l6.4-3.09c.36-.17.42-.5.43-.63s0-.46-.33-.68l-5.87-4c-.15-.1-.29-.13-.42-.13Zm-1.75.63h0,0Z"/>
        </g>
        <g>
          <circle class="cls-1" cx="127.61" cy="65.72" r="4.28"/>
          <path class="cls-4" d="m127.61,70.99c-2.91,0-5.27-2.36-5.27-5.27s2.36-5.27,5.27-5.27,5.27,2.36,5.27,5.27-2.36,5.27-5.27,5.27Zm0-8.56c-1.81,0-3.29,1.47-3.29,3.29s1.47,3.29,3.29,3.29,3.29-1.47,3.29-3.29-1.47-3.29-3.29-3.29Z"/>
        </g>
        <g>
          <circle class="cls-2" cx="69.34" cy="199.78" r="3.93"/>
          <path class="cls-4" d="m69.33,204.71c-2.72,0-4.92-2.21-4.92-4.92s2.21-4.93,4.92-4.93,4.93,2.21,4.93,4.93-2.21,4.92-4.93,4.92Zm0-7.87c-1.62,0-2.94,1.32-2.94,2.94s1.32,2.94,2.94,2.94,2.94-1.32,2.94-2.94-1.32-2.94-2.94-2.94Z"/>
        </g>
        <g>
          <rect class="cls-7" x="24.08" y="66.6" width="9.89" height="9.89" rx="1.32" ry="1.32" transform="translate(59.09 .43) rotate(45)"/>
          <path class="cls-4" d="m29.03,78.98c-.62,0-1.2-.24-1.63-.68h0s-5.12-5.12-5.12-5.12c-.44-.44-.68-1.02-.68-1.63s.24-1.2.68-1.64l5.12-5.12c.87-.87,2.4-.87,3.27,0l5.12,5.12c.44.44.68,1.02.68,1.64s-.24,1.2-.68,1.63l-5.12,5.12c-.44.44-1.02.68-1.64.68Zm0-12.89c-.05,0-.15.01-.23.1l-5.12,5.12c-.08.08-.1.18-.1.23s.01.15.1.23l5.12,5.12h0c.17.17.3.17.46,0l5.12-5.12c.08-.08.1-.18.1-.23s-.01-.15-.1-.23l-5.12-5.12c-.08-.08-.18-.1-.23-.1Z"/>
        </g>
        <g>
          <path class="cls-1" d="m74.98,175.64c-1.17,0-2.23-.81-2.49-2-.25-1.15-.99-3.35-3.07-5.12-2.26-1.92-4.81-2.2-5.8-2.23-1.41-.04-2.52-1.22-2.48-2.62.04-1.41,1.23-2.5,2.62-2.48,1.9.06,5.6.58,8.96,3.44,3.22,2.74,4.35,6.13,4.74,7.9.3,1.38-.57,2.74-1.94,3.04-.18.04-.37.06-.55.06Z"/>
          <path class="cls-4" d="m74.98,176.63c-1.65,0-3.1-1.17-3.46-2.78-.23-1.03-.88-2.99-2.74-4.58-2.02-1.72-4.3-1.97-5.19-1.99-1.95-.06-3.5-1.69-3.44-3.65.06-1.94,1.7-3.47,3.64-3.44,2.04.06,5.99.62,9.59,3.68,3.44,2.93,4.65,6.55,5.07,8.45.42,1.91-.79,3.8-2.7,4.22-.25.06-.51.08-.76.08Zm-11.27-14.45c-.84,0-1.55.67-1.57,1.51-.02.86.65,1.58,1.51,1.6,1.1.03,3.92.34,6.42,2.46,2.3,1.96,3.11,4.39,3.39,5.66.18.82,1.03,1.37,1.86,1.19.84-.18,1.37-1.02,1.19-1.86-.36-1.65-1.42-4.81-4.42-7.36-3.13-2.67-6.58-3.16-8.35-3.21-.01,0-.02,0-.03,0Z"/>
        </g>
        <g>
          <path class="cls-2" d="m181.14,121.31c-.92,0-1.81-.5-2.26-1.37-.65-1.25-.17-2.79,1.08-3.44l9.25-4.84c1.25-.66,2.79-.17,3.44,1.08.65,1.25.17,2.79-1.08,3.44l-9.25,4.84c-.38.2-.78.29-1.18.29Z"/>
          <path class="cls-4" d="m181.14,122.3c-1.32,0-2.53-.73-3.14-1.9-.44-.84-.53-1.8-.24-2.7.28-.9.9-1.64,1.74-2.08l9.25-4.84c.84-.44,1.79-.53,2.7-.25.91.28,1.65.9,2.09,1.74.44.84.53,1.8.24,2.7-.28.9-.9,1.64-1.74,2.08l-9.25,4.84c-.5.27-1.07.41-1.64.41Zm9.24-9.95c-.25,0-.49.06-.72.18l-9.25,4.85c-.37.19-.64.52-.77.92-.12.4-.09.82.11,1.19.39.74,1.36,1.05,2.1.66l9.25-4.84c.37-.19.64-.52.77-.92.12-.4.09-.82-.11-1.19-.19-.37-.52-.64-.92-.77-.15-.05-.31-.07-.46-.07Z"/>
        </g>
      </g>
    </g>
  </g>
</svg>