<?xml version="1.0" encoding="UTF-8"?>
<svg id="Layer_2" data-name="Layer 2" xmlns="http://www.w3.org/2000/svg" viewBox="0 0 141.66 204.72">
  <defs>
    <style>
      .cls-1 {
        fill: #fff;
      }

      .cls-2 {
        fill: #565656;
      }

      .cls-3 {
        fill: #363636;
      }

      .cls-4 {
        fill: #33b0da;
      }

      .cls-5 {
        fill: #ffc0c0;
      }

      .cls-6 {
        fill: #ffdfbc;
      }
    </style>
  </defs>
  <g id="_背景ドット" data-name="背景ドット">
    <g>
      <path class="cls-1" d="m54.78,54.14c-.33,0-.59.27-.59.59s.27.59.59.59.59-.27.59-.59-.27-.59-.59-.59Z"/>
      <path class="cls-1" d="m58.2,61.69c0,.3.22.53.51.58-.04-.38-.09-.75-.14-1.12-.21.09-.36.3-.36.55Z"/>
      <circle class="cls-1" cx="56.78" cy="58.21" r=".59"/>
      <path class="cls-1" d="m58.72,68.06c-.29.04-.52.28-.52.58,0,.25.16.47.39.55.05-.38.1-.75.13-1.13Z"/>
      <path class="cls-1" d="m54.78,68.04c-.33,0-.59.27-.59.59s.27.59.59.59.59-.27.59-.59-.27-.59-.59-.59Z"/>
      <circle class="cls-1" cx="56.78" cy="65.16" r=".59"/>
      <path class="cls-1" d="m54.78,75c-.33,0-.59.27-.59.59s.27.59.59.59.59-.27.59-.59-.27-.59-.59-.59Z"/>
      <path class="cls-1" d="m57.38,72.11c0-.33-.27-.59-.59-.59s-.59.27-.59.59.27.59.59.59.59-.27.59-.59Z"/>
      <circle class="cls-1" cx="50.76" cy="47.78" r=".59"/>
      <path class="cls-1" d="m52.18,51.26c0,.33.27.59.59.59s.59-.27.59-.59-.27-.59-.59-.59-.59.27-.59.59Z"/>
      <circle class="cls-1" cx="50.76" cy="61.69" r=".59"/>
      <path class="cls-1" d="m52.77,58.8c.33,0,.59-.27.59-.59s-.27-.59-.59-.59-.59.27-.59.59.27.59.59.59Z"/>
      <path class="cls-1" d="m50.76,68.04c-.33,0-.59.27-.59.59s.27.59.59.59.59-.27.59-.59-.27-.59-.59-.59Z"/>
      <path class="cls-1" d="m53.36,65.16c0-.33-.27-.59-.59-.59s-.59.27-.59.59.27.59.59.59.59-.27.59-.59Z"/>
      <path class="cls-1" d="m54.78,62.28c.33,0,.59-.27.59-.59s-.27-.59-.59-.59-.59.27-.59.59.27.59.59.59Z"/>
      <circle class="cls-1" cx="50.76" cy="75.59" r=".59"/>
      <path class="cls-1" d="m52.18,72.11c0,.33.27.59.59.59s.59-.27.59-.59-.27-.59-.59-.59-.59.27-.59.59Z"/>
      <circle class="cls-1" cx="50.76" cy="82.54" r=".59"/>
      <path class="cls-1" d="m52.77,78.47c-.33,0-.59.27-.59.59s.27.59.59.59.59-.27.59-.59-.27-.59-.59-.59Z"/>
      <path class="cls-1" d="m49.35,44.31c0-.33-.27-.59-.59-.59s-.59.27-.59.59.27.59.59.59.59-.27.59-.59Z"/>
      <path class="cls-1" d="m46.75,54.14c-.33,0-.59.27-.59.59s.27.59.59.59.59-.27.59-.59-.27-.59-.59-.59Z"/>
      <circle class="cls-1" cx="48.76" cy="51.26" r=".59"/>
      <path class="cls-1" d="m46.75,61.09c-.33,0-.59.27-.59.59s.27.59.59.59.59-.27.59-.59-.27-.59-.59-.59Z"/>
      <circle class="cls-1" cx="48.76" cy="58.21" r=".59"/>
      <circle class="cls-1" cx="50.76" cy="54.73" r=".59"/>
      <circle class="cls-1" cx="48.76" cy="65.16" r=".59"/>
      <path class="cls-1" d="m48.16,72.11c0,.33.27.59.59.59s.59-.27.59-.59-.27-.59-.59-.59-.59.27-.59.59Z"/>
      <circle class="cls-1" cx="48.76" cy="79.07" r=".59"/>
      <circle class="cls-1" cx="48.76" cy="86.02" r=".59"/>
      <path class="cls-1" d="m42.74,40.24c-.33,0-.59.27-.59.59s.27.59.59.59.59-.27.59-.59-.27-.59-.59-.59Z"/>
      <circle class="cls-1" cx="42.74" cy="47.78" r=".59"/>
      <path class="cls-1" d="m44.74,43.71c-.33,0-.59.27-.59.59s.27.59.59.59.59-.27.59-.59-.27-.59-.59-.59Z"/>
      <path class="cls-1" d="m46.75,41.42s.08-.02.13-.03c-.23-.17-.47-.34-.71-.5.03.3.28.53.58.53Z"/>
      <circle class="cls-1" cx="42.74" cy="54.73" r=".59"/>
      <path class="cls-1" d="m45.34,51.26c0-.33-.27-.59-.59-.59s-.59.27-.59.59.27.59.59.59.59-.27.59-.59Z"/>
      <path class="cls-1" d="m46.16,47.78c0,.33.27.59.59.59s.59-.27.59-.59-.27-.59-.59-.59-.59.27-.59.59Z"/>
      <circle class="cls-1" cx="42.74" cy="61.69" r=".59"/>
      <path class="cls-1" d="m45.34,58.21c0-.33-.27-.59-.59-.59s-.59.27-.59.59.27.59.59.59.59-.27.59-.59Z"/>
      <path class="cls-1" d="m42.74,68.04c-.33,0-.59.27-.59.59s.27.59.59.59.59-.27.59-.59-.27-.59-.59-.59Z"/>
      <path class="cls-1" d="m45.34,65.16c0-.33-.27-.59-.59-.59s-.59.27-.59.59.27.59.59.59.59-.27.59-.59Z"/>
      <circle class="cls-1" cx="42.74" cy="75.59" r=".59"/>
      <path class="cls-1" d="m44.15,72.11c0,.33.27.59.59.59s.59-.27.59-.59-.27-.59-.59-.59-.59.27-.59.59Z"/>
      <path class="cls-1" d="m46.75,69.23c.33,0,.59-.27.59-.59s-.27-.59-.59-.59-.59.27-.59.59.27.59.59.59Z"/>
      <circle class="cls-1" cx="42.74" cy="82.54" r=".59"/>
      <path class="cls-1" d="m44.15,79.07c0,.33.27.59.59.59s.59-.27.59-.59-.27-.59-.59-.59-.59.27-.59.59Z"/>
      <path class="cls-1" d="m46.75,76.18c.33,0,.59-.27.59-.59s-.27-.59-.59-.59-.59.27-.59.59.27.59.59.59Z"/>
      <path class="cls-1" d="m47.04,88.98c-.09-.05-.18-.08-.29-.08-.33,0-.59.27-.59.59,0,.04.01.07.02.11.29-.2.58-.41.86-.62Z"/>
      <circle class="cls-1" cx="42.74" cy="89.49" r=".59"/>
      <path class="cls-1" d="m44.15,86.02c0,.33.27.59.59.59s.59-.27.59-.59-.27-.59-.59-.59-.59.27-.59.59Z"/>
      <path class="cls-1" d="m46.75,83.13c.33,0,.59-.27.59-.59s-.27-.59-.59-.59-.59.27-.59.59.27.59.59.59Z"/>
      <path class="cls-1" d="m38.72,40.24c-.33,0-.59.27-.59.59s.27.59.59.59.59-.27.59-.59-.27-.59-.59-.59Z"/>
      <path class="cls-1" d="m40.73,37.95s.08-.02.12-.03c-.2-.09-.41-.17-.61-.25.11.16.28.28.49.28Z"/>
      <path class="cls-1" d="m38.72,47.19c-.33,0-.59.27-.59.59s.27.59.59.59.59-.27.59-.59-.27-.59-.59-.59Z"/>
      <path class="cls-1" d="m41.32,44.31c0-.33-.27-.59-.59-.59s-.59.27-.59.59.27.59.59.59.59-.27.59-.59Z"/>
      <path class="cls-1" d="m38.72,54.14c-.33,0-.59.27-.59.59s.27.59.59.59.59-.27.59-.59-.27-.59-.59-.59Z"/>
      <path class="cls-1" d="m40.73,50.66c-.33,0-.59.27-.59.59s.27.59.59.59.59-.27.59-.59-.27-.59-.59-.59Z"/>
      <path class="cls-1" d="m38.72,61.09c-.33,0-.59.27-.59.59s.27.59.59.59.59-.27.59-.59-.27-.59-.59-.59Z"/>
      <path class="cls-1" d="m41.32,58.21c0-.33-.27-.59-.59-.59s-.59.27-.59.59.27.59.59.59.59-.27.59-.59Z"/>
      <path class="cls-1" d="m38.72,68.04c-.33,0-.59.27-.59.59s.27.59.59.59.59-.27.59-.59-.27-.59-.59-.59Z"/>
      <path class="cls-1" d="m41.32,65.16c0-.33-.27-.59-.59-.59s-.59.27-.59.59.27.59.59.59.59-.27.59-.59Z"/>
      <path class="cls-1" d="m38.72,75c-.33,0-.59.27-.59.59s.27.59.59.59.59-.27.59-.59-.27-.59-.59-.59Z"/>
      <path class="cls-1" d="m40.14,72.11c0,.33.27.59.59.59s.59-.27.59-.59-.27-.59-.59-.59-.59.27-.59.59Z"/>
      <path class="cls-1" d="m38.72,81.95c-.33,0-.59.27-.59.59s.27.59.59.59.59-.27.59-.59-.27-.59-.59-.59Z"/>
      <path class="cls-1" d="m40.14,79.07c0,.33.27.59.59.59s.59-.27.59-.59-.27-.59-.59-.59-.59.27-.59.59Z"/>
      <path class="cls-1" d="m38.72,88.9c-.33,0-.59.27-.59.59s.27.59.59.59.59-.27.59-.59-.27-.59-.59-.59Z"/>
      <path class="cls-1" d="m40.14,86.02c0,.33.27.59.59.59s.59-.27.59-.59-.27-.59-.59-.59-.59.27-.59.59Z"/>
      <path class="cls-1" d="m40.16,92.87c.3-.12.6-.25.9-.38-.1-.07-.2-.11-.33-.11-.29,0-.52.21-.57.49Z"/>
      <path class="cls-1" d="m34.71,40.24c-.33,0-.59.27-.59.59s.27.59.59.59.59-.27.59-.59-.27-.59-.59-.59Z"/>
      <circle class="cls-1" cx="36.72" cy="37.35" r=".59"/>
      <circle class="cls-1" cx="34.71" cy="47.78" r=".59"/>
      <path class="cls-1" d="m37.31,44.31c0-.33-.27-.59-.59-.59s-.59.27-.59.59.27.59.59.59.59-.27.59-.59Z"/>
      <circle class="cls-1" cx="34.71" cy="54.73" r=".59"/>
      <circle class="cls-1" cx="36.72" cy="51.26" r=".59"/>
      <circle class="cls-1" cx="34.71" cy="61.69" r=".59"/>
      <circle class="cls-1" cx="36.72" cy="58.21" r=".59"/>
      <path class="cls-1" d="m34.71,68.04c-.33,0-.59.27-.59.59s.27.59.59.59.59-.27.59-.59-.27-.59-.59-.59Z"/>
      <circle class="cls-1" cx="36.72" cy="65.16" r=".59"/>
      <circle class="cls-1" cx="34.71" cy="75.59" r=".59"/>
      <path class="cls-1" d="m36.12,72.11c0,.33.27.59.59.59s.59-.27.59-.59-.27-.59-.59-.59-.59.27-.59.59Z"/>
      <circle class="cls-1" cx="34.71" cy="82.54" r=".59"/>
      <circle class="cls-1" cx="36.72" cy="79.07" r=".59"/>
      <circle class="cls-1" cx="34.71" cy="89.49" r=".59"/>
      <circle class="cls-1" cx="36.72" cy="86.02" r=".59"/>
      <path class="cls-1" d="m36.12,92.97c0,.33.27.59.59.59s.59-.27.59-.59-.27-.59-.59-.59-.59.27-.59.59Z"/>
      <path class="cls-1" d="m30.7,40.24c-.33,0-.59.27-.59.59s.27.59.59.59.59-.27.59-.59-.27-.59-.59-.59Z"/>
      <path class="cls-1" d="m33.3,37.35c0-.33-.27-.59-.59-.59s-.59.27-.59.59.27.59.59.59.59-.27.59-.59Z"/>
      <path class="cls-1" d="m30.7,47.19c-.33,0-.59.27-.59.59s.27.59.59.59.59-.27.59-.59-.27-.59-.59-.59Z"/>
      <path class="cls-1" d="m33.3,44.31c0-.33-.27-.59-.59-.59s-.59.27-.59.59.27.59.59.59.59-.27.59-.59Z"/>
      <path class="cls-1" d="m30.7,54.14c-.33,0-.59.27-.59.59s.27.59.59.59.59-.27.59-.59-.27-.59-.59-.59Z"/>
      <path class="cls-1" d="m33.3,51.26c0-.33-.27-.59-.59-.59s-.59.27-.59.59.27.59.59.59.59-.27.59-.59Z"/>
      <path class="cls-1" d="m30.7,61.09c-.33,0-.59.27-.59.59s.27.59.59.59.59-.27.59-.59-.27-.59-.59-.59Z"/>
      <path class="cls-1" d="m33.3,58.21c0-.33-.27-.59-.59-.59s-.59.27-.59.59.27.59.59.59.59-.27.59-.59Z"/>
      <path class="cls-1" d="m30.7,68.04c-.33,0-.59.27-.59.59s.27.59.59.59.59-.27.59-.59-.27-.59-.59-.59Z"/>
      <path class="cls-1" d="m32.11,65.16c0,.33.27.59.59.59s.59-.27.59-.59-.27-.59-.59-.59-.59.27-.59.59Z"/>
      <path class="cls-1" d="m30.7,75c-.33,0-.59.27-.59.59s.27.59.59.59.59-.27.59-.59-.27-.59-.59-.59Z"/>
      <path class="cls-1" d="m32.11,72.11c0,.33.27.59.59.59s.59-.27.59-.59-.27-.59-.59-.59-.59.27-.59.59Z"/>
      <path class="cls-1" d="m30.7,81.95c-.33,0-.59.27-.59.59s.27.59.59.59.59-.27.59-.59-.27-.59-.59-.59Z"/>
      <path class="cls-1" d="m32.11,79.07c0,.33.27.59.59.59s.59-.27.59-.59-.27-.59-.59-.59-.59.27-.59.59Z"/>
      <path class="cls-1" d="m30.7,88.9c-.33,0-.59.27-.59.59s.27.59.59.59.59-.27.59-.59-.27-.59-.59-.59Z"/>
      <path class="cls-1" d="m32.11,86.02c0,.33.27.59.59.59s.59-.27.59-.59-.27-.59-.59-.59-.59.27-.59.59Z"/>
      <path class="cls-1" d="m32.11,92.97c0,.33.27.59.59.59s.59-.27.59-.59-.27-.59-.59-.59-.59.27-.59.59Z"/>
      <path class="cls-1" d="m26.68,40.24c-.33,0-.59.27-.59.59s.27.59.59.59.59-.27.59-.59-.27-.59-.59-.59Z"/>
      <circle class="cls-1" cx="28.69" cy="37.35" r=".59"/>
      <path class="cls-1" d="m26.68,47.19c-.33,0-.59.27-.59.59s.27.59.59.59.59-.27.59-.59-.27-.59-.59-.59Z"/>
      <path class="cls-1" d="m29.28,44.31c0-.33-.27-.59-.59-.59s-.59.27-.59.59.27.59.59.59.59-.27.59-.59Z"/>
      <path class="cls-1" d="m26.68,54.14c-.33,0-.59.27-.59.59s.27.59.59.59.59-.27.59-.59-.27-.59-.59-.59Z"/>
      <circle class="cls-1" cx="28.69" cy="51.26" r=".59"/>
      <path class="cls-1" d="m26.68,61.09c-.33,0-.59.27-.59.59s.27.59.59.59.59-.27.59-.59-.27-.59-.59-.59Z"/>
      <circle class="cls-1" cx="28.69" cy="58.21" r=".59"/>
      <path class="cls-1" d="m26.68,68.04c-.33,0-.59.27-.59.59s.27.59.59.59.59-.27.59-.59-.27-.59-.59-.59Z"/>
      <circle class="cls-1" cx="28.69" cy="65.16" r=".59"/>
      <path class="cls-1" d="m26.68,75c-.33,0-.59.27-.59.59s.27.59.59.59.59-.27.59-.59-.27-.59-.59-.59Z"/>
      <path class="cls-1" d="m28.1,72.11c0,.33.27.59.59.59s.59-.27.59-.59-.27-.59-.59-.59-.59.27-.59.59Z"/>
      <path class="cls-1" d="m26.68,81.95c-.33,0-.59.27-.59.59s.27.59.59.59.59-.27.59-.59-.27-.59-.59-.59Z"/>
      <circle class="cls-1" cx="28.69" cy="79.07" r=".59"/>
      <path class="cls-1" d="m26.68,88.9c-.33,0-.59.27-.59.59s.27.59.59.59.59-.27.59-.59-.27-.59-.59-.59Z"/>
      <circle class="cls-1" cx="28.69" cy="86.02" r=".59"/>
      <path class="cls-1" d="m28.1,92.97c0,.33.27.59.59.59s.59-.27.59-.59-.27-.59-.59-.59-.59.27-.59.59Z"/>
      <path class="cls-1" d="m22.67,40.24c-.33,0-.59.27-.59.59s.27.59.59.59.59-.27.59-.59-.27-.59-.59-.59Z"/>
      <path class="cls-1" d="m25.27,37.35c0-.33-.27-.59-.59-.59s-.59.27-.59.59.27.59.59.59.59-.27.59-.59Z"/>
      <circle class="cls-1" cx="22.67" cy="47.78" r=".59"/>
      <path class="cls-1" d="m25.27,44.31c0-.33-.27-.59-.59-.59s-.59.27-.59.59.27.59.59.59.59-.27.59-.59Z"/>
      <circle class="cls-1" cx="22.67" cy="54.73" r=".59"/>
      <path class="cls-1" d="m25.27,51.26c0-.33-.27-.59-.59-.59s-.59.27-.59.59.27.59.59.59.59-.27.59-.59Z"/>
      <circle class="cls-1" cx="22.67" cy="61.69" r=".59"/>
      <path class="cls-1" d="m25.27,58.21c0-.33-.27-.59-.59-.59s-.59.27-.59.59.27.59.59.59.59-.27.59-.59Z"/>
      <path class="cls-1" d="m22.67,68.04c-.33,0-.59.27-.59.59s.27.59.59.59.59-.27.59-.59-.27-.59-.59-.59Z"/>
      <path class="cls-1" d="m24.08,65.16c0,.33.27.59.59.59s.59-.27.59-.59-.27-.59-.59-.59-.59.27-.59.59Z"/>
      <circle class="cls-1" cx="22.67" cy="75.59" r=".59"/>
      <path class="cls-1" d="m24.08,72.11c0,.33.27.59.59.59s.59-.27.59-.59-.27-.59-.59-.59-.59.27-.59.59Z"/>
      <circle class="cls-1" cx="22.67" cy="82.54" r=".59"/>
      <path class="cls-1" d="m24.08,79.07c0,.33.27.59.59.59s.59-.27.59-.59-.27-.59-.59-.59-.59.27-.59.59Z"/>
      <circle class="cls-1" cx="22.67" cy="89.49" r=".59"/>
      <path class="cls-1" d="m24.08,86.02c0,.33.27.59.59.59s.59-.27.59-.59-.27-.59-.59-.59-.59.27-.59.59Z"/>
      <path class="cls-1" d="m24.08,92.97c0,.33.27.59.59.59s.59-.27.59-.59-.27-.59-.59-.59-.59.27-.59.59Z"/>
      <path class="cls-1" d="m18.66,40.24c-.33,0-.59.27-.59.59s.27.59.59.59.59-.27.59-.59-.27-.59-.59-.59Z"/>
      <circle class="cls-1" cx="20.66" cy="37.35" r=".59"/>
      <path class="cls-1" d="m18.66,47.19c-.33,0-.59.27-.59.59s.27.59.59.59.59-.27.59-.59-.27-.59-.59-.59Z"/>
      <path class="cls-1" d="m21.26,44.31c0-.33-.27-.59-.59-.59s-.59.27-.59.59.27.59.59.59.59-.27.59-.59Z"/>
      <path class="cls-1" d="m18.66,54.14c-.33,0-.59.27-.59.59s.27.59.59.59.59-.27.59-.59-.27-.59-.59-.59Z"/>
      <circle class="cls-1" cx="20.66" cy="51.26" r=".59"/>
      <path class="cls-1" d="m18.66,61.09c-.33,0-.59.27-.59.59s.27.59.59.59.59-.27.59-.59-.27-.59-.59-.59Z"/>
      <circle class="cls-1" cx="20.66" cy="58.21" r=".59"/>
      <path class="cls-1" d="m18.66,68.04c-.33,0-.59.27-.59.59s.27.59.59.59.59-.27.59-.59-.27-.59-.59-.59Z"/>
      <circle class="cls-1" cx="20.66" cy="65.16" r=".59"/>
      <path class="cls-1" d="m18.66,75c-.33,0-.59.27-.59.59s.27.59.59.59.59-.27.59-.59-.27-.59-.59-.59Z"/>
      <path class="cls-1" d="m20.07,72.11c0,.33.27.59.59.59s.59-.27.59-.59-.27-.59-.59-.59-.59.27-.59.59Z"/>
      <path class="cls-1" d="m18.66,81.95c-.33,0-.59.27-.59.59s.27.59.59.59.59-.27.59-.59-.27-.59-.59-.59Z"/>
      <circle class="cls-1" cx="20.66" cy="79.07" r=".59"/>
      <path class="cls-1" d="m18.66,88.9c-.33,0-.59.27-.59.59s.27.59.59.59.59-.27.59-.59-.27-.59-.59-.59Z"/>
      <circle class="cls-1" cx="20.66" cy="86.02" r=".59"/>
      <path class="cls-1" d="m20.07,92.97c0,.33.27.59.59.59s.59-.27.59-.59-.27-.59-.59-.59-.59.27-.59.59Z"/>
      <path class="cls-1" d="m14.64,40.24c-.33,0-.59.27-.59.59s.27.59.59.59.59-.27.59-.59-.27-.59-.59-.59Z"/>
      <circle class="cls-1" cx="14.64" cy="47.78" r=".59"/>
      <path class="cls-1" d="m17.24,44.31c0-.33-.27-.59-.59-.59s-.59.27-.59.59.27.59.59.59.59-.27.59-.59Z"/>
      <circle class="cls-1" cx="14.64" cy="54.73" r=".59"/>
      <path class="cls-1" d="m17.24,51.26c0-.33-.27-.59-.59-.59s-.59.27-.59.59.27.59.59.59.59-.27.59-.59Z"/>
      <path class="cls-1" d="m17.24,58.21c0-.33-.27-.59-.59-.59s-.59.27-.59.59.27.59.59.59.59-.27.59-.59Z"/>
      <path class="cls-1" d="m16.05,65.16c0,.33.27.59.59.59s.59-.27.59-.59-.27-.59-.59-.59-.59.27-.59.59Z"/>
      <path class="cls-1" d="m16.05,72.11c0,.33.27.59.59.59s.59-.27.59-.59-.27-.59-.59-.59-.59.27-.59.59Z"/>
      <path class="cls-1" d="m16.05,79.07c0,.33.27.59.59.59s.59-.27.59-.59-.27-.59-.59-.59-.59.27-.59.59Z"/>
      <circle class="cls-1" cx="14.64" cy="89.49" r=".59"/>
      <path class="cls-1" d="m16.05,86.02c0,.33.27.59.59.59s.59-.27.59-.59-.27-.59-.59-.59-.59.27-.59.59Z"/>
      <path class="cls-1" d="m10.63,47.19c-.33,0-.59.27-.59.59s.27.59.59.59.59-.27.59-.59-.27-.59-.59-.59Z"/>
      <path class="cls-1" d="m12.63,44.9c.33,0,.59-.27.59-.59s-.27-.59-.59-.59-.59.27-.59.59.27.59.59.59Z"/>
      <path class="cls-1" d="m10.63,54.14c-.33,0-.59.27-.59.59s.27.59.59.59.59-.27.59-.59-.27-.59-.59-.59Z"/>
      <circle class="cls-1" cx="12.63" cy="51.26" r=".59"/>
      <path class="cls-1" d="m10.63,61.09c-.33,0-.59.27-.59.59s.27.59.59.59.59-.27.59-.59-.27-.59-.59-.59Z"/>
      <circle class="cls-1" cx="12.63" cy="58.21" r=".59"/>
      <path class="cls-1" d="m10.63,68.04c-.33,0-.59.27-.59.59s.27.59.59.59.59-.27.59-.59-.27-.59-.59-.59Z"/>
      <circle class="cls-1" cx="12.63" cy="65.16" r=".59"/>
      <circle class="cls-1" cx="14.64" cy="61.69" r=".59"/>
      <path class="cls-1" d="m10.63,75c-.33,0-.59.27-.59.59s.27.59.59.59.59-.27.59-.59-.27-.59-.59-.59Z"/>
      <path class="cls-1" d="m12.04,72.11c0,.33.27.59.59.59s.59-.27.59-.59-.27-.59-.59-.59-.59.27-.59.59Z"/>
      <path class="cls-1" d="m14.64,69.23c.33,0,.59-.27.59-.59s-.27-.59-.59-.59-.59.27-.59.59.27.59.59.59Z"/>
      <path class="cls-1" d="m10.63,81.95c-.33,0-.59.27-.59.59s.27.59.59.59.59-.27.59-.59-.27-.59-.59-.59Z"/>
      <circle class="cls-1" cx="12.63" cy="79.07" r=".59"/>
      <circle class="cls-1" cx="14.64" cy="75.59" r=".59"/>
      <circle class="cls-1" cx="12.63" cy="86.02" r=".59"/>
      <circle class="cls-1" cx="14.64" cy="82.54" r=".59"/>
      <circle class="cls-1" cx="6.61" cy="47.78" r=".59"/>
      <path class="cls-1" d="m8.62,44.9c.33,0,.59-.27.59-.59s-.27-.59-.59-.59c0,0,0,0,0,0-.19.18-.39.37-.58.56,0,.01,0,.02,0,.04,0,.33.27.59.59.59Z"/>
      <circle class="cls-1" cx="6.61" cy="54.73" r=".59"/>
      <path class="cls-1" d="m9.21,51.26c0-.33-.27-.59-.59-.59s-.59.27-.59.59.27.59.59.59.59-.27.59-.59Z"/>
      <circle class="cls-1" cx="6.61" cy="61.69" r=".59"/>
      <path class="cls-1" d="m9.21,58.21c0-.33-.27-.59-.59-.59s-.59.27-.59.59.27.59.59.59.59-.27.59-.59Z"/>
      <path class="cls-1" d="m6.61,68.04c-.33,0-.59.27-.59.59s.27.59.59.59.59-.27.59-.59-.27-.59-.59-.59Z"/>
      <path class="cls-1" d="m8.03,65.16c0,.33.27.59.59.59s.59-.27.59-.59-.27-.59-.59-.59-.59.27-.59.59Z"/>
      <circle class="cls-1" cx="6.61" cy="75.59" r=".59"/>
      <path class="cls-1" d="m8.03,72.11c0,.33.27.59.59.59s.59-.27.59-.59-.27-.59-.59-.59-.59.27-.59.59Z"/>
      <circle class="cls-1" cx="6.61" cy="82.54" r=".59"/>
      <path class="cls-1" d="m8.03,79.07c0,.33.27.59.59.59s.59-.27.59-.59-.27-.59-.59-.59-.59.27-.59.59Z"/>
      <path class="cls-1" d="m9.21,86.02c0-.33-.27-.59-.59-.59s-.59.27-.59.59c0,.12.04.22.1.31.07.07.15.14.22.21.08.04.17.08.28.08.33,0,.59-.27.59-.59Z"/>
      <path class="cls-1" d="m4.61,50.66c-.33,0-.59.27-.59.59s.27.59.59.59.59-.27.59-.59-.27-.59-.59-.59Z"/>
      <path class="cls-1" d="m5.2,58.21c0-.33-.27-.59-.59-.59s-.59.27-.59.59.27.59.59.59.59-.27.59-.59Z"/>
      <path class="cls-1" d="m4.61,65.76c.33,0,.59-.27.59-.59s-.27-.59-.59-.59-.59.27-.59.59.27.59.59.59Z"/>
      <path class="cls-1" d="m2.6,75c-.33,0-.59.27-.59.59s.27.59.59.59.59-.27.59-.59-.27-.59-.59-.59Z"/>
      <path class="cls-1" d="m4.01,72.11c0,.33.27.59.59.59s.59-.27.59-.59-.27-.59-.59-.59-.59.27-.59.59Z"/>
      <path class="cls-1" d="m5.2,79.07c0-.33-.27-.59-.59-.59s-.59.27-.59.59.27.59.59.59.59-.27.59-.59Z"/>
      <path class="cls-1" d="m.59,58.8c.33,0,.59-.27.59-.59s-.27-.59-.59-.59c-.09,0-.17.02-.25.06-.08.3-.15.6-.21.9.11.14.27.23.46.23Z"/>
      <path class="cls-1" d="m2.6,55.33c.33,0,.59-.27.59-.59s-.27-.59-.59-.59-.59.27-.59.59.27.59.59.59Z"/>
      <circle class="cls-1" cx=".59" cy="65.16" r=".59"/>
      <path class="cls-1" d="m2.6,62.28c.33,0,.59-.27.59-.59s-.27-.59-.59-.59-.59.27-.59.59.27.59.59.59Z"/>
      <path class="cls-1" d="m.59,71.52c-.21,0-.39.12-.49.28.06.27.12.54.19.81.09.06.19.1.3.1.33,0,.59-.27.59-.59s-.27-.59-.59-.59Z"/>
      <path class="cls-1" d="m2.6,69.23c.33,0,.59-.27.59-.59s-.27-.59-.59-.59-.59.27-.59.59.27.59.59.59Z"/>
    </g>
    <g>
      <path class="cls-1" d="m139.43,144.65c-.1-.08-.22-.14-.36-.14-.33,0-.59.27-.59.59s.27.59.59.59.59-.27.59-.59c0,0,0,0,0-.01-.08-.15-.15-.3-.23-.45Z"/>
      <path class="cls-1" d="m139.06,151.47c-.33,0-.59.27-.59.59s.27.59.59.59.59-.27.59-.59-.27-.59-.59-.59Z"/>
      <path class="cls-1" d="m141.07,149.18c.07,0,.13-.02.19-.04-.11-.38-.24-.75-.37-1.11-.24.07-.42.29-.42.56,0,.33.27.59.59.59Z"/>
      <path class="cls-1" d="m139.06,158.42c-.33,0-.59.27-.59.59s.27.59.59.59.59-.27.59-.59-.27-.59-.59-.59Z"/>
      <path class="cls-1" d="m141.07,154.94c-.33,0-.59.27-.59.59s.27.59.59.59.59-.27.59-.59-.27-.59-.59-.59Z"/>
      <path class="cls-1" d="m141.07,161.89c-.33,0-.59.27-.59.59s.27.59.59.59c.23,0,.43-.14.53-.33.02-.09.04-.19.06-.28,0-.32-.27-.58-.59-.58Z"/>
      <path class="cls-1" d="m136.46,141.63c0,.33.27.59.59.59.29,0,.53-.22.57-.5-.16-.23-.32-.45-.49-.67-.03,0-.06-.02-.09-.02-.33,0-.59.27-.59.59Z"/>
      <circle class="cls-1" cx="135.05" cy="152.06" r=".59"/>
      <circle class="cls-1" cx="137.06" cy="148.58" r=".59"/>
      <circle class="cls-1" cx="135.05" cy="159.01" r=".59"/>
      <circle class="cls-1" cx="137.06" cy="155.53" r=".59"/>
      <circle class="cls-1" cx="135.05" cy="165.96" r=".59"/>
      <circle class="cls-1" cx="137.06" cy="162.49" r=".59"/>
      <path class="cls-1" d="m135.05,172.32c-.33,0-.59.27-.59.59s.27.59.59.59.59-.27.59-.59-.27-.59-.59-.59Z"/>
      <path class="cls-1" d="m137.06,170.03c.33,0,.59-.27.59-.59s-.27-.59-.59-.59-.59.27-.59.59.27.59.59.59Z"/>
      <path class="cls-1" d="m139.06,166.56c.33,0,.59-.27.59-.59s-.27-.59-.59-.59-.59.27-.59.59.27.59.59.59Z"/>
      <path class="cls-1" d="m131.04,137.56c-.33,0-.59.27-.59.59s.27.59.59.59.59-.27.59-.59-.27-.59-.59-.59Z"/>
      <path class="cls-1" d="m134.46,145.11c0,.33.27.59.59.59s.59-.27.59-.59-.27-.59-.59-.59-.59.27-.59.59Z"/>
      <path class="cls-1" d="m131.04,144.51c-.33,0-.59.27-.59.59s.27.59.59.59.59-.27.59-.59-.27-.59-.59-.59Z"/>
      <path class="cls-1" d="m133.04,141.04c-.33,0-.59.27-.59.59s.27.59.59.59.59-.27.59-.59-.27-.59-.59-.59Z"/>
      <path class="cls-1" d="m134.46,138.16c0,.33.27.59.59.59.03,0,.06-.01.09-.02-.22-.23-.44-.45-.67-.67,0,.03-.02.06-.02.09Z"/>
      <path class="cls-1" d="m131.04,151.47c-.33,0-.59.27-.59.59s.27.59.59.59.59-.27.59-.59-.27-.59-.59-.59Z"/>
      <path class="cls-1" d="m133.64,148.58c0-.33-.27-.59-.59-.59s-.59.27-.59.59.27.59.59.59.59-.27.59-.59Z"/>
      <path class="cls-1" d="m131.04,158.42c-.33,0-.59.27-.59.59s.27.59.59.59.59-.27.59-.59-.27-.59-.59-.59Z"/>
      <path class="cls-1" d="m133.64,155.53c0-.33-.27-.59-.59-.59s-.59.27-.59.59.27.59.59.59.59-.27.59-.59Z"/>
      <path class="cls-1" d="m131.04,165.37c-.33,0-.59.27-.59.59s.27.59.59.59.59-.27.59-.59-.27-.59-.59-.59Z"/>
      <path class="cls-1" d="m132.45,162.49c0,.33.27.59.59.59s.59-.27.59-.59-.27-.59-.59-.59-.59.27-.59.59Z"/>
      <path class="cls-1" d="m131.04,172.32c-.33,0-.59.27-.59.59s.27.59.59.59.59-.27.59-.59-.27-.59-.59-.59Z"/>
      <path class="cls-1" d="m132.45,169.44c0,.33.27.59.59.59s.59-.27.59-.59-.27-.59-.59-.59-.59.27-.59.59Z"/>
      <path class="cls-1" d="m132.45,176.39c0,.12.04.22.1.32.31-.24.61-.49.9-.74-.11-.1-.25-.17-.41-.17-.33,0-.59.27-.59.59Z"/>
      <path class="cls-1" d="m127.02,137.56c-.33,0-.59.27-.59.59s.27.59.59.59.59-.27.59-.59-.27-.59-.59-.59Z"/>
      <path class="cls-1" d="m128.44,134.68c0,.33.27.59.59.59s.59-.27.59-.59c0-.14-.05-.26-.13-.36-.13-.07-.25-.15-.38-.22-.03,0-.05-.02-.08-.02-.33,0-.59.27-.59.59Z"/>
      <path class="cls-1" d="m129.62,141.63c0-.33-.27-.59-.59-.59s-.59.27-.59.59.27.59.59.59.59-.27.59-.59Z"/>
      <path class="cls-1" d="m127.02,151.47c-.33,0-.59.27-.59.59s.27.59.59.59.59-.27.59-.59-.27-.59-.59-.59Z"/>
      <circle class="cls-1" cx="129.03" cy="148.58" r=".59"/>
      <circle class="cls-1" cx="129.03" cy="155.53" r=".59"/>
      <circle class="cls-1" cx="129.03" cy="162.49" r=".59"/>
      <path class="cls-1" d="m128.44,169.44c0,.33.27.59.59.59s.59-.27.59-.59-.27-.59-.59-.59-.59.27-.59.59Z"/>
      <circle class="cls-1" cx="129.03" cy="176.39" r=".59"/>
      <path class="cls-1" d="m127.6,179.77c-.05-.28-.28-.5-.57-.5-.33,0-.59.27-.59.59,0,.14.06.26.14.36.35-.15.69-.3,1.03-.46Z"/>
      <path class="cls-1" d="m125.61,134.68c0-.33-.27-.59-.59-.59s-.59.27-.59.59.27.59.59.59.59-.27.59-.59Z"/>
      <path class="cls-1" d="m123.01,144.51c-.33,0-.59.27-.59.59s.27.59.59.59.59-.27.59-.59-.27-.59-.59-.59Z"/>
      <path class="cls-1" d="m125.02,142.22c.33,0,.59-.27.59-.59s-.27-.59-.59-.59-.59.27-.59.59.27.59.59.59Z"/>
      <circle class="cls-1" cx="123.01" cy="152.06" r=".59"/>
      <path class="cls-1" d="m125.61,148.58c0-.33-.27-.59-.59-.59s-.59.27-.59.59.27.59.59.59.59-.27.59-.59Z"/>
      <path class="cls-1" d="m127.02,145.7c.33,0,.59-.27.59-.59s-.27-.59-.59-.59-.59.27-.59.59.27.59.59.59Z"/>
      <circle class="cls-1" cx="123.01" cy="159.01" r=".59"/>
      <path class="cls-1" d="m125.61,155.53c0-.33-.27-.59-.59-.59s-.59.27-.59.59.27.59.59.59.59-.27.59-.59Z"/>
      <circle class="cls-1" cx="123.01" cy="165.96" r=".59"/>
      <path class="cls-1" d="m124.42,162.49c0,.33.27.59.59.59s.59-.27.59-.59-.27-.59-.59-.59-.59.27-.59.59Z"/>
      <path class="cls-1" d="m127.02,159.6c.33,0,.59-.27.59-.59s-.27-.59-.59-.59-.59.27-.59.59.27.59.59.59Z"/>
      <path class="cls-1" d="m123.01,172.32c-.33,0-.59.27-.59.59s.27.59.59.59.59-.27.59-.59-.27-.59-.59-.59Z"/>
      <path class="cls-1" d="m124.42,169.44c0,.33.27.59.59.59s.59-.27.59-.59-.27-.59-.59-.59-.59.27-.59.59Z"/>
      <path class="cls-1" d="m127.02,166.56c.33,0,.59-.27.59-.59s-.27-.59-.59-.59-.59.27-.59.59.27.59.59.59Z"/>
      <path class="cls-1" d="m123.01,179.27c-.33,0-.59.27-.59.59s.27.59.59.59.59-.27.59-.59-.27-.59-.59-.59Z"/>
      <path class="cls-1" d="m124.42,176.39c0,.33.27.59.59.59s.59-.27.59-.59-.27-.59-.59-.59-.59.27-.59.59Z"/>
      <path class="cls-1" d="m127.02,173.51c.33,0,.59-.27.59-.59s-.27-.59-.59-.59-.59.27-.59.59.27.59.59.59Z"/>
      <path class="cls-1" d="m119,137.56c-.33,0-.59.27-.59.59s.27.59.59.59.59-.27.59-.59-.27-.59-.59-.59Z"/>
      <circle class="cls-1" cx="121" cy="134.68" r=".59"/>
      <path class="cls-1" d="m123.01,131.8c.08,0,.16-.02.23-.05-.23-.06-.45-.11-.68-.16.11.13.27.21.45.21Z"/>
      <path class="cls-1" d="m119,144.51c-.33,0-.59.27-.59.59s.27.59.59.59.59-.27.59-.59-.27-.59-.59-.59Z"/>
      <path class="cls-1" d="m121.6,141.63c0-.33-.27-.59-.59-.59s-.59.27-.59.59.27.59.59.59.59-.27.59-.59Z"/>
      <circle class="cls-1" cx="123.01" cy="138.16" r=".59"/>
      <path class="cls-1" d="m119,151.47c-.33,0-.59.27-.59.59s.27.59.59.59.59-.27.59-.59-.27-.59-.59-.59Z"/>
      <circle class="cls-1" cx="121" cy="148.58" r=".59"/>
      <path class="cls-1" d="m119,158.42c-.33,0-.59.27-.59.59s.27.59.59.59.59-.27.59-.59-.27-.59-.59-.59Z"/>
      <circle class="cls-1" cx="121" cy="155.53" r=".59"/>
      <path class="cls-1" d="m119,165.37c-.33,0-.59.27-.59.59s.27.59.59.59.59-.27.59-.59-.27-.59-.59-.59Z"/>
      <circle class="cls-1" cx="121" cy="162.49" r=".59"/>
      <path class="cls-1" d="m119,172.32c-.33,0-.59.27-.59.59s.27.59.59.59.59-.27.59-.59-.27-.59-.59-.59Z"/>
      <path class="cls-1" d="m120.41,169.44c0,.33.27.59.59.59s.59-.27.59-.59-.27-.59-.59-.59-.59.27-.59.59Z"/>
      <path class="cls-1" d="m119,179.27c-.33,0-.59.27-.59.59s.27.59.59.59.59-.27.59-.59-.27-.59-.59-.59Z"/>
      <circle class="cls-1" cx="121" cy="176.39" r=".59"/>
      <circle class="cls-1" cx="114.98" cy="138.16" r=".59"/>
      <path class="cls-1" d="m116.99,135.27c.33,0,.59-.27.59-.59s-.27-.59-.59-.59-.59.27-.59.59.27.59.59.59Z"/>
      <path class="cls-1" d="m118.4,131.2c0,.33.27.59.59.59s.59-.27.59-.59c0-.05-.02-.09-.03-.14-.37-.04-.74-.07-1.11-.1-.03.07-.05.15-.05.23Z"/>
      <path class="cls-1" d="m114.98,144.51c-.33,0-.59.27-.59.59s.27.59.59.59.59-.27.59-.59-.27-.59-.59-.59Z"/>
      <path class="cls-1" d="m117.58,141.63c0-.33-.27-.59-.59-.59s-.59.27-.59.59.27.59.59.59.59-.27.59-.59Z"/>
      <circle class="cls-1" cx="114.98" cy="152.06" r=".59"/>
      <path class="cls-1" d="m117.58,148.58c0-.33-.27-.59-.59-.59s-.59.27-.59.59.27.59.59.59.59-.27.59-.59Z"/>
      <circle class="cls-1" cx="114.98" cy="159.01" r=".59"/>
      <path class="cls-1" d="m117.58,155.53c0-.33-.27-.59-.59-.59s-.59.27-.59.59.27.59.59.59.59-.27.59-.59Z"/>
      <circle class="cls-1" cx="114.98" cy="165.96" r=".59"/>
      <path class="cls-1" d="m116.39,162.49c0,.33.27.59.59.59s.59-.27.59-.59-.27-.59-.59-.59-.59.27-.59.59Z"/>
      <path class="cls-1" d="m114.98,172.32c-.33,0-.59.27-.59.59s.27.59.59.59.59-.27.59-.59-.27-.59-.59-.59Z"/>
      <path class="cls-1" d="m116.39,169.44c0,.33.27.59.59.59s.59-.27.59-.59-.27-.59-.59-.59-.59.27-.59.59Z"/>
      <path class="cls-1" d="m114.98,179.27c-.33,0-.59.27-.59.59s.27.59.59.59.59-.27.59-.59-.27-.59-.59-.59Z"/>
      <path class="cls-1" d="m116.39,176.39c0,.33.27.59.59.59s.59-.27.59-.59-.27-.59-.59-.59-.59.27-.59.59Z"/>
      <path class="cls-1" d="m110.97,137.56c-.33,0-.59.27-.59.59s.27.59.59.59.59-.27.59-.59-.27-.59-.59-.59Z"/>
      <path class="cls-1" d="m112.38,134.68c0,.33.27.59.59.59s.59-.27.59-.59-.27-.59-.59-.59-.59.27-.59.59Z"/>
      <path class="cls-1" d="m114.39,131.2c0,.33.27.59.59.59s.59-.27.59-.59c0-.1-.03-.19-.07-.27-.36.02-.72.04-1.08.08-.02.06-.04.12-.04.19Z"/>
      <path class="cls-1" d="m111.52,131.43c-.31.06-.62.14-.93.21.1.09.24.15.38.15.25,0,.46-.15.55-.36Z"/>
      <path class="cls-1" d="m110.97,144.51c-.33,0-.59.27-.59.59s.27.59.59.59.59-.27.59-.59-.27-.59-.59-.59Z"/>
      <path class="cls-1" d="m113.57,141.63c0-.33-.27-.59-.59-.59s-.59.27-.59.59.27.59.59.59.59-.27.59-.59Z"/>
      <path class="cls-1" d="m110.97,151.47c-.33,0-.59.27-.59.59s.27.59.59.59.59-.27.59-.59-.27-.59-.59-.59Z"/>
      <path class="cls-1" d="m113.57,148.58c0-.33-.27-.59-.59-.59s-.59.27-.59.59.27.59.59.59.59-.27.59-.59Z"/>
      <path class="cls-1" d="m110.97,158.42c-.33,0-.59.27-.59.59s.27.59.59.59.59-.27.59-.59-.27-.59-.59-.59Z"/>
      <path class="cls-1" d="m113.57,155.53c0-.33-.27-.59-.59-.59s-.59.27-.59.59.27.59.59.59.59-.27.59-.59Z"/>
      <path class="cls-1" d="m110.97,165.37c-.33,0-.59.27-.59.59s.27.59.59.59.59-.27.59-.59-.27-.59-.59-.59Z"/>
      <path class="cls-1" d="m112.38,162.49c0,.33.27.59.59.59s.59-.27.59-.59-.27-.59-.59-.59-.59.27-.59.59Z"/>
      <path class="cls-1" d="m110.97,172.32c-.33,0-.59.27-.59.59s.27.59.59.59.59-.27.59-.59-.27-.59-.59-.59Z"/>
      <path class="cls-1" d="m112.38,169.44c0,.33.27.59.59.59s.59-.27.59-.59-.27-.59-.59-.59-.59.27-.59.59Z"/>
      <path class="cls-1" d="m110.97,179.27c-.33,0-.59.27-.59.59s.27.59.59.59.59-.27.59-.59-.27-.59-.59-.59Z"/>
      <path class="cls-1" d="m112.38,176.39c0,.33.27.59.59.59s.59-.27.59-.59-.27-.59-.59-.59-.59.27-.59.59Z"/>
      <circle class="cls-1" cx="106.95" cy="138.16" r=".59"/>
      <circle class="cls-1" cx="108.96" cy="134.68" r=".59"/>
      <path class="cls-1" d="m106.95,144.51c-.33,0-.59.27-.59.59s.27.59.59.59.59-.27.59-.59-.27-.59-.59-.59Z"/>
      <path class="cls-1" d="m108.96,141.04c-.33,0-.59.27-.59.59s.27.59.59.59.59-.27.59-.59-.27-.59-.59-.59Z"/>
      <circle class="cls-1" cx="106.95" cy="152.06" r=".59"/>
      <circle class="cls-1" cx="108.96" cy="148.58" r=".59"/>
      <circle class="cls-1" cx="108.96" cy="155.53" r=".59"/>
      <circle class="cls-1" cx="108.96" cy="162.49" r=".59"/>
      <path class="cls-1" d="m108.37,169.44c0,.33.27.59.59.59s.59-.27.59-.59-.27-.59-.59-.59-.59.27-.59.59Z"/>
      <circle class="cls-1" cx="108.96" cy="176.39" r=".59"/>
      <path class="cls-1" d="m107.55,179.87c0-.33-.27-.59-.59-.59s-.59.27-.59.59c0,.06.02.11.03.16.28.12.56.24.84.35.18-.1.31-.29.31-.51Z"/>
      <path class="cls-1" d="m102.94,137.56c-.33,0-.59.27-.59.59s.27.59.59.59.59-.27.59-.59-.27-.59-.59-.59Z"/>
      <path class="cls-1" d="m105.54,134.68c0-.33-.27-.59-.59-.59s-.59.27-.59.59.27.59.59.59.59-.27.59-.59Z"/>
      <path class="cls-1" d="m105.54,141.63c0-.33-.27-.59-.59-.59s-.59.27-.59.59.27.59.59.59.59-.27.59-.59Z"/>
      <path class="cls-1" d="m102.94,151.47c-.33,0-.59.27-.59.59s.27.59.59.59.59-.27.59-.59-.27-.59-.59-.59Z"/>
      <path class="cls-1" d="m104.95,149.18c.33,0,.59-.27.59-.59s-.27-.59-.59-.59-.59.27-.59.59.27.59.59.59Z"/>
      <path class="cls-1" d="m102.94,158.42c-.33,0-.59.27-.59.59s.27.59.59.59.59-.27.59-.59-.27-.59-.59-.59Z"/>
      <path class="cls-1" d="m104.35,155.53c0,.33.27.59.59.59s.59-.27.59-.59-.27-.59-.59-.59-.59.27-.59.59Z"/>
      <path class="cls-1" d="m102.94,165.37c-.33,0-.59.27-.59.59s.27.59.59.59.59-.27.59-.59-.27-.59-.59-.59Z"/>
      <path class="cls-1" d="m104.35,162.49c0,.33.27.59.59.59s.59-.27.59-.59-.27-.59-.59-.59-.59.27-.59.59Z"/>
      <circle class="cls-1" cx="106.95" cy="159.01" r=".59"/>
      <path class="cls-1" d="m102.94,172.32c-.33,0-.59.27-.59.59s.27.59.59.59.59-.27.59-.59-.27-.59-.59-.59Z"/>
      <path class="cls-1" d="m104.35,169.44c0,.33.27.59.59.59s.59-.27.59-.59-.27-.59-.59-.59-.59.27-.59.59Z"/>
      <circle class="cls-1" cx="106.95" cy="165.96" r=".59"/>
      <path class="cls-1" d="m104.95,175.8c-.33,0-.59.27-.59.59s.27.59.59.59.59-.27.59-.59-.27-.59-.59-.59Z"/>
      <path class="cls-1" d="m106.95,173.51c.33,0,.59-.27.59-.59s-.27-.59-.59-.59-.59.27-.59.59.27.59.59.59Z"/>
      <path class="cls-1" d="m98.93,144.51c-.33,0-.59.27-.59.59s.27.59.59.59.59-.27.59-.59-.27-.59-.59-.59Z"/>
      <path class="cls-1" d="m100.93,142.22c.33,0,.59-.27.59-.59s-.27-.59-.59-.59-.59.27-.59.59.27.59.59.59Z"/>
      <circle class="cls-1" cx="98.93" cy="152.06" r=".59"/>
      <circle class="cls-1" cx="100.93" cy="148.58" r=".59"/>
      <path class="cls-1" d="m102.94,145.7c.33,0,.59-.27.59-.59s-.27-.59-.59-.59-.59.27-.59.59.27.59.59.59Z"/>
      <circle class="cls-1" cx="100.93" cy="155.53" r=".59"/>
      <circle class="cls-1" cx="98.93" cy="165.96" r=".59"/>
      <circle class="cls-1" cx="100.93" cy="162.49" r=".59"/>
      <path class="cls-1" d="m98.93,172.32c-.33,0-.59.27-.59.59s.27.59.59.59.59-.27.59-.59-.27-.59-.59-.59Z"/>
      <path class="cls-1" d="m100.34,169.44c0,.33.27.59.59.59s.59-.27.59-.59-.27-.59-.59-.59-.59.27-.59.59Z"/>
      <path class="cls-1" d="m101.53,176.39c0-.33-.27-.59-.59-.59-.3,0-.53.22-.58.5.26.22.53.43.81.64.21-.09.36-.3.36-.55Z"/>
      <path class="cls-1" d="m98.47,138.53c.11.13.27.22.45.22.33,0,.59-.27.59-.59,0-.18-.08-.33-.21-.44-.29.26-.57.53-.84.81Z"/>
      <path class="cls-1" d="m94.91,144.51c-.33,0-.59.27-.59.59s.27.59.59.59.59-.27.59-.59-.27-.59-.59-.59Z"/>
      <path class="cls-1" d="m96.92,141.04c-.33,0-.59.27-.59.59s.27.59.59.59.59-.27.59-.59-.27-.59-.59-.59Z"/>
      <path class="cls-1" d="m97.51,148.58c0-.33-.27-.59-.59-.59s-.59.27-.59.59.27.59.59.59.59-.27.59-.59Z"/>
      <path class="cls-1" d="m96.92,156.13c.33,0,.59-.27.59-.59s-.27-.59-.59-.59-.59.27-.59.59.27.59.59.59Z"/>
      <path class="cls-1" d="m94.91,165.37c-.33,0-.59.27-.59.59s.27.59.59.59.59-.27.59-.59-.27-.59-.59-.59Z"/>
      <path class="cls-1" d="m96.92,163.08c.33,0,.59-.27.59-.59s-.27-.59-.59-.59-.59.27-.59.59.27.59.59.59Z"/>
      <circle class="cls-1" cx="98.93" cy="159.01" r=".59"/>
      <path class="cls-1" d="m97.51,169.44c0-.33-.27-.59-.59-.59s-.59.27-.59.59.27.59.59.59.59-.27.59-.59Z"/>
      <path class="cls-1" d="m92.91,149.18c.33,0,.59-.27.59-.59s-.27-.59-.59-.59c-.17,0-.33.08-.44.2-.05.15-.1.29-.15.44.02.31.27.55.58.55Z"/>
      <circle class="cls-1" cx="92.91" cy="155.53" r=".59"/>
      <path class="cls-1" d="m94.91,152.65c.33,0,.59-.27.59-.59s-.27-.59-.59-.59-.59.27-.59.59.27.59.59.59Z"/>
      <path class="cls-1" d="m91.49,152.06s-.01-.04-.01-.07c-.02.11-.04.22-.06.34.04-.08.07-.17.07-.27Z"/>
      <circle class="cls-1" cx="92.91" cy="162.49" r=".59"/>
      <path class="cls-1" d="m94.91,159.6c.33,0,.59-.27.59-.59s-.27-.59-.59-.59-.59.27-.59.59.27.59.59.59Z"/>
      <path class="cls-1" d="m91.49,159.01c0-.24-.14-.44-.35-.54.03.34.05.67.09,1.01.15-.11.25-.27.25-.47Z"/>
    </g>
  </g>
  <g id="_人物" data-name="人物">
    <g>
      <g>
        <path class="cls-6" d="m93.53,25.68l-.04.11c.66-2.63,1.12-5.44,1.25-8.37.3-6.71-2.7-10.61-8.63-12.65-5.72-1.96-15.4.09-18.14,7.52-.7,1.91-1.26,3.93-1.71,5.97v-.11c-2.29-.98-5.67.25-6.18,3.88-.46,3.26,1.56,6.3,4.95,7.52v-.09c.01.23,0,.48.01.71.12,3.96,1.21,7.64,4.25,10.11l-.26,7.19s-4.31,6.34-4.01,11.46l5.38-5.31,1.73-5.66c.09-.31.33-.54.63-.64,1.6-.51,6.84-2.36,11.01-5.67,2.51-1.4,4.37-3.71,5.89-6.29v.03c3.92.72,7.27-.87,7.88-4.2.61-3.33-1.59-5.07-4.01-5.51Z"/>
        <path class="cls-4" d="m92.53,138.88c.54,6.73-1,8.05-1.22,11.58-.22,3.52,1.43,24.66,2.86,37.32,1.43,12.66,2.31,14.86,2.31,14.86h0c.28,1.05-.51,2.08-1.6,2.08h-49.41c-7.38-21.69-5.47-55.48-4.04-70.56l.45-3.11s6.11,3.08,8.68,3.33l3.08-8.48h0l.77,8.92s15.32,5.21,38.1,4.06Z"/>
        <path class="cls-3" d="m94.67,18.54c.03-.37.05-.75.07-1.12.3-6.71-2.71-10.61-8.63-12.65-5.72-1.96-15.4.09-18.14,7.52-.19.52-.37,1.05-.55,1.58l-1.15,4.27c1.78-9.82,9.27-11.37,12.34-10.5,2.05-1.18,3.02.26,3.22,1.02,1.33-1.28,3-.51,3.21.93,1.48-.82,2.62-.26,2.87,1.09,1.74-.22,2.72,1.21,2.72,2.18,1.59.51,3.43,2.05,4.04,5.68h0Z"/>
        <path class="cls-3" d="m88.78,5.93c1.11-1.76.78-4.45-.66-4.95s-3.83.41-4.24,3.26l1.67,2.95,3.22-1.26Z"/>
        <path class="cls-3" d="m41.99,117.21c-.84,2.72-2.41,7.69-3.18,10.13-.27.86.08,1.79.84,2.27,5.37,3.36,10.93,4.77,10.93,4.77l3.08-8.48.77,8.92c9.62,3.59,28.16,5.66,42.48,3.55,1.01-.15,1.7-1.08,1.6-2.09-.88-8.21-3.76-29.64-3.76-29.64,2.54.06,4.26-.15,5.29-.35.71-.14,1.29-.65,1.49-1.34l1.63-5.42c.16-.53.09-1.08-.18-1.54,1.21-7.82,1.76-21.07.44-29.11-1.32-8.04-5.72-11.34-11.65-16.78-.76-1.94-1.71-3.6-4.98-4.74l-2.19-6.23-1.82,1c-2.24,2.01-6.31,3.5-9.76,4.83-.79.3-1.37.96-1.58,1.78-.29,1.15-.73,2.85-1.09,4.22-.11.42-.32.8-.63,1.12-.89.91-2.91,3-4.72,4.84,0,0,0-4.64,3.53-10.83.24-.41.38-.88.41-1.35l.34-6.19s-2.25,1.24-3.66,2.15c-.42.27-.88.46-1.37.55-2.44.45-10.18,1.96-13.68,3.56-4.18,1.92-5.61,6.01-6.39,11.67s-5.17,15.9-7.6,22.72c0,0,2.53,2.52,9.03,4.78,0,0,.04,7.01-.76,15.23,0,0-.98,8.63-2.87,15.99Z"/>
        <path class="cls-6" d="m76.79,91.33c-.16-.15-.34-.32-.48-.46-1.13-1.1-1.94-2.49-2.3-4.03-.78-3.31-1.39-8.02-2.27-9.21-1.59-2.16-5.42-1.88-10.51-.42-1.81.52-3,2.3-2.76,4.17.03.21.07.42.12.64-1.59,1.36-.94,2.88-.15,3.87l.2.09c-.84.51-1,1.22-.94,1.74.1.94.84,1.77,1.86,1.73,1.72-.06,4.22-.16,5.58-.19-1.36.07-3.22.13-4.96.19-1,.04-1.77.88-1.73,1.87v.07c.05.96.83,1.71,1.79,1.72l2.25.04c.73.01,1.35.5,1.59,1.19.74,2.14,2.28,4.28,5,5.09.87.26,1.56.93,1.94,1.77,2.29,5.11,7.29,13.16,13.03,13.59,7.25.54,10.35-4.92,12.32-11.78l-9.96-5.56-9.62-6.12Z"/>
        <path class="cls-6" d="m70.01,76.41c-.25-1.83-.43-5.11-.54-7.3-.06-1.19-1.12-2.07-2.3-1.9h0c-.9.13-1.6.84-1.71,1.75-.3,2.31-.22,5.58-.14,7.32"/>
        <path class="cls-6" d="m46.06,106.27c-.29-1.19-.83-3.04-1.06-4.57l.63-15.72-6.68-3.08c-1.9,3.58-3.44,5.56-3.22,9.31s.91,8.8,1.13,13.21h.02c-1.14.93-1.58,2.05-1.72,3.58-.05.52-.26,1-.6,1.39-1.28,1.43-2.16,3.35-.86,5.84.59,1.12,1.17,2.04,1.65,2.74.62.9,1.9,1.01,2.67.24h0c.55-.55.66-1.4.28-2.08-.54-.95-1.27-2.37-1.68-3.67,0,0,1.28,1.65,3.17,3.38,1.08.99,2.83.58,3.33-.8.23-.64.13-1.36-.27-1.91-.18-.25-.37-.49-.55-.72h0c.66.14,1.26-.2,1.55-.6.76-1.05.33-2.45.04-3.01-.43-.85-.77-1.6-1.07-2.27.52,1.09,1.55,1.74,2.54,1.06.89-.62.91-1.51.72-2.32Z"/>
        <path class="cls-3" d="m36.6,113.47c1.68,3.67,1.83,5.53,1.83,5.53l2.86.5.63-2.04s-2.94.35-5.32-3.99Z"/>
        <path class="cls-1" d="m82.46,22.8c-1.3.15-2,1.29-2.01,2.66-.01,1.73,1.08,3.21,3.19,3.73s3.93.01,4.96-1.18c1.15-1.33,1.23-2.81-.16-3.76-1.2-.82-4-1.69-5.98-1.46Z"/>
        <path class="cls-1" d="m76.9,20.76c1.01.83.98,2.17.24,3.33-.93,1.46-2.62,1.99-4.71,1.4-2.2-.63-3.08-1.56-3.35-3.53-.23-1.74.33-3.19,2.01-3.23,1.45-.04,4.27.76,5.81,2.04Z"/>
      </g>
      <g>
        <circle class="cls-3" cx="77.1" cy="29.82" r=".71"/>
        <path class="cls-3" d="m77.72,43.97c-1.47,0-2.96-.21-4.34-.63-5.9-1.8-9-6.23-9.21-13.15-.17-5.78.97-12.75,2.98-18.19,2.97-8.04,13.19-10.1,19.22-8.03h0c6.5,2.23,9.51,6.65,9.21,13.49-.28,6.36-2.01,12.65-4.85,17.73-2.23,3.99-4.65,6.44-7.6,7.73-1.6.7-3.49,1.05-5.41,1.05Zm3.86-39.04c-5,0-10.86,2.33-12.83,7.66-1.94,5.25-3.04,11.97-2.87,17.55.18,6.2,2.8,9.99,8,11.58,2.77.85,6.13.71,8.57-.35,2.6-1.13,4.76-3.36,6.8-7,2.72-4.85,4.36-10.88,4.63-16.97.27-6.07-2.29-9.83-8.06-11.81-1.24-.42-2.7-.65-4.24-.65Z"/>
        <path class="cls-3" d="m65.02,30.39c-.1,0-.19-.02-.29-.05-3.81-1.38-6.02-4.77-5.5-8.44.26-1.88,1.24-3.39,2.76-4.24,1.43-.81,3.16-.92,4.61-.3.43.18.63.68.45,1.12-.19.43-.69.63-1.12.45-.95-.41-2.14-.32-3.1.22-1.04.59-1.72,1.65-1.91,3-.4,2.85,1.37,5.51,4.4,6.61.44.16.67.65.51,1.09-.12.35-.45.56-.8.56Z"/>
        <path class="cls-3" d="m91.48,36.4c-.64,0-1.3-.06-1.99-.19-.46-.08-.77-.53-.68-.99s.52-.77.99-.68c3.62.67,6.39-.75,6.9-3.52.21-1.14.05-2.11-.48-2.87-.57-.83-1.58-1.42-2.84-1.65-.46-.08-.77-.53-.69-.99.08-.46.54-.76.99-.69,1.71.31,3.11,1.15,3.94,2.35.78,1.13,1.04,2.56.75,4.14-.58,3.15-3.3,5.07-6.89,5.07Z"/>
        <path class="cls-3" d="m94.67,19.39c-.41,0-.77-.29-.84-.71-.61-3.58-2.43-4.68-3.47-5.01-.35-.11-.59-.44-.59-.81,0-.26-.16-.68-.51-.99-.34-.3-.76-.42-1.25-.35-.45.06-.87-.25-.95-.69-.04-.21-.14-.58-.43-.71-.27-.13-.71-.05-1.19.21-.24.14-.54.14-.79.02-.25-.12-.42-.36-.46-.63-.06-.39-.3-.69-.63-.81-.37-.12-.77,0-1.15.37-.22.21-.53.28-.82.21-.29-.08-.52-.31-.59-.6-.05-.2-.25-.62-.63-.78-.42-.17-.97.05-1.35.27-.2.12-.44.14-.66.08-1.42-.4-3.84-.18-6.07,1.21-1.87,1.17-4.29,3.61-5.2,8.63-.08.46-.52.77-.99.68-.46-.08-.77-.53-.68-.99,1.02-5.63,3.81-8.42,5.98-9.77,2.66-1.66,5.39-1.85,7.09-1.48,1.14-.55,2-.42,2.54-.2.48.2.85.52,1.12.89.63-.29,1.33-.34,1.96-.12.61.21,1.1.63,1.42,1.17.66-.18,1.29-.15,1.84.11.52.25.92.67,1.16,1.23.7.06,1.34.32,1.86.78.5.44.86,1.04,1.01,1.65,1.42.62,3.44,2.19,4.11,6.15.08.46-.23.9-.7.98-.05,0-.1.01-.14.01Z"/>
        <path class="cls-3" d="m88.78,6.78c-.28,0-.55-.14-.71-.38-.19-.28-.19-.64-.01-.92.53-.85.69-2.06.37-2.96-.08-.23-.26-.62-.59-.73-.51-.18-1.19-.07-1.75.27-.52.32-1.18.97-1.37,2.3-.07.47-.51.79-.96.72-.46-.07-.79-.5-.72-.96.22-1.55,1-2.79,2.17-3.51,1-.61,2.2-.77,3.19-.43.74.26,1.32.89,1.64,1.78.24.69.31,1.48.21,2.26.04-.04.09-.08.13-.12.35-.32.88-.29,1.2.05.32.35.3.88-.05,1.2-1.28,1.17-2.48,1.4-2.62,1.42-.05,0-.09.01-.14.01Z"/>
        <path class="cls-3" d="m88.17,22.27c-.11,0-.21-.02-.32-.06-.75-.3-2.38-.76-4.78-.4-.47.07-.9-.25-.97-.71-.07-.46.25-.9.71-.97,2.81-.42,4.75.14,5.67.5.44.18.65.67.47,1.11-.13.33-.45.53-.79.53Z"/>
        <path class="cls-3" d="m77.68,20.19c-.23,0-.46-.09-.62-.27-1.32-1.43-2.96-2.17-3.43-2.36-.43-.18-.64-.67-.46-1.11s.68-.64,1.11-.46c.55.23,2.47,1.09,4.03,2.78.32.34.3.88-.05,1.2-.16.15-.37.23-.58.23Z"/>
        <path class="cls-3" d="m80.23,35.6s-.08,0-.13,0c-2.14-.32-6.09-1.71-7.97-2.79-.41-.23-.55-.75-.31-1.16.23-.41.75-.55,1.16-.31,1.71.99,5.44,2.29,7.38,2.58.46.07.78.5.71.97-.06.42-.43.72-.84.72Z"/>
        <path class="cls-3" d="m85.22,30.25c-.58,0-1.18-.07-1.78-.22-2.38-.6-3.85-2.34-3.84-4.56.01-1.9,1.12-3.31,2.76-3.5,2.13-.25,5.17.64,6.56,1.6.79.54,1.26,1.27,1.37,2.1.12.96-.24,1.97-1.05,2.91-.93,1.09-2.39,1.68-4.03,1.68Zm-2.05-6.63c-.21,0-.41.01-.61.03h0c-1.16.14-1.26,1.43-1.26,1.82,0,1.44.92,2.5,2.55,2.9,1.69.42,3.26.07,4.1-.91.48-.56.72-1.13.66-1.58-.04-.34-.26-.65-.65-.92-.88-.6-3.04-1.35-4.79-1.35Zm-.71-.81h0,0Z"/>
        <path class="cls-3" d="m74.04,26.57c-.58,0-1.2-.09-1.85-.28-2.54-.72-3.64-1.91-3.96-4.23-.18-1.36.06-2.48.71-3.24.51-.6,1.25-.93,2.13-.95,1.71-.04,4.7.84,6.38,2.23,1.27,1.05,1.44,2.84.41,4.44-.85,1.33-2.19,2.03-3.81,2.03Zm-2.85-7s-.05,0-.08,0c-.39,0-.68.12-.87.35-.32.37-.43,1.07-.32,1.91.22,1.63.86,2.29,2.74,2.82,1.69.48,3.03.12,3.76-1.04.21-.33.83-1.47-.07-2.21h0c-1.38-1.14-3.94-1.84-5.17-1.84Z"/>
        <path class="cls-3" d="m90.99,27.46c-.38,0-.75-.06-1.12-.17l-.65-.2c-.45-.14-.7-.62-.56-1.06.14-.45.62-.7,1.06-.56l.65.2c.51.16,1.06.11,1.54-.13l1.23-.62c.42-.21.93-.04,1.14.38.21.42.04.93-.38,1.14l-1.23.62c-.53.27-1.11.41-1.69.41Z"/>
        <path class="cls-3" d="m69.29,20.57c-.12,0-.24-.02-.35-.08l-.8-.37c-.62-.19-1.21-.47-1.74-.85l-.63-.45c-.38-.27-.47-.8-.2-1.19.27-.38.8-.47,1.19-.2l.63.45c.39.28.82.49,1.29.62.04.01.08.03.12.04l.86.39c.43.2.62.7.42,1.13-.14.31-.45.5-.78.5Z"/>
        <path class="cls-3" d="m80.75,24.91h-.02c-1.12-.03-2.87-.51-3.69-1.19-.36-.3-.41-.84-.11-1.2.3-.36.84-.41,1.2-.11.41.34,1.71.78,2.64.8.47.01.84.4.83.87-.01.46-.39.83-.85.83Z"/>
        <ellipse class="cls-3" cx="73.57" cy="22.33" rx="1.06" ry=".96" transform="translate(32.14 87.09) rotate(-74.28)"/>
        <ellipse class="cls-3" cx="84.4" cy="25.88" rx="1.06" ry=".96" transform="translate(36.62 100.11) rotate(-74.28)"/>
        <path class="cls-3" d="m76.13,41.25s-.03,0-.04,0c-.39-.02-.69-.36-.67-.75v-.21c.03-.39.38-.7.76-.67.39.02.69.36.67.75v.21c-.03.38-.35.67-.72.67Z"/>
        <path class="cls-3" d="m73.93,40.87c-.08,0-.16-.01-.24-.04-.37-.13-.56-.54-.43-.91l.09-.26c.13-.37.54-.56.91-.43.37.13.56.54.43.91l-.09.26c-.1.29-.38.47-.67.47Z"/>
        <path class="cls-3" d="m71.64,39.48c-.14,0-.29-.04-.42-.13-.32-.23-.39-.67-.16-.99l.13-.18c.23-.32.67-.39.99-.16.32.23.39.67.16.99l-.13.18c-.14.19-.36.29-.58.29Z"/>
        <path class="cls-3" d="m78.6,41.35c-.32,0-.61-.22-.69-.55l-.05-.2c-.09-.38.15-.76.53-.85.37-.09.76.14.85.53l.05.2c.09.38-.15.76-.53.85-.05.01-.11.02-.16.02Z"/>
        <path class="cls-3" d="m81.09,40.94c-.27,0-.53-.16-.65-.43l-.07-.15c-.16-.36,0-.78.37-.93.36-.16.78,0,.93.37l.07.15c.16.36,0,.78-.37.93-.09.04-.19.06-.28.06Z"/>
        <path class="cls-3" d="m36.84,106.27c-.45,0-.83-.35-.85-.81-.12-2.38-.37-4.94-.62-7.42-.21-2.09-.41-4.06-.51-5.78-.2-3.39.97-5.49,2.44-8.15.28-.5.57-1.04.88-1.61.22-.41.73-.57,1.15-.35.41.22.57.74.35,1.15-.31.58-.61,1.12-.89,1.63-1.45,2.61-2.4,4.33-2.23,7.22.1,1.69.29,3.64.5,5.71.25,2.5.51,5.08.63,7.5.02.47-.34.87-.81.89-.01,0-.03,0-.04,0Z"/>
        <path class="cls-3" d="m44.97,203.49c-.35,0-.68-.22-.8-.58-7.89-23.2-4.64-57.55-3.57-68.83.04-.47.47-.83.93-.77.47.04.81.46.77.93-1.06,11.2-4.29,45.26,3.48,68.12.15.44-.09.93-.53,1.08-.09.03-.18.05-.27.05Z"/>
        <path class="cls-3" d="m68.91,202.39c-.36,0-.69-.23-.81-.59-2.91-9.08-5-18.39-7.02-27.38-.44-1.97-.88-3.91-1.32-5.82-.54-2.38-1.01-4.46-1.43-6.32-1.44-6.41-2.31-10.28-3.84-15.19-.14-.45.11-.92.56-1.06.45-.14.93.11,1.06.56,1.55,4.98,2.42,8.87,3.87,15.33.42,1.86.88,3.94,1.43,6.32.44,1.92.88,3.86,1.32,5.83,2.01,8.96,4.09,18.23,6.98,27.24.14.45-.1.93-.55,1.07-.09.03-.17.04-.26.04Z"/>
        <path class="cls-3" d="m96.49,203.48c-.34,0-.65-.2-.79-.53-.04-.09-.94-2.45-2.37-15.08-1.39-12.25-3.1-33.7-2.87-37.47.08-1.32.33-2.33.6-3.39.47-1.89.96-3.84.62-8.07-.04-.47.31-.88.78-.92.48-.03.88.31.92.78.36,4.5-.18,6.69-.67,8.61-.25.99-.48,1.92-.55,3.08-.21,3.36,1.39,24.21,2.86,37.17,1.38,12.18,2.22,14.56,2.26,14.65.16.44-.05.93-.49,1.09-.1.04-.21.06-.31.06Z"/>
        <path class="cls-3" d="m86.81,197.41c-.29,0-.55-.19-.62-.48-.09-.36-.18-.73-.26-1.12-.08-.34.14-.68.48-.76.34-.08.68.14.76.48.08.37.17.74.26,1.09.08.34-.12.69-.46.77-.05.01-.1.02-.16.02Zm-1-4.72c-.3,0-.57-.22-.63-.52l-.2-1.12c-.06-.35.17-.68.52-.74.33-.06.68.17.74.52l.2,1.11c.06.35-.17.68-.51.74-.04,0-.08,0-.12,0Zm-.78-4.76c-.31,0-.58-.23-.63-.54l-.17-1.13c-.05-.35.19-.67.54-.72.34-.04.67.19.72.54l.16,1.12c.05.35-.19.67-.54.73-.03,0-.06,0-.1,0Zm-.65-4.78c-.32,0-.59-.23-.63-.56l-.14-1.13c-.04-.35.21-.67.56-.71.36-.05.67.21.71.56l.14,1.12c.04.35-.2.67-.55.71-.03,0-.05,0-.08,0Zm-.57-4.79c-.32,0-.6-.24-.63-.57l-.12-1.13c-.04-.35.21-.67.56-.7.35-.04.67.21.7.56l.12,1.13c.04.35-.21.67-.56.7-.02,0-.05,0-.07,0Zm-.5-4.8c-.32,0-.6-.25-.63-.58l-.11-1.13c-.03-.35.22-.66.57-.7.35-.03.66.22.7.57l.11,1.13c.03.35-.22.66-.57.7-.02,0-.04,0-.06,0Zm-.45-4.8c-.33,0-.6-.25-.63-.58l-.09-1.03c-.03-.35.22-.71.58-.74.35-.03.66.18.69.53v.1s.1,1.03.1,1.03c.03.35-.23.66-.58.69-.02,0-.04,0-.06,0Zm-.41-4.81c-.33,0-.61-.25-.63-.58l-.09-1.13c-.03-.35.23-.66.58-.69.36-.02.66.23.69.58l.09,1.13c.03.35-.23.66-.58.69-.02,0-.04,0-.05,0Zm-.38-4.81c-.33,0-.61-.25-.63-.59l-.09-1.13c-.03-.35.24-.66.59-.68.34-.04.66.24.68.59l.09,1.13c.03.35-.24.66-.59.68-.02,0-.03,0-.05,0Zm-.35-4.81c-.33,0-.61-.26-.63-.59l-.08-1.13c-.03-.35.24-.66.59-.68.35-.05.66.24.68.59l.08,1.13c.03.35-.24.66-.59.68-.02,0-.03,0-.05,0Zm-.33-4.82c-.33,0-.61-.26-.64-.59l-.08-1.13c-.02-.35.24-.66.59-.68.33-.04.66.24.68.59l.08,1.13c.02.35-.24.66-.59.68-.01,0-.03,0-.04,0Zm-.32-4.82c-.33,0-.61-.26-.64-.59l-.08-1.13c-.03-.35.24-.66.59-.68.35-.04.66.24.68.59l.08,1.14c.02.35-.24.66-.59.68-.01,0-.03,0-.04,0Z"/>
        <path class="cls-3" d="m100.85,106.51c-.21,0-.42-.08-.59-.23-1.62-1.54-8.55-5.88-14.16-8.03-.44-.17-.66-.66-.49-1.1.17-.44.66-.66,1.1-.49,5.8,2.21,13.02,6.76,14.72,8.38.34.32.35.86.03,1.2-.17.18-.39.26-.62.26Z"/>
        <path class="cls-1" d="m100.68,96.59c-.1,0-.2-.03-.29-.09-3.11-2.18-9.52-6.14-17.57-8.1-.27-.07-.43-.33-.37-.6.07-.26.33-.42.6-.37,7.8,1.9,14.04,5.53,17.91,8.25.22.16.28.47.12.69-.1.14-.25.21-.41.21Z"/>
        <path class="cls-3" d="m84.3,140.08c-11.63,0-23.34-1.91-30.16-4.46-.31-.12-.52-.4-.55-.72l-.44-5.08-1.77,4.86c-.15.41-.58.64-1.01.53-.23-.06-5.76-1.49-11.17-4.88-1.09-.68-1.59-2.02-1.2-3.24.77-2.43,2.34-7.41,3.18-10.13.14-.45.62-.7,1.06-.56.45.14.7.62.56,1.06-.84,2.73-2.42,7.71-3.19,10.14-.15.48.04,1.01.48,1.29,4.06,2.54,8.29,3.96,9.95,4.46l2.81-7.73c.14-.38.52-.61.91-.55.4.05.7.37.74.77l.72,8.38c9.31,3.32,27.16,5.44,41.56,3.32.55-.08.93-.59.87-1.16-.72-6.66-2.75-22.05-3.59-28.35-.07-.55.09-1.11.46-1.54.37-.43.91-.68,1.48-.69,1.83-.02,3.11-.2,3.86-.35.4-.08.73-.37.84-.75l1.63-5.42c.09-.29.05-.6-.1-.86-.1-.17-.14-.37-.11-.56,1.21-7.81,1.72-21.05.44-28.84-1.15-7.01-4.78-10.29-9.79-14.84-.52-.47-1.05-.95-1.59-1.45-.1-.09-.17-.2-.22-.32-.69-1.77-1.46-3.2-4.47-4.25-.24-.08-.44-.28-.52-.52l-2.19-6.23c-.16-.44.08-.93.52-1.08.44-.16.93.08,1.08.52l2.06,5.85c3.26,1.24,4.3,3.09,5.03,4.91.49.45.97.88,1.44,1.31,5.07,4.6,9.08,8.23,10.33,15.82,1.31,7.97.83,20.98-.4,29.11.26.6.31,1.28.11,1.92l-1.63,5.42c-.3.99-1.12,1.73-2.15,1.93-1.19.23-2.59.36-4.16.38-.12,0-.19.06-.22.1-.03.04-.07.11-.06.2.84,6.31,2.87,21.72,3.59,28.4.16,1.48-.86,2.8-2.31,3.02-4.06.6-8.4.87-12.74.87Z"/>
        <path class="cls-3" d="m44.87,102.07s-.06,0-.08,0c-.47-.05-.81-.46-.76-.93.65-6.72.74-12.69.75-14.55-6.18-2.25-8.67-4.67-8.78-4.78-.23-.23-.31-.58-.2-.89.65-1.82,1.42-3.86,2.25-6.02,2.23-5.85,4.76-12.47,5.31-16.54.69-5.09,2.01-10.1,6.87-12.33,3.5-1.61,10.87-3.07,13.88-3.62.37-.07.73-.21,1.06-.43,1.42-.92,3.61-2.13,3.71-2.18.27-.15.6-.14.86.02.26.16.42.46.4.77l-.34,6.19c-.03.59-.21,1.19-.52,1.73-1.87,3.28-2.72,6.12-3.1,8,1.22-1.25,2.34-2.4,2.94-3.02.2-.21.34-.46.42-.74.36-1.37.8-3.07,1.09-4.21.27-1.08,1.06-1.96,2.1-2.36l.63-.24c3.23-1.24,6.89-2.64,8.87-4.43.35-.31.89-.29,1.2.06.31.35.29.89-.06,1.2-2.22,2-6.04,3.46-9.4,4.75l-.62.24c-.53.2-.92.65-1.06,1.19-.29,1.15-.73,2.86-1.09,4.23-.15.56-.44,1.08-.84,1.49-.88.92-2.91,3-4.72,4.84-.24.25-.61.32-.93.19-.32-.13-.53-.44-.53-.79,0-.2.04-4.94,3.64-11.25.18-.31.28-.65.3-.98l.25-4.64c-.72.42-1.59.93-2.26,1.36-.53.34-1.09.57-1.68.67-2.3.42-10.06,1.93-13.48,3.5-3.89,1.78-5.17,5.69-5.9,11.01-.58,4.26-3.14,10.98-5.41,16.91-.74,1.93-1.44,3.77-2.04,5.43.92.74,3.5,2.56,8.31,4.24.34.12.57.44.57.8,0,.07.03,7.15-.76,15.32-.04.44-.41.77-.85.77Z"/>
        <path class="cls-3" d="m86.41,98.3c-.15,0-.31-.04-.45-.13-1-.62-2.04-1.23-3.05-1.83-2.88-1.7-5.59-3.31-7.19-4.86-1.26-1.22-2.14-2.76-2.53-4.44-.25-1.07-.49-2.29-.72-3.47-.41-2.13-.92-4.78-1.41-5.43-1.17-1.59-4.31-1.62-9.59-.11-1.41.41-2.34,1.8-2.15,3.24.02.18.06.37.1.56.11.46-.17.92-.62,1.03s-.92-.17-1.03-.62c-.06-.25-.11-.49-.14-.73-.3-2.27,1.15-4.46,3.37-5.1,4.18-1.2,9.26-2.19,11.43.73.66.9,1.09,2.91,1.71,6.12.22,1.16.46,2.36.7,3.4.32,1.37,1.04,2.62,2.06,3.61,1.46,1.42,4.09,2.97,6.88,4.62,1.03.61,2.07,1.23,3.08,1.85.4.25.52.77.28,1.17-.16.26-.44.4-.72.4Z"/>
        <path class="cls-3" d="m58.79,86.75c-.15,0-.3-.04-.44-.12-.73-.44-1.47-1.59-1.41-2.86.07-1.35,1.11-2.48,2.65-2.86,1.35-.33,3.51-.79,6.07-1.1.46-.06.89.27.95.74.06.47-.27.89-.74.95-2.48.3-4.57.75-5.87,1.07-.79.2-1.33.7-1.36,1.29-.03.62.36,1.19.58,1.32.4.24.53.76.29,1.17-.16.27-.44.41-.73.41Z"/>
        <path class="cls-3" d="m85.04,115.68c-.34,0-.69-.01-1.04-.03-7.26-.43-12.73-11.81-13.76-14.09-.29-.65-.8-1.12-1.41-1.3-2.6-.78-4.57-2.77-5.56-5.62-.13-.37-.44-.61-.8-.62l-2.25-.04c-1.4,0-2.56-1.12-2.62-2.53-.03-.6.12-1.15.4-1.6-.63-.44-1.06-1.17-1.16-2.02-.06-.53-.05-2.32,2.45-3.03,1.38-.39,3.07-.59,4.85-.8.45-.05.91-.11,1.37-.17.47-.06.89.27.95.74.06.47-.27.89-.74.95-.47.06-.93.11-1.38.17-1.71.2-3.33.4-4.59.75-1.31.37-1.24,1-1.22,1.21.05.49.44.95.98.97,1.72-.06,4.22-.16,5.59-.19h.02c.46,0,.83.36.85.82.02.46-.34.86-.8.88-1.08.06-2.48.11-3.89.16l-1.09.04c-.25,0-.49.12-.66.3-.17.19-.26.43-.25.68.03.58.44.97.94.97l2.26.04c1.07.02,2.02.73,2.38,1.76.46,1.34,1.66,3.72,4.44,4.55,1.08.32,1.98,1.14,2.47,2.23,2.63,5.86,7.43,12.8,12.31,13.09,6.66.4,8.99-3.29,11.46-11.18.14-.45.62-.7,1.07-.56.45.14.7.62.56,1.07-2.5,7.99-5.23,12.41-12.14,12.41Z"/>
        <path class="cls-3" d="m70.01,77.26c-.42,0-.78-.31-.84-.73-.25-1.8-.43-5.01-.54-7.38-.02-.33-.16-.63-.42-.84-.26-.21-.58-.3-.91-.25-.52.08-.92.48-.99,1.01-.31,2.37-.2,5.8-.13,7.17.02.47-.34.87-.81.89-.45,0-.87-.34-.89-.81-.07-1.41-.19-4.96.14-7.47.17-1.28,1.17-2.29,2.44-2.48.8-.11,1.62.11,2.24.63.62.51,1,1.27,1.04,2.07.11,2.33.29,5.48.53,7.22.06.47-.26.89-.73.96-.04,0-.08,0-.12,0Z"/>
        <path class="cls-3" d="m36.76,120.59c-.08,0-.15,0-.23,0-.77-.07-1.46-.47-1.9-1.11-.61-.88-1.18-1.84-1.7-2.83-1.25-2.39-.92-4.68.98-6.8.22-.25.36-.57.39-.9.19-2.08.92-3.42,2.44-4.49.13-.09.22-.25.24-.42.22-1.97,1.52-3.38,3.23-3.48.21-.01.51-.08.74-.32.8-.82,1.77-1.17,2.74-1,1.11.2,1.97,1.15,2.15,2.36.17,1.11.51,2.44.79,3.51.09.36.18.69.25.98.43,1.76-.34,2.72-1.06,3.22-.33.23-.7.37-1.07.42.42,1.02.58,2.47-.24,3.61-.2.28-.47.51-.77.68.38.72.44,1.57.16,2.34-.33.91-1.09,1.59-2.03,1.82-.9.22-1.84,0-2.55-.58.13.8-.12,1.64-.72,2.24-.49.49-1.15.77-1.83.77Zm6.44-19.71c-.34,0-.69.18-1.04.53-.48.49-1.13.79-1.85.83-.87.06-1.52.83-1.64,1.98-.07.65-.42,1.24-.96,1.62-1.11.78-1.58,1.67-1.72,3.25-.06.69-.35,1.36-.82,1.88-1.42,1.59-1.65,3.14-.74,4.88.49.93,1.03,1.83,1.6,2.65.15.22.39.36.65.38.26.03.52-.07.71-.26.28-.29.34-.71.14-1.06-.56-.99-1.32-2.47-1.75-3.84-.12-.39.06-.82.42-1.01.36-.19.81-.09,1.06.23.01.02,1.26,1.62,3.07,3.28.31.28.71.38,1.12.29.39-.1.7-.37.84-.75.14-.38.08-.79-.16-1.11-.12-.17-.25-.34-.38-.5-.44-.17-.92-.5-1.36-1.12-.64-.89-1.26-1.92-1.91-3.16-.22-.42-.06-.93.36-1.15.42-.22.93-.06,1.15.36.61,1.17,1.2,2.13,1.79,2.96.19.26.48.57.81.57h0c.23,0,.44-.14.54-.28.49-.68.2-1.69-.03-2.13-.43-.86-.78-1.62-1.08-2.3,0,0,0-.01,0-.02-.37-.8-.53-1.14-.93-2.13-.17-.43.03-.92.45-1.1.42-.18.92,0,1.11.43.15.34.32.71.49,1.13.13.3.27.62.42.96.22.46.52.76.81.84.1.03.26.05.49-.11.32-.22.59-.55.37-1.41-.07-.28-.15-.61-.24-.95-.29-1.11-.65-2.49-.83-3.69-.07-.48-.39-.87-.78-.94-.06-.01-.12-.02-.18-.02Z"/>
        <path class="cls-3" d="m41.03,120.35c-1.03,0-2.3-.56-3.12-1.18-.37-.28-.45-.82-.16-1.19.28-.37.82-.45,1.19-.16.73.56,1.77.9,2.21.83.47-.07.9.24.97.71s-.24.9-.71.97c-.12.02-.25.03-.39.03Z"/>
        <path class="cls-1" d="m63.19,56.57s-.05,0-.07,0c-.27-.04-.46-.29-.42-.56.65-4.42-.86-7.46-1.34-8.29-.14-.24-.06-.54.18-.68.23-.14.54-.06.68.18,1.39,2.4,1.94,5.74,1.47,8.93-.04.25-.25.42-.49.42Z"/>
        <path class="cls-1" d="m59.62,53.57c-.34,0-.67-.11-.94-.32-.43-.33-.66-.86-.59-1.4.17-1.54.54-3.77,1.32-5.66.1-.25.4-.38.65-.27.25.1.37.39.27.65-.74,1.78-1.09,3.91-1.25,5.39-.02.2.06.38.21.5.16.12.36.15.54.08l3.19-1.24c.26-.1.54.03.64.28.1.26-.03.54-.28.64l-3.19,1.24c-.18.07-.38.11-.57.11Z"/>
        <path class="cls-1" d="m76.82,55.92c-.19,0-.38-.03-.56-.1-.47-.18-.82-.58-.94-1.07-.33-1.33-.86-3.28-1.49-5.02-.09-.26.04-.54.3-.64.26-.09.54.04.64.3.65,1.78,1.18,3.77,1.52,5.12.04.18.17.32.34.39.17.07.36.04.51-.06,1.42-.95,4.27-2.95,7.49-5.66.21-.18.52-.15.7.06.18.21.15.52-.06.7-3.25,2.74-6.14,4.76-7.57,5.72-.26.17-.56.26-.86.26Z"/>
        <path class="cls-1" d="m89.64,65.17c-.2,0-.39-.12-.46-.32-1.74-4.59-3.31-8.17-4.67-10.64-.13-.24-.04-.54.2-.67.24-.13.54-.04.67.2,1.38,2.51,2.97,6.13,4.73,10.77.1.26-.03.54-.29.64-.06.02-.12.03-.18.03Z"/>
        <path class="cls-1" d="m81.02,87.13c-.08,0-.15-.02-.22-.05-.24-.12-.34-.42-.22-.67,1.88-3.74,2.2-5.79,1.37-8.79-.91-3.31-.14-8.22,3.08-10.81,4.23-3.4,10.22-4.15,14.57-1.82.24.13.33.43.2.67s-.43.33-.67.2c-4.01-2.14-9.56-1.43-13.48,1.72-2.79,2.24-3.59,6.73-2.75,9.77.9,3.24.55,5.55-1.44,9.5-.09.17-.26.27-.44.27Z"/>
        <path class="cls-1" d="m60.14,74.46s-.08,0-.12-.01c-.27-.07-.43-.34-.36-.6.12-.46.25-1.04.42-1.69.58-2.39,1.46-6,2.37-9.1.08-.26.35-.42.62-.34.26.08.41.35.34.62-.9,3.08-1.78,6.68-2.36,9.06-.16.66-.3,1.24-.42,1.7-.06.23-.26.38-.48.38Z"/>
        <path class="cls-1" d="m54.85,120.88s-.08,0-.12-.01c-.27-.07-.43-.33-.36-.6,1.45-5.91,2.22-12.06,2.9-17.49.23-1.85.45-3.59.68-5.17.04-.27.3-.45.56-.42.27.04.46.29.42.56-.23,1.57-.44,3.3-.68,5.15-.68,5.45-1.46,11.63-2.93,17.6-.06.23-.26.38-.48.38Z"/>
        <path class="cls-1" d="m45.45,79.88c-.06,0-.12-.01-.18-.03-1.14-.44-2.32-.96-4.22-2.52-.21-.17-.24-.49-.07-.7.18-.21.49-.24.7-.07,1.79,1.47,2.85,1.94,3.94,2.36.26.1.38.38.29.64-.08.2-.26.32-.46.32Z"/>
        <path class="cls-3" d="m72.27,67.64c-.2,0-.4-.07-.56-.21-.36-.31-.39-.84-.09-1.2l1.61-1.86c.31-.36.85-.39,1.2-.09.36.31.39.84.09,1.2l-1.61,1.86c-.17.19-.41.29-.64.29Z"/>
        <path class="cls-3" d="m74.13,71.23c-.35,0-.68-.22-.8-.57-.16-.44.08-.93.52-1.09l2.23-.79c.45-.16.93.08,1.09.52.16.44-.08.93-.52,1.09l-2.23.79c-.09.03-.19.05-.28.05Z"/>
        <path class="cls-3" d="m76.77,75.73s-.07,0-.11,0l-2.23-.29c-.47-.06-.79-.49-.73-.95.06-.46.49-.8.95-.73l2.23.29c.47.06.79.49.73.95-.06.43-.42.74-.84.74Z"/>
      </g>
    </g>
  </g>
  <g id="_アイコン" data-name="アイコン">
    <g>
      <path class="cls-5" d="m112.25,112.16c5.8-3.55,11.92-.41,13.1,3.34.11.34-.08.7-.42.8l-1.38.4c-.4.11-.57.58-.35.93l.76,1.21c.19.3.08.7-.22.88-3.38,2.01-10.03.27-11.99-6.24-.15-.49.06-1.05.5-1.32Z"/>
      <path class="cls-2" d="m120.59,121.21c-1.1,0-2.25-.21-3.36-.64-1.73-.67-4.83-2.47-6.16-6.89-.24-.8.1-1.69.81-2.12h0c3.94-2.41,7.45-1.68,9.19-1.03,2.42.91,4.32,2.73,4.96,4.76.11.35.07.73-.1,1.05-.17.32-.45.55-.8.65l-1.27.37.7,1.12c.19.31.25.67.16,1.02s-.31.66-.63.84c-.99.59-2.21.88-3.51.88Zm-7.97-8.45c-.17.1-.25.32-.19.51,1.16,3.85,3.83,5.4,5.32,5.98,1.98.77,4.11.73,5.57-.1l-.71-1.14c-.22-.36-.26-.79-.12-1.18.15-.39.47-.69.87-.8l1.29-.38c-.53-1.59-2.09-3.04-4.08-3.79-1.5-.56-4.52-1.19-7.95.91h0Z"/>
    </g>
    <g>
      <path class="cls-5" d="m32.02,171.5c-1.91,6.53-8.55,8.31-11.95,6.32-.31-.18-.42-.57-.23-.88l.75-1.22c.22-.35.04-.81-.36-.92l-1.38-.39c-.34-.1-.53-.46-.42-.8,1.16-3.76,7.25-6.94,13.08-3.43.44.27.66.82.51,1.31Z"/>
      <path class="cls-2" d="m23.18,179.29c-1.28,0-2.48-.29-3.46-.86-.31-.18-.54-.49-.63-.84-.09-.35-.03-.71.16-1.02l.69-1.12-1.27-.36c-.35-.1-.63-.33-.81-.64-.17-.32-.21-.7-.1-1.05.62-2.03,2.51-3.87,4.93-4.79,1.74-.66,5.24-1.42,9.19.97.72.44,1.06,1.31.83,2.12,0,0,0,0,0,0-1.3,4.43-4.39,6.24-6.12,6.93-1.12.45-2.29.67-3.41.67Zm-2.68-2.05c1.47.82,3.59.85,5.57.07,1.49-.59,4.15-2.16,5.28-6.01h0c.06-.19-.03-.41-.2-.51-3.44-2.07-6.46-1.43-7.96-.86-1.99.76-3.53,2.22-4.05,3.81l1.3.37c.41.11.72.4.88.8.15.39.11.82-.11,1.18l-.71,1.15Zm11.53-5.75h0,0Z"/>
    </g>
    <g>
      <path class="cls-5" d="m28.53,39.75c-.49-5.38-5.38-7.79-8.33-6.76-.27.09-.41.38-.31.65l.4,1.07c.11.31-.1.64-.42.66l-1.13.09c-.28.02-.48.28-.45.56.32,3.11,4.58,6.52,9.65,4.68.38-.14.64-.53.6-.94Z"/>
      <path class="cls-2" d="m25.08,42.06c-1.57,0-3.1-.42-4.42-1.25-1.81-1.14-3.05-2.94-3.24-4.71-.04-.37.08-.74.31-1.02.24-.28.57-.45.93-.48l.64-.05-.23-.6c-.13-.35-.11-.72.04-1.05.16-.33.45-.59.8-.71,1.68-.58,3.84-.22,5.64.94,2.19,1.41,3.58,3.8,3.83,6.56h0c.07.81-.41,1.56-1.17,1.83-1.04.38-2.1.56-3.14.56Zm-5.88-5.78c.25,1.14,1.13,2.28,2.38,3.06,1.03.65,3.19,1.57,6.06.53l.03-.05c-.28-3.05-2.03-4.61-3.05-5.27-1.23-.79-2.64-1.11-3.78-.86l.26.69c.15.4.1.84-.13,1.2s-.61.59-1.04.62l-.74.06Z"/>
    </g>
    <g>
      <g>
        <path class="cls-5" d="m114.79,168.09h-.1c-.83.14-1.54-.57-1.43-1.39v-.1c.11-.75-.47-1.43-1.23-1.43-2.46-.01-5.47,1.33-7.21,3.86-.17.25-.53.21-.64-.08-1.06-2.75-3.5-4.73-5.79-5.37-.74-.21-1.5.27-1.61,1.03v.1c-.13.83-1.01,1.31-1.77.97l-.09-.04c-.7-.31-1.51.07-1.73.81-.68,2.28-.3,5.4,1.46,7.76.18.24.03.57-.28.58-3.07.13-5.81,1.96-7.11,4.05-.4.64-.14,1.49.55,1.81l.09.04c.76.35.97,1.33.43,1.96l-.07.08c-.5.58-.37,1.47.27,1.89,1.93,1.27,4.91,1.81,7.61.91.27-.09.53.14.47.42-.61,2.78.23,5.69,1.69,7.47.49.59,1.38.63,1.91.07l.07-.07c.57-.61,1.57-.5,2,.22l.05.09c.39.66,1.28.81,1.88.33,1.86-1.47,3.35-4.23,3.28-7.17,0-.31.31-.48.57-.31,2.45,1.63,5.58,1.85,7.81,1.05.73-.26,1.07-1.08.72-1.77l-.05-.09c-.38-.74.06-1.65.88-1.81l.1-.02c.75-.15,1.2-.92.95-1.65-.76-2.28-2.91-4.63-5.76-5.53-.19-.06-.22-.2-.06-.32,2.14-1.74,3.63-4.77,3.58-7.11-.01-.77-.69-1.35-1.45-1.24Z"/>
        <path class="cls-2" d="m103.41,195.26c-.13,0-.27-.01-.4-.04-.62-.11-1.15-.49-1.47-1.03l-.05-.09c-.07-.12-.19-.15-.25-.16-.06,0-.18,0-.28.1l-.07.07c-.43.46-1.04.7-1.67.69-.63-.02-1.22-.32-1.62-.81-1.58-1.94-2.34-4.74-2.03-7.36-2.56.58-5.43.12-7.53-1.25-.53-.35-.88-.91-.97-1.53-.09-.62.1-1.25.5-1.73l.07-.08c.09-.1.08-.22.07-.29-.01-.06-.06-.17-.19-.23l-.09-.04c-.57-.26-1-.76-1.18-1.36-.18-.6-.09-1.24.24-1.77,1.2-1.93,3.75-3.93,6.89-4.39-1.39-2.33-1.81-5.28-1.07-7.78.18-.61.62-1.11,1.19-1.38.57-.26,1.22-.27,1.8-.01l.1.04c.13.06.24.02.3-.01.05-.03.15-.1.17-.25v-.1c.1-.62.46-1.17.98-1.51.53-.35,1.19-.45,1.8-.28,2.51.7,4.78,2.64,6.01,5.05,2.07-2.42,5.11-3.46,7.39-3.49.62,0,1.21.27,1.62.74.41.47.61,1.1.52,1.73v.11c-.03.14.04.24.08.28.04.04.14.12.29.09h.1c.62-.11,1.25.08,1.73.48.48.41.76,1,.78,1.64.04,2.3-1.19,5.08-3.03,7.01,2.42,1.12,4.4,3.25,5.21,5.67.2.6.14,1.26-.18,1.8-.32.54-.85.92-1.47,1.04l-.1.02c-.14.03-.21.13-.24.18-.03.06-.06.17,0,.3l.05.09c.29.56.31,1.21.08,1.8-.24.59-.71,1.05-1.31,1.26-2.45.87-5.41.6-7.79-.65-.21,2.69-1.56,5.34-3.6,6.94-.39.31-.88.48-1.37.48Zm-2.22-3.16c.08,0,.16,0,.25.01.68.08,1.28.46,1.63,1.05l.05.09c.06.11.16.14.23.16.06,0,.18.01.29-.08,1.51-1.19,3-3.64,2.92-6.42-.01-.49.24-.93.66-1.17.42-.23.93-.21,1.34.06,2.32,1.55,5.18,1.59,6.99.95.14-.05.2-.15.22-.21.03-.06.04-.17-.01-.28l-.05-.09c-.31-.62-.32-1.32-.02-1.94s.86-1.05,1.54-1.19l.1-.02c.13-.03.2-.11.23-.16.03-.05.07-.16.03-.29-.62-1.85-2.46-4.09-5.16-4.94-.42-.13-.71-.45-.79-.84-.08-.39.08-.79.42-1.07,1.89-1.53,3.28-4.28,3.25-6.38,0-.14-.08-.23-.13-.27-.05-.04-.14-.09-.27-.08,0,0,0,0,0,0h-.1c-.68.12-1.35-.1-1.85-.59-.49-.48-.72-1.15-.63-1.84v-.11c.03-.13-.03-.23-.07-.27-.04-.05-.13-.12-.27-.11-2.02,0-4.78,1.07-6.42,3.46-.27.4-.74.61-1.21.55-.47-.06-.87-.37-1.05-.82-1-2.61-3.32-4.3-5.17-4.82-.14-.04-.25,0-.3.04-.06.04-.13.11-.15.23v.1c-.11.68-.52,1.26-1.12,1.6-.6.33-1.31.36-1.94.08l-.1-.04c-.11-.05-.21-.03-.27,0-.06.03-.16.09-.2.23-.55,1.85-.36,4.71,1.32,6.95.29.39.34.89.14,1.33s-.63.71-1.12.73c-2.91.12-5.29,1.9-6.36,3.62-.07.11-.05.21-.04.27.02.06.06.16.19.22l.09.04c.62.29,1.07.84,1.22,1.51.15.67-.02,1.36-.47,1.88l-.07.08c-.08.09-.08.21-.07.26,0,.06.04.17.16.25,1.54,1.01,4.25,1.65,6.81.8.44-.15.93-.05,1.27.26s.49.78.39,1.23c-.58,2.64.34,5.26,1.5,6.69.09.11.2.13.26.13.06,0,.17,0,.26-.11l.07-.07c.42-.45.99-.69,1.58-.69Zm-5.48-6.35s0,0,0,0c0,0,0,0,0,0Zm-1.39-11.88s0,0,0,0c0,0,0,0,0,0Zm20.46-5.78h0,0Z"/>
      </g>
      <circle class="cls-2" cx="102.24" cy="176.71" r="1.09"/>
      <circle class="cls-2" cx="101.9" cy="180.18" r="1.09"/>
      <circle class="cls-2" cx="105.36" cy="178.27" r="1.09"/>
    </g>
    <g>
      <g>
        <path class="cls-5" d="m48.83,7.15h-.07c-.59.1-1.1-.4-1.02-.99v-.07c.08-.53-.33-1.01-.87-1.02-1.75,0-3.89.94-5.13,2.74-.12.18-.38.15-.45-.05-.75-1.96-2.49-3.37-4.12-3.82-.53-.15-1.07.19-1.14.74v.07c-.1.59-.72.93-1.26.69l-.07-.03c-.5-.22-1.08.05-1.23.58-.48,1.62-.22,3.84,1.04,5.52.13.17.02.4-.2.41-2.18.09-4.13,1.4-5.06,2.88-.29.46-.1,1.06.39,1.29l.07.03c.54.25.69.95.31,1.4l-.05.06c-.35.41-.26,1.04.2,1.34,1.37.9,3.49,1.28,5.42.64.2-.06.38.1.33.3-.43,1.98.17,4.05,1.2,5.32.35.42.98.45,1.36.05l.05-.05c.41-.43,1.12-.35,1.42.16l.04.06c.28.47.91.58,1.34.24,1.33-1.05,2.39-3.01,2.33-5.1,0-.22.22-.34.4-.22,1.74,1.16,3.97,1.31,5.56.75.52-.18.76-.77.51-1.26l-.03-.07c-.27-.53.04-1.17.63-1.29h.07c.54-.12.85-.67.68-1.19-.54-1.62-2.07-3.3-4.1-3.93-.13-.04-.15-.14-.05-.23,1.53-1.24,2.58-3.39,2.55-5.06,0-.55-.49-.96-1.03-.88Z"/>
        <path class="cls-2" d="m40.74,26.67c-.11,0-.21,0-.32-.03-.49-.09-.92-.39-1.18-.82l-.07-.08s-.09.07-.09.07c-.34.36-.82.57-1.33.54-.51-.02-.98-.25-1.3-.65-1.11-1.35-1.66-3.28-1.51-5.11-1.8.34-3.78-.01-5.25-.97-.42-.28-.71-.72-.78-1.22-.07-.5.08-1,.4-1.38l.06-.1s-.1-.06-.1-.06c-.45-.21-.8-.61-.94-1.09-.14-.48-.07-1,.19-1.42,1-1.6,2.83-2.79,4.76-3.17-.9-1.66-1.16-3.7-.64-5.45.15-.49.5-.89.96-1.1.46-.21.98-.21,1.44,0l.11.03s.03-.11.04-.11c.07-.49.35-.93.77-1.21.43-.28.95-.36,1.44-.22,1.75.49,3.34,1.8,4.26,3.45,1.34-1.43,3.31-2.34,5.19-2.34h.03c.5,0,.97.22,1.3.6.33.38.48.88.42,1.38v.11s.17.85.17.85l-.05-.85s0,0,0,0c.49-.07,1,.07,1.38.4.39.33.61.8.62,1.31.03,1.61-.79,3.53-2.03,4.93,1.66.84,3.01,2.34,3.58,4.03.16.48.11,1.01-.15,1.44-.25.43-.68.74-1.17.84l-.1.04s.03.11.03.11c.23.45.25.97.06,1.44-.19.47-.57.84-1.05,1.01-1.7.61-3.75.46-5.45-.35-.22,1.87-1.19,3.67-2.61,4.79-.31.25-.7.38-1.09.38Zm-1.58-2.64c.06,0,.13,0,.19.01.55.06,1.03.37,1.31.84l.07.08c1.09-.83,2.11-2.51,2.06-4.43-.01-.42.21-.8.57-1,.36-.2.81-.18,1.15.05,1.6,1.07,3.56,1.1,4.8.65,0,0,0-.14,0-.14-.25-.49-.25-1.06-.01-1.56.24-.5.69-.84,1.23-.95l.1-.04c-.42-1.32-1.68-2.86-3.54-3.44-.37-.11-.63-.39-.7-.75-.07-.35.07-.71.37-.95,1.3-1.06,2.26-2.94,2.24-4.38l-.18-.9.12.84h-.07c-.55.1-1.09-.08-1.48-.47-.39-.39-.58-.92-.51-1.47v-.11h-.06c-1.41,0-3.28.73-4.4,2.36-.24.34-.64.52-1.05.48-.41-.05-.75-.32-.9-.71-.69-1.79-2.28-2.95-3.55-3.31,0,0-.08.11-.08.11-.08.54-.4,1.01-.88,1.28s-1.05.29-1.55.07l-.1-.03c-.41,1.31-.28,3.28.87,4.81.25.33.29.77.12,1.14-.18.37-.54.61-.96.63-2,.08-3.64,1.31-4.37,2.48,0,0,.1.1.1.1.49.23.85.67.97,1.21.12.54-.02,1.09-.38,1.51l-.06.09c1.09.74,2.95,1.17,4.71.59.38-.13.8-.04,1.09.23.29.26.42.67.34,1.06-.4,1.82.23,3.62,1.03,4.6,0,0,.13-.05.14-.05.33-.35.78-.54,1.26-.54Zm8.45-11.53h0,0Zm-13.79-.49h0s0,0,0,0Z"/>
      </g>
      <circle class="cls-2" cx="39.91" cy="13.28" r=".78"/>
      <circle class="cls-2" cx="39.66" cy="15.75" r=".78"/>
      <circle class="cls-2" cx="42.13" cy="14.39" r=".78"/>
    </g>
  </g>
</svg>