<?xml version="1.0" encoding="UTF-8"?>
<svg id="Layer_2" data-name="Layer 2" xmlns="http://www.w3.org/2000/svg" viewBox="0 0 346.28 257.55">
  <defs>
    <style>
      .cls-1 {
        fill: #fff;
      }

      .cls-2 {
        fill: #95e0e6;
      }

      .cls-3 {
        fill: #363636;
      }

      .cls-4 {
        fill: #8dc05f;
      }

      .cls-5 {
        fill: #ffdfbc;
      }

      .cls-6 {
        fill: #ffd964;
      }
    </style>
  </defs>
  <g id="_カットイラスト" data-name="カットイラスト">
    <g>
      <g>
        <path class="cls-1" d="m179.19,89.51l34.16,4.89c2.44.35,4.12,2.63,3.72,5.06l-3,18.51c-.39,2.42-2.68,4.05-5.1,3.63l-34.35-5.96c-2.41-.42-4.02-2.72-3.58-5.13l3.2-17.44c.43-2.33,2.61-3.9,4.96-3.57Z"/>
        <path class="cls-1" d="m196.32,151.41c-7.85-3.78-16.09-4.83-22.63-5.02-9.79-.69-23.41.08-23.41.08-5.47-6.92-13.42-9.51-24.56-9.91-1.46-.05-2.91.36-4.12,1.19l-1.32.91c-.73-1.48-1.41-3-2.05-4.54-5.12-12.39-13.87-21.14-20.85-23.65-1.96-3.57-8.16-13.44-19.86-17.96-16.83-6.5-27.23,7.09-27.38,13.58-11.67,5.24-18.77,19.08-24.22,41.71l-.02.13c1.68.29,3.37.66,5.08,1.13,14.67,4.07,26.6,14.77,32.81,28.68,4.54,10.18,8.77,22.52,11.78,34.95h0c10.53.14,19.79-1.49,26.79-5.53,5.85-3.38,7.87-10.95,4.3-16.68-.48-.78-1.05-1.57-1.71-2.37l-.02-.02c12.43,6.48,25.67,5.45,33.28,3.33,7.35-2.05,14.32-6.34,18.87-11.54,3.28.79,5.75,1.58,7.51,2.22,2.26.82,4.78.32,6.55-1.3l26.02-23.9c1.75-1.61,1.29-4.46-.85-5.49Z"/>
        <path class="cls-6" d="m13.89,147.29c5.38-.33,11.16.13,17.09,1.78,14.67,4.07,26.6,14.77,32.81,28.68s12.01,32.48,14.69,49.4c.96,6.07-2.52,11.96-8.25,14.16h0c-2.51.96-5.25,1.12-7.85.47l-36.44-9.14c-5.6-1.4-9.93-5.85-11.18-11.48L1.87,163.22c-1.75-7.88,3.96-15.44,12.02-15.93Z"/>
        <path class="cls-6" d="m250.03,142.74v18.7c0,3.25-2.39,8.18-12.09,8.18s-12.09-4.93-12.09-8.18v-18.7s1.35,6.67,12.09,6.67,12.09-6.67,12.09-6.67Z"/>
        <path class="cls-4" d="m251.95,211.35c-5.73,3.83-4.52,17.84,9.72,24.23,10.48,4.7,17.48-4.77,11.86-14.74-4.79-8.49-15.55-13.51-21.58-9.49Z"/>
        <path class="cls-4" d="m261.37,175.05c-7.49,2.7-10.69,14.59,4.5,22.58s24.28,1.2,21.18-8.79c-3.99-12.86-18.18-16.48-25.68-13.79Z"/>
        <path class="cls-4" d="m319.02,168.91c-7.15-4.9-21.3,3.52-24.11,16.09-3.4,15.17,5.63,21.38,17.32,10.59s12.09-23.05,6.79-26.68Z"/>
        <path class="cls-4" d="m311.43,131.94c-8.09-1.81-14.39,7.08-12.79,17.47s11.54,15.3,17.68,3.01c5.49-10.99.9-19.18-4.9-20.48Z"/>
        <path class="cls-4" d="m342.8,159.68c-7.35-3.21-18.48,15.12-11.69,17.12s18.18-14.29,11.69-17.12Z"/>
        <path class="cls-4" d="m336.86,195.78c-5.76-4.36-21.84,2-26.24,15.19-4.4,13.19,5.89,17.38,17.48,7.49s13.4-19.15,8.75-22.68Z"/>
        <polygon class="cls-3" points="198.25 236.81 225.85 224.31 198.25 218.13 198.25 236.81"/>
        <path class="cls-3" d="m249.31,164.53c1.27,1,2.01,2.17,2.01,3.43,0,3.6-5.99,6.51-13.38,6.51s-13.38-2.91-13.38-6.51c0-1.26.74-2.44,2.01-3.43,0,0,2.43,4.97,11.37,4.97s11.37-4.97,11.37-4.97Z"/>
        <path class="cls-3" d="m245.76,147.23c-.57-1.85-3.85-3.27-7.81-3.27s-7.24,1.42-7.81,3.27c0,0,1.86,1.4,7.81,1.4s7.81-1.39,7.81-1.39Z"/>
        <path class="cls-5" d="m91.81,102.43c.68-.91,1.5-1.83,2.17-2.55.72-.77,1.9-.84,2.73-.19,8.62,6.76,12.56-.65,14.98-4.66,1.14-1.89,3.16-4.16,4.59-5.67.89-.94,1.04-2.33.42-3.46-.92-1.67-1.32-3.36-1.33-5.57-.01-2.57,1.23-5.05,1.77-9.84,1.3-11.51-3.93-20.24-14.38-25.27-6.09-2.93-16.14-3.74-22.68.42-.57.36-1.16.67-1.78.91-9.37,3.61-15.05,13.12-12.81,23.77,1.34,6.39,4.25,9.82,6.54,13.16,1.3,1.9,1.49,4.35.48,6.42-.12.25-.26.51-.41.79,0,0,12.36,2.95,19.71,11.75Z"/>
        <path class="cls-5" d="m162.32,166.81c2.88-4.29,10.5-5.9,13.57-9.12,2.59-2.71,1.82-4.79.1-6.23-.57-.48-.91-1.18-.89-1.92.05-1.31-.36-2.51-1.41-3.16-.6-.37-1.01-.97-1.13-1.66-.2-1.19-.77-2.04-2.09-2.5-.7-.25-1.19-.82-1.47-1.51-.63-1.54-2.44-2.17-3.78-1.69-1.65.59-2.95,3.66-6.02,3.89-1.97.15-2.86-3.05-6.25-2.01s-2.01,6.61-3.79,10.04c0,0,10.92.6,13.16,15.87Z"/>
        <path class="cls-2" d="m86.2,81.92c-.55-1.93-.67-4.15,0-6.3,1.5-4.73,5.85-5.37,8.2-3.18,1.4,1.31,3.44,1.75,5.28,1.19,6.01-1.84,9.6-7.96,12.26-13.6.86-1.82,1.6-3.02,3.2-3.13h0c-2.36-4.94-6.56-8.88-12.38-11.68s-16.14-3.74-22.68.42c-.57.36-1.16.67-1.78.91-9.37,3.61-15.05,13.12-12.81,23.77,1.34,6.39,4.25,9.82,6.54,13.16.69,1.01,1.07,2.18,1.12,3.36,5.56,1.75,10.96-3.57,13.05-4.93Z"/>
        <path class="cls-2" d="m202.12,120.42l1.28,5.24c.54,2.22-.04,4.56-1.56,6.27l-2.01,2.27c-1.61,1.82-4.09,2.61-6.46,2.06l-12.45-2.87c-2.37-.55-2.98-3.64-.99-5.04l1.61-1.13c1.69-1.19,2.53-3.26,2.14-5.29l-.93-4.86,19.37,3.36Z"/>
        <path class="cls-3" d="m161.76,141.92l10.27-13.58c.61-.81.32-1.97-.6-2.4h0c-.66-.31-1.45-.12-1.91.45l-12.44,15.53s1.78,2.6,4.68,0Z"/>
        <polygon class="cls-2" points="314.63 24.58 314.63 52.37 289.97 48.54 289.33 35.28 314.63 24.58"/>
        <g>
          <path class="cls-2" d="m213.51,98.28c-.55,0-.99.44-.99.99s.44.99.99.99.99-.44.99-.99-.44-.99-.99-.99Z"/>
          <path class="cls-2" d="m213.51,103.24c-.55,0-.99.44-.99.99s.44.99.99.99.99-.44.99-.99-.44-.99-.99-.99Z"/>
          <circle class="cls-2" cx="213.51" cy="109.19" r=".99"/>
          <circle class="cls-2" cx="204.92" cy="94.31" r=".99"/>
          <path class="cls-2" d="m204.92,98.28c-.55,0-.99.44-.99.99,0,.35.19.64.46.81.11.04.22.08.32.13.07.02.14.04.21.04.55,0,.99-.44.99-.99s-.44-.99-.99-.99Z"/>
          <path class="cls-2" d="m212.52,94.31c0,.55.44.99.99.99.4,0,.75-.24.9-.59-.34-.14-.69-.25-1.06-.31l-.83-.12s0,.02,0,.03Z"/>
          <circle class="cls-2" cx="209.21" cy="96.79" r=".99"/>
          <path class="cls-2" d="m210.2,101.75c0-.55-.44-.99-.99-.99s-.99.44-.99.99.44.99.99.99.99-.44.99-.99Z"/>
          <path class="cls-2" d="m208.22,106.71c0,.55.44.99.99.99s.99-.44.99-.99-.44-.99-.99-.99-.99.44-.99.99Z"/>
          <circle class="cls-2" cx="209.21" cy="111.67" r=".99"/>
          <circle class="cls-2" cx="213.51" cy="114.15" r=".99"/>
          <path class="cls-2" d="m209.21,115.64s-.05.01-.08.02c.32.46.62.96.9,1.5.1-.15.17-.32.17-.52,0-.55-.44-.99-.99-.99Z"/>
          <path class="cls-2" d="m213.99,118.26c-.14-.08-.3-.14-.48-.14-.55,0-.99.44-.99.99,0,.33.17.61.42.79.47-.47.86-.98,1.05-1.64Z"/>
          <circle class="cls-2" cx="196.32" cy="94.31" r=".99"/>
          <path class="cls-2" d="m200.62,92.82c.2,0,.37-.07.52-.17l-1.26-.18c.18.21.44.35.74.35Z"/>
          <path class="cls-2" d="m196.32,98.28c-.55,0-.99.44-.99.99s.44.99.99.99.99-.44.99-.99-.44-.99-.99-.99Z"/>
          <circle class="cls-2" cx="200.62" cy="96.79" r=".99"/>
          <path class="cls-2" d="m187.73,93.32c-.55,0-.99.44-.99.99s.44.99.99.99.99-.44.99-.99-.44-.99-.99-.99Z"/>
          <path class="cls-2" d="m192.03,92.82c.55,0,.99-.44.99-.99,0-.12-.03-.24-.07-.35l-1.69-.24c-.13.17-.22.37-.22.59,0,.55.44.99.99.99Z"/>
          <path class="cls-2" d="m187.73,98.28c-.55,0-.99.44-.99.99s.44.99.99.99.99-.44.99-.99-.44-.99-.99-.99Z"/>
          <circle class="cls-2" cx="192.03" cy="96.79" r=".99"/>
          <path class="cls-2" d="m196.54,103.28c-.07-.02-.14-.04-.22-.04-.55,0-.99.44-.99.99,0,.44.29.8.68.93.1-.65.28-1.28.53-1.88Z"/>
          <path class="cls-2" d="m193.02,101.75c0-.55-.44-.99-.99-.99s-.99.44-.99.99.44.99.99.99.99-.44.99-.99Z"/>
          <path class="cls-2" d="m191.04,106.71c0,.55.44.99.99.99s.99-.44.99-.99-.44-.99-.99-.99-.99.44-.99.99Z"/>
          <path class="cls-2" d="m188.72,104.23c0-.55-.44-.99-.99-.99-.2,0-.38.08-.54.18,0,.39.01.77.02,1.13,0,.18.02.36.04.54.14.08.3.14.48.14.55,0,.99-.44.99-.99Z"/>
          <path class="cls-2" d="m196.05,108.35s0-.06-.01-.1c-.4.12-.7.49-.7.93,0,.27.11.51.28.69.36-.4.54-.96.44-1.52Z"/>
          <path class="cls-2" d="m192.03,110.68c-.35,0-.64.19-.82.46.36.05.73.05,1.1-.04.15-.03.29-.07.43-.11-.18-.19-.43-.32-.72-.32Z"/>
          <path class="cls-2" d="m188.25,108.37c.14.28.3.56.46.84,0,0,0-.01,0-.02,0-.35-.19-.64-.47-.82Z"/>
          <path class="cls-2" d="m179.14,93.32c-.55,0-.99.44-.99.99s.44.99.99.99.99-.44.99-.99-.44-.99-.99-.99Z"/>
          <path class="cls-2" d="m184.43,91.83c0-.55-.44-.99-.99-.99s-.99.44-.99.99.44.99.99.99.99-.44.99-.99Z"/>
          <path class="cls-2" d="m179.14,98.28c-.55,0-.99.44-.99.99s.44.99.99.99.99-.44.99-.99-.44-.99-.99-.99Z"/>
          <path class="cls-2" d="m184.43,96.79c0-.55-.44-.99-.99-.99s-.99.44-.99.99.44.99.99.99.99-.44.99-.99Z"/>
          <path class="cls-2" d="m183.44,100.76c-.55,0-.99.44-.99.99,0,.11.03.21.06.3.56-.11,1.18-.09,1.83.09.05-.12.09-.26.09-.4,0-.55-.44-.99-.99-.99Z"/>
          <path class="cls-2" d="m179.14,113.16c-.55,0-.99.44-.99.99s.44.99.99.99.99-.44.99-.99-.44-.99-.99-.99Z"/>
          <path class="cls-2" d="m183.57,115.67s-.09-.03-.13-.03c-.55,0-.99.44-.99.99,0,.14.03.27.08.38l1.47.26-.43-1.6Z"/>
          <path class="cls-2" d="m179.14,90.34c.45,0,.81-.3.93-.71l-.88-.13c-.34-.05-.68-.05-1.02-.02.07.48.47.85.96.85Z"/>
          <path class="cls-2" d="m174.84,92.82c.55,0,.99-.44.99-.99,0-.39-.23-.71-.55-.88-.43.48-.75,1.07-.93,1.72.15.09.31.15.49.15Z"/>
          <path class="cls-2" d="m174.84,97.78c.55,0,.99-.44.99-.99s-.44-.99-.99-.99-.99.44-.99.99.44.99.99.99Z"/>
          <path class="cls-2" d="m174.84,102.74c.55,0,.99-.44.99-.99s-.44-.99-.99-.99-.99.44-.99.99.44.99.99.99Z"/>
          <path class="cls-2" d="m171.14,109.96c.24-.18.4-.45.4-.77,0-.19-.07-.36-.16-.51l-.23,1.28Z"/>
          <path class="cls-2" d="m179.14,105.22c.14,0,.28-.03.4-.09.09-.46.26-.9.5-1.3-.16-.35-.5-.59-.9-.59-.55,0-.99.44-.99.99s.44.99.99.99Z"/>
          <path class="cls-2" d="m173.85,106.71c0,.55.44.99.99.99s.99-.44.99-.99-.44-.99-.99-.99-.99.44-.99.99Z"/>
          <path class="cls-2" d="m179.14,110.18c.55,0,.99-.44.99-.99s-.44-.99-.99-.99-.99.44-.99.99.44.99.99.99Z"/>
          <path class="cls-2" d="m174.84,112.66c.55,0,.99-.44.99-.99s-.44-.99-.99-.99-.99.44-.99.99.44.99.99.99Z"/>
          <path class="cls-2" d="m174.73,115.66l.56.1c-.14-.07-.28-.12-.45-.12-.04,0-.07.02-.11.02Z"/>
        </g>
        <path class="cls-6" d="m170.48,58.97c-5.35,2.13,4.22,22.08,8.58,20.35s-3.24-22.47-8.58-20.35Z"/>
        <path class="cls-6" d="m189.31,62.63c-4.8-.43-4.91,14.92-.99,15.27s5.79-14.84.99-15.27Z"/>
        <path class="cls-6" d="m159.29,74.38c-3.32,3.5,8.66,13.1,11.36,10.25s-8.05-13.75-11.36-10.25Z"/>
        <ellipse class="cls-1" cx="237.94" cy="142.74" rx="12.09" ry="5.88"/>
        <path class="cls-1" d="m288.87,16.48l1.01,41.75c.04,1.83-1.52,3.27-3.34,3.11-5.72-.5-8.66,1.02-13.74,3.05-6,2.39-15.58,2.44-21.22-2.39s-11.42-3.55-13.83-2.57c-5.34,2.18-8,3.74-13.94,2.87s-8.59-3.75-12.03-7.07c-4.59-4.43-10.28-5.19-15.93-4.13-2.21.42-4.14-1.55-3.58-3.73,2.99-11.63,10.67-33.67,16.74-45.81,14.57-2.77,14.77-1.72,21.13,2.12s11.58,4.54,21.19,3.14,14.46-1.1,20.06,3.47,9.82,6.78,17.49,6.2Z"/>
        <path class="cls-3" d="m245.76,147.23c-.57-1.85-3.85-3.27-7.81-3.27s-7.24,1.42-7.81,3.27c0,0,2.19,2.19,7.81,2.19s7.81-2.18,7.81-2.18Z"/>
      </g>
      <g>
        <path class="cls-3" d="m91.81,103.99c-.33,0-.66-.1-.94-.31-.69-.52-.83-1.5-.31-2.18.61-.8,1.37-1.71,2.27-2.67,1.27-1.37,3.35-1.52,4.84-.35,2.39,1.87,4.5,2.65,6.27,2.33,2.78-.51,4.72-3.74,6.13-6.09l.29-.48c1.2-1.99,3.27-4.33,4.79-5.94.41-.44.49-1.1.19-1.64-1.04-1.88-1.51-3.83-1.52-6.32,0-1.49.33-2.88.73-4.49.37-1.52.79-3.25,1.05-5.54,1.21-10.67-3.46-18.86-13.51-23.69-5.78-2.78-15.28-3.42-21.16.33-.7.44-1.37.79-2.06,1.05-8.97,3.45-13.84,12.5-11.85,21.99,1.1,5.23,3.26,8.29,5.35,11.25.32.46.64.9.94,1.35,1.62,2.37,1.85,5.43.59,7.98-.13.27-.28.56-.44.85-.42.75-1.36,1.03-2.12.61-.75-.42-1.03-1.36-.61-2.12.14-.25.26-.49.38-.72.76-1.55.62-3.41-.37-4.85-.3-.43-.6-.87-.92-1.31-2.17-3.07-4.63-6.55-5.86-12.41-2.32-11.03,3.35-21.53,13.78-25.54.49-.19.99-.44,1.5-.77,7.05-4.49,17.73-3.62,24.19-.51,11.19,5.38,16.61,14.91,15.25,26.85-.28,2.48-.75,4.39-1.12,5.93-.36,1.47-.64,2.63-.64,3.74.01,1.96.35,3.41,1.14,4.83.96,1.74.7,3.86-.65,5.29-1.42,1.5-3.33,3.66-4.39,5.41l-.28.47c-1.62,2.7-4.07,6.79-8.23,7.56-2.69.5-5.64-.49-8.76-2.94-.21-.16-.47-.15-.63.02-.82.88-1.53,1.72-2.07,2.42-.31.41-.77.62-1.25.62Z"/>
        <path class="cls-3" d="m75.57,88.63c-1.08,0-2.1-.2-2.93-.56-.65-.28-.94-1.03-.66-1.68.28-.65,1.03-.95,1.68-.66,1.57.68,4.97.49,7.28-2.08.47-.52,1.28-.57,1.8-.09.52.47.57,1.28.1,1.8-2.07,2.3-4.85,3.28-7.26,3.28Z"/>
        <path class="cls-3" d="m89.39,88.36c-.26,0-.53-.08-.76-.25-2.62-1.93-5.35-7.48-3.64-12.88.84-2.64,2.6-4.5,4.85-5.08,1.95-.51,3.98,0,5.44,1.36,1.06.99,2.61,1.34,4.03.9,5.54-1.7,8.91-7.49,11.48-12.92.73-1.55,1.73-3.68,4.26-3.86.69-.05,1.31.48,1.36,1.18.05.7-.48,1.31-1.18,1.37-.81.06-1.27.58-2.13,2.4-2.8,5.94-6.55,12.28-13.04,14.27-2.3.71-4.8.14-6.52-1.48-.81-.76-1.95-1.04-3.05-.75-1.4.37-2.49,1.57-3.07,3.39-1.38,4.35,1,8.79,2.72,10.05.57.42.69,1.22.27,1.78-.25.34-.64.52-1.03.52Z"/>
        <path class="cls-3" d="m125.67,194.54c-13.58,0-34.16-5.2-45.24-33.6-.31-.8.08-1.71.89-2.02.8-.31,1.71.08,2.02.89,15.48,39.69,50.51,31.21,54.45,30.11,13.16-3.67,23.68-14.19,22.97-22.98-.39-4.84-2.6-9.22-6.06-12.02-3.29-2.66-8.05-3.28-12.42-1.6-2.07.8-4.01,1.15-5.81,1.15-11.53,0-17.53-14.51-19.7-19.75-3.65-8.83-11.44-19.72-19.94-22.78-.36-.13-.66-.38-.84-.72-2.07-3.78-8.07-13.02-19.05-17.25-8.33-3.22-14.37-1.03-17.96,1.38-4.65,3.11-7.23,7.88-7.3,10.79-.01.6-.37,1.14-.92,1.39-10.51,4.71-17.71,17.25-23.34,40.65-.2.84-1.04,1.35-1.88,1.15-.84-.2-1.35-1.04-1.15-1.88,5.74-23.83,13.25-36.97,24.26-42.37.53-3.75,3.48-8.89,8.6-12.31,4.21-2.81,11.23-5.39,20.81-1.69,11.47,4.43,17.91,13.81,20.38,18.16,6.75,2.7,15.76,11.13,21.21,24.31,6.12,14.8,12.95,20.16,21.5,16.88,5.4-2.07,11.34-1.27,15.5,2.09,4.12,3.33,6.75,8.51,7.2,14.2.94,11.6-12.38,22.65-25.25,26.23-1.38.38-6.34,1.62-12.96,1.62Z"/>
        <path class="cls-3" d="m76.66,117.25c-6.32,0-12.28-1.14-16.91-2.74-5.89-2.03-9.92-4.9-11.07-7.86-.31-.8.09-1.71.89-2.02.8-.31,1.71.09,2.02.89.62,1.6,3.36,4.03,9.18,6.04,9.98,3.45,24.93,4.03,35.81-2.44.74-.44,1.7-.2,2.14.54.44.74.2,1.7-.54,2.14-6.67,3.97-14.32,5.45-21.51,5.45Z"/>
        <path class="cls-3" d="m65.56,243.73c-1.19,0-2.39-.15-3.57-.44l-36.44-9.14c-6.21-1.56-10.93-6.41-12.32-12.66L.35,163.56c-.93-4.2.02-8.57,2.6-12,2.59-3.44,6.54-5.56,10.84-5.82h0c5.99-.36,11.91.25,17.6,1.83,14.96,4.15,27.29,14.91,33.82,29.55,6.71,15.03,12.25,33.65,14.8,49.79,1.07,6.73-2.82,13.4-9.23,15.86-1.68.64-3.45.97-5.22.97ZM13.98,148.85h0c-3.39.2-6.5,1.88-8.54,4.58-2.04,2.7-2.78,6.15-2.05,9.45l12.89,57.93c1.13,5.09,4.98,9.04,10.04,10.31l36.44,9.14c2.3.58,4.7.44,6.91-.42,5.05-1.93,8.11-7.17,7.27-12.46-2.52-15.89-7.96-34.21-14.57-49.01-6.15-13.78-17.75-23.92-31.81-27.81-5.36-1.49-10.94-2.06-16.58-1.72Z"/>
        <path class="cls-3" d="m76.78,214.26c-.41,0-.82,0-1.23,0-.86-.01-1.55-.72-1.54-1.58.01-.85.71-1.54,1.56-1.54h.02c10.87.13,19.62-1.65,25.99-5.33,2.51-1.45,4.28-3.79,4.98-6.6.68-2.73.25-5.54-1.22-7.91-.46-.74-1-1.49-1.59-2.2-.55-.66-.46-1.65.21-2.19.66-.55,1.65-.46,2.19.21.68.82,1.3,1.68,1.84,2.54,1.92,3.09,2.49,6.75,1.6,10.31-.9,3.58-3.25,6.7-6.45,8.54-6.62,3.82-15.48,5.75-26.36,5.75Z"/>
        <path class="cls-3" d="m106.12,205.32c-.69,0-1.32-.46-1.5-1.15-.23-.83.27-1.69,1.1-1.91,8.45-2.29,18.58-2.33,23.87-2.14.86.03,1.53.75,1.5,1.61-.03.86-.74,1.49-1.61,1.5-5.11-.18-14.89-.14-22.95,2.04-.14.04-.27.05-.41.05Z"/>
        <path class="cls-3" d="m92.96,257.55c-.56,0-1.1-.3-1.38-.83-.4-.76-.11-1.7.65-2.11,8.49-4.49,42.61-14.97,52.46-16.83.84-.16,1.66.4,1.82,1.24.16.85-.4,1.66-1.24,1.82-9.45,1.79-43.48,12.23-51.58,16.52-.23.12-.48.18-.73.18Z"/>
        <path class="cls-3" d="m45.57,253.09c-.74,0-1.39-.52-1.53-1.27-4.77-25.47-8.88-42.65-10.9-50.62-.98-3.85-4.23-6.74-8.1-7.19l-.25-.03c-1.11-.11-2.17.33-2.91,1.21-.77.91-1.04,2.14-.73,3.28,4.44,16.22,7.88,33.41,9.95,49.72.11.85-.5,1.63-1.35,1.74-.85.1-1.63-.5-1.74-1.35-2.05-16.17-5.46-33.21-9.86-49.29-.58-2.13-.08-4.42,1.35-6.11,1.41-1.67,3.44-2.51,5.59-2.3l.31.03c5.15.6,9.47,4.42,10.77,9.52,2.03,8.01,6.16,25.25,10.94,50.81.16.85-.4,1.66-1.25,1.82-.1.02-.19.03-.29.03Z"/>
        <path class="cls-3" d="m92.03,72.43c-.57,0-1.06-.43-1.13-1.01-.07-.62.38-1.18,1-1.25,4.22-.48,8.23-4.51,10.71-10.79.23-.58.89-.87,1.47-.64.58.23.87.89.64,1.47-2.8,7.08-7.49,11.64-12.56,12.21-.04,0-.09,0-.13,0Z"/>
        <path class="cls-3" d="m78.47,68.03c-1,0-2.01-.17-3.01-.51-.59-.21-.9-.85-.7-1.44.21-.59.85-.91,1.44-.7,2.9,1.01,6.8.14,8.99-4.08.29-.56.97-.77,1.53-.49.56.29.77.97.49,1.53-1.87,3.6-5.21,5.69-8.74,5.69Z"/>
        <path class="cls-3" d="m108.62,76.35c-.12,0-.24-.02-.36-.06-.59-.2-.92-.84-.72-1.43.74-2.21,3.03-4.14,5.34-4.49,1.66-.25,3.08.33,4.02,1.64.36.51.25,1.22-.26,1.58-.51.37-1.22.25-1.58-.26-.43-.6-1.03-.84-1.84-.72-1.45.22-3.07,1.58-3.53,2.96-.16.48-.6.78-1.08.78Z"/>
        <path class="cls-3" d="m111.69,96.31c-.11,0-.23-.01-.34-.05-.1-.03-2.57-.74-4.32-3.14-.42-.57-.29-1.37.28-1.78.57-.41,1.37-.29,1.78.28,1.22,1.67,2.94,2.19,2.96,2.19.67.2,1.06.9.87,1.58-.16.56-.67.92-1.22.92Z"/>
        <circle class="cls-3" cx="71.87" cy="65.16" r="1.13"/>
        <circle class="cls-3" cx="227.24" cy="12.22" r="1.26"/>
        <circle class="cls-3" cx="199.75" cy="105.16" r="1"/>
        <circle class="cls-3" cx="203.75" cy="105.84" r="1"/>
        <ellipse class="cls-3" cx="113.54" cy="79.07" rx="2.46" ry="1.8" transform="translate(20.14 181.15) rotate(-82.4)"/>
        <path class="cls-3" d="m94.78,159.55c-.36,0-.72-.17-.94-.49-.35-.52-.22-1.22.3-1.58,5.08-3.48,14.99-9.6,20.36-12.05.57-.26,1.24,0,1.5.56s0,1.24-.56,1.5c-5.19,2.37-15.13,8.52-20.02,11.86-.2.13-.42.2-.64.2Z"/>
        <path class="cls-3" d="m162.32,168.37c-.3,0-.6-.09-.87-.26-.72-.48-.91-1.45-.43-2.16,1.86-2.77,5.16-4.42,8.35-6.01,2.18-1.09,4.24-2.12,5.39-3.32.59-.62,1.29-1.53,1.24-2.36-.03-.52-.37-1.06-1.01-1.6-.95-.79-1.49-1.97-1.45-3.17.02-.61-.08-1.41-.68-1.78-.98-.61-1.65-1.6-1.84-2.73-.12-.73-.39-1.05-1.07-1.29-1.07-.38-1.92-1.23-2.39-2.38-.32-.79-1.28-1.01-1.82-.82-.29.11-.81.63-1.26,1.09-1.13,1.14-2.68,2.7-5.16,2.89-1.4.11-2.38-.66-3.18-1.28-1.01-.79-1.55-1.15-2.74-.79-.98.3-1.25,1.76-1.56,4.12-.22,1.67-.48,3.56-1.31,5.15-.4.76-1.34,1.06-2.1.66-.76-.4-1.06-1.34-.66-2.1.58-1.11.78-2.64.98-4.12.36-2.71.78-5.77,3.73-6.68,2.8-.86,4.47.45,5.58,1.31.38.3.81.68,1.01.63,1.32-.1,2.23-1.01,3.18-1.98.72-.73,1.47-1.48,2.43-1.83,2.22-.8,4.85.38,5.75,2.57.06.15.24.52.55.63,1.75.62,2.79,1.87,3.1,3.71.04.24.19.46.41.6,1.46.9,2.22,2.52,2.15,4.54,0,.24.11.49.33.67,1.31,1.1,2.05,2.42,2.13,3.81.09,1.56-.62,3.13-2.1,4.69-1.52,1.6-3.82,2.74-6.25,3.95-2.83,1.41-5.76,2.87-7.16,4.96-.3.45-.79.69-1.3.69Z"/>
        <path class="cls-3" d="m150.28,148.02c-.46,0-.92-.2-1.22-.59-5.09-6.44-12.77-9.24-25.67-9.37-.86,0-1.55-.71-1.54-1.57,0-.86.68-1.55,1.57-1.54,13.95.14,22.34,3.3,28.08,10.55.53.67.42,1.66-.26,2.19-.29.23-.63.34-.97.34Z"/>
        <path class="cls-3" d="m166.81,184.05c-.93,0-1.87-.16-2.78-.49-2.11-.77-4.57-1.5-7.31-2.16-.84-.2-1.35-1.04-1.15-1.88.2-.84,1.04-1.35,1.88-1.15,2.85.69,5.43,1.45,7.65,2.26,1.74.63,3.65.26,5-.98l26.02-23.9c.44-.4.64-.97.55-1.55-.09-.61-.46-1.11-1.03-1.38-6.19-2.98-13.6-4.62-22-4.87-.86-.03-1.54-.74-1.51-1.6.03-.86.75-1.53,1.6-1.51,8.84.26,16.66,2,23.26,5.18,1.49.72,2.52,2.11,2.76,3.74.24,1.6-.33,3.21-1.53,4.31l-26.02,23.9c-1.5,1.38-3.42,2.1-5.39,2.1Z"/>
        <path class="cls-3" d="m161.76,143.48c-.33,0-.66-.1-.94-.32-.69-.52-.82-1.5-.3-2.18l10.27-13.58-12.49,15.5c-.54.67-1.52.78-2.19.24-.67-.54-.78-1.52-.24-2.19l12.44-15.53c.91-1.13,2.46-1.5,3.79-.89.87.4,1.5,1.17,1.73,2.1.23.93.03,1.9-.54,2.66l-10.27,13.58c-.31.41-.77.62-1.24.62Z"/>
        <path class="cls-3" d="m235.42,215.99c-.12,0-.24-.01-.36-.04l-97.21-23.02c-.84-.2-1.36-1.04-1.16-1.88s1.04-1.35,1.88-1.16l97.21,23.02c.84.2,1.36,1.04,1.16,1.88-.17.72-.81,1.2-1.52,1.2Z"/>
        <path class="cls-3" d="m244.21,230.74c-.12,0-.24-.01-.37-.04l-135.78-32.64c-.84-.2-1.35-1.04-1.15-1.88.2-.84,1.04-1.35,1.88-1.15l135.78,32.64c.84.2,1.35,1.04,1.15,1.88-.17.71-.81,1.2-1.51,1.2Z"/>
        <path class="cls-3" d="m198.25,254.57c-.86,0-1.56-.7-1.56-1.56v-34.88c0-.86.7-1.56,1.56-1.56s1.56.7,1.56,1.56v34.88c0,.86-.7,1.56-1.56,1.56Z"/>
        <path class="cls-3" d="m164.72,249.21s-.04,0-.06,0c-.86-.03-1.53-.76-1.5-1.62.16-4.32.33-7.42.73-14.9l.34-6.35c.65-12.16-3.51-15.63-10.43-17.29-.84-.2-1.35-1.04-1.15-1.88s1.04-1.35,1.88-1.15c9.75,2.34,13.47,8.28,12.81,20.49l-.34,6.35c-.4,7.46-.57,10.55-.73,14.84-.03.84-.72,1.5-1.56,1.5Z"/>
        <path class="cls-3" d="m289.97,144.3c-.09,0-.18,0-.28-.03l-30.77-5.52c-.85-.15-1.41-.96-1.26-1.81.15-.85.96-1.41,1.81-1.26l30.77,5.52c.85.15,1.41.96,1.26,1.81-.14.75-.79,1.28-1.53,1.28Z"/>
        <path class="cls-3" d="m228.42,133.26c-.09,0-.18,0-.28-.03l-20.36-3.65c-.85-.15-1.41-.96-1.26-1.81.15-.85.96-1.41,1.81-1.26l20.36,3.65c.85.15,1.41.96,1.26,1.81-.14.75-.79,1.28-1.53,1.28Z"/>
        <path class="cls-3" d="m178.83,124.37c-.09,0-.18,0-.28-.03l-37.94-6.8c-.85-.15-1.41-.96-1.26-1.81.15-.85.96-1.41,1.81-1.26l37.94,6.8c.85.15,1.41.96,1.26,1.81-.14.75-.79,1.28-1.53,1.28Z"/>
        <path class="cls-3" d="m121.73,114.13c-.09,0-.18,0-.28-.03l-9.43-1.69c-.85-.15-1.41-.96-1.26-1.81.15-.85.96-1.41,1.81-1.26l9.43,1.69c.85.15,1.41.96,1.26,1.81-.14.75-.79,1.28-1.53,1.28Z"/>
        <path class="cls-3" d="m237.94,150.19c-7.78,0-13.65-3.2-13.65-7.44s5.87-7.44,13.65-7.44,13.65,3.2,13.65,7.44-5.87,7.44-13.65,7.44Zm0-11.77c-6.52,0-10.53,2.52-10.53,4.33s4.01,4.33,10.53,4.33,10.53-2.52,10.53-4.33-4.01-4.33-10.53-4.33Z"/>
        <path class="cls-3" d="m237.94,176.03c-8.51,0-14.94-3.47-14.94-8.07,0-1.71.9-3.33,2.61-4.66.68-.53,1.66-.41,2.19.27.53.68.41,1.66-.27,2.19-.64.5-1.41,1.3-1.41,2.21,0,2.34,5.05,4.95,11.82,4.95s11.82-2.61,11.82-4.95c0-.91-.77-1.7-1.41-2.21-.68-.53-.8-1.51-.27-2.19.53-.68,1.51-.8,2.19-.27,1.71,1.34,2.61,2.95,2.61,4.66,0,4.6-6.42,8.07-14.94,8.07Z"/>
        <path class="cls-3" d="m245.76,148.79c-.67,0-1.28-.43-1.49-1.1-.27-.89-2.68-2.17-6.32-2.17s-6.05,1.28-6.32,2.17c-.26.82-1.13,1.28-1.95,1.03-.82-.26-1.28-1.13-1.03-1.95.8-2.57,4.62-4.36,9.3-4.36s8.52,1.8,9.31,4.38c.25.82-.21,1.7-1.03,1.95-.15.05-.31.07-.46.07Z"/>
        <path class="cls-3" d="m237.94,171.18c-10.07,0-13.65-5.24-13.65-9.73v-18.7c0-.86.7-1.56,1.56-1.56s1.56.7,1.56,1.56v18.7c0,3.2,2.77,6.62,10.53,6.62s10.53-3.42,10.53-6.62v-18.7c0-.86.7-1.56,1.56-1.56s1.56.7,1.56,1.56v18.7c0,4.49-3.57,9.73-13.65,9.73Z"/>
        <path class="cls-3" d="m225.85,160.37c-.15,0-.29-.02-.44-.06-3.2-.94-5.67-2.64-7.33-5.05-2.25-3.25-2.47-7.32-.6-10.88,1.92-3.66,5.65-5.93,9.75-5.93.86,0,1.56.7,1.56,1.56s-.7,1.56-1.56,1.56c-2.93,0-5.61,1.63-6.99,4.26-1.32,2.51-1.17,5.38.41,7.66,1.26,1.83,3.11,3.08,5.64,3.83.83.24,1.3,1.11,1.06,1.94-.2.68-.82,1.12-1.5,1.12Z"/>
        <path class="cls-3" d="m255.67,134.31c-5.32,0-9.65-4.33-9.65-9.65s4.33-9.65,9.65-9.65c1.35,0,2.66.27,3.89.81.79.35,1.15,1.27.8,2.05-.35.79-1.27,1.15-2.05.8-.83-.37-1.72-.55-2.63-.55-3.6,0-6.53,2.93-6.53,6.53s2.93,6.53,6.53,6.53,6.44-2.85,6.53-6.36c.01-.5.26-.95.67-1.24.41-.28.92-.36,1.39-.2.83.28,1.7.42,2.58.42,4.44,0,8.04-3.61,8.04-8.04,0-1.83-.6-3.55-1.73-4.98-.53-.67-.42-1.66.26-2.19.68-.53,1.66-.42,2.19.26,1.57,1.99,2.4,4.38,2.4,6.92,0,6.16-5.01,11.16-11.16,11.16-.59,0-1.17-.04-1.75-.14-.96,4.34-4.79,7.51-9.41,7.51Z"/>
        <path class="cls-3" d="m257.27,118.3c-.79,0-1.47-.6-1.55-1.41-.04-.37-.06-.74-.06-1.12,0-5.89,4.6-10.79,10.48-11.14.86-.05,1.6.6,1.65,1.46.05.86-.6,1.6-1.46,1.65-4.23.26-7.55,3.78-7.55,8.03,0,.27.01.55.04.81.09.86-.54,1.62-1.4,1.71-.05,0-.1,0-.16,0Z"/>
        <circle class="cls-3" cx="270.84" cy="107.04" r="1.41"/>
        <path class="cls-3" d="m246.67,251.91c-.12,0-.24-.01-.37-.04l-21.95-5.28c-.84-.2-1.35-1.04-1.15-1.88.2-.84,1.04-1.35,1.88-1.15l21.95,5.28c.84.2,1.35,1.04,1.15,1.88-.17.71-.81,1.2-1.51,1.2Z"/>
        <path class="cls-3" d="m267.02,238.38c-1.89,0-3.92-.46-5.99-1.38-9.46-4.25-13.33-11.68-13.8-17.22-.36-4.24,1.08-7.88,3.85-9.72h0c2.51-1.67,5.74-2.11,9.35-1.25,5.68,1.35,11.36,5.78,14.46,11.26,3.1,5.48,2.9,11.44-.5,15.16-1.9,2.08-4.48,3.15-7.37,3.15Zm-14.21-25.73c-1.78,1.19-2.73,3.82-2.47,6.87.39,4.66,3.74,10.95,11.97,14.64,3.93,1.76,7.58,1.38,9.77-1.02,2.47-2.71,2.51-7.24.09-11.53-2.69-4.77-7.58-8.6-12.46-9.76-1.91-.46-4.66-.69-6.89.81h0Z"/>
        <path class="cls-3" d="m280.66,244.21c-.45,0-.9-.22-1.17-.62-4.6-6.76-11.23-13.54-17.73-18.12-.64-.45-.79-1.33-.34-1.97s1.33-.79,1.98-.34c6.76,4.77,13.66,11.81,18.44,18.84.44.65.27,1.53-.38,1.97-.24.17-.52.25-.8.25Z"/>
        <path class="cls-3" d="m278.01,202.69c-3.79,0-8.22-1.23-12.87-3.68-7.76-4.08-11.98-9.84-11.57-15.81.3-4.36,3.16-8.14,7.27-9.62,4.64-1.67,11.09-1.04,16.41,1.61,3.88,1.94,9,5.79,11.29,13.18,1.47,4.75.46,9.17-2.71,11.8-2.02,1.68-4.7,2.51-7.82,2.51Zm-11.37-26.93c-1.71,0-3.33.25-4.74.75-2.95,1.06-5,3.77-5.21,6.9-.32,4.67,3.29,9.35,9.91,12.83,7.32,3.85,13.76,4.42,17.24,1.53,2.2-1.83,2.83-4.92,1.73-8.48-1.96-6.33-6.36-9.65-9.7-11.31-2.93-1.46-6.22-2.22-9.22-2.22Z"/>
        <path class="cls-3" d="m288.06,223.98c-.76,0-1.39-.61-1.42-1.38-.42-14.17-5.12-26.15-12.56-32.05-.61-.49-.72-1.38-.23-1.99.49-.61,1.38-.72,1.99-.23,8.1,6.42,13.19,19.2,13.64,34.19.02.78-.59,1.44-1.37,1.46h-.04Z"/>
        <path class="cls-3" d="m285.25,255.25c-.71,0-1.32-.53-1.41-1.25-3.54-30.76,13.76-59.55,20.1-67.21.5-.6,1.39-.69,2-.19.6.5.69,1.39.19,2-6.14,7.42-22.89,35.3-19.47,65.08.09.78-.47,1.48-1.25,1.57-.06,0-.11,0-.16,0Z"/>
        <path class="cls-3" d="m301.47,202.58c-1.48,0-2.86-.35-4.1-1.07-4.3-2.48-5.79-8.78-3.98-16.87,1.98-8.83,8.92-15.17,14.93-17.53,4.44-1.75,8.56-1.57,11.58.5h0c2.27,1.55,3.65,4.3,3.9,7.74.5,6.84-3.44,14.83-10.52,21.37-4.17,3.85-8.28,5.85-11.82,5.85Zm12.64-33.54c-1.42,0-2.99.33-4.65.98-5.24,2.06-11.3,7.6-13.03,15.31-1.47,6.58-.52,11.75,2.49,13.48,2.89,1.66,7.47.03,12.25-4.38,6.39-5.9,9.95-12.95,9.52-18.85-.18-2.47-1.09-4.39-2.55-5.39-1.12-.76-2.49-1.15-4.03-1.15Z"/>
        <path class="cls-3" d="m307.57,161.24c-.41,0-.82-.03-1.24-.1-4.57-.72-8.28-5.33-9.23-11.49-.99-6.46.84-12.77,4.79-16.46,2.78-2.6,6.29-3.58,9.88-2.78h0c3.06.69,5.69,2.91,7.2,6.09,1.28,2.7,2.83,8.46-1.25,16.61-2.61,5.23-6.26,8.12-10.15,8.12Zm1.76-27.98c-2.38,0-4.16,1.14-5.31,2.21-3.2,2.99-4.67,8.25-3.83,13.7.73,4.73,3.45,8.38,6.63,8.88,2.91.46,5.88-1.85,8.12-6.33,3.49-6.97,2.26-11.69,1.22-13.88-1.1-2.31-2.94-3.91-5.07-4.38h0c-.62-.14-1.21-.2-1.76-.2Z"/>
        <path class="cls-3" d="m301.3,175.08c-.16,0-.33-.03-.49-.09-.74-.27-1.11-1.08-.85-1.82,2.7-7.38,5.13-16.72,7.23-27.75.15-.77.89-1.27,1.66-1.13.77.15,1.27.89,1.13,1.66-2.13,11.18-4.6,20.67-7.35,28.2-.21.57-.75.93-1.33.93Z"/>
        <path class="cls-3" d="m332.36,178.53c-.57,0-1.13-.08-1.69-.24-1.66-.49-2.77-1.72-3.11-3.47-.87-4.4,3.17-11.21,7.34-14.56,2.98-2.4,6.01-3.11,8.52-2.01h0c2.79,1.22,3.6,4.29,2.17,8.21-1.92,5.28-7.85,12.07-13.24,12.07Zm8.62-17.67c-1.57,0-3.18,1.08-4.12,1.83-4.07,3.28-6.74,8.99-6.24,11.53.15.76.54.97.93,1.08,3.37.99,9.3-4.93,11.11-9.91.48-1.31,1.05-3.62-.49-4.29-.39-.17-.79-.24-1.2-.24Z"/>
        <path class="cls-3" d="m323.92,192.01c-.15,0-.3-.02-.45-.07-.74-.25-1.14-1.05-.9-1.79,1.93-5.8,5.9-14.38,10.7-19.5.53-.57,1.43-.6,2-.06.57.54.6,1.43.06,2-4.2,4.48-8.09,12.5-10.08,18.46-.2.59-.75.97-1.34.97Z"/>
        <path class="cls-3" d="m316.29,225.49c-1.8,0-3.42-.45-4.79-1.38-3.58-2.41-4.43-7.38-2.35-13.64,3.11-9.33,11.33-14.84,17.42-16.72,4.6-1.42,8.7-1.14,11.23.79h0c1.88,1.42,2.91,3.55,2.99,6.15.16,5.58-4.09,12.49-11.67,18.96-4.48,3.83-9.04,5.85-12.84,5.85Zm15.75-29.52c-1.36,0-2.91.25-4.55.76-5.39,1.67-12.65,6.53-15.39,14.73-1.59,4.76-1.16,8.52,1.13,10.07,2.47,1.66,7.71.99,13.86-4.26,6.75-5.76,10.71-11.93,10.58-16.49-.05-1.65-.64-2.91-1.75-3.76h0c-.92-.7-2.27-1.05-3.88-1.05Z"/>
        <path class="cls-3" d="m294.19,237.26c-.68,0-1.28-.49-1.4-1.18-.13-.77.39-1.5,1.16-1.63,16.33-2.74,23.4-12.43,28.56-19.51.66-.9,1.28-1.75,1.88-2.53.48-.62,1.37-.74,1.99-.26.62.48.74,1.37.26,1.99-.59.76-1.19,1.6-1.84,2.48-5.14,7.05-12.91,17.7-30.38,20.64-.08.01-.16.02-.24.02Z"/>
        <path class="cls-3" d="m314.63,53.93c-.08,0-.16,0-.24-.02l-24.66-3.84c-.85-.13-1.43-.93-1.3-1.78.13-.85.93-1.44,1.78-1.3l22.86,3.56v-31.87c0-.86.7-1.56,1.56-1.56s1.56.7,1.56,1.56v33.69c0,.46-.2.89-.54,1.18-.28.24-.65.37-1.01.37Z"/>
        <path class="cls-3" d="m254.89,53.65s-.08,0-.13,0c-.7-.07-1.21-.69-1.15-1.39.24-2.47.7-6.73,1.24-11.8.78-7.29,1.75-16.37,2.51-24.09.07-.7.69-1.21,1.39-1.14.7.07,1.21.69,1.14,1.39-.76,7.73-1.73,16.81-2.52,24.11-.54,5.06-1,9.31-1.24,11.78-.06.66-.62,1.15-1.27,1.15Z"/>
        <path class="cls-3" d="m218.63,48.2c-.08,0-.16,0-.24-.02-.69-.13-1.15-.8-1.02-1.49,1.65-8.78,4.82-21.21,7.03-29.19.19-.68.89-1.08,1.57-.89.68.19,1.08.89.89,1.57-2.2,7.93-5.34,20.28-6.98,28.98-.12.61-.65,1.04-1.25,1.04Z"/>
        <path class="cls-3" d="m264.02,67.52c-4.85,0-9.87-1.28-13.45-4.34-5.35-4.58-10.71-2.93-12.23-2.31-.63.25-1.22.5-1.78.74-4.24,1.78-7.31,3.06-12.98,2.23-6.09-.89-9.1-3.82-12.29-6.91l-.59-.58c-3.72-3.59-8.61-4.84-14.56-3.72-1.59.3-3.19-.22-4.29-1.39-1.07-1.15-1.48-2.74-1.09-4.26,3.11-12.09,10.79-34,16.85-46.12.39-.77,1.32-1.08,2.09-.7.77.38,1.08,1.32.7,2.09-5.8,11.59-13.56,33.58-16.62,45.5-.13.49,0,.98.34,1.35.37.39.9.56,1.44.46,7-1.32,12.82.21,17.3,4.54l.6.58c3.06,2.97,5.48,5.32,10.57,6.06,4.81.71,7.12-.26,11.32-2.02.57-.24,1.17-.49,1.81-.75,1.93-.79,8.74-2.9,15.43,2.83,4.96,4.25,13.88,4.42,19.63,2.13.53-.21,1.04-.42,1.53-.62,4.31-1.75,7.43-3.02,12.92-2.53.44.04.86-.11,1.18-.41.31-.29.48-.69.47-1.11l-1.01-41.75c-.02-.86.66-1.58,1.52-1.6.86.02,1.58.66,1.6,1.52l1.01,41.75c.03,1.31-.5,2.57-1.45,3.46-.96.9-2.27,1.36-3.58,1.24-4.74-.41-7.42.67-11.48,2.32-.5.2-1.01.41-1.55.62-2.68,1.07-5.98,1.69-9.36,1.69Z"/>
        <path class="cls-3" d="m209.74,123.23c-.34,0-.69-.03-1.03-.09l-34.35-5.96c-1.58-.27-2.95-1.15-3.87-2.46-.92-1.32-1.26-2.91-.97-4.49l3.2-17.44c.58-3.16,3.53-5.29,6.71-4.83l34.16,4.89c1.6.23,3,1.07,3.96,2.37.96,1.3,1.34,2.89,1.08,4.49l-3,18.51c-.26,1.58-1.12,2.97-2.43,3.9-1.02.73-2.22,1.11-3.45,1.11Zm-31.18-32.21c-1.35,0-2.54.96-2.79,2.33l-3.2,17.44c-.14.75.03,1.51.46,2.14.44.63,1.09,1.04,1.85,1.17l34.35,5.96c.75.13,1.51-.04,2.14-.49.62-.44,1.03-1.11,1.16-1.86l3-18.51c.12-.76-.06-1.52-.52-2.14s-1.13-1.02-1.89-1.13l-34.16-4.89h0c-.14-.02-.28-.03-.41-.03Z"/>
        <path class="cls-3" d="m194.87,137.99c-.61,0-1.23-.07-1.84-.21l-12.45-2.87c-1.7-.39-2.97-1.7-3.31-3.42-.34-1.72.34-3.41,1.78-4.42l1.61-1.13c1.19-.83,1.78-2.3,1.51-3.73l-.93-4.86c-.16-.85.39-1.66,1.24-1.82.84-.16,1.66.39,1.82,1.24l.93,4.86c.5,2.63-.59,5.32-2.78,6.86l-1.61,1.13c-.62.43-.55,1.08-.51,1.27s.21.81.95.98l12.45,2.87c1.82.42,3.71-.19,4.95-1.58l2.01-2.27c1.18-1.33,1.63-3.14,1.21-4.87l-1.28-5.24c-.2-.84.31-1.68,1.15-1.88.83-.2,1.68.31,1.88,1.15l1.28,5.24c.66,2.72-.05,5.58-1.91,7.68l-2.01,2.27c-1.58,1.78-3.82,2.76-6.13,2.76Z"/>
        <path class="cls-3" d="m208.45,115.88c-.32,0-.64-.14-.86-.4-.58-.68-1.38-1.51-1.95-2.09-.98-.99-1.13-2.54-.38-3.7,1.29-1.97,1.61-4.65.79-6.52-.57-1.29-1.57-2.06-2.99-2.3-1.85-.31-3.33.08-4.4,1.17-1.34,1.37-1.93,3.76-1.49,6.11.27,1.44-.6,2.87-2.01,3.33-.92.3-1.78.54-2.58.73-1.71.4-3.51-.35-4.49-1.86-1.28-1.98-1.93-3.87-2-5.76-.01-.32-.02-.66-.02-1.01,0-.52-.02-1.29-.07-1.94-.11.27-.2.57-.27.85-.08.31-.28.57-.56.73-.28.15-.61.18-.91.08-1.25-.43-2.43-.07-3.14.96-.56.81-.86,2.21.17,3.45.6.72,1.05,1.42,1.38,2.13l1.21,2.6c.26.57.02,1.24-.55,1.51s-1.24.02-1.51-.55l-1.21-2.6c-.25-.53-.6-1.07-1.07-1.63-1.49-1.8-1.61-4.28-.29-6.18,1.06-1.54,2.79-2.29,4.6-2.08.41-1.08,1.15-2.35,2.4-2.38.43,0,.85.16,1.17.46.8.77.88,2.24.92,4.57,0,.33.01.66.02.97.05,1.47.58,2.98,1.64,4.61.46.71,1.29,1.07,2.07.88.74-.17,1.55-.4,2.4-.68.33-.11.54-.44.48-.76-.57-3.05.26-6.23,2.1-8.11,1.11-1.13,3.12-2.36,6.39-1.82,2.16.36,3.83,1.65,4.7,3.62,1.13,2.57.74,6.06-.97,8.67-.18.27-.14.64.09.87.59.6,1.43,1.47,2.06,2.21.41.48.35,1.19-.13,1.6-.21.18-.47.27-.73.27Z"/>
        <path class="cls-3" d="m176.16,80.08c-3.47,0-7.29-6.34-9.16-11.04-2.53-6.37-2.29-10.7.66-11.87.91-.36,2.37-.5,4.15.9,4.3,3.39,8.07,14.08,7.39,18.77-.29,1.97-1.25,2.74-2.01,3.05-.34.13-.68.2-1.03.2Zm-7.23-20.6c-.12,0-.22.02-.32.06-1.1.44-1.21,3.59.77,8.56,2.45,6.17,5.92,9.8,6.87,9.42.15-.06.34-.4.43-1.04.57-3.91-2.85-13.55-6.45-16.4-.5-.4-.94-.6-1.3-.6Z"/>
        <path class="cls-3" d="m186.12,78.56c-.09,0-.17,0-.26-.01-.83-.08-2-.55-2.87-2.41-1.55-3.36-1.52-10.46.73-13.66.87-1.23,2.06-1.84,3.35-1.73,2.87.26,4.42,3.88,3.94,9.23-.39,4.34-2.05,8.6-4.9,8.6Zm.64-15.29c-.19,0-.53.07-.95.67-1.56,2.22-1.84,8.25-.5,11.12.29.63.6.93.78.95.67.06,2.03-2.35,2.39-6.27.31-3.45-.42-6.35-1.62-6.46h0s-.05,0-.09,0Z"/>
        <path class="cls-3" d="m166.9,85.82c-2.61,0-6.04-2.28-8.2-4.33-3.57-3.39-4.58-6.6-2.68-8.6.65-.69,1.86-1.41,3.89-.93,3.7.89,8.79,5.76,9.89,9.47.53,1.8-.01,2.87-.56,3.46-.62.65-1.43.93-2.33.93Zm-8.24-11.46c-.51,0-.71.21-.79.29h0c-.72.76.39,2.91,2.59,4.99,3.17,3.01,6.39,4.07,6.93,3.5.09-.1.14-.41-.03-.97-.77-2.58-5.05-7-8.04-7.72-.26-.06-.48-.09-.65-.09Zm-1.71-.59h0,0Z"/>
        <path class="cls-3" d="m131.44,108.17c-6,0-12.07-1.97-12.07-5.74s6.07-5.74,12.07-5.74h.27c.86.01,1.55.72,1.54,1.58-.01.85-.71,1.54-1.56,1.54h-.25c-5.87,0-8.95,1.94-8.95,2.62s3.08,2.62,8.95,2.62,8.95-1.95,8.95-2.62c0-.24-.69-1.1-2.92-1.8-.82-.26-1.28-1.13-1.02-1.95.26-.82,1.13-1.28,1.95-1.02,3.3,1.03,5.11,2.73,5.11,4.77,0,3.77-6.07,5.74-12.07,5.74Z"/>
        <path class="cls-3" d="m131.44,128.72c-6.13,0-9.96-2.26-10.5-6.21l-1.56-19.95c-.07-.86.57-1.61,1.43-1.68.87-.06,1.61.58,1.68,1.43l1.55,19.86c.44,3.18,5.78,3.43,7.4,3.43s6.96-.25,7.41-3.52l1.54-19.77c.07-.86.81-1.5,1.68-1.43.86.07,1.5.82,1.43,1.68l-1.55,19.86c-.55,4.04-4.38,6.31-10.51,6.31Z"/>
        <path class="cls-3" d="m130.5,108.15c-.07,0-.15,0-.22-.02-.85-.12-1.44-.91-1.32-1.76l2.8-19.5c.12-.81.55-1.53,1.21-2.01.66-.48,1.47-.68,2.28-.54l3.42.57c1.62.27,2.74,1.81,2.49,3.44l-2.72,17.91c-.13.85-.92,1.44-1.78,1.31-.85-.13-1.44-.92-1.31-1.78l2.71-17.82-3.23-.54-2.79,19.4c-.11.78-.78,1.34-1.54,1.34Z"/>
        <path class="cls-3" d="m128.13,107.95c-.69,0-1.31-.46-1.5-1.15l-3.36-12.29c-.23-.83.26-1.69,1.09-1.92.83-.23,1.69.26,1.91,1.09l3.36,12.29c.23.83-.26,1.69-1.09,1.92-.14.04-.28.06-.41.06Z"/>
        <path class="cls-3" d="m130.26,107.13c-.76,0-1.43-.56-1.54-1.34l-2.12-15.1c-.06-.41.05-.83.3-1.16.25-.33.63-.55,1.04-.6l.6-.08c.84-.11,1.62.48,1.74,1.32l2.06,14.19c.08.55-.14,1.07-.52,1.4-.08.68-.62,1.25-1.33,1.36-.07.01-.15.02-.22.02Z"/>
        <path class="cls-3" d="m128.44,92.24c-.78,0-1.46-.59-1.55-1.39l-.13-1.13c-.1-.86.52-1.63,1.38-1.72.86-.09,1.63.52,1.72,1.38l.13,1.13c.1.86-.52,1.63-1.38,1.72-.06,0-.12,0-.17,0Z"/>
        <path class="cls-3" d="m130.79,101.71c-.75,0-1.42-.55-1.54-1.32l-1.14-7.31c-.36-.22-.62-.58-.71-1.03-.16-.84.39-1.66,1.24-1.83l.53-.1c.42-.08.85.01,1.19.26.35.24.58.62.64,1.04l1.33,8.5c.13.85-.45,1.65-1.3,1.78-.08.01-.16.02-.24.02Z"/>
      </g>
    </g>
  </g>
</svg>