<svg fill="none" height="1062" viewBox="0 0 942 1062" width="942" xmlns="http://www.w3.org/2000/svg"><g stroke="#8cb4ff" stroke-opacity=".5"><path d="m48.8965 990.954c189.3455-26.416 476.2835-62.733 608.3205-219.52 118.923-141.217 98.042-395.96-95.81-463.283-193.853-67.323-400.475 88.955-331.076 302.645 69.398 213.69 390.043 219.217 528.124-9.549 138.081-228.767-8.976-378.913 136.235-492.458"/><path d="m48.7931 988.957c189.3459-26.416 476.2839-62.733 608.3199-219.521 118.924-141.216 98.043-395.959-95.81-463.282-193.852-67.323-400.474 88.954-331.076 302.645 69.399 213.69 390.044 219.217 528.125-9.55 138.081-228.766-8.976-378.912 136.234-492.457"/><path d="m48.6899 986.96c189.3451-26.416 476.2841-62.734 608.3201-219.521 118.924-141.216 98.043-395.959-95.81-463.282s-400.474 88.954-331.076 302.644 390.044 219.218 528.125-9.549c138.081-228.766-8.977-378.913 136.234-492.457"/><path d="m48.5865 984.962c189.3455-26.416 476.2835-62.733 608.3205-219.52 118.923-141.217 98.042-395.96-95.81-463.283-193.853-67.323-400.475 88.955-331.076 302.645 69.398 213.69 390.043 219.217 528.124-9.549 138.081-228.767-8.976-378.913 136.235-492.457"/><path d="m48.4831 982.965c189.3449-26.416 476.2839-62.734 608.3199-219.521 118.924-141.216 98.043-395.959-95.81-463.282-193.852-67.323-400.474 88.954-331.076 302.644 69.399 213.691 390.044 219.218 528.125-9.549 138.081-228.766-8.976-378.912 136.234-492.457"/><path d="m48.3798 980.968c189.3452-26.417 476.2842-62.734 608.3202-219.521 118.924-141.217 98.043-395.959-95.81-463.282s-400.474 88.954-331.076 302.644 390.044 219.218 528.125-9.549-8.977-378.913 136.234-492.4572"/><path d="m48.2764 978.97c189.3456-26.416 476.2836-62.733 608.3196-219.52 118.924-141.217 98.043-395.96-95.809-463.283-193.853-67.323-400.475 88.955-331.076 302.645 69.398 213.69 390.043 219.217 528.124-9.549 138.081-228.767-8.976-378.913 136.235-492.4576"/><path d="m48.173 976.973c189.345-26.416 476.284-62.733 608.32-219.521 118.924-141.216 98.043-395.959-95.81-463.282s-400.474 88.954-331.076 302.645c69.399 213.69 390.044 219.217 528.125-9.55 138.081-228.766-8.976-378.912 136.234-492.4569"/><path d="m48.0698 974.976c189.3452-26.417 476.2842-62.734 608.3202-219.521 118.923-141.216 98.043-395.959-95.81-463.282s-400.474 88.954-331.076 302.644 390.044 219.218 528.125-9.549c138.081-228.766-8.977-378.913 136.234-492.4572"/><path d="m47.9664 972.978c189.3456-26.416 476.2836-62.733 608.3196-219.52 118.924-141.217 98.043-395.96-95.809-463.283-193.853-67.323-400.475 88.955-331.076 302.645 69.398 213.69 390.043 219.217 528.124-9.549 138.081-228.767-8.976-378.913 136.235-492.4575"/><path d="m47.863 970.981c189.345-26.416 476.284-62.733 608.32-219.52 118.924-141.217 98.043-395.96-95.81-463.283s-400.474 88.954-331.076 302.645c69.399 213.69 390.044 219.217 528.125-9.55 138.081-228.766-8.976-378.912 136.234-492.4568"/><path d="m47.7596 968.984c189.3454-26.416 476.2834-62.734 608.3204-219.521 118.923-141.216 98.042-395.959-95.81-463.282-193.853-67.323-400.475 88.954-331.076 302.644 69.398 213.691 390.043 219.218 528.124-9.549 138.081-228.766-8.976-378.913 136.235-492.4571"/><path d="m47.6563 966.986c189.3457-26.416 476.2837-62.733 608.3197-219.52 118.924-141.217 98.043-395.96-95.81-463.282-193.852-67.323-400.474 88.954-331.075 302.644 69.398 213.69 390.043 219.217 528.124-9.549 138.081-228.767-8.976-378.913 136.234-492.4575"/><path d="m47.5529 964.989c189.3451-26.416 476.2841-62.733 608.3201-219.52 118.924-141.217 98.043-395.96-95.81-463.283s-400.474 88.954-331.076 302.645c69.399 213.69 390.044 219.217 528.125-9.55 138.081-228.766-8.977-378.912 136.234-492.4568"/><path d="m47.4495 962.992c189.3455-26.417 476.2835-62.734 608.3205-219.521 118.923-141.216 98.042-395.959-95.81-463.282-193.853-67.323-400.475 88.954-331.076 302.644 69.398 213.69 390.043 219.218 528.124-9.549 138.081-228.766-8.976-378.913 136.235-492.4572"/><path d="m47.3462 960.994c189.3458-26.416 476.2838-62.733 608.3198-219.52 118.924-141.217 98.043-395.96-95.81-463.283-193.852-67.323-400.474 88.955-331.076 302.645 69.399 213.69 390.044 219.217 528.125-9.549 138.081-228.767-8.976-378.913 136.234-492.4575"/><path d="m47.2428 958.997c189.3452-26.416 476.2842-62.733 608.3202-219.52 118.924-141.217 98.043-395.96-95.81-463.283s-400.474 88.954-331.076 302.645c69.398 213.69 390.044 219.217 528.125-9.55 138.081-228.766-8.977-378.912 136.234-492.4568"/><path d="m47.1395 957c189.3455-26.416 476.2835-62.734 608.3195-219.521 118.924-141.216 98.043-395.959-95.809-463.282-193.853-67.323-400.475 88.954-331.076 302.644 69.398 213.691 390.043 219.218 528.124-9.549 138.081-228.766-8.976-378.913 136.235-492.4571"/><path d="m47.0362 955.002c189.3458-26.416 476.2838-62.733 608.3198-219.52 118.924-141.217 98.043-395.96-95.81-463.282-193.852-67.323-400.474 88.954-331.076 302.644 69.399 213.69 390.044 219.217 528.125-9.549 138.081-228.767-8.976-378.913 136.234-492.4575"/><path d="m46.9328 953.005c189.3452-26.416 476.2842-62.733 608.3202-219.52 118.924-141.217 98.043-395.96-95.81-463.283s-400.474 88.954-331.076 302.645c69.398 213.69 390.044 219.217 528.125-9.55 138.081-228.766-8.977-378.912 136.234-492.4568"/></g></svg>